<svg xml:space="preserve" style="max-height: 500px" viewBox="-137.352 201.76 614.184 147.352" y="0px" x="0px" xmlns:xlink="http://www.w3.org/1999/xlink" xmlns="http://www.w3.org/2000/svg" id="layer" version="1.1" width="614.184" height="147.352">
<style type="text/css">
	.st0{fill:#D6C688;}
</style>
<path d="M-97.5,243.8c0.5-1.2,1-2.5,1.4-3.9c0.5-1.4,0.9-2.9,1.3-4.6c0.5,1.7,1,3.3,1.4,4.7c0.5,1.4,0.9,2.7,1.4,3.8l7.8,17.1h-21.1&#xA;&#9;L-97.5,243.8z M-58.2,290.4l-36.7-78l-36.7,78h12.9l8.8-19.3h30l8.6,19.3H-58.2z M-39,225.5h4.7c6.2,0,10.5,0.8,12.7,2.5&#xA;&#9;c2.2,1.7,3.4,4.5,3.4,8.6c0,3.8-1.2,6.4-3.6,8c-2.4,1.6-6.6,2.4-12.5,2.4H-39V225.5z M-39,256.3h4.2h3.7c2.5,0,4.5,0.1,6,0.4&#xA;&#9;c1.5,0.3,2.8,0.7,4,1.3c1.9,1,3.3,2.4,4.3,4.2c1,1.8,1.5,3.9,1.5,6.3c0,2-0.4,3.9-1.2,5.5c-0.8,1.7-2,3-3.5,4&#xA;&#9;c-1.2,0.9-2.9,1.5-5.1,1.8c-2.1,0.3-5.4,0.5-9.7,0.5H-39V256.3z M-31.9,290.4c7.2,0,12.4-0.4,15.5-1.3c3.1-0.9,5.6-2.3,7.7-4.4&#xA;&#9;c2-1.9,3.5-4.2,4.6-7c1.1-2.7,1.6-5.6,1.6-8.7c0-5-1.3-9.2-3.8-12.5c-2.5-3.3-6-5.3-10.4-6c3.6-1.1,6.3-2.9,8.1-5.6&#xA;&#9;c1.9-2.7,2.8-6,2.8-10c0-3.3-0.6-6.4-1.9-9.2c-1.3-2.8-3.1-5-5.5-6.7c-1.8-1.3-4-2.3-6.7-2.9c-2.6-0.6-6.6-0.9-12.1-0.9h-19.1v75.1&#xA;&#9;C-51.1,290.4-31.9,290.4-31.9,290.4z M22.3,290.4V252l30,38.4h15.9l-33.6-41.7l30-33.4H49.6l-27.2,31.1v-31.1H10v75.1H22.3z&#xA;&#9; M149.8,262.3H168v1.1c0,5.6-2,10-6.1,13.3c-4,3.2-9.6,4.9-16.6,4.9c-8.3,0-15-2.6-20.2-7.9c-5.2-5.3-7.8-12.2-7.8-20.6&#xA;&#9;c0-8.3,2.6-15.1,7.8-20.3c5.2-5.2,11.9-7.8,20.1-7.8c4,0,7.6,0.7,10.8,2.2c3.2,1.4,6.1,3.6,8.6,6.6l9-6.7c-3.7-4.4-7.9-7.7-12.6-9.9&#xA;&#9;c-4.7-2.2-10.1-3.2-16-3.2c-5.7,0-11,0.9-15.9,2.8c-5,1.9-9.3,4.6-13,8.2c-3.8,3.7-6.7,7.9-8.7,12.7c-2,4.8-2.9,10-2.9,15.7&#xA;&#9;c0,5.6,1,10.8,2.9,15.7c1.9,4.9,4.7,9.1,8.3,12.8c3.7,3.7,7.9,6.4,12.8,8.2c4.9,1.8,10.4,2.7,16.6,2.7c11.1,0,19.7-2.9,25.8-8.8&#xA;&#9;c6.1-5.8,9.2-14,9.2-24.6c0-0.9,0-2.5-0.2-4.9c0-0.9-0.1-1.6-0.1-2.2h-30V262.3z M205.3,225.8h2.2c6.2,0,10.5,0.8,12.8,2.5&#xA;&#9;c2.3,1.7,3.4,4.6,3.4,8.7c0,3.8-1.1,6.5-3.2,8c-2.1,1.5-6.5,2.3-13,2.3h-2.2V225.8z M205.9,256.8l25.2,33.6H245l-26.1-34.1&#xA;&#9;c5.7-0.7,10.1-2.7,13-6.1c2.9-3.4,4.4-8.1,4.4-14.1c0-3.4-0.6-6.6-1.9-9.4c-1.3-2.9-3.1-5.2-5.4-7c-2-1.5-4.3-2.6-7.1-3.2&#xA;&#9;c-2.8-0.6-6.7-1-11.7-1H193v75.1h11.5v-33.6H205.9z M315.1,263.8c-1.4,3.4-3.4,6.4-6,9.1c-2.7,2.7-5.7,4.7-9,6.1&#xA;&#9;c-3.3,1.4-6.8,2.1-10.5,2.1c-3.8,0-7.3-0.7-10.7-2.1c-3.3-1.4-6.3-3.4-9-6.1c-2.6-2.7-4.6-5.7-6-9.1c-1.4-3.4-2.1-7-2.1-10.8&#xA;&#9;c0-3.8,0.7-7.5,2.1-10.9c1.4-3.4,3.4-6.4,6-9.1c2.6-2.7,5.6-4.7,9-6.1c3.4-1.4,6.9-2.1,10.6-2.1c3.7,0,7.3,0.7,10.6,2.1&#xA;&#9;c3.4,1.4,6.3,3.4,8.9,6.1c2.6,2.7,4.6,5.7,6,9.1c1.4,3.4,2.1,7,2.1,10.8C317.2,256.8,316.5,260.4,315.1,263.8 M327,237.9&#xA;&#9;c-2-4.8-5-9-8.8-12.8c-3.9-3.7-8.2-6.6-13.1-8.5c-4.9-1.9-10.1-2.9-15.5-2.9c-5.5,0-10.7,1-15.6,2.9c-4.9,1.9-9.3,4.8-13.2,8.5&#xA;&#9;c-3.9,3.8-6.8,8-8.8,12.8c-2,4.8-3,9.8-3,15.2c0,5.4,1,10.5,3,15.2c2,4.7,4.9,8.9,8.8,12.7c3.8,3.7,8.2,6.5,13.1,8.5&#xA;&#9;c5,2,10.2,3,15.6,3c5.4,0,10.5-1,15.4-3c4.9-2,9.3-4.8,13.2-8.6c3.9-3.7,6.8-8,8.8-12.7c2-4.7,3-9.8,3-15.1&#xA;&#9;C330.1,247.7,329.1,242.7,327,237.9 M343.9,262c0,10.2,2.6,17.8,7.7,22.8c5.1,5,12.9,7.5,23.4,7.5s18.2-2.5,23.4-7.6&#xA;&#9;c5.2-5,7.8-12.6,7.8-22.8v-46.7h-12.3v45.6c0,6.8-1.6,11.9-4.7,15.3c-3.2,3.4-7.9,5.1-14.1,5.1c-6.3,0-11-1.7-14.2-5.1&#xA;&#9;c-3.2-3.4-4.7-8.5-4.7-15.3v-45.6h-12.2L343.9,262L343.9,262z M435.4,225.8h3.2c6.5,0,11,0.8,13.4,2.5c2.4,1.6,3.7,4.5,3.7,8.5&#xA;&#9;c0,3.7-1.1,6.3-3.4,7.8c-2.3,1.5-6.8,2.2-13.7,2.2h-3.2V225.8z M439.3,256.7h2.4c5.5,0,9.6-0.3,12.2-0.9c2.6-0.6,4.9-1.6,6.8-2.9&#xA;&#9;c2.4-1.7,4.2-4.1,5.6-7.1c1.3-3,2-6.3,2-9.8c0-3.6-0.7-6.8-2-9.8c-1.3-3-3.2-5.3-5.6-7.1c-1.9-1.4-4.2-2.4-6.8-2.9&#xA;&#9;c-2.6-0.6-6.7-0.9-12.2-0.9h-18.6v75.1h11.5v-33.7H439.3z"/>
<path d="M315.3,314.5h-1.4v22.4h7.1v-1.3h-5.7L315.3,314.5L315.3,314.5z M305.8,328.2H297l4.4-10.8L305.8,328.2z M306.3,329.6l3,7.4&#xA;&#9;h1.5l-9.4-23.2l-9.4,23.2h1.5l3-7.4H306.3z M280.6,325v-9.1h0.9c1.3,0,2.8-0.1,4,0.5c1.6,0.7,2.4,2.4,2.4,4c0,1.3-0.5,2.7-1.6,3.5&#xA;&#9;c-1.1,1-2.5,1-3.9,1C282.4,325,280.6,325,280.6,325z M282.9,326.3c3.7,0.1,6.4-2,6.4-5.9c0-1.9-0.7-3.7-2.3-4.8&#xA;&#9;c-1.5-1.1-3.3-1.1-5.1-1.1h-2.8v22.4h1.4v-10.6h0.7l7.3,10.6h1.6L282.9,326.3z M272.5,328.1c0,2,0,4.2-1.2,5.6&#xA;&#9;c-1.1,1.4-3.3,2.2-5,2.2c-1.7,0-3.9-0.7-5-2.2c-1.2-1.5-1.2-3.6-1.2-5.6v-13.6h-1.4v14c0,2.3,0,4.3,1.5,6.1c1.5,1.7,3.8,2.6,6.1,2.6&#xA;&#9;c2.3,0,4.6-0.9,6.1-2.6c1.5-1.9,1.5-3.8,1.5-6.1v-14h-1.4L272.5,328.1L272.5,328.1z M250,315.9h5.8v-1.3h-13v1.3h5.8v21.1h1.4&#xA;&#9;L250,315.9L250,315.9z M240.2,317.1c-2-1.8-4.7-2.9-7.4-2.9c-6.4,0-11.7,5.2-11.7,11.5c0,6.3,5.4,11.5,11.7,11.5&#xA;&#9;c2.8,0,5.4-1,7.5-2.8v-2c-1.7,2-4.9,3.4-7.5,3.4c-2.6,0-5.3-1.3-7.2-3.1c-1.9-1.8-3-4.3-3-6.9c0-5.5,4.6-10.3,10.2-10.3&#xA;&#9;c2.8,0,5.8,1.4,7.5,3.5L240.2,317.1L240.2,317.1z M217.4,315.9v-1.3h-10.7v22.4h10.7v-1.3h-9.3v-10.3h9V324h-9v-8.1L217.4,315.9&#xA;&#9;L217.4,315.9z M197.8,315.9h5.8v-1.3h-13v1.3h5.8v21.1h1.4L197.8,315.9L197.8,315.9z M187.4,314.5h-1.4v22.4h1.4V314.5z M165.5,324&#xA;&#9;v-9.5H164v22.4h1.4v-11.6h13.6v11.6h1.4v-22.4h-1.4v9.5H165.5z M159.3,317.1c-2-1.8-4.7-2.9-7.4-2.9c-6.4,0-11.7,5.2-11.7,11.5&#xA;&#9;c0,6.3,5.4,11.5,11.7,11.5c2.8,0,5.4-1,7.5-2.8v-2c-1.7,2-4.9,3.4-7.5,3.4c-2.6,0-5.3-1.3-7.2-3.1c-1.9-1.8-3-4.3-3-6.9&#xA;&#9;c0-5.5,4.6-10.3,10.2-10.3c2.8,0,5.8,1.4,7.5,3.5L159.3,317.1L159.3,317.1z M127.8,325v-9.1h0.9c1.3,0,2.8-0.1,4,0.5&#xA;&#9;c1.6,0.7,2.4,2.4,2.4,4c0,1.3-0.5,2.7-1.6,3.5c-1.1,1-2.5,1-3.9,1C129.6,325,127.8,325,127.8,325z M130.1,326.3&#xA;&#9;c3.7,0.1,6.4-2,6.4-5.9c0-1.9-0.7-3.7-2.3-4.8c-1.5-1.1-3.3-1.1-5.1-1.1h-2.8v22.4h1.4v-10.6h0.7l7.3,10.6h1.6L130.1,326.3z&#xA;&#9; M118.2,328.2h-8.8l4.4-10.8L118.2,328.2z M118.8,329.6l3,7.4h1.5l-9.4-23.2l-9.4,23.2h1.5l3-7.4H118.8z"/>
<path d="M451.1,315.9v-1.3h-10.7v22.4h10.7v-1.3h-9.3v-10.3h9V324h-9v-8.1L451.1,315.9L451.1,315.9z M435.6,317.1&#xA;&#9;c-2-1.8-4.7-2.9-7.4-2.9c-6.4,0-11.7,5.2-11.7,11.5c0,6.3,5.4,11.5,11.7,11.5c2.8,0,5.4-1,7.5-2.8v-2c-1.7,2-4.9,3.4-7.5,3.4&#xA;&#9;c-2.6,0-5.3-1.3-7.2-3.1c-1.9-1.8-3-4.3-3-6.9c0-5.5,4.6-10.3,10.2-10.3c2.8,0,5.8,1.4,7.5,3.5V317.1z M409.7,328.2h-8.8l4.4-10.8&#xA;&#9;L409.7,328.2z M410.2,329.6l3,7.4h1.5l-9.4-23.2l-9.4,23.2h1.5l3-7.4H410.2z M395.2,315.9v-1.3h-9v22.4h1.4v-11.6h7.4V324h-7.4v-8.1&#xA;&#9;L395.2,315.9L395.2,315.9z M372.5,325v-9.1h0.9c1.3,0,2.8-0.1,4,0.5c1.6,0.7,2.4,2.4,2.4,4c0,1.3-0.5,2.7-1.6,3.5&#xA;&#9;c-1.1,1-2.5,1-3.9,1C374.3,325,372.5,325,372.5,325z M374.8,326.3c3.7,0.1,6.4-2,6.4-5.9c0-1.9-0.7-3.7-2.3-4.8&#xA;&#9;c-1.5-1.1-3.3-1.1-5.1-1.1H371v22.4h1.4v-10.6h0.7l7.3,10.6h1.6L374.8,326.3z M364.4,328.1c0,2,0,4.2-1.2,5.6&#xA;&#9;c-1.1,1.4-3.3,2.2-5,2.2c-1.7,0-3.9-0.7-5-2.2c-1.2-1.5-1.2-3.6-1.2-5.6v-13.6h-1.4v14c0,2.3,0,4.3,1.5,6.1c1.5,1.7,3.8,2.6,6.1,2.6&#xA;&#9;c2.3,0,4.6-0.9,6.1-2.6c1.5-1.9,1.5-3.8,1.5-6.1v-14h-1.4L364.4,328.1L364.4,328.1z M345.4,317.4c-1.1-1.9-3.2-3.2-5.5-3.2&#xA;&#9;c-3.4,0-5.7,2.3-5.7,5.7c0,1.8,0.8,3.1,2.3,4l4,2.1c1.9,1,4.5,2,4.5,4.5c0,3-2.6,5.3-5.5,5.3c-2.7,0-4.5-1.7-5.4-4l-1.2,0.6&#xA;&#9;c1,2.9,3.5,4.8,6.6,4.8c3.6,0,7-2.8,7-6.5c0-2-0.9-3.4-2.6-4.5l-4.3-2.2c-1.8-0.9-4-1.8-4-4.2s1.8-4.3,4.2-4.3c2.1,0,3.5,1,4.5,2.6&#xA;&#9;L345.4,317.4z M466.4,317.4c-1.1-1.9-3.2-3.2-5.5-3.2c-3.4,0-5.7,2.3-5.7,5.7c0,1.8,0.8,3.1,2.3,4l4,2.1c1.9,1,4.5,2,4.5,4.5&#xA;&#9;c0,3-2.6,5.3-5.5,5.3c-2.7,0-4.5-1.7-5.4-4l-1.2,0.6c1,2.9,3.5,4.8,6.6,4.8c3.6,0,7-2.8,7-6.5c0-2-0.9-3.4-2.6-4.5l-4.3-2.2&#xA;&#9;c-1.8-0.9-4-1.8-4-4.2s1.8-4.3,4.2-4.3c2.1,0,3.5,1,4.5,2.6L466.4,317.4z" class="st0"/>
</svg>