<?xml version="1.0" encoding="UTF-8" standalone="no"?>
<svg xmlns:svg="http://www.w3.org/2000/svg" xmlns="http://www.w3.org/2000/svg" xml:space="preserve" viewBox="0 0 115 50" height="50" width="115" version="1.1">
<g style="fill:#cf1430">
<path id="A" d="m 15.787,4.7420791 2.392,6.1129999 -13.179,33.199 5.228,0 3.739,-9.42 13.518,0 3.687,9.42 10.633,0 -15.385,-39.3119999 -10.633,0 z m -0.026,25.3729999 5.013,-12.629 4.942,12.629 -9.955,0 z"/>
<path id="E" d="m 56.299,21.883079 0,-12.4079999 15.591,0 1.879,-4.733 -27.425,0 0,39.3119999 25.952,0 1.879,-4.734 -17.876,0 0,-12.843 12.431,0 1.824,-4.594 z"/>
<path id="G" d="m 94.452,26.477079 6.561,0 0,13.303 c -0.785,0.215 -1.684,0.342 -2.636,0.341 -8.845,0 -11.433,-8.198 -11.433,-15.45 0,-6.958 2.221,-15.1959999 10.771,-15.1959999 l 9.113,0 1.878,-4.733 -12.06,0 c -11.711,0 -19.977,8.0929999 -19.977,19.9289999 0,11.69 7.939,19.929 20.25,19.929 6.133,0 10.109,-1.169 13.381,-2.311 l 0,-20.406 -14.024,0 -1.824,4.594 z"/>
</g>
</svg>