<?xml version="1.0" encoding="UTF-8"?>
<svg xmlns="http://www.w3.org/2000/svg" xmlns:xlink="http://www.w3.org/1999/xlink" xmlns:xodm="http://www.corel.com/coreldraw/odm/2003" xml:space="preserve" version="1.1" style="shape-rendering:geometricPrecision; text-rendering:geometricPrecision; image-rendering:optimizeQuality; fill-rule:evenodd; clip-rule:evenodd" viewBox="4849.5 6174.99 19999.94 8664.28">
 <defs>
  <style type="text/css">
   <![CDATA[
    .fil1 {fill:#380096}
    .fil0 {fill:#380096;fill-rule:nonzero}
    .fil2 {fill:url(#id0)}
   ]]>
  </style>
  <radialGradient id="id0" gradientUnits="userSpaceOnUse" gradientTransform="matrix(1 -0 -0 -1 0 16909)" cx="14480.37" cy="8454.27" r="2279.28" fx="14480.37" fy="8454.27">
   <stop offset="0" style="stop-opacity:1; stop-color:#FEFEFE"></stop>
   <stop offset="1" style="stop-opacity:1; stop-color:#C7C9CB"></stop>
  </radialGradient>
 </defs>
 <g id="Livello_x0020_1">
  <metadata id="CorelCorpID_0Corel-Layer"></metadata>
  <polygon class="fil0" points="17127.49,11179.49 12387.04,11179.49 12387.04,7844.04 13011.81,7218.29 13572.06,6732.02 17127.49,6732.02 "></polygon>
  <path class="fil1" d="M7114.15 11813.04l0 2174.73 -275.83 0 0 -373.77c-117.33,142.63 -249.27,249.83 -395.78,321.77 -145.31,72 -304.48,107.95 -477.77,107.95 -307.76,0 -571,-111.2 -789.51,-333.8 -217.21,-223.88 -325.76,-495.69 -325.76,-815.54 0,-313.09 109.89,-580.96 329.74,-803.46 219.93,-222.56 484.37,-333.76 793.54,-333.83 178.58,0 339.8,37.96 483.77,113.91 145.2,75.99 272.45,189.87 381.77,341.81l0 -399.77 275.83 0zm-1119.35 213.86c-155.93,0 -299.83,38.73 -431.77,115.99 -131.87,75.92 -237.21,183.2 -315.81,321.77 -77.33,138.6 -115.95,285.25 -115.95,439.77 0,153.25 39.3,299.82 117.96,439.73 78.6,139.87 183.84,249.24 315.81,327.76 133.25,77.4 275.8,115.96 427.78,115.96 153.21,0 298.41,-38.56 435.72,-115.96 137.23,-77.22 242.49,-181.82 315.84,-313.76 74.54,-131.94 111.86,-280.48 111.93,-445.72 0,-251.92 -83.32,-462.39 -249.83,-631.69 -165.32,-169.15 -369.19,-253.78 -611.68,-253.85z"></path>
  <polygon class="fil0" points="7701.78,13987.77 7981.64,13987.77 7981.64,10973.54 7701.78,10973.54 "></polygon>
  <path class="fil0" d="M8527.31 11813.04l281.83 0 0 1015.4c0,247.93 13.3,418.46 40.01,511.73 39.93,133.25 115.89,238.48 227.86,315.77 113.24,77.4 247.75,115.96 403.72,115.96 155.92,0 287.83,-37.25 395.78,-111.9 109.22,-75.99 184.54,-175.26 225.85,-297.85 28.01,-83.93 41.98,-261.89 41.98,-533.71l0 -1015.4 285.82 0 0 1067.37c0,299.85 -35.32,525.7 -105.87,677.64 -69.39,151.87 -174.63,271.18 -315.84,357.78 -139.91,85.24 -315.81,127.82 -527.72,127.89 -211.88,0 -389.08,-42.65 -531.67,-127.89 -141.33,-86.6 -247.2,-206.55 -317.82,-359.79 -69.36,-154.56 -103.93,-386.4 -103.93,-695.64l0 -1047.36z"></path>
  <path class="fil1" d="M11055.84 11813.04l277.85 0 0 399.77c110.56,-151.94 237.8,-265.82 381.77,-341.81 143.9,-75.95 304.41,-113.91 481.72,-113.91 309.14,0 573.65,111.27 793.54,333.83 219.92,222.5 329.81,490.37 329.81,803.46 0,319.85 -109.33,591.66 -327.84,815.54 -217.2,222.6 -479.7,333.73 -787.5,333.8 -173.25,0 -332.53,-35.95 -477.7,-107.95 -145.34,-71.94 -276.54,-179.14 -393.8,-321.77l0 1169.31 -277.85 0 0 -2970.27zm1119.36 213.86c-242.57,0 -447.14,84.7 -613.66,253.85 -165.24,169.3 -247.86,379.77 -247.86,631.69 0,165.24 36.62,313.78 109.96,445.72 74.58,131.94 180.52,236.54 317.82,313.76 138.54,77.4 284.45,115.96 437.73,115.96 150.53,0 291.74,-38.56 423.79,-115.96 133.21,-78.52 239.15,-187.82 317.78,-327.76 78.6,-139.91 117.9,-286.48 117.94,-439.73 0,-154.52 -39.34,-301.17 -117.94,-439.77 -77.33,-138.57 -181.89,-245.78 -313.83,-321.77 -131.9,-77.26 -275.8,-115.92 -431.73,-115.99z"></path>
  <path class="fil0" d="M13738.29 11813.04l285.86 0 0 317.85c85.23,-125.27 175.19,-218.51 269.8,-279.89 94.55,-62.55 193.22,-93.84 295.88,-93.91 77.22,0 159.81,24.66 247.82,73.94l-145.98 235.91c-58.56,-25.33 -107.87,-37.96 -147.84,-38.03 -93.35,0 -183.31,38.66 -269.84,115.88 -86.65,76.1 -152.62,194.67 -197.88,355.82 -34.68,123.96 -51.96,374.54 -51.96,751.58l0 735.58 -285.86 0 0 -2174.73z"></path>
  <path class="fil1" d="M16088.52 11757.09c334.43,0 611.61,121.29 831.53,363.75 199.85,221.3 299.83,483.13 299.83,785.6 0,303.77 -105.94,569.62 -317.82,797.55 -210.57,226.52 -481.72,339.66 -813.54,339.73 -333.2,0 -605.61,-113.21 -817.49,-339.73 -210.58,-227.93 -315.81,-493.78 -315.81,-797.55 0,-301.16 99.91,-562.36 299.83,-783.55 219.85,-243.91 497.7,-365.8 833.47,-365.8zm0 273.83c-231.81,0 -431.1,85.97 -597.61,257.81 -166.61,171.91 -249.83,379.8 -249.83,623.71 0,157.23 37.96,303.77 113.87,439.73 75.96,135.92 178.58,241.23 307.84,315.84 129.25,73.31 271.14,109.89 425.73,109.89 154.55,0 296.44,-36.58 425.77,-109.89 129.22,-74.61 231.81,-179.92 307.83,-315.84 75.95,-135.96 113.95,-282.5 113.95,-439.73 0,-243.91 -83.96,-451.8 -251.81,-623.71 -166.66,-171.84 -365.2,-257.81 -595.74,-257.81z"></path>
  <path class="fil1" d="M17843.52 10917.59c63.92,0 117.93,22.69 161.92,67.95 45.26,45.33 67.88,99.97 67.95,163.9 0,62.65 -22.69,116.59 -67.95,161.92 -43.99,45.34 -98,67.95 -161.92,67.95 -63.93,0 -118.57,-22.61 -163.9,-67.95 -44.03,-45.33 -65.94,-99.27 -65.94,-161.92 0,-63.93 21.91,-118.57 65.94,-163.9 45.33,-45.26 99.9,-67.88 163.9,-67.95zm-137.9 895.46l283.84 0 0 2502.56c0,182.46 -33.41,315.17 -99.9,397.72 -65.44,84 -155.33,125.94 -269.95,125.94 -94.54,0 -201.15,-22.68 -319.79,-67.94l0 -251.82c74.68,38.56 141.88,57.86 201.93,57.93 75.95,0 132.5,-31.36 169.86,-93.91 22.68,-40.04 33.97,-123.33 34.01,-249.91l0 -2420.57z"></path>
  <path class="fil1" d="M20402.05 13266.17l235.87 123.97c-77.33,151.9 -166.62,274.5 -267.86,367.73 -101.32,93.35 -215.27,164.61 -341.81,213.93 -126.65,47.94 -269.84,71.93 -429.72,71.93 -354.51,0 -631.65,-115.89 -831.53,-347.73 -199.92,-233.26 -299.9,-496.4 -299.9,-789.54 0,-275.91 84.67,-521.73 253.97,-737.59 214.49,-274.53 501.54,-411.69 861.48,-411.76 370.38,0 666.19,140.61 887.48,421.74 157.2,198.58 237.14,446.41 239.86,743.59l-1954.92 0c5.33,253.21 85.9,461.07 241.9,623.63 155.93,161.22 348.4,241.83 577.67,241.83 110.53,0 217.81,-19.3 321.81,-58 105.23,-38.59 194.48,-89.85 267.86,-153.88 73.24,-64 152.47,-167.22 237.84,-309.85zm0 -585.6c-37.36,-149.22 -91.97,-268.5 -163.9,-357.86 -70.66,-89.21 -164.64,-161.15 -281.87,-215.79 -117.3,-54.58 -240.52,-81.95 -369.74,-82.02 -213.26,0 -396.45,68.72 -549.7,205.88 -111.94,99.98 -196.57,249.84 -253.9,449.79l1619.11 0z"></path>
  <path class="fil0" d="M23342.33 12264.76l-221.86 137.94c-191.91,-254.46 -453.75,-381.71 -785.6,-381.78 -265.19,0 -485.67,85.38 -661.6,255.91 -174.59,170.6 -261.8,377.72 -261.8,621.56 0,158.68 39.94,307.82 119.87,447.77 81.32,139.94 191.88,248.53 331.83,325.79 141.21,77.36 299.19,115.96 473.71,115.96 319.83,0 581.02,-127.29 783.59,-381.78l221.86 145.91c-103.93,155.86 -243.81,277.21 -419.74,363.82 -174.62,85.23 -373.83,127.81 -597.71,127.88 -343.81,0 -629,-109.22 -855.48,-327.77 -226.56,-218.58 -339.83,-484.39 -339.83,-797.55 0,-210.46 52.63,-405.69 157.93,-585.64 106.58,-181.22 252.52,-322.48 437.73,-423.76 185.21,-101.28 392.43,-151.87 621.67,-151.94 143.93,0 282.47,21.98 415.75,65.97 134.54,43.96 248.49,101.35 341.84,171.91 93.2,70.66 172.47,160.58 237.84,269.8z"></path>
  <polygon class="fil0" points="24123.85,11005.51 24405.72,11005.51 24405.72,11813.06 24849.44,11813.06 24849.44,12052.87 24405.72,12052.87 24405.72,13987.78 24123.85,13987.78 24123.85,12052.87 23742.07,12052.87 23742.07,11813.06 24123.85,11813.06 "></polygon>
  <path class="fil2" d="M12201.11 8454.32c0,185.42 22.15,365.58 63.95,538.13 29.74,123.61 69.64,242.28 118.22,356.23 379.24,267.26 841.38,424.89 1340.56,424.89 692.32,0 1314.09,-301.98 1738.1,-782.22l2.71 0c366.22,-410.74 588.75,-952.99 588.75,-1547.25 0,-262.25 -43.92,-514.06 -123.86,-749.19 -393.94,-324.87 -898.7,-519.92 -1449.28,-519.92 -1258.85,0 -2279.15,1020.41 -2279.15,2279.33zm4000.25 -812.91c0,503.13 -159.56,969.15 -430.74,1349.94 -289.99,407 -707.6,716.92 -1194.4,871.12 -222.18,70.34 -458.79,108.3 -704.18,108.3 -246.56,0 -484.08,-38.38 -706.97,-109.36l-6 -0.85c-260.42,-84.88 -500.91,-213.32 -712.47,-377.26 41.84,82.37 87.95,162.07 139.03,238.23 56.69,50.13 115.93,97.58 178.93,142.06 383.08,277.99 853.51,441.44 1362.32,441.44 510.44,0 982.53,-164.15 1367.34,-442.56 309.24,-225.39 561.09,-524.2 729.4,-871.01 149.05,-306.95 232.66,-651.76 232.66,-1016 0,-340.86 -73.66,-664.32 -205.36,-956.1 -64.52,-79.62 -134.4,-154.41 -208.77,-224.4 102.41,262.43 159.21,547.76 159.21,846.45zm379.94 513.4c0,294.57 -54.72,576.44 -154.48,836.54 -128.66,333.87 -332.18,631.16 -591.29,871.12 -415.57,386.22 -972.12,621.84 -1583.59,621.84 -576.26,0 -1103.17,-209.69 -1509.81,-556.26 418.04,492.62 1041.43,805.5 1738.13,805.5 727.36,0 1375.2,-340.61 1793.17,-871.08 198.4,-253.3 344.59,-548.61 422.45,-871.12 41.7,-171.84 63.75,-351.82 63.75,-537.03 0,-476.99 -146.65,-919.62 -397.12,-1285.52 140.16,299.43 218.79,633.41 218.79,986.01z"></path>
 </g>
</svg>
