<?xml version="1.0" encoding="UTF-8" standalone="no"?>
<!-- Created with Inkscape (http://www.inkscape.org/) -->
<svg xmlns:dc="http://purl.org/dc/elements/1.1/" xmlns:cc="http://creativecommons.org/ns#" xmlns:rdf="http://www.w3.org/1999/02/22-rdf-syntax-ns#" xmlns:svg="http://www.w3.org/2000/svg" xmlns="http://www.w3.org/2000/svg" xmlns:sodipodi="http://sodipodi.sourceforge.net/DTD/sodipodi-0.dtd" xmlns:inkscape="http://www.inkscape.org/namespaces/inkscape" width="1226px" height="192px" viewBox="0 0 1226 192" version="1.1" id="SVGRoot" inkscape:version="0.92.1 r15371" sodipodi:docname="Ariston.svg">
  <sodipodi:namedview id="base" pagecolor="#ffffff" bordercolor="#666666" borderopacity="1.0" inkscape:pageopacity="0.0" inkscape:pageshadow="2" inkscape:zoom="0.7" inkscape:cx="601.60645" inkscape:cy="-23.423169" inkscape:document-units="px" inkscape:current-layer="layer1" showgrid="false" inkscape:window-width="1366" inkscape:window-height="705" inkscape:window-x="-8" inkscape:window-y="-8" inkscape:window-maximized="1" showguides="true" inkscape:guide-bbox="true"/>
  <defs id="defs5044"/>
  <metadata id="metadata5047">
    <rdf:RDF>
      <cc:Work rdf:about="">
        <dc:format>image/svg+xml</dc:format>
        <dc:type rdf:resource="http://purl.org/dc/dcmitype/StillImage"/>
        <dc:title/>
      </cc:Work>
    </rdf:RDF>
  </metadata>
  <g id="layer1" inkscape:groupmode="layer" inkscape:label="Layer 1">
    <path style="fill:#000000;fill-opacity:1;stroke:none;stroke-width:0.13548343px;stroke-linecap:butt;stroke-linejoin:miter;stroke-opacity:1" d="m 86.997711,3.6881539 c -2.38513,-0.011943 -5.193797,0.6734069 -8.215028,2.789967 L 5.2867701,71.975279 c 0,0 -2.849828,3.003329 -2.853606,6.068963 L 2.3108753,176.65025 c 0,0 0.628346,12.48408 14.7217907,12.48408 H 159.72888 c 0,0 12.67419,-0.50238 13.31039,-12.43959 V 78.20018 c 0,0 -0.0676,-3.247705 -3.25149,-6.36018 -3.1835,-3.112462 -75.226154,-65.5646568 -75.226154,-65.5646568 0,0 -3.010394,-2.5644259 -7.563915,-2.5871893 z M 87.156687,29.686434 150.47956,84.76366 v 82.81861 H 24.733385 V 84.83117 Z M 725.83728,65.267108 c -11.51375,-4.38e-4 -23.05513,1.454919 -32.42385,4.254937 -2.30241,0.688117 -6.19378,2.086028 -7.27539,2.613619 -0.46062,0.224667 -0.94878,0.408441 -1.0847,0.408441 -0.52136,0 -5.23336,2.420432 -7.17098,3.683499 -2.50742,1.634437 -6.36649,5.402273 -8.05876,7.868325 -3.93531,5.734644 -5.52208,10.72216 -5.53839,17.407551 -0.0229,9.19215 3.21502,16.5414 10.06319,22.84434 2.13588,1.9658 2.99051,2.53778 5.73555,3.83867 3.72066,1.76321 3.78598,1.79052 5.99385,2.51628 8.73181,2.87028 21.72684,4.34994 33.24517,3.78528 2.87806,-0.14109 12.08403,-0.2211 20.45793,-0.17792 14.29548,0.0738 15.31812,0.11091 16.74762,0.60834 0.83742,0.29138 1.56409,0.62593 1.61481,0.7436 0.0507,0.11766 0.26077,0.21404 0.46648,0.21404 0.50049,0 3.45521,2.9081 3.45521,3.40065 0,0.21358 0.10737,0.38829 0.23841,0.38829 0.53658,0 1.42264,3.67666 1.42264,5.90281 0,4.44686 -1.98229,7.89878 -5.55163,9.66717 -5.81369,2.88031 -18.74618,5.00282 -30.44992,4.99751 -6.03123,-0.002 -14.80074,-0.69953 -19.91629,-1.58246 -3.65306,-0.6305 -5.11317,-1.00817 -10.68805,-2.76458 -8.80311,-2.77346 -14.57385,-5.2646 -20.39958,-8.80635 l -3.34793,-2.03536 -0.50278,0.62613 c -0.27659,0.34435 -1.9409,2.69666 -3.69879,5.22724 -1.75778,2.53054 -4.61267,6.6323 -6.3441,9.11506 l -3.14799,4.51424 4.26797,2.72012 c 3.99597,2.54677 10.75914,6.5203 11.09777,6.5203 0.0835,0 0.48199,0.22451 0.88615,0.49871 1.56529,1.06206 9.32716,3.97789 13.46858,5.05977 2.79206,0.72942 4.9501,1.23691 8.5123,2.00163 4.38042,0.94036 10.65365,1.73559 17.23209,2.18425 2.28372,0.15575 5.46025,0.40815 7.05885,0.56096 1.5987,0.15284 4.02787,0.30638 5.39811,0.3412 14.0499,0.35702 25.78386,-1.55878 37.09777,-6.05693 1.97731,-0.7861 4.12433,-1.71398 4.77135,-2.06205 0.64705,-0.34808 1.74854,-0.94113 2.44757,-1.31793 5.67162,-3.05699 11.99435,-8.32807 14.79815,-12.33652 3.62005,-5.17524 5.29074,-10.44804 5.30734,-16.75001 0.0188,-7.22302 -1.83214,-12.64074 -6.31408,-18.47952 -5.77473,-7.52279 -16.77874,-13.75669 -28.07295,-15.90358 -5.89621,-1.1208 -5.88787,-1.12054 -30.32198,-1.07983 -25.86629,0.043 -25.78377,0.0476 -29.36883,-1.59266 -4.98977,-2.28294 -7.19902,-6.98455 -5.25324,-11.179758 0.74974,-1.616463 2.56062,-3.532173 4.02658,-4.259656 3.54221,-1.757879 10.15803,-2.918258 20.2933,-3.559476 4.39613,-0.278128 7.21474,-0.280481 14.3945,-0.01206 12.91906,0.48301 18.6579,1.371741 27.57792,4.270902 3.08178,1.001649 9.46704,3.873635 11.25913,5.064227 l 1.04721,0.695721 2.49658,-3.438068 c 2.98793,-4.114656 7.19576,-9.959379 9.22764,-12.817423 0.81009,-1.139448 1.47274,-2.247915 1.47274,-2.46344 0,-0.840887 -5.95427,-4.725094 -9.99528,-6.520045 -7.64703,-3.396751 -16.57621,-5.978371 -24.8842,-7.194835 -0.98964,-0.144894 -2.58775,-0.395387 -3.55134,-0.556528 -6.41301,-1.072412 -13.3112,-1.596584 -20.21943,-1.596844 z m -360.72524,2.203345 c -2.65227,0.02885 -5.28636,0.703857 -7.48339,2.034328 -3.00472,1.819584 -28.0805,40.635179 -68.01468,105.282009 l -2.55414,4.13484 14.73422,-0.0259 14.73431,-0.0259 5.86997,-9.73178 5.87017,-9.73179 37.23417,0.28493 37.23429,0.28494 5.69458,9.20223 5.69438,9.20195 14.5669,0.30194 14.56708,0.30193 -26.94143,-43.60597 c -14.81783,-23.98316 -29.66449,-47.990162 -32.99254,-53.349012 -3.48931,-5.618545 -7.61124,-10.77463 -9.73638,-12.179268 -2.4427,-1.6145 -5.47169,-2.412071 -8.47751,-2.379445 z M 1003.26,67.732888 c -5.60077,0.0083 -12.66032,0.32272 -16.34602,0.76873 -5.16814,0.625408 -8.61212,1.139495 -10.79592,1.611496 -0.60895,0.131637 -1.79248,0.384484 -2.62981,0.562025 -5.19588,1.10162 -11.32762,3.199272 -15.84794,5.421383 -5.39224,2.650679 -9.43036,6.120202 -12.71794,10.927268 -1.6685,2.439611 -4.16011,6.888646 -4.90358,8.755838 -1.90871,4.793842 -2.6148,6.995762 -3.60663,11.247012 -3.89982,16.7157 -2.11062,35.31776 4.72284,49.10533 3.37019,6.79975 6.61025,10.90206 12.28366,15.55271 5.99544,4.91464 22.07086,8.5838 41.10798,9.38274 9.17986,0.38527 21.85426,-0.0629 30.03516,-1.06203 12.5482,-1.53249 22.7807,-4.48144 27.0509,-7.79558 0.7186,-0.55778 2.0891,-1.61192 3.0452,-2.34255 5.7999,-4.43221 9.893,-10.62108 12.9578,-19.5918 2.38,-6.96693 3.4074,-12.53145 3.8501,-20.8532 0.3817,-7.17662 -0.2099,-15.69658 -1.4967,-21.55835 -0.7268,-3.30953 -2.1785,-8.312248 -3.1009,-10.685509 -1.7474,-4.494953 -5.0811,-10.274247 -7.1687,-12.427299 -0.52,-0.536294 -0.9465,-1.062077 -0.9479,-1.168266 -0.01,-0.469883 -5.0581,-4.45159 -7.3284,-5.775652 -5.0199,-2.927588 -13.2562,-6.033547 -19.3872,-7.311006 -7.953,-1.657118 -14.851,-2.401417 -25.191,-2.717763 -1.0778,-0.03298 -2.2925,-0.04742 -3.585,-0.04552 z m 107.2502,0.983806 c -3.8403,-0.0035 -5.4159,0.350272 -8.9667,2.016271 -2.2259,1.044279 -5.3503,4.029042 -6.4344,6.146666 -1.7098,3.339884 -1.5872,-0.76465 -1.592,53.338569 v 49.50305 h 13.012 13.0121 l 0.022,-38.63518 c 0.012,-21.24934 0.08,-38.49396 0.1533,-38.32119 0.072,0.17278 0.7184,0.90371 1.436,1.62406 0.7176,0.72037 4.5412,4.59728 8.4974,8.61534 3.956,4.01805 8.9991,9.13246 11.2067,11.36552 2.2076,2.23307 5.5764,5.64424 7.4863,7.58025 1.9098,1.93601 5.2171,5.28603 7.3493,7.44445 2.1322,2.15844 5.4899,5.56533 7.4619,7.5711 1.9719,2.00577 5.3915,5.47602 7.5993,7.71159 2.2076,2.23557 5.5708,5.64653 7.474,7.57999 8.5942,8.73118 15.4689,15.39305 16.6513,16.13593 1.7105,1.07476 4.0369,1.86293 6.7401,2.28341 2.8777,0.44762 3.3046,0.45463 5.8709,0.0989 2.1191,-0.2937 2.9942,-0.52544 5.7555,-1.52542 4.5073,-1.63231 7.2673,-4.39576 8.6924,-8.70352 0.2167,-0.65519 0.3042,-15.28065 0.3042,-50.81442 V 69.837553 h -12.872 -12.8723 l -0.01,38.635167 c -0.01,22.87596 -0.1094,38.46644 -0.2562,38.2215 -0.3108,-0.51873 -0.8669,-1.08542 -12.0364,-12.26953 -5.034,-5.04068 -9.2149,-9.25927 -9.291,-9.37464 -0.076,-0.11541 -4.3738,-4.43838 -9.5504,-9.60672 -5.1766,-5.16835 -9.4742,-9.49302 -9.5504,-9.61013 -0.2544,-0.3913 -23.0403,-23.263116 -31.2809,-31.398726 -4.0569,-4.005167 -8.2384,-5.711797 -14.0091,-5.717827 z m -651.56232,1.120905 v 54.941701 54.94195 h 12.73375 12.73365 v -19.48687 -19.48663 h 20.05548 20.05567 l 1.53428,2.0974 c 0.84379,1.15363 2.80081,3.86369 4.34901,6.02211 1.5482,2.15844 3.27217,4.53318 3.83093,5.27748 0.55864,0.74429 2.3711,3.24126 4.02758,5.54854 1.65656,2.30728 4.38688,6.09052 6.06771,8.40732 1.68083,2.31679 4.23965,5.87337 5.68603,7.90339 l 2.62991,3.69081 14.87888,0.0131 c 8.18351,0.007 14.87917,-0.0568 14.87917,-0.14259 0,-0.0859 -1.51618,-2.30858 -3.3695,-4.93943 -1.85332,-2.63084 -5.31033,-7.55008 -7.68193,-10.93171 -2.3717,-3.38166 -4.49884,-6.40067 -4.72721,-6.70896 -0.671,-0.90582 -8.68877,-12.30132 -11.10791,-15.78767 -1.22279,-1.76218 -2.18221,-3.235 -2.13209,-3.27297 0.0497,-0.038 1.02522,-0.28296 2.16709,-0.5445 4.24859,-0.97309 9.25607,-3.8396 12.6401,-7.23539 4.05889,-4.0731 7.29656,-9.87138 8.66302,-15.51451 0.18015,-0.74428 0.47464,-1.90137 0.65429,-2.57122 0.19984,-0.74516 0.3268,-3.37166 0.3268,-6.76627 0,-3.3946 -0.12696,-6.021091 -0.3268,-6.766254 -0.17965,-0.669858 -0.47414,-1.826938 -0.65429,-2.571225 -1.7367,-7.172296 -6.13871,-13.902758 -12.17441,-18.614006 -1.11471,-0.87007 -8.15815,-4.315151 -9.9733,-4.878194 -8.11084,-2.515955 -10.49806,-2.625397 -57.31004,-2.625397 z m 346.1675,0 v 11.90846 11.908707 h 23.25288 23.25318 V 136.688 179.72125 h 13.14903 13.14885 V 136.688 93.654766 h 22.69939 22.69931 V 81.746059 69.837599 H 864.2168 Z m -197.51663,0.270549 v 54.806682 54.80642 h 12.87235 12.87216 V 124.91483 70.108148 H 620.4711 Z M 87.260285,74.225203 57.51953,100.106 v 39.39631 h 59.5336 V 100.39355 Z M 1002.127,91.771422 c 6.1976,-0.0023 12.4223,0.307372 17.0367,0.930947 2.5334,0.342374 4.8749,0.716829 5.9518,0.951877 6.6874,1.459721 8.4474,2.224123 11.2177,4.872176 2.7768,2.654318 4.0664,4.478128 5.1676,7.307618 0.6607,1.69798 1.3526,4.81631 2.0717,9.33722 0.4601,2.89333 0.4601,16.05218 0,18.94552 -1.3662,8.58978 -2.8958,12.3973 -6.2077,15.45276 -3.98,3.67174 -12.3085,6.57534 -22.9071,7.98606 -2.9116,0.38756 -19.18658,0.55725 -21.45349,0.22372 -7.27693,-1.07062 -9.53758,-1.53344 -13.18715,-2.69945 -2.36844,-0.75673 -8.46846,-3.52911 -8.81147,-4.00479 -0.0814,-0.11235 -0.5831,-0.49828 -1.11601,-0.8577 -2.39746,-1.61706 -4.84204,-5.05093 -5.87414,-8.25163 -3.45193,-10.70428 -3.48095,-24.45452 -0.0726,-34.36506 2.21472,-6.43952 4.74562,-9.421751 10.23746,-12.062567 0.76129,-0.366059 1.4463,-0.743399 1.52246,-0.83858 0.33605,-0.420219 4.41622,-1.2671 9.55037,-1.982262 4.50579,-0.627621 10.67614,-0.943104 16.87387,-0.945859 z m -517.40102,1.612549 28.01121,0.0035 c 22.90868,0.0023 28.27209,0.07107 29.44358,0.375993 4.75873,1.238743 8.22169,4.503372 9.51537,8.970396 0.18134,0.62613 0.27599,2.31288 0.22112,3.94017 -0.0895,2.6563 -0.16574,2.98343 -1.14625,4.92137 -1.68151,3.32374 -4.4183,5.62361 -8.01051,6.73197 -1.78532,0.55085 -7.0187,0.63127 -32.42365,0.49792 l -25.78318,-0.13527 -0.0815,-11.50264 c -0.0447,-6.32642 -0.01,-12.020188 0.0865,-12.652833 z m -120.06809,6.175188 c 1.08081,-0.171972 24.39772,36.632441 24.39772,38.539671 0,0.42168 -10.7663,0.76662 -23.92518,0.76662 -18.9503,0 -23.81232,-0.28742 -23.38262,-1.38203 0.72607,-1.84994 21.83463,-36.81464 22.8886,-37.913275 0.01,-0.0058 0.013,-0.0095 0.0219,-0.01063 z" id="path5624" inkscape:connector-curvature="0"/>
  </g>
</svg>