<svg xmlns="http://www.w3.org/2000/svg" xmlns:xlink="http://www.w3.org/1999/xlink" width="253" height="39" viewBox="0 0 253 39"><defs><clipPath id="clip-path"><path id="Tracciato_8" data-name="Tracciato 8" d="M0,0H250.691V-36.961H0Z" fill="none"/></clipPath><clipPath id="clip-Logo-Artel"><rect width="253" height="39"/></clipPath></defs><g id="Logo-Artel" clip-path="url(#clip-Logo-Artel)"><g id="Raggruppa_9" data-name="Raggruppa 9" transform="translate(1 37.961)"><g id="Raggruppa_8" data-name="Raggruppa 8" clip-path="url(#clip-path)"><g id="Raggruppa_1" data-name="Raggruppa 1" transform="translate(250.691 -1.138)"><path id="Tracciato_1" data-name="Tracciato 1" d="M0,0V-7.849H-19.168V-35.822H-30.385V0ZM-37.692,0V-7.849H-57.5v-6.289h16.922v-7.849H-57.5v-5.987h19.807v-7.848H-68.716V0ZM-74.614-27.974v-7.848h-33.654v7.848h11.219V0h11.218V-27.974ZM-124.292-24.3c0,1.861-1.795,3.623-4.871,3.623h-6.347v-7.246h6.347c3.076,0,4.871,1.761,4.871,3.623M-110.638,0l-9.873-14.943c3.591-1.409,7.437-4.477,7.437-9.358,0-5.887-5.449-11.521-15.577-11.521h-18.076V0h11.217V-13.334h3.782L-123.651,0ZM-167.5-12.678h-7.949l4.1-9.56ZM-150.7,0l-16.6-35.822h-8.654L-192.561,0h11.732l2.243-5.333h14.038L-162.432,0Z" fill="#2b2e34"/></g><g id="Raggruppa_2" data-name="Raggruppa 2" transform="translate(44.541 -3.867)"><path id="Tracciato_2" data-name="Tracciato 2" d="M0,0C-6.715,0-12.552-2.271-18.267-4.495c-7.741-3.013-14.676-5.7-23.209-2.8l-3.065,4.838C-33.906-6.932-25.387-3.627-17.1-.4-8.916,2.783-1.146,5.8,9.064,2.3l-2-3.165A30,30,0,0,1,0,0" fill="#e42c1a"/></g><g id="Raggruppa_3" data-name="Raggruppa 3" transform="translate(47.75 -10.814)"><path id="Tracciato_3" data-name="Tracciato 3" d="M0,0A29.608,29.608,0,0,1-3.209.179c-6.715,0-12.552-2.271-18.266-4.495-6.178-2.4-11.841-4.6-18.212-3.918L-42.4-3.945c8.233-1.667,15.241,1.056,22.09,3.721,7.186,2.8,14.05,5.467,22.524,3.715Z" fill="#e42c1a"/></g><g id="Raggruppa_4" data-name="Raggruppa 4" transform="translate(16.146 -31.806)"><path id="Tracciato_4" data-name="Tracciato 4" d="M0,0-2.128,3.359c4.714.612,9.1,2.314,13.418,4,4.721,1.838,9.3,3.62,14.295,4.13L22.978,7.365A66.58,66.58,0,0,1,10.211,3.372,68.186,68.186,0,0,0,0,0" fill="#e42c1a"/></g><g id="Raggruppa_5" data-name="Raggruppa 5" transform="translate(26.274 -21.777)"><path id="Tracciato_5" data-name="Tracciato 5" d="M0,0C-4.775-1.858-9.242-3.594-13.966-3.972L-16.321-.254C-10.015-.372-4.374,1.817,1.162,3.972,7.2,6.321,13.005,8.577,19.73,8.2L17.371,4.477C11.03,4.287,5.458,2.124,0,0" fill="#e42c1a"/></g><g id="Raggruppa_6" data-name="Raggruppa 6" transform="translate(19.27 -36.736)"><path id="Tracciato_6" data-name="Tracciato 6" d="M0,0-1.711,2.7A76.908,76.908,0,0,1,8.083,6.009,76.508,76.508,0,0,0,17.99,9.35L15.555,5.5a86.837,86.837,0,0,1-9.549-3.29C3.993,1.429,2,.656,0,0" fill="#e42c1a"/></g><g id="Raggruppa_7" data-name="Raggruppa 7" transform="translate(32.803 -34.428)"><path id="Tracciato_7" data-name="Tracciato 7" d="M0,0-1.46-2.306-6.9-2.533l.37.144C-4.386-1.554-2.222-.712,0,0" fill="#e42c1a"/></g></g></g></g></svg>