<svg width="226" height="77" viewBox="0 0 226 77" fill="none" xmlns="http://www.w3.org/2000/svg">
<g clip-path="url(#clip0_1698_5030)">
<path d="M29.9251 30.0006C33.4584 26.5087 33.4584 20.8494 29.9251 17.3668C26.3918 13.8749 20.6654 13.8749 17.1321 17.3668C13.5894 20.8494 13.5894 26.5179 17.1321 30.0006C20.6654 33.4925 26.3918 33.4925 29.9251 30.0006Z" fill="#E9531D"/>
<path d="M17.0667 46.8302C13.5334 50.3128 13.5334 55.9813 17.0667 59.4732C20.6 62.9558 26.3264 62.9558 29.8597 59.4732C33.393 55.9813 33.393 50.3221 29.8597 46.8302C26.3264 43.3383 20.6 43.3383 17.0667 46.8302Z" fill="#E9531D"/>
<path d="M44.7992 32.0568C41.2659 28.5649 35.5301 28.5649 32.0062 32.0568C28.4729 35.5487 28.4729 41.2172 32.0062 44.6998C35.5395 48.1917 41.2659 48.1917 44.7992 44.6998C48.3325 41.208 48.3325 35.5487 44.7992 32.0568Z" fill="#E9531D"/>
<path d="M59.7381 29.945C63.2714 26.4439 63.2714 20.7939 59.7381 17.2927C56.2142 13.8101 50.4784 13.8101 46.9451 17.2927C43.4118 20.7939 43.4118 26.4439 46.9451 29.945C50.4784 33.4369 56.2142 33.4369 59.7381 29.945Z" fill="#E9531D"/>
<path d="M46.8887 46.7653C43.3554 50.2572 43.3554 55.9257 46.8887 59.4084C50.422 62.9002 56.1578 62.9002 59.6817 59.4084C63.2057 55.9165 63.2057 50.2572 59.6817 46.7653C56.1578 43.2734 50.422 43.2734 46.8887 46.7653Z" fill="#E9531D"/>
<path d="M15.4452 44.7647C18.9878 41.2728 18.9878 35.6135 15.4452 32.1216C11.9119 28.639 6.18547 28.639 2.65217 32.1216C-0.881128 35.6228 -0.881128 41.2728 2.65217 44.7647C6.18547 48.2566 11.9119 48.2566 15.4452 44.7647Z" fill="#E9531D"/>
<path d="M44.9862 15.2643C48.5195 11.7724 48.5195 6.11311 44.9862 2.61197C41.4622 -0.870656 35.7265 -0.870656 32.1932 2.61197C28.6599 6.10385 28.6599 11.7724 32.1932 15.2643C35.7265 18.7561 41.4529 18.7561 44.9862 15.2643Z" fill="#E9531D"/>
<path d="M74.6588 31.8345C71.1255 28.3426 65.3991 28.3426 61.8658 31.8345C58.3325 35.3264 58.3325 40.9857 61.8658 44.4775C65.3991 47.9602 71.1255 47.9602 74.6588 44.4775C78.1921 40.9857 78.1921 35.3264 74.6588 31.8345Z" fill="#E9531D"/>
<path d="M44.7992 61.5757C41.2659 58.0839 35.5301 58.0839 32.0062 61.5757C28.4729 65.0769 28.4729 70.7362 32.0062 74.2095C35.5395 77.7107 41.2659 77.7107 44.7992 74.2095C48.3325 70.7269 48.3325 65.0676 44.7992 61.5757Z" fill="#E9531D"/>
<path d="M109.392 51.6836C112.409 51.6836 114.902 51.4428 116.88 50.9612C118.858 50.4795 120.273 50.0164 121.135 49.5625V37.3085L107.78 38.4107C104.05 38.6886 101.285 39.3555 99.4853 40.3929C97.6858 41.4395 96.7955 42.9678 96.7955 44.9962C96.7955 47.1358 97.8358 48.7845 99.9164 49.9423C101.997 51.1001 105.155 51.6743 109.392 51.6743M109.289 15.9219C115.53 15.9219 120.488 17.0241 124.153 19.2193C127.817 21.4144 129.645 24.8785 129.645 29.6116V49.6366C129.645 50.8778 129.336 51.8225 128.726 52.4709C128.117 53.1193 127.199 53.7213 125.98 54.2863C124.256 55.0736 121.978 55.7683 119.139 56.3611C116.299 56.9539 113.056 57.2502 109.392 57.2502C102.644 57.2502 97.4234 56.2036 93.7214 54.1196C90.0194 52.0356 88.1731 49.0161 88.1731 45.0796C88.1731 41.3561 89.7195 38.5589 92.8029 36.6694C95.8864 34.7799 100.235 33.6129 105.83 33.159L121.126 31.9734V29.6023C121.126 26.7866 120.048 24.7303 117.892 23.4336C115.737 22.1369 112.831 21.4885 109.167 21.4885C106.149 21.4885 103.309 21.8312 100.657 22.5074C98.0045 23.1835 95.6333 23.943 93.5527 24.7859C92.981 24.3969 92.4562 23.943 91.9876 23.4336C91.519 22.9242 91.2846 22.3684 91.2846 21.7479C91.2846 20.9606 91.5377 20.3122 92.0344 19.8028C92.5405 19.2934 93.3278 18.821 94.4056 18.3671C96.3456 17.5798 98.5668 16.9685 101.079 16.5517C103.59 16.1257 106.318 15.9219 109.26 15.9219" fill="#19233F"/>
<path d="M177.115 45.6816C177.115 49.2847 175.428 52.1097 172.054 54.1289C168.68 56.1573 163.797 57.1669 157.405 57.1669C154.678 57.1669 152.166 56.9816 149.87 56.6204C147.574 56.2499 145.615 55.7775 144.003 55.1848C142.391 54.592 141.135 53.9158 140.236 53.1563C139.336 52.3968 138.886 51.6188 138.886 50.8315C138.886 50.1553 139.12 49.507 139.589 48.8864C140.058 48.2658 140.751 47.7379 141.688 47.284C143.628 48.414 145.887 49.4143 148.474 50.285C151.06 51.1557 154.003 51.591 157.302 51.591C164.772 51.591 168.502 49.6181 168.502 45.6724C168.502 42.4584 166.028 40.3743 161.07 39.4203L152.129 37.5586C147.752 36.6602 144.556 35.3449 142.541 33.6314C140.526 31.9086 139.523 29.7042 139.523 26.9996C139.523 25.5361 139.898 24.1283 140.657 22.776C141.416 21.4237 142.579 20.2381 144.163 19.2285C145.737 18.2097 147.696 17.4131 150.029 16.8203C152.363 16.2275 155.109 15.9311 158.268 15.9311C163.291 15.9311 167.349 16.5054 170.433 17.6632C173.516 18.821 175.062 20.1548 175.062 21.6738C175.062 22.4055 174.828 23.0539 174.36 23.6189C173.891 24.1839 173.263 24.6099 172.476 24.8878C171.182 24.2116 169.355 23.4799 166.984 22.6926C164.613 21.9053 161.81 21.507 158.586 21.507C155.362 21.507 152.785 21.9887 150.882 22.9427C148.98 23.906 148.033 25.2583 148.033 26.9996C148.033 28.2963 148.567 29.3985 149.645 30.297C150.723 31.1954 152.513 31.8716 155.034 32.3254L162.466 33.7611C167.349 34.7243 171.004 36.1415 173.45 38.031C175.887 39.9205 177.115 42.4676 177.115 45.6816Z" fill="#19233F"/>
<path d="M205.756 51.6836C208.774 51.6836 211.267 51.4428 213.244 50.9612C215.222 50.4795 216.637 50.0164 217.499 49.5625V37.3085L204.144 38.4107C200.414 38.6886 197.649 39.3555 195.85 40.3929C194.05 41.4395 193.16 42.9678 193.16 44.9962C193.16 47.1358 194.2 48.7845 196.281 49.9423C198.362 51.1001 201.52 51.6743 205.756 51.6743M205.653 15.9219C211.895 15.9219 216.853 17.0241 220.517 19.2193C224.182 21.4144 226.009 24.8785 226.009 29.6116V49.6366C226.009 50.8778 225.7 51.8225 225.091 52.4709C224.482 53.1193 223.563 53.7213 222.345 54.2863C220.62 55.0736 218.343 55.7683 215.503 56.3611C212.663 56.9539 209.421 57.2502 205.756 57.2502C199.008 57.2502 193.779 56.2036 190.086 54.1196C186.384 52.0356 184.538 49.0161 184.538 45.0796C184.538 41.3561 186.084 38.5589 189.167 36.6694C192.251 34.7799 196.6 33.6129 202.195 33.159L217.49 31.9734V29.6023C217.49 26.7866 216.412 24.7303 214.257 23.4336C212.101 22.1369 209.196 21.4885 205.531 21.4885C202.513 21.4885 199.683 21.8312 197.021 22.5074C194.36 23.1835 191.998 23.943 189.917 24.7859C189.346 24.3969 188.821 23.943 188.352 23.4336C187.883 22.9242 187.649 22.3684 187.649 21.7479C187.649 20.9606 187.902 20.3122 188.399 19.8028C188.905 19.2934 189.692 18.821 190.77 18.3671C192.71 17.5798 194.931 16.9685 197.443 16.5517C199.955 16.1257 202.682 15.9219 205.625 15.9219" fill="#19233F"/>
<path d="M89.2792 72.5516C89.1948 72.4682 89.1479 72.3478 89.1479 72.2089V66.6144C89.1479 66.4755 89.1948 66.3551 89.2792 66.2717C89.3635 66.1884 89.4853 66.1421 89.6259 66.1421H93.2342L93.2998 66.2902L93.3373 66.4848C93.3373 66.6052 93.3092 66.707 93.2529 66.7719C93.1967 66.846 93.1124 66.883 92.9999 66.883H90.0289V68.9578H92.8968L92.9624 69.0967L92.9905 69.3005C92.9905 69.4209 92.9624 69.5135 92.9062 69.5876C92.8499 69.6525 92.7656 69.6895 92.6531 69.6895H90.0196V71.9495H93.2811L93.3467 72.0884L93.3748 72.2922C93.3748 72.4126 93.3467 72.5052 93.2904 72.5793C93.2342 72.6534 93.1499 72.6812 93.0374 72.6812H89.6166C89.476 72.6812 89.3541 72.6442 89.2698 72.5516" fill="#19233F"/>
<path d="M100.91 70.977L100.704 71.0789C100.619 71.1066 100.526 71.1252 100.423 71.1252C100.31 71.1252 100.207 71.1066 100.113 71.0696C100.02 71.0325 99.9634 70.977 99.9259 70.8936C99.5323 70.0878 99.1949 69.3561 98.9137 68.6892C98.6326 68.0223 98.4076 67.4666 98.2296 67.0312H98.1921C98.1733 67.5684 98.1452 68.0686 98.1171 68.5317C98.089 68.9948 98.0609 69.4487 98.0328 69.884C98.0046 70.3286 97.9765 70.7732 97.9484 71.2271C97.9203 71.6809 97.8922 72.1625 97.8641 72.6812L97.6954 72.7275L97.4704 72.7461C97.3111 72.7461 97.1986 72.709 97.133 72.6534C97.0674 72.5886 97.0393 72.496 97.0393 72.3756C97.0393 72.3015 97.0393 72.1533 97.058 71.9125C97.0674 71.6716 97.0862 71.3845 97.1049 71.0511C97.1237 70.7176 97.1518 70.3379 97.1705 69.9303C97.1986 69.5228 97.2267 69.106 97.2549 68.6799C97.2924 68.2539 97.3205 67.8463 97.358 67.4295C97.3861 67.022 97.4236 66.6515 97.4517 66.3088C97.5079 66.2532 97.5923 66.2069 97.7047 66.1698C97.8172 66.1328 97.939 66.105 98.0702 66.105C98.4076 66.105 98.6326 66.2347 98.7638 66.5033C98.9044 66.7812 99.0449 67.0775 99.1855 67.3925C99.3261 67.7074 99.4667 68.0223 99.6073 68.3465C99.7479 68.6707 99.8884 68.9856 100.02 69.3005C100.151 69.6154 100.282 69.9118 100.404 70.1989H100.451C100.61 69.8192 100.769 69.4487 100.929 69.0782C101.088 68.7077 101.247 68.3557 101.397 68.013C101.547 67.6703 101.697 67.3461 101.828 67.0498C101.969 66.7441 102.091 66.4755 102.194 66.2161C102.26 66.1791 102.344 66.1513 102.447 66.1328C102.55 66.1143 102.644 66.105 102.728 66.105C103.075 66.105 103.262 66.2161 103.319 66.4477C103.347 66.5774 103.384 66.7904 103.412 67.0868C103.45 67.3832 103.487 67.7259 103.525 68.1149C103.562 68.5039 103.59 68.9207 103.628 69.3653C103.656 69.8099 103.694 70.236 103.722 70.6528C103.75 71.0696 103.778 71.4493 103.797 71.7921C103.815 72.144 103.834 72.4126 103.853 72.6164C103.722 72.6998 103.572 72.7461 103.394 72.7461C103.291 72.7461 103.187 72.7183 103.103 72.6627C103.019 72.6071 102.972 72.5145 102.953 72.3663C102.916 71.8476 102.888 71.3289 102.859 70.8102C102.831 70.2916 102.803 69.8007 102.775 69.3375C102.747 68.8744 102.728 68.4484 102.7 68.0501C102.681 67.6611 102.663 67.3276 102.644 67.059H102.597C102.513 67.2628 102.428 67.4851 102.316 67.7352C102.203 67.9852 102.091 68.2724 101.95 68.5873C101.81 68.9022 101.65 69.2634 101.472 69.6617C101.304 70.06 101.107 70.5046 100.882 70.9862" fill="#19233F"/>
<path d="M109.738 69.6154C110.319 69.6154 110.769 69.495 111.088 69.2634C111.407 69.0226 111.566 68.6614 111.566 68.1705C111.566 67.6796 111.416 67.3276 111.107 67.0961C110.797 66.8738 110.357 66.7626 109.785 66.7626C109.588 66.7626 109.401 66.7626 109.204 66.7904C109.017 66.8089 108.839 66.8367 108.689 66.8645V69.6247H109.748L109.738 69.6154ZM108.698 70.3471V72.6534L108.52 72.6998C108.445 72.7183 108.37 72.7275 108.276 72.7275C107.958 72.7275 107.798 72.5979 107.798 72.3293V66.6144C107.798 66.5033 107.826 66.4107 107.883 66.3551C107.939 66.2902 108.033 66.2439 108.154 66.2069C108.361 66.1421 108.623 66.0957 108.923 66.068C109.223 66.0402 109.513 66.0309 109.795 66.0309C110.713 66.0309 111.388 66.2254 111.81 66.6052C112.231 66.9849 112.447 67.5036 112.447 68.1612C112.447 68.8189 112.231 69.3561 111.791 69.7543C111.36 70.1526 110.685 70.3471 109.776 70.3471H108.679H108.698Z" fill="#19233F"/>
<path d="M121.173 69.4116C121.173 68.5502 120.966 67.8926 120.554 67.4388C120.142 66.9849 119.598 66.7534 118.914 66.7534C118.577 66.7534 118.267 66.8089 117.986 66.9293C117.705 67.0498 117.471 67.2257 117.274 67.448C117.077 67.6703 116.927 67.9482 116.824 68.2816C116.721 68.6151 116.665 68.9948 116.665 69.4209C116.665 70.2823 116.871 70.9399 117.274 71.403C117.677 71.8569 118.22 72.0884 118.905 72.0884C119.589 72.0884 120.142 71.8569 120.545 71.403C120.948 70.9492 121.154 70.2823 121.154 69.4209M122.054 69.4209C122.054 69.9766 121.979 70.4768 121.81 70.9029C121.651 71.3289 121.426 71.6809 121.145 71.968C120.863 72.2552 120.526 72.4682 120.142 72.6164C119.757 72.7646 119.345 72.8387 118.895 72.8387C118.445 72.8387 118.033 72.7646 117.649 72.6164C117.264 72.4682 116.927 72.2552 116.646 71.968C116.365 71.6902 116.14 71.3289 115.98 70.9029C115.821 70.4768 115.737 69.9859 115.737 69.4209C115.737 68.8559 115.821 68.3743 115.98 67.9482C116.14 67.5221 116.365 67.1702 116.646 66.883C116.927 66.5959 117.264 66.3829 117.649 66.2347C118.033 66.0865 118.445 66.0124 118.886 66.0124C119.326 66.0124 119.739 66.0865 120.123 66.2347C120.507 66.3829 120.845 66.5959 121.126 66.883C121.407 67.1702 121.632 67.5221 121.791 67.9482C121.951 68.3743 122.035 68.8652 122.035 69.4209" fill="#19233F"/>
<path d="M128.754 67.763L128.97 67.6889C129.054 67.6703 129.148 67.6611 129.251 67.6611C129.551 67.6611 129.739 67.7537 129.804 67.9389C129.935 68.3279 130.057 68.6892 130.17 69.0319C130.282 69.3746 130.395 69.708 130.507 70.0229C130.62 70.3471 130.723 70.6528 130.826 70.9677C130.929 71.2734 131.032 71.5975 131.135 71.9217H131.182C131.285 71.4401 131.388 70.9677 131.482 70.5046C131.585 70.0415 131.679 69.5784 131.772 69.106C131.866 68.6336 131.96 68.1612 132.044 67.6796C132.128 67.1979 132.213 66.6885 132.297 66.1513C132.4 66.105 132.522 66.0772 132.663 66.0772C132.803 66.0772 132.916 66.105 132.991 66.1698C133.075 66.2347 133.113 66.318 133.113 66.4477C133.113 66.5866 133.094 66.7904 133.056 67.0683C133.019 67.3461 132.963 67.6703 132.897 68.0316C132.831 68.3928 132.747 68.7818 132.653 69.1986C132.56 69.6154 132.466 70.0322 132.363 70.4305C132.26 70.838 132.157 71.227 132.063 71.5975C131.96 71.968 131.866 72.2922 131.772 72.5516C131.707 72.5886 131.622 72.6164 131.519 72.6534C131.416 72.6905 131.304 72.6997 131.172 72.6997C131.013 72.6997 130.882 72.672 130.769 72.6257C130.657 72.5701 130.591 72.5052 130.554 72.4219C130.479 72.2366 130.385 71.9958 130.282 71.7179C130.179 71.4308 130.076 71.1252 129.963 70.7825C129.851 70.4397 129.739 70.0878 129.626 69.7173C129.514 69.3468 129.401 68.9856 129.289 68.6151C129.176 68.9763 129.064 69.3468 128.951 69.7266C128.839 70.1063 128.726 70.4768 128.605 70.8288C128.492 71.1807 128.38 71.5142 128.276 71.8106C128.164 72.1162 128.07 72.3663 127.986 72.5608C127.93 72.5979 127.845 72.6257 127.742 72.6534C127.639 72.6812 127.527 72.6997 127.395 72.6997C127.227 72.6997 127.096 72.672 126.992 72.6164C126.889 72.5608 126.824 72.496 126.786 72.4219C126.721 72.2737 126.646 72.0607 126.561 71.7735C126.477 71.4957 126.393 71.1807 126.299 70.8288C126.205 70.4768 126.112 70.0878 126.018 69.6802C125.924 69.2727 125.83 68.8652 125.737 68.4576C125.643 68.0501 125.559 67.6611 125.484 67.2813C125.409 66.9016 125.343 66.5681 125.296 66.2625C125.343 66.2161 125.418 66.1606 125.502 66.1235C125.587 66.0772 125.68 66.0587 125.783 66.0587C126.037 66.0587 126.186 66.1884 126.243 66.457C126.336 66.9108 126.43 67.3461 126.515 67.763C126.599 68.1798 126.693 68.6058 126.777 69.0411C126.871 69.4765 126.964 69.9211 127.067 70.3934C127.171 70.8566 127.283 71.366 127.405 71.9125H127.452C127.555 71.5883 127.649 71.2826 127.742 70.9955C127.836 70.7084 127.93 70.4027 128.033 70.0878C128.136 69.7729 128.248 69.4302 128.361 69.0597C128.483 68.6892 128.614 68.2539 128.773 67.7537" fill="#19233F"/>
<path d="M136.852 72.5516C136.768 72.4682 136.721 72.3478 136.721 72.2089V66.6144C136.721 66.4755 136.768 66.3551 136.852 66.2717C136.936 66.1884 137.058 66.1421 137.199 66.1421H140.807L140.873 66.2902L140.91 66.4848C140.91 66.6052 140.882 66.707 140.826 66.7719C140.769 66.846 140.685 66.883 140.573 66.883H137.602V68.9578H140.47L140.535 69.0967L140.563 69.3005C140.563 69.4209 140.535 69.5135 140.479 69.5876C140.423 69.6525 140.338 69.6895 140.226 69.6895H137.592V71.9495H140.854L140.919 72.0884L140.948 72.2922C140.948 72.4126 140.919 72.5052 140.863 72.5793C140.807 72.6534 140.723 72.6812 140.61 72.6812H137.18C137.039 72.6812 136.918 72.6442 136.833 72.5516" fill="#19233F"/>
<path d="M146.805 69.4765C147.34 69.4765 147.761 69.3653 148.071 69.1338C148.38 68.9022 148.53 68.5688 148.53 68.1149C148.53 67.6611 148.371 67.3276 148.052 67.0961C147.733 66.8738 147.274 66.7626 146.684 66.7626C146.487 66.7626 146.29 66.7719 146.093 66.7904C145.896 66.8089 145.718 66.8275 145.568 66.8645V69.4857H146.824L146.805 69.4765ZM145.568 72.6534L145.39 72.6998C145.315 72.7183 145.24 72.7275 145.156 72.7275C144.837 72.7275 144.678 72.5979 144.678 72.3293V66.6052C144.678 66.494 144.706 66.4014 144.762 66.3458C144.819 66.281 144.912 66.2347 145.034 66.1976C145.24 66.1328 145.503 66.0865 145.812 66.0587C146.121 66.0309 146.421 66.0124 146.712 66.0124C147.621 66.0124 148.305 66.1884 148.755 66.5496C149.205 66.9108 149.42 67.4295 149.42 68.0964C149.42 68.5873 149.289 69.0041 149.036 69.3468C148.783 69.6802 148.389 69.9211 147.865 70.0693C148.043 70.3008 148.23 70.5231 148.408 70.7547C148.586 70.9862 148.764 71.1993 148.924 71.403C149.083 71.6068 149.233 71.7921 149.355 71.9588C149.486 72.1255 149.58 72.2552 149.655 72.3478C149.626 72.4682 149.561 72.5701 149.467 72.6442C149.373 72.7183 149.27 72.7461 149.167 72.7461C149.045 72.7461 148.942 72.7183 148.858 72.6627C148.783 72.6071 148.699 72.5145 148.605 72.3941L147.021 70.1989H145.559V72.6442L145.568 72.6534Z" fill="#19233F"/>
<path d="M153.985 72.709C153.91 72.7275 153.835 72.7368 153.75 72.7368C153.432 72.7368 153.272 72.6071 153.272 72.3385V66.1698L153.441 66.1235C153.516 66.105 153.6 66.0957 153.685 66.0957C153.994 66.0957 154.153 66.2254 154.153 66.494V72.6627L153.994 72.709H153.985Z" fill="#19233F"/>
<path d="M158.755 72.7275C158.436 72.7275 158.277 72.5979 158.277 72.3385V66.2625C158.408 66.1328 158.605 66.068 158.867 66.068C159.045 66.068 159.186 66.105 159.308 66.1698C159.43 66.2347 159.542 66.3643 159.645 66.5403L161.726 69.9766C161.81 70.1248 161.904 70.2823 161.998 70.4583C162.091 70.625 162.185 70.7917 162.269 70.9677C162.354 71.1344 162.438 71.2919 162.513 71.4401C162.588 71.5883 162.654 71.7087 162.701 71.8106H162.747C162.691 71.2178 162.654 70.6343 162.644 70.0507C162.635 69.4672 162.626 68.893 162.626 68.328V66.1513L162.804 66.105C162.879 66.0865 162.954 66.0772 163.047 66.0772C163.366 66.0772 163.525 66.2069 163.525 66.4662V72.5516C163.46 72.6071 163.375 72.6534 163.272 72.6905C163.169 72.7275 163.057 72.7368 162.935 72.7368C162.757 72.7368 162.616 72.6998 162.485 72.6349C162.363 72.5701 162.251 72.4497 162.148 72.2644L160.076 68.8281C159.992 68.6892 159.898 68.5225 159.795 68.3557C159.701 68.189 159.598 68.013 159.514 67.8556C159.42 67.6889 159.336 67.5314 159.261 67.3832C159.186 67.235 159.12 67.1053 159.073 67.0127H159.027C159.064 67.3647 159.092 67.763 159.111 68.1983C159.13 68.6429 159.139 69.0597 159.139 69.4487V72.6627L158.97 72.709L158.736 72.7368L158.755 72.7275Z" fill="#19233F"/>
<path d="M172.86 71.9217C172.86 72.0514 172.823 72.1533 172.748 72.2459C172.673 72.3293 172.56 72.4126 172.401 72.496C172.223 72.5793 171.97 72.6534 171.651 72.7183C171.332 72.7831 171.014 72.8109 170.686 72.8109C170.18 72.8109 169.711 72.7461 169.289 72.6071C168.867 72.4682 168.502 72.2644 168.202 71.9866C167.893 71.7087 167.658 71.3567 167.499 70.9307C167.33 70.5046 167.246 70.0044 167.246 69.4209C167.246 68.8374 167.33 68.3465 167.509 67.9204C167.687 67.4943 167.921 67.1331 168.221 66.8552C168.521 66.5774 168.877 66.3643 169.27 66.2254C169.664 66.0865 170.095 66.0124 170.545 66.0124C170.854 66.0124 171.126 66.0402 171.389 66.0865C171.642 66.1328 171.867 66.1976 172.045 66.281C172.223 66.3643 172.363 66.457 172.466 66.5589C172.569 66.6607 172.616 66.7626 172.616 66.8645C172.616 66.9664 172.588 67.0498 172.532 67.1239L172.326 67.2813C172.129 67.1516 171.895 67.0312 171.632 66.9201C171.36 66.8089 171.023 66.7534 170.601 66.7534C170.255 66.7534 169.927 66.8089 169.636 66.9293C169.336 67.0405 169.083 67.2165 168.858 67.4388C168.643 67.6611 168.474 67.9389 168.352 68.2724C168.23 68.6058 168.165 68.9948 168.165 69.4302C168.165 69.8933 168.23 70.2916 168.352 70.6343C168.483 70.9677 168.661 71.2456 168.886 71.4586C169.111 71.6716 169.383 71.8291 169.692 71.9402C170.002 72.0421 170.339 72.0977 170.695 72.0977C170.957 72.0977 171.201 72.0792 171.435 72.0329C171.67 71.9866 171.848 71.9402 171.979 71.8754V69.8933H170.339L170.273 69.7451L170.245 69.5506C170.245 69.4302 170.273 69.3375 170.33 69.2634C170.386 69.1986 170.47 69.1616 170.583 69.1616H172.401C172.532 69.1616 172.644 69.1986 172.729 69.282C172.823 69.3653 172.869 69.4765 172.869 69.6061V71.9402L172.86 71.9217Z" fill="#19233F"/>
<path d="M185.737 69.3375C185.737 68.8837 185.662 68.4854 185.522 68.1612C185.381 67.837 185.184 67.5684 184.941 67.3647C184.697 67.1516 184.416 67.0034 184.097 66.9108C183.778 66.8182 183.432 66.7626 183.057 66.7626C182.822 66.7626 182.626 66.7626 182.457 66.7811C182.288 66.7997 182.129 66.8182 181.979 66.846V71.9588C182.157 72.0051 182.344 72.0329 182.541 72.0421C182.738 72.0607 182.944 72.0607 183.15 72.0607C184.003 72.0607 184.65 71.8291 185.081 71.3752C185.512 70.9214 185.728 70.236 185.728 69.3283M186.628 69.3283C186.628 69.9118 186.543 70.4305 186.384 70.8566C186.225 71.2919 185.99 71.6531 185.69 71.931C185.39 72.2181 185.025 72.4311 184.594 72.5701C184.163 72.709 183.685 72.7831 183.16 72.7831C182.926 72.7831 182.663 72.7739 182.373 72.7553C182.082 72.7368 181.81 72.6905 181.548 72.6164C181.239 72.5238 181.089 72.3571 181.089 72.1255V66.5959C181.089 66.4848 181.117 66.3921 181.173 66.3366C181.229 66.2717 181.323 66.2254 181.445 66.1884C181.67 66.1143 181.923 66.0679 182.204 66.0494C182.485 66.0309 182.766 66.0124 183.057 66.0124C183.591 66.0124 184.069 66.0772 184.509 66.2254C184.95 66.3643 185.325 66.5681 185.634 66.846C185.943 67.1239 186.187 67.4666 186.365 67.8741C186.543 68.2816 186.628 68.7633 186.628 69.319" fill="#19233F"/>
<path d="M190.508 72.5516C190.423 72.4682 190.376 72.3478 190.376 72.2089V66.6144C190.376 66.4755 190.423 66.3551 190.508 66.2717C190.592 66.1884 190.714 66.1421 190.854 66.1421H194.463L194.528 66.2902L194.566 66.4848C194.566 66.6052 194.538 66.707 194.481 66.7719C194.425 66.846 194.341 66.883 194.228 66.883H191.257V68.9578H194.125L194.191 69.0967L194.228 69.3005C194.228 69.4209 194.2 69.5135 194.144 69.5876C194.088 69.6525 194.003 69.6895 193.891 69.6895H191.257V71.9495H194.519L194.585 72.0884L194.613 72.2922C194.613 72.4126 194.585 72.5052 194.528 72.5793C194.472 72.6534 194.388 72.6812 194.275 72.6812H190.845C190.704 72.6812 190.583 72.6442 190.498 72.5516" fill="#19233F"/>
<path d="M200.105 72.0884C200.592 72.0884 200.958 71.9773 201.211 71.7643C201.464 71.542 201.586 71.2641 201.586 70.9214C201.586 70.625 201.492 70.3749 201.295 70.1897C201.098 70.0044 200.798 69.847 200.386 69.7266L199.44 69.4487C198.98 69.3098 198.605 69.1152 198.343 68.8466C198.081 68.578 197.949 68.2261 197.949 67.7722C197.949 67.5036 198.006 67.2535 198.109 67.0405C198.212 66.8275 198.362 66.6422 198.559 66.4848C198.755 66.3366 198.99 66.2161 199.261 66.1328C199.533 66.0494 199.843 66.0124 200.18 66.0124C200.47 66.0124 200.742 66.0309 200.986 66.0772C201.239 66.1235 201.455 66.1884 201.642 66.2717C201.829 66.3551 201.97 66.4477 202.073 66.5496C202.176 66.6515 202.223 66.7534 202.223 66.8645C202.223 66.9664 202.195 67.0498 202.148 67.1239L201.951 67.2906C201.764 67.1516 201.52 67.022 201.22 66.9108C200.92 66.7997 200.583 66.7534 200.217 66.7534C199.786 66.7534 199.458 66.846 199.215 67.022C198.971 67.198 198.849 67.448 198.849 67.7722C198.849 68.0223 198.933 68.2261 199.111 68.3835C199.28 68.541 199.571 68.6799 199.983 68.7911L200.649 68.9856C201.22 69.1523 201.67 69.3839 201.998 69.6802C202.326 69.9766 202.495 70.3934 202.495 70.9214C202.495 71.4864 202.289 71.9495 201.876 72.3015C201.464 72.6534 200.873 72.8294 200.114 72.8294C199.777 72.8294 199.477 72.8016 199.205 72.7461C198.933 72.6905 198.699 72.6164 198.512 72.5238C198.315 72.4312 198.174 72.3293 198.071 72.2181C197.968 72.107 197.912 71.9958 197.912 71.8939C197.912 71.7735 197.949 71.6716 198.024 71.5883C198.099 71.5049 198.193 71.4493 198.287 71.4123C198.371 71.4957 198.465 71.5698 198.577 71.6531C198.69 71.7365 198.83 71.8106 198.98 71.8754C199.13 71.9402 199.299 71.9958 199.486 72.0421C199.674 72.0884 199.88 72.107 200.105 72.107" fill="#19233F"/>
<path d="M206.872 72.709C206.797 72.7275 206.722 72.7368 206.628 72.7368C206.309 72.7368 206.15 72.6071 206.15 72.3385V66.1698L206.319 66.1235C206.394 66.105 206.478 66.0957 206.562 66.0957C206.872 66.0957 207.031 66.2254 207.031 66.494V72.6627L206.872 72.709Z" fill="#19233F"/>
<path d="M216.403 71.9217C216.403 72.0514 216.365 72.1533 216.291 72.2459C216.216 72.3385 216.103 72.4126 215.944 72.496C215.766 72.5793 215.513 72.6534 215.194 72.7183C214.875 72.7831 214.557 72.8109 214.229 72.8109C213.723 72.8109 213.254 72.7461 212.832 72.6071C212.41 72.4682 212.045 72.2644 211.745 71.9866C211.445 71.7087 211.201 71.3567 211.042 70.9307C210.873 70.5046 210.789 70.0044 210.789 69.4209C210.789 68.8374 210.873 68.3465 211.051 67.9204C211.23 67.4943 211.464 67.1331 211.764 66.8552C212.064 66.5774 212.42 66.3643 212.813 66.2254C213.216 66.0865 213.638 66.0124 214.088 66.0124C214.397 66.0124 214.669 66.0402 214.932 66.0865C215.194 66.1328 215.41 66.1976 215.588 66.281C215.766 66.3643 215.916 66.457 216.009 66.5589C216.112 66.6607 216.159 66.7626 216.159 66.8645C216.159 66.9664 216.131 67.0498 216.075 67.1239L215.869 67.2813C215.672 67.1516 215.438 67.0312 215.175 66.9201C214.903 66.8089 214.566 66.7534 214.144 66.7534C213.798 66.7534 213.469 66.8089 213.179 66.9293C212.879 67.0405 212.626 67.2165 212.41 67.4388C212.195 67.6611 212.026 67.9389 211.904 68.2724C211.783 68.6058 211.717 68.9948 211.717 69.4302C211.717 69.8933 211.783 70.2916 211.904 70.6343C212.036 70.9677 212.204 71.2456 212.439 71.4586C212.663 71.6716 212.935 71.8291 213.245 71.9402C213.554 72.0421 213.891 72.0977 214.247 72.0977C214.51 72.0977 214.753 72.0792 214.988 72.0329C215.222 71.9866 215.4 71.9402 215.531 71.8754V69.8933H213.891L213.826 69.7451L213.798 69.5506C213.798 69.4302 213.826 69.3375 213.882 69.2634C213.938 69.1986 214.022 69.1616 214.135 69.1616H215.953C216.084 69.1616 216.197 69.1986 216.281 69.282C216.375 69.3653 216.422 69.4765 216.422 69.6061V71.9402L216.403 71.9217Z" fill="#19233F"/>
<path d="M220.77 72.7275C220.452 72.7275 220.292 72.5979 220.292 72.3385V66.2625C220.424 66.1328 220.62 66.068 220.883 66.068C221.061 66.068 221.211 66.105 221.333 66.1698C221.455 66.2347 221.567 66.3643 221.67 66.5403L223.751 69.9766C223.835 70.1248 223.929 70.2823 224.023 70.4583C224.116 70.625 224.21 70.7917 224.294 70.9677C224.379 71.1344 224.463 71.2919 224.538 71.4401C224.613 71.5883 224.679 71.7087 224.726 71.8106H224.772C224.716 71.2178 224.679 70.6343 224.669 70.0507C224.66 69.4672 224.651 68.893 224.651 68.328V66.1513L224.829 66.105C224.904 66.0865 224.979 66.0772 225.072 66.0772C225.391 66.0772 225.55 66.2069 225.55 66.4662V72.5516C225.485 72.6071 225.4 72.6534 225.297 72.6905C225.194 72.7275 225.082 72.7368 224.96 72.7368C224.782 72.7368 224.641 72.6998 224.51 72.6349C224.388 72.5701 224.276 72.4497 224.173 72.2644L222.101 68.8281C222.017 68.6892 221.923 68.5225 221.82 68.3557C221.726 68.189 221.623 68.013 221.539 67.8556C221.445 67.6889 221.361 67.5314 221.286 67.3832C221.211 67.235 221.145 67.1053 221.098 67.0127H221.052C221.089 67.3647 221.117 67.763 221.136 68.1983C221.155 68.6429 221.164 69.0597 221.164 69.4487V72.6627L220.995 72.709L220.761 72.7368L220.77 72.7275Z" fill="#19233F"/>
</g>
<defs>
<clipPath id="clip0_1698_5030">
<rect width="226" height="76.84" fill="white"/>
</clipPath>
</defs>
</svg>