<svg xmlns="http://www.w3.org/2000/svg" viewBox="0 0 2868.3471 720"><defs><style>.cls-1{fill:#000;}.cls-2{fill:#eb6111;}.cls-3{fill:#97c1de;}</style></defs><g id="BERNER_standard_COLOR_WHITE"><g id="BERNER_standard_COLOR_WHITE-2" data-name="BERNER_standard_COLOR_WHITE"><path id="Berner" class="cls-1" d="M1979.5138,248.554h89.5634V570.7278H1973.83L1765.3564,362.259V570.7278h-89.8932V248.5549l96.0539-.0009,207.9967,208.0142ZM853.715,471.7027c0,73.4394-62.0666,99.0224-135.0294,99.0224H497.4275V248.5513h220.786c75.3324,0,114.6538,28.43,114.6538,80.0683,0,26.5358-12.7893,48.8006-40.27,61.5942C828.6041,402.5354,853.715,426.6972,853.715,471.7027ZM584.02,372.6755H708.1639c28.3756,0,40.0626-10.018,40.0626-28.9356s-11.687-28.9345-40.0626-28.9345H584.02Zm181.7068,91.7684c0-27.1868-17.0568-38.9159-54.3735-38.9159H583.9943v78.8984H711.3529C748.67,504.4264,765.7264,492.6978,765.7264,464.4439Zm223.1163,35.3506V431.3189h224.7992V372.3435H988.8427V319.4846h224.7992V248.5524H902.3644V570.7267h311.2775V499.7945Zm1230.7522-.0043V431.3146h224.8V372.34h-224.8V319.48h224.8V248.5524H2133.117V570.7267h311.2777V499.79Zm-581.9982,70.9344H1525.7849l-123.2331-123.18H1363.195V570.7246h-86.6257v-322.17h205.15c98.0739,0,143.56,33.6373,143.56,100.435,0,48.3333-25.1109,79.1283-79.5957,91.9177l-10.9841,2.215c-.0135,0-.0532-.0129-.0623-.0129-6.8265,1.1956-14.1311,2.1489-21.7654,2.8949ZM1490.7232,382.2959c23.2628,0,47.0411-3.9014,47.0411-32.8295,0-28.4339-22.61-32.3525-47.0411-32.3525H1363.1391v65.182Zm1377.6239,188.43H2756.5353L2633.3022,447.5454h-39.3569V570.7259H2507.32v-322.17h205.15c98.0739,0,143.56,33.6373,143.56,100.4349,0,48.3334-25.1109,79.1284-79.5956,91.9177l-10.9842,2.215c-.0134,0-.0531-.0129-.0623-.0129-6.8265,1.1956-14.131,2.149-21.7653,2.895ZM2721.4736,382.2973c23.2628,0,47.0411-3.9015,47.0411-32.8295,0-28.4339-22.61-32.3526-47.0411-32.3526H2593.89v65.1821Z"/><g id="designmark"><polygon class="cls-2" points="302.945 408.407 203.43 308.905 203.43 180.299 393.66 370.572 393.661 570.626 302.945 661.34 302.945 408.407"/><polygon class="cls-3" points="0 480.011 0.001 90.721 90.715 0 90.839 442.675 239.987 591.825 239.987 720 0 480.011"/></g></g></g></svg>