<?xml version="1.0" encoding="UTF-8" standalone="no"?>
<svg
   xmlns:svg="http://www.w3.org/2000/svg"
   xmlns="http://www.w3.org/2000/svg"
   version="1.0"
   width="539"
   height="146"
   viewBox="-0.328 -0.919 539 146"
   id="svg2"
   xml:space="preserve">
	<defs
   id="defs4">
	</defs>
	<g
   transform="matrix(0.9814186,0,0,0.9309147,6,6.000249)"
   id="g6">
		<path
   d="M 322.816,140.742 L 355.992,45.597 L 394.008,45.597 L 391.969,54.41 C 422.438,32.824 445.289,42.129 450.797,56.953 C 497.086,24.527 524.016,53.988 516.387,75.984 L 493.547,140.742 L 452.649,140.742 L 471.54,86.144 C 476.356,69.468 454.173,70.324 448.841,84.456 L 428.778,140.741 L 386.462,140.741 L 406.782,83.178 C 409.911,70.744 392.977,67.522 384.516,81.748 L 363.364,140.74 L 322.816,140.74 M 281.297,45.516 L 242.942,45.516 L 220.348,108.832 C 209.086,144.551 245.063,156.398 279.34,131.684 L 277.055,140.743 L 313.618,140.743 L 347.309,45.598 L 308.204,45.598 L 288.235,99.95 C 283.571,113.239 257.602,120.68 261.563,100.372 L 281.297,45.516 M 159.27,140.766 L 200.133,140.766 L 247.711,6.786 L 206.648,6.786 L 159.27,140.766 M 63.785,69.176 L 38.648,140.696 L 77.156,140.696 L 81.562,130.126 C 83.917,146.204 136.992,159.751 165.339,102.61 C 187.616,61.395 162.222,20.52 111.609,50.567 L 126.832,6.551 L 85.77,6.551 L 63.785,69.176 L 105.094,76.383 C 112.278,69.61 120.492,67.406 127.078,71.731 C 134.859,76.805 133.617,91.606 125.555,101.602 C 117.95,111 105.762,115.747 98.742,111.082 C 91.101,106.008 91.547,94.406 99.164,83.402 C 101.016,80.695 102.961,78.328 105.094,76.382 L 63.785,69.176"
   id="path8"
   style="fill:#e95300;fill-rule:evenodd" />
		<path
   d="M 524.73,11.168 L 524.73,12.352 L 524.203,12.352 L 524.203,17.004 L 523.125,17.004 L 523.125,6.516 L 528.609,6.516 C 531.492,6.434 532.769,10.746 529.722,12.094 C 532.007,13.289 530.39,15.832 531.327,17.086 L 530.132,17.086 C 529.3,16.078 531.07,12.867 527.53,12.352 L 524.729,12.352 L 524.729,11.168 L 528.608,11.168 C 530.225,11.168 531.163,8.379 529.03,7.793 L 524.307,7.793 L 524.307,11.168 L 524.73,11.168 M 517.031,8.543 C 518.203,4.313 522.094,1.277 526.758,1.277 C 532.336,1.277 536.906,5.836 536.906,11.425 C 536.906,17.085 532.336,21.573 526.758,21.573 C 521.086,21.573 516.516,17.085 516.516,11.425 C 516.516,10.406 516.68,9.48 517.031,8.543 L 515.836,8.039 C 515.508,9.129 515.332,10.242 515.332,11.426 C 515.332,17.778 520.406,22.852 526.758,22.852 C 533.016,22.852 538.172,17.778 538.172,11.426 C 538.172,5.156 533.016,0 526.758,0 C 521.602,0 517.278,3.387 515.836,8.039 L 517.031,8.543"
   id="path10"
   style="fill:#e95300" />
		<path
   d="M 25.688,86.508 C 25.688,86.508 28.594,79.301 33.856,83.051 L 41.368,89.344 C 41.368,89.344 45.188,92.274 44.298,86.684 L 39.82,48.129 C 39.82,48.129 39,42.047 34.816,46.137 L 7.945,73.301 C 7.945,73.301 4.277,76.805 6.984,77.367 L 17.812,77.273 C 17.812,77.273 25.417,77.203 22.3,86.882 L 3.563,140.789 L 0,140.824 L 19.172,85.98 C 19.172,85.98 20.461,80.46 16.734,80.753 L 6.34,80.93 C 1.102,80.895 0.867,75.223 4.395,71.895 L 33.34,42.68 C 36.938,38.93 42.563,41.004 43.102,46.067 C 44.204,54.786 48.047,88.43 48.047,88.43 C 48.762,93.844 43.277,96.094 39.539,92.403 L 33.738,87.622 C 33.738,87.622 30.07,83.673 28.5,88.782 L 10.336,140.743 L 6.856,140.766 L 25.688,86.508"
   id="path12"
   style="fill:#e95300" />
	</g>
</svg>