<svg xmlns="http://www.w3.org/2000/svg" viewBox="0 0 7680 847" width="7680" height="847" data-svg="logo-bompan"><path fill="#000000" d="M6297.89 435.22h30.69v139.67h-30.69zM6352.92 435.22h43.2l32.65 96h.39l30.89-96h43.2v139.67h-28.74v-99h-.39l-34.21 99h-23.65l-34.21-98h-.39v98h-28.74zM6528 435.22h63c34.8 0 48.29 22.1 48.29 44.8s-13.49 44.8-48.29 44.8h-32.26v50.08H6528zm30.69 65.73h23.85c14.27 0 27-3.13 27-20.93s-12.71-20.93-27-20.93h-23.85zM6717.59 431.9c43.2 0 68.62 32.28 68.62 73.75 0 40.3-25.42 72.57-68.62 72.57S6649 545.94 6649 505.64c0-41.47 25.39-73.74 68.59-73.74zm0 120.5c27.56 0 37.93-23.47 37.93-46.75 0-24.45-10.36-47.93-37.93-47.93s-37.93 23.47-37.93 47.93c0 23.27 10.34 46.75 37.93 46.75zM6804.37 435.22h75.27c25 0 40.86 17.41 40.86 38.54 0 16.43-6.65 28.76-22.09 35v.39c15.05 3.91 19.35 18.58 20.33 32.67.59 8.8.39 25.24 5.86 33.06h-30.7c-3.71-8.8-3.32-22.3-4.89-33.45-2.15-14.67-7.82-21.13-23.26-21.13h-30.69v54.58h-30.69zm30.69 63.18h33.63c13.68 0 21.11-5.87 21.11-20 0-13.5-7.43-19.37-21.11-19.37h-33.63zM6972.7 461h-41.84v-25.78h114.37V461h-41.84v113.89h-30.69zM7080.3 435.22h31.47L7164 574.89h-31.9l-10.56-31.1h-52.2l-10.95 31.1h-31.08zm-2.93 85.68h36.17l-17.59-51.25h-.39zM7188.13 461h-41.84v-25.78h114.37V461h-41.84v113.89h-30.69zM7332.75 431.9c43.2 0 68.62 32.28 68.62 73.75 0 40.3-25.42 72.57-68.62 72.57s-68.62-32.28-68.62-72.57c0-41.48 25.42-73.75 68.62-73.75zm0 120.5c27.56 0 37.93-23.47 37.93-46.75 0-24.45-10.36-47.93-37.93-47.93s-37.93 23.47-37.93 47.93c.01 23.27 10.37 46.75 37.93 46.75zM7419.53 435.22h75.27c25 0 40.86 17.41 40.86 38.54 0 16.43-6.65 28.76-22.09 35v.39c15.05 3.91 19.35 18.58 20.33 32.67.59 8.8.39 25.24 5.86 33.06h-30.69c-3.71-8.8-3.32-22.3-4.89-33.45-2.15-14.67-7.82-21.13-23.26-21.13h-30.69v54.58h-30.69zm30.69 63.18h33.63c13.68 0 21.11-5.87 21.11-20 0-13.5-7.43-19.37-21.11-19.37h-33.63zM7557.79 435.22h104.39V461h-73.7v30h67.64v23.87h-67.64v34.23h75.27v25.82h-106zM6446.13 672h104.39v25.82h-73.7v29.93h67.64v23.87h-67.64v34.23h75.27v25.82h-106zM6591.46 765.33c0 18.58 14.47 25.82 30.89 25.82 10.75 0 27.17-3.13 27.17-17.41 0-15.06-20.92-17.61-41.45-23.08-20.72-5.48-41.64-13.5-41.64-39.71 0-28.56 27-42.25 52.2-42.25 29.13 0 55.91 12.71 55.91 45h-29.72c-1-16.82-12.9-21.13-27.56-21.13-9.78 0-21.11 4.11-21.11 15.85 0 10.76 6.65 12.13 41.64 21.13 10.17 2.54 41.45 9 41.45 40.69 0 25.63-20.14 44.8-58.06 44.8-30.89 0-59.82-15.26-59.43-49.69zM6787.32 719c-2-13.89-15.25-24.45-30.5-24.45-27.57 0-37.93 23.47-37.93 47.93 0 23.28 10.36 46.75 37.93 46.75 18.77 0 29.32-12.91 31.67-31.3h29.72c-3.13 34.79-27.21 57.07-61.39 57.07-43.2 0-68.62-32.28-68.62-72.57 0-41.47 25.42-73.75 68.62-73.75 30.69 0 56.5 18 60.21 50.27zM6835.84 672h30.69v113.87h68v25.82h-98.73zM7063.74 758.88c0 37.75-22.29 56.14-59.63 56.14-37.54 0-59.43-18.19-59.43-56.14V672h30.69v86.85c0 15.26 3.91 30.32 28.74 30.32 21.9 0 28.93-9.58 28.93-30.32V672h30.69zM7108.43 765.33c0 18.58 14.47 25.82 30.89 25.82 10.75 0 27.17-3.13 27.17-17.41 0-15.06-20.92-17.61-41.45-23.08-20.72-5.48-41.64-13.5-41.64-39.71 0-28.56 27-42.25 52.2-42.25 29.13 0 55.91 12.71 55.91 45h-29.71c-1-16.82-12.9-21.13-27.56-21.13-9.78 0-21.11 4.11-21.11 15.85 0 10.76 6.65 12.13 41.64 21.13 10.17 2.54 41.45 9 41.45 40.69 0 25.63-20.14 44.8-58.06 44.8-30.89 0-59.82-15.26-59.43-49.69zM7213.32 672H7244v139.69h-30.69zM7333.81 811.69h-34.6L7253.85 672h31.67l31.08 98.2h.39l31.47-98.2h31.67zM7446.7 668.7c43.2 0 68.62 32.28 68.62 73.75 0 40.3-25.42 72.57-68.62 72.57s-68.62-32.28-68.62-72.57c0-41.45 25.41-73.75 68.62-73.75zm0 120.5c27.56 0 37.93-23.47 37.93-46.75 0-24.45-10.36-47.93-37.93-47.93s-37.93 23.47-37.93 47.93c0 23.27 10.36 46.75 37.93 46.75z"></path><path fill="#e60000" d="M6506.51 167.56V16.54h-62.3l-186.93 270.19h74.77l110.08-159.12v133.13l64.38-93.18zM7617.7 78.89h62.3v207.84h-62.3zM6716.29 78.89h62.32v207.84h-62.32zM7599 78.89h-74.77l-72.69 88.91V78.89h-62.31v207.84h62.31V173.57l72.69 113.16H7599l-74.77-116.38L7599 78.89zM6691.36 286.73V16.54h-62.3l-186.93 270.19h74.77l110.08-159.12v159.12h64.38zM7115.07 155.79A81 81 0 0 0 6973.44 102a74.74 74.74 0 0 0-107.6-8.25V78.89h-62.31v207.84h62.31V166.17a31.16 31.16 0 1 1 62.31 0v120.56h62.31V166.17a31.15 31.15 0 1 1 62.31 0v120.56h62.31V155.79M7302 286.73h62.3V78.89H7302v17.68a106 106 0 1 0-64.38 190.16h47.77v-60.28h-45.69a47.8 47.8 0 0 1 0-95.59h6.23A56.08 56.08 0 0 1 7302 187v99.77"></path><path fill="#000000" d="M0 23.77h18.42c101.47-.11 304.06 0 304.06 0 59.26.48 117.1 9.05 170 38 39 21.28 68.41 51.5 79.54 95.62 16.37 64.89-2.53 124.65-61.78 165.9-14 9.72-29.08 17.79-45.76 27.88 7.41 2.36 13.43 4.34 19.5 6.19 34.74 10.57 67 26 96 48.13 85.08 65.13 100.9 176.64 46.21 263.22-37.86 59.89-93.27 96.62-159.52 118.29-55.4 18.11-112.81 22.16-170.59 22.45H0v-12.91c2.66-.36 5.59-.1 7.92-1.17 23.62-10.82 35.89-30.27 41.75-54.44 7.1-29.32 6.6-59.25 6.56-89.26-.23-161.46.29-322.92.19-484.37 0-20.46-.66-41.13-3.56-61.34C48.15 73.18 35.55 45 0 34.52zM196.29 707c41.29 3.44 80.91 7.6 120.64 9.82 41.55 2.31 81.78-4.46 119-24.26 60.22-32 80-91 67.9-150.3-9.06-44.59-37.92-74.22-76.89-94.72-45.32-23.84-94.3-30.84-144.83-29.26-18.81.59-37.6 1.84-56.38 3-9.72.62-19.4 1.79-29.42 2.75zm.39-373.17c2.36.74 3.86 1.59 5.38 1.63 33.23.79 66.47 1 99.27-5.37 31.35-6.09 61.67-15.37 88.07-34.72 46.74-34.19 53.38-103.08 14.27-145.81-28.39-31-64.79-43.8-105.14-44.81-19.82-.5-39.74 2-59.58 3.7-14.12 1.18-28.17 3.21-42.29 4.86zM2163.27 826.49c-49.28-30.65-83.25-72-106.32-122.75Q1942.52 451.88 1828 200.07c-5.67-12.48-11.44-24.91-19.74-37-3.45 23.2-7 46.39-10.32 69.6q-16.3 113.56-32.46 227.13c-11.21 79-22.48 158-33.19 237.13-1.77 13.1-1.63 26.6-1 39.85 1.3 25.68 12.78 45.43 36.18 57.55 5 2.58 10 6 10 15.08h-214.21a17.94 17.94 0 0 1 6.33-14.08c35.6-30.86 50.73-72.15 58-116.63 11-66.7 20.4-133.67 30.36-200.54q14.46-97 28.67-194.07 12.71-86.93 25.07-173.92a72.36 72.36 0 0 0-34.36-72.09c-6.58-4-6.46-5.52-9.09-14.34h226.64c22.22 65.74 55 128.07 83.36 190.93 54.44 120.64 110.27 240.65 165.55 360.91 2.29 5 4.88 9.83 8.17 16.41 2.87-5.76 5.22-9.91 7.07-14.28q101-239.56 202-479.15c9.73-23.07 17.91-49.54 18.82-74.82h227.45c-1.85 3.43-2.65 9.74-4.94 10.81-30.28 14.24-36 40.93-33.2 69.83 3.52 36.38 9.78 72.5 15 108.71q15.93 110.26 32 220.49 17.71 121.76 35.49 243.51c2 13.69 4.36 27.34 6.73 41 5.39 31.06 21.27 56.62 46.74 75.1 5.18 3.76 9.49 6.45 9.49 16.25H2466c-.07-5.89 1.7-10.75 11-15 14.82-6.79 26.8-19.09 32.23-34.47 6.64-18.84 7.83-36.84 5.32-56.06-9.76-74.75-18.94-149.58-28.46-224.37-8.19-64.34-16.6-128.64-24.85-193q-7.51-58.56-14.82-117.13c-.24-1.91-.6-3.81-3.75-6.4z"></path><path fill="#000000" d="M1155.6.08c76.49-1.44 150 17.57 218.6 51.73 112.05 55.84 191.89 140.75 223.68 264 31.18 120.89 6 232.23-69 331.27-65.41 86.42-154 139.22-258.1 165.36-125.77 31.59-248.66 21.11-366.14-34.93-106.2-50.66-183.55-131.56-222-249.71-42.52-130.51-6.58-273.35 88.17-372.62C851.55 70.62 950.16 22.76 1064.65 7.56c30.12-4 60.53-6.91 90.95-7.48zm-9.23 736.47c25.35-1.67 50.85-4.46 75.52-10 116-26.13 194-94.91 223.14-211.54 26.86-107.58 6.07-208.07-59.4-297.83C1344 160.12 1288 122.47 1219 106.27c-76.67-18-152.16-11.93-224.39 19.53-77.13 33.6-129.94 91.07-156.38 171.28-27 81.8-22.29 162.74 11.61 241.66 52.67 122.55 168.27 206.26 296.53 197.81zM4087.62 23.77h190.45c9.42 22.51 26.08 41 41.3 59Q4453.11 240.86 4588 398q87.44 102.49 174.91 205c3.48 4.07 7.28 7.85 12.73 13.69 0-7.11.05-312.13-.09-460.26 0-11.61-1.22-23.23-2.14-34.82-3-37.3-22.06-64.17-53.74-82.91-4.83-2.86-10.68-5.78-10.68-14.9h231.81a18.49 18.49 0 0 1-4.3 11.54c-1 1.22-2.76 1.79-4.21 2.6-38 21.26-54.74 54.92-56.53 97.19V847c-5.07-.86-9.6-1.07-13-2.13-57.46-17.78-106.79-48.57-146.13-94.18Q4619.36 638 4523.21 524.33q-132-155.18-263.67-310.64c-1.4-1.65-7.55-8.52-7.55-8.52s-.28 12.43-.28 16.44q-.1 228.86 0 457.71a285.68 285.68 0 0 0 2.14 34.82c4.31 34.78 22.26 60.74 52 79 5 3.11 14.06 7 12.15 16.28h-232.16c0-4.79 2.18-9.14 4.46-11.13 4.12-3.59 9.32-5.93 13.94-9 29.83-19.71 43.42-47.78 45.85-83.15 1.52-22.1 2.62-44.28 2.66-66.43q.35-218 0-436.08c0-25.48-1.16-51-2.51-76.42-2-38.21-19.54-67.38-52.3-87.45-5-3.03-10.32-5.32-10.32-15.99zM3754.08 518.46h-314.34c-9.67 24.2-19.31 48.25-28.88 72.33-14.93 37.57-30.13 75-44.51 112.8a201.67 201.67 0 0 0-11.14 39.85c-3.51 22.19 4.14 35.65 23.88 46.41 4.85 2.64 10.47 4 14.94 7.12 3.33 2.31 7.86 4.95 8.7 12.31H3158.6c0-6.89 1.18-11.55 7.78-15.34 11-6.32 19.43-11.38 29.44-19.14 23.24-18 40-41.61 52.08-68 19.31-42.28 37.33-85.16 55.74-127.85q94.75-219.64 189.36-439.31c5.35-12.42 10.3-25 14.76-37.8a85.44 85.44 0 0 0 3.24-11.66c5.26-26.68 0-39.66-21.26-50.09-4.9-2.41-10-4.41-14.84-6.53v-9.75h208.73c11.19 25.57 22.51 51.4 33.79 77.25Q3844 391 3970.8 680.9c8.42 19.18 19 37.57 30.22 55.31 15.65 24.79 37 43.94 63.09 57.7 8.57 4.53 8.47 4.71 9 15.53H3805v-9.9c9.08-4.69 18.66-9 27.59-14.39 15.65-9.45 19.57-18.42 14.89-36.22a291.31 291.31 0 0 0-12.55-36q-37.1-90.68-74.69-181.16c-1.84-4.54-4.11-8.92-6.16-13.31zm-158.22-378.73l-118.34 279.79 235-1.11zM2755.24 23.77H3087c67 .57 131.2 14.88 188.29 51.73 59.93 38.69 91.35 93.88 88.83 166.2-1.93 55.45-24.92 101.77-65.27 139.22-48 44.54-106.2 67.15-170.15 76.21-37.57 5.32-75.17 5.45-112.33-3.34-10.53-2.49-29.16-6.55-31.76-10.24-4.12-5.85 12-8.15 18-8.67 20.52-1.78 47.08-8 69.59-15.21 41.77-13.37 79-34.94 106.82-70.12 33.58-42.54 40.69-90.42 24.84-141.26-13.29-42.64-45.25-67.09-86.49-80.5-33.7-11-68.54-12.74-103.56-11.31-20.93.85-41.79 3.29-63.57 5.08-.54 5.54-1.3 9.77-1.3 14q-.09 274.65.11 549.3a230.1 230.1 0 0 0 3.78 39.67c5.5 31 24.11 52.81 50.42 68.86 5.15 3.14 9.33 6.33 10.31 16h-258.32c0-5.79 2.41-10.33 7.26-12.24 35.61-14.08 42.63-43.36 46-76.71a439.5 439.5 0 0 0 2.11-44.29l.45-483.51c.17-32.23 1.34-64.35-5.37-96-5.61-26.44-17.51-49.13-44-60.68-4.79-1.96-6.58-5.07-6.45-12.19z"></path><path fill="#8bbb43" d="M5715.84 258.26l-.33.28c-2.36 2.1-5.08 4.55-7.72 7.16l-149.6 139.92a12.7 12.7 0 0 0-.13 18.43l149.09 143.36a107.43 107.43 0 0 0 8.5 7.88l.09.07.07.06a111.07 111.07 0 0 0 181.78-85.61l.09-145.37a110.82 110.82 0 0 0-181.85-86.17zM5578.34 809.36a111 111 0 0 0 85.49-181.88l-.07-.08-.07-.09a108.32 108.32 0 0 0-7.9-8.54l-143.23-149.16a12.68 12.68 0 0 0-18.42.13l-139.79 149.65c-2.62 2.64-5.06 5.36-7.17 7.73l-.28.33a111 111 0 0 0 85.26 182c40.19-.03 105.98-.05 146.18-.09zM5432.22 23.86a111 111 0 0 0-85.83 181.88l.06.07.07.09a104.52 104.52 0 0 0 7.85 8.48l143.3 149.22a12.68 12.68 0 0 0 18.42-.13l139.8-149.65c2.62-2.64 5.06-5.36 7.17-7.73l.29-.34a111 111 0 0 0-85.26-182zM5294.38 575l.34-.29c2.36-2.1 5.08-4.55 7.73-7.18L5452 427.59a12.7 12.7 0 0 0 .13-18.43L5303 265.78a106.61 106.61 0 0 0-8.47-7.86l-.09-.07-.08-.07a111.07 111.07 0 0 0-181.76 85c-.24 40.37-.08 106.45-.1 146.83A110.83 110.83 0 0 0 5294.38 575z"></path></svg>