<?xml version="1.0" encoding="UTF-8"?>
<!-- Generator: Adobe Illustrator 22.1.0, SVG Export Plug-In . SVG Version: 6.00 Build 0)  -->
<svg version="1.1" id="Livello_1" xmlns="http://www.w3.org/2000/svg" xmlns:xlink="http://www.w3.org/1999/xlink" x="0px" y="0px" viewBox="0 0 641 226" style="enable-background:new 0 0 641 226;" xml:space="preserve">
<style type="text/css">
	.st0{fill:#000000;}
	.st1{fill:#E30613;}
	.st2{fill:#009640;}
</style>
<g>
	<path class="st0" d="M22.3,174.3h48.1c6,0,10,2.3,12.2,6.8c0.6,2,0.5,4-0.2,5.8l-0.5,1.5c-1.2,3.4-4.3,6.5-9.4,9.1   c3.3,2.4,4.3,5.4,3,9.1l-0.7,2.1c-1.4,4-5.1,7.4-11.1,10.3c-3.4,1.3-6.2,2-8.3,2H6c-0.2,0-0.2-0.1-0.2-0.2L22,174.5   C22,174.3,22.1,174.3,22.3,174.3 M29.2,202.6l-2.5,7.2h28.1c2.3,0,4.1-0.7,5.2-2.1c0.5-0.7,0.8-1.2,0.9-1.6   c0.6-1.7-0.1-2.8-2.1-3.5H29.2z M35.2,185.3l-2.5,7.2H62c1.4,0,2.8-0.8,4.3-2.5c0.4-0.7,0.6-1,0.6-1.1c0.6-1.7-0.2-2.8-2.3-3.4   c-0.3-0.1-0.6-0.1-1-0.1H35.2z"/>
	<path class="st0" d="M106.4,174.3h42.4c5.2,0,9,1.8,11.4,5.3c1.3,2.3,1.5,4.9,0.6,7.5l-7.4,21.2c-1.5,4.3-5.4,7.9-11.6,10.6   c-3.2,1.3-6.3,2-9.3,2H90.1c-6,0-10-2.3-12.2-6.8c-0.6-2.1-0.5-3.9,0-5.6l7.5-21.6c1.5-4.3,5.4-7.9,11.6-10.6   C100.3,174.9,103.4,174.3,106.4,174.3 M100.4,193.3l-2.9,8.4c-1.3,3.8-0.2,6.4,3.3,7.7c0.7,0.3,1.8,0.4,3.3,0.4h23.1   c4.1,0,7.7-2,10.7-6c0.4-0.8,0.6-1.4,0.7-1.8l3.1-9c1.2-3.5,0.1-6-3.4-7.4c-0.7-0.3-1.8-0.4-3.3-0.4h-22.4c-4.5,0-8.1,1.7-10.8,5.2   C101.2,191.3,100.8,192.2,100.4,193.3"/>
	<path class="st0" d="M292.1,174.3H351c0.1,0,0.2,0.1,0.1,0.2l-3.7,10.6c0,0.1-0.1,0.2-0.3,0.2H305l-2.5,7.2h33.6   c0.1,0,0.2,0.1,0.1,0.2l-3.4,9.7c0,0.1-0.1,0.2-0.3,0.2H299l-2.5,7.2h42.1c0.1,0,0.2,0.1,0.1,0.2l-3.7,10.6   c-0.1,0.1-0.1,0.2-0.3,0.2h-58.9c-0.2,0-0.2-0.1-0.2-0.2l16.1-46.2C291.8,174.3,291.9,174.3,292.1,174.3"/>
	<path class="st0" d="M434.9,175.1h41.7c0.2,0,0.2,0.1,0.2,0.2l-3.7,10.2c-0.1,0.1-0.2,0.2-0.3,0.2h-31.9c-4.5,0-8.2,1.9-11,5.7   c-0.3,0.6-0.7,1.3-1,2.2l-2.9,7.9c-1.4,3.8-0.3,6.3,3.2,7.5c0.7,0.3,1.8,0.4,3.3,0.4H464c0.2,0,0.2,0.1,0.2,0.2l-3.7,10.2   c-0.1,0.1-0.2,0.2-0.3,0.2h-41.4c-6.2,0-10.3-2.2-12.4-6.6c-0.6-1.8-0.6-3.6,0.1-5.5l7.6-21c1.3-3.4,4.6-6.6,10.2-9.3   C428,175.9,431.6,175.1,434.9,175.1"/>
	<path class="st0" d="M371.3,175.1h41.7c0.2,0,0.2,0.1,0.2,0.2l-3.7,10.2c-0.1,0.1-0.2,0.2-0.3,0.2h-31.9c-4.5,0-8.2,1.9-11,5.7   c-0.3,0.6-0.7,1.3-1,2.2l-2.9,7.9c-1.4,3.8-0.3,6.3,3.2,7.5c0.7,0.3,1.8,0.4,3.3,0.4h31.6c0.2,0,0.2,0.1,0.2,0.2l-3.7,10.2   c0,0.1-0.2,0.2-0.3,0.2h-41.4c-6.2,0-10.3-2.2-12.4-6.6c-0.6-1.8-0.6-3.6,0.1-5.5l7.6-21c1.3-3.4,4.7-6.6,10.2-9.3   C364.5,175.9,368,175.1,371.3,175.1"/>
	<path class="st0" d="M480.6,175h16.6c0.2,0,0.2,0.1,0.2,0.2l-6.1,17.3h31.3l6.1-17.3c0.1-0.1,0.2-0.2,0.3-0.2h16.6   c0.2,0,0.2,0.1,0.2,0.2l-15.9,45.4c0,0.1-0.2,0.2-0.3,0.2H513c-0.2,0-0.2-0.1-0.2-0.2l6.3-18h-31.3l-6.3,18   c-0.1,0.1-0.2,0.2-0.3,0.2h-16.6c-0.2,0-0.2-0.1-0.2-0.2l15.9-45.4C480.4,175.1,480.5,175,480.6,175"/>
	<path class="st0" d="M549.2,175h16.6c0.2,0,0.2,0.1,0.2,0.2L550,220.7c-0.1,0.1-0.2,0.2-0.3,0.2h-16.6c-0.2,0-0.2-0.1-0.2-0.2   l15.9-45.4C548.9,175.1,549,175,549.2,175"/>
	<path class="st0" d="M615,174.3c0.2,0.3,4.8,15.8,14,46.4l-0.1,0.2h-17.2c-0.3-0.3-1.2-3-2.7-8.2c-0.3-0.4-3-8.8-8.1-25.2   c-0.8,0.6-5.6,5.3-14.3,14.1c-0.4,0.3-7,6.8-19.8,19.4h-17l-0.2-0.1c27.7-27.9,43.1-43.4,46.3-46.5H615z"/>
	<polygon class="st0" points="588.6,203 602.5,203 589.8,221  "/>
	<path class="st0" d="M225.6,174.3h-0.7h-56.2c-0.1,0-0.3,0.1-0.3,0.2l-3.7,10.6c0,0.1,0,0.2,0.2,0.2h22.6l-12.3,35.3   c-0.1,0.1,0,0.2,0.2,0.2h16.6c0.2,0,0.3-0.1,0.3-0.2l12.3-35.3H221h0.6L225.6,174.3z"/>
	<path class="st0" d="M286.8,174.3h-0.7h-56.2c-0.1,0-0.3,0.1-0.3,0.2l-3.7,10.6c0,0.1,0,0.2,0.2,0.2h22.6l-12.3,35.3   c-0.1,0.1,0,0.2,0.2,0.2H253c0.2,0,0.3-0.1,0.3-0.2l12.3-35.3h16.5h0.6L286.8,174.3z"/>
	<path class="st0" d="M632.2,182.7c-1,1-2.2,1.5-3.6,1.5c-1.4,0-2.6-0.5-3.6-1.5c-1-1-1.5-2.2-1.5-3.7c0-1.4,0.5-2.6,1.5-3.6   c1-1,2.2-1.5,3.6-1.5c1.4,0,2.6,0.5,3.6,1.5c1,1,1.5,2.2,1.5,3.6C633.8,180.5,633.2,181.7,632.2,182.7 M625.5,175.9   c-0.9,0.9-1.3,1.9-1.3,3.1c0,1.2,0.4,2.3,1.3,3.2c0.9,0.9,1.9,1.3,3.1,1.3c1.2,0,2.3-0.4,3.1-1.3c0.9-0.9,1.3-1.9,1.3-3.2   c0-1.2-0.4-2.3-1.3-3.1c-0.9-0.9-1.9-1.3-3.1-1.3C627.4,174.6,626.3,175,625.5,175.9 M628.5,176.2c0.7,0,1.2,0.1,1.5,0.2   c0.6,0.2,0.9,0.7,0.9,1.4c0,0.5-0.2,0.9-0.6,1.1c-0.2,0.1-0.5,0.2-0.8,0.3c0.4,0.1,0.8,0.3,1,0.6c0.2,0.3,0.3,0.6,0.3,0.9v0.4   c0,0.1,0,0.3,0,0.4c0,0.2,0,0.2,0.1,0.3l0,0.1H630c0,0,0,0,0-0.1c0,0,0,0,0-0.1l0-0.2v-0.5c0-0.6-0.2-1.1-0.5-1.3   c-0.2-0.1-0.6-0.2-1.1-0.2h-0.8v2.2h-1v-5.7H628.5z M629.6,177.1c-0.3-0.1-0.7-0.2-1.2-0.2h-0.9v2.1h0.9c0.4,0,0.7,0,0.9-0.1   c0.4-0.2,0.6-0.4,0.6-0.9C629.9,177.5,629.8,177.2,629.6,177.1"/>
	<polygon class="st1" points="353.2,85.2 319.2,95.7 285.5,85.2 295.2,106.6 294.1,126.8 319.1,146.1 344.2,126.8 343.6,106.6  "/>
	<polygon class="st2" points="310.6,145.1 293.9,132.3 293.6,140.5 310.6,153.5  "/>
	<path class="st1" d="M327.5,145.1v8.4l17-13c0,0-0.2-7.2-0.2-8.3L327.5,145.1z"/>
	<polygon class="st0" points="310.6,145.1 310.6,153.5 319.1,160 327.5,153.5 327.5,145.1 319.1,151.6  "/>
	<path class="st1" d="M309.1,89.2h-1.6l1.1-5.4l-1.7,1.2l0.4-1.8l1.7-1.2h1.6L309.1,89.2z"/>
	<path class="st1" d="M317.7,84.5c0,0.2-0.1,0.3-0.2,0.5c-0.1,0.2-0.2,0.3-0.3,0.5c-0.1,0.2-0.2,0.4-0.4,0.6l-2,3.1h-1.7l2-2.9   c-0.1,0-0.1,0-0.2,0c0,0-0.1,0-0.2,0c-0.2,0-0.4,0-0.6-0.1c-0.2-0.1-0.4-0.2-0.5-0.4c-0.1-0.2-0.2-0.4-0.3-0.6   c-0.1-0.2-0.1-0.5-0.1-0.8c0-0.3,0.1-0.7,0.2-1c0.1-0.3,0.3-0.6,0.5-0.8c0.2-0.2,0.5-0.4,0.8-0.5c0.3-0.1,0.6-0.2,1-0.2   c0.4,0,0.7,0.1,1,0.2c0.3,0.1,0.5,0.3,0.7,0.5c0.2,0.2,0.3,0.4,0.4,0.6c0.1,0.2,0.1,0.5,0.1,0.7C317.8,84.2,317.8,84.4,317.7,84.5z    M316,83.6c-0.1-0.1-0.3-0.2-0.5-0.2c-0.3,0-0.5,0.1-0.6,0.3c-0.1,0.2-0.2,0.4-0.2,0.7c0,0.2,0.1,0.4,0.2,0.5   c0.1,0.1,0.3,0.2,0.5,0.2c0.3,0,0.5-0.1,0.6-0.3c0.1-0.2,0.2-0.4,0.2-0.7C316.2,83.9,316.2,83.7,316,83.6z"/>
	<path class="st1" d="M324.1,84.6c-0.1,0.2-0.2,0.4-0.3,0.6c-0.1,0.2-0.2,0.3-0.4,0.4c-0.1,0.1-0.2,0.2-0.3,0.3l-1.9,1.9h2.4   l-0.3,1.4h-4.4l0.3-1.4l2.9-2.9c0.2-0.2,0.3-0.4,0.4-0.5c0.1-0.1,0.1-0.3,0.1-0.5c0-0.2,0-0.3-0.1-0.4c-0.1-0.1-0.2-0.1-0.4-0.1   c-0.2,0-0.3,0-0.5,0.1c-0.1,0.1-0.3,0.3-0.3,0.6h-1.6c0.1-0.7,0.4-1.2,0.8-1.6c0.4-0.4,1-0.5,1.7-0.5c0.6,0,1.1,0.2,1.4,0.5   c0.3,0.3,0.5,0.8,0.5,1.4C324.3,84.2,324.2,84.4,324.1,84.6z"/>
	<path class="st1" d="M328.4,85c0.1,0,0.1,0,0.2,0c0,0,0.1,0,0.2,0c0.2,0,0.4,0,0.6,0.1c0.2,0.1,0.4,0.2,0.5,0.4   c0.1,0.2,0.2,0.4,0.3,0.6c0.1,0.2,0.1,0.5,0.1,0.8c0,0.3-0.1,0.7-0.2,1c-0.1,0.3-0.3,0.6-0.5,0.8c-0.2,0.2-0.5,0.4-0.8,0.5   c-0.3,0.1-0.6,0.2-1,0.2c-0.4,0-0.7-0.1-1-0.2c-0.3-0.1-0.5-0.3-0.7-0.5c-0.2-0.2-0.3-0.4-0.4-0.6c-0.1-0.2-0.1-0.5-0.1-0.7   c0-0.2,0-0.4,0.1-0.5c0-0.2,0.1-0.3,0.2-0.5c0.1-0.2,0.2-0.3,0.3-0.5c0.1-0.2,0.2-0.4,0.4-0.6l2-3.1h1.7L328.4,85z M328.6,86.4   c-0.1-0.1-0.3-0.2-0.5-0.2c-0.3,0-0.5,0.1-0.6,0.3c-0.1,0.2-0.2,0.4-0.2,0.7c0,0.2,0.1,0.4,0.2,0.5c0.1,0.1,0.3,0.2,0.5,0.2   c0.3,0,0.5-0.1,0.6-0.3c0.1-0.2,0.2-0.4,0.2-0.7C328.8,86.6,328.7,86.5,328.6,86.4z"/>
	<path class="st1" d="M240.2,63.6h12.9c1.6,0,2.7,0.6,3.3,1.8c0.1,0.5,0.1,1.1,0,1.6l-0.1,0.4c-0.3,0.9-1.2,1.7-2.5,2.4   c0.9,0.6,1.2,1.5,0.8,2.4l-0.2,0.6c-0.4,1.1-1.4,2-3,2.8c-0.9,0.4-1.7,0.5-2.2,0.5h-13.3c0,0-0.1,0,0-0.1L240.2,63.6   C240.2,63.6,240.2,63.6,240.2,63.6 M242.1,71.2l-0.7,1.9h7.5c0.6,0,1.1-0.2,1.4-0.6c0.1-0.2,0.2-0.3,0.2-0.4c0.2-0.4,0-0.8-0.6-1   H242.1z M243.7,66.5l-0.7,1.9h7.9c0.4,0,0.8-0.2,1.2-0.7c0.1-0.2,0.2-0.3,0.2-0.3c0.2-0.5,0-0.8-0.6-0.9c-0.1,0-0.2,0-0.3,0H243.7z   "/>
	<path class="st1" d="M262.8,63.6h11.4c1.4,0,2.4,0.5,3.1,1.4c0.4,0.6,0.4,1.3,0.2,2l-2,5.7c-0.4,1.2-1.4,2.1-3.1,2.9   c-0.9,0.4-1.7,0.5-2.5,0.5h-11.4c-1.6,0-2.7-0.6-3.3-1.8c-0.2-0.6-0.1-1.1,0-1.5l2-5.8c0.4-1.2,1.4-2.1,3.1-2.9   C261.2,63.7,262,63.6,262.8,63.6 M261.2,68.7l-0.8,2.3c-0.4,1-0.1,1.7,0.9,2.1c0.2,0.1,0.5,0.1,0.9,0.1h6.2c1.1,0,2.1-0.5,2.9-1.6   c0.1-0.2,0.2-0.4,0.2-0.5l0.8-2.4c0.3-0.9,0-1.6-0.9-2c-0.2-0.1-0.5-0.1-0.9-0.1h-6c-1.2,0-2.2,0.5-2.9,1.4   C261.4,68.1,261.3,68.4,261.2,68.7"/>
	<path class="st1" d="M312.6,63.6h15.8c0,0,0,0,0,0.1l-1,2.8c0,0,0,0.1-0.1,0.1h-11.3l-0.7,1.9h9c0,0,0.1,0,0,0.1l-0.9,2.6   c0,0,0,0-0.1,0h-9l-0.7,1.9h11.3c0,0,0,0,0,0.1l-1,2.8c0,0,0,0.1-0.1,0.1h-15.8c0,0-0.1,0,0-0.1L312.6,63.6   C312.6,63.6,312.6,63.6,312.6,63.6"/>
	<path class="st1" d="M351,63.8h11.2c0,0,0.1,0,0,0.1l-1,2.7c0,0,0,0.1-0.1,0.1h-8.6c-1.2,0-2.2,0.5-3,1.5c-0.1,0.2-0.2,0.3-0.3,0.6   l-0.8,2.1c-0.4,1-0.1,1.7,0.9,2c0.2,0.1,0.5,0.1,0.9,0.1h8.5c0,0,0.1,0,0,0l-1,2.7c0,0,0,0.1-0.1,0.1h-11.1c-1.7,0-2.8-0.6-3.3-1.8   c-0.2-0.5-0.2-1,0-1.5l2-5.6c0.3-0.9,1.2-1.8,2.7-2.5C349.1,64,350.1,63.8,351,63.8"/>
	<path class="st1" d="M333.9,63.8h11.2c0,0,0.1,0,0,0.1l-1,2.7c0,0,0,0.1-0.1,0.1h-8.6c-1.2,0-2.2,0.5-3,1.5   c-0.1,0.2-0.2,0.3-0.3,0.6l-0.8,2.1c-0.4,1-0.1,1.7,0.9,2c0.2,0.1,0.5,0.1,0.9,0.1h8.5c0,0,0.1,0,0,0l-1,2.7c0,0,0,0.1-0.1,0.1   h-11.1c-1.7,0-2.8-0.6-3.3-1.8c-0.2-0.5-0.2-1,0-1.5l2-5.6c0.3-0.9,1.2-1.8,2.7-2.5C332.1,64,333,63.8,333.9,63.8"/>
	<path class="st1" d="M363.2,63.8h4.4c0,0,0.1,0,0,0.1l-1.6,4.6h8.4l1.6-4.6c0,0,0-0.1,0.1-0.1h4.4c0,0,0.1,0,0,0.1L376.4,76   c0,0,0,0.1-0.1,0.1h-4.4c0,0-0.1,0,0-0.1l1.7-4.8h-8.4l-1.7,4.8c0,0,0,0.1-0.1,0.1h-4.4c0,0-0.1,0,0-0.1L363.2,63.8   C363.2,63.8,363.2,63.8,363.2,63.8"/>
	<path class="st1" d="M381.6,63.8h4.4c0,0,0.1,0,0,0.1L381.9,76c0,0,0,0.1-0.1,0.1h-4.4c0,0-0.1,0,0-0.1L381.6,63.8   C381.6,63.8,381.6,63.8,381.6,63.8"/>
	<path class="st1" d="M399.3,63.6c0,0.1,1.3,4.2,3.7,12.4l0,0.1h-4.6c-0.1-0.1-0.3-0.8-0.7-2.2c-0.1-0.1-0.8-2.4-2.2-6.8   c-0.2,0.2-1.5,1.4-3.8,3.8c-0.1,0.1-1.9,1.8-5.3,5.2h-4.6l-0.1,0c7.4-7.5,11.6-11.6,12.4-12.5H399.3z"/>
	<polygon class="st1" points="392.2,71.3 395.9,71.3 392.5,76.1  "/>
	<path class="st1" d="M294.8,63.6h-0.2h-15.1c0,0-0.1,0-0.1,0.1l-1,2.8c0,0,0,0.1,0,0.1h6.1l-3.3,9.5c0,0,0,0.1,0,0.1h4.4   c0,0,0.1,0,0.1-0.1l3.3-9.5h4.4h0.2L294.8,63.6z"/>
	<path class="st1" d="M311.3,63.6h-15.1h-0.3l-1,3h0.3h4.4l-3.3,9.5c0,0,0,0.1,0,0.1h4.4c0,0,0.1,0,0.1-0.1l3.3-9.5h6.1   c0,0,0.1,0,0.1-0.1L311.3,63.6C311.4,63.6,311.4,63.6,311.3,63.6"/>
	<polygon class="st1" points="204,32.5 264.6,43.5 270.6,60 228.7,60  "/>
	<polygon class="st1" points="289.1,102 281.8,85 246.5,80.9 266.3,102  "/>
	<polygon class="st1" points="290.7,105.8 269.8,105.8 290.5,125 291.9,108.7  "/>
	<path class="st1" d="M365.8,28.1l-23.2,24.2c-0.9-11.4-3.1-33.8-10.8-37.6c-16.5-6.9-29.1,5.1-29.1,5.1c-11.4,2-16.1,5.3-12.6,11   c15.2-9.1,16.5,12.8,10.4,26.2l-27.7-29L180,7.5l19,19.8l68,13.3l7.3,19.4l44.9,0l45,0l7.2-19.4l68-13.3l19-19.8L365.8,28.1z    M313.1,21.2v1.6H306l4.4-3.3h9.7L313.1,21.2z"/>
	<polygon class="st1" points="434.5,32.5 373.9,43.5 367.9,60 409.7,60  "/>
	<polygon class="st1" points="349.4,102 356.6,85 392,80.9 372.2,102  "/>
	<polygon class="st1" points="347.8,105.8 368.7,105.8 348,125 346.6,108.7  "/>
</g>
</svg>