<svg enable-background="new 0 0 300 130" viewBox="0 0 300 130" xmlns="http://www.w3.org/2000/svg"><path d="m107.8 13.3v-13.3c-19.9 11.6-37.8 17.1-59.8 17.1v18.8c20.8 0 40.8-9.2 59.8-22.6zm-91.6 21.1h-16.2v38.5c0 21.2 14.1 32 28.1 32.2h.6c13.9-.2 27.6-10.7 27.6-31.7 0-20.9-14.1-31.4-28.1-31.4-4.2 0-8.4.9-12.2 2.8v-10.4zm12.1 55.8c-6.7 0-13.5-5.7-13.5-17.1 0-10.8 6.6-16.2 13.4-16.2s13.5 5.4 13.5 16.3c0 11.3-6.6 17-13.4 17zm233.1-55.5h-7.9c-4.3 0-8 3.1-8 8v61.2h15.9v-22.5c.1-1.9 1.3-3.6 3.1-3.6 2.5 0 4.6 4.2 5.3 5.6l11.2 20.5h19l-21.8-37.2 21.5-23.2h-19.1l-19.2 21.5zm-88.8.3h-16v61.1c0 4.5 3.8 8.1 8.1 8.1h7.9v-45.2c.4-2.4 2.7-2.6 7.9-2.6h1.3v-14.2h-9.2zm-49.1 5.4c-11.6 0-22.9 5.4-23.3 17.5h15.3c.7-2.8 4.4-4 8.3-4 5 0 10.3 1.9 10.3 5.3 0 11.2-36.1-.8-36.1 25.9 0 13.5 11.2 19.6 23 19.6 16.6 0 28.1-8.7 28.1-25.7v-20.7c0-11.5-13-17.9-25.6-17.9zm-2.8 51.5c-5 0-8-2.4-8-7.3 0-4.7 2.9-6.6 7.5-8 8.1-1.8 10.4-2.3 14.1-4.1v5.7c.1 8.7-5 13.7-13.6 13.7zm91.2-50.8c-13.9 0-27.6 9.8-27.6 31.3 0 22.2 13.9 32.2 27.9 32.2 11.9 0 23.9-7.3 27.2-20.2h-8.2c-6.4.2-3.7.5-11.5 5.1-2.4 1.3-4.7 1.9-6.8 1.9-6.9 0-11.8-6.5-12-14.4h39.1c.4-2.4.7-4.9.7-7.1 0-18.5-14.5-28.8-28.8-28.8zm-11.1 25.6c.3-8.4 5.9-12.6 11.5-12.6s11.2 4.1 11.6 12.6zm-105-24.6s-7.5 0-8.8 0h-.2c-15.2 0-23.7 8-23.7 22v39.9h17v-29.7c0-11 .6-16.5 10.6-16.5h5.2zm193.6 76.7-3.6 6.3v4.5h-1.4v-4.5l-3.6-6.3h1.6l2.9 5 2.9-5zm-13 5.3v5.6h-.9l-.3-1.3c-.7 1-1.7 1.4-3 1.4-2.9 0-4.5-2.4-4.5-5.5 0-2.8 1.6-5.8 4.7-5.8 2 0 3.3 1 3.9 3.1l-1.3.4c-.3-1.4-1.3-2.3-2.7-2.3-2.3 0-3.1 2-3.1 4.5s1 4.5 3.1 4.5c1.6 0 2.7-1.2 2.7-2.9v-.6h-2.7v-1.1zm-18.4-5.6h-.3c-2.5.2-4.3 2.4-4.3 5.7 0 2.8 1.2 5.6 4.4 5.6 3 0 4.5-2.6 4.5-5.7s-1.4-5.4-4.3-5.6zm-.1 10.3c-1.8 0-3.1-1.8-3.1-4.5 0-2.4 1-4.5 3.1-4.5 1.8 0 3 1.7 3 4.5-.1 2.2-1 4.5-3 4.5zm-9.1-.4v1.2h-6.4v-10.8h1.4v9.6zm-16.7-9.9h-.3c-2.7.2-4.3 2.7-4.3 5.7 0 2.9 1.3 5.6 4.5 5.6 2.9 0 4.5-2.9 4.5-5.7-.1-2.9-1.6-5.4-4.4-5.6zm-.2 10.3c-1.8 0-3.1-1.9-3.1-4.5 0-2.4 1-4.5 3.1-4.5 1.9 0 3 1.7 3 4.5 0 2.3-.9 4.5-3 4.5zm-10.6.8h-1.3l-5.6-9.4.1.7v.7 8h-1.1v-10.8h1.7l5.2 8.8-.1-.8v-.8-7.3h1v10.9zm-14.7 0h-1.4v-5.2h-5v5.2h-1.2v-10.8h1.3v4.5h5v-4.5h1.4zm-17.4-11.1c-2.8 0-4.5 2.4-4.5 5.4v.3c0 2.7 1.3 5.6 4.4 5.6 2.1 0 3.4-1.1 4-3.6l-1.1-.2c-.4 1.8-1.4 2.7-2.8 2.7-2 0-2.9-2.1-2.9-4.4 0-2.5.8-4.5 3-4.5 1.3 0 2.2.8 2.6 2.5l1.3-.3c-.6-2.2-1.9-3.5-4-3.5zm-9.7 9.9v1.2h-7v-10.8h6.9v1.2h-5.5v3.4h4.4v1h-4.4v3.9h5.6zm-15.7 1.2h-1.3v-9.6h-3.1v-1.2h7.6v1.2h-3.1zm-17.3-1.2v1.2h-7v-10.8h6.8v1.2h-5.5v3.4h4.4v1h-4.4v3.9h5.7zm-13.5-4.3v5.6h-.9l-.3-1.3c-.7 1-1.7 1.4-3 1.4-2.9 0-4.5-2.4-4.5-5.5 0-2.8 1.6-5.8 4.7-5.8 2 0 3.3 1 3.9 3.1l-1.3.3c-.3-1.4-1.3-2.3-2.7-2.3-2.3 0-3.1 2-3.1 4.5s1 4.5 3.1 4.5c1.8 0 2.7-1.4 2.7-2.9v-.6h-2.7v-1.1h4.1zm-22.6 5.5v-10.8h3.6c3.1 0 4.8 2.3 4.8 5.3s-1.7 5.5-4.4 5.5zm1.3-1.1h2.2c2.4 0 3.6-2 3.6-4.5 0-2.1-1-4.1-3.6-4.1h-2.2zm-7.3-.1v1.2h-7v-10.8h6.9v1.2h-5.5v3.4h4.4v1h-4.4v3.9h5.6zm-21.1 0v1.2h-7v-10.8h6.9v1.2h-5.5v3.4h4.4v1h-4.4v3.9h5.6zm-13.7 1.2h-1.4v-5.2h-5v5.2h-1.3v-10.8h1.3v4.5h5v-4.5h1.4zm-16.5 0h-1.3v-9.6h-3.1v-1.2h7.6v1.2h-3.1v9.6zm-18 0h-1.3l-5.6-9.4v.7.7 8h-1v-10.8h1.7l5.2 8.8v-.8c0-.3-.1-.5-.1-.8v-7.3h1.1zm-18.4-11.1h-.3c-2.7.2-4.3 2.7-4.3 5.7 0 2.7 1.3 5.6 4.5 5.6 2.9 0 4.5-2.9 4.5-5.7-.1-2.9-1.6-5.4-4.4-5.6zm-.2 10.3c-2 0-3.1-2.4-3.1-4.5 0-1.8.8-4.5 3.1-4.5 1.8 0 3.1 1.7 3.1 4.5 0 2.3-1.1 4.5-3.1 4.5z" fill="#003087"/></svg>