<svg viewBox="1064.952 3251.432926829268 7188.426 2871.1483739837395" style="max-height: 500px" xml:space="preserve" xmlns:xlink="http://www.w3.org/1999/xlink" xmlns="http://www.w3.org/2000/svg" width="7188.426" height="2871.1483739837395"> <defs> <style type="text/css"> .fil2 {fill:#727271} .fil3 {fill:#9D9E9E} .fil1 {fill:white} .fil0 {fill:#FEFEFE;fill-rule:nonzero} </style> </defs> <g id="Livello_x0020_1"> <metadata id="CorelCorpID_0Corel-Layer"/> <g id="_2868691944080"> <path d="M11631 3512c-133,0 -199,50 -199,150 0,56 15,94 45,115 31,21 93,41 186,62 94,21 160,48 199,81 39,33 58,88 58,164 0,189 -98,283 -293,283 -65,0 -146,-8 -243,-23l-48 -6 11 -85c120,16 212,24 274,24 131,0 197,-62 197,-185 0,-49 -15,-85 -43,-107 -29,-21 -83,-40 -162,-55 -103,-22 -177,-51 -220,-86 -43,-34 -65,-93 -65,-175 0,-165 99,-247 296,-247 65,0 142,6 232,19l46 7 -10 86c-123,-15 -210,-22 -261,-22zm521 1138l0 -959 99 0 0 48c67,-41 133,-61 199,-61 84,0 145,27 183,80 38,54 57,142 57,265 0,123 -22,211 -67,265 -45,53 -119,80 -222,80 -54,0 -104,-5 -149,-14l0 296 -100 0zm283 -883c-26,0 -55,4 -85,13 -31,9 -55,18 -73,27l-25 13 0 447c63,10 111,15 143,15 72,0 122,-20 151,-61 29,-41 43,-107 43,-199 0,-92 -13,-158 -39,-197 -26,-39 -64,-58 -115,-58zm942 506l38 -4 3 78c-101,14 -187,21 -259,21 -96,0 -163,-27 -203,-83 -40,-55 -60,-141 -60,-258 0,-233 93,-349 278,-349 89,0 156,25 200,75 44,50 66,128 66,236l-5 75 -438 0c0,74 13,128 40,164 26,35 73,53 139,53 65,0 133,-3 201,-8zm-36 -288c0,-82 -13,-139 -39,-173 -26,-34 -69,-51 -128,-51 -59,0 -103,18 -133,54 -29,35 -45,92 -45,170l345 0zm576 -307c29,0 79,5 149,16l32 4 -4 81c-71,-8 -123,-12 -157,-12 -75,0 -126,18 -153,54 -27,35 -41,102 -41,199 0,97 13,164 38,202 25,38 78,57 157,57l157 -12 4 83c-82,12 -144,18 -185,18 -103,0 -175,-26 -214,-79 -39,-54 -59,-143 -59,-269 0,-126 21,-215 64,-266 42,-51 113,-76 212,-76zm404 677l0 -664 99 0 0 664 -99 0zm0 -814l0 -115 99 0 0 115 -99 0zm832 351l0 340c3,32 29,52 77,58l-4 78c-70,0 -122,-17 -158,-53 -79,36 -159,53 -239,53 -61,0 -107,-17 -139,-52 -32,-34 -48,-84 -48,-148 0,-65 16,-112 49,-143 33,-30 84,-49 154,-56l209 -20 0 -57c0,-46 -10,-78 -30,-97 -19,-20 -46,-30 -79,-30 -71,0 -145,5 -221,14l-41 4 -4 -76c98,-19 184,-29 259,-29 75,0 130,17 164,52 34,34 51,88 51,162zm-409 270c0,82 34,123 101,123 60,0 120,-11 178,-31l31 -11 0 -219 -197 19c-40,4 -68,15 -86,34 -18,20 -27,48 -27,85zm687 193l0 -953 99 0 0 953 -99 0zm371 0l0 -664 100 0 0 664 -100 0zm0 -814l0 -115 100 0 0 115 -100 0zm573 226c-97,0 -145,33 -145,101 0,31 11,53 33,65 22,13 73,27 152,40 78,14 134,33 167,58 33,25 49,71 49,139 0,69 -22,119 -66,150 -44,32 -108,48 -192,48 -54,0 -119,-6 -193,-18l-40 -7 5 -86c101,15 177,22 228,22 52,0 91,-8 118,-24 27,-17 40,-44 40,-83 0,-38 -11,-64 -34,-78 -23,-14 -74,-27 -151,-39 -78,-12 -134,-31 -166,-55 -33,-23 -50,-68 -50,-132 0,-65 23,-113 69,-144 45,-31 102,-46 170,-46 54,0 122,6 204,18l37 7 -3 85c-98,-14 -176,-21 -232,-21zm826 10l-212 0 0 318c0,76 6,126 17,150 11,24 37,36 79,36l118 -8 7 82c-59,10 -105,15 -136,15 -69,0 -116,-17 -143,-51 -26,-34 -40,-98 -40,-192l0 -350 -94 0 0 -86 94 0 0 -203 98 0 0 203 212 0 0 86zm195 578l0 -664 99 0 0 664 -99 0zm0 -814l0 -115 99 0 0 115 -99 0zm-6036 2623l0 -958 98 0 0 48c67,-41 134,-62 199,-62 84,0 145,27 183,81 39,53 58,142 58,265 0,123 -23,211 -68,265 -44,53 -118,80 -222,80 -54,0 -103,-5 -149,-15l0 296 -99 0zm283 -883c-27,0 -55,5 -86,14 -31,9 -55,17 -72,26l-26 14 0 447c63,10 111,15 144,15 71,0 122,-21 150,-61 29,-41 44,-108 44,-200 0,-92 -13,-157 -40,-196 -26,-39 -64,-59 -114,-59zm941 506l38 -4 3 79c-101,14 -187,21 -259,21 -95,0 -163,-28 -203,-83 -40,-55 -60,-142 -60,-258 0,-233 93,-350 278,-350 89,0 156,25 200,75 45,50 67,129 67,236l-6 76 -438 0c0,73 14,128 40,163 27,36 73,53 139,53 66,0 133,-2 201,-8zm-36 -288c0,-81 -13,-139 -39,-172 -26,-34 -69,-51 -127,-51 -59,0 -104,18 -133,53 -30,36 -45,92 -46,170l345 0zm328 371l0 -664 98 0 0 90c77,-53 158,-88 243,-105l0 101c-37,7 -76,18 -116,33 -40,15 -71,29 -92,40l-33 17 0 488 -100 0zm810 294l0 -958 98 0 0 48c68,-41 134,-62 199,-62 85,0 146,27 184,81 38,53 57,142 57,265 0,123 -23,211 -67,265 -45,53 -119,80 -223,80 -54,0 -103,-5 -148,-15l0 296 -100 0zm283 -883c-27,0 -55,5 -86,14 -30,9 -54,17 -72,26l-25 14 0 447c62,10 110,15 143,15 72,0 122,-21 151,-61 28,-41 43,-108 43,-200 0,-92 -13,-157 -39,-196 -26,-39 -65,-59 -115,-59zm958 125l0 340c3,33 29,52 77,59l-4 78c-69,0 -122,-18 -158,-53 -79,35 -159,53 -238,53 -62,0 -108,-17 -140,-52 -32,-34 -48,-84 -48,-149 0,-64 17,-112 49,-142 33,-31 85,-50 154,-57l209 -20 0 -57c0,-45 -10,-77 -29,-97 -20,-19 -46,-29 -80,-29 -71,0 -144,5 -220,13l-42 4 -4 -75c98,-20 184,-30 259,-30 76,0 130,18 164,52 34,35 51,89 51,162zm-408 271c0,82 33,122 100,122 61,0 120,-10 178,-30l31 -11 0 -219 -197 19c-39,3 -68,15 -86,34 -18,20 -26,48 -26,85zm886 -396c-96,0 -144,34 -144,101 0,31 11,53 33,66 22,13 73,26 151,40 79,14 135,33 168,58 32,24 49,71 49,139 0,68 -22,118 -66,150 -44,32 -108,48 -192,48 -55,0 -119,-6 -194,-19l-40 -6 6 -87c101,15 177,23 228,23 51,0 91,-8 118,-25 27,-16 40,-43 40,-82 0,-38 -11,-65 -34,-78 -23,-14 -74,-27 -152,-39 -78,-13 -133,-31 -166,-55 -32,-24 -49,-68 -49,-133 0,-64 23,-112 69,-143 45,-31 102,-47 170,-47 54,0 122,7 203,19l37 7 -2 85c-98,-15 -176,-22 -233,-22zm691 0c-97,0 -145,34 -145,101 0,31 11,53 33,66 22,13 73,26 152,40 79,14 134,33 167,58 33,24 49,71 49,139 0,68 -22,118 -66,150 -43,32 -107,48 -191,48 -55,0 -120,-6 -194,-19l-40 -6 5 -87c101,15 177,23 229,23 51,0 90,-8 117,-25 27,-16 41,-43 41,-82 0,-38 -12,-65 -35,-78 -23,-14 -73,-27 -151,-39 -78,-13 -134,-31 -166,-55 -33,-24 -49,-68 -49,-133 0,-64 22,-112 68,-143 46,-31 102,-47 171,-47 54,0 121,7 203,19l37 7 -3 85c-98,-15 -175,-22 -232,-22zm482 589l0 -664 99 0 0 664 -99 0zm0 -814l0 -116 99 0 0 116 -99 0zm334 480c0,-121 22,-209 66,-263 43,-54 116,-81 219,-81 103,0 176,27 219,81 43,54 65,142 65,263 0,122 -21,210 -61,265 -41,54 -115,82 -223,82 -108,0 -183,-28 -223,-82 -41,-55 -62,-143 -62,-265zm103 -2c0,97 11,165 35,204 23,39 72,59 147,59 75,0 124,-20 147,-58 23,-39 35,-107 35,-204 0,-97 -13,-164 -39,-201 -26,-37 -73,-55 -143,-55 -69,0 -117,18 -143,55 -26,37 -39,103 -39,200zm800 336l-99 0 0 -664 98 0 0 46c72,-40 140,-60 206,-60 88,0 148,24 178,72 31,48 46,133 46,255l0 351 -98 0 0 -348c0,-92 -9,-155 -27,-189 -18,-35 -57,-52 -116,-52 -29,0 -59,5 -90,13 -32,8 -56,17 -72,25l-26 12 0 539zm1138 -83l39 -4 2 79c-101,14 -187,21 -259,21 -95,0 -163,-28 -203,-83 -40,-55 -59,-142 -59,-258 0,-233 92,-350 277,-350 89,0 156,25 201,75 44,50 66,129 66,236l-5 76 -439 0c0,73 14,128 40,163 27,36 73,53 139,53 66,0 133,-2 201,-8zm-36 -288c0,-81 -13,-139 -39,-172 -26,-34 -68,-51 -127,-51 -59,0 -103,18 -133,53 -30,36 -45,92 -46,170l345 0z" class="fil0"/> <g> <rect height="9355" width="9355" class="fil1"/> <g> <g> <path d="M5682 3917c95,-9 346,-7 433,9 118,22 218,72 298,140 341,286 330,989 6,1267 -194,166 -439,154 -737,145l0 -1561zm555 2059c56,6 205,-27 262,-43 605,-169 812,-683 816,-1319 4,-561 -228,-949 -715,-1120 -116,-40 -402,-107 -515,-91 -70,6 -185,-2 -261,-2 -245,0 -549,-7 -781,1 0,104 -7,2544 4,2578 52,8 782,2 901,2 49,0 99,1 148,0 38,-1 111,-9 141,-6z" class="fil2"/> <path d="M4901 5496l-1075 -3 2 -577c56,-13 928,6 982,-5l-2 -493c-66,-19 -892,16 -981,-6 -5,-45 -6,-479 2,-506l1033 -2 -1 -513 -1674 2 2 2590c137,7 291,1 430,1 147,0 1235,8 1280,-3l2 -485z" class="fil2"/> <path d="M3005 5399c-34,10 -64,26 -96,36 -34,11 -63,16 -100,24 -71,15 -165,18 -239,11 -438,-39 -744,-286 -746,-780 -2,-493 301,-754 737,-785 87,-7 161,-5 243,10 85,15 178,54 203,57l-3 -517c-69,-32 -252,-57 -337,-64 -113,-11 -278,-2 -385,14 -237,37 -426,97 -598,208 -336,216 -528,574 -527,1077 2,512 209,858 536,1070 267,174 650,252 980,224 55,-5 324,-33 332,-77l2 -52c-1,-125 5,-358 -2,-456z" class="fil2"/> <path d="M7486 3396c-10,44 -3,1215 -3,1294 0,429 -10,870 0,1297l633 -3 -3 -2590 -627 2z" class="fil2"/> </g> <g> <path d="M5677 3896c94,-8 346,-6 432,10 118,22 218,72 299,139 340,287 329,990 5,1268 -194,166 -439,154 -737,145l1 -1562zm554 2059c56,7 206,-26 262,-42 605,-170 812,-683 816,-1320 4,-560 -228,-948 -715,-1119 -115,-41 -402,-108 -515,-92 -69,6 -185,-1 -261,-1 -245,0 -549,-7 -781,1 0,104 -7,2543 4,2578 52,8 782,2 901,2 50,0 99,0 148,0 38,-1 112,-9 141,-7z" class="fil3"/> <path d="M4895 5476l-1075 -4 2 -576c57,-13 928,6 982,-6l-2 -492c-66,-20 -891,15 -980,-7 -6,-44 -6,-479 1,-505l1033 -3 0 -513 -1675 2 2 2591c137,7 291,1 431,1 146,0 1234,7 1279,-3l2 -485z" class="fil3"/> <path d="M3000 5379c-34,10 -65,25 -97,35 -34,11 -62,17 -100,25 -71,14 -164,17 -239,11 -438,-39 -744,-287 -746,-780 -1,-493 301,-754 737,-786 87,-6 161,-4 244,11 85,15 177,54 202,56l-3 -516c-68,-32 -252,-57 -336,-65 -114,-10 -279,-2 -386,15 -236,37 -426,97 -597,207 -337,217 -529,574 -528,1078 2,512 209,857 536,1070 268,173 650,252 980,224 55,-5 324,-33 332,-77l2 -52c-1,-125 6,-358 -1,-456z" class="fil3"/> <path d="M7480 3376c-10,44 -3,1215 -3,1294 0,429 -10,870 1,1297l632 -3 -3 -2590 -627 2z" class="fil3"/> </g> </g> </g> </g> </g> </svg>