<svg width="267" height="24" xmlns="http://www.w3.org/2000/svg" xmlns:xlink="http://www.w3.org/1999/xlink"><defs><path id="a" d="M0 24h267V0H0z"/></defs><g fill="none" fill-rule="evenodd"><path d="M18 9.82c-1.349-1.29-3.03-2.346-4.929-2.346-2.536 0-4.59 2.023-4.59 4.524 0 2.551 2.189 4.534 4.706 4.534 1.932 0 3.464-.841 4.813-2.154l-.22 8.717c-1.365.647-4.509.905-6.003.905C5.177 24 0 18.868 0 12.24 0 5.45 5.33 0 12.116 0c1.909 0 3.87.347 5.663.951L18 9.821z" fill="#000"/><mask id="b" fill="#fff"><use xlink:href="#a"/></mask><path fill="#000" mask="url(#b)" d="M21 23h8V0h-8zM31 0h17v7.455l-4.456-.197V23h-8.1V7.258L31 7.455zM48 0h17v7.455l-4.447-.197V23h-8.078V7.258L48 7.455zM68 0h15.757v6.29h-7.198v2.185h6.56v6h-6.56v2.245H84V23H68zM95.943 10.169h.576c1.31 0 2.662-.192 2.662-1.926 0-1.771-1.222-1.953-2.617-1.953h-.62v3.879zM88 0h9.81c5.017 0 9.309 2.175 9.309 7.984 0 3.46-1.33 4.93-4.327 6.002v.168c.406.327.919.678 1.355 1.37L109 23h-9.35l-3.557-7.388h-.15V23H88V0zM110 23h8V0h-8zM130.266 12.2c0 2.668 1.734 4.448 4.259 4.448 2.483 0 4.217-1.78 4.217-4.447 0-2.484-1.63-4.54-4.217-4.54-2.636 0-4.259 2.056-4.259 4.54M147 12.085C147 19.555 141.414 24 134.525 24 127.595 24 122 19.555 122 12.085 122 4.765 127.626 0 134.525 0 141.369 0 147 4.765 147 12.085M173 9.941c-.023 3.782-.023 6.986-2.713 9.954-2.423 2.668-6.174 4.105-9.711 4.105C153.62 24 148 19.627 148 12.152 148 4.57 153.472 0 160.64 0c3.962 0 9.423 2.034 11.225 5.974l-7.791 2.902c-.628-1.15-1.78-1.792-3.132-1.792-2.934 0-4.593 2.589-4.593 5.408 0 2.552 1.57 4.974 4.256 4.974 1.308 0 2.994-.632 3.365-2.033h-3.724V9.94H173zM175 23h8V0h-8zM209 0v13.39c0 6.602-4.157 9.61-10.502 9.61C192.15 23 188 19.992 188 13.39V0h8.233v12.608c0 1.795.085 3.346 2.265 3.346 2.182 0 2.273-1.55 2.273-3.346V0H209zM214 0h7.594v15.612H228V23h-14zM230 23h8V0h-8zM250.253 12.2c0 2.668 1.75 4.448 4.275 4.448 2.477 0 4.226-1.78 4.226-4.447 0-2.484-1.653-4.54-4.226-4.54-2.654 0-4.275 2.056-4.275 4.54M267 12.085C267 19.555 261.412 24 254.528 24 247.58 24 242 19.555 242 12.085 242 4.765 247.626 0 254.528 0 261.37 0 267 4.765 267 12.085"/></g></svg>