<?xml version="1.0" encoding="UTF-8"?>
<svg width="135px" height="16px" viewBox="0 0 135 16" version="1.1" xmlns="http://www.w3.org/2000/svg" xmlns:xlink="http://www.w3.org/1999/xlink">
    <title>80A90F03-F90F-4A16-8ADC-92EBF229519E@1x</title>
    <defs>
        <path d="M3.99690909,1.83054545 C2.80681818,2.44472727 1.87081818,3.28690909 1.19245455,4.35818182 L1.19245455,4.35818182 C0.516454545,5.42945455 0.169,6.66109091 0.156,8.05309091 L0.156,8.05309091 C0.165454545,9.40254545 0.494,10.5981818 1.14636364,11.6421818 L1.14636364,11.6421818 C1.79636364,12.6861818 2.717,13.5065455 3.90709091,14.1021818 L3.90709091,14.1021818 C5.09363636,14.7 6.49881818,15.0065455 8.11790909,15.0163636 L8.11790909,15.0163636 C9.01490909,15.024 9.84927273,14.952 10.6150909,14.8003636 L10.6150909,14.8003636 C11.3809091,14.6487273 12.0758182,14.3738182 12.6974545,13.9767273 L12.6974545,13.9767273 L12.6974545,11.1327273 C11.9056364,11.6901818 11.1421818,12.06 10.4082727,12.2410909 L10.4082727,12.2410909 C9.67318182,12.4221818 8.88727273,12.5050909 8.04818182,12.492 L8.04818182,12.492 C7.16654545,12.48 6.38181818,12.2629091 5.69518182,11.844 L5.69518182,11.844 C5.00972727,11.4229091 4.46963636,10.8676364 4.07372727,10.1738182 L4.07372727,10.1738182 C3.679,9.47781818 3.47809091,8.71527273 3.47218182,7.88181818 L3.47218182,7.88181818 C3.50172727,6.51381818 3.96263636,5.424 4.85609091,4.60909091 L4.85609091,4.60909091 C5.74954545,3.79854545 6.89,3.38072727 8.27981818,3.36109091 L8.27981818,3.36109091 C9.13545455,3.35781818 9.90836364,3.45927273 10.5914545,3.66327273 L10.5914545,3.66327273 C11.2769091,3.86836364 11.9789091,4.19127273 12.6974545,4.63418182 L12.6974545,4.63418182 L12.6974545,1.76836364 C11.5499091,1.19018182 10.0241818,0.902181818 8.11790909,0.896727273 L8.11790909,0.896727273 C6.56263636,0.909818182 5.18936364,1.22072727 3.99690909,1.83054545 L3.99690909,1.83054545 Z" id="path-1"/>
        <path d="M2.62628571,2.832 C1.35771429,4.09418182 0.706285714,5.80581818 0.678857143,7.968 L0.678857143,7.968 C0.686857143,9.39163636 0.985142857,10.632 1.57485714,11.6890909 L1.57485714,11.6890909 C2.16342857,12.744 2.98971429,13.5643636 4.05371429,14.1490909 L4.05371429,14.1490909 C5.11771429,14.7338182 6.36685714,15.0294545 7.8,15.0381818 L7.8,15.0381818 C9.232,15.0294545 10.48,14.7338182 11.5428571,14.1490909 L11.5428571,14.1490909 C12.608,13.5643636 13.4342857,12.744 14.0228571,11.6890909 L14.0228571,11.6890909 C14.6114286,10.632 14.912,9.39163636 14.92,7.968 L14.92,7.968 C14.8914286,5.80581818 14.2354286,4.09418182 12.9611429,2.832 L12.9611429,2.832 C11.6857143,1.57090909 9.96457143,0.925090909 7.8,0.897818182 L7.8,0.897818182 C5.624,0.925090909 3.89942857,1.57090909 2.62628571,2.832 L2.62628571,2.832 Z M4.90628571,11.3356364 C4.23085714,10.5021818 3.89028571,9.37854545 3.88228571,7.968 L3.88228571,7.968 C3.89028571,6.55636364 4.23085714,5.43381818 4.90628571,4.59927273 L4.90628571,4.59927273 C5.57942857,3.76472727 6.54514286,3.33818182 7.8,3.31745455 L7.8,3.31745455 C9.04114286,3.33818182 10.0057143,3.76472727 10.6822857,4.59927273 L10.6822857,4.59927273 C11.3622857,5.43381818 11.7062857,6.55636364 11.7154286,7.968 L11.7154286,7.968 C11.7062857,9.37854545 11.3622857,10.5021818 10.6822857,11.3356364 L10.6822857,11.3356364 C10.0057143,12.1712727 9.04114286,12.5989091 7.8,12.6185455 L7.8,12.6185455 C6.54514286,12.5989091 5.57942857,12.1712727 4.90628571,11.3356364 L4.90628571,11.3356364 Z" id="path-3"/>
        <path d="M1.98666667,2.05418182 C1.04888889,2.784 0.565555556,3.79309091 0.537777778,5.07927273 L0.537777778,5.07927273 C0.527777778,5.83527273 0.741111111,6.51272727 1.17,7.11381818 L1.17,7.11381818 C1.6,7.71927273 2.29666667,8.244 3.26333333,8.68909091 L3.26333333,8.68909091 L5.10222222,9.53890909 C5.54888889,9.732 5.89,9.95018182 6.12555556,10.1945455 L6.12555556,10.1945455 C6.36333333,10.4389091 6.48333333,10.7574545 6.48666667,11.1523636 L6.48666667,11.1523636 C6.47333333,11.5821818 6.27777778,11.952 5.90333333,12.2596364 L5.90333333,12.2596364 C5.52666667,12.5694545 5.05,12.7309091 4.47444444,12.7450909 L4.47444444,12.7450909 C3.62,12.7396364 2.84555556,12.6294545 2.15444444,12.4189091 L2.15444444,12.4189091 C1.46222222,12.2083636 0.851111111,11.9334545 0.321111111,11.5996364 L0.321111111,11.5996364 L0.602222222,14.5287273 C1.24333333,14.7469091 1.90555556,14.8865455 2.58777778,14.9509091 L2.58777778,14.9509091 C3.26666667,15.0163636 3.94,15.0447273 4.60444444,15.0403636 L4.60444444,15.0403636 C5.53,15.0338182 6.36222222,14.8592727 7.09777778,14.5112727 L7.09777778,14.5112727 C7.83444444,14.1676364 8.41888889,13.6821818 8.85222222,13.0603636 L8.85222222,13.0603636 C9.28555556,12.4385455 9.50444444,11.7109091 9.51444444,10.8774545 L9.51444444,10.8774545 C9.49333333,10.0134545 9.24,9.29236364 8.76222222,8.70545455 L8.76222222,8.70545455 C8.28,8.12072727 7.71111111,7.68218182 7.05,7.39527273 L7.05,7.39527273 L4.92888889,6.43854545 C4.50888889,6.25854545 4.16333333,6.02945455 3.89555556,5.74909091 L3.89555556,5.74909091 C3.62777778,5.46763636 3.48777778,5.13381818 3.48,4.74109091 L3.48,4.74109091 C3.49111111,4.26763636 3.69444444,3.89563636 4.09222222,3.62618182 L4.09222222,3.62618182 C4.48666667,3.35454545 5.00333333,3.21709091 5.64222222,3.21272727 L5.64222222,3.21272727 C6.19,3.19745455 6.72888889,3.27490909 7.25888889,3.44290909 L7.25888889,3.44290909 C7.79222222,3.61090909 8.40555556,3.95890909 9.10444444,4.48581818 L9.10444444,4.48581818 L9.10444444,1.72581818 C8.70444444,1.52509091 8.18777778,1.34836364 7.55111111,1.19018182 L7.55111111,1.19018182 C6.91555556,1.032 6.27888889,0.948 5.64222222,0.940363636 L5.64222222,0.940363636 C4.14333333,0.952363636 2.92333333,1.32327273 1.98666667,2.05418182 L1.98666667,2.05418182 Z" id="path-5"/>
        <polygon id="path-7" points="0.916666667 0.0407517483 0.916666667 13.8027273 8.79 13.8027273 9.65666667 11.4016783 3.88 11.4016783 3.88 7.99395105 7.64444444 7.99395105 8.42333333 5.67881119 3.88 5.67881119 3.88 2.37791958 8.55333333 2.37791958 9.35222222 0.0407517483"/>
        <polygon id="path-9" points="11.4403846 0.0407517483 11.4403846 7.97192308 4.85769231 0.0407517483 0.946153846 0.0407517483 2.45307692 1.82061189 2.45307692 13.8027273 5.19461538 13.8027273 5.19461538 5.09947552 12.4961538 13.8027273 14.2038462 13.8027273 14.2038462 0.0407517483"/>
        <polygon id="path-11" points="0.416 0.0407517483 0.416 2.50678322 4.35145455 2.50678322 4.35145455 13.8027273 7.52818182 13.8027273 7.52818182 2.50678322 11.2083636 2.50678322 12.0604545 0.0407517483"/>
        <polygon id="path-13" points="0.203 0.0407517483 2.872 0.0407517483 2.872 13.8027273 0.203 13.8027273"/>
        <polygon id="path-15" points="10.4919231 0 10.4919231 7.93117133 3.91038462 0 0 0 1.50576923 1.77986014 1.50576923 13.7619755 4.24615385 13.7619755 4.24615385 5.05872378 11.5488462 13.7619755 13.2576923 13.7619755 13.2576923 0"/>
        <path d="M2.73142857,2.832 C1.45942857,4.09418182 0.809142857,5.80581818 0.780571429,7.968 L0.780571429,7.968 C0.789714286,9.39163636 1.088,10.632 1.67885714,11.6890909 L1.67885714,11.6890909 C2.26628571,12.744 3.09257143,13.5643636 4.15657143,14.1490909 L4.15657143,14.1490909 C5.22057143,14.7338182 6.46971429,15.0294545 7.90171429,15.0381818 L7.90171429,15.0381818 C9.33485714,15.0294545 10.5817143,14.7338182 11.6457143,14.1490909 L11.6457143,14.1490909 C12.7108571,13.5643636 13.5371429,12.744 14.1257143,11.6890909 L14.1257143,11.6890909 C14.7154286,10.632 15.0137143,9.39163636 15.0228571,7.968 L15.0228571,7.968 C14.9931429,5.80581818 14.3394286,4.09418182 13.064,2.832 L13.064,2.832 C11.7885714,1.57090909 10.0662857,0.925090909 7.90171429,0.897818182 L7.90171429,0.897818182 C5.72571429,0.925090909 4.00342857,1.57090909 2.73142857,2.832 L2.73142857,2.832 Z M5.01028571,11.3356364 C4.33371429,10.5021818 3.99314286,9.37854545 3.98514286,7.968 L3.98514286,7.968 C3.99314286,6.55636364 4.33371429,5.43381818 5.01028571,4.59927273 L5.01028571,4.59927273 C5.68228571,3.76472727 6.648,3.33818182 7.90171429,3.31745455 L7.90171429,3.31745455 C9.14514286,3.33818182 10.1062857,3.76472727 10.7851429,4.59927273 L10.7851429,4.59927273 C11.4651429,5.43381818 11.8091429,6.55636364 11.8182857,7.968 L11.8182857,7.968 C11.8091429,9.37854545 11.4651429,10.5021818 10.7851429,11.3356364 L10.7851429,11.3356364 C10.1062857,12.1712727 9.14514286,12.5989091 7.90171429,12.6185455 L7.90171429,12.6185455 C6.648,12.5989091 5.68228571,12.1712727 5.01028571,11.3356364 L5.01028571,11.3356364 Z" id="path-17"/>
        <path d="M0.21,1.40031818 C0.21,1.96827273 0.8075,2.42645455 1.545,2.42645455 L1.545,2.42645455 C2.2775,2.42645455 2.875,1.96827273 2.875,1.40031818 L2.875,1.40031818 C2.875,0.836181818 2.2775,0.377045455 1.545,0.377045455 L1.545,0.377045455 C0.8075,0.377045455 0.21,0.836181818 0.21,1.40031818 L0.21,1.40031818 Z M0.4175,1.40031818 C0.4175,0.923045455 0.92125,0.5355 1.545,0.5355 L1.545,0.5355 C2.1625,0.5355 2.66625,0.923045455 2.66625,1.40031818 L2.66625,1.40031818 C2.66625,1.8795 2.1625,2.26609091 1.545,2.26609091 L1.545,2.26609091 C0.92125,2.26609091 0.4175,1.8795 0.4175,1.40031818 L0.4175,1.40031818 Z M0.98625,0.814227273 L0.98625,1.99309091 L1.25125,1.99309091 L1.25125,1.50436364 L1.415,1.50436364 L1.885,1.99309091 L2.2125,1.99309091 L1.69875,1.49004545 C1.95875,1.46904545 2.1125,1.34018182 2.1125,1.14545455 L2.1125,1.14545455 C2.1125,0.914454545 1.93625,0.814227273 1.5375,0.814227273 L1.5375,0.814227273 L0.98625,0.814227273 Z M1.25125,0.971727273 L1.4975,0.971727273 C1.62625,0.971727273 1.7025,0.980318182 1.7525,0.9975 L1.7525,0.9975 C1.81,1.02136364 1.84875,1.08340909 1.84875,1.15118182 L1.84875,1.15118182 C1.84875,1.29531818 1.73625,1.36309091 1.4975,1.36309091 L1.4975,1.36309091 L1.25125,1.36309091 L1.25125,0.971727273 Z" id="path-19"/>
    </defs>
    <g id="Page-1" stroke="none" stroke-width="1" fill="none" fill-rule="evenodd">
        <g id="Menú-negro-abierto" transform="translate(-865.000000, -23.000000)">
            <g id="MENU-/-DESKTOP-/-MEGAMENU-/-New" transform="translate(-1.000000, -50.000000)">
                <g id="COSENTINO_LOGO" transform="translate(866.000000, 73.000000)">
                    <g id="Group-6">
                        <mask id="mask-2" fill="white">
                            <use xlink:href="#path-1"/>
                        </mask>
                        <g id="Clip-4"/>
                        <polygon id="Fill-3" fill="#000000" mask="url(#mask-2)" points="-74.4545455 56.7272727 1136.12909 56.7272727 1136.12909 -76.4738182 -74.4545455 -76.4738182"/>
                        <polygon id="Fill-5" fill="#000000" mask="url(#mask-2)" points="-4.68590909 19.488 17.5393636 19.488 17.5393636 -3.57272727 -4.68590909 -3.57272727"/>
                    </g>
                    <g id="color/white" mask="url(#mask-2)" fill="#000000">
                    </g>
                    <g id="Group-12" transform="translate(15.000000, 0.000000)">
                        <mask id="mask-4" fill="white">
                            <use xlink:href="#path-3"/>
                        </mask>
                        <g id="Clip-10"/>
                        <polygon id="Fill-9" fill="#000000" mask="url(#mask-4)" points="-86.8571429 56.7272727 1083.81714 56.7272727 1083.81714 -76.4738182 -86.8571429 -76.4738182"/>
                        <polygon id="Fill-11" fill="#000000" mask="url(#mask-4)" points="-4.00457143 19.5076364 19.6022857 19.5076364 19.6022857 -3.57163636 -4.00457143 -3.57163636"/>
                    </g>
                    <g id="Group-18" transform="translate(34.000000, 0.000000)">
                        <mask id="mask-6" fill="white">
                            <use xlink:href="#path-5"/>
                        </mask>
                        <g id="Clip-16"/>
                        <polygon id="Fill-15" fill="#000000" mask="url(#mask-6)" points="-102.222222 56.7272727 1035.93333 56.7272727 1035.93333 -76.4738182 -102.222222 -76.4738182"/>
                        <polygon id="Fill-17" fill="#000000" mask="url(#mask-6)" points="-4.23111111 19.5098182 14.0677778 19.5098182 14.0677778 -3.53018182 -4.23111111 -3.53018182"/>
                    </g>
                    <g id="Group-24" transform="translate(47.000000, 0.954545)">
                        <mask id="mask-8" fill="white">
                            <use xlink:href="#path-7"/>
                        </mask>
                        <g id="Clip-22"/>
                        <polygon id="Fill-21" fill="#000000" mask="url(#mask-8)" points="-115.555556 56.1713287 1022.6 56.1713287 1022.6 -78.310542 -115.555556 -78.310542"/>
                        <polygon id="Fill-23" fill="#000000" mask="url(#mask-8)" points="-3.63555556 18.3162587 14.2088889 18.3162587 14.2088889 -4.47167832 -3.63555556 -4.47167832"/>
                    </g>
                    <g id="Group-30" transform="translate(60.000000, 0.954545)">
                        <mask id="mask-10" fill="white">
                            <use xlink:href="#path-9"/>
                        </mask>
                        <g id="Clip-28"/>
                        <polygon id="Fill-27" fill="#000000" mask="url(#mask-10)" points="-132.692308 56.1713287 1049.23846 56.1713287 1049.23846 -78.310542 -132.692308 -78.310542"/>
                        <polygon id="Fill-29" fill="#000000" mask="url(#mask-10)" points="-3.78115385 18.3162587 18.9311538 18.3162587 18.9311538 -4.47167832 -3.78115385 -4.47167832"/>
                    </g>
                    <g id="Group-36" transform="translate(77.000000, 0.954545)">
                        <mask id="mask-12" fill="white">
                            <use xlink:href="#path-11"/>
                        </mask>
                        <g id="Clip-34"/>
                        <polygon id="Fill-33" fill="#000000" mask="url(#mask-12)" points="-153.636364 56.1713287 1056.94727 56.1713287 1056.94727 -78.310542 -153.636364 -78.310542"/>
                        <polygon id="Fill-35" fill="#000000" mask="url(#mask-12)" points="-4.42590909 18.3162587 16.9035455 18.3162587 16.9035455 -4.47167832 -4.42590909 -4.47167832"/>
                    </g>
                    <g id="Group-42" transform="translate(92.000000, 0.954545)">
                        <mask id="mask-14" fill="white">
                            <use xlink:href="#path-13"/>
                        </mask>
                        <g id="Clip-40"/>
                        <polygon id="Fill-39" fill="#000000" mask="url(#mask-14)" points="-143 56.1713287 881.34 56.1713287 881.34 -78.310542 -143 -78.310542"/>
                        <polygon id="Fill-41" fill="#000000" mask="url(#mask-14)" points="-3.894 18.3162587 6.968 18.3162587 6.968 -4.47167832 -3.894 -4.47167832"/>
                    </g>
                    <g id="Group-48" transform="translate(99.803077, 0.995297)">
                        <mask id="mask-16" fill="white">
                            <use xlink:href="#path-15"/>
                        </mask>
                        <g id="Clip-46"/>
                        <polygon id="Fill-45" fill="#000000" mask="url(#mask-16)" points="-172.726154 56.1305769 1009.20462 56.1305769 1009.20462 -78.3512937 -172.726154 -78.3512937"/>
                        <polygon id="Fill-47" fill="#000000" mask="url(#mask-16)" points="-4.72846154 18.275507 17.985 18.275507 17.985 -4.51243007 -4.72846154 -4.51243007"/>
                    </g>
                    <g id="Group-54" transform="translate(116.000000, 0.000000)">
                        <mask id="mask-18" fill="white">
                            <use xlink:href="#path-17"/>
                        </mask>
                        <g id="Clip-52"/>
                        <polygon id="Fill-51" fill="#000000" mask="url(#mask-18)" points="-187.428571 56.7272727 983.245714 56.7272727 983.245714 -76.4738182 -187.428571 -76.4738182"/>
                        <polygon id="Fill-53" fill="#000000" mask="url(#mask-18)" points="-3.90171429 19.5076364 19.7051429 19.5076364 19.7051429 -3.57163636 -3.90171429 -3.57163636"/>
                    </g>
                    <g id="Group-60" transform="translate(132.000000, 0.954545)">
                        <mask id="mask-20" fill="white">
                            <use xlink:href="#path-19"/>
                        </mask>
                        <g id="Clip-58"/>
                        <polygon id="Fill-57" fill="#000000" mask="url(#mask-20)" points="-222.25 48.6818182 1058.175 48.6818182 1058.175 -67.8691364 -222.25 -67.8691364"/>
                        <polygon id="Fill-59" fill="#000000" mask="url(#mask-20)" points="-4.91125 6.33818182 7.9975 6.33818182 7.9975 -3.53468182 -4.91125 -3.53468182"/>
                    </g>
                </g>
            </g>
        </g>
    </g>
</svg>