<svg class="header-logo" xmlns="http://www.w3.org/2000/svg" viewBox="0 0 167 255"><path d="M9.9087 202.7423L.3264 220.3272h4.3712l1.3589-2.7654h5.2112l.2474 2.7654h4.1732l-2.5929-17.5849H9.9087zm.4942 6.2979l.543 5.1864H7.7351l2.6678-5.1864zm15.4529 2.0993c-.1739-.1725-.4942-.7403-1.236-.7403-.8888 0-1.8023.7162-2.0491 1.9748l-1.5803 7.9532h-3.8535l2.643-13.2866h3.7051l-.2227 1.1356c.6915-.7898 1.9006-1.2841 3.1613-1.2841 1.2593 0 2.0745.3946 2.7908 1.2607l-3.3586 2.9867zm10.5643.0998c-.396-.5205-.8153-.8662-1.4078-.8662-.4943 0-.963.1987-1.335.5939-.543.5678-.9623 1.5068-1.1843 2.7173-.0983.5183-.1725 1.0125-.1725 1.5541 0 .9652.2708 1.755 1.3335 1.755.6915 0 1.2593-.3217 1.8271-.8902l2.1247 2.7915c-1.0627.9383-2.619 1.5803-4.3725 1.5803-2.1969 0-4.7904-1.3321-4.7904-4.7169 0-.6915.0735-1.407.1973-2.0738 1.086-5.9288 4.4206-6.7921 6.7426-6.7921 1.9755 0 3.1853.84 3.9518 1.7783l-2.9145 2.5688zm15.0832.8386l-1.6553 8.2494h-3.8521l1.6051-8.0274c.0502-.222.0749-.4681.0749-.666 0-.8888-.618-1.2607-1.1122-1.2607-.8895 0-1.7535.4468-2.0491 1.9267l-1.6065 8.0274H39.056l3.5064-17.5848h3.8542l-1.0387 5.1616c.8153-.642 1.8773-1.0126 2.9634-1.0126 1.3844 0 3.3352.8888 3.3352 3.6563 0 .5416-.0749 1.0861-.1732 1.5301zm4.9809 8.2493h-3.8521l2.544-12.769h3.8521l-2.544 12.769zm2.9145-14.596h-3.8528l.5925-2.9895h3.8528l-.5925 2.9895zm8.0475 4.8158H65.47l-1.1108 5.6304c-.0248.1004-.0248.2723-.0248.2963 0 .4454.297.618.7665.618h1.2098l-.6434 3.2348h-1.8024c-2.1975 0-3.4575-1.3583-3.4575-3.0863 0-.495.0487-.84.0989-1.0861l1.1123-5.6071h-1.1625l.5933-2.9895h1.1603l.7664-3.8033h3.8522l-.7651 3.8033h1.9756l-.5926 2.9895zm12.418 4.3712h-7.6569c-.0233.2475-.0488.3705-.0488.543 0 1.0621.6435 1.7783 1.9515 1.7783 1.1108 0 2.0258-.444 2.8396-1.2338l1.9268 2.5186c-1.3328 1.2847-3.2836 1.9508-5.2359 1.9508-2.148 0-5.1375-.9885-5.1375-4.7183 0-4.7155 2.3474-8.8653 6.8423-8.8653 2.8148 0 4.9643 1.7783 4.9643 4.8399 0 1.0126-.1987 2.1481-.4454 3.1868zm-4.7416-4.8653c-1.0126 0-1.9261.6179-2.4203 2.3206h3.8775c.0488-.1966.0736-.4936.0736-.6421 0-1.0118-.5176-1.6785-1.5308-1.6785zm14.5636 1.1864c-.396-.5205-.8153-.8662-1.4078-.8662-.4943 0-.9631.1987-1.3343.5939-.543.5678-.963 1.5068-1.185 2.7173-.0983.5183-.1725 1.0125-.1725 1.5541 0 .9652.2708 1.755 1.3335 1.755.6915 0 1.2593-.3217 1.8271-.8902l2.1247 2.7915c-1.0627.9383-2.619 1.5803-4.3725 1.5803-2.1969 0-4.7904-1.3321-4.7904-4.7169 0-.6915.0735-1.407.1973-2.0738 1.086-5.9288 4.4206-6.7921 6.7426-6.7921 1.9755 0 3.1853.84 3.9518 1.7783l-2.9145 2.5688zm10.6868-.6923h-1.9749l-1.1122 5.6304c-.0248.1004-.0248.2723-.0248.2963 0 .4454.297.618.7665.618h1.2084l-.642 3.2348h-1.8024c-2.1975 0-3.4575-1.3583-3.4575-3.0863 0-.495.0502-.84.0997-1.0861l1.1101-5.6071h-1.1596l.5918-2.9895h1.1603l.7665-3.8033h3.8535l-.7665 3.8033h1.9756l-.5925 2.9895zm11.1829 9.7799h-3.6796l.222-1.161c-.8392.84-2.0992 1.3095-3.2588 1.3095-1.3095 0-3.2618-.8888-3.2618-3.6555 0-.5423.0736-1.0861.1733-1.5308l1.6552-8.2494h3.8529l-1.6058 8.0273c-.0502.2221-.0735.4681-.0735.6668 0 .8874.6172 1.2593 1.1115 1.2593.8888 0 1.7528-.4454 2.0498-1.9261l1.6043-8.0273h3.8528l-2.6423 13.2872zm11.6498-9.1874c-.1725-.1725-.4943-.7403-1.2346-.7403-.8902 0-1.8023.7162-2.0512 1.9748l-1.5796 7.9532h-3.8521l2.6416-13.2866h3.7051l-.222 1.1356c.6915-.7898 1.8999-1.2841 3.1606-1.2841 1.2593 0 2.0752.3946 2.7908 1.2607l-3.3586 2.9867zm13.8745 3.7787h-7.6561c-.0255.2475-.0495.3705-.0495.543 0 1.0621.6434 1.7783 1.9515 1.7783 1.1108 0 2.0243-.444 2.8396-1.2338l1.9261 2.5186c-1.3322 1.2847-3.283 1.9508-5.2366 1.9508-2.1481 0-5.1362-.9885-5.1362-4.7183 0-4.7155 2.3475-8.8653 6.8416-8.8653 2.8149 0 4.9644 1.7783 4.9644 4.8399 0 1.0126-.1987 2.1481-.4448 3.1868zm-4.7416-4.8653c-1.0125 0-1.9274.6179-2.4217 2.3206h3.8776c.0502-.1966.0742-.4936.0742-.6421 0-1.0118-.5183-1.6785-1.5301-1.6785zm24.0693 6.447l2.5427 3.8266h-4.6419l-.84-1.2607c-1.1844.8916-2.5929 1.4092-4.3712 1.4092-2.223 0-4.9141-.9383-4.9141-4.4934 0-3.0631 1.8023-4.4722 3.7531-5.6566-.7403-1.1857-1.0372-1.9275-1.0372-2.9633 0-1.7048.9382-4.7678 5.4338-4.7678 4.1484 0 4.3711 2.9393 4.3711 3.9518 0 1.5061-1.0861 2.7668-2.3468 3.6054l-1.4332.939 1.5563 2.4203c.6434-.6166 1.0874-1.6051 1.3342-2.4451h3.6301c-.5416 2.3213-1.5548 4.0254-3.0369 5.4346zm-6.8416-3.5078c-.9135.5183-1.5562 1.383-1.5562 2.3955 0 .9638.6667 1.6539 1.605 1.6539.84 0 1.5803-.4681 2.0265-.8379l-2.0753-3.2115zm2.5681-7.1867c-1.1348 0-1.3569.9885-1.3569 1.4806 0 .4943.3211 1.0147.5183 1.2841.2454-.1471.6661-.4179.6661-.4179.6668-.42 1.062-.8662 1.062-1.4332 0-.519-.2956-.9136-.8895-.9136zM16.2068 241.1537c-.8648 4.3959-1.2346 5.5074-2.7166 6.9901-1.1858 1.1843-2.8651 1.8023-5.0138 1.8023H2.006l3.5311-17.5855h5.904c3.2356 0 5.3334 1.7783 5.3334 4.9898 0 .7162-.1223 1.4806-.5677 3.8033zm-5.4586-5.1871H8.9218l-2.0752 10.3735h1.8037c.9121 0 1.5548-.2963 2.0491-.7905.5183-.5176.7905-1.1858 1.4078-4.3959.3945-2.0257.5182-2.9881.5182-3.4088 0-1.3328-.8887-1.7783-1.8772-1.7783zm18.1689 8.5706h-7.6569c-.0233.2475-.0488.3698-.0488.543 0 1.062.642 1.779 1.9515 1.779 1.1108 0 2.0258-.4447 2.8396-1.2345l1.9268 2.5185c-1.3329 1.2841-3.2837 1.9501-5.2359 1.9501-2.1495 0-5.1376-.9877-5.1376-4.7175 0-4.7155 2.3475-8.866 6.8431-8.866 2.8141 0 4.9622 1.779 4.9622 4.8406 0 1.0125-.1966 2.1481-.444 3.1868zm-4.7417-4.8654c-1.0125 0-1.926.618-2.4203 2.3199h3.8776c.0488-.1958.0735-.4928.0735-.6413 0-1.0118-.5175-1.6786-1.5308-1.6786zm14.9349.8885c-.4695-.5933-1.5068-.8888-2.2231-.8888-1.2593 0-1.7776.4709-1.7776 1.0125 0 .3705.2468.6187.8139.7163l1.68.2955c2.3715.4207 3.2101 1.8038 3.2101 3.558 0 1.5061-.6413 2.5935-1.4813 3.3826-1.1122 1.0627-2.9881 1.4573-4.6681 1.4573-2.4691 0-4.0494-.7403-5.2366-2.0243l2.7428-2.4218c.543.6428 1.383 1.137 2.7406 1.137 1.3597 0 2.0745-.5437 2.0745-1.0868 0-.4695-.3458-.6915-.9135-.7905l-1.6793-.2955c-2.2223-.3967-3.1359-1.7288-3.1359-3.0631 0-1.3328.4681-2.544 1.4078-3.4809 1.0373-1.0386 2.6671-1.5569 4.5436-1.5569 1.9501 0 3.3346.4433 4.5196 1.7288l-2.6175 2.3206zm6.7105 9.3855h-3.8521l2.5441-12.7689h3.8521l-2.5441 12.7689zm2.9146-14.596h-3.8521l.5918-2.9895h3.8528l-.5925 2.9895zm10.4431 13.6342c-.6667 3.406-2.9385 5.4063-6.4704 5.4063-2.025 0-3.4328-.4936-4.6185-1.8278l2.667-2.3206c.2963.3217.7665.8888 1.9515.8888 1.6786 0 2.4451-1.1851 2.6424-2.1728l.1986-.9624c-.6193.6901-1.5067 1.1094-2.5942 1.1094-1.7288 0-3.6061-1.1094-3.6061-3.5544 0-.6434.174-1.6305.3698-2.7413.4957-2.6671.915-4.0756 1.8285-4.9898.9885-.9892 2.1481-1.3088 3.3339-1.3088 1.4077 0 2.2477.5685 2.8162 1.3088l.222-1.161h3.7044l-2.4451 12.3256zm-3.5558-8.9918c-1.1108 0-1.6058.5939-2.0498 2.841-.1499.7898-.1987 1.3074-.1987 1.5563 0 .7162.321 1.2345 1.1377 1.2345 1.1108 0 1.6036-.5918 2.0491-2.8417.1485-.7898.1972-1.3074.1972-1.5556 0-.7141-.321-1.2345-1.1355-1.2345zm18.713 1.7043l-1.6553 8.2493h-3.8521l1.605-8.0273c.0488-.222.0743-.4681.0743-.6661 0-.8888-.6173-1.2607-1.1115-1.2607-.8895 0-1.7536.4469-2.0491 1.9268l-1.6065 8.0273h-3.8521l2.6423-13.2872h3.6803l-.2227 1.1596c.84-.8372 2.0993-1.3081 3.2603-1.3081 1.3095 0 3.2603.8888 3.2603 3.6563 0 .5416-.075 1.086-.1732 1.5301zm14.6838 1.729h-2.7159l-1.3095 6.5206h-4.0996l3.5318-17.5849h6.3969c2.8396 0 4.8639 1.8285 4.8639 4.8894 0 3.039-2.2704 6.1749-6.6676 6.1749zm1.0874-7.4328h-2.2972l-.7651 3.8027h2.1481c1.8532 0 2.3715-1.5323 2.3715-2.1743 0-.9128-.3952-1.6284-1.4573-1.6284zm16.8099 5.5802l-1.6786 8.3738h-3.705l.222-1.0875c-.6187.6166-1.5562 1.2105-2.8891 1.2105-2.4217 0-3.7057-1.8285-3.7057-3.6308 0-1.4063.444-2.4691 1.1864-3.186.939-.915 2.3447-1.3343 3.8776-1.3343h2.7661l.0997-.4681c.0473-.1979.0735-.3471.0735-.5692 0-.6646-.4207-1.1596-1.5803-1.1596-1.1122 0-1.977.495-2.4712 1.0599l-1.9261-2.5666c1.0133-.9645 2.4203-1.7048 5.0139-1.7048 2.4203 0 4.8653 1.0359 4.8653 3.8281 0 .396-.0735.8648-.1485 1.2346zm-6.3219 2.9145c-1.1122 0-1.6552.7665-1.6552 1.5068 0 .5437.3945.9885 1.161.9885.7162 0 1.284-.3225 1.6545-.6923.3458-.3457.5445-.888.642-1.4325l.075-.3705h-1.8773zm16.0456-3.7293c-.1726-.1725-.4943-.7403-1.2346-.7403-.8902 0-1.8023.7163-2.0505 1.9748l-1.581 7.9532h-3.8514l2.6416-13.2866h3.7051l-.2221 1.1356c.6915-.7898 1.8999-1.2841 3.1606-1.2841 1.2593 0 2.076.3946 2.7908 1.2607l-3.3585 2.9867zm10.4172-.5925h-1.977l-1.1101 5.6304c-.0262.0997-.0262.273-.0262.2963 0 .4462.2984.6173.7665.6173h1.2098l-.642 3.2355h-1.8024c-2.1989 0-3.4575-1.3575-3.4575-3.0863 0-.4943.0481-.84.0975-1.0854l1.1123-5.6078h-1.1617l.5939-2.9894h1.1603l.7665-3.8034h3.8521l-.7665 3.8034h1.977l-.5925 2.9894zm12.9841 1.5309l-1.6552 8.2493h-3.8522l1.6058-8.0273c.0495-.222.0735-.4681.0735-.6661 0-.8888-.6158-1.2607-1.1101-1.2607-.8909 0-1.7549.4469-2.0505 1.9268l-1.605 8.0273h-3.8536l2.6424-13.2872h3.6803l-.2228 1.1596c.84-.8372 2.0993-1.3081 3.2603-1.3081 1.3095 0 3.2603.8888 3.2603 3.6563 0 .5416-.0735 1.086-.1732 1.5301zm13.01 2.8407h-7.6568c-.0248.2475-.0495.3698-.0495.543 0 1.062.6413 1.779 1.9501 1.779 1.1129 0 2.0264-.4447 2.8417-1.2345l1.926 2.5185c-1.3342 1.2841-3.285 1.9501-5.2365 1.9501-2.1481 0-5.1369-.9877-5.1369-4.7175 0-4.7155 2.3461-8.866 6.8423-8.866 2.8149 0 4.9644 1.779 4.9644 4.8406 0 1.0125-.1987 2.1481-.4448 3.1868zm-4.7416-4.8654c-1.0146 0-1.9275.618-2.4203 2.3199h3.8769c.0481-.1958.0735-.4928.0735-.6413 0-1.0118-.5183-1.6786-1.5301-1.6786zm14.7352 1.0863c-.1726-.1725-.4943-.7403-1.2346-.7403-.8902 0-1.8023.7163-2.0512 1.9748l-1.5803 7.9532h-3.8514l2.6416-13.2866h3.7043l-.2213 1.1356c.6915-.7898 1.8999-1.2841 3.1606-1.2841 1.2593 0 2.0753.3946 2.7908 1.2607l-3.3585 2.9867zm-113.9553-64.308v-2.376464H1.61032v2.376464H49.0901zM17.9664 130.029c-.0544-.8994-.4242-2.8551-3.5919-2.8551-1.5018 0-3.2186.3698-3.2186 2.1134 0 .794.6449 1.1646 1.2332 1.4283 1.7167.688 5.7909 1.0054 9.3298 2.1148 3.5912 1.1108 6.6471 3.1727 6.6471 7.6661 0 7.6137-7.3995 9.6763-14.1534 9.6763-6.5411 0-13.7249-2.59-13.8854-9.6763h10.1316c0 1.7493 1.2472 3.4328 3.8881 3.4328 2.151 0 3.8331-.3959 3.8331-2.322 0-1.5874-.9121-2.0611-5.844-2.9075C4.2408 137.3776.9713 134.789.9713 130.0813c0-6.9271 7.5586-8.7231 13.1345-8.7231 6.0038 0 13.2406 1.6397 13.5093 8.6708h-9.6487zm30.3675-6.6736h6.2166v6.4754h-6.2166v8.5598c0 2.5482.5254 3.6626 3.2059 3.6626.7898 0 2.4903-.2136 3.2787-.3196v7.9616c-2.2542.234-5.3271.4766-7.5876.4766-4.415 0-9.3029-.6887-9.3029-8.2254v-12.1156h-6.4584v-6.4754h6.4584V111.606h10.4059v11.7494zm25.7956 26.8172c-10.2475 0-14.8718-6.8458-14.8718-14.4886 0-7.5904 4.6243-14.4369 14.8718-14.4369 10.2476 0 14.8719 6.8465 14.8719 14.4369 0 7.6428-4.6243 14.4886-14.8719 14.4886zm0-21.2835c-3.9942 0-4.4672 3.8747-4.4672 6.7949 0 2.9181.473 6.8466 4.4672 6.8466 3.9943 0 4.4673-3.9285 4.4673-6.8466 0-2.9202-.473-6.7949-4.4673-6.7949zm18.8399-6.2618h9.9839v4.4057h.1046c1.6828-3.3437 3.8896-5.0958 7.6731-5.0958.9991 0 1.9975.1591 3.0489.4242v9.2888c-1.0514-.3719-1.9974-.6908-4.0996-.6908-4.1526 0-6.3063 2.3885-6.3063 8.3328v10.8797H92.9694v-27.5446zm34.2225 15.4457c.2616 3.184 1.9961 5.3596 5.3066 5.3596 1.6821 0 3.5212-.6378 4.3626-1.9642h9.7215c-2.1021 5.9457-7.8824 8.7047-14.0311 8.7047-8.7231 0-15.2939-5.2019-15.2939-14.3839 0-8.014 5.7294-14.5431 14.4009-14.5431 10.826 0 15.5011 6.0519 15.5011 16.8269h-19.9677zm9.9839-5.4678c0-2.5475-1.8914-4.6171-4.5719-4.6171-3.1522 0-4.8866 1.6446-5.3611 4.6171h9.933zM29.9145 98.6907H19.8748v-3.6972h-.1039c-1.26 1.6991-2.9421 3.7163-7.9878 3.7163-7.7247 0-11.4559-7.6427-11.4559-14.5953 0-6.5291 2.4705-14.3302 11.6129-14.3302 3.1535 0 5.834 1.3795 7.4645 3.7149h.104V60.125h10.4059v38.5657zM15.3043 77.4263c-3.7312 0-4.5726 3.5566-4.5726 6.7935 0 3.237.8414 6.8473 4.5726 6.8473 3.7312 0 4.5705-3.6103 4.5705-6.8473 0-3.2369-.8393-6.7935-4.5705-6.7935zm27.0571 9.1832c.2624 3.1832 1.9947 5.3595 5.3066 5.3595 1.6807 0 3.5212-.6377 4.3612-1.9635h9.7229c-2.1021 5.9451-7.8824 8.704-14.0325 8.704-8.7217 0-15.2911-5.2019-15.2911-14.3839 0-8.0139 5.728-14.5416 14.3981-14.5416 10.8259 0 15.5025 6.0504 15.5025 16.8255H42.3614zm9.9839-5.4678c0-2.5476-1.8914-4.6172-4.5734-4.6172-3.1507 0-4.8851 1.6454-5.3596 4.6172h9.933zm30.4804-.2112c-.1047-1.1688-.4731-2.0173-1.1554-2.6006-.683-.5848-1.5237-.9037-2.6275-.9037-3.9949 0-4.5712 3.5043-4.5712 6.8466 0 3.3968.5763 6.7935 4.5712 6.7935 2.2591 0 3.8352-1.8567 4.0466-4.0331h9.9336c-.9998 7.4822-6.8324 11.6766-14.1909 11.6766-8.197 0-14.7657-5.733-14.7657-14.437s6.5687-14.4893 14.7657-14.4893c7.1994 0 13.1911 3.5035 13.8742 11.147h-9.8806zm26.0798 17.7793c-10.2476 0-14.8718-6.8473-14.8718-14.4893 0-7.589 4.6242-14.4363 14.8718-14.4363 10.2475 0 14.8718 6.8473 14.8718 14.4363 0 7.642-4.6243 14.4893-14.8718 14.4893zm0-21.2829c-3.9957 0-4.4673 3.8741-4.4673 6.7936 0 2.9195.4716 6.8472 4.4673 6.8472 3.9935 0 4.4672-3.9277 4.4672-6.8472 0-2.9195-.4737-6.7936-4.4672-6.7936zm17.3864-6.953h9.9838v4.4043h.1047c1.6821-3.343 3.891-5.0944 7.6731-5.0944.9991 0 1.9968.1591 3.0489.4249v9.2881c-1.0521-.3719-1.9989-.6908-4.1003-.6908-4.1505 0-6.3049 2.3885-6.3049 8.3328V98.691h-10.4053V70.4739zM19.4362 9.1676v13.1911h-.106c-1.5704-2.305-4.345-3.6619-7.4306-3.6619-9.0993 0-11.5642 7.7396-11.5642 14.1209 0 6.8042 3.7143 14.3896 11.4065 14.3896 5.0746 0 6.6429-1.9331 7.9524-3.664h.1054v3.6661h9.9937V9.1676H19.4362zm-4.1858 30.5066c-3.7178 0-4.5557-3.5021-4.5557-6.7504 0-3.1903.8379-6.6946 4.5557-6.6946 3.7107 0 4.5493 3.5043 4.5493 6.6946 0 3.2483-.8386 6.7504-4.5493 6.7504zm32.6464.8876c-3.2462 0-5.0259-2.1933-5.2839-5.2811h19.8764c0-10.57-4.656-16.5843-15.429-16.5843-8.5817 0-14.3386 6.4336-14.3386 14.3323 0 9.0505 6.5411 14.1782 15.226 14.1782 6.1727 0 11.876-2.7194 13.9661-8.5782h-9.6777c-.8358 1.306-2.6664 1.9331-4.3393 1.9331zm.1047-15.2225c2.6663 0 4.5528 2.0413 4.5528 4.5521h-9.8898c.4716-2.9315 2.2456-4.5521 5.337-4.5521zm16.7379-5.9626h9.94v4.34h.1054c1.6757-3.242 3.8733-5.0195 7.6413-5.0195 1.045 0 2.0406.1541 3.0305.4178v9.1552c-1.0443-.3684-1.9855-.6837-4.0798-.6837-4.0777 0-6.2781 2.4075-6.2781 8.214v11.4086H64.7394V19.3767zm43.6351 27.8326H96.1329l-8.8956-27.8324h10.9334l4.2375 16.5306h.1061l4.2905-16.5306h10.5685l-8.9988 27.8324zm24.1287-6.6475c-3.2391 0-5.018-2.1933-5.279-5.2811h19.88c0-10.57-4.6539-16.5843-15.4318-16.5843-8.5817 0-14.3351 6.4336-14.3351 14.3323 0 9.0505 6.5376 14.1782 15.2225 14.1782 6.1741 0 11.8774-2.7194 13.9682-8.5782h-9.6777c-.8372 1.306-2.6699 1.9331-4.3471 1.9331zm.0999-15.2407c2.6663 0 4.5493 2.0427 4.5493 4.5514h-9.8856c.4709-2.9273 2.2485-4.5514 5.3363-4.5514zM157.5411.5806c5.0188 0 8.866 3.8493 8.866 8.6447 0 4.9099-3.8472 8.7485-8.866 8.7485-4.9559 0-8.8921-3.8386-8.8921-8.7485 0-4.7954 3.9362-8.6447 8.8921-8.6447zm.0523 15.5513c3.8083 0 6.5991-3.0552 6.5991-6.8494 0-3.8563-2.7908-6.959-6.6514-6.959-3.8451 0-6.6903 3.1027-6.6903 6.9018 0 3.8514 2.8452 6.9066 6.7426 6.9066zm1.0901-11.0006c.3698 0 .7057.0608 1.004.1803.297.1202.5523.2843.7665.4936.2128.2085.3755.4511.4872.7254.1117.2751.1683.5706.1683.8888 0 .4872-.1033.9093-.309 1.2657-.2037.3563-.5388.6271-1.0034.8124v.024c.2242.0629.4094.157.5579.2843.1464.1279.268.2785.3592.4539.0941.1732.1612.3641.2044.5748.0417.2093.0707.4172.0869.6258.0071.1322.0149.2864.0234.4645.007.1782.0205.3607.0396.5466.0198.1853.0509.3613.0933.5275.0431.1676.1061.3083.1916.4242h-1.8242c-.1004-.2637-.1612-.5762-.1853-.9411-.0233-.3634-.058-.7113-.1046-1.0443-.0615-.4349-.1938-.7509-.3946-.9524-.2015-.2009-.531-.302-.987-.302h-1.8236v3.2398h-1.8228V5.1313h4.4722zm-.6512 3.751c.4186 0 .7318-.0926.9397-.2779.2093-.1866.3139-.4885.3139-.9064 0-.4016-.1046-.6944-.3139-.8768-.2079-.1824-.5211-.2722-.9397-.2722h-1.9982v2.3333h1.9982z"></path></svg>