<?xml version="1.0" encoding="utf-8"?>
<!-- Generator: Adobe Illustrator 25.4.1, SVG Export Plug-In . SVG Version: 6.00 Build 0)  -->
<svg version="1.1" id="Livello_2" xmlns="http://www.w3.org/2000/svg" xmlns:xlink="http://www.w3.org/1999/xlink" x="0px" y="0px"
	 viewBox="0 0 538.6 101.2" style="enable-background:new 0 0 538.6 101.2;" xml:space="preserve">
<style type="text/css">
	.st0{fill:#1A171B;}
	.st1{fill:#DB0032;}
</style>
<g>
	<path class="st0" d="M302.1,85.5h2.1v7.3c0,3.1-1.5,4.2-3.8,4.2c-0.6,0-1.3-0.1-1.7-0.3l0.3-1.7c0.3,0.1,0.8,0.2,1.3,0.2
		c1.2,0,1.9-0.5,1.9-2.5V85.5z"/>
	<path class="st0" d="M319.4,91.1c0,3.8-2.3,6-5.4,6c-3.2,0-5.2-2.4-5.2-5.8c0-3.5,2.2-5.9,5.4-5.9
		C317.4,85.3,319.4,87.8,319.4,91.1z M310.9,91.2c0,2.3,1.2,4.1,3.1,4.1c2,0,3.1-1.8,3.1-4.2c0-2.1-1.1-4.2-3.1-4.2
		C312,87,310.9,88.9,310.9,91.2z"/>
	<path class="st0" d="M326.2,85.5v11.3h-2.1V85.5H326.2z"/>
	<path class="st0" d="M331.5,96.8V85.5h2.4l2.9,4.9c0.8,1.3,1.4,2.6,1.9,3.8h0c-0.1-1.5-0.2-3-0.2-4.7v-3.9h1.9v11.3h-2.1l-3-5
		c-0.7-1.2-1.5-2.6-2-3.9l-0.1,0c0.1,1.5,0.1,3,0.1,4.8v4H331.5z"/>
	<path class="st0" d="M354.2,85.5v6.6c0,2.2,0.9,3.2,2.3,3.2c1.5,0,2.4-1,2.4-3.2v-6.6h2.1V92c0,3.5-1.8,5-4.5,5
		c-2.6,0-4.3-1.5-4.3-5v-6.5H354.2z"/>
	<path class="st0" d="M366.2,94.6c0.7,0.4,1.7,0.7,2.7,0.7c1.3,0,2.1-0.6,2.1-1.5c0-0.9-0.6-1.4-2-1.9c-1.9-0.7-3.1-1.7-3.1-3.3
		c0-1.8,1.5-3.3,4-3.3c1.2,0,2.1,0.3,2.7,0.6l-0.5,1.7c-0.4-0.2-1.2-0.5-2.3-0.5c-1.3,0-1.9,0.7-1.9,1.4c0,0.9,0.7,1.3,2.2,1.9
		c2,0.7,2.9,1.7,2.9,3.4c0,1.8-1.4,3.4-4.3,3.4c-1.2,0-2.4-0.3-3.1-0.7L366.2,94.6z"/>
	<path class="st0" d="M386.4,85.5v11.3h-2.1V85.5H386.4z"/>
	<path class="st0" d="M391.7,96.8V85.5h2.4l2.9,4.9c0.8,1.3,1.4,2.6,1.9,3.8h0c-0.1-1.5-0.2-3-0.2-4.7v-3.9h1.9v11.3h-2.1l-3-5
		c-0.7-1.2-1.5-2.6-2-3.9l-0.1,0c0.1,1.5,0.1,3,0.1,4.8v4H391.7z"/>
	<path class="st0" d="M418.7,91.8h-4.3v3.3h4.8v1.7h-6.8V85.5h6.6v1.7h-4.5v2.9h4.3V91.8z"/>
	<path class="st0" d="M430,96.8l-1.2-2.3c-0.5-0.9-0.8-1.5-1.1-2.1h-0.1c-0.3,0.7-0.6,1.3-1,2.1l-1.1,2.3h-2.4l3.4-5.7l-3.2-5.6h2.4
		l1.2,2.3c0.4,0.7,0.6,1.3,0.9,1.9h0c0.3-0.7,0.5-1.2,0.9-1.9l1.2-2.3h2.4l-3.3,5.5l3.4,5.8H430z"/>
	<path class="st0" d="M444.4,96.5c-0.5,0.3-1.6,0.5-2.9,0.5c-3.6,0-5.8-2.3-5.8-5.7c0-3.7,2.6-6,6.1-6c1.4,0,2.3,0.3,2.8,0.5
		l-0.5,1.6c-0.5-0.2-1.3-0.4-2.2-0.4c-2.3,0-4,1.4-4,4.2c0,2.5,1.5,4.1,3.9,4.1c0.8,0,1.7-0.2,2.3-0.4L444.4,96.5z"/>
	<path class="st0" d="M455.4,91.8h-4.3v3.3h4.8v1.7h-6.8V85.5h6.6v1.7h-4.5v2.9h4.3V91.8z"/>
	<path class="st0" d="M460.7,85.5h2.1v9.6h4.7v1.7h-6.7V85.5z"/>
	<path class="st0" d="M471.9,85.5h2.1v9.6h4.7v1.7h-6.7V85.5z"/>
	<path class="st0" d="M489.4,91.8h-4.3v3.3h4.8v1.7h-6.8V85.5h6.6v1.7h-4.5v2.9h4.3V91.8z"/>
	<path class="st0" d="M494.7,96.8V85.5h2.4l2.9,4.9c0.8,1.3,1.4,2.6,1.9,3.8h0c-0.1-1.5-0.2-3-0.2-4.7v-3.9h1.9v11.3h-2.1l-3-5
		c-0.7-1.2-1.5-2.6-2-3.9l-0.1,0c0.1,1.5,0.1,3,0.1,4.8v4H494.7z"/>
	<path class="st0" d="M517.1,96.5c-0.5,0.3-1.6,0.5-2.9,0.5c-3.6,0-5.8-2.3-5.8-5.7c0-3.7,2.6-6,6.1-6c1.4,0,2.3,0.3,2.8,0.5
		l-0.5,1.6c-0.5-0.2-1.3-0.4-2.2-0.4c-2.3,0-4,1.4-4,4.2c0,2.5,1.5,4.1,3.9,4.1c0.8,0,1.7-0.2,2.3-0.4L517.1,96.5z"/>
	<path class="st0" d="M528.1,91.8h-4.3v3.3h4.8v1.7h-6.8V85.5h6.6v1.7h-4.5v2.9h4.3V91.8z"/>
</g>
<polygon class="st0" points="39.7,6.1 39.7,61.9 15.7,40 35.2,40 35.2,27.4 0.1,27.4 0.1,27.4 0,27.4 0.1,45.7 36,78.3 53.6,78.3 
	53.6,78.3 53.6,6.1 "/>
<polygon class="st1" points="72.6,78.2 72.6,43.8 96.6,65.6 77.1,65.6 77.1,78.3 112.2,78.3 112.2,78.3 112.3,78.3 112.2,60 
	76.3,27.4 58.7,27.4 58.7,27.4 58.7,78.2 "/>
<g>
	<path class="st0" d="M127.3,27.3h14.2c14.7,0,24.6,11,24.6,25.6c0,14.3-10.1,25.4-24.7,25.4h-14.1V27.3z M137.2,69.6h1.6
		c12.2,0,17-6.8,17-16.8c0-11.1-5.7-16.8-17-16.8h-1.6V69.6z"/>
	<path class="st0" d="M178.7,47.5v16.1c0,3.4,0.5,7.5,4.9,7.5c4.3,0,4.9-4.1,4.9-7.5V47.5h8.5v17.5c0,8.7-4.5,13.2-13.3,13.2
		s-13.3-4.6-13.3-13.2V47.5H178.7z"/>
	<path class="st0" d="M209.3,51.6h0.1c1.7-2.6,4.2-4.1,7.4-4.1c1.2,0,2.4,0.3,3.5,0.7l-1,7.9c-1-0.7-2.2-1.1-3.5-1.1
		c-5.9,0-6.5,5.2-6.5,9.8v13.4h-8.5V48.5h8.5V51.6z"/>
	<path class="st0" d="M252.2,78.3h-8.4v-3.7h-0.1c-1.8,2.4-5,3.7-8.1,3.7c-8.7,0-13.7-7.9-13.7-16c0-7.9,5-15.7,13.6-15.7
		c3.1,0,6.3,1.3,8.3,3.8v-2.8h8.4V78.3z M244.7,62.4c0-4-2.7-8.3-7.1-8.3c-4.4,0-7,4.3-7,8.3s2.7,8.4,7,8.4
		C242,70.8,244.7,66.4,244.7,62.4z"/>
	<path class="st0" d="M265.9,51.2h0.1c1.8-2.7,4.7-3.7,7.8-3.7c8,0,10.3,5.6,10.3,12.6v18.2h-8.5V62.5c0-3.6,0.2-8.2-4.6-8.2
		c-5,0-5.1,5.6-5.1,9.2v14.7h-8.5V48.5h8.5V51.2z"/>
	<path class="st0" d="M298.7,78.3h-8.5V55.7h-2.9v-7.2h2.9V38.4h8.5v10.1h5.2v7.2h-5.2V78.3z"/>
	<path class="st0" d="M313.6,63.8c0,3.8,1.5,8,5.9,8c2.8,0,4.6-1.7,5.7-4.1L333,69c-2.1,5.9-7.3,9.3-13.5,9.3
		c-9.2,0-14.9-6.6-14.9-15.6s4.8-16.1,14.4-16.1c9.8,0,14.1,7.2,14.1,16.2v1H313.6z M325.2,58.5c-0.4-3-2.4-6-5.6-6
		c-3.4,0-5.3,2.9-5.7,6H325.2z"/>
	<path class="st0" d="M349.3,67.6l-4.2,10.7h-10.4l19.7-51h7.7l19.2,51h-10.5l-3.9-10.7H349.3z M357.8,42.5h-0.1l-5.6,17h12
		L357.8,42.5z"/>
	<path class="st0" d="M403.9,74.4h-0.1c-1.8,2.5-5,3.8-8.2,3.8c-8.9,0-14-8.1-14-16.4c0-8.1,5.1-16,13.9-16c3.2,0,6.4,1.4,8.3,3.8
		h0.1V27.3h8.7v51h-8.7V74.4z M404.8,62.1c0-4.1-2.7-8.5-7.2-8.5c-4.5,0-7.2,4.4-7.2,8.5c0,4.1,2.7,8.6,7.2,8.6
		C402,70.6,404.8,66.1,404.8,62.1z"/>
	<path class="st0" d="M425.4,63.5c0,3.8,1.5,8.2,6,8.2c2.9,0,4.6-1.7,5.8-4.2l8,1.3c-2.1,6.1-7.4,9.5-13.8,9.5
		c-9.4,0-15.2-6.7-15.2-15.9c0-9.2,4.9-16.5,14.7-16.5c10,0,14.4,7.4,14.4,16.5v1.1H425.4z M437.3,58.1c-0.4-3.1-2.4-6.1-5.8-6.1
		c-3.5,0-5.4,3-5.8,6.1H437.3z"/>
	<path class="st0" d="M464.8,54.1c-1.2-1.2-2.9-2.1-4.6-2.1c-1.4,0-2.9,1.1-2.9,2.6c0,2.2,3.2,2.9,6.3,4.2c3.2,1.4,6.3,3.5,6.3,8.7
		c0,6.8-5.5,10.8-11.8,10.8c-4.1,0-8.1-1.9-10.7-5.1l4-5.1c1.7,1.9,3.9,3.5,6.4,3.5c1.9,0,3.5-1.3,3.5-3.3c0-2.7-3-3.3-6.1-4.6
		c-3-1.3-6.1-3.1-6.1-8c0-5.7,4-9.9,9.7-9.9c3.2,0,7.3,1,9.8,3.2L464.8,54.1z"/>
	<path class="st0" d="M484.2,39c0,2.9-2.3,5.1-5.1,5.1c-2.9,0-5.1-2.3-5.1-5.1c0-2.8,2.3-5.1,5.1-5.1
		C481.9,33.8,484.2,36.2,484.2,39z M483.4,78.3h-8.7V47.5h8.7V78.3z"/>
	<path class="st0" d="M502.1,64.4l6.1-16.9h9.5l-13.9,30.8h-4.5l-13.8-30.8h9.5L502.1,64.4z"/>
	<path class="st0" d="M529.5,39c0,2.9-2.3,5.1-5.1,5.1c-2.9,0-5.1-2.3-5.1-5.1c0-2.8,2.3-5.1,5.1-5.1
		C527.2,33.8,529.5,36.2,529.5,39z M528.7,78.3H520V47.5h8.7V78.3z"/>
	<path class="st0" d="M538.6,74.6c0,2-1.6,3.7-3.6,3.7c-2,0-3.7-1.6-3.7-3.7c0-2,1.6-3.6,3.7-3.6C537,71,538.6,72.6,538.6,74.6z
		 M532,74.6c0,1.6,1.3,2.9,2.9,2.9c1.6,0,2.9-1.3,2.9-2.9c0-1.6-1.2-2.9-2.9-2.9C533.3,71.7,532,73,532,74.6z M534.4,76.5h-0.8v-3.6
		c0.3,0,0.8-0.1,1.4-0.1c0.7,0,1,0.1,1.2,0.3c0.2,0.2,0.4,0.4,0.4,0.8c0,0.4-0.3,0.7-0.8,0.9v0c0.4,0.1,0.5,0.4,0.6,0.9
		c0.1,0.6,0.2,0.8,0.3,0.9h-0.9c-0.1-0.1-0.2-0.4-0.3-0.9c-0.1-0.4-0.3-0.6-0.8-0.6h-0.4V76.5z M534.4,74.5h0.4
		c0.5,0,0.8-0.2,0.8-0.5c0-0.3-0.2-0.6-0.8-0.6c-0.2,0-0.4,0-0.5,0V74.5z"/>
</g>
</svg>
