<?xml version="1.0" encoding="UTF-8" standalone="no"?>
<svg version="1.1" id="svg2" xml:space="preserve" width="287.01199" height="78.236" viewBox="0 0 287.012 78.236" sodipodi:docname="72fe80870c4d1853513bdda1a682e8f1.eps" xmlns:inkscape="http://www.inkscape.org/namespaces/inkscape" xmlns:sodipodi="http://sodipodi.sourceforge.net/DTD/sodipodi-0.dtd" xmlns="http://www.w3.org/2000/svg" xmlns:svg="http://www.w3.org/2000/svg"><defs id="defs6"/><sodipodi:namedview id="namedview4" pagecolor="#ffffff" bordercolor="#666666" borderopacity="1.0" inkscape:pageshadow="2" inkscape:pageopacity="0.0" inkscape:pagecheckerboard="0"/><g id="g8" inkscape:groupmode="layer" inkscape:label="ink_ext_XXXXXX" transform="matrix(1.3333333,0,0,-1.3333333,0,78.235998)"><g id="g10" transform="scale(0.1)"><path d="M 314.063,586.77 H 1404.82 V 476.211 H 314.063 v 110.559 0 0 0" style="fill:#da1737;fill-opacity:1;fill-rule:nonzero;stroke:none" id="path12"/><path d="M 314.063,363.184 V 260.781 h 194.218 c 0,0 0.059,19.785 0.059,21.809 0,1.98 -1.27,2.762 -2.832,2.801 -1.524,0.058 -127.227,0 -127.227,0 l 0.039,36.632 h 110.274 c 0,0 0,19.668 0,21.493 0,1.847 -1.016,2.863 -2.852,2.863 -1.816,0 -107.422,0 -107.422,0 v 37.449 h 129.961 c 0,0 0,19.817 0,21.789 0,1.981 -1.269,2.567 -2.832,2.567 -1.523,0 -146.679,0 -146.679,0 -24.786,0 -44.707,-20.157 -44.707,-45 v 0 0 0" style="fill:#231f20;fill-opacity:1;fill-rule:nonzero;stroke:none" id="path14"/><path d="m 579.375,408.184 c 0,0 146.492,0 148.328,0 1.84,0 2.895,-0.711 2.895,-2.579 0,-1.835 0,-21.738 0,-21.738 H 598.711 v -96.172 h 106.465 v 34.336 h -65.84 c 0,0 0,20 0,21.516 0,1.473 1.055,2.781 2.969,2.781 16.484,0 84.035,0.039 85.383,0.039 1.5,0 2.91,-1.289 2.91,-2.851 0,-1.563 0,-82.735 0,-82.735 H 534.59 v 102.403 c 0,24.843 20.058,45 44.785,45 v 0 0 0" style="fill:#231f20;fill-opacity:1;fill-rule:nonzero;stroke:none" id="path16"/><path d="m 805.09,408.184 c 0,0 146.48,0 148.34,0 1.812,0 2.871,-0.711 2.871,-2.579 0,-1.835 0,-21.738 0,-21.738 h -131.86 l -0.015,-96.172 h 106.465 v 34.336 h -65.825 c 0,0 0.039,19.992 0.039,21.485 0,1.484 1,2.812 2.891,2.812 16.508,0 84.067,0.039 85.41,0.039 1.489,0 2.895,-1.289 2.895,-2.851 0,-1.551 0,-82.735 0,-82.735 H 760.305 v 102.414 c 0,24.852 20.054,44.989 44.785,44.989 v 0 0 0" style="fill:#231f20;fill-opacity:1;fill-rule:nonzero;stroke:none" id="path18"/><path d="M 986.184,363.184 V 260.781 h 194.276 c 0,0 0,19.805 0,21.809 0,1.98 -1.27,2.762 -2.83,2.801 -1.52,0.058 -127.25,0 -127.25,0 l 0.04,36.64 h 110.28 c 0,0 0,19.66 0,21.485 0,1.847 -1,2.871 -2.83,2.871 -1.82,0 -107.45,0 -107.45,0 v 37.441 h 129.99 c 0,0 0,19.817 0,21.797 0,1.973 -1.27,2.559 -2.84,2.559 -1.52,0 -146.7,0 -146.7,0 -24.77,0 -44.686,-20.157 -44.686,-45 v 0 0 0" style="fill:#231f20;fill-opacity:1;fill-rule:nonzero;stroke:none" id="path20"/><path d="m 0,408.184 h 213.926 v -27.5 H 100.313 V 348.516 H 213.926 V 320.137 H 100.82 V 288.164 H 213.926 V 260.781 L 0,260.793 v 147.391 0 0" style="fill:#da1737;fill-opacity:1;fill-rule:nonzero;stroke:none" id="path22"/><path d="m 1366.09,408.176 c 21.37,0 38.69,-21.594 38.69,-43.067 0,-21.476 -17.42,-43.078 -38.83,-43.078 h -17.44 l 66.02,-56.023 c 0,0 6.54,-5.227 -0.37,-5.227 -3.68,0 -57.41,0 -70.18,0 -2.91,-0.058 -4.28,1.699 -7.23,4.082 2.33,-1.582 -66.03,57.168 -66.03,57.168 v -61.25 h -64.08 v 102.403 c 0,24.843 19.94,44.992 44.66,44.992 h 114.79 z m -8.79,-61.926 c 6.84,0 16.58,7.078 16.58,18.789 0,12.969 -9.16,18.723 -16.58,18.723 h -86.58 v -37.52 l 86.58,0.067 v 0 -0.059" style="fill:#231f20;fill-opacity:1;fill-rule:evenodd;stroke:none" id="path24"/></g></g></svg>