<svg width="81" height="24" viewBox="0 0 81 24" fill="none" xmlns="http://www.w3.org/2000/svg">
<path fill-rule="evenodd" clip-rule="evenodd" d="M23.659 0H28.2233V23.6615H23.659V0ZM21.7085 16.6978H4.87015C5.64753 18.9622 7.87972 20.3152 10.9908 20.3152H11.5995C14.4062 20.3152 16.0296 19.4366 16.6712 18.3208H21.5399C20.864 21.3967 17.7187 23.9997 11.2951 23.9997C4.49861 23.9997 0.00141346 20.6538 0.00141346 14.9406C-0.10005 9.7345 5.276 6.35428 11.2951 6.42289C17.8201 6.42289 21.7085 10.0731 21.7085 15.042V16.6978ZM16.9413 13.2505C16.8055 11.3575 14.6419 10.1074 11.5995 10.1074H10.9908C7.8469 10.1074 5.78331 11.256 4.97161 13.2505H16.9413ZM35.276 0H30.3058V4.76602H35.276V0ZM35.0731 6.76044H30.5088V23.6615H35.0731V6.76044ZM48.1072 6.42187C54.1934 6.42187 58.0476 9.02491 58.5892 12.6751H53.7876C53.2131 11.0521 51.2525 10.275 48.4459 10.275H47.8371C43.7114 10.275 41.5136 12.5394 41.5136 15.2096C41.5136 17.8797 43.7114 20.1441 47.8371 20.1441H48.4459C51.2182 20.1441 53.4161 19.1641 53.7548 17.744H58.5564C58.0147 21.1242 54.7023 23.9972 48.1087 23.9972C40.9749 23.9972 36.8836 20.2784 36.8836 15.2081C36.8821 10.2078 41.1749 6.42187 48.1072 6.42187ZM75.5404 12.7437L67.7292 13.2166C62.4218 13.5881 60.021 15.3468 60.021 18.5898C60.021 21.97 62.5233 23.9987 67.8993 23.9987C71.6863 23.9987 74.29 22.8158 75.6762 21.43C75.6762 22.2758 75.7776 23.0187 75.9463 23.6616H80.5106C80.2405 22.7144 80.1047 21.4643 80.1047 19.9428V13.0809C80.1047 8.7206 76.5879 6.42187 70.333 6.42187C64.8555 6.42187 60.9327 8.82204 60.7298 11.9994H65.3628C65.5657 10.9522 67.3577 10.1064 69.9271 10.1064H70.5359C73.6813 10.1064 75.5404 10.9522 75.5404 12.5409V12.7437ZM75.5404 16.8683C75.5404 19.0656 72.971 20.3157 69.0826 20.3157H68.4738C65.7686 20.3157 64.6525 19.5385 64.6525 18.457C64.6525 17.5113 65.5329 16.9026 67.865 16.7669L75.5404 16.294V16.8683Z" fill="black"/>
</svg>