<?xml version="1.0" encoding="UTF-8"?>
<!-- Generator: Adobe Illustrator 24.0.3, SVG Export Plug-In . SVG Version: 6.00 Build 0)  -->
<svg version="1.1" id="Livello_1" xmlns="http://www.w3.org/2000/svg" xmlns:xlink="http://www.w3.org/1999/xlink" x="0px" y="0px" viewBox="0 0 760 491" enable-background="new 0 0 760 491" xml:space="preserve">
<g>
	<g>
		<g>
			<ellipse fill="#D1091E" cx="380" cy="246.2" rx="373" ry="237.2"/>
		</g>
		<g>
			<ellipse fill="#D1091E" cx="380" cy="245.6" rx="346.6" ry="212.7"/>
			<path fill="#FFFFFF" d="M380,462.3c-93.3,0-181.1-22.3-247.2-62.9C66.2,358.5,29.4,303.9,29.4,245.6S66.2,132.8,132.8,91.8     C198.9,51.3,286.7,29,380,29s181.1,22.3,247.2,62.9c66.7,40.9,103.4,95.5,103.4,153.8s-36.7,112.9-103.4,153.8     C561.1,439.9,473.3,462.3,380,462.3z M380,36.9c-188.9,0-342.6,93.6-342.6,208.7c0,115.1,153.7,208.7,342.6,208.7     c188.9,0,342.6-93.6,342.6-208.7C722.6,130.5,568.9,36.9,380,36.9z"/>
		</g>
	</g>
	<path fill="#FFFFFF" d="M606.9,230.7c-1.7-3.7-4.6-6.8-8.6-9.2c-4-2.4-9.4-4.5-16.2-6.1c-4.3-1-9.7-1.7-16-2v-1   c7.4-0.6,13.4-1.7,18.1-3.2c5.8-1.7,10.4-3.7,13.8-6.1c3.4-2.4,5.8-5.5,7.2-9.2c1.4-3.7,2.1-8.3,2.1-13.6c0-6.5-1.3-12-3.9-16.4   c-2.6-4.4-6.4-8-11.3-10.7c-4.9-2.7-10.9-4.6-18-5.8c-7-1.2-15.2-1.8-24.4-1.8H389.8c0.4,6.2,0.6,12.6,0.6,19.2   c0.1,6.6,0.1,13.8,0.2,21.6c0.1,7.8,0.1,16.4,0.1,25.9v36.7c0,10.4-0.4,20.4-1.1,29.9h163.3c9.7,0,18.2-0.6,25.4-1.8   c7.2-1.2,13.1-3.1,17.7-5.7c4.6-2.6,7.9-6.1,10.1-10.6c2.2-4.4,3.3-9.8,3.3-16.1C609.4,239,608.6,234.4,606.9,230.7 M487.6,175.7   c11.7,0.1,22.8,0.2,33.5,0.2c4,0,7.3,0.3,9.8,1c2.5,0.6,4.3,1.8,5.5,3.3c1.2,1.5,1.8,3.7,1.8,6.4c0,2.5-0.7,4.6-2,6.3   c-1.4,1.7-3.4,3-6,3.8c-2.7,0.8-6,1.3-9.9,1.4c-10.2,0-21,0-32.4,0.1c-8.8,0-18.2-0.1-28.2-0.5v-2.1c0-4.7,0-9.3-0.1-13.6   c0-2.1,0-4.1,0-6.1C469.4,175.7,478.8,175.6,487.6,175.7 M537.5,239.2c-0.7,1.5-1.7,2.6-3.1,3.5c-1.4,0.8-3.1,1.5-5.3,1.9   c-2.2,0.4-4.8,0.6-7.9,0.6h-31.6c-9,0-18.9-0.1-29.6-0.3c-0.1-1.8-0.1-3.7-0.1-5.6c-0.1-4.3-0.1-8.9-0.1-13.8v-1.1   c5.4-0.1,10.6-0.2,15.7-0.3c8.1-0.1,16-0.2,23.5-0.2h21.3c4.3,0,7.7,0.3,10.4,1c2.7,0.7,4.6,1.7,6,3.2c1.3,1.5,2,3.4,2,5.8   C538.5,235.9,538.2,237.7,537.5,239.2"/>
	<path fill="#FFFFFF" d="M320.8,225.6c0,5,0,9.7-0.1,14.2c-0.1,4.5-0.2,8.9-0.4,13.2c-0.2,4.3-0.4,8.6-0.5,12.7   c-0.2,4.1-0.3,8.5-0.4,13h60.1c-0.5-9.6-0.8-19.6-1-30c-0.2-10.4-0.3-22.7-0.3-36.8c0-14.6,0.1-27.1,0.4-37.7   c0.2-10.5,0.5-20.1,0.7-28.8h-74.8c-1.4,3.2-3.1,6.8-5.1,10.8c-2,4-4.1,8.2-6.3,12.6c-2.2,4.4-4.6,9.2-7.1,14.2   c-2.5,5-5,10.2-7.5,15.6c-1.7,3.3-3.3,6.8-4.8,10.6c-1.5,3.7-3.1,7.5-4.7,11.5h-0.3c0,0,0-0.1,0-0.1c-1.7-4-3.4-7.8-5.1-11.6   c-1.7-3.7-3.3-7.3-5-10.6c-2.7-5.3-5.3-10.5-7.8-15.5c-2.5-5-4.8-9.7-7-14.2c-2.2-4.5-4.2-8.8-6.1-12.8c-1.9-4-3.6-7.5-5-10.5   h-82.8c0.2,8.6,0.4,18.2,0.5,28.8c0.1,10.5,0.2,23.1,0.2,37.7c0,14.1-0.1,26.4-0.3,36.9c-0.2,10.5-0.5,20.5-1,29.9h53.5   c-0.1-4.4-0.2-8.8-0.4-13.3c-0.1-4.5-0.3-9-0.5-13.6c-0.2-4.6-0.4-9.3-0.4-14.2v-15.4c0-4-0.1-7.9-0.4-11.6   c-0.2-3.7-0.5-7.3-0.7-11c-0.1-1.6-0.2-3.2-0.3-4.8l1.1-0.2c0.6,1.5,1.1,3,1.7,4.5c1.5,3.9,3.1,7.6,4.8,11.1   c1.7,3.5,3.4,6.8,5.2,10l33.6,58.5h31.8l31.1-54.7c1.4-3,3-6.2,4.7-9.7c1.7-3.5,3.3-7.2,4.7-11.1c0.6-1.7,1.2-3.3,1.8-4.9l1.2,0.2   c-0.2,3.9-0.5,7.8-0.6,11.7C320.9,215.5,320.8,220.6,320.8,225.6"/>
	<path fill="#FFFFFF" d="M198.6,337.5c-1.1-2.7-2.2-5.4-3.3-8.2c-1.1-2.8-2.2-5.6-3.3-8.3c-1.1-2.7-2.1-5.3-3-7.7   c-0.9-2.4-1.7-4.5-2.4-6.4c-0.7-1.9-1.2-3.3-1.7-4.3h-14.7c-0.3,1-0.8,2.5-1.5,4.3c-0.7,1.8-1.5,4-2.4,6.4c-0.9,2.4-1.9,5-3,7.7   c-1.1,2.8-2.1,5.6-3.2,8.4c-1.1,2.9-2.2,5.6-3.3,8.3c-1.1,2.7-2.1,5.1-3,7.4c-0.9,2.3-1.7,4.2-2.5,5.9H162c0.3-1,0.8-2.4,1.5-4.3   c0.6-1.9,1.4-4,2.3-6.4c0-0.1,0.1-0.3,0.2-0.4c1.4,0,2.8-0.1,4.1-0.1h4h3.4h3.6h3.9c1.4,0,2.7,0,4.2,0.1c0.1,0,0.1,0,0.2,0   c0.4,1,0.7,2,1,3c0.6,1.9,1.2,3.5,1.6,4.9c0.4,1.4,0.8,2.5,1,3.2h11.4c-0.7-1.7-1.6-3.7-2.6-6.1   C200.7,342.6,199.7,340.1,198.6,337.5 M181.1,332.8h-3.7h-3.6h-4.3c-0.4,0-0.8,0-1.1,0c0.9-2.6,1.9-5.2,2.8-7.8   c1-2.6,1.8-5,2.5-7.2c0.8-2,1.4-3.8,2-5.3c0.5-1.5,1-2.7,1.4-3.8c0.1-0.4,0.3-0.7,0.4-1.1c0.1,0.3,0.3,0.7,0.4,1.1   c0.4,1.1,0.8,2.3,1.4,3.8c0.5,1.4,1.2,3.1,1.9,5c0.7,1.9,1.4,3.9,2.2,6.1c0.8,2.2,1.6,4.4,2.4,6.7c0.3,0.9,0.6,1.7,0.9,2.5   c-0.5,0-1,0-1.5,0H181.1z"/>
	<path fill="#FFFFFF" d="M253.6,310.5c-1.2-1.8-2.8-3.3-4.8-4.5c-1.9-1.2-4.2-2-6.8-2.6c-2.6-0.5-5.7-0.8-9.1-0.8h-20.1   c0,1.5,0.1,3.1,0.1,4.8c0,1.8,0,3.7,0,5.7v6.5v7.3v9.3c0,2.8,0,5.4,0,7.9c0,2.4-0.1,4.7-0.1,6.9h20c3.6,0,6.7-0.3,9.3-0.9   c2.6-0.6,4.9-1.6,6.8-2.8c1.9-1.3,3.5-2.9,4.7-4.8c1.2-1.9,2.2-4.2,2.8-6.9c0.6-2.7,0.9-5.8,0.9-9.3c0-3.4-0.3-6.5-0.9-9.1   C255.8,314.5,254.9,312.3,253.6,310.5 M247.2,333c-0.4,1.8-0.9,3.4-1.7,4.6c-0.8,1.3-1.8,2.3-3,3c-1.2,0.7-2.6,1.3-4.2,1.6   c-1.6,0.3-3.4,0.5-5.5,0.5h-3.2c-1,0-2,0-2.9,0c-0.9,0-1.9-0.1-2.9-0.1c-0.3,0-0.7-0.1-1.1-0.1c0-0.8,0-1.6,0-2.6   c0-1.6,0-3.4,0-5.5v-7.3v-5.8c0-2,0-3.9,0.1-5.7c0-1.6,0.1-3,0.1-4.5c1.2,0,2.5-0.1,3.8-0.1c2,0,4.1-0.1,6.4-0.1   c2,0,3.8,0.2,5.4,0.5c1.6,0.3,3,0.8,4.2,1.5c1.2,0.7,2.2,1.6,2.9,2.8c0.8,1.2,1.3,2.7,1.7,4.4c0.4,1.7,0.6,3.9,0.6,6.4   C247.7,329,247.5,331.2,247.2,333"/>
	<path fill="#FFFFFF" d="M315.2,302.6H305c0.1,1.3,0.1,2.7,0.2,4.5c0,1.7,0,3.6,0.1,5.6c0,2,0,3.9,0,5.7v4.1   c-1.6,0.1-3.3,0.1-5.2,0.1c-2.5,0-5,0-7.5,0c-2.5,0-5,0-7.6,0c-1.8,0-3.5,0-5.2-0.1c0-1.3,0-2.7,0-4.2c0-1.9,0-3.8,0.1-5.7   c0-2,0-3.8,0.1-5.5c0-1.7,0-3.2,0.1-4.5H270c0.2,3.3,0.3,6.8,0.3,10.7c0,3.9-0.1,8.4-0.1,13.5c0,3.4,0,6.5,0.1,9.3   c0,2.8,0.1,5.4,0,7.8c0,2.4-0.1,4.8-0.3,7.1h10.2c0-1.3-0.1-2.9-0.1-4.6c0-1.7,0-3.5-0.1-5.4c0-1.9,0-3.7-0.1-5.5   c0-1.5,0-2.8,0-4.1c1.6-0.1,3.3-0.1,5.1-0.1c2.6,0,5.1,0,7.6,0c2.5,0,5,0,7.4,0c1.9,0,3.6,0.1,5.2,0.2v4c0,1.8,0,3.6,0,5.5   c0,1.9,0,3.7-0.1,5.4c0,1.8-0.1,3.3-0.2,4.6h10.2c0-2.3-0.1-4.7-0.1-7.1c0-2.4-0.1-5-0.1-7.8c0-2.8,0-5.9,0-9.3   c0-5.1,0-9.6,0.1-13.5C315.1,309.5,315.2,305.9,315.2,302.6"/>
	<path fill="#FFFFFF" d="M369.1,304.4c0-0.7,0-1.3,0.1-1.7h-38.8c0,1.4,0.1,3,0.1,4.7c0,1.7,0,3.6,0.1,5.7c0,2,0,4.2,0,6.5v7.3v9.5   c0,2.9,0,5.6-0.1,7.9c0,2.4-0.1,4.6-0.1,6.7h38.8c0-0.5-0.1-1.2-0.1-2V347v-2.4c0-0.9,0-1.5,0.1-2h-6.4c-2.2,0-4.3,0-6.5,0   c-2.2,0-4.3,0-6.5,0h-6H340v-1.2v-4.7v-5.2v-1.2h4.6h6.4c2.1,0,4.2,0,6.3,0c2.1,0,4,0,5.9,0c1.9,0,3.7,0,5.4,0.1V328v-3   c0-1,0-1.7,0.1-2.3c-1.7,0-3.5,0.1-5.4,0.1c-1.9,0-3.9,0-5.9,0H351c-2.1,0-4.2,0-6.3,0c-1.6,0-3.1,0-4.6,0v-0.8v-4.7   c0-1.7,0-3.3,0.1-4.8c0-0.7,0-1.4,0-2.1h3.6c1.9,0,3.8,0,5.9,0c2.1,0,4.2,0,6.4,0h6.6c2.2,0,4.4,0,6.6,0.1c0-0.4-0.1-1.1-0.1-1.9   v-2.4V304.4z"/>
	<path fill="#FFFFFF" d="M419.7,327.5c-1.5-1.2-3.5-2.2-6-3c-2.5-0.8-5.5-1.5-9.1-1.9c-2.4-0.3-4.4-0.7-6-1.1   c-1.6-0.4-2.9-0.8-3.9-1.2c-1-0.4-1.8-0.9-2.3-1.5c-0.5-0.6-0.8-1.2-1-1.7c-0.2-0.6-0.2-1.2-0.2-1.8c0-0.9,0.2-1.8,0.5-2.5   c0.3-0.7,1-1.3,1.8-1.7c0.9-0.5,2-0.8,3.4-1.1c1.4-0.3,3-0.4,4.9-0.4c2.3,0,4.3,0.1,5.8,0.4c1.6,0.3,2.8,0.7,3.7,1.4   c0.9,0.6,1.6,1.4,2,2.2c0.4,0.8,0.6,1.8,0.6,2.8v1v1.1c0.5,0,1.1-0.1,2-0.1c0.8,0,1.7,0,2.6,0c0.5,0,1.1,0,1.6,0   c0.6,0,1.1,0,1.6,0.1c0.5,0,0.9,0,1.3,0c0-0.3,0-0.7,0-1c0-0.3-0.1-0.7,0-1.1c0-0.4,0-0.7,0-1c0-1.7-0.2-3.2-0.7-4.7   c-0.5-1.4-1.2-2.7-2.3-3.8c-1.1-1.1-2.4-2.1-4.1-2.8c-1.7-0.8-3.6-1.4-6-1.7c-2.3-0.4-5-0.6-7.9-0.6c-3.5,0-6.6,0.3-9.1,0.9   c-2.6,0.6-4.7,1.6-6.4,2.8c-1.7,1.2-3,2.7-3.8,4.3c-0.9,1.7-1.3,3.5-1.3,5.6c0,1.6,0.2,3.1,0.6,4.5c0.4,1.4,1.1,2.6,2,3.7   c0.9,1.1,2.1,2.1,3.6,2.9c1.5,0.8,3.3,1.6,5.6,2.2c2.2,0.6,4.8,1.1,7.7,1.6c2.3,0.2,4.2,0.5,5.8,0.8c1.6,0.3,2.9,0.8,3.9,1.3   c1.1,0.5,1.9,1,2.5,1.6c0.6,0.5,1,1.1,1.3,1.8c0.3,0.6,0.4,1.4,0.4,2.3c0,0.9-0.2,1.8-0.5,2.6c-0.4,0.8-1,1.5-2,2.1   c-0.9,0.6-2.2,1-3.7,1.2c-1.5,0.3-3.4,0.4-5.6,0.4c-3,0-5.4-0.3-7.2-0.9c-1.8-0.6-3.2-1.5-4-2.6c-0.8-1.2-1.2-2.7-1.2-4.4v-0.7   v-0.7c-0.7,0.1-1.5,0.1-2.3,0.1h-2.6c-0.8,0-1.7,0-2.5-0.1c-0.9,0-1.5-0.1-2.1-0.1c0,0.4-0.1,0.8-0.1,1.1c0,0.3,0,0.7-0.1,1   c0,0.3,0,0.7,0,1c0,1.8,0.3,3.4,0.8,4.9c0.5,1.5,1.3,2.8,2.5,4c1.1,1.1,2.6,2.1,4.4,2.8c1.8,0.8,3.9,1.4,6.3,1.8   c2.4,0.5,5.1,0.7,8.3,0.7c2.9,0,5.4-0.2,7.7-0.7c2.2-0.5,4.2-1.1,5.9-1.9c1.7-0.8,3-1.8,4.1-3c1.1-1.2,1.9-2.5,2.4-4   c0.5-1.5,0.8-3.2,0.8-5c0-2.2-0.3-4.1-1-5.7C422.3,330.1,421.2,328.7,419.7,327.5"/>
	<path fill="#FFFFFF" d="M446.8,319.6v-6.2c0-1.9,0-3.7,0.1-5.5c0.1-1.8,0.1-3.5,0.2-5.3h-10c0,1.7,0.1,3.5,0.1,5.3   c0,1.8,0,3.6,0.1,5.6c0,1.9,0,4,0,6.2v7.2v7.2c0,2.2,0,4.2,0,6.1c0,1.9,0,3.7-0.1,5.6c0,1.8-0.1,3.6-0.1,5.4h10   c0-1.8-0.1-3.6-0.1-5.4c0-1.8-0.1-3.7-0.1-5.6c0-1.9,0-4,0-6.2v-7.1V319.6z"/>
	<path fill="#FFFFFF" d="M494.3,306.7c-0.5,1.7-1.2,3.7-1.9,6c-0.7,2.3-1.5,4.6-2.4,7.1c-0.9,2.5-1.7,4.9-2.6,7.4   c-0.9,2.5-1.6,4.8-2.3,7c-0.6,1.9-1.2,3.5-1.7,5.1c-0.5,1.5-0.9,2.9-1.3,4c-0.1,0.2-0.1,0.5-0.2,0.7c-0.1-0.2-0.1-0.4-0.2-0.7   c-0.4-1.1-0.8-2.4-1.4-3.9c-0.5-1.5-1.1-3.2-1.7-5.1c-0.6-1.8-1.3-3.7-2-5.7c-0.7-2-1.4-4-2.1-6.1c-0.7-2.1-1.3-4.1-2-6.1   c-0.7-2-1.3-3.9-1.9-5.6c-0.6-1.7-1.1-3.3-1.5-4.7c-0.4-1.4-0.7-2.5-0.9-3.4h-11.7c0.7,1.6,1.5,3.5,2.4,5.8   c0.9,2.3,1.9,4.7,2.8,7.3c1,2.6,2,5.4,3.1,8.2c1.1,2.8,2.1,5.6,3,8.4c0.9,2.8,1.9,5.4,2.8,7.8c0.9,2.5,1.7,4.6,2.3,6.5   c0.6,1.9,1.2,3.4,1.6,4.5c0.8,0,1.7-0.1,2.9-0.1h4.3h2.6h2.4c0.7,0,1.4,0,2.1,0.1c0.3-1.1,0.9-2.6,1.5-4.5c0.7-1.9,1.4-4.1,2.3-6.5   c0.8-2.4,1.8-5,2.8-7.7c1-2.7,2-5.5,3.1-8.3c1.1-2.8,2.1-5.5,3-8.2c1-2.7,1.9-5.1,2.8-7.4c0.9-2.3,1.7-4.2,2.3-5.8h-11.1   C495.2,303.6,494.8,305,494.3,306.7"/>
	<path fill="#FFFFFF" d="M554.5,304.4c0-0.7,0-1.3,0.1-1.7h-38.8c0,1.4,0.1,3,0.1,4.7c0,1.7,0,3.6,0.1,5.7c0,2,0,4.2,0,6.5v7.3v9.5   c0,2.9,0,5.6-0.1,7.9c0,2.4-0.1,4.6-0.1,6.7h38.8c0-0.5-0.1-1.2-0.1-2V347v-2.4c0-0.9,0-1.5,0.1-2h-6.4c-2.2,0-4.3,0-6.5,0   c-2.2,0-4.4,0-6.5,0h-6h-3.8v-1.2v-4.7v-5.2v-1.2h4.6h6.4c2.1,0,4.2,0,6.3,0c2.1,0,4,0,5.9,0c1.9,0,3.7,0,5.4,0.1V328v-3   c0-1,0-1.7,0.1-2.3c-1.7,0-3.5,0.1-5.4,0.1c-1.9,0-3.9,0-5.9,0h-6.3c-2.1,0-4.2,0-6.3,0c-1.6,0-3.1,0-4.6,0v-0.8v-4.7   c0-1.7,0-3.3,0.1-4.8c0-0.7,0-1.4,0-2.1h3.6c1.9,0,3.8,0,5.9,0c2.1,0,4.2,0,6.4,0h6.6c2.2,0,4.4,0,6.6,0.1c0-0.4-0.1-1.1-0.1-1.9   v-2.4V304.4z"/>
	<path fill="#FFFFFF" d="M608.4,331.8c-0.7-1.7-1.8-3.1-3.3-4.2c-1.5-1.2-3.5-2.2-6-3c-2.5-0.8-5.5-1.5-9.1-1.9   c-2.4-0.3-4.4-0.7-6-1.1c-1.6-0.4-2.9-0.8-3.9-1.2c-1-0.4-1.8-0.9-2.3-1.5c-0.5-0.6-0.8-1.2-1-1.7c-0.2-0.6-0.2-1.2-0.2-1.8   c0-0.9,0.2-1.8,0.5-2.5c0.3-0.7,1-1.3,1.8-1.7c0.9-0.5,2-0.8,3.4-1.1c1.4-0.3,3-0.4,4.9-0.4c2.3,0,4.3,0.1,5.8,0.4   c1.6,0.3,2.8,0.7,3.7,1.4c0.9,0.6,1.6,1.4,2,2.2c0.4,0.8,0.6,1.8,0.6,2.8v1v1.1c0.5,0,1.1-0.1,2-0.1c0.8,0,1.7,0,2.5,0   c0.5,0,1.1,0,1.6,0c0.6,0,1.1,0,1.6,0.1c0.5,0,0.9,0,1.3,0c0-0.3,0-0.7,0-1c0-0.3-0.1-0.7,0-1.1c0-0.4,0-0.7,0-1   c0-1.7-0.2-3.2-0.7-4.7c-0.5-1.4-1.2-2.7-2.3-3.8c-1.1-1.1-2.4-2.1-4.1-2.8c-1.7-0.8-3.6-1.4-6-1.7c-2.3-0.4-5-0.6-7.9-0.6   c-3.5,0-6.6,0.3-9.1,0.9c-2.6,0.6-4.7,1.5-6.4,2.8c-1.7,1.2-3,2.7-3.8,4.3c-0.9,1.7-1.3,3.5-1.3,5.6c0,1.6,0.2,3.1,0.6,4.5   c0.4,1.4,1.1,2.6,2,3.7c0.9,1.1,2.1,2.1,3.6,2.9c1.5,0.8,3.3,1.6,5.6,2.2c2.2,0.6,4.8,1.1,7.7,1.6c2.3,0.2,4.2,0.5,5.8,0.8   c1.6,0.3,2.9,0.8,3.9,1.3c1.1,0.5,1.9,1,2.5,1.6c0.6,0.5,1,1.1,1.3,1.8c0.3,0.6,0.4,1.4,0.4,2.3c0,0.9-0.2,1.8-0.5,2.6   c-0.4,0.8-1,1.5-2,2.1c-0.9,0.6-2.2,1-3.7,1.2c-1.5,0.3-3.4,0.4-5.6,0.4c-3,0-5.4-0.3-7.2-0.9c-1.8-0.6-3.2-1.5-4-2.6   c-0.8-1.2-1.2-2.7-1.2-4.4v-0.7v-0.7c-0.7,0.1-1.5,0.1-2.3,0.1h-2.6c-0.8,0-1.7,0-2.5-0.1c-0.9,0-1.6-0.1-2.1-0.1   c0,0.4-0.1,0.8-0.1,1.1c0,0.3,0,0.7-0.1,1s0,0.7,0,1c0,1.8,0.3,3.4,0.8,4.9c0.5,1.5,1.3,2.8,2.5,4c1.1,1.1,2.6,2.1,4.4,2.8   c1.8,0.8,3.9,1.4,6.3,1.8c2.4,0.5,5.1,0.7,8.3,0.7c2.9,0,5.4-0.2,7.7-0.7c2.2-0.5,4.2-1.1,5.9-1.9c1.7-0.8,3-1.8,4.1-3   c1.1-1.2,1.8-2.5,2.4-4c0.5-1.5,0.8-3.2,0.8-5C609.4,335.3,609.1,333.4,608.4,331.8"/>
</g>
</svg>