<?xml version="1.0" encoding="UTF-8"?>
<svg version="1.1" viewBox="0 0 500 110" xmlns="http://www.w3.org/2000/svg">
<title>logo esprinet pos</title>
<g fill="none" fill-rule="evenodd">
<path d="m181.59 49.788c-0.73099-5.8421-5.2924-8.7602-11.678-8.7602-6.0175 0-10.947 2.9181-12.591 8.7602h24.269zm-24.45 9.2164c0.72515 5.5614 5.5673 9.5731 13.409 9.5731 4.1053 0 9.4912-1.5497 12.047-4.193l7.117 7.0175c-4.7485 4.9298-12.503 7.3041-19.345 7.3041-15.515 0-24.719-9.5789-24.719-23.994 0-13.684 9.2982-23.538 23.895-23.538 15.058 0 24.456 9.3041 22.719 27.83h-35.123z" fill="#045090"/>
<path d="m227.93 44.496c-3.193-3.0117-6.8421-4.0175-11.129-4.0175-5.2924 0-8.2105 1.6433-8.2105 4.4737 0 2.9181 2.6491 4.5556 8.3918 4.924 8.4854 0.54971 19.251 2.462 19.251 14.415 0 7.9415-6.4795 14.784-19.345 14.784-7.1111 0-14.228-1.193-20.795-8.0292l5.4737-7.9415c3.193 3.5614 10.491 6.2047 15.509 6.2924 4.193 0.099415 8.117-2.0936 8.117-5.3801 0-3.0994-2.5556-4.3801-8.9415-4.7427-8.4854-0.63743-18.614-3.7368-18.614-13.959 0-10.398 10.772-14.053 18.982-14.053 7.0234 0 12.316 1.3743 17.515 5.9298l-6.2047 7.3041z" fill="#045090"/>
<path d="m278.74 55.076c0-7.0234-4.7485-12.772-12.772-12.772-8.0351 0-12.772 5.7485-12.772 12.772s5.1988 12.772 12.772 12.772c7.5731 0 12.772-5.7485 12.772-12.772zm-37.678 41.24v-63.772h10.398l0.73099 6.2047c3.4737-5.0175 9.4854-7.2105 14.596-7.2105 13.871 0 23.082 10.31 23.082 23.538 0 13.14-8.3041 23.538-22.713 23.538-4.7485 0-11.772-1.462-14.965-6.386v24.088h-11.129z" fill="#045090"/>
<path d="m306.1 32.544 0.83041 5.1988c3.4561-5.5614 8.1111-6.386 12.678-6.386 4.6491 0 9.117 1.8246 11.585 4.2865l-5.0175 9.6725c-2.2866-1.9181-4.3801-2.9181-8.0292-2.9181-5.8421 0-11.216 3.0994-11.216 11.404v23.719h-11.14v-44.977h10.31z" fill="#045090"/>
<path d="m333.1 77.522h11.129v-45.164h-11.129v45.164zm12.135-57.655c0 8.6667-13.14 8.6667-13.14 0 0-8.6725 13.14-8.6725 13.14 0z" fill="#045090"/>
<path d="m385.1 77.52v-23.538c0-6.8421-3.7427-12.041-10.854-12.041-6.8421 0-11.497 5.7427-11.497 12.591v22.988h-11.041v-45.07h9.9415l0.73099 6.1111c4.5614-4.462 9.1228-6.7485 14.784-6.7485 10.579 0 19.064 7.9415 19.064 22.076v23.632h-11.129z" fill="#045090"/>
<path d="m437.46 49.788c-0.72515-5.8421-5.2866-8.7602-11.673-8.7602-6.0234 0-10.953 2.9181-12.591 8.7602h24.263zm-24.45 9.2164c0.73099 5.5614 5.5673 9.5731 13.409 9.5731 4.1111 0 9.4912-1.5497 12.047-4.193l7.117 7.0175c-4.7485 4.9298-12.497 7.3041-19.339 7.3041-15.509 0-24.725-9.5789-24.725-23.994 0-13.684 9.3041-23.538 23.901-23.538 15.058 0 24.456 9.3041 22.719 27.83h-35.129z" fill="#045090"/>
<path d="m468.2 19.863v12.772h12.409v9.5789h-12.503v19.439c0 4.2865 2.3801 6.3801 5.8421 6.3801 1.731 0 3.7427-0.54386 5.3801-1.3684l3.1053 9.4912c-3.193 1.2749-5.8363 1.8246-9.2164 1.9123-9.7602 0.36842-16.146-5.2047-16.146-16.415v-19.439h-8.3918v-9.5789h8.3918v-11.585l11.129-1.1871z" fill="#045090"/>
<g transform="translate(.31286 .36784)">
<path d="m111.49 54.62c0 30.17-24.456 54.62-54.62 54.62-30.17 0-54.626-24.45-54.626-54.62 0-30.17 24.456-54.62 54.626-54.62 30.164 0 54.62 24.45 54.62 54.62" fill="#004F90"/>
<path d="m58.468 78.089c6.7544 0 14.415-2.3392 19.099-7.2047l-7.0292-6.9357c-2.5205 2.6082-7.8363 4.1404-11.889 4.1404-7.7485 0-12.52-3.9649-13.24-9.4561h-11.047c1.6608 11.836 10.374 19.456 24.105 19.456" fill="#FEFEFE"/>
<path d="m45.578 49.532v-0.017544c1.6316-5.7544 6.4912-8.6316 12.433-8.6316 6.3041 0 10.801 2.8772 11.532 8.6316v0.017544h-23.965zm34.368-0.017544c-1.7427-12.216-10.152-18.363-22.298-18.363-12.608 0-21.216 7.4503-23.175 18.363h-14.053-0.45614-3.0409v9.117h3.4971 13.942 11.035 34.064 0.61988c0.31579-3.3509 0.25146-6.3801-0.1345-9.117z" fill="#FEFEFE"/>
<polygon points="12.035 58.628 14.819 58.628 14.819 49.511 12.035 49.511" fill="#FEFEFE"/>
<polygon points="7.1404 58.628 9.2105 58.628 9.2105 49.511 7.1404 49.511" fill="#FEFEFE"/>
<polygon points="2.2456 58.628 3.6023 58.628 3.6023 49.511 2.2456 49.511" fill="#FEFEFE"/>
<path d="m45.404 58.629h-11.041c0.12281 0.87134 0.2924 1.7135 0.49123 2.538h11.222c-0.32164-0.80117-0.5614-1.6491-0.67251-2.538" fill="#9AB9D1"/>
</g>
<path d="m491.19 14.249h0.81286c0.94152 0 1.7018-0.31579 1.7018-1.0819 0-0.67251-0.49123-1.1228-1.5731-1.1228-0.45029 0-0.76608 0.040936-0.94152 0.093567v2.1111zm-0.046784 4.1813h-1.7134v-7.3801c0.67836-0.12866 1.6257-0.22222 2.8363-0.22222 1.3977 0 2.0234 0.22222 2.5673 0.53801 0.39766 0.31579 0.71345 0.90643 0.71345 1.6257 0 0.80117-0.62573 1.4386-1.5263 1.7076v0.087719c0.71345 0.27485 1.1287 0.81287 1.3509 1.8012 0.22807 1.1228 0.35672 1.5731 0.53801 1.8421h-1.8421c-0.22807-0.26901-0.36257-0.94152-0.5848-1.7953-0.14035-0.81287-0.5848-1.1696-1.5263-1.1696h-0.81287v2.9649zm-4.5439-3.8655c0 3.2807 2.4269 5.8947 5.7602 5.8947 3.2398 0 5.6199-2.614 5.6199-5.8538 0-3.2807-2.3801-5.9357-5.6725-5.9357-3.2807 0-5.7076 2.655-5.7076 5.8947zm13.269 0c0 4.1813-3.2807 7.4678-7.5614 7.4678-4.2222 0-7.5965-3.2865-7.5965-7.4678 0-4.0936 3.3743-7.3801 7.5965-7.3801 4.2807 0 7.5614 3.2865 7.5614 7.3801z" fill="#045090"/>
</g>
</svg>
