<svg xmlns="http://www.w3.org/2000/svg" xmlns:xlink="http://www.w3.org/1999/xlink" viewBox="0 0 800 171.63"><defs><style>      .st0 {        fill: #019ba4;      }      .st1 {        clip-path: url(#clippath-4);      }      .st2 {        fill: #fff;      }      .st3 {        fill: none;      }      .st4 {        clip-path: url(#clippath-1);      }      .st5 {        isolation: isolate;      }      .st6 {        clip-path: url(#clippath-3);      }      .st7 {        mix-blend-mode: screen;      }      .st8 {        clip-path: url(#clippath-2);      }      .st9 {        fill: #4f6679;      }      .st10 {        clip-path: url(#clippath);      }    </style><clipPath id="clippath"><rect class="st3" width="800" height="171.21"></rect></clipPath><clipPath id="clippath-1"><rect class="st3" width="800" height="171.21"></rect></clipPath><clipPath id="clippath-2"><rect class="st3" y="6.74" width="571.34" height="160.18"></rect></clipPath><clipPath id="clippath-3"><rect class="st3" width="800" height="171.21"></rect></clipPath><clipPath id="clippath-4"><rect class="st3" x="675.73" y=".19" width="124.27" height="120.41"></rect></clipPath></defs><g class="st5"><g id="Livello_1"><g id="Disegno_17"><g class="st10"><g class="st4"><path class="st9" d="M503.92,43.11l36.88,62.37h-73.76l36.88-62.37ZM494.67,30.96l-57.41,97.73h16.84l5.81-11.08h88.02l6.56,11.08h16.84s-58.16-97.73-58.16-97.73h-18.51Z"></path><g class="st8"><path class="st9" d="M424.1,62.08v8.95c0,15.49-8.81,19.73-20.19,20.79v.31c15.17,2.74,18.82,10.62,18.82,20.64v15.93h-13.97v-11.99c0-17.15-8.35-19.28-21.85-19.28h-24.23v-12.14h23.02c16.54,0,23.52-4.41,23.52-15.94v-10.02c0-12.3-5.31-16.24-27.17-16.24h-67.68v85.6h-14.87V30.96h87.87c31.71,0,36.73,10.47,36.73,31.11"></path><polygon class="st9" points="292.82 30.96 292.82 43.11 237.28 43.11 237.28 128.7 222.41 128.7 222.41 43.11 166.86 43.11 166.86 30.96 292.82 30.96"></polygon><rect class="st9" x="67.16" y="90.3" width="93.02" height="38.39"></rect><rect class="st9" x="67.16" y="43.1" width="93.02" height="35.06"></rect><path class="st9" d="M160.18,140.84v12.35c0,7.58-6.15,13.73-13.73,13.73H13.73C6.14,166.92,0,160.77,0,153.19V20.47C0,12.88,6.14,6.74,13.73,6.74h132.72c7.59,0,13.73,6.14,13.73,13.73v10.49H52.28v109.88h107.9Z"></path><polygon class="st9" points="242.79 166.86 237.52 166.86 227.79 141.15 227.67 141.15 228.16 166.86 222.28 166.86 222.28 136.2 231.72 136.2 240.06 158.97 240.22 158.97 248.39 136.2 258.04 136.2 258.04 166.86 252.15 166.86 252.64 141.03 252.44 141.03 242.79 166.86"></polygon><polygon class="st9" points="321.27 148.87 335.61 148.87 335.61 153.7 321.27 153.7 321.27 161.83 336.51 161.83 336.51 166.86 315.38 166.86 315.38 136.2 336.39 136.2 336.39 141.23 321.27 141.23 321.27 148.87"></polygon><polygon class="st9" points="405.71 166.86 399.83 166.86 399.83 141.23 390.84 141.23 390.84 136.2 414.71 136.2 414.71 141.23 405.71 141.23 405.71 166.86"></polygon><path class="st9" d="M475,161.05l-1.92,5.8h-6.09l10.18-30.65h8.66l10.38,30.65h-5.97l-2-5.8h-13.24ZM481.66,140.7h-.08l-5.23,15.9h10.58l-5.27-15.9Z"></path><polygon class="st9" points="557.03 161.83 571.34 161.83 571.34 166.86 551.15 166.86 551.15 136.2 557.03 136.2 557.03 161.83"></polygon></g><g class="st6"><path class="st0" d="M707.99,147.62l9.18-8.88c.63-.61,1.26-1.38,1.88-2.32.63-.94.95-1.83.95-2.67,0-1.14-.44-2.21-1.31-3.21s-1.99-1.5-3.35-1.5-2.52.46-3.5,1.37c-.97.9-1.46,2.27-1.46,4.1h-2.22c0-2.33.65-4.16,1.95-5.48,1.31-1.32,3.06-1.98,5.23-1.98,1.89,0,3.51.66,4.85,1.98,1.34,1.31,2.01,2.89,2.01,4.74,0,1.12-.27,2.15-.8,3.1-.52.95-1.24,1.86-2.14,2.73l-8.28,7.96h11.12v2h-14.12v-1.94Z"></path><path class="st0" d="M732.36,141.33v-5.84c0-3.02.75-5.18,2.24-6.49,1.51-1.3,3.21-1.95,5.1-1.95,2.25,0,4.06.74,5.42,2.22,1.36,1.47,2.04,3.38,2.04,5.73v5.6c0,3.26-.68,5.64-2.04,7.11-1.35,1.47-3.18,2.2-5.48,2.2-2.09,0-3.83-.73-5.22-2.2-1.38-1.48-2.07-3.6-2.07-6.37M734.57,135.83v5.48c0,2.18.43,3.82,1.28,4.94.86,1.11,2.15,1.66,3.86,1.66,3.49,0,5.23-2.26,5.23-6.78v-5.76c0-1.89-.45-3.41-1.34-4.58-.88-1.17-2.17-1.75-3.85-1.75-1.56,0-2.81.56-3.76,1.69-.95,1.12-1.43,2.81-1.43,5.09"></path><path class="st0" d="M757.01,141.33v-5.84c0-3.02.75-5.18,2.24-6.49,1.51-1.3,3.21-1.95,5.1-1.95,2.25,0,4.06.74,5.42,2.22,1.36,1.47,2.04,3.38,2.04,5.73v5.6c0,3.26-.68,5.64-2.04,7.11-1.35,1.47-3.18,2.2-5.48,2.2-2.09,0-3.83-.73-5.22-2.2-1.38-1.48-2.07-3.6-2.07-6.37M759.23,135.83v5.48c0,2.18.43,3.82,1.28,4.94.86,1.11,2.15,1.66,3.86,1.66,3.49,0,5.23-2.26,5.23-6.78v-5.76c0-1.89-.45-3.41-1.34-4.58-.88-1.17-2.17-1.75-3.85-1.75-1.56,0-2.81.56-3.76,1.69-.95,1.12-1.43,2.81-1.43,5.09"></path><path class="st0" d="M792.14,127.4l-5.03,7.65c.81-.29,1.54-.44,2.22-.44,2.09,0,3.82.76,5.19,2.27,1.38,1.52,2.07,3.31,2.07,5.38s-.7,3.97-2.11,5.44c-1.41,1.47-3.19,2.2-5.35,2.2s-4.08-.73-5.48-2.2c-1.4-1.48-2.1-3.38-2.1-5.71,0-1.74.82-3.81,2.46-6.21l5.66-8.38h2.48ZM783.76,142.31c0,1.52.5,2.83,1.5,3.93,1.01,1.11,2.28,1.66,3.8,1.66s2.83-.54,3.82-1.62c.99-1.09,1.49-2.41,1.49-3.98s-.5-2.96-1.5-4.05c-.99-1.1-2.26-1.65-3.8-1.65-1.44,0-2.68.54-3.73,1.63-1.05,1.08-1.57,2.43-1.57,4.07"></path><path class="st9" d="M707.09,170.56v-2.37l9.27-8.96c.61-.6,1.23-1.36,1.84-2.27.6-.89.9-1.73.9-2.5,0-1.06-.42-2.07-1.24-3.01-.82-.94-1.84-1.4-3.12-1.4s-2.36.42-3.29,1.29c-.9.84-1.36,2.14-1.36,3.88v.3h-2.82v-.3c0-2.4.69-4.32,2.04-5.69,1.37-1.38,3.2-2.07,5.45-2.07,1.97,0,3.67.7,5.06,2.07,1.39,1.36,2.1,3.03,2.1,4.95,0,1.16-.28,2.26-.84,3.25-.54.97-1.27,1.91-2.2,2.8l-7.74,7.44h10.68v2.6h-14.72Z"></path><path class="st2" d="M714.75,147.76c1.89,0,3.51.66,4.85,1.98,1.34,1.31,2.01,2.89,2.01,4.74,0,1.12-.27,2.15-.8,3.1-.52.95-1.24,1.86-2.14,2.73l-8.28,7.96h11.12v2h-14.12v-1.94l9.18-8.88c.63-.61,1.26-1.38,1.88-2.32.63-.94.95-1.83.95-2.67,0-1.14-.44-2.21-1.31-3.21-.87-1-1.99-1.5-3.35-1.5s-2.52.46-3.5,1.37c-.97.9-1.46,2.27-1.46,4.1h-2.22c0-2.33.65-4.16,1.95-5.48,1.31-1.32,3.06-1.98,5.23-1.98M714.75,147.16c-2.33,0-4.24.73-5.66,2.16-1.41,1.43-2.13,3.42-2.13,5.9v.6h3.42v-.6c0-1.64.43-2.87,1.27-3.66.87-.81,1.88-1.21,3.09-1.21s2.14.42,2.9,1.3c.78.9,1.16,1.82,1.16,2.81,0,.71-.29,1.5-.85,2.33-.6.89-1.2,1.64-1.8,2.22l-9.18,8.88-.18.18v2.8h15.33v-3.2h-10.23l7.2-6.92c.94-.9,1.7-1.87,2.25-2.87.58-1.03.88-2.18.88-3.39,0-2.01-.74-3.74-2.19-5.17-1.45-1.43-3.22-2.15-5.27-2.15"></path><path class="st9" d="M739.24,170.91c-2.17,0-4-.77-5.44-2.29-1.43-1.53-2.15-3.74-2.15-6.58v-5.84c0-3.1.79-5.36,2.35-6.71,1.56-1.35,3.34-2.03,5.3-2.03,2.33,0,4.23.78,5.64,2.31,1.41,1.52,2.12,3.51,2.12,5.93v5.6c0,3.33-.71,5.79-2.12,7.32-1.4,1.52-3.32,2.3-5.7,2.3M739.36,150.06c-1.48,0-2.63.52-3.53,1.58-.9,1.06-1.36,2.7-1.36,4.89v5.48c0,2.1.41,3.7,1.22,4.76.81,1.04,2,1.54,3.62,1.54,3.32,0,4.93-2.12,4.93-6.48v-5.76c0-1.81-.43-3.29-1.28-4.39-.83-1.1-2.01-1.63-3.61-1.63"></path><path class="st2" d="M739.3,147.76c2.25,0,4.06.74,5.42,2.22,1.36,1.47,2.04,3.38,2.04,5.73v5.6c0,3.26-.68,5.64-2.04,7.11-1.35,1.47-3.18,2.2-5.48,2.2-2.09,0-3.83-.73-5.22-2.2-1.38-1.48-2.07-3.6-2.07-6.37v-5.84c0-3.02.75-5.18,2.24-6.49,1.51-1.3,3.21-1.95,5.1-1.95M739.31,168.62c3.49,0,5.23-2.26,5.23-6.78v-5.76c0-1.89-.45-3.41-1.34-4.58-.88-1.17-2.17-1.75-3.85-1.75-1.56,0-2.81.56-3.76,1.69-.95,1.12-1.43,2.81-1.43,5.09v5.48c0,2.18.43,3.82,1.28,4.94.86,1.11,2.15,1.66,3.86,1.66M739.3,147.16c-2.03,0-3.88.71-5.49,2.1-1.63,1.42-2.45,3.75-2.45,6.94v5.84c0,2.91.75,5.2,2.23,6.78,1.5,1.59,3.41,2.39,5.66,2.39,2.47,0,4.46-.81,5.92-2.4,1.46-1.58,2.2-4.11,2.2-7.52v-5.6c0-2.5-.74-4.56-2.2-6.14-1.47-1.6-3.44-2.41-5.86-2.41M739.31,168.01c-1.53,0-2.64-.47-3.39-1.43-.77-1-1.16-2.54-1.16-4.57v-5.48c0-2.12.43-3.7,1.28-4.7.84-1,1.92-1.48,3.3-1.48,1.5,0,2.6.49,3.37,1.51.81,1.06,1.22,2.47,1.22,4.21v5.76c0,5.54-2.64,6.18-4.63,6.18"></path><path class="st9" d="M756.8,170.56v-2.37l9.27-8.96c.61-.59,1.23-1.36,1.84-2.27.6-.89.9-1.73.9-2.5,0-1.06-.42-2.07-1.24-3.01-.82-.94-1.84-1.4-3.13-1.4s-2.37.43-3.29,1.29c-.9.84-1.36,2.14-1.36,3.88v.3h-2.82v-.3c0-2.4.69-4.32,2.04-5.69,1.37-1.38,3.2-2.07,5.45-2.07,1.97,0,3.67.7,5.06,2.07,1.39,1.36,2.1,3.03,2.1,4.95,0,1.16-.28,2.26-.84,3.25-.54.97-1.28,1.92-2.2,2.8l-7.74,7.44h10.68v2.6h-14.72Z"></path><path class="st2" d="M764.46,147.76c1.89,0,3.51.66,4.85,1.98,1.34,1.31,2.01,2.89,2.01,4.74,0,1.12-.27,2.15-.8,3.1-.52.95-1.24,1.86-2.14,2.73l-8.28,7.96h11.12v2h-14.12v-1.94l9.18-8.88c.63-.61,1.26-1.38,1.88-2.32.63-.94.95-1.83.95-2.67,0-1.14-.44-2.21-1.31-3.21-.87-1-1.99-1.5-3.35-1.5s-2.52.46-3.5,1.37c-.97.9-1.46,2.27-1.46,4.1h-2.22c0-2.33.65-4.16,1.95-5.48,1.31-1.32,3.06-1.98,5.23-1.98M764.46,147.16c-2.33,0-4.24.73-5.66,2.16-1.41,1.43-2.13,3.42-2.13,5.9v.6h3.42v-.6c0-1.64.43-2.87,1.27-3.66.87-.81,1.88-1.21,3.09-1.21s2.14.42,2.9,1.3c.78.9,1.16,1.82,1.16,2.81,0,.71-.29,1.5-.85,2.33-.6.89-1.2,1.64-1.8,2.22l-9.18,8.88-.18.18v2.8h15.33v-3.2h-10.23l7.2-6.92c.94-.9,1.7-1.87,2.25-2.87.58-1.03.88-2.18.88-3.39,0-2.01-.74-3.74-2.19-5.17-1.45-1.43-3.22-2.15-5.27-2.15"></path><path class="st9" d="M789.13,170.91c-2.33,0-4.25-.77-5.7-2.29-1.45-1.53-2.18-3.52-2.18-5.92,0-1.79.85-3.94,2.52-6.38l5.88-10.27h3.13l-5.03,9.2c.56-.15,1.1-.23,1.59-.23,2.17,0,3.99.8,5.41,2.37,1.42,1.57,2.15,3.44,2.15,5.58s-.74,4.13-2.2,5.65c-1.46,1.52-3.33,2.29-5.57,2.29M789.07,157.62c-1.37,0-2.52.5-3.51,1.54-.99,1.02-1.49,2.31-1.49,3.86,0,1.43.48,2.69,1.42,3.73.96,1.05,2.13,1.56,3.58,1.56s2.66-.5,3.6-1.52c.93-1.03,1.41-2.3,1.41-3.78s-.48-2.82-1.42-3.85c-.94-1.04-2.11-1.55-3.58-1.55"></path><path class="st2" d="M792.26,146.35l-5.15,9.41c.81-.29,1.54-.44,2.22-.44,2.09,0,3.82.76,5.19,2.27,1.38,1.52,2.07,3.31,2.07,5.38s-.7,3.97-2.11,5.44c-1.41,1.47-3.19,2.2-5.35,2.2s-4.08-.73-5.48-2.2c-1.4-1.48-2.1-3.38-2.1-5.71,0-1.74.82-3.81,2.46-6.21l5.81-10.14h2.45ZM789.07,168.62c1.55,0,2.83-.54,3.82-1.62.99-1.09,1.49-2.41,1.49-3.98s-.5-2.96-1.5-4.05c-.99-1.1-2.26-1.65-3.8-1.65-1.44,0-2.68.54-3.73,1.63-1.05,1.08-1.57,2.43-1.57,4.07,0,1.52.5,2.83,1.5,3.94,1.01,1.11,2.28,1.66,3.8,1.66M793.28,145.75h-3.81l-.17.3-5.79,10.12c-1.7,2.48-2.55,4.68-2.55,6.53,0,2.48.76,4.54,2.26,6.13,1.51,1.59,3.5,2.39,5.92,2.39s4.26-.8,5.78-2.39c1.51-1.58,2.28-3.55,2.28-5.85s-.75-4.16-2.23-5.78c-1.48-1.64-3.38-2.47-5.63-2.47-.32,0-.66.03-1.01.09l4.47-8.17.49-.89ZM789.07,168.01c-1.36,0-2.46-.48-3.36-1.47-.9-1-1.34-2.16-1.34-3.53,0-1.48.46-2.68,1.4-3.65.94-.98,2.02-1.45,3.3-1.45,1.38,0,2.48.47,3.36,1.45.91.99,1.35,2.18,1.35,3.65s-.43,2.59-1.33,3.57c-.88.96-1.98,1.42-3.37,1.42"></path><path class="st0" d="M695.55,46.49c0,6.89-.98,13.53-2.95,19.93-1.97,6.4-5.17,12.96-9.59,19.68-4.43,6.73-10.25,14.02-17.47,21.89l-41.82,46.98-2.95-15.5h76.75v30.75h-104.79v-26.81l44.77-48.95c6.89-7.54,12.21-13.86,15.99-18.94,3.77-5.08,6.4-9.59,7.87-13.53,1.48-3.94,2.21-7.87,2.21-11.81,0-5.9-1.81-10.54-5.41-13.9-3.61-3.36-7.96-5.04-13.04-5.04s-10.62,1.72-16.11,5.17c-5.5,3.44-11.28,9.35-17.34,17.71l-23.12-17.22c4.59-7.54,9.67-14.06,15.25-19.56,5.57-5.49,11.85-9.76,18.82-12.79C629.58,1.52,637.25,0,645.62,0c10.49,0,19.43,2.05,26.81,6.15,7.38,4.1,13.08,9.68,17.1,16.73,4.02,7.05,6.03,14.92,6.03,23.62"></path><g class="st7"><g class="st1"><path class="st9" d="M738.03,119.1c-8.79,0-16.99-1.46-24.38-4.33-7.4-2.88-13.89-7.01-19.29-12.27-5.4-5.26-9.65-11.55-12.63-18.7-2.98-7.13-4.49-15.01-4.49-23.41s1.51-16.44,4.49-23.57c2.99-7.15,7.24-13.41,12.64-18.62,5.39-5.2,11.88-9.3,19.28-12.18,7.38-2.87,15.58-4.33,24.38-4.33s16.8,1.46,24.13,4.33c7.34,2.88,13.8,6.98,19.19,12.18,5.4,5.21,9.65,11.47,12.64,18.62,2.98,7.14,4.49,15.07,4.49,23.57s-1.51,16.27-4.49,23.41c-2.99,7.15-7.24,13.44-12.63,18.7-5.4,5.26-11.86,9.39-19.2,12.27-7.33,2.87-15.45,4.33-24.13,4.33M738.03,25.5c-6.78,0-12.91,1.49-18.22,4.44-5.29,2.94-9.49,7.04-12.48,12.2-2.99,5.16-4.51,11.3-4.51,18.26s1.52,12.97,4.52,18.18c2.99,5.2,7.18,9.3,12.47,12.19,5.31,2.9,11.45,4.37,18.23,4.37s12.85-1.47,18.05-4.36c5.18-2.88,9.32-6.98,12.31-12.19,3-5.22,4.52-11.33,4.52-18.18s-1.52-13.12-4.52-18.34c-2.99-5.21-7.14-9.31-12.31-12.19-5.2-2.89-11.27-4.36-18.05-4.36"></path><path class="st9" d="M738.03,3.2c8.53,0,16.4,1.41,23.58,4.22,7.19,2.82,13.42,6.77,18.7,11.86,5.28,5.09,9.37,11.13,12.3,18.12,2.92,6.99,4.38,14.65,4.38,22.99s-1.46,15.85-4.38,22.83c-2.92,6.99-7.02,13.05-12.3,18.2-5.28,5.15-11.51,9.13-18.7,11.94-7.19,2.81-15.05,4.22-23.58,4.22s-16.59-1.41-23.83-4.22c-7.24-2.82-13.51-6.8-18.78-11.94-5.28-5.14-9.38-11.21-12.3-18.2-2.92-6.99-4.38-14.6-4.38-22.83s1.46-16,4.38-22.99c2.92-6.99,7.02-13.03,12.3-18.12,5.28-5.09,11.54-9.04,18.78-11.86,7.24-2.82,15.19-4.22,23.83-4.22M738.03,96.64c7.08,0,13.34-1.52,18.78-4.55,5.44-3.03,9.74-7.28,12.89-12.76,3.14-5.47,4.72-11.78,4.72-18.93s-1.57-13.62-4.72-19.09c-3.14-5.47-7.44-9.72-12.89-12.76-5.45-3.03-11.71-4.55-18.78-4.55s-13.39,1.54-18.95,4.63c-5.56,3.09-9.91,7.34-13.05,12.76-3.14,5.42-4.72,11.76-4.72,19.01s1.57,13.46,4.72,18.93c3.14,5.47,7.5,9.73,13.05,12.76,5.56,3.03,11.88,4.55,18.95,4.55M738.03.19c-8.98,0-17.37,1.49-24.92,4.43-7.59,2.95-14.25,7.16-19.78,12.5-5.55,5.35-9.92,11.79-12.98,19.12-3.06,7.32-4.61,15.44-4.61,24.15s1.55,16.68,4.61,23.99c3.07,7.34,7.43,13.79,12.97,19.19,5.54,5.4,12.2,9.64,19.79,12.59,7.56,2.94,15.95,4.43,24.92,4.43s17.17-1.49,24.68-4.43c7.53-2.95,14.16-7.19,19.7-12.59,5.54-5.4,9.9-11.86,12.97-19.19,3.06-7.32,4.61-15.4,4.61-23.99s-1.55-16.83-4.61-24.15c-3.07-7.34-7.44-13.77-12.98-19.12-5.54-5.34-12.16-9.54-19.69-12.5-7.5-2.94-15.81-4.43-24.68-4.43M738.03,93.63c-6.53,0-12.42-1.41-17.51-4.18-5.04-2.75-9.04-6.66-11.89-11.61-2.86-4.98-4.32-10.85-4.32-17.43s1.45-12.57,4.31-17.5c2.85-4.91,6.86-8.83,11.91-11.64,5.08-2.82,10.97-4.25,17.49-4.25s12.35,1.4,17.32,4.17c4.94,2.75,8.89,6.66,11.74,11.63,2.86,4.99,4.32,10.91,4.32,17.59s-1.45,12.45-4.32,17.43c-2.85,4.97-6.8,8.88-11.74,11.63-4.97,2.77-10.8,4.17-17.32,4.17"></path></g></g></g></g></g></g></g></g></svg>