<svg viewBox="0 0 210.6 39.070251046025106" data-name="Livello 2" id="Livello_2" xmlns="http://www.w3.org/2000/svg" style="max-height: 500px" width="210.6" height="39.070251046025106"><defs><style> .cls-1 { fill: #990a2c; } .cls-1, .cls-2, .cls-3 { stroke-width: 0px; } .cls-2 { fill: #929292; } .cls-3 { fill: #fff; } </style></defs><g data-name="Livello 1" id="Livello_1-2"><rect height="38.25" width="209.38" y=".38" x=".38" class="cls-3"/><path d="m.77.76h208.62v37.49H.77V.76Zm-.77,38.25h210.15V0H0v39.01Z" class="cls-2"/><rect height="30.14" width="168.97" y="4.43" x="4.28" class="cls-2"/><g><path d="m13.66,20.97c.15-1.34.99-2.68,2.62-2.68,1.44,0,2.31.89,2.31,2.68h-4.93Zm8.75,9.28l.57-4.27c-1.65.49-3.42,1.01-5.2,1.01-1.98,0-4.12-.89-4.12-3.24h10.46v-1.89c0-4.4-3.01-6.99-7.97-6.99-5.56,0-8.2,3.39-8.2,7.97s2.41,8,8.72,8c2.34,0,4.09-.22,5.74-.58" class="cls-1"/><path d="m8.16,22.83c0-4.86,2.99-7.76,8-7.76s7.76,2.53,7.76,6.78v1.68h-10.46v.21c0,2.54,2.33,3.44,4.33,3.44,1.71,0,3.42-.48,4.95-.93-.06.51-.47,3.55-.51,3.81-1.75.38-3.46.56-5.56.56-5.57,0-8.51-2.69-8.51-7.79m-.41,0c0,3.74,1.55,8.2,8.92,8.2,2.18,0,3.97-.18,5.79-.59l.14-.03.63-4.73-.31.09c-1.58.47-3.38,1-5.14,1s-3.76-.75-3.89-2.82h10.44v-2.1c0-4.5-3.06-7.2-8.17-7.2s-8.41,3.06-8.41,8.17" class="cls-1"/><path d="m16.28,18.49c1.31,0,2.02.8,2.09,2.27h-4.44c.19-1.1.89-2.27,2.36-2.27m-2.82,2.46l-.03.23h5.37v-.21c0-1.84-.92-2.89-2.52-2.89-1.84,0-2.67,1.54-2.82,2.87" class="cls-1"/><path d="m36.97,30.46h5.71v-15.23h-5.71v6.5c0,3.11-1.24,4.33-2.77,4.33-1.65,0-2.34-1.19-2.34-2.69v-8.15h-5.71v10.95c0,2.99,2.05,4.64,5.65,4.64,2.28,0,4-.55,5.11-2.29l.06-.07v1.98Z" class="cls-1"/><path d="m42.48,15.44v14.82h-5.3v-2.49l-.44.66c-.98,1.54-2.46,2.19-4.94,2.19-3.51,0-5.45-1.57-5.45-4.43v-10.75h5.3v7.95c0,1.81.95,2.89,2.55,2.89.9,0,2.97-.44,2.97-4.54v-6.3h5.3Zm-5.71-.41v6.71c0,2.66-.91,4.13-2.56,4.13-1.93,0-2.14-1.74-2.14-2.48v-8.36h-6.12v11.17c0,3.08,2.14,4.85,5.86,4.85,2.37,0,3.91-.65,4.97-2.01v1.64h6.12v-15.65h-6.12Z" class="cls-1"/><path d="m62.86,22.83c0-2.17,1.08-3.69,3.16-3.69s3.12,1.53,3.12,3.69c0,2.29-1.08,3.72-3.12,3.72s-3.16-1.43-3.16-3.72m11.99,0c0-5.65-4.36-7.97-8.84-7.97s-8.87,2.32-8.87,7.97,4.39,8,8.87,8,8.84-2.35,8.84-8" class="cls-1"/><path d="m57.35,22.83c0-5.72,4.47-7.76,8.66-7.76s8.63,2.04,8.63,7.76-4.65,7.79-8.63,7.79-8.66-2.04-8.66-7.79m-.41,0c0,6.06,4.89,8.2,9.07,8.2s9.04-2.15,9.04-8.2-4.87-8.17-9.04-8.17-9.07,2.14-9.07,8.17" class="cls-1"/><path d="m63.07,22.83c0-2.18,1.1-3.49,2.95-3.49s2.92,1.3,2.92,3.49-1.06,3.52-2.92,3.52-2.95-1.25-2.95-3.52m-.41,0c0,2.5,1.22,3.93,3.36,3.93s3.33-1.47,3.33-3.93-1.28-3.9-3.33-3.9-3.36,1.49-3.36,3.9" class="cls-1"/><path d="m50.83,15.4h-5.79v14.89h6.04v-6.74c0-2.8,1.81-3.84,3.72-3.84.54,0,1.12.15,1.69.3l-.44-4.8c-.42-.12-.89-.15-1.31-.15-1.78,0-2.89.84-3.85,2.03l-.06-.06v-1.61Z" class="cls-1"/><path d="m51.05,17.2c1.1-1.37,2.2-1.95,3.69-1.95,0,0,.9.1,1.11.12.02.29.36,3.87.4,4.36-.47-.12-.98-.24-1.46-.24-1.9,0-3.93,1.06-3.93,4.05v6.54h-5.63v-14.47h5.38v1.99l.43-.4Zm-.02-.59v-1.41h-6.2v15.3h6.46v-6.95c0-3.38,2.69-3.64,3.52-3.64.52,0,1.09.15,1.63.29l.28.07-.49-5.26-.13-.02-1.36-.16c-1.83,0-2.93.89-3.71,1.77" class="cls-1"/></g><polygon points="140.04 31.15 154.47 31.15 154.47 25 147.94 25 147.94 22.16 153.67 22.16 153.67 17.57 147.94 17.57 147.94 14.79 154.24 14.79 154.24 8.63 140.04 8.63 140.04 31.15" class="cls-3"/><polygon points="140.04 31.15 154.47 31.15 154.47 25 147.94 25 147.94 22.16 153.67 22.16 153.67 17.57 147.94 17.57 147.94 14.79 154.24 14.79 154.24 8.63 140.04 8.63 140.04 31.15 140.04 8.63 154.24 8.63 154.24 14.79 147.94 14.79 147.94 17.57 153.67 17.57 153.67 22.16 147.94 22.16 147.94 25 154.47 25 154.47 31.15 140.04 31.15" class="cls-2"/><polygon points="156.35 31.15 170.14 31.15 170.14 25.02 164.19 25.02 164.19 8.63 156.35 8.63 156.35 31.15" class="cls-3"/><polygon points="156.35 31.15 170.14 31.15 170.14 25.02 164.19 25.02 164.19 8.63 156.35 8.63 156.35 31.15 156.35 8.63 164.19 8.63 164.19 25.02 170.14 25.02 170.14 31.15 156.35 31.15" class="cls-2"/><polygon points="124.18 8.63 115.99 8.63 124.35 31.15 131.63 31.15 139.36 8.63 131.17 8.63 128.03 19.85 124.18 8.63" class="cls-3"/><polygon points="124.18 8.63 115.99 8.63 124.35 31.15 131.63 31.15 139.36 8.63 131.17 8.63 128.03 19.85 124.18 8.63 128.03 19.85 131.17 8.63 139.36 8.63 131.63 31.15 124.35 31.15 115.99 8.63 124.18 8.63" class="cls-2"/><g><path d="m110.33,8.63c3.45.01,6.18,3.08,6.18,6.86,0,2.95-1.66,5.46-3.98,6.42l5.29,9.21h-8.22l-4.47-7.52h-.88v7.54h-7.36V8.63h13.44Zm-4,5.53c1.28,0,2.31,1.01,2.31,2.26s-1.03,2.26-2.31,2.26h-1.99v-4.52h1.99Z" class="cls-3"/><path d="m106.33,14.16c1.28,0,2.31,1.01,2.31,2.26s-1.03,2.26-2.31,2.26h-1.99v-4.52h1.99Z" class="cls-2"/></g><rect height="30.14" width="29.75" y="4.37" x="175.98" class="cls-2"/><polygon points="182.36 25.87 182.36 13.12 175.98 19.5 182.36 25.87" class="cls-1"/><polygon points="182.36 25.87 182.36 13.12 175.98 19.5 182.36 25.87 175.98 19.5 182.36 13.12 182.36 25.87" class="cls-1"/><polygon points="199.36 25.87 199.36 13.12 205.73 19.5 199.36 25.87" class="cls-1"/><polygon points="199.36 25.87 199.36 13.12 205.73 19.5 199.36 25.87 205.73 19.5 199.36 13.12 199.36 25.87" class="cls-1"/><polygon points="197.23 11 184.48 11 190.86 4.62 197.23 11" class="cls-1"/><polygon points="197.23 11 184.48 11 190.86 4.62 197.23 11 190.86 4.62 184.48 11 197.23 11" class="cls-1"/><polygon points="184.48 28 197.23 28 190.86 34.37 184.48 28" class="cls-1"/><polygon points="184.48 28 197.23 28 190.86 34.37 184.48 28 190.86 34.37 197.23 28 184.48 28" class="cls-1"/><rect height="15.46" width="15.46" y="11.77" x="183.13" class="cls-3"/><polygon points="183.13 11.77 198.59 11.77 198.59 27.23 183.13 27.23 198.59 27.23 198.59 11.77 183.13 11.77" class="cls-3"/><g><path d="m83.57,8.35c-6.56,0-11.94,4.6-11.94,11.67s5.36,11.56,11.94,11.56,11.94-4.33,11.94-11.56-5.39-11.67-11.94-11.67m0,7.41c2.49,0,3.09,2,3.09,4.39,0,2.57-.71,4.33-3.09,4.33s-3.09-1.76-3.09-4.33c0-2.39.6-4.39,3.09-4.39" class="cls-3"/><path d="m213.17,2.38h.31c.35,0,.65-.13.65-.46,0-.24-.17-.47-.65-.47-.14,0-.23.01-.31.02v.91Zm0,1.49h-.43V1.18c.23-.03.44-.07.76-.07.41,0,.68.09.84.2.16.12.25.3.25.56,0,.35-.24.57-.52.65v.02c.24.04.4.26.45.65.07.42.13.58.17.67h-.45c-.07-.09-.13-.33-.18-.69-.06-.34-.24-.47-.58-.47h-.3v1.16Zm.45-3.44c-1.06,0-1.93.91-1.93,2.03s.87,2.05,1.94,2.05c1.07.01,1.93-.9,1.93-2.04s-.86-2.04-1.93-2.04h0Zm0-.38c1.32,0,2.37,1.07,2.37,2.41s-1.05,2.42-2.38,2.42-2.39-1.06-2.39-2.42,1.07-2.41,2.39-2.41h0Z" class="cls-3"/></g><path d="m5.11,43.97l2.17,4.92H2.94l2.17-4.92Zm-.33-.6l-3.62,8.08h.67l.88-1.98h4.82l.89,1.98h.67l-3.62-8.08h-.68Z" class="cls-3"/><g><path d="m20.45,50.33c-.81.81-1.88,1.21-2.94,1.21-2.72,0-4.14-1.9-4.15-4.09-.02-2.16,1.38-4.18,4.15-4.18,1.06,0,2.13.4,2.94,1.21l-.43.37c-.69-.69-1.6-1.03-2.51-1.03-2.35,0-3.57,1.66-3.55,3.6.02,1.89,1.22,3.53,3.55,3.53.91,0,1.83-.35,2.53-1.03l.42.39Z" class="cls-3"/><path d="m32.36,50.33c-.81.81-1.88,1.21-2.94,1.21-2.72,0-4.14-1.9-4.15-4.09-.02-2.16,1.38-4.18,4.15-4.18,1.06,0,2.13.4,2.94,1.21l-.43.37c-.69-.69-1.6-1.03-2.51-1.03-2.35,0-3.57,1.66-3.56,3.6.02,1.89,1.22,3.53,3.56,3.53.91,0,1.83-.35,2.53-1.03l.42.39Z" class="cls-3"/></g><polygon points="37.97 43.37 37.97 51.45 43.68 51.45 43.68 50.85 38.58 50.85 38.58 47.66 43.31 47.66 43.31 47.1 38.58 47.1 38.58 43.96 43.54 43.96 43.54 43.37 37.97 43.37" class="cls-3"/><g><path d="m54.68,44.93c-.59-.95-1.54-1.09-2.45-1.1-.95,0-2.45.35-2.45,1.64,0,1.03,1.11,1.27,2.47,1.52,1.56.3,3.17.58,3.17,2.32-.01,1.82-1.85,2.26-3.2,2.26-1.26,0-2.69-.52-3.31-1.75l.55-.28c.5.98,1.77,1.47,2.76,1.47s2.57-.28,2.57-1.71c.01-1.21-1.33-1.48-2.65-1.73-1.48-.29-2.99-.59-2.99-2.08-.03-1.71,1.74-2.24,3.07-2.24,1.15,0,2.16.19,2.95,1.37l-.51.3Z" class="cls-3"/><path d="m66.14,44.93c-.59-.95-1.54-1.09-2.45-1.1-.95,0-2.45.35-2.45,1.64,0,1.03,1.11,1.27,2.47,1.52,1.56.3,3.17.58,3.17,2.32-.01,1.82-1.85,2.26-3.2,2.26-1.26,0-2.69-.52-3.31-1.75l.55-.28c.5.98,1.76,1.47,2.76,1.47s2.57-.28,2.57-1.71c.01-1.21-1.33-1.48-2.65-1.73-1.48-.29-2.99-.59-2.99-2.08-.03-1.71,1.74-2.24,3.07-2.24,1.15,0,2.16.19,2.95,1.37l-.51.3Z" class="cls-3"/><path d="m80.15,47.42c-.01,2.12-1.36,4.17-4.07,4.17s-4.07-2.05-4.07-4.19,1.35-4.16,4.07-4.16,4.08,2,4.07,4.18m-7.53-.01c.01,1.82,1.16,3.6,3.46,3.6s3.47-1.78,3.47-3.6-1.15-3.59-3.47-3.59-3.47,1.68-3.46,3.59" class="cls-3"/><path d="m92.23,51.45h-.82l-2.79-3.06h-2.2v3.06h-.62v-8.08h3.55c1.75,0,2.64,1.26,2.65,2.51.01,1.32-.85,2.47-2.62,2.47l2.85,3.09Zm-5.82-3.65h2.86c1.41,0,2.03-.8,2.04-1.93.01-.95-.64-1.93-1.97-1.93h-2.93v3.86Z" class="cls-3"/></g><rect height="8.08" width=".61" y="43.37" x="97.43" class="cls-3"/><path d="m111.92,48.66v2.79h-.62v-8.08h3.54c3.51,0,3.51,5.29,0,5.29h-2.92Zm0-4.71v4.14h2.92c2.69,0,2.69-4.14,0-4.14h-2.92Z" class="cls-3"/><polygon points="122.99 43.37 122.99 51.45 128.7 51.45 128.7 50.85 123.6 50.85 123.6 47.66 128.33 47.66 128.33 47.1 123.6 47.1 123.6 43.96 128.57 43.96 128.57 43.37 122.99 43.37" class="cls-3"/><path d="m140.68,51.45h-.82l-2.79-3.06h-2.2v3.06h-.62v-8.08h3.55c1.75,0,2.64,1.26,2.65,2.51.01,1.32-.85,2.47-2.62,2.47l2.85,3.09Zm-5.82-3.65h2.86c1.41,0,2.03-.8,2.04-1.93.01-.95-.64-1.93-1.97-1.93h-2.93v3.86Z" class="cls-3"/><polygon points="160.09 43.37 157.03 48.08 153.94 43.37 153.2 43.37 153.2 51.45 153.82 51.45 153.82 44.27 156.94 49 157.15 49 160.24 44.27 160.24 51.45 160.85 51.45 160.85 43.37 160.09 43.37" class="cls-3"/><g><path d="m174.58,47.42c-.01,2.12-1.36,4.17-4.07,4.17s-4.08-2.05-4.08-4.19,1.35-4.16,4.08-4.16,4.08,2,4.07,4.18m-7.54-.01c.01,1.82,1.17,3.6,3.46,3.6s3.47-1.78,3.47-3.6-1.15-3.59-3.47-3.59-3.47,1.68-3.46,3.59" class="cls-3"/><path d="m186.18,45.58c0,.83-.51,1.48-1.31,1.73,1.01.28,1.59,1.1,1.59,2.03,0,1.66-1.55,2.11-2.93,2.11h-3.31v-8.08h3.31c1.36,0,2.65.67,2.65,2.2m-5.34,1.45h2.77c.97,0,1.99-.3,1.99-1.45s-1.06-1.67-2.07-1.67h-2.69v3.13Zm0,3.82h2.69c1.01,0,2.32-.24,2.32-1.52-.01-1.26-1.15-1.71-2.24-1.71h-2.77v3.23Z" class="cls-3"/></g><rect height="8.08" width=".61" y="43.37" x="192.11" class="cls-3"/><polygon points="198.65 43.37 198.65 51.45 203.82 51.45 203.82 50.86 199.27 50.86 199.27 43.37 198.65 43.37" class="cls-3"/><rect height="8.08" width=".61" y="43.37" x="209.16" class="cls-3"/></g></svg>