<?xml version="1.0" encoding="UTF-8" standalone="no"?>
<!-- Created with Inkscape (http://www.inkscape.org/) -->

<svg
   version="1.1"
   id="svg2"
   width="677.33331"
   height="180"
   viewBox="0 0 677.33331 180"
   sodipodi:docname="Faber-Logo-Vector-cdr.eps"
   xmlns:inkscape="http://www.inkscape.org/namespaces/inkscape"
   xmlns:sodipodi="http://sodipodi.sourceforge.net/DTD/sodipodi-0.dtd"
   xmlns="http://www.w3.org/2000/svg"
   xmlns:svg="http://www.w3.org/2000/svg">
  <defs
     id="defs6" />
  <sodipodi:namedview
     id="namedview4"
     pagecolor="#ffffff"
     bordercolor="#000000"
     borderopacity="0.25"
     inkscape:showpageshadow="2"
     inkscape:pageopacity="0.0"
     inkscape:pagecheckerboard="0"
     inkscape:deskcolor="#d1d1d1" />
  <g
     id="g8"
     inkscape:groupmode="layer"
     inkscape:label="ink_ext_XXXXXX"
     transform="matrix(1.3333333,0,0,-1.3333333,0,180)">
    <g
       id="g10"
       transform="scale(0.1)">
      <path
         d="M 12.25,1339.7 H 5073.61 V 5.82813 H 12.25 Z"
         style="fill:none;stroke:#fefefe;stroke-width:5.0003;stroke-linecap:butt;stroke-linejoin:miter;stroke-miterlimit:2.61313;stroke-dasharray:none;stroke-opacity:1"
         id="path12" />
      <path
         d="m 988.254,526.414 v 514.756 c 0,24.97 -20.195,45.16 -45.117,45.16 H 428.383 c -24.922,0 -45.117,-20.19 -45.117,-45.16 V 526.414 c 0,-24.922 20.195,-45.164 45.117,-45.164 h 514.754 c 24.922,0 45.117,20.242 45.117,45.164 z M 901.535,959.043 H 698.586 C 627.563,957.875 597.883,922.07 585.742,874.5 c -3.941,-15.477 -5.754,-33.324 -6.433,-51.937 h 211.273 v 92.082 h 61.336 V 770.418 c 0,-34.102 -1.422,-70.648 -8.805,-99.68 C 826.133,604.176 779.082,550.563 671.051,549.273 H 469.988 v 59.278 H 671 c 70.902,1.242 100.531,37.012 112.68,84.617 4.8,18.785 6.383,44.047 6.769,68.023 H 578.836 V 651.348 H 517.5 v 145.828 c 0,34.14 1.336,70.687 8.801,99.719 16.937,66.48 63.949,120.045 171.762,121.385 h 203.472 v -59.237"
         style="fill:#000000;fill-opacity:1;fill-rule:nonzero;stroke:none"
         id="path14" />
      <path
         d="M 1404.03,933.695 V 839.68 h 248.76 V 741.289 H 1404.03 V 531.391 h -122.5 v 505.239 h 490.96 V 933.695 h -368.46"
         style="fill:#000000;fill-opacity:1;fill-rule:nonzero;stroke:none"
         id="path16" />
      <path
         d="m 3055.52,887.07 c 0,24.11 -18.01,46.832 -60.05,46.832 h -201.23 v -95.339 h 201.23 c 42.04,0 60.05,23.5 60.05,48.507 z m 34.1,-199.48 c 0,28.316 -28.05,54.344 -72.14,54.344 H 2794.24 V 634.109 h 223.24 c 44.09,0 72.14,25.993 72.14,53.481 z m -60.1,-156.199 H 2671.7 v 505.239 h 335.84 c 95.37,0 179.35,-47.825 179.35,-136.903 0,-36.582 -19.17,-68.922 -52.02,-89.989 l -14.16,-9.082 15.57,-6.48 c 49.58,-20.633 83.63,-60.387 83.63,-115.121 0,-88.692 -81.7,-147.664 -190.39,-147.664"
         style="fill:#000000;fill-opacity:1;fill-rule:nonzero;stroke:none"
         id="path18" />
      <path
         d="m 3415.11,531.391 v 505.239 h 490.95 V 933.695 h -368.47 v -95.132 h 356.63 V 741.934 H 3537.59 V 634.109 h 368.47 V 531.391 h -490.95"
         style="fill:#000000;fill-opacity:1;fill-rule:nonzero;stroke:none"
         id="path20" />
      <path
         d="m 4523.49,864.082 c 0,33.371 -20.58,69.82 -92.68,69.82 H 4245.45 V 795.027 h 185.36 c 72.1,0 92.68,36.34 92.68,69.055 z m 245.33,-332.691 h -96.92 l -5.16,0.132 c -64.59,0.934 -119.74,17.543 -166.19,62.661 -10.47,8.961 -19.73,17.019 -26.37,22.769 l -47.66,42.031 c -25.43,22.731 -44.98,33.118 -74.54,33.118 H 4245.45 V 531.391 h -122.54 v 505.279 h 317.2 c 138.03,0 205.62,-79.729 205.62,-169.111 0,-58.539 -18.02,-118.465 -97.91,-152.602 l -11.46,-3.855 232.46,-179.711"
         style="fill:#000000;fill-opacity:1;fill-rule:nonzero;stroke:none"
         id="path22" />
      <path
         d="m 2042,743.953 h 222.64 l -86.63,165.16 c -1.76,0 -44.18,6.782 -72.18,-48.972 z m -49.53,153.5 c 34.57,59.914 73.38,130.127 183.13,137.117 52.75,2.57 76.01,2.06 76.01,2.06 l 266.03,-505.716 h -142 l -59.57,114.258 H 1985.91 L 1922.94,530.914 H 1788.1 l 204.37,366.539"
         style="fill:#000000;fill-opacity:1;fill-rule:nonzero;stroke:none"
         id="path24" />
      <path
         d="m 1376.32,274.402 -28.4,62.442 -28.55,-62.442 z m -32.08,71.231 h 7.72 l 50.26,-108.762 h -8.79 l -13.73,30.285 h -63.73 l -13.72,-30.285 h -8.32 l 50.31,108.762"
         style="fill:#000000;fill-opacity:1;fill-rule:nonzero;stroke:none"
         id="path26" />
      <path
         d="m 1580.26,236.918 h 8.03 v 107.961 h -8.03 V 236.918"
         style="fill:#000000;fill-opacity:1;fill-rule:nonzero;stroke:none"
         id="path28" />
      <path
         d="m 1820.14,288.859 c 18.05,0 31.44,9.129 31.44,24.704 v 0.289 c 0,14.503 -11.37,23.632 -30.97,23.632 h -36.89 v -48.625 z m -44.39,56.008 h 45.29 c 13.3,0 23.94,-4.207 30.45,-10.637 5.06,-5.058 8.15,-12.355 8.15,-20.074 v -0.304 c 0,-18.051 -13.43,-28.352 -31.65,-30.832 l 35.68,-46.149 h -10.21 l -34.44,44.774 h -35.3 v -44.774 h -7.97 v 107.996"
         style="fill:#000000;fill-opacity:1;fill-rule:nonzero;stroke:none"
         id="path30" />
      <path
         d="m 2241.87,344.867 h 7.51 l 43.36,-63.816 43.4,63.816 h 7.55 V 236.918 h -8.02 v 93.797 l -42.72,-62.199 h -0.65 l -42.71,62.199 v -93.797 h -7.72 v 107.949"
         style="fill:#000000;fill-opacity:1;fill-rule:nonzero;stroke:none"
         id="path32" />
      <path
         d="m 2603,274.402 -28.35,62.442 -28.57,-62.442 z m -32.08,71.231 h 7.76 l 50.27,-108.762 h -8.76 l -13.76,30.285 h -63.73 l -13.73,-30.285 h -8.32 l 50.27,108.762"
         style="fill:#000000;fill-opacity:1;fill-rule:nonzero;stroke:none"
         id="path34" />
      <path
         d="m 2821.98,337.484 h -37.65 v 7.383 h 83.34 v -7.383 h -37.66 V 236.871 h -8.03 v 100.613"
         style="fill:#000000;fill-opacity:1;fill-rule:nonzero;stroke:none"
         id="path36" />
      <path
         d="m 3076.11,337.484 h -37.61 v 7.383 h 83.29 v -7.383 h -37.61 V 236.871 h -8.07 v 100.613"
         style="fill:#000000;fill-opacity:1;fill-rule:nonzero;stroke:none"
         id="path38" />
      <path
         d="m 3300.34,344.867 h 76.86 v -7.383 h -68.85 v -42.418 h 61.86 v -7.414 h -61.86 v -43.367 h 69.58 v -7.367 h -77.59 v 107.949"
         style="fill:#000000;fill-opacity:1;fill-rule:nonzero;stroke:none"
         id="path40" />
      <path
         d="m 3602.32,288.859 c 18.02,0 31.44,9.129 31.44,24.704 v 0.289 c 0,14.503 -11.42,23.632 -31.01,23.632 h -36.89 v -48.625 z m -44.47,56.008 h 45.37 c 13.3,0 23.89,-4.207 30.37,-10.637 5.09,-5.058 8.18,-12.355 8.18,-20.074 v -0.304 c 0,-18.051 -13.42,-28.352 -31.61,-30.832 l 35.64,-46.149 h -10.21 l -34.39,44.774 h -35.34 v -44.774 h -8.01 v 107.996"
         style="fill:#000000;fill-opacity:1;fill-rule:nonzero;stroke:none"
         id="path42" />
      <path
         d="m 3816.63,252.613 5.25,6.008 c 11.82,-10.906 22.85,-16 38.71,-16 16.22,0 27.32,9.094 27.32,21.449 v 0.289 c 0,11.418 -6,18.02 -30.57,22.989 -25.91,5.242 -36.41,14.031 -36.41,30.406 v 0.305 c 0,16.039 14.66,28.351 34.7,28.351 15.77,0 26.07,-4.293 37.08,-13.078 l -5.14,-6.348 c -10.16,8.789 -20.37,12.18 -32.25,12.18 -15.87,0 -26.37,-9.059 -26.37,-20.328 v -0.301 c 0,-11.418 5.87,-18.359 31.48,-23.637 25,-5.105 35.46,-14.027 35.46,-29.761 v -0.34 c 0,-17.422 -14.92,-29.469 -35.77,-29.469 -17.28,0 -30.53,5.75 -43.49,17.285"
         style="fill:#000000;fill-opacity:1;fill-rule:nonzero;stroke:none"
         id="path44" />
    </g>
  </g>
</svg>
