<svg xml:space="preserve" style="max-height: 500px" viewBox="-141.264 163.94400000000002 618.096 130.4" y="0px" x="0px" xmlns:xlink="http://www.w3.org/1999/xlink" xmlns="http://www.w3.org/2000/svg" id="layer" version="1.1" width="618.096" height="130.4">
<title>Cappe</title>
<path d="M-116.5,227.3h-15.4v-16.7h15.4c0-22.5,9.8-37.1,37.1-37.1c5.1,0,10.3,0.3,15.4,0.5v20.6c-3-0.3-5.9-0.5-8.7-0.5&#xA;&#9;c-7.3,0-11.9,0.8-11.9,7.9v8.6h19.2v16.7h-19v54.3h-32.1V227.3z M-15.7,267.9c15.2,0,20.3-7,19.5-23.2c-4.4,2.2-12.9,2.7-19.7,4.3&#xA;&#9;c-7.1,1.4-13.2,3.8-13.2,10C-29,265.4-22.9,267.9-15.7,267.9 M-57,227.2c0.6-10.3,6.5-17,15.2-21.1c8.7-4,20-5.4,31.1-5.4&#xA;&#9;c23.2,0,45.6,4.1,45.6,26.3v34.3c0,6.7,0,14,3.8,20.2H6.4c-1.1-2.4-1.4-4.9-1.9-7.5c-8.3,7-20.5,9.7-32.2,9.7&#xA;&#9;c-18.6,0-33.3-7.6-33.3-23.8c0-25.6,34.6-23.7,56.8-27.3c5.4-1,8.4-2.4,8.4-7.3c0-5.9-8.9-8.1-15.4-8.1c-8.9,0-14.4,3.2-16,9.8H-57&#xA;&#9;V227.2z M50.5,173.5h32.1v108.1H50.5V173.5z M97.1,203h31.1v10.8h0.3c5.9-7.9,16.2-13,28.1-13c12.2,0,23.2,3.2,28.4,12.7&#xA;&#9;c7.8-8.3,17.3-12.7,30.5-12.7c31.1,0,34.4,18.9,34.4,34v47h-32.1v-46.3c0-8.4-5.1-13.5-13.3-13.5c-13.7,0-15.1,8.4-15.1,21.1v38.4&#xA;&#9;h-31.9v-44.6c0-9.2-3.3-14.9-12.1-14.9c-11.4,0-16.3,5.2-16.3,21.3v38.3H97.1L97.1,203L97.1,203z M328.9,234.1&#xA;&#9;c-0.6-8.7-8.3-16-19-16c-11.3,0-18.9,6.5-20.6,16H328.9z M289.2,248.6c0.6,10.8,8.3,17.9,21.9,17.9c7.8,0,15.2-2.9,18.3-8.6h29.8&#xA;&#9;c-5.9,18.1-26.7,26-48.6,26c-31.7,0-53.5-15.4-53.5-41.7c0-24.1,24-41.3,52.7-41.3c34.9,0,52.5,21.1,51,47.8h-71.6V248.6z&#xA;&#9; M435.9,231.8c-0.2-6.7-7.5-11.4-15.6-11.4c-17.9,0-20.6,12.2-20.6,23.2c0,10.2,5.4,20.6,19,20.6c11.1,0,16.7-5.1,18.3-13.5h31.1&#xA;&#9;c-2.9,21-23.2,33.2-49,33.2c-29.4,0-51.1-16.2-51.1-40.3c0-24.9,19.7-42.9,51.1-42.9c24.3,0,45.9,10.3,48.1,31h-31.3V231.8z&#xA;&#9; M-116.8,316h9.8v40.5h22.9v8.3h-32.7V316z M-78.2,316h9.2v8.3h-9.2V316z M-78.2,329.9h9.2v34.9h-9.2V329.9z M-64.3,329.9h4.8v-3.2&#xA;&#9;c0-8.6,6.7-11.6,15.6-10.6v7.1c-4.3-0.2-6.2,0.3-6.2,4v2.5h6.2v6.3h-6.2v28.6h-9.2V336h-4.8v-6.2H-64.3z M-41.4,347.3&#xA;&#9;c0-10.3,7-18.4,17.3-18.4c11.3,0,17.3,8.6,17.3,21.1h-25.4c0.6,5.4,3.7,8.7,8.9,8.7c3.7,0,5.7-1.6,6.8-4.3h9.2&#xA;&#9;c-1.3,6.2-6.8,11.4-15.9,11.4C-34.9,365.7-41.4,357.6-41.4,347.3z M-32.2,343.5h15.6c-0.3-4.4-3.2-7.5-7.5-7.5&#xA;&#9;C-29,336-31.4,338.9-32.2,343.5z M10.5,316h9.2v8.3h-9.2V316z M10.5,329.9h9.2v34.9h-9.2V329.9z M35.7,334.6h0.2&#xA;&#9;c2.4-3.8,5.6-5.7,10.3-5.7c7.3,0,12.1,5.4,12.1,13v22.9h-9.2v-21.4c0-3.8-2.2-6.3-6-6.3c-4.1,0-7.1,3.3-7.1,8.1v19.8h-9.2V330h9&#xA;&#9;L35.7,334.6L35.7,334.6z M62.7,353.5h8.6c0.6,4,3.5,5.7,7.6,5.7c4.1,0,6.3-1.6,6.3-4c0-3.3-4.4-3.7-9.2-4.6&#xA;&#9;c-6.2-1.3-12.4-2.9-12.4-10.6c0-7.6,6.2-11.1,14.3-11.1c9.2,0,14.3,4.6,14.9,11.6h-8.4c-0.5-3.8-2.9-5.1-6.8-5.1c-3.7,0-6,1.4-6,3.8&#xA;&#9;c0,3,4.6,3.3,9.7,4.3c5.9,1.3,12.4,2.9,12.4,11.1c0,7-6,11.3-14.8,11.3C68.9,365.7,63.2,360.8,62.7,353.5z M98.7,329.9h8.9v4.3h0.2&#xA;&#9;c2.2-3,5.6-5.2,10.3-5.2c9.2,0,15.2,7.6,15.2,18.4c0,11.3-6.2,18.4-15.1,18.4c-4.9,0-8.1-1.9-10.2-4.9h-0.2v15.4h-9.2L98.7,329.9&#xA;&#9;L98.7,329.9z M124,347.6c0-6.7-2.4-11.3-8.1-11.3s-8.1,4.9-8.1,11.3s2.9,10.5,8.4,10.5C121,358.1,124,354.1,124,347.6z M138.6,316&#xA;&#9;h9.2v8.3h-9.2V316z M138.6,329.9h9.2v34.9h-9.2V329.9z M163.7,335.4h0.2c2.1-4,4.4-6,8.6-6c1,0,1.6,0,2.2,0.3v8.1h-0.3&#xA;&#9;c-6-0.6-10.5,2.5-10.5,10v17h-9.2v-34.9h8.9v5.6H163.7z M176.7,347.3c0-10.3,7-18.4,17.3-18.4c11.3,0,17.3,8.6,17.3,21.1h-25.4&#xA;&#9;c0.6,5.4,3.7,8.7,8.9,8.7c3.7,0,5.7-1.6,6.8-4.3h9.2c-1.3,6.2-6.8,11.4-15.9,11.4C183.3,365.7,176.7,357.6,176.7,347.3z M186,343.5&#xA;&#9;h15.6c-0.3-4.4-3.2-7.5-7.5-7.5C189.2,336,186.8,338.9,186,343.5z M214.8,347.3c0-11,6.2-18.4,14.9-18.4c4.9,0,7.9,2.2,9.8,5.2h0.2&#xA;&#9;V316h9.2v48.7H240v-4.6h-0.2c-2.1,3.3-5.6,5.6-10.5,5.6C220.6,365.7,214.8,358.6,214.8,347.3z M240,347.5c0-6.7-2.2-11.1-8.1-11.1&#xA;&#9;c-5.1,0-7.8,4.4-7.8,11c0,6.8,2.7,10.6,7.5,10.6C237,357.9,240,354,240,347.5z M255.2,354.9h10v9.8h-10V354.9z"/>
</svg>