<svg enable-background="new 0 0 268.26 112.99" viewBox="0 0 268.26 112.99" xmlns="http://www.w3.org/2000/svg"><g fill="#009fdf"><ellipse cx="223.33" cy="19.02" rx="9.44" ry="9.44" transform="matrix(.7071 -.7071 .7071 .7071 51.9614 163.4927)"/><path d="m249.34 62.25-17.77-10.04v-15.77h-16.47v18.63l-12.36 6.98v-10.8l-26.21-14.81-17.23 9.73-17.24-9.73-8.26 4.66v-4.66h-17.95v14.81l-14.46 8.17v-22.98h-15.37v6.74l-6.75-6.74h-18.75l-12.91 12.9h-12.35l-7.25-29.66 10.65-5.19 25.03 7.65 22.13-22.14h-61.24l-24.58 12 12.46 37.34h-12.46l4.33 12.99h12.46l16.9 50.66 13.76-13.76-9.02-36.9h9.17l12.92 12.91h18.75l6.75-6.75 6.75 6.75h10.19l12.89-7.29v7.29h17.95v-17.43l8.26-4.67 8.26 4.67v17.43h17.95v-17.43l8.26-4.67 8.26 4.67v10.82l17.96 10.14 23.13-13.07 16.9 9.55h21.16l4.33-12.99zm-177.63 1.8-8.21-8.21 8.21-8.21 8.21 8.21z"/></g></svg>