<?xml version="1.0" encoding="UTF-8"?>
<!-- Generator: Adobe Illustrator 15.1.0, SVG Export Plug-In . SVG Version: 6.00 Build 0)  -->
<svg xmlns="http://www.w3.org/2000/svg" xmlns:xlink="http://www.w3.org/1999/xlink" version="1.1" id="Livello_1" x="0px" y="0px" width="615.586px" height="79px" viewBox="0 0 615.586 79" xml:space="preserve">
<path fill="#C5C5C5" d="M62.012,124.905c0,0,19.977,49.312,87.02,24.18c68.606-25.736,272.619-114.112,430.802,8.184  c0,0-181.489-94.856-430.219-0.858C-98.931,250.355,62.012,124.905,62.012,124.905"/>
<path fill="#C5C5C5" d="M113.856,179.262c0,0,146.302-82.42,230.801-7.567C344.657,171.694,251.938,120.719,113.856,179.262"/>
<path fill="#C5C5C5" d="M273.113,129.441c0,0,162.821-27.352,226.617,72.028C499.729,201.469,422.149,121.764,273.113,129.441"/>
<path fill="#C5C5C5" d="M287.625,136.119c0,0,101.745-12.822,185.569,50.733c0,0-79.795-54.616-127.173-28.542  C346.022,158.311,333.316,140.775,287.625,136.119"/>
<path fill="#C5C5C5" d="M376.276,121.823c0,0,128.357-14.859,231.48,57.893c0,0-98.367-62.571-158.773-32.529  C448.982,147.187,433.587,127.097,376.276,121.823"/>
<path fill="#C5C5C5" d="M64.887,112.071c0,0,4.559,52.867,79.597,34.609C144.483,146.68,90.224,156.85,64.887,112.071"/>
<path fill="#000000" d="M607.988,7.31v63.906h-17V27.293c-13.469,12.41-26.953,24.821-40.434,37.233l-40.444-37.233v43.923h-16.992  V7.31h16.992c13.479,12.412,26.959,24.821,40.444,37.224c13.48-12.402,26.965-24.812,40.434-37.224H607.988z"/>
<path fill="#000000" d="M415.167,7.925c16.41,21.098,32.82,42.193,49.229,63.291h-19.87c-3.545-4.544-7.083-9.096-10.62-13.648  h-29.581h-29.584c-3.538,4.553-7.072,9.104-10.621,13.648h-19.87c16.41-21.098,32.82-42.193,49.229-63.291h10.846H415.167z   M424.088,44.952l-19.764-25.414l-19.764,25.414h19.764H424.088z"/>
<path fill="#000000" d="M337.233,19.526v14.652c0,6.405-4.901,11.603-10.948,11.603h-63.503v25.436h-19.929V7.924h83.432  C332.332,7.924,337.233,13.122,337.233,19.526 M317.492,28.807v-3.908c0-3.203-2.446-5.802-5.473-5.802h-49.237v15.511h49.237  C315.045,34.608,317.492,32.01,317.492,28.807"/>
<path fill="#000000" d="M164.901,7.925l49.23,63.291H194.26c-3.537-4.544-7.082-9.096-10.62-13.648h-29.584h-29.581  c-3.538,4.553-7.075,9.104-10.613,13.648H93.984l49.23-63.291h10.842H164.901z M173.831,44.952l-19.774-25.414l-19.764,25.414  h19.764H173.831z"/>
<polygon fill="#000000" points="100.429,8.548 100.429,19.722 31.864,19.722 31.864,35.232 68.199,35.232 68.199,47.644   31.864,47.644 31.864,71.216 10.755,71.216 10.755,8.548 "/>
</svg>