<svg version="1.1" id="Livello_1" xmlns="http://www.w3.org/2000/svg" xmlns:xlink="http://www.w3.org/1999/xlink" x="0px" y="0px" viewBox="0 0 429 122.4" style="enable-background:new 0 0 429 122.4;" xml:space="preserve">
<style type="text/css">
	.st0{fill:#009FE3;}
	.st1{fill:#000000;}
</style>
<g>
	<path class="st0" d="M46.8,14.5L60,1.3c-33.1,0-60,26.9-60,60L46.8,14.5z"></path>
	<path class="st0" d="M75.6,16.9l18.7,18.7l0,0l12.2-12.2C95.6,10,78.9,1.3,60.1,1.3l0,0L75.6,16.9z"></path>
	<path class="st0" d="M60.1,121.4l-10.1-10L34.4,95.8l13.2-13.2l31.2-31.2l0,0L60,32.6l-7.8,7.8l11,11L47.6,66.9l-11-11l-21,21
		L0,61.4C0,94.5,26.9,121.4,60.1,121.4L60.1,121.4L60.1,121.4z"></path>
	<path class="st1" d="M96.8,64.5L65.4,95.9l19.9,19.9c20.5-9.5,34.8-30.3,34.8-54.5c0-6.1-0.9-12-2.6-17.5L96.8,64.5z"></path>
	<polygon class="st1" points="133.5,34.6 133.5,1.3 151,1.3 151,4.9 137.5,4.9 137.5,14.5 151,14.5 151,18.2 137.5,18.2 137.5,34.6 
			"></polygon>
	<polygon class="st1" points="157.4,34.6 157.4,1.3 174.9,1.3 174.9,4.9 161.3,4.9 161.3,14.5 174.9,14.5 174.9,18.2 161.3,18.2 
		161.3,30.9 174.9,30.9 174.9,34.6 	"></polygon>
	<path class="st1" d="M182.3,34.6V1.3h7.8c2.2,0,3.9,0.1,4.9,0.4c1,0.2,2,0.7,2.7,1.3c1,0.8,1.8,1.8,2.3,3.1s0.8,2.7,0.8,4.3
		c0,2.7-0.8,4.8-2.3,6.2s-3.8,2.1-6.7,2.1h-0.7l12.7,15.9h-5l-12.1-15.9h-0.6v15.9H182.3z M186.2,4.7v11.1h3c3.1,0,5.2-0.4,6.2-1.2
		s1.6-2.2,1.6-4.2c0-2.1-0.5-3.6-1.6-4.5s-3.1-1.3-6.2-1.3L186.2,4.7L186.2,4.7z"></path>
	<path class="st1" d="M208.6,34.6V1.3h7.8c2.2,0,3.9,0.1,4.9,0.4c1,0.2,2,0.7,2.7,1.3c1,0.8,1.8,1.8,2.3,3.1s0.8,2.7,0.8,4.3
		c0,2.7-0.8,4.8-2.3,6.2s-3.8,2.1-6.7,2.1h-0.7l12.7,15.9h-5L213,18.7h-0.6v15.9H208.6z M212.5,4.7v11.1h3c3.1,0,5.2-0.4,6.2-1.2
		s1.6-2.2,1.6-4.2c0-2.1-0.5-3.6-1.6-4.5s-3.1-1.3-6.2-1.3L212.5,4.7L212.5,4.7z"></path>
	<path class="st1" d="M247.8,0l15.1,34.6h-4.3l-4.3-10.2h-13L237,34.6h-4.3L247.8,0z M247.8,8.8L242.5,21h10.6L247.8,8.8z"></path>
	<polygon class="st1" points="284.7,35.9 274.4,12 270.2,34.6 266.3,34.6 273.1,0 284.7,27.5 296.4,0 303.1,34.6 299.2,34.6 295,12 
			"></polygon>
	<polygon class="st1" points="309.2,34.6 309.2,1.3 326.8,1.3 326.8,4.9 313.2,4.9 313.2,14.5 326.8,14.5 326.8,18.2 313.2,18.2 
		313.2,30.9 326.8,30.9 326.8,34.6 	"></polygon>
	<polygon class="st1" points="334.2,34.6 334.2,0 358.6,26.6 358.6,1.3 362.3,1.3 362.3,35.9 338,9.6 338,34.6 	"></polygon>
	<polygon class="st1" points="376.9,34.6 376.9,5.1 367.5,5.1 367.5,1.3 390.2,1.3 390.2,5.1 380.9,5.1 380.9,34.6 	"></polygon>
	<path class="st1" d="M403.4,0l15.1,34.6h-4.3l-4.3-10.2h-13l-4.3,10.2h-4.3L403.4,0z M403.4,8.8L398.1,21h10.6L403.4,8.8z"></path>
	<polygon class="st1" points="146.4,45.4 146.4,84 161.8,84 161.8,94.9 133.5,94.9 133.5,45.4 	"></polygon>
	<rect x="166.8" y="45.4" class="st1" width="12.9" height="49.5"></rect>
	<polygon class="st1" points="197.7,45.4 209.7,75.6 221.7,45.4 235.7,45.4 214.8,94.9 204.5,94.9 183.7,45.4 	"></polygon>
	<polygon class="st1" points="267.9,56.3 252.6,56.3 252.6,64.6 267.1,64.6 267.1,75.5 252.6,75.5 252.6,84 267.9,84 267.9,94.9 
		239.8,94.9 239.8,45.4 267.9,45.4 	"></polygon>
	<polygon class="st1" points="276.9,94.9 276.9,45.4 289.8,45.4 313.5,75.7 313.5,45.4 326.3,45.4 326.3,94.9 313.5,94.9 
		289.8,64.7 289.8,94.9 	"></polygon>
	<polygon class="st1" points="352.7,84 373.4,84 373.4,94.9 331.1,94.9 354.5,56.3 335,56.3 335,45.4 376,45.4 	"></polygon>
	<path class="st1" d="M412.3,86.3h-18.4l-3,8.6h-13.7L396,45.4h14l19,49.5h-13.7L412.3,86.3z M408.9,76.6l-5.8-16.5l-5.8,16.5H408.9
		z"></path>
	<path class="st0" d="M145.1,106.9v2.7c-1.3-1.1-2.7-1.7-4.1-1.7c-1.6,0-2.9,0.6-4,1.7s-1.6,2.5-1.6,4.1s0.5,3,1.6,4.1
		s2.4,1.7,4,1.7c0.8,0,1.5-0.1,2.1-0.4c0.3-0.1,0.6-0.3,1-0.5c0.3-0.2,0.7-0.5,1.1-0.8v2.8c-1.3,0.7-2.7,1.1-4.2,1.1
		c-2.2,0-4.1-0.8-5.6-2.3s-2.3-3.4-2.3-5.6c0-2,0.6-3.7,1.9-5.2c1.6-1.9,3.6-2.8,6.2-2.8C142.5,105.8,143.8,106.2,145.1,106.9"></path>
	<path class="st0" d="M150.2,113.7c0-2.2,0.8-4,2.4-5.6c1.6-1.5,3.5-2.3,5.7-2.3s4.1,0.8,5.6,2.3c1.6,1.6,2.3,3.4,2.3,5.6
		s-0.8,4.1-2.4,5.6c-1.6,1.5-3.5,2.3-5.7,2.3c-2,0-3.8-0.7-5.3-2.1C151,118.1,150.2,116.2,150.2,113.7 M152.5,113.7
		c0,1.7,0.6,3.1,1.7,4.2c1.1,1.1,2.4,1.6,3.9,1.6c1.6,0,3-0.6,4.1-1.7s1.7-2.5,1.7-4.1s-0.5-3-1.6-4.1s-2.4-1.7-4-1.7
		s-2.9,0.6-4,1.7C153.1,110.8,152.5,112.1,152.5,113.7"></path>
	<polygon class="st0" points="172.1,121.4 172.1,105.1 183.3,116.8 183.3,106.1 185.6,106.1 185.6,122.4 174.4,110.7 174.4,121.4 	
		"></polygon>
	<polygon class="st0" points="205.9,108.3 205.9,121.4 203.6,121.4 203.6,108.3 200,108.3 200,106.1 209.4,106.1 209.4,108.3 	"></polygon>
	<polygon class="st0" points="222.9,108.3 216.8,108.3 216.8,112 222.8,112 222.8,114.1 216.8,114.1 216.8,119.3 222.9,119.3 
		222.9,121.4 214.5,121.4 214.5,106.1 222.9,106.1 	"></polygon>
	<path class="st0" d="M237.6,113.7c0-2.2,0.8-4,2.4-5.6c1.6-1.5,3.5-2.3,5.7-2.3s4.1,0.8,5.6,2.3c1.6,1.6,2.4,3.4,2.4,5.6
		s-0.8,4.1-2.4,5.6c-1.6,1.5-3.5,2.3-5.7,2.3c-2,0-3.8-0.7-5.3-2.1C238.4,118.1,237.6,116.2,237.6,113.7 M239.9,113.7
		c0,1.7,0.6,3.1,1.7,4.2c1.1,1.1,2.4,1.6,3.9,1.6c1.6,0,3-0.6,4.1-1.7s1.7-2.5,1.7-4.1s-0.5-3-1.6-4.1s-2.4-1.7-4-1.7
		s-2.9,0.6-4,1.7C240.5,110.8,239.9,112.1,239.9,113.7"></path>
	<path class="st0" d="M267.4,113.5h6.3v0.5c0,1.2-0.1,2.2-0.4,3.1c-0.3,0.8-0.7,1.6-1.3,2.3c-1.4,1.6-3.2,2.4-5.4,2.4
		c-2.1,0-4-0.8-5.5-2.3c-1.5-1.6-2.3-3.4-2.3-5.6s0.8-4.1,2.3-5.7c1.6-1.6,3.4-2.3,5.7-2.3c1.2,0,2.3,0.2,3.4,0.7
		c1,0.5,2,1.3,2.9,2.4l-1.6,1.6c-1.3-1.7-2.8-2.5-4.6-2.5c-1.6,0-3,0.6-4.1,1.7s-1.6,2.5-1.6,4.1c0,1.7,0.6,3.1,1.8,4.2
		c1.1,1,2.4,1.5,3.7,1.5c1.1,0,2.2-0.4,3.1-1.2c0.9-0.8,1.4-1.7,1.5-2.8h-3.8v-2.1H267.4z"></path>
	<polygon class="st0" points="279.7,121.4 279.7,105.1 290.9,116.8 290.9,106.1 293.2,106.1 293.2,122.4 282,110.7 282,121.4 	"></polygon>
	<rect x="299.9" y="106.1" class="st0" width="2.3" height="15.3"></rect>
	<path class="st0" d="M326.1,113.5h6.3v0.5c0,1.2-0.1,2.2-0.4,3.1c-0.3,0.8-0.7,1.6-1.3,2.3c-1.4,1.6-3.2,2.4-5.4,2.4
		c-2.1,0-4-0.8-5.5-2.3c-1.5-1.6-2.3-3.4-2.3-5.6s0.8-4.1,2.3-5.7c1.6-1.6,3.4-2.3,5.7-2.3c1.2,0,2.3,0.2,3.4,0.7
		c1,0.5,2,1.3,2.9,2.4l-1.6,1.6c-1.3-1.7-2.8-2.5-4.6-2.5c-1.6,0-3,0.6-4.1,1.7s-1.6,2.5-1.6,4.1c0,1.7,0.6,3.1,1.8,4.2
		c1.1,1,2.4,1.5,3.7,1.5c1.1,0,2.2-0.4,3.1-1.2c0.9-0.8,1.4-1.7,1.5-2.8h-3.8v-2.1H326.1z"></path>
	<rect x="338.4" y="106.1" class="st0" width="2.3" height="15.3"></rect>
	<path class="st0" d="M346.7,113.7c0-2.2,0.8-4,2.4-5.6c1.6-1.5,3.5-2.3,5.7-2.3s4.1,0.8,5.6,2.3c1.6,1.6,2.4,3.4,2.4,5.6
		s-0.8,4.1-2.4,5.6s-3.5,2.3-5.7,2.3c-2,0-3.8-0.7-5.3-2.1C347.6,118.1,346.7,116.2,346.7,113.7 M349,113.7c0,1.7,0.6,3.1,1.7,4.2
		s2.4,1.6,3.9,1.6c1.6,0,3-0.6,4.1-1.7s1.7-2.5,1.7-4.1s-0.5-3-1.6-4.1s-2.4-1.7-4-1.7s-2.9,0.6-4,1.7
		C349.6,110.8,349,112.1,349,113.7"></path>
	<path class="st0" d="M373.8,114.9l4.7,6.5h-2.8l-4.4-6.3H371v6.3h-2.3v-15.3h2.7c2,0,3.5,0.4,4.4,1.1c1,0.8,1.5,2,1.5,3.4
		c0,1.1-0.3,2-0.9,2.8C375.7,114.2,374.9,114.7,373.8,114.9 M371,113.2h0.7c2.2,0,3.3-0.8,3.3-2.5c0-1.6-1.1-2.4-3.2-2.4H371V113.2z
		"></path>
	<polygon class="st0" points="383.9,121.4 383.9,105.1 395.1,116.8 395.1,106.1 397.4,106.1 397.4,122.4 386.2,110.7 386.2,121.4 	
		"></polygon>
	<path class="st0" d="M403.5,113.7c0-2.2,0.8-4,2.4-5.6c1.6-1.5,3.5-2.3,5.7-2.3s4.1,0.8,5.6,2.3c1.6,1.6,2.3,3.4,2.3,5.6
		s-0.8,4.1-2.4,5.6s-3.5,2.3-5.7,2.3c-2,0-3.8-0.7-5.3-2.1C404.4,118.1,403.5,116.2,403.5,113.7 M405.8,113.7c0,1.7,0.6,3.1,1.7,4.2
		s2.4,1.6,3.9,1.6c1.6,0,3-0.6,4.1-1.7s1.7-2.5,1.7-4.1s-0.5-3-1.6-4.1s-2.4-1.7-4-1.7s-2.9,0.6-4,1.7
		C406.4,110.8,405.8,112.1,405.8,113.7"></path>
</g>
<path class="st1" d="M423.4,0.8c0.8,0,1.6,0.1,2.3,0.4c0.7,0.3,1.4,0.7,1.9,1.3c0.5,0.5,1,1.2,1.3,1.9s0.4,1.5,0.4,2.3
	s-0.1,1.6-0.4,2.3s-0.7,1.3-1.3,1.9c-0.6,0.6-1.2,1-2,1.3c-0.7,0.3-1.5,0.5-2.2,0.5c-0.8,0-1.5-0.1-2.2-0.4
	c-0.7-0.3-1.4-0.7-1.9-1.3c-0.6-0.6-1-1.2-1.3-1.9s-0.4-1.5-0.4-2.2c0-0.8,0.2-1.5,0.5-2.3c0.3-0.7,0.7-1.4,1.3-1.9
	c0.5-0.6,1.2-1,1.9-1.3C421.8,0.9,422.6,0.8,423.4,0.8z M428.6,6.7c0-0.7-0.1-1.4-0.4-2s-0.6-1.2-1.1-1.7s-1.1-0.9-1.7-1.1
	s-1.3-0.4-2-0.4s-1.4,0.1-2,0.4s-1.2,0.6-1.6,1.1c-0.5,0.5-0.9,1.1-1.2,1.7c-0.3,0.6-0.4,1.3-0.4,2s0.1,1.3,0.4,2
	c0.3,0.6,0.6,1.2,1.1,1.7s1,0.9,1.7,1.1c0.6,0.3,1.3,0.4,2,0.4s1.4-0.1,2-0.4c0.6-0.3,1.2-0.6,1.7-1.1s0.9-1,1.1-1.6
	C428.4,8,428.6,7.4,428.6,6.7z M423.5,3.2c1,0,1.7,0.2,2.1,0.5s0.7,0.8,0.7,1.4c0,0.5-0.1,0.9-0.4,1.2s-0.7,0.5-1.2,0.6l1.5,3.1H425
	l-1.4-3h-1.4v2.9H421V3.2H423.5z M423.3,3.9h-1.2v2.3h1.2c0.7,0,1.1-0.1,1.4-0.3s0.4-0.5,0.4-0.9s-0.1-0.7-0.4-0.9
	C424.4,4,424,3.9,423.3,3.9z"></path>
</svg>