<?xml version="1.0" encoding="UTF-8" standalone="no"?>
<!DOCTYPE svg PUBLIC "-//W3C//DTD SVG 1.1//EN" "http://www.w3.org/Graphics/SVG/1.1/DTD/svg11.dtd">
<svg width="100%" height="100%" viewBox="0 0 1038 236" version="1.1" xmlns="http://www.w3.org/2000/svg" xmlns:xlink="http://www.w3.org/1999/xlink" xml:space="preserve" xmlns:serif="http://www.serif.com/" style="fill-rule:evenodd;clip-rule:evenodd;stroke-linejoin:round;stroke-miterlimit:2;"><rect id="Artboard1" x="0" y="0" width="1037.66" height="235.765" style="fill:none;"/><g id="Livello-1" serif:id="Livello 1"><path d="M25.966,44.722c0,-24.384 12.983,-37.675 37.363,-37.675c15.825,0 31.654,8.225 31.654,16.775c0,1.262 -0.634,2.22 -1.263,3.487c-1.271,1.896 -3.479,3.479 -5.704,3.479c-0.954,0 -2.85,-0.629 -4.112,-1.266l-4.75,-3.167c-3.796,-2.533 -6.963,-3.488 -10.755,-3.488c-10.462,0 -14.887,6.021 -14.887,20.271l0,49.7l16.462,0c7.917,0 10.446,1.267 10.446,5.696c0,5.071 -2.529,6.333 -11.4,6.333l-6.325,0c-8.55,0 -9.183,1.271 -9.183,12.98l0,80.095c0,10.125 1.267,12.667 6.654,12.98l8.854,0.312c3.171,0.321 5.388,2.225 5.388,5.388c0,3.162 -2.217,5.387 -5.388,5.387l-56.033,0c-3.475,0 -5.696,-2.225 -5.696,-5.387c0,-2.846 2.221,-5.067 5.388,-5.388l6.645,-0.312c5.375,-0.313 6.642,-2.855 6.642,-12.98l0,-78.833c0,-12.029 -1.267,-14.242 -8.546,-14.242l-3.796,0c-5.7,0 -7.912,-1.579 -7.912,-5.695c0,-4.75 2.529,-6.334 9.496,-6.334l10.758,0l0,-48.116Z" style="fill:#000;fill-rule:nonzero;"/><path d="M136.263,170.084c-3.171,1.895 -4.75,2.529 -6.646,2.529c-4.117,0 -7.275,-3.171 -7.275,-7.275c0,-3.8 1.575,-5.388 7.587,-9.179l23.742,-14.259c9.5,-5.691 12.983,-10.437 12.983,-17.408c0,-11.396 -9.812,-20.888 -21.529,-20.888c-20.575,0 -33.875,20.575 -33.875,53.184c0,32.912 14.884,52.871 39.571,52.871c11.717,0 24.383,-5.7 34.513,-15.834c3.795,-3.483 5.383,-4.433 8.233,-4.433c3.8,0 6.65,2.846 6.65,6.646c0,5.071 -6.017,12.346 -15.833,18.362c-11.713,7.609 -23.109,10.771 -37.671,10.771c-39.571,0 -65.854,-27.225 -65.854,-67.75c0,-40.521 26.283,-68.383 64.587,-68.383c27.225,0 51.283,17.412 51.283,37.037c0,6.021 -4.433,11.088 -14.558,17.1l-45.908,26.909Z" style="fill:#000;fill-rule:nonzero;"/><path d="M278.407,89.037c10.446,0 20.575,6.017 20.575,12.033c0,1.892 -0.958,3.796 -3.166,6.325l-5.692,6.967c-2.225,2.542 -3.492,3.483 -5.075,3.483c-0.629,0 -1.896,-0.316 -2.85,-0.941l-5.063,-3.171c-2.216,-1.588 -4.745,-2.221 -7.275,-2.221c-12.67,0 -20.583,13.296 -20.583,33.875l0,52.558c0,10.121 1.263,12.346 6.646,12.971l6.017,0.321c3.487,0.317 5.383,2.533 5.383,5.383c0,3.163 -2.217,5.388 -5.383,5.388l-51.28,0c-3.487,0 -5.704,-2.225 -5.704,-5.388c0,-2.85 2.217,-5.066 5.384,-5.383l4.745,-0.321c5.7,-0.625 6.65,-2.85 6.65,-12.971l0,-72.183c0,-10.763 -0.95,-11.713 -10.45,-12.029c-3.8,-0.313 -5.7,-2.221 -5.7,-5.379c0,-2.538 1.271,-3.796 6.655,-6.017l24.375,-10.129l3.795,-1.9c1.267,-0.321 2.221,-0.634 3.171,-0.634c3.792,0 4.746,1.896 4.746,9.496l0,11.717c6.654,-14.883 16.146,-21.85 30.079,-21.85" style="fill:#000;fill-rule:nonzero;"/><path d="M376.538,89.037c10.446,0 20.575,6.017 20.575,12.033c0,1.892 -0.946,3.796 -3.159,6.325l-5.708,6.967c-2.204,2.542 -3.475,3.483 -5.054,3.483c-0.638,0 -1.904,-0.316 -2.85,-0.941l-5.075,-3.171c-2.208,-1.588 -4.746,-2.221 -7.275,-2.221c-12.663,0 -20.575,13.296 -20.575,33.875l0,52.558c0,10.121 1.262,12.346 6.642,12.971l6.016,0.321c3.484,0.317 5.388,2.533 5.388,5.383c0,3.163 -2.213,5.388 -5.388,5.388l-51.279,0c-3.487,0 -5.708,-2.225 -5.708,-5.388c0,-2.85 2.221,-5.066 5.387,-5.383l4.746,-0.321c5.696,-0.625 6.658,-2.85 6.658,-12.971l0,-72.183c0,-10.763 -0.962,-11.713 -10.454,-12.029c-3.8,-0.313 -5.7,-2.221 -5.7,-5.379c0,-2.538 1.275,-3.796 6.646,-6.017l24.379,-10.129l3.804,-1.9c1.263,-0.321 2.209,-0.634 3.163,-0.634c3.804,0 4.742,1.896 4.742,9.496l0,11.717c6.654,-14.883 16.154,-21.85 30.079,-21.85" style="fill:#000;fill-rule:nonzero;"/><path d="M420.54,158.369c0,32.921 13.933,53.183 37.041,53.183c23.425,0 37.988,-20.891 37.988,-54.762c0,-32.613 -14.871,-53.825 -37.675,-53.825c-23.421,0 -37.354,20.9 -37.354,55.404m104.466,-1.267c0,42.105 -25.641,68.067 -67.112,68.067c-42.1,0 -67.429,-25.646 -67.429,-67.754c0,-41.471 25.958,-68.058 66.796,-68.058c42.425,0 67.745,25.333 67.745,67.745" style="fill:#000;fill-rule:nonzero;"/><path d="M627.921,153.724l23.842,59.429l1.591,4.463c1.98,4.946 3.417,5.783 5.88,5.783c3.175,0 3.916,-0.858 7.175,-8.367l38.616,-94.962c5.571,-14.217 7.509,-17.429 15.459,-19.158c3.737,-1.25 4.416,-2.05 4.416,-3.646c0,-1.892 -1.346,-3.004 -4.016,-3.3l-30.938,0.004c-3.754,0 -4.25,1.504 -4.25,2.983c0,0.638 0,2.579 3.717,2.996l2.921,0.646c3.5,0.429 7.608,1.5 7.608,5.858c0,1.767 -1.979,8.259 -4.8,15.792l-29.558,76.954l-30.213,-74.396c-5.079,-11.75 -5.758,-14.075 -5.758,-17.087c0,-3.867 2.212,-5.817 7.354,-6.496c6.687,-0.958 6.9,-1.508 6.9,-4.267c0,-1.446 -0.408,-2.983 -5.213,-2.983l-38.612,0c-5.396,0 -5.833,1.692 -5.833,3.296c0,1.779 0.941,2.779 3.179,3.329l1.837,0.308c7.254,1.721 9.013,4.704 14.863,19.167l9.625,23.108l-0.134,0.309l-23.516,55.512l-31.475,-68.462c-7.425,-16.171 -8.934,-20.167 -8.934,-23.767c0,-2.729 1.455,-6.083 8.359,-6.508c6.204,-0.325 6.521,-1.025 6.521,-2.996c0,-2.288 -0.609,-3.296 -6.467,-3.296l-38.942,0c-5.266,0 -6.158,1.017 -6.158,3.296c0,2.079 0.479,2.987 5.312,3.633c7.2,1.367 9.559,4.388 13.934,14.083l46.533,103.2c1.846,4.005 3.229,5.217 5.908,5.217c2.267,0 3.375,-0.458 5.263,-5.183l1.612,-3.225l26.392,-61.267Z" style="fill:#000;fill-rule:nonzero;"/><path d="M751.989,33.18c-6.466,0 -11.525,5.071 -11.525,11.542c0,6.708 5.159,12.166 11.525,12.166c6.892,0 12.492,-5.458 12.492,-12.166c0,-6.367 -5.6,-11.542 -12.492,-11.542m6.013,57.304c-0.688,0 -2.417,0.517 -4.371,1.492l-20.262,10.45c-2.588,1.621 -3.034,2.362 -3.034,3.391c0,1.459 0.338,2.675 4.559,2.675l0.945,0c7.2,0 8.417,3.959 8.417,12.838l0,75.658c0,13.375 -0.725,16.85 -7.371,17.592l-2.762,0.612l-2.938,0.33c-1.258,0.266 -2.121,1.316 -2.121,2.687c0,1.204 0.338,2.646 3.084,2.992l1.791,-0.009l39.271,0c2.592,0 2.984,-1.875 2.984,-2.983c0,-1.567 -0.709,-2.45 -2.175,-2.692l-2.805,-0.308l-2.937,-0.646c-6.35,-0.7 -6.967,-3.746 -6.967,-17.575l0,-102.566c0,-2.096 -1.541,-3.938 -3.308,-3.938" style="fill:#000;fill-rule:nonzero;"/><path d="M856.396,98.99c18.533,0 23.617,7.458 23.617,34.692l0,63.308c0,13.396 -0.879,16.862 -7.375,17.592l-3.1,0.616c-4.838,0.646 -5.042,1.196 -5.042,3.009c0,1.208 0.338,2.654 3.088,2.995l1.795,-0.012l39.571,0c1.763,0 2.992,-1.229 2.992,-2.983c0,-1.613 -0.771,-2.442 -2.467,-2.684l-2.829,-0.312l-2.633,-0.654c-6.538,-0.717 -7.271,-4.196 -7.271,-17.567l0,-69.013c0,-26.854 -10.588,-37.812 -36.538,-37.812c-15.354,0 -28.22,5.108 -39.345,15.608l-1.43,1.354l0.396,-11.783c-0.016,-4.329 -1.221,-5.179 -3.312,-5.179c-1.409,0 -2.246,0.267 -4.704,1.496l-19.305,9.821c-2.716,1.512 -3.354,2.266 -3.354,4.02c0,0.567 0,2.296 3.396,2.675l3.15,0.317c5.854,0.367 6.758,3.575 6.758,14.417l0,74.079c0,13.621 -0.658,16.875 -7.07,17.592l-3.092,0.616l-2.925,0.325c-1.263,0.263 -2.125,1.313 -2.125,2.684c0,1.208 0.35,2.645 3.096,2.995l1.791,-0.012l39.896,0c1.763,0 2.988,-1.229 2.988,-2.983c0,-1.28 -0.413,-2.084 -2.575,-2.717l-2.721,-0.279l-2.933,-0.646c-6.413,-0.713 -7.28,-4.179 -7.28,-17.575l0,-50.333c0,-32.521 11.721,-47.667 36.892,-47.667" style="fill:#000;fill-rule:nonzero;"/><path d="M976.733,90.482c-34.371,0 -60.296,28.779 -60.296,66.941c0,38.159 25.779,66.934 59.975,66.934c16.209,0 30.734,-5.43 40.909,-15.288c4.808,-4.479 7.67,-9.012 7.67,-10.812c0,-2 -1.483,-3.621 -3.308,-3.621c-1.5,0 -2.221,0.337 -4.133,2.562c-10.75,12.971 -23.179,19.284 -37.963,19.284c-27.25,0 -44.187,-22.996 -44.187,-60.017c0,-34.583 16.333,-58.742 39.746,-58.742c14.837,0 28.354,12.763 28.354,26.771c0,7.325 -4.175,12.217 -16.542,19.375l-34.496,20.888c-4.208,2.266 -4.366,3.025 -4.366,4.687c0,2.013 1.42,3.308 3.625,3.308c1.366,0 2.77,-0.537 5.616,-2.116l50.946,-30.375c10.238,-6.196 12.588,-9.15 12.588,-15.767c0,-17.483 -21.455,-34.012 -44.138,-34.012" style="fill:#000;fill-rule:nonzero;"/></g></svg>