<?xml version="1.0" encoding="utf-8"?>
<!-- Generator: Adobe Illustrator 25.2.1, SVG Export Plug-In . SVG Version: 6.00 Build 0)  -->
<svg version="1.1" id="Livello_1" xmlns="http://www.w3.org/2000/svg" xmlns:xlink="http://www.w3.org/1999/xlink" x="0px" y="0px"
	 viewBox="0 0 1071.3 221.7" style="enable-background:new 0 0 1071.3 221.7;" xml:space="preserve">
<style type="text/css">
	.st0{fill:#8C1F29;}
</style>
<g>
	<path class="st0" d="M249.7,151.4c5.3-5.5,11.5-7.9,18.9-7.4c11.6,0.8,20.5,9.7,20.7,21.3c0.3,16.7,0.1,33.3,0.1,50
		c0,3.2-2.4,5.4-5.5,5.4c-3.1-0.1-5.2-2.4-5.2-5.7c0-15.4,0-30.8,0-46.3c0-1.3,0-2.7-0.3-4c-1.1-6.8-5.8-10.4-12.7-10
		c-6.1,0.4-10.5,5.1-10.5,11.6c-0.1,16,0,32-0.1,48c0,3.8-2.1,6.2-5.4,6.2c-2.9,0-5.1-2-5.4-4.8c-0.1-0.9-0.1-1.8-0.1-2.7
		c0-14.9,0-29.8,0-44.7c0-1.8-0.1-3.6-0.5-5.3c-1.4-5.8-6.5-9.1-12.8-8.4c-5.5,0.6-9.8,5-9.9,10.8c-0.2,6.1-0.1,12.2-0.1,18.2
		c0,10,0,20,0,30c0,1-0.1,2.1-0.3,3.1c-0.7,2.5-3,3.9-5.6,3.8c-2.5-0.2-4.4-1.9-4.8-4.4c-0.1-0.9-0.2-1.8-0.2-2.7
		c0-15-0.1-29.9,0.1-44.9c0-3.3,0.3-6.7,1.3-9.8c4.9-15.1,24.6-20,36.6-9.1C248.4,150.2,249,150.7,249.7,151.4"/>
	<path class="st0" d="M170.3,188.2c4.9,4.3,9.3,8.2,13.7,12.1c3.9,3.5,7.9,7,11.8,10.5c2.8,2.4,3.2,5.8,1.1,8.2
		c-2.1,2.4-5.5,2.4-8.3-0.1c-11.8-10.4-23.6-20.8-35.3-31.2c-2.4-2.1-3-4.3-2.1-6.7c1-2.4,3.2-3.5,6.4-3.4
		c7.4,0.4,14.7-0.1,21.7-2.4c1.3-0.4,2.5-1,3.7-1.5c4.4-2.2,6.3-5.8,5.7-10.7c-0.6-4.7-3.1-7.7-7.5-8.9c-3.1-0.8-6.4-1.2-9.6-1.3
		c-7.6-0.2-15.3,0-22.9-0.1c-2,0-2.5,0.5-2.5,2.5c0.1,19.4,0,38.8,0,58.3c0,0.9,0,1.8-0.1,2.7c-0.3,2.5-2.3,4.3-4.7,4.6
		c-2.5,0.2-4.9-1.1-5.6-3.4c-0.4-1.1-0.4-2.3-0.4-3.5c0-21.6,0-43.1,0-64.7c0-5.3,1.9-7.2,7.3-7.2c10.1,0,20.2,0,30.2,0
		c5.4,0,10.6,0.8,15.5,3.4c7.6,4,11.1,10.6,11.3,19c0.2,7.9-3.3,13.8-9.9,17.9c-5.1,3.2-10.9,4.6-16.8,5.4
		C172.3,187.9,171.6,188,170.3,188.2"/>
	<path class="st0" d="M117.7,182.1c0.1-15.9-12.8-28.9-28.7-29c-15.8,0-28.7,12.9-28.8,28.7c-0.1,16,12.7,29,28.6,29
		C104.8,210.9,117.6,198.1,117.7,182.1 M88.9,221.7c-21.9,0-39.8-17.9-39.7-39.8c0.1-21.8,17.9-39.6,39.7-39.6
		c21.8,0,39.6,17.8,39.7,39.6C128.7,203.8,110.9,221.7,88.9,221.7"/>
	<path class="st0" d="M856.5,210.8c15.9,0,28.9-12.9,29-28.7c0-15.9-13-28.9-28.8-28.9c-15.7,0-28.8,12.9-28.9,28.7
		C827.7,197.7,840.6,210.8,856.5,210.8 M856.5,221.7c-22,0-39.7-17.8-39.6-39.8c0.1-21.8,17.9-39.5,39.7-39.5
		c21.9,0,39.7,17.9,39.6,39.9C896.2,204,878.4,221.7,856.5,221.7"/>
	<path class="st0" d="M510.3,45.3c1-0.2,2.1-0.5,3.2-0.8c7.8-2.2,13-8.5,13-15.6c0-7-5.3-13.4-13-15.6c-3.4-1-3.5-1-3.5-4.5
		c0-3,0-5.9,0-8.9C528-0.4,555.1,15.3,558,47.1c2.8,31.7-21.3,55.5-47.8,56.9V91.3c28.3-2,44.4-35.4,29.3-59.8
		c-3,16.2-13.3,24.4-29.2,27V45.3z"/>
	<path class="st0" d="M504.1,91.4v12.5c-24.3-0.8-49.2-23.7-47.5-54.9c1.7-30.9,27.8-49,47.6-49c0,3.9,0,7.8-0.1,11.7
		c0,0.4-0.9,1.1-1.4,1.2c-16.9,2.9-27.4,13-32,29.2c-2.9,10.4-1.2,20.5,4.4,30.4c3.2-16.1,13.2-24.4,29-27c0,4.4,0,8.3-0.1,12.3
		c0,0.4-0.8,0.8-1.3,1.1c-2,0.8-4.3,1.3-6.2,2.4c-11.1,6.4-11.1,20.9,0.1,27.2C499,89.7,501.6,90.4,504.1,91.4"/>
	<path class="st0" d="M357.9,187.4h-5c-9,0-17.9,0-26.9,0c-3.8,0-6.1-2.1-6.1-5.5c0-3.2,2.4-5.3,6.1-5.3c9.7,0,19.4,0,29.1,0h3.1
		c-0.4-3.2-0.4-6.2-1.3-9c-2.8-9.2-11.8-15.3-21.2-14.7c-10.5,0.6-18.7,7.2-20.7,16.7c-0.3,1.3-0.3,2.6-0.3,4c0,13.7,0,27.4,0,41.1
		c0,3.9-2.3,6.3-5.8,6.1c-2.7-0.1-4.7-2.1-5-4.7c-0.1-1-0.1-1.9-0.1-2.9c0-13,0.3-26-0.1-38.9c-0.6-17.5,15.5-34.3,36.2-32
		c14.6,1.6,25.6,11.7,28.3,25.8c0.3,1.5,0.4,3.1,0.4,4.6c0,14,0,28,0,42c0,3.5-1.7,5.7-4.6,6.1c-3.5,0.4-6.2-2-6.2-5.9
		c0-8.2,0-16.5,0-24.7V187.4z"/>
	<path class="st0" d="M775.1,152.8h-2.8h-41.6c-0.8,0-1.6,0-2.4-0.1c-2.6-0.3-4.5-2.2-4.8-4.7c-0.3-2.6,1.2-4.9,3.6-5.7
		c0.6-0.2,1.3-0.3,2-0.3c19,0,38,0,56.9,0c3.9,0,6.5,3.1,5.6,6.5c-0.3,1.2-1,2.3-1.8,3.3c-14.8,18.6-29.6,37.2-44.4,55.9
		c-0.5,0.6-1,1.3-1.8,2.3h2.7c12.2,0,24.3,0,36.5,0c3.5,0,5.8,2,5.9,5c0.2,3.3-2,5.7-5.3,5.8c-4.2,0.1-8.3,0-12.5,0
		c-12.5,0-25.1,0-37.6,0c-2.6,0-4.7-0.6-5.9-3.1c-1.2-2.4-0.4-4.5,1.3-6.5c14.8-18.6,29.6-37.2,44.4-55.9
		C773.7,154.6,774.2,153.9,775.1,152.8"/>
	<path class="st0" d="M638.7,169.6c0-7.3,0-14.5,0-21.8c0-3.5,2.3-5.8,5.4-5.9c3.1,0,5.3,2.3,5.5,5.8c0,0.5,0,1,0,1.6
		c0,13.1,0,26.2,0,39.4c0,2.1-0.1,4.3-0.5,6.4c-2.8,13.7-14,23.7-28.4,25.5c-16,2-31.2-8.4-35.2-24c-0.4-1.7-0.7-3.5-0.7-5.3
		c-0.1-14.6-0.1-29.2,0-43.8c0-3.2,2.4-5.6,5.4-5.6c3,0,5.3,2.4,5.4,5.6c0,0.6,0,1.2,0,1.8c0,13.2,0,26.4,0,39.6
		c0,10.9,8.2,19.8,19.4,20.9c11,1.1,21.3-6.1,23.5-16.5c0.3-1.3,0.3-2.7,0.3-4C638.7,182.8,638.7,176.2,638.7,169.6"/>
	<path class="st0" d="M901,192.9c0-6.3,0.2-12.6,0-18.9c-0.6-15,11.7-29.9,28.6-31.7c16.5-1.8,31.2,7.9,35.3,23.4
		c0.6,2.3,1,4.8,1,7.2c0.1,13.9,0.1,27.9,0,41.8c0,3.4-1.9,5.7-4.7,6c-3.2,0.4-5.8-1.7-6.1-5c-0.1-1.5-0.1-3.1-0.1-4.7
		c0-12.5,0-24.9,0-37.4c0-11.2-8.4-19.9-20.2-20.8c-10.9-0.9-21,6.8-22.8,17.3c-0.2,1.2-0.2,2.4-0.2,3.5c0,13.7,0,27.4,0,41.1
		c0,3.2-1.8,5.5-4.6,5.9c-3.5,0.5-6.2-1.9-6.2-5.6C901,207.7,901,200.3,901,192.9"/>
	<path class="st0" d="M657.3,193c0-6.2,0.2-12.5-0.1-18.7c-0.7-14.1,9.8-27.7,24.3-31.4c18.1-4.6,36.3,6.4,40.1,24.4
		c0.4,1.7,0.6,3.5,0.6,5.3c0.1,13.9,0,27.9,0,41.8c0,3.7-2,6.1-5.2,6.3c-2.9,0.1-5.2-1.8-5.6-4.6c-0.1-0.9-0.1-1.8-0.1-2.7
		c0-13.3,0-26.5,0-39.8c0-10.2-7.8-19.2-17.7-20.5c-11.5-1.6-21.9,4.7-24.7,14.9c-0.5,1.8-0.7,3.6-0.7,5.5c-0.1,13.7,0,27.4,0,41.1
		c0,3.4-1.7,5.6-4.4,6c-3.5,0.6-6.4-1.9-6.4-5.6C657.2,207.7,657.3,200.4,657.3,193"/>
	<path class="st0" d="M438.7,177.3h3.6c7.9,0,15.7,0,23.6,0c3.8,0,6.3,2.2,6.2,5.4c0,3.2-2.5,5.4-6.3,5.4c-8.1,0-16.1,0-24.2,0h-2.7
		c1.4,6.5,4.6,11.6,9.5,15.8c5.2,4.4,11.3,6.7,18.1,6.9c3.6,0.1,6,2.3,5.9,5.5c0,3.2-2.4,5.3-6.1,5.3c-19.9-0.1-37-15.9-38.8-35.8
		c-1.9-22.5,13.9-41.4,36.5-43.5c0.9-0.1,1.8-0.1,2.7-0.1c3.3,0.1,5.6,2.3,5.6,5.3c0,3.1-2.2,5.3-5.5,5.4c-9.1,0.3-16.6,3.8-22.4,11
		C441.5,167.8,439.5,172.1,438.7,177.3"/>
	<path class="st0" d="M981.1,177.3h2.9c8.2,0,16.5,0,24.7,0c4.3,0,7,3.8,5.3,7.5c-1.1,2.5-3.2,3.3-5.8,3.3c-8.1,0-16.2,0-24.2,0
		h-2.8c0.6,1.8,1,3.5,1.7,5c5.1,11.1,13.8,17.1,26,17.7c3.3,0.2,5.5,1.9,5.8,4.7c0.3,2.7-1.1,5.3-3.6,5.9c-1.8,0.4-3.8,0.3-5.7,0.1
		c-19.9-1.9-35.1-18.7-35.7-39c-0.5-19.2,14.2-36.7,33.4-39.6c1.8-0.3,3.7-0.4,5.5-0.5c3.7-0.1,6.1,2,6.2,5.2
		c0.1,3.3-2.1,5.4-5.8,5.6c-13.4,0.6-24.2,9.1-27.4,21.7C981.3,175.5,981.3,176.3,981.1,177.3"/>
	<path class="st0" d="M10.9,187.8c0,9.3,0,18.2,0,27.1c0,3.1-1.6,5.2-4.2,5.8c-3.4,0.7-6.6-1.6-6.6-5.1c-0.1-14.3-0.4-28.6,0.1-42.9
		c0.5-15.6,12.5-27.9,28.5-30.2c3.8-0.5,7.7-0.5,11.5-0.5c3.8,0,6,2.4,5.8,5.8c-0.2,3.2-2.6,5.2-6.3,4.9c-5.4-0.3-10.7,0.1-15.7,2.2
		c-7.9,3.3-13.9,10.7-13,22.1h2.4c9.1,0,18.1,0,27.1,0c3,0,5.1,1.8,5.5,4.5c0.4,2.8-1.1,5.3-3.7,6.1c-0.8,0.2-1.8,0.2-2.6,0.2
		c-8.8,0-17.5,0-26.2,0H10.9z"/>
	<path class="st0" d="M543.5,177h3.8c8,0,16,0,24,0c3.6,0,6,2.1,6.1,5.3c0.1,3.3-2.4,5.5-6.2,5.5c-9.2,0-18.4,0-28,0v2.6
		c0,8.1,0,16.2,0,24.2c0,3.7-2.3,6.1-5.6,6c-2.6-0.1-4.7-1.8-5.1-4.4c-0.1-0.8-0.2-1.6-0.2-2.4c0.1-13.8-0.2-27.6,0.3-41.4
		c0.6-16,11.8-28,27.7-30.2c3.7-0.5,7.5-0.5,11.3-0.4c3.6,0.1,5.8,2.5,5.7,5.7c-0.1,3.2-2.6,5.3-6.3,5c-4.9-0.3-9.8,0-14.4,1.8
		C547.6,158,542.6,166.5,543.5,177"/>
	<path class="st0" d="M811.3,181.5c0,11.2,0,22.4,0,33.6c0,2.9-1.7,5-4.2,5.6c-2.5,0.6-5.1-0.6-6.1-2.9c-0.3-0.8-0.5-1.7-0.5-2.6
		c0-22.5,0-45,0-67.5c0-3.2,2.4-5.6,5.4-5.6c3.1,0,5.4,2.4,5.4,5.8C811.3,159,811.3,170.3,811.3,181.5"/>
	<path class="st0" d="M1069.4,141.5c0-6.9-5.2-12.1-11.8-12.1c-6.7,0-11.9,5.3-11.9,12.1c0,6.9,5.4,12.4,12,12.4
		C1064.2,153.8,1069.4,148.3,1069.4,141.5 M1071.3,141.5c0,7.7-6,13.9-13.6,13.9c-7.8,0.1-13.9-6-13.9-13.8
		c0-7.6,6.1-13.8,13.7-13.8C1065,127.7,1071.2,133.8,1071.3,141.5"/>
	<path class="st0" d="M1059.5,141c-1.9,0.2-3.8,0-5.9,0v-5.4l5.6,0c1.6-0.1,2.3,0.7,2.4,2.2C1061.6,139.4,1061.3,140.8,1059.5,141
		 M1063.6,149h-0.2c0-1.1,0-3.6,0-4.3c0-1.1-0.6-2.3-1.4-2.5c0.4-0.3,0.6-0.7,0.9-1.1c1.5-2.7,0.3-6.9-2.4-7.2h-9V149
		c0.6,0,2.1,0,2.1,0v-5.8h5.6c1.5,0,2.2,0.8,2.2,2.2c0,0.7,0.1,2.9,0,3.5L1063.6,149z"/>
</g>
</svg>
