<?xml version="1.0" encoding="UTF-8" standalone="no"?>
<!-- Created with Inkscape (http://www.inkscape.org/) -->
<svg version="1.1" id="svg2" xml:space="preserve" width="287.01199" height="78.236" viewBox="0 0 287.012 78.236" sodipodi:docname="72fe80870c4d1853513bdda1a682e8f1.eps" xmlns:inkscape="http://www.inkscape.org/namespaces/inkscape" xmlns:sodipodi="http://sodipodi.sourceforge.net/DTD/sodipodi-0.dtd" xmlns="http://www.w3.org/2000/svg" xmlns:svg="http://www.w3.org/2000/svg"><defs id="defs6"/><sodipodi:namedview id="namedview4" pagecolor="#ffffff" bordercolor="#666666" borderopacity="1.0" inkscape:pageshadow="2" inkscape:pageopacity="0.0" inkscape:pagecheckerboard="0"/><g id="g8" inkscape:groupmode="layer" inkscape:label="ink_ext_XXXXXX" transform="matrix(1.3333333,0,0,-1.3333333,0,78.235998)"><g id="g10" transform="scale(0.1)"><path d="M 314.063,586.77 H 1404.82 V 476.211 H 314.063 v 110.559 0 0 0" style="fill:#da1737;fill-opacity:1;fill-rule:nonzero;stroke:none" id="path12"/><path d="M 314.063,363.184 V 260.781 h 194.218 c 0,0 0.059,19.785 0.059,21.809 0,1.98 -1.27,2.762 -2.832,2.801 -1.524,0.058 -127.227,0 -127.227,0 l 0.039,36.632 h 110.274 c 0,0 0,19.668 0,21.493 0,1.847 -1.016,2.863 -2.852,2.863 -1.816,0 -107.422,0 -107.422,0 v 37.449 h 129.961 c 0,0 0,19.817 0,21.789 0,1.981 -1.269,2.567 -2.832,2.567 -1.523,0 -146.679,0 -146.679,0 -24.786,0 -44.707,-20.157 -44.707,-45 v 0 0 0" style="fill:#231f20;fill-opacity:1;fill-rule:nonzero;stroke:none" id="path14"/><path d="m 579.375,408.184 c 0,0 146.492,0 148.328,0 1.84,0 2.895,-0.711 2.895,-2.579 0,-1.835 0,-21.738 0,-21.738 H 598.711 v -96.172 h 106.465 v 34.336 h -65.84 c 0,0 0,20 0,21.516 0,1.473 1.055,2.781 2.969,2.781 16.484,0 84.035,0.039 85.383,0.039 1.5,0 2.91,-1.289 2.91,-2.851 0,-1.563 0,-82.735 0,-82.735 H 534.59 v 102.403 c 0,24.843 20.058,45 44.785,45 v 0 0 0" style="fill:#231f20;fill-opacity:1;fill-rule:nonzero;stroke:none" id="path16"/><path d="m 805.09,408.184 c 0,0 146.48,0 148.34,0 1.812,0 2.871,-0.711 2.871,-2.579 0,-1.835 0,-21.738 0,-21.738 h -131.86 l -0.015,-96.172 h 106.465 v 34.336 h -65.825 c 0,0 0.039,19.992 0.039,21.485 0,1.484 1,2.812 2.891,2.812 16.508,0 84.067,0.039 85.41,0.039 1.489,0 2.895,-1.289 2.895,-2.851 0,-1.551 0,-82.735 0,-82.735 H 760.305 v 102.414 c 0,24.852 20.054,44.989 44.785,44.989 v 0 0 0" style="fill:#231f20;fill-opacity:1;fill-rule:nonzero;stroke:none" id="path18"/><path d="M 986.184,363.184 V 260.781 h 194.276 c 0,0 0,19.805 0,21.809 0,1.98 -1.27,2.762 -2.83,2.801 -1.52,0.058 -127.25,0 -127.25,0 l 0.04,36.64 h 110.28 c 0,0 0,19.66 0,21.485 0,1.847 -1,2.871 -2.83,2.871 -1.82,0 -107.45,0 -107.45,0 v 37.441 h 129.99 c 0,0 0,19.817 0,21.797 0,1.973 -1.27,2.559 -2.84,2.559 -1.52,0 -146.7,0 -146.7,0 -24.77,0 -44.686,-20.157 -44.686,-45 v 0 0 0" style="fill:#231f20;fill-opacity:1;fill-rule:nonzero;stroke:none" id="path20"/><path d="m 0,408.184 h 213.926 v -27.5 H 100.313 V 348.516 H 213.926 V 320.137 H 100.82 V 288.164 H 213.926 V 260.781 L 0,260.793 v 147.391 0 0" style="fill:#da1737;fill-opacity:1;fill-rule:nonzero;stroke:none" id="path22"/><path d="m 1366.09,408.176 c 21.37,0 38.69,-21.594 38.69,-43.067 0,-21.476 -17.42,-43.078 -38.83,-43.078 h -17.44 l 66.02,-56.023 c 0,0 6.54,-5.227 -0.37,-5.227 -3.68,0 -57.41,0 -70.18,0 -2.91,-0.058 -4.28,1.699 -7.23,4.082 2.33,-1.582 -66.03,57.168 -66.03,57.168 v -61.25 h -64.08 v 102.403 c 0,24.843 19.94,44.992 44.66,44.992 h 114.79 z m -8.79,-61.926 c 6.84,0 16.58,7.078 16.58,18.789 0,12.969 -9.16,18.723 -16.58,18.723 h -86.58 v -37.52 l 86.58,0.067 v 0 -0.059" style="fill:#231f20;fill-opacity:1;fill-rule:evenodd;stroke:none" id="path24"/><path d="m 963.379,57.3242 c 0,-28.3281 -5.281,-35.457 -17.41,-35.457 -11.821,0 -18.696,6.9609 -18.696,35.125 0,21.0664 5.43,34.5312 18.372,34.5312 12.293,0 17.734,-6.6601 17.734,-34.1992 z m 31.949,4.0156 c 0,24.2071 -11.043,52.0392 -48.902,52.0392 -29.383,0 -51.106,-19.7345 -51.106,-59.004 C 895.32,21.2695 913.215,0 945.48,0 c 39.786,0 49.848,29.668 49.848,61.3398 v 0 0" style="fill:#706d6e;fill-opacity:1;fill-rule:evenodd;stroke:none" id="path26"/><path d="m 1493.75,55.6641 c 0,-29.4532 -8.44,-41.4922 -24.93,-41.4922 -18.82,0 -26.03,15.6836 -26.03,43.8672 0,26.2773 7.03,41.1797 25.56,41.1797 19.81,0 25.4,-16.7969 25.4,-43.5547 z m 20.7,0.9179 c 0,31.9844 -14.98,56.797 -46.13,56.797 -27.64,0 -46.22,-20.547 -46.22,-56.6407 C 1422.1,24.2969 1437.55,0 1469.04,0 c 28.75,0 45.41,22.4023 45.41,56.582 v 0 0" style="fill:#706d6e;fill-opacity:1;fill-rule:evenodd;stroke:none" id="path28"/><path d="m 1907.77,53.3203 c 0,-18.1055 -2.58,-26.9336 -8.09,-33.8476 -5.02,-6.211 -11.64,-9.4336 -20.7,-9.4336 -9.06,0 -19.41,4.8047 -23.63,11.8672 -4.36,7.371 -7.13,21.7851 -7.13,38.3203 0,13.6211 1.79,23.0742 5.68,30.3007 4.22,7.8438 13.42,12.8127 23.77,12.8127 12.81,0 20.88,-6.8752 24.79,-15.0783 3.69,-7.6836 5.31,-18.7304 5.31,-34.9414 z m 14.82,1.5039 c 0,17.6367 -3.08,30.4805 -10.02,40.7227 -5.35,7.8511 -15.64,17.8321 -34.92,17.8321 -27.32,0 -44.22,-21.3673 -44.22,-56.3087 0,-18.75 4.53,-33.6601 13.26,-43.6133 C 1854.14,4.98047 1864.64,0 1878.24,0 c 11.48,0 19.92,2.71484 28.18,10.0977 11.31,10.2539 16.17,23.5742 16.17,44.7265 v 0 0" style="fill:#706d6e;fill-opacity:1;fill-rule:evenodd;stroke:none" id="path30"/><path d="m 2013.9,53.3203 c 0,-18.1055 -2.6,-26.9336 -8.08,-33.8476 -5.04,-6.211 -11.68,-9.4336 -20.71,-9.4336 -9.08,0 -19.43,4.8047 -23.63,11.8672 -4.38,7.371 -7.13,21.7851 -7.13,38.3203 0,13.6211 1.8,23.0742 5.66,30.3007 4.22,7.8438 13.42,12.8127 23.77,12.8127 12.8,0 20.9,-6.8752 24.79,-15.0783 3.69,-7.6836 5.33,-18.7304 5.33,-34.9414 z m 14.83,1.5039 c 0,17.6367 -3.09,30.4805 -10.04,40.7227 -5.36,7.8511 -15.71,17.8321 -34.98,17.8321 -27.33,0 -44.16,-21.3673 -44.16,-56.3087 0,-18.75 4.53,-33.6601 13.28,-43.6133 C 1960.25,4.98047 1970.7,0 1984.29,0 c 11.49,0 19.98,2.71484 28.22,10.0977 11.35,10.2539 16.22,23.5742 16.22,44.7265 v 0 0" style="fill:#706d6e;fill-opacity:1;fill-rule:evenodd;stroke:none" id="path32"/><path d="m 2152.59,11.0938 c 0,5.9179 -4.84,10.5468 -10.99,10.5468 -5.98,0 -10.71,-4.6289 -10.71,-10.5468 0,-6.0938 4.87,-11.0547375 11.04,-11.0547375 5.82,0 10.66,4.9609375 10.66,11.0547375 v 0 0" style="fill:#706d6e;fill-opacity:1;fill-rule:nonzero;stroke:none" id="path34"/><path d="M 880.613,1.38672 870.391,111.934 H 836.523 L 820.852,47.5898 h -0.161 L 806.184,111.934 H 771.16 L 760.305,1.38672 h 28.765 l 2.668,67.44138 h 0.149 L 807.441,1.38672 h 24.289 l 17.34,67.30468 h 0.293 L 852.82,1.38672 h 27.793 v 0 0" style="fill:#706d6e;fill-opacity:1;fill-rule:nonzero;stroke:none" id="path36"/><path d="m 1073.5,78.3984 c 0,-7.5195 -5.45,-11.707 -15.19,-11.707 l -14.09,-0.0195 V 91.25 h 13.79 c 8.95,0 15.49,-4.375 15.49,-12.3828 z m 28.55,-77.01168 c -3.68,8.33984 -13.09,28.94528 -16.76,36.46488 -2.74,5.7617 -7.35,10.8984 -11.2,12.0117 13.11,2.2265 23.17,11.543 23.17,30.7617 0,18.5547 -10.53,31.309 -43.29,31.309 h -38.35 V 1.38672 h 28.58 V 45.5469 c 6.25,0 8.79,-1.4453 13.11,-12.9492 l 11.66,-31.21098 h 33.08 v 0 0" style="fill:#706d6e;fill-opacity:1;fill-rule:evenodd;stroke:none" id="path38"/><path d="M 1188.18,1.38672 V 25.2148 H 1150 l 0.01,21.7579 h 27.78 v 22.7265 h -27.78 V 88.3984 H 1184 l 2.11,23.5356 h -64.73 L 1121.4,1.38672 h 66.78 v 0 0" style="fill:#706d6e;fill-opacity:1;fill-rule:nonzero;stroke:none" id="path40"/><path d="m 1319.02,111.934 h -58.5 V 1.38672 h 18.38 V 52.1016 h 30.84 v 14.8906 h -30.84 v 29.9023 h 37.87 l 2.25,15.0395 v 0 0" style="fill:#706d6e;fill-opacity:1;fill-rule:nonzero;stroke:none" id="path42"/><path d="m 1386.4,80.1758 c 0,-5.7305 -1.91,-10.3516 -4.94,-13.3672 -3.36,-3.332 -8.48,-4.6211 -18.05,-4.6211 h -9.45 v 34.8828 h 10.08 c 16.29,0 22.36,-5.7422 22.36,-16.8945 z m 25.08,-78.78908 -16.29,26.56248 c -5.76,9.2774 -13.11,20 -17.09,22.0703 17.25,0 27.48,14.5508 27.48,30.3125 0,17.2071 -11.19,31.602 -35.96,31.602 h -33.71 V 1.38672 h 18.05 V 49.2383 c 3.52,-0.1641 5.12,-1.2891 7.21,-3.3789 6.07,-6.0625 11.19,-13.7578 18.84,-27.3438 l 9.59,-17.12888 h 21.88 v 0 0" style="fill:#706d6e;fill-opacity:1;fill-rule:evenodd;stroke:none" id="path44"/><path d="m 1642.73,1.38672 -9.75,110.54728 h -24.45 l -17.4,-62.9379 c -2.09,-7.6758 -3.54,-15.1758 -4.01,-18.5273 -0.64,3.3515 -1.6,9.5898 -4.16,18.8398 l -16.93,62.6254 H 1541.6 L 1531.52,1.38672 h 18.05 l 4.8,66.79688 c 0.47,6.8555 1.11,17.4023 1.11,21.0742 0.65,-3.6719 2.72,-13.5937 4.81,-20.9375 l 18.36,-66.93358 h 15.66 l 20.14,69.96098 c 2.09,7.0507 3.51,14.082 4.31,17.7539 0,-3.3672 0.32,-12.1485 0.81,-19.1797 l 5.11,-68.53518 h 18.05 v 0 0" style="fill:#706d6e;fill-opacity:1;fill-rule:nonzero;stroke:none" id="path46"/><path d="m 1822.92,111.934 h -13.35 l -13.72,-64.2387 c -3.53,-16.543 -6.28,-33.3984 -6.46,-34.1992 -0.16,1.1328 -2.09,13.4375 -5.64,29.6484 l -15.43,68.7895 h -15.04 l -14.69,-66.3676 c -2.91,-12.6367 -6.13,-31.0937 -6.29,-32.0703 -0.35,1.7773 -2.93,19.7773 -5.98,33.6914 l -14.06,64.7465 h -14.32 L 1724.16,1.38672 h 17.2 l 13.6,62.34378 c 3.24,14.8828 5.33,28.9843 5.62,30.2929 0.18,-1.7851 2.29,-14.9218 5.84,-31.2695 l 13.79,-61.36718 h 17.32 l 25.39,110.54728 v 0 0" style="fill:#706d6e;fill-opacity:1;fill-rule:nonzero;stroke:none" id="path48"/><path d="m 2111.95,54.8047 c 0,-11.6602 -2.42,-22.5195 -7.44,-31.1133 -6,-10.3516 -16.68,-11.668 -28.15,-11.668 h -13.28 v 89.2576 h 13.28 c 11.62,0 18.77,-1.6013 26.04,-10.2068 7.46,-8.8945 9.55,-19.5781 9.55,-36.2695 z m 14.41,1.6211 c 0,21.7187 -6.17,38.0781 -18.79,47.1482 -10.84,7.774 -18.57,8.36 -35.56,8.36 H 2049.8 V 1.38672 h 28.96 c 15.53,0 25.26,2.71484 34.97,13.57418 7.46,8.2618 12.63,22.0313 12.63,41.4649 v 0 0" style="fill:#706d6e;fill-opacity:1;fill-rule:evenodd;stroke:none" id="path50"/></g></g></svg>