<?xml version="1.0" encoding="iso-8859-1"?>
<!-- Generator: Adobe Illustrator 15.0.0, SVG Export Plug-In . SVG Version: 6.00 Build 0)  -->
<!DOCTYPE svg PUBLIC "-//W3C//DTD SVG 1.1//EN" "http://www.w3.org/Graphics/SVG/1.1/DTD/svg11.dtd">
<svg version="1.1" xmlns="http://www.w3.org/2000/svg" xmlns:xlink="http://www.w3.org/1999/xlink" x="0px" y="0px" width="674px"
	 height="301px" viewBox="0 0 674 301" style="enable-background:new 0 0 674 301;" xml:space="preserve">
<g id="Sfondo">
</g>
<g id="Guide">
</g>
<g id="Primo_piano">
	<g>
		<g>
			<polygon style="fill:#009B7B;" points="10.003,291.968 10.069,119.851 120.333,9.862 120.314,181.784 65.192,236.874 
				65.192,195.654 92.711,168.013 92.753,140.452 65.329,168.007 65.329,140.653 92.67,112.934 92.711,85.36 44.493,133.674 
				44.576,257.531 10.003,291.968 			"/>
			<path style="fill-rule:evenodd;clip-rule:evenodd;" d="M279.584,85.361H266.72l-35.772,96.566c4.041,0,7.147,0,10.093,0
				c1.17-3.02,10.937-29.635,10.937-29.635l42.516,0.007c0,0,9.681,26.235,10.978,29.628c3.447,0,10.114,0,10.114,0L279.584,85.361
				L279.584,85.361z M255.031,144.001l18.192-51.025c0,0,17.084,47.49,18.459,51.025
				C287.126,144.001,255.031,144.001,255.031,144.001L255.031,144.001z"/>
			<g>
				<path d="M642.961,173.737h-59.197l0.029-37.811h54.357l-0.025-8.18l-54.332-0.016l0.016-34.307h56.95c0,0,0-6.101,0-8.063
					c-2.299,0-65.823,0-65.823,0v96.566h68.05L642.961,173.737L642.961,173.737z"/>
			</g>
			<g>
				<path d="M228.603,85.361h-8.795l-0.024,96.566c0.91,0,8.819,0,8.819,0V85.361L228.603,85.361z"/>
			</g>
			<g>
				<polygon points="379.877,181.912 393.972,181.928 393.991,85.361 385.15,85.361 385.154,173.241 332.341,85.361 317.576,85.361 
					317.576,181.928 326.45,181.91 326.447,93.203 379.877,181.912 				"/>
			</g>
			<g>
				<path style="fill-rule:evenodd;clip-rule:evenodd;" d="M533.864,93.424h-29.78l0.015,40.425c0,0,22.854-0.046,29.816-0.05
					c13.815-0.35,24.396-4.353,24.396-19.733C558.312,98.354,547.7,93.424,533.864,93.424L533.864,93.424z M532.056,141.934h-28.017
					l-0.055,40.006c0,0-7.803-0.024-8.767-0.013c0-1.533,0.021-95.287,0-96.566c1.794,0,28.771,0.019,37.155,0
					c22.186,0,35.167,9.375,35.14,29.047c-0.026,17.984-10.224,24.571-24.72,27.29c7.188,10.673,27.791,40.229,27.791,40.229
					c-8.049,0.031-6.416,0-11.349,0C553.262,173.426,532.056,141.934,532.056,141.934L532.056,141.934z"/>
			</g>
			<g>
				<polygon points="158.123,181.928 158.109,135.912 210.415,135.912 210.469,127.716 158.109,127.716 158.125,93.424 
					215.077,93.424 215.077,85.361 149.307,85.361 149.307,181.928 158.123,181.928 				"/>
			</g>
			<path d="M441.819,173.737c23.636,0,35.83-17.301,35.83-40.101s-12.186-40.212-35.874-40.212h-25.098v80.313H441.819
				L441.819,173.737z M441.925,85.361c29.18,0,45.127,20.558,45.138,48.275c0.011,28.324-15.965,48.275-45.144,48.275h0.937H407.85
				l0.002-96.551H441.925L441.925,85.361z"/>
			<g>
				<g>
					<path d="M169.944,225.728h-2.248l-2.494-6.559h-9.73l-2.464,6.559h-2.309l8.869-21.739h1.724L169.944,225.728z
						 M164.587,217.506l-4.188-11.086l-4.25,11.086H164.587z"/>
				</g>
				<g>
					<path d="M193.397,225.728h-2.587l-6.867-9.639h-5.112v9.639h-2.063v-21.77h6.097c3.787,0.03,4.742,0.03,6.097,0.491
						c3.571,1.264,3.818,4.682,3.818,5.76c0,2.278-0.985,3.541-1.632,4.188c-1.571,1.478-3.633,1.601-4.803,1.692L193.397,225.728z
						 M178.832,214.303h5.112c1.417,0,2.74-0.03,3.664-0.215c2.31-0.461,3.141-2.217,3.141-3.973c0-2.124-1.047-3.726-3.172-4.156
						c-0.616-0.124-0.893-0.124-3.633-0.153h-5.112V214.303z"/>
					<path d="M217.903,220.985c-2.094,4.618-5.358,5.297-8.068,5.297c-1.509,0-4.68-0.217-6.959-2.896
						c-1.631-1.909-2.525-4.987-2.525-8.376c0-4.617,1.664-11.577,9.3-11.577c5.851,0,7.452,3.542,8.406,5.635l-2.062,1.078
						c-0.4-1.786-1.417-3.11-2.31-3.788c-1.448-1.077-3.172-1.107-3.941-1.107c-2.34,0-3.972,0.678-5.358,2.556
						c-1.509,2.063-1.878,4.558-1.878,6.898c0,1.477,0.185,5.019,1.817,7.173c1.694,2.31,4.219,2.557,5.759,2.557
						c1.046,0,2.278-0.123,3.417-0.924c0.77-0.523,1.971-1.786,2.495-3.695L217.903,220.985z"/>
					<path d="M243.948,225.728h-2.063v-10.192H228.52v10.192h-2.032v-21.739h2.032v9.73h13.365v-9.73h2.063V225.728z"/>
				</g>
				<g>
					<path d="M256.266,225.728h-2.063v-21.739h2.063V225.728z"/>
					<path d="M272.122,225.728h-2.062v-19.922h-6.836v-1.817h15.766v1.817h-6.867V225.728z"/>
					<path d="M300.908,225.728h-14.965v-21.739h14.196v1.908h-12.133v7.73h10.993v1.908h-10.993v8.283h12.902V225.728z"/>
					<path d="M325.137,220.985c-2.094,4.618-5.358,5.297-8.068,5.297c-1.509,0-4.68-0.217-6.959-2.896
						c-1.632-1.909-2.525-4.987-2.525-8.376c0-4.617,1.663-11.577,9.3-11.577c5.851,0,7.451,3.542,8.406,5.635l-2.062,1.078
						c-0.401-1.786-1.417-3.11-2.31-3.788c-1.447-1.077-3.172-1.107-3.941-1.107c-2.34,0-3.972,0.678-5.358,2.556
						c-1.509,2.063-1.878,4.558-1.878,6.898c0,1.477,0.185,5.019,1.816,7.173c1.694,2.31,4.219,2.557,5.759,2.557
						c1.046,0,2.278-0.123,3.417-0.924c0.77-0.523,1.971-1.786,2.495-3.695L325.137,220.985z"/>
				</g>
				<g>
					<path d="M339.31,225.728h-2.062v-19.922h-6.837v-1.817h15.766v1.817h-6.867V225.728z"/>
					<path d="M355.133,203.988v12.932c0,2.373,0,4.035,1.046,5.39c0.708,0.985,2.34,2.063,5.051,2.063
						c0.769,0,1.815-0.062,2.832-0.463c1.662-0.646,2.525-1.692,2.986-3.602c0.186-0.74,0.217-2.032,0.217-2.833v-13.487h2.062
						v9.885c0,6.034,0,8.099-1.848,10.099c-1.57,1.694-3.912,2.311-6.189,2.311c-3.664,0-6.651-1.571-7.699-4.711
						c-0.492-1.57-0.492-2.772-0.492-7.515v-10.068H355.133z"/>
				</g>
				<g>
					<path d="M396.213,225.728h-2.587l-6.866-9.639h-5.111v9.639h-2.063v-21.77h6.097c3.788,0.03,4.742,0.03,6.097,0.491
						c3.572,1.264,3.818,4.682,3.818,5.76c0,2.278-0.984,3.541-1.632,4.188c-1.57,1.478-3.634,1.601-4.804,1.692L396.213,225.728z
						 M381.648,214.303h5.111c1.416,0,2.74-0.03,3.664-0.215c2.31-0.461,3.141-2.217,3.141-3.973c0-2.124-1.046-3.726-3.172-4.156
						c-0.615-0.124-0.893-0.124-3.633-0.153h-5.111V214.303z"/>
				</g>
				<g>
					<path d="M421.177,225.728h-2.248l-2.494-6.559h-9.73l-2.464,6.559h-2.309l8.867-21.739h1.725L421.177,225.728z
						 M415.818,217.506l-4.188-11.086l-4.249,11.086H415.818z"/>
					<path d="M442.11,225.728h-14.104v-21.77h2.095v19.86h12.01V225.728z"/>
					<path d="M474.529,209.254c-0.186-0.555-0.432-1.293-0.926-1.941c-1.077-1.507-2.831-2.186-4.711-2.186
						c-2.34,0-5.111,0.985-5.111,3.88c0,2.649,2.434,3.419,3.664,3.788c0.616,0.184,3.727,0.985,4.404,1.231
						c1.17,0.37,5.02,1.633,5.02,5.759c0,3.047-2.557,6.497-8.13,6.497c-2.31,0-3.973-0.585-5.112-1.324
						c-1.662-1.109-2.586-2.71-2.955-4.711l2.062-1.078c0.031,0.861,0.123,1.754,0.522,2.525c0.987,2.032,3.233,2.803,5.482,2.803
						c4.188,0,6.036-2.312,6.036-4.62c0-1.57-0.74-2.463-1.324-2.925c-0.986-0.831-2.249-1.14-5.113-1.879
						c-3.078-0.801-6.559-1.939-6.559-5.975c0-4.279,3.789-5.665,7.176-5.665c5.574,0,6.989,3.572,7.482,4.772L474.529,209.254z"/>
				</g>
				<g>
					<path d="M486.873,203.988v12.932c0,2.373,0,4.035,1.046,5.39c0.708,0.985,2.341,2.063,5.052,2.063
						c0.77,0,1.815-0.062,2.831-0.463c1.663-0.646,2.525-1.692,2.987-3.602c0.185-0.74,0.217-2.032,0.217-2.833v-13.487h2.062v9.885
						c0,6.034,0,8.099-1.848,10.099c-1.57,1.694-3.912,2.311-6.189,2.311c-3.664,0-6.651-1.571-7.699-4.711
						c-0.491-1.57-0.491-2.772-0.491-7.515v-10.068H486.873z"/>
					<path d="M527.977,225.728h-2.588l-6.866-9.639h-5.111v9.639h-2.063v-21.77h6.097c3.788,0.03,4.743,0.03,6.097,0.491
						c3.572,1.264,3.818,4.682,3.818,5.76c0,2.278-0.984,3.541-1.632,4.188c-1.569,1.478-3.634,1.601-4.804,1.692L527.977,225.728z
						 M513.411,214.303h5.111c1.416,0,2.74-0.03,3.665-0.215c2.309-0.461,3.14-2.217,3.14-3.973c0-2.124-1.046-3.726-3.172-4.156
						c-0.614-0.124-0.893-0.124-3.633-0.153h-5.111V214.303z"/>
					<path d="M538.531,225.728h-2.002v-21.739h14.227v1.817h-12.225v7.358h10.962v1.785h-10.962V225.728z"/>
				</g>
				<g>
					<path d="M572.342,225.728h-2.248l-2.494-6.559h-9.73l-2.463,6.559h-2.31l8.867-21.739h1.725L572.342,225.728z M566.983,217.506
						l-4.188-11.086l-4.248,11.086H566.983z"/>
					<path d="M595.154,220.985c-2.094,4.618-5.357,5.297-8.068,5.297c-1.508,0-4.68-0.217-6.958-2.896
						c-1.633-1.909-2.525-4.987-2.525-8.376c0-4.617,1.662-11.577,9.3-11.577c5.851,0,7.451,3.542,8.406,5.635l-2.063,1.078
						c-0.4-1.786-1.416-3.11-2.31-3.788c-1.447-1.077-3.172-1.107-3.941-1.107c-2.34,0-3.973,0.678-5.357,2.556
						c-1.509,2.063-1.879,4.558-1.879,6.898c0,1.477,0.186,5.019,1.817,7.173c1.692,2.31,4.218,2.557,5.757,2.557
						c1.049,0,2.279-0.123,3.419-0.924c0.77-0.523,1.971-1.786,2.494-3.695L595.154,220.985z"/>
				</g>
				<g>
					<path d="M618.701,225.728h-14.967v-21.739h14.197v1.908h-12.134v7.73h10.993v1.908h-10.993v8.283h12.903V225.728z"/>
					<path d="M639.203,209.254c-0.185-0.555-0.431-1.293-0.924-1.941c-1.078-1.507-2.832-2.186-4.711-2.186
						c-2.341,0-5.112,0.985-5.112,3.88c0,2.649,2.433,3.419,3.664,3.788c0.616,0.184,3.727,0.985,4.404,1.231
						c1.169,0.37,5.02,1.633,5.02,5.759c0,3.047-2.558,6.497-8.13,6.497c-2.311,0-3.973-0.585-5.112-1.324
						c-1.663-1.109-2.585-2.71-2.956-4.711l2.062-1.078c0.032,0.861,0.124,1.754,0.523,2.525c0.986,2.032,3.233,2.803,5.482,2.803
						c4.188,0,6.035-2.312,6.035-4.62c0-1.57-0.739-2.463-1.324-2.925c-0.985-0.831-2.248-1.14-5.112-1.879
						c-3.079-0.801-6.558-1.939-6.558-5.975c0-4.279,3.787-5.665,7.174-5.665c5.574,0,6.99,3.572,7.483,4.772L639.203,209.254z"/>
				</g>
			</g>
		</g>
		<g>
			<g>
				<circle style="fill:none;stroke:#000000;stroke-width:1.0414;stroke-miterlimit:3.8637;" cx="659.862" cy="93.11" r="7.749"/>
				<path style="fill:none;stroke:#000000;stroke-width:1.0414;stroke-miterlimit:3.8637;" d="M659.861,93.11"/>
			</g>
			<g>
				<path style="fill-rule:evenodd;clip-rule:evenodd;fill:none;stroke:#000000;stroke-width:1.0414;stroke-miterlimit:3.8637;" d="
					M656.66,97.208v-8.197c0,0,2.725,0,4.477,0s1.802,1.363,1.802,2.093c0,0.44-0.05,2.044-1.753,2.093s-4.525,0-4.525,0"/>
				<path style="fill-rule:evenodd;clip-rule:evenodd;fill:none;stroke:#000000;stroke-width:1.0414;stroke-miterlimit:3.8637;" d="
					M662.938,97.208c0,0,0-0.681,0-1.655c0-2.356-1.996-2.356-1.996-2.356"/>
			</g>
		</g>
	</g>
</g>
</svg>
