<?xml version="1.0" encoding="UTF-8"?>
<svg id="Layer_6" data-name="Layer 6" xmlns="http://www.w3.org/2000/svg" viewBox="0 0 1110 126">
  <defs>
    <style>
      .cls-1 {
        fill: #76777a;
      }

      .cls-1, .cls-2 {
        fill-rule: evenodd;
      }

      .cls-1, .cls-2, .cls-3 {
        stroke-width: 0px;
      }

      .cls-2 {
        fill: #ff6b00;
      }

      .cls-3 {
        fill: #fff;
      }
    </style>
  </defs>
  <path class="cls-1" d="M690.38,60.17L750.55,0H0v126h750.55l-60.17-60.17c-1.56-1.56-1.56-4.09,0-5.66Z"/>
  <g>
    <path class="cls-3" d="M274.91,94.55l-.8-7.21c-2.85,4.27-9.08,8.54-18.6,8.54-17,0-31.51-12.46-31.51-32.84s15.22-32.93,32.31-32.93,25.72,9.7,28.84,19.4l-11.75,4.18c-1.6-5.61-6.85-12.1-17.09-12.1-9.52,0-19.85,6.5-19.85,21.45s9.35,21.63,19.94,21.63c11.66,0,16.2-7.83,16.91-12.28h-19.94v-10.68h31.51v32.84h-9.97Z"/>
    <path class="cls-3" d="M319.05,62.51c-1.33-.27-2.49-.36-3.56-.36-6.05,0-11.3,2.94-11.3,12.37v20.03h-11.84v-43.79h11.48v6.5c2.67-5.79,8.72-6.85,12.46-6.85.98,0,1.87.09,2.76.18v11.93Z"/>
    <path class="cls-3" d="M362.22,82c-2.23,7.57-9.17,13.88-19.94,13.88-12.02,0-22.61-8.63-22.61-23.41,0-13.97,10.32-23.05,21.54-23.05,13.53,0,21.63,8.63,21.63,22.7,0,1.69-.18,3.47-.18,3.65h-31.33c.27,5.79,5.16,9.97,11.04,9.97,5.52,0,8.54-2.76,9.97-6.67l9.88,2.94ZM351.18,67.67c-.18-4.36-3.03-8.63-9.79-8.63-6.14,0-9.52,4.63-9.79,8.63h19.58Z"/>
    <path class="cls-3" d="M407.43,82c-2.23,7.57-9.17,13.88-19.94,13.88-12.02,0-22.61-8.63-22.61-23.41,0-13.97,10.32-23.05,21.54-23.05,13.53,0,21.63,8.63,21.63,22.7,0,1.69-.18,3.47-.18,3.65h-31.33c.27,5.79,5.16,9.97,11.04,9.97,5.52,0,8.54-2.76,9.97-6.67l9.88,2.94ZM396.39,67.67c-.18-4.36-3.03-8.63-9.79-8.63-6.14,0-9.52,4.63-9.79,8.63h19.58Z"/>
    <path class="cls-3" d="M425.23,94.55h-11.84v-43.79h11.48v5.43c2.67-4.54,7.92-6.59,12.64-6.59,10.86,0,15.84,7.74,15.84,17.36v27.59h-11.84v-25.54c0-4.9-2.4-8.72-8.1-8.72-5.16,0-8.19,4-8.19,9.08v25.19Z"/>
    <path class="cls-3" d="M492.51,70.79v23.76h-12.28V31.45h23.59c12.46,0,20.74,8.28,20.74,19.67s-8.28,19.67-20.74,19.67h-11.3ZM502.3,60.2c6.14,0,9.88-3.56,9.88-8.99s-3.74-9.08-9.88-9.08h-9.7v18.07h9.7Z"/>
    <path class="cls-3" d="M538.08,69.36l10.77-1.6c2.49-.36,3.29-1.6,3.29-3.12,0-3.12-2.4-5.7-7.39-5.7s-8.01,3.29-8.37,7.12l-10.5-2.23c.71-6.85,7.03-14.42,18.78-14.42,13.88,0,19.05,7.83,19.05,16.64v21.54c0,2.31.27,5.43.53,6.94h-10.86c-.27-1.16-.44-3.56-.44-5.25-2.23,3.47-6.41,6.5-12.91,6.5-9.35,0-15.04-6.32-15.04-13.17,0-7.83,5.79-12.19,13.08-13.26ZM552.14,76.84v-1.96l-9.88,1.51c-3.03.45-5.43,2.14-5.43,5.52,0,2.58,1.87,5.07,5.7,5.07,4.98,0,9.61-2.4,9.61-10.15Z"/>
    <path class="cls-3" d="M580,72.66c0,7.92,5.16,12.37,11.21,12.37s9.08-4,10.06-7.39l10.41,3.47c-1.96,7.3-8.81,14.77-20.47,14.77-12.91,0-23.05-9.79-23.05-23.23s9.97-23.23,22.7-23.23c11.93,0,18.69,7.39,20.56,14.77l-10.59,3.56c-1.07-3.65-3.83-7.39-9.7-7.39s-11.13,4.36-11.13,12.28Z"/>
    <path class="cls-3" d="M641.32,69.19l17.89,25.37h-14.51l-11.57-16.73-4.9,5.16v11.57h-11.84V30.11h11.84v36.94l15.13-16.29h15.49l-17.53,18.42Z"/>
  </g>
  <g id="_brand">
    <path class="cls-2" d="M721.03,58.96h23.26c.85,0,1.59-.6,1.78-1.43l6.98-30.23c.42-1.78-1.76-2.98-3.06-1.69l-30.25,30.24c-1.15,1.15-.32,3.11,1.29,3.11Z"/>
    <path class="cls-2" d="M803.73,67.86h0-23.25c-.85-.01-1.59.57-1.78,1.4l-6.98,30.24c-.42,1.78,1.76,2.99,3.06,1.69l30.24-30.23c1.16-1.15.34-3.11-1.29-3.11Z"/>
    <path class="cls-2" d="M773.3,58.44h30.41c1.64,0,2.45-1.96,1.3-3.12h0l-37.72-37.79c-1.01-1-2.73-.51-3.05.88l-11,47.74c-.19.83-.93,1.42-1.78,1.42h-30.43c-1.62,0-2.44,1.96-1.29,3.12l37.72,37.78c1.01,1.01,2.74.52,3.07-.88l11-47.74c.19-.82.92-1.4,1.77-1.4Z"/>
  </g>
<script xmlns=""/><script xmlns=""/><script xmlns=""/><script xmlns=""/></svg>