<svg xmlns="http://www.w3.org/2000/svg" xmlns:xlink="http://www.w3.org/1999/xlink" id="Livello_1" x="0px" y="0px" viewBox="0 0 223.62 77.46" xml:space="preserve"><polygon fill="#F5333F" points="3.98,12.54 43.1,26.43 43.1,28.6 3.96,14.74 3.4,66.71 17.36,28.26 19.83,28.26 5.57,66.73  57.36,67.23 19.95,53.77 19.95,51.44 57.53,64.99 58.09,12.93 44.53,50.96 42.38,50.96 56.08,13.05 "></polygon><g>	<path d="M99,46.18c-4.76,2.2-9.12,2.66-13.88,2.66c-8.45,0-17.31-6.25-17.31-18.13c0-11.73,8.86-18.29,18.9-18.29  c4.71,0,8.61,0.97,10.65,1.54v4.97c-6.61-1.02-7.22-1.08-9.42-1.08c-8.04,0-13.73,4.81-13.73,12.86c0,8.14,5.79,12.7,12.14,12.7  c1.38,0,3.28,0,6.45-0.82v-7.94h-8.81v-5.17H99V46.18z"></path>	<path d="M123.63,48.28c-1.84-3.38-4.71-7.63-7.12-10.96c-1.64-2.31-2.25-3.02-3.48-3.02h-3.33v13.98h-6.15V12.99h14.24  c5.94,0,10.76,3.48,10.76,10.45c0,6.92-3.84,9.53-7.68,10.5c3.64,4.05,7.63,10.4,9.73,14.34H123.63z M118.1,29.22  c2.15,0,4.3-1.18,4.3-5.79c0-3.23-1.95-5.17-5.07-5.17h-7.63v10.96H118.1z"></path>	<path d="M133.41,48.28V12.99h6.2v35.29H133.41z"></path>	<path d="M151.7,48.28h-6.15V12.99h20.64v5.22h-14.5v9.27h13.37v5.23H151.7V48.28z"></path>	<path d="M172.65,37.98l-3.02,10.3h-6.15c3.48-11.83,6.66-22.23,12.65-35.29h6.15c5.99,13.06,9.22,23.46,12.65,35.29h-6.15  c-0.97-3.48-1.95-6.92-2.97-10.3H172.65z M184.22,33.17c-1.49-4.46-3.07-8.71-5.02-13.52c-2,4.87-3.53,9.02-5.02,13.52H184.22z"></path>	<path d="M203.38,40.39c0,1.43,0.51,2.66,2.92,2.66h13.78v5.22h-14.6c-5.69-0.15-8.2-1.9-8.3-7.17V12.99h6.2V40.39z"></path></g><g>	<g>		<path d="M76.74,57.3c0.95,2,1.85,4.27,2.36,6.83l2.26-8.01h1.89L80.2,66.55h-2.13c-0.47-2-0.98-4.16-2.1-6.86   c-1.12,2.69-1.63,4.86-2.1,6.86h-2.13l-3.04-10.43h1.89l2.26,8.01c0.51-2.56,1.41-4.83,2.36-6.83H76.74z"></path>		<path d="M85.73,63.5l-0.89,3.04h-1.82c1.03-3.5,1.97-6.57,3.74-10.43h1.82c1.77,3.86,2.72,6.93,3.74,10.43H90.5   c-0.29-1.03-0.58-2.04-0.88-3.04H85.73z M89.15,62.08c-0.44-1.32-0.91-2.57-1.48-4c-0.59,1.44-1.04,2.66-1.48,4H89.15z"></path>		<path d="M99,56.12h1.94l-3.62,10.43h-1.76l-3.62-10.43h1.95l2.57,8.01L99,56.12z"></path>		<path d="M103.92,64.35c0,0.35,0.12,0.65,0.71,0.65h4.1v1.54h-4.19c-1.68-0.05-2.42-0.56-2.45-2.12v-8.31h6.65v1.54h-4.81v2.74   h4.48v1.54h-4.48V64.35z"></path>		<path d="M118.2,66.71c-3.18-0.02-5.28-2.1-5.28-5.34c0-3.92,2.8-5.42,5.3-5.42c2.53,0,5.31,1.5,5.31,5.42   C123.53,64.61,121.41,66.71,118.2,66.71z M121.71,61.37c0-2.72-1.82-3.91-3.5-3.91c-1.67,0-3.48,1.18-3.48,3.91   c0,2.24,1.39,3.83,3.47,3.83C120.32,65.2,121.71,63.61,121.71,61.37z"></path>		<path d="M127.06,66.55h-1.82V56.12h6.1v1.54h-4.28v2.74h3.95v1.54h-3.95V66.55z"></path>		<path d="M137.94,66.55v-8.89h-3.13v-1.54h8.1v1.54h-3.13v8.89H137.94z"></path>		<path d="M144.18,66.55V56.12h1.83v4.24h4.56v-4.24h1.83v10.43h-1.83V61.9h-4.56v4.65H144.18z"></path>		<path d="M156.48,64.35c0,0.35,0.12,0.65,0.71,0.65h4.1v1.54h-4.19c-1.68-0.05-2.42-0.56-2.45-2.12v-8.31h6.65v1.54h-4.81v2.74   h4.48v1.54h-4.48V64.35z"></path>		<path d="M167.87,66.55h-1.82V56.12h6.1v1.54h-4.28v2.74h3.95v1.54h-3.95V66.55z"></path>		<path d="M173.58,62.2v-6.08h1.82v5.81c0,3.33,1.86,3.19,2.44,3.19c0.71,0,2.45,0.14,2.45-3.19v-5.81h1.82v6.08   c0,4.3-3,4.51-4.27,4.51C176.57,66.71,173.58,66.5,173.58,62.2z"></path>		<path d="M186.39,66.55v-8.89h-3.13v-1.54h8.1v1.54h-3.13v8.89H186.39z"></path>		<path d="M192.52,62.2v-6.08h1.82v5.81c0,3.33,1.86,3.19,2.44,3.19c0.71,0,2.45,0.14,2.45-3.19v-5.81h1.82v6.08   c0,4.3-3,4.51-4.27,4.51C195.52,66.71,192.52,66.5,192.52,62.2z"></path>		<path d="M209.14,66.55c-0.54-1-1.39-2.26-2.1-3.24c-0.48-0.68-0.67-0.89-1.03-0.89h-0.98v4.13h-1.82V56.12h4.21   c1.76,0,3.18,1.03,3.18,3.09c0,2.04-1.14,2.82-2.27,3.1c1.07,1.2,2.26,3.07,2.88,4.24H209.14z M207.51,60.92   c0.64,0,1.27-0.35,1.27-1.71c0-0.95-0.58-1.53-1.5-1.53h-2.25v3.24H207.51z"></path>		<path d="M214.35,64.35c0,0.35,0.12,0.65,0.71,0.65h4.1v1.54h-4.19c-1.68-0.05-2.42-0.56-2.45-2.12v-8.31h6.65v1.54h-4.81v2.74   h4.48v1.54h-4.48V64.35z"></path>	</g></g></svg>