<?xml version="1.0" encoding="UTF-8"?>
<svg version="1.1" id="Grimme_Logo" xmlns="http://www.w3.org/2000/svg" xmlns:xlink="http://www.w3.org/1999/xlink" x="0px" y="0px" viewBox="0 0 394.1 83.9" style="enable-background:new 0 0 394.1 83.9;" xml:space="preserve">
<g id="Grimme">
	<circle style="fill:#C31924;" cx="154.7" cy="14.3" r="14.3"/>
	<path style="fill:#C31924;" d="M393.9,6.6L390,22.3l-217.7,0c2.5-4.7,2.5-11.7-0.1-16.4l221.8,0L393.9,6.6"/>
	<g>
		<path style="fill:#C31924;" d="M137.1,5.9c-2.6,4.7-2.5,11.7-0.1,16.4H10.8l0.1-0.3l3.8-15.9l0.1-0.2L137.1,5.9"/>
		<path style="fill:#C31924;" d="M65.1,35.1l-0.1,0.9L61,49.6c-9.3-1.1-19.5-1.6-29.2-0.7c-3.9,0.6-7.4,4.1-8.5,7.9    c-1,4.2-3.5,9.6-0.4,13.6c3.1,2.6,14,1.2,14,1.2c0.6-1.7,1.7-5.7,1.7-5.7c0,0-6.6-0.1-6.6-0.1c0,0,1.8-6.6,2.6-10l24.6,0.2    l0.1,0.5l-6.8,24.4l-0.5,0.4c-9.5,2.2-20,2.5-30.4,2.7C15.4,83.5,9,83.3,4.1,79.5c-6.9-6.2-3.3-17-1.8-24.7    c2.1-7.5,4.9-16.1,13.1-19.5c11-4.6,25.2-3.2,37.4-2.2C56.9,33.6,61,34.3,65.1,35.1"/>
	</g>
	<path style="fill:#C31924;" d="M161,32.7l-5.2,20.5l-7.5,29.9c0,0-21.3,0-21.3,0l13-50.4H161"/>
	<path style="fill:#C31924;" d="M283.1,58.8l0.2,0.2l15-26.2h28.9l-13.4,50.4c0,0-21,0-21,0l0.6-2.2l5.6-22.1v-0.2l-1.1,1.4   l-14.6,23h-11.8l-2.6-25.3l-0.1-0.1l-6.8,25.4h-20.7L254,32.9l0-0.2h27.7L283.1,58.8z"/>
	<path style="fill:#C31924;" d="M200.4,58.8l0.2,0.2l15-26.2h28.9L231,83.2c0,0-21,0-21,0l0.5-2.2l5.6-22.1v-0.2l-1.1,1.4l-14.6,23   h-11.8l-2.6-25.3l-0.1-0.1l-6.8,25.4h-20.7l12.9-50.2l0-0.2h27.7L200.4,58.8z"/>
	<g>
		<path style="fill:#C31924;" d="M387.4,33c-1.5,5.4-2.7,10.8-4.3,16.1l-28.6,0c-0.4,1.6-0.9,3.2-1.2,4.7l-0.1,0.3l28.8,0l-0.2,0.7    L379,65l-28.7,0c0,0-1.4,5.2-1.4,5.2l0.2,0l28.6,0c0,0-3,12.8-3.1,12.9l-0.3,0l-49.8,0l-0.2,0c0,0,12.7-50.4,12.8-50.4h50.2    L387.4,33"/>
		<path style="fill:#C31924;" d="M126.8,38.5c-1.8-4.3-6.3-5.4-10.5-5.6L98,32.8l-23.8-0.1L61.5,83.2c7,0.2,14.3,0,21.4,0    c0,0,3.7-13.3,4.6-16.7c3.6,5.6,6.9,11.1,10.4,16.7H98h24.2c-4.4-6.9-9.3-13.5-13.6-20.3l5.2-0.4c4.7-0.4,9.4-3.1,11.4-7.6    c1.3-3.1,2.5-6.7,2.6-10.4v-0.9C127.8,41.8,127.5,40.2,126.8,38.5z M106.3,51.7c-0.6,5.5-6.5,5.7-8.2,5.7    c-2.8,0.1-5.6-0.1-8.3-0.1c0.7-3.5,1.7-7,2.7-10.5c1.8,0,3.7-0.1,5.6-0.1c2.4-0.1,4.7,0.1,6.8,0.6    C106.3,48.2,106.5,49.9,106.3,51.7z"/>
		<path style="fill:#C31924;" d="M65.2,35.2l-0.3,0.9L61,49.6c-9.3-1.1-19.5-1.6-29.2-0.7c-3.9,0.6-7.4,4.1-8.5,7.9    c-1,4.2-3.5,9.6-0.4,13.6c3.1,2.6,14,1.2,14,1.2c0.6-1.7,1.1-3.9,1.6-5.7c0,0-6.5-0.1-6.5-0.1c0,0,2.6-9.8,2.6-9.8l24.9,0l-7,25.1    l-0.5,0.1c-9.5,2.2-20,2.5-30.4,2.7C15.4,83.5,9,83.3,4.1,79.5c-6.9-6.2-3.3-17-1.8-24.7c2.1-7.5,4.9-16.1,13.1-19.5    c11-4.6,25.2-3.2,37.4-2.2c4.1,0.5,8.2,1.2,12.3,2.1"/>
	</g>
</g>
</svg>