<?xml version="1.0" encoding="UTF-8" standalone="no"?>
<!-- Created with Inkscape (http://www.inkscape.org/) -->
<svg xmlns:dc="http://purl.org/dc/elements/1.1/" xmlns:cc="http://creativecommons.org/ns#" xmlns:rdf="http://www.w3.org/1999/02/22-rdf-syntax-ns#" xmlns:svg="http://www.w3.org/2000/svg" xmlns="http://www.w3.org/2000/svg" version="1.1" width="892.91339" height="153.07086" id="svg4031">
  <defs id="defs4033"/>
  <metadata id="metadata4036">
    <rdf:RDF>
      <cc:Work rdf:about="">
        <dc:format>image/svg+xml</dc:format>
        <dc:type rdf:resource="http://purl.org/dc/dcmitype/StillImage"/>
        <dc:title/>
      </cc:Work>
    </rdf:RDF>
  </metadata>
  <g transform="translate(-5.1005719,-312.08247)" id="layer1">
    <g transform="matrix(4.6671892,0,0,4.6671892,-1415.3184,-1362.6017)" id="g4074">
      <g transform="matrix(1.25,0,0,-1.25,411.64774,359.62514)" id="g3111">
        <path d="m 0,0 21.175,0.001 0.002,-4.958 -14.664,0 -0.001,-4.836 12.565,0 0,-5.01 -12.565,0 0,-4.707 14.9,0 0.001,-5.473 L 0,-24.983 0,0 z" id="path3113" style="fill:#918f90;fill-opacity:1;fill-rule:nonzero;stroke:none"/>
      </g>
      <g transform="matrix(1.25,0,0,-1.25,468.04063,359.58402)" id="g3115">
        <path d="m 0,0 21.254,-0.034 0,-4.949 -14.669,0 -0.001,-4.837 12.35,0 0,-5.01 -12.35,0 0,-4.706 14.902,0 10e-4,-5.49 -21.467,0 L 0,0 z" id="path3117" style="fill:#918f90;fill-opacity:1;fill-rule:nonzero;stroke:none"/>
      </g>
      <g transform="matrix(1.25,0,0,-1.25,305.10061,359.58113)" id="g3119">
        <path d="m 0,0 6.468,0 0,-9.391 12.452,0 0,9.391 6.467,0.008 0,-25.031 -6.461,0.005 -0.006,9.708 -12.452,0 0,-9.706 L 0,-25.015 0,0 z" id="path3121" style="fill:#918f90;fill-opacity:1;fill-rule:nonzero;stroke:none"/>
      </g>
      <g transform="matrix(1.25,0,0,-1.25,382.3595,359.62088)" id="g3123">
        <path d="m 0,0 21.964,-0.006 0,-4.933 -15.327,-0.001 0.001,-4.764 12.89,0 -0.005,-5.097 -12.885,0 0,-10.195 -6.638,0 L 0,0 z" id="path3125" style="fill:#918f90;fill-opacity:1;fill-rule:nonzero;stroke:none"/>
      </g>
      <g transform="matrix(1.25,0,0,-1.25,356.01688,359.61127)" id="g3127">
        <path d="m 0,0 5.701,0 13.938,-25.002 -6.977,0 -3.04,5.315 -13.826,0 -3.018,-5.318 -6.669,0 L 0,0 z m 2.642,-6.206 -4.617,-8.459 9.178,0 -4.561,8.459 z" id="path3129" style="fill:#d8123c;fill-opacity:1;fill-rule:nonzero;stroke:none"/>
      </g>
      <path d="m 342.49537,359.61777 7.59,0 0,5.42875 -7.59,0 0,-5.42875 z" id="path3131" style="fill:#d8123c;fill-opacity:1;fill-rule:nonzero;stroke:none"/>
      <g transform="matrix(1.25,0,0,-1.25,376.39274,359.62478)" id="g3133">
        <path d="m 0,0 -6.096,0.013 0,-4.349 6.096,0 L 0,0 z" id="path3135" style="fill:#d8123c;fill-opacity:1;fill-rule:nonzero;stroke:none"/>
      </g>
      <g transform="matrix(1.25,0,0,-1.25,449.27273,359.62139)" id="g3137">
        <path d="m 0,0 -7.016,-0.008 0.009,-24.979 20.592,-0.004 -0.012,5.567 -13.576,0.003 L 0,0 z" id="path3139" style="fill:#918f90;fill-opacity:1;fill-rule:nonzero;stroke:none"/>
      </g>
    </g>
  </g>
</svg>