<?xml version="1.0" encoding="UTF-8"?>
<!-- Generator: Adobe Illustrator 22.1.0, SVG Export Plug-In . SVG Version: 6.00 Build 0)  -->
<svg version="1.1" id="Ebene_1" xmlns="http://www.w3.org/2000/svg" xmlns:xlink="http://www.w3.org/1999/xlink" x="0px" y="0px" viewBox="0 0 439.6 210.2" style="enable-background:new 0 0 439.6 210.2;" xml:space="preserve">
<style type="text/css">
	.st0{fill:#E30613;}
	.st1{fill:none;stroke:#E30613;stroke-width:2.478;stroke-miterlimit:3.864;}
	.st2{fill:#FFFFFF;}
</style>
<g>
	<path d="M7,174.3h29.7v-27.1h7.1v63h-7.1v-30H7v30H0v-63h7V174.3z"/>
	<path d="M75.4,146.8h6.1l21.7,63.4H96l-5.7-16.7H66.6L61,210.2h-7.4L75.4,146.8z M88.4,187.3L78.5,156l-9.9,31.3H88.4z"/>
	<path d="M113.3,147.2h7.3V204h26.9v6.1h-34.2V147.2z"/>
	<path d="M165.2,174.5h25.6v6.1h-25.6V204h28.1v6.1h-35.1v-63h34.6v6.1h-27.6V174.5z"/>
	<path d="M205.6,147.2h10.7l17.7,55.3l17.8-55.3h10.7v63h-6.8v-55.8l-18,55.8h-7.1l-18.1-55.8v55.8h-6.7V147.2z"/>
	<path d="M285.6,174.5h25.6v6.1h-25.6V204h28.1v6.1h-35.1v-63h34.6v6.1h-27.6V174.5z"/>
	<path d="M333.1,210.2h-7.2v-63h7.2V210.2z"/>
	<path d="M356.2,174.5h25.6v6.1h-25.6V204h28.1v6.1h-35.1v-63h34.6v6.1h-27.6V174.5z"/>
	<path d="M396.6,147.2h11.1c9.8,0,13.4,0.5,17.6,2c6.3,2.5,10.1,8.4,10.1,15.9c0,8.3-4.3,14-12.9,17.1l16.6,28.1h-8.5l-16-26.9h-11   v26.9h-7V147.2z M403.6,177.1h4.4c7.7,0,9.8-0.2,12.8-1.2c4.5-1.6,7.1-5.6,7.1-11c0-4.8-2.2-8.5-6-10.1c-3-1.3-5-1.5-14-1.5h-4.3   V177.1z"/>
</g>
<g>
	<g>
		<rect x="155.5" y="1.3" class="st0" width="100.1" height="98.1"/>
		<rect x="155.5" y="1.3" class="st1" width="100.1" height="98.1"/>
		<rect x="173.8" y="75.4" class="st2" width="16.9" height="16.5"/>
		<path class="st2" d="M199.9,92h13.7V67.1c0-9.1,4.6-21.4,13.8-21.4c4.8,0,6.1,1.7,6.1,13.4V92h13.7V52.1c0-13.2-7.3-19-15.9-19    c-10.9,0-15.5,7.7-17.4,12.1h-0.3V8.6h-13.7V92"/>
	</g>
</g>
<script xmlns=""/><script xmlns=""/><script xmlns=""/><script xmlns=""/></svg>