<?xml version="1.0" encoding="UTF-8" standalone="no"?>
<svg
   xmlns:dc="http://purl.org/dc/elements/1.1/"
   xmlns:cc="http://creativecommons.org/ns#"
   xmlns:rdf="http://www.w3.org/1999/02/22-rdf-syntax-ns#"
   xmlns:svg="http://www.w3.org/2000/svg"
   xmlns="http://www.w3.org/2000/svg"
   viewBox="0 0 759.67999 472.44"
   height="472.44"
   width="759.67999"
   xml:space="preserve"
   id="svg2"
   version="1.1"><metadata
     id="metadata8"><rdf:RDF><cc:Work
         rdf:about=""><dc:format>image/svg+xml</dc:format><dc:type
           rdf:resource="http://purl.org/dc/dcmitype/StillImage" /></cc:Work></rdf:RDF></metadata><defs
     id="defs6" /><g
     transform="matrix(1.3333333,0,0,-1.3333333,0,472.44)"
     id="g10"><g
       transform="scale(0.1)"
       id="g12"><path
         id="path14"
         style="fill:#231f20;fill-opacity:1;fill-rule:nonzero;stroke:none"
         d="m 3511.78,2341.04 1593.97,918.81 v 269.29 L 3511.78,2608.86 v -269.28 1.46" /><path
         id="path16"
         style="fill:#231f20;fill-opacity:1;fill-rule:nonzero;stroke:none"
         d="m 3511.78,1965.45 1593.97,918.8 v 269.3 L 3511.78,2233.27 v -269.28 1.46" /><path
         id="path18"
         style="fill:#231f20;fill-opacity:1;fill-rule:nonzero;stroke:none"
         d="m 3511.78,1589.86 1593.97,918.8 v 269.3 L 3511.78,1857.68 v -269.28 1.46" /><path
         id="path20"
         style="fill:#231f20;fill-opacity:1;fill-rule:nonzero;stroke:none"
         d="m 3511.78,1214.27 1593.97,918.8 v 269.3 L 3511.78,1482.09 v -269.28 1.46" /><path
         id="path22"
         style="fill:#231f20;fill-opacity:1;fill-rule:nonzero;stroke:none"
         d="m 1152.66,652.359 v 0 c 0.06,150.161 25.55,508.091 462.56,521.821 v 0 c 453.14,-6.21 412.61,-470.782 413.78,-542.598 h -596.6 c 3.9,-46.703 24.69,-233.852 184.87,-336.492 v 0 c 154.27,-106.5 386.29,8.558 386.29,8.558 V 70.8789 c 0,0 -153.92,-56.8594 -312.02,-50.1992 v 0 c -99.61,0 -544.83,14.7305 -538.88,631.6793 z m 589.77,183.243 c -3.63,22.929 -19.51,117.968 -145.71,121.019 v 0 c -119.52,0 -147.95,-99.652 -154.28,-121.019 v 0 h 299.99 v 0" /><path
         id="path24"
         style="fill:#231f20;fill-opacity:1;fill-rule:nonzero;stroke:none"
         d="M 788.016,42.5195 V 627.539 H 322.313 V 42.5195 H 14.1719 V 1488.19 H 322.313 V 869.66 h 465.703 v 618.53 H 1096.17 V 42.5195 H 788.016" /><path
         id="path26"
         style="fill:#231f20;fill-opacity:1;fill-rule:nonzero;stroke:none"
         d="m 3857.36,641.25 v 0 c 10.11,462.03 321.01,530.99 492.23,530.58 v 0 c 409.77,-0.25 413.67,-322.611 413.78,-441.521 h -310.26 c 0,0 26.4,214.839 -122.6,210.98 v 0 c -143.36,-4.297 -163.02,-180.84 -162.89,-256.098 v 0 c -0.13,-101.679 26.68,-212.601 87.62,-295.562 v 0 c 61.27,-82.879 153.78,-140.199 297.88,-140.707 v 0 c 109.27,-1.352 199.65,39.137 199.65,39.137 V 74.8008 c 0,0 -160.9,-56.9688 -324.75,-56.461 v 0 c -0.17,0 -0.32,0 -0.49,0 v 0 C 4270.75,18.3594 3861.44,63.9609 3857.36,641.25" /><path
         id="path28"
         style="fill:#231f20;fill-opacity:1;fill-rule:nonzero;stroke:none"
         d="m 2867.83,1148.03 v 340.16 l 295.43,170.08 V 1148.03 H 3462.2 V 919.289 h -298.94 v -464.84 c -5.06,-210.84 78.35,-199.73 128.97,-205.527 v 0 c 46.04,-0.703 138.15,26.367 138.15,26.367 V 40.6602 c 0,0 -134.2,-23.4688 -222.96,-22.3204 v 0 c -68.71,2.6719 -349.34,-9.60933 -339.59,317.4612 v 0 583.488 h -347.45 v -464.84 c 2.58,-83.359 -7.76,-202.808 128.96,-205.527 35.19,-0.703 138.16,26.367 138.16,26.367 V 40.6602 c 0,0 -157.05,-24.7618 -247.91,-22.3204 v 0 c -102.46,6.7696 -315.53,-2.4414 -314.64,317.4612 v 0 583.488 h -197.18 v 228.741 h 197.18 v 340.16 l 295.39,170.08 0.01,-510.24 h 347.48" /><path
         id="path30"
         style="fill:#231f20;fill-opacity:1;fill-rule:nonzero;stroke:none"
         d="M 5388.08,42.5195 V 669.801 c 2.54,214.57 -23.03,215.179 -73.85,214.34 v 0 C 5146.78,880.68 5104.38,603.75 5106.81,524.762 h -1.05 V 42.5195 H 4810.52 V 1488.19 l 295.24,170.08 v -626.34 c 12.7,17.52 113.77,144.51 274.21,139.9 v 0 c 81.24,0.24 301.04,-36.33 303.49,-374.568 v 0 -754.7425 h -295.38" /><path
         id="path32"
         style="fill:#231f20;fill-opacity:1;fill-rule:nonzero;stroke:none"
         d="M 3511.78,42.5195 V 1148.03 h 295.44 V 42.5195 h -295.44" /></g></g></svg>