<?xml version="1.0" encoding="UTF-8" standalone="no"?>
<!-- Created with Inkscape (http://www.inkscape.org/) -->

<svg
   version="1.1"
   id="svg2"
   width="509.33334"
   height="121.33333"
   viewBox="0 0 509.33334 121.33333"
   sodipodi:docname="hotpoint-seeklogo.eps"
   xmlns:inkscape="http://www.inkscape.org/namespaces/inkscape"
   xmlns:sodipodi="http://sodipodi.sourceforge.net/DTD/sodipodi-0.dtd"
   xmlns="http://www.w3.org/2000/svg"
   xmlns:svg="http://www.w3.org/2000/svg">
  <defs
     id="defs6" />
  <sodipodi:namedview
     id="namedview4"
     pagecolor="#ffffff"
     bordercolor="#000000"
     borderopacity="0.25"
     inkscape:showpageshadow="2"
     inkscape:pageopacity="0.0"
     inkscape:pagecheckerboard="0"
     inkscape:deskcolor="#d1d1d1" />
  <g
     id="g8"
     inkscape:groupmode="layer"
     inkscape:label="ink_ext_XXXXXX"
     transform="matrix(1.3333333,0,0,-1.3333333,0,121.33333)">
    <g
       id="g10"
       transform="scale(0.1)">
      <path
         d="M 8.86719,900.582 H 3808.57 V 6.53516 H 8.86719 V 900.582"
         style="fill:#231f20;fill-opacity:1;fill-rule:evenodd;stroke:none"
         id="path12" />
      <path
         d="M 8.86719,900.582 H 3808.57 V 6.53516 H 8.86719 Z"
         style="fill:none;stroke:#231f20;stroke-width:5.6693;stroke-linecap:butt;stroke-linejoin:miter;stroke-miterlimit:22.9256;stroke-dasharray:none;stroke-opacity:1"
         id="path14" />
      <path
         d="m 376.773,573.398 v 4.68 c 0,40.91 39.786,78.106 81.227,78.106 45.125,0 82.789,-36.102 82.789,-81.227 v -9.375 c 0,-34.789 -39.121,-73.414 -74.976,-73.414 H 451.75 c -39.875,0 -74.977,39.406 -74.977,81.23 z M 200.266,671.801 V 237.555 c 0,-21.59 19.937,-42.172 40.609,-42.172 h 435.813 c 22.019,0 40.609,22.008 40.609,45.301 v 427.992 c 0,26.949 -22.145,43.742 -49.984,43.742 H 242.441 c -20.683,0 -42.175,-20.262 -42.175,-40.617 z M 1023.46,418.754 h 195.25 l 1.56,-173.387 c 0.39,-17.312 18.03,-26.558 35.93,-26.558 h 7.81 c 17.38,0 35.93,12.902 35.93,31.242 v 403.008 c 0,24.644 -14.87,35.925 -39.05,35.925 -46.06,0 -42.18,-31.238 -42.18,-76.543 0,-39.57 0,-79.136 0,-118.711 l -195.25,-1.585 v 167.16 c -0.43,19.328 -19.12,29.679 -39.054,29.679 -17.304,0 -40.613,-10.933 -40.613,-26.55 V 250.051 c 0,-20.278 14.437,-31.242 34.363,-31.242 h 7.813 c 45.861,0 37.491,37.504 37.491,81.226 0,39.57 0,79.145 0,118.719 z m 1115.29,65.605 c 0,7.664 34.48,9.371 43.74,9.371 h 42.17 c 59.55,0 81.23,-43.597 81.23,-104.656 v -6.25 c 0,-64.902 -24.25,-104.656 -89.03,-104.656 h -34.37 c -9.98,0 -43.74,0.973 -43.74,9.375 z m 62.48,-268.668 c 114.73,0 185.88,53.696 185.88,167.133 v 10.934 c 0,99.914 -62.98,165.578 -162.45,165.578 h -20.3 c -64.12,0 -145.27,-4.211 -145.27,-67.168 V 103.219 c 0,-17.2815 20.49,-26.551 39.05,-26.551 h 1.56 c 20.08,0 39.05,10.1445 39.05,29.676 V 223.5 l 60.75,-9.113 z m 320.22,157.766 v 34.359 c 0,53.551 27.88,95.286 81.23,95.286 h 21.86 c 65.91,0 84.35,-47.692 84.35,-114.028 v -3.129 c 0,-31.828 -5.07,-62.41 -19.16,-80.797 -7.39,-9.636 -15.19,-17.726 -27.18,-22.816 -18.9,-8.035 -21.41,-4.25 -42.38,-7.637 -28.24,-4.562 -60.26,7.172 -74.94,22.571 -15.48,16.25 -23.78,44.964 -23.78,76.191 z m -79.66,21.863 v -18.742 c 0,-107.375 65,-165.578 173.38,-165.578 115.92,0 173.39,62.246 173.39,178.074 v 12.496 c 0,48.832 -20.89,98.215 -45.68,123.016 -28.04,28.035 -72.05,42.559 -127.71,42.559 -112.63,0 -173.38,-59.571 -173.38,-171.825 z m -990.34,-20.304 v 26.554 c 0,59.457 25.92,101.532 85.92,101.532 h 21.86 c 52.24,0 79.67,-41.106 79.67,-93.719 v -43.738 c 0,-57.989 -34.63,-92.161 -93.72,-92.161 -65.13,0 -93.73,37.008 -93.73,101.532 z m -79.66,26.554 V 385.945 C 1371.79,273.09 1431.93,211 1545.18,211 h 4.68 c 109.11,0 168.7,62.344 168.7,171.824 v 21.871 c 0,101.145 -64.75,162.45 -167.14,162.45 h -4.68 c -56.63,0 -99.03,-13.891 -127.7,-42.559 -27.17,-27.176 -47.25,-69.871 -47.25,-123.016 z M 3068.16,218.809 c 35.86,0 39.05,18.386 39.05,53.109 0,30.723 0,61.441 0,92.164 0,67.188 -14.13,128.086 54.68,128.086 h 46.86 c 71.64,0 57.79,-59.703 57.79,-129.645 0,-31.246 0,-62.488 0,-93.722 0,-37.164 4.69,-49.992 42.18,-49.992 h 3.12 c 14.46,0 34.37,10.847 34.37,24.992 v 206.191 c 0,35.785 -17.78,65.629 -37.08,83.203 -17.8,16.219 -58.27,26.141 -92.58,26.141 h -65.6 c -85.02,0 -124.96,-45.336 -124.96,-131.211 V 251.617 c 0,-22.285 16.77,-32.808 39.05,-32.808 z m -1194.96,99.972 -1.58,174.949 h 106.24 c 12.74,1.063 18.75,14.188 18.75,28.118 v 4.687 c 0,14.567 -10.18,26.551 -25,26.551 h -99.97 v 95.289 c 0,20.02 -16.93,29.676 -37.49,29.676 h -3.12 c -21.35,0 -39.05,-10.879 -39.05,-32.801 V 306.285 c 0,-62.664 52.44,-89.035 117.15,-89.035 h 68.73 c 14.82,0 25,11.984 25,26.551 v 4.691 c 0,68.75 -129.66,-12.765 -129.66,70.289 z m 1637.02,1.563 c -4.36,6.875 -1.56,120.066 -1.56,139.023 0,42.457 -7.12,34.363 35.92,34.363 23.43,0 46.87,0 70.29,0 12.33,1.024 18.75,12.844 18.75,26.555 v 4.684 c 0,13.945 -6.07,23.965 -17.18,26.554 l -106.22,1.563 -1.56,98.406 c -0.41,18.137 -18.32,26.559 -37.49,26.559 h -4.69 c -21.28,0 -37.49,-12.461 -37.49,-34.367 V 318.781 c 0,-72.972 44.21,-101.531 117.15,-101.531 h 67.17 c 16.05,0 26.56,9.289 26.56,24.992 v 10.934 c 0,32.797 -42.32,22.902 -75.04,23.371 -32.47,0.465 -54.61,10.906 -54.61,43.797 z m -649.81,-64.043 c 0,-21.711 12.51,-37.492 32.8,-37.492 h 15.62 c 14.45,0 32.81,12.879 32.81,26.558 v 284.289 c 0,17.321 -16.39,29.68 -32.81,29.68 h -10.93 c -22.85,0 -37.49,-12.773 -37.49,-35.926 z m -9.37,403.004 c 0,-27.578 23.04,-51.551 49.98,-51.551 24.93,0 49.99,21.668 49.99,45.305 v 10.933 c 0,24.981 -25.3,45.301 -51.55,45.301 -25.29,0 -48.42,-24.941 -48.42,-49.988 z m 659.18,-338.961 v 171.781 l 104.65,1.605 c -23.42,0 -46.86,0 -70.29,0 -43.04,0 -35.92,8.094 -35.92,-34.363 0,-18.957 -2.8,-132.148 1.56,-139.023 z M 1218.71,493.73 h -193.66 l -1.59,165.575 V 492.145 Z M 1873.2,318.781 v 173.344 l 104.66,1.605 h -106.24 z m 1637.02,234.305 106.22,-1.563 -106.22,1.563 -1.56,98.406 z m -2291.51,-134.332 1.56,-173.387 -1.56,173.387 h -195.25 195.25"
         style="fill:#ffffff;fill-opacity:1;fill-rule:evenodd;stroke:none"
         id="path16" />
    </g>
  </g>
</svg>
