<svg xmlns="http://www.w3.org/2000/svg" aria-labelledby="illy_caffe_logo" fill="none" id="logo-illy" viewBox="0 0 50 50" color="#000"><style>.st1{fill:#fff}</style><path fill="#e20d18" d="M0 0h50v50H0z"/><path class="st1" d="M11.8 15.15c-.77-.82-1.05-2.66.38-4.42 1.75-2.16 4.23-2.82 4.6-1.14.44 1.61 0 2.74-1 3.98-.53.63-1.13 1.21-1.56 1.59-.72.64-1.66.8-2.42-.01m2.7 22.69c-2-.33-2.32-1.3-2.61-3.25-.73-4.48 6.32-19.75 6.84-20.93.24-.6 2.53-5.3 3.95-6.02.53-.26.81-.16 1.2.21.88.85 1.5 1.74 1.74 2.69.18.72.06 1.43-.52 2.51-.45.86-1.88 3.88-2.29 4.9-1.9 4.64-4.68 10.58-6.02 15.43-.24.84-.75 2.71-1.33 3.77-.32.55-.55.75-.96.69m8.46.17c-.93-.31-1.78-1.39-2.14-2.22-.2-.45-.19-.82-.15-1.29.13-2.03.89-5.85 2.62-10.5 2.04-5.45 4.81-11.1 7.54-14.98.55-.77 1.15-.57 1.79-.1.91.67 1.53 1.29 1.79 1.94.43 1.11-.27 3-1.22 4.83-2.52 4.87-4.72 10.03-6.46 15.23-.45 1.35-1.67 5-2.29 6.49-.31.75-.72.82-1.48.6m2.4 6.44c1.93-.98 10.32-7.53 10.32-8.81-.51.25-1.91.94-3.06 1.13-1.01.16-1.47-.18-2.14-.89-.73-.76-1.57-1.87-1.57-2.74 0-1.3 1.11-4.59 1.97-6.38 1.21-2.64 3.47-6.49 4.63-7.72.2-.23.34-.31.66-.31 1.1 0 2.34 1.87 2.77 2.61.92 1.45-3.12 6.57-4.01 8.29-.57 1.1-1.36 2.42-.89 2.8.2.15.39.14.59.02.72-.45 1.42-1.03 2.02-1.63 1.47-1.51 3.75-4.53 6.06-8.79.21-.37.93-1.62 1.49-1.68.2-.01.34.13.47.25.8.65 2.01 1.77 2.05 2.38.01.33-.3 1.49-.73 2.88-1.12 3.63-2.9 6.82-5.26 9.47-2.99 3.33-6.81 5.83-10.46 8.04-.51.31-2.28 1.3-3.25 1.6-.35.11-.69.08-1.05.06-.34-.01-.62-.07-.76-.17-.2-.15-.02-.32.15-.41M3.38 35.11c-.16-2.01.4-3.3 1.91-7.98.53-1.74 1.62-4.39 1.92-5.09.7-1.7 2.04-4.57 4.25-4.58.59-.01 1.43.74 1.57 1.28.19.62-.68 3.23-.9 3.83-1.07 3.02-2.61 6.56-3.79 11.69-.09.49-.68 2.39-1.05 3.15-.1.21-.16.32-.4.37-.33.07-.93.06-1.41.01-1.29-.12-2.02-1.49-2.1-2.68m41.32 2.26c0 .51-.21.97-.55 1.3-.34.34-.81.51-1.32.51s-.98-.17-1.32-.51c-.35-.33-.56-.79-.56-1.3v-.04c0-.52.21-.97.56-1.27.34-.34.81-.55 1.32-.55s.98.21 1.32.55c.34.3.55.76.55 1.27v.04zm-.39-1.47a2.06 2.06 0 00-1.48-.63c-.6 0-1.11.25-1.49.63-.39.38-.6.88-.6 1.44v.04c0 .54.21 1.05.6 1.43.38.38.89.63 1.49.63s1.1-.25 1.48-.63c.39-.38.6-.89.6-1.43v-.04c0-.57-.21-1.07-.6-1.44"/><path class="st1" d="M43.17 37.14c-.08.05-.17.08-.34.08h-.48v-.76h.48c.17 0 .26.05.34.09.09.05.17.17.17.29 0 .13-.08.26-.17.3m.46.08c.1-.12.13-.25.13-.42 0-.21-.09-.38-.21-.46-.17-.13-.43-.18-.72-.18h-.94v2.37h.46v-1.02h.43l.05.08.42.94h.51l-.51-1.1c.17-.04.3-.07.38-.21"/></svg>