<?xml version="1.0" encoding="UTF-8"?>
<!-- Generator: Adobe Illustrator 28.0.0, SVG Export Plug-In . SVG Version: 6.00 Build 0)  -->
<svg version="1.1" id="Livello_1" xmlns="http://www.w3.org/2000/svg" xmlns:xlink="http://www.w3.org/1999/xlink" x="0px" y="0px" viewBox="0 0 787.4 450.7" style="enable-background:new 0 0 787.4 450.7;" xml:space="preserve">
<style type="text/css">
	.st0{fill:#1C1C1B;}
	.st1{fill:#D20910;}
</style>
<g id="Livello_2_00000085965970163740507560000005212986613178102152_">
	<g id="Livello_1-2">
		<path class="st0" d="M423.2,271.6c-3.3-0.7-6.6-1.1-10-1.1c-7.4,0-14.8,1.6-21.6,4.5c-2.4,1.4-4.7,3.1-6.7,5    c9.8,10.6,11.4,24.4,11.4,38.5c0,6.9-0.4,13.8-0.4,20.5c0,2.7,0.1,5.4,0.2,8.1c0,12.6-4,23.4-11.8,32.5c8.2,6.2,18.1,9.5,28.3,9.5    c4.8,0,9.5-0.7,14-2.3c4.3-1.4,8.3-3.8,11.6-6.9c7.1-6.7,11.5-16.6,13-25.8v-41.5c0-9.8-2.4-19.1-7.8-26.8    C438.6,277.9,431.4,273.5,423.2,271.6"/>
		<path class="st0" d="M480.1,351.4l-0.2-85.5h-49c8.4,2.8,15.5,8.5,20.1,16c6.3,9,8.9,19.6,9,30.3v0.3c0,0.5,0,1,0,1.3v40.7    L460,355c-1.7,10.6-6.6,22-15.1,30c5.6,4.6,14.4,7.7,19.2,7.6h49c-7.1-3.1-13.7-7.3-19.6-12.3C485.3,373.1,481,362.3,480.1,351.4"/>
		<path class="st0" d="M569.9,265.7h-55.1c0.1,11.9,0.2,21.8,0.2,30.2c0,22.9-0.4,34.5-0.4,42.5c0,3.3,0,6,0.2,8.7    c0.2,11.9-4,23.5-11.9,32.5c8.2,6.2,18.1,9.5,28.3,9.4c4.8,0,9.5-0.7,14-2.3c5.5-1.8,10.4-5.2,14.1-9.6    c5.6-6.6,9.2-14.6,10.5-23.1v-41.5c0-2.3,0-9.1,0-33.4L569.9,265.7"/>
		<path class="st0" d="M218.6,357.5c0.7-6.2,0.8-17,0.8-22l0.1-1.9h-78.8l-0.1,17.3l24.1-0.1l-0.1,0.9c-1,10.6-5.2,20.6-12,28.8    c7.2,5.9,16.7,8.7,26.3,8.7c4.7,0,9.3-0.7,13.8-2c1.7-0.3,3.4-0.8,4.9-1.5C208.9,381.1,217.5,368.9,218.6,357.5"/>
		<path class="st0" d="M129.3,328.4c-0.1-9.3,0.4-18.5,1.4-27.8c1.8-8.1,6.6-15.8,12.9-22c5.8-5.8,12.8-10.1,20.6-12.8h-44    c-3,0.1-6,0.4-8.9,1c-9.8,1.6-18.7,6.4-24.4,15.7c-5.8,8.2-8.4,18.2-8.4,28.6c0,0.5,0,0.9,0,1.4v43.1c0,9,6.1,36.9,35.1,36.9h49.3    c-2.4-0.9-5.3-2-7.3-2.7c-4.4-2.4-8.4-5.4-11.8-8.9c-8.1-7.9-13-18.4-14-29.6C129.5,343.7,129.3,336,129.3,328.4"/>
		<path class="st0" d="M212,287c-1.4-2.1-2.9-4.1-4.6-6c-6.4-7.2-15.7-11.1-25.3-10.7c-10.4,0.1-20.5,3.5-28.9,9.6    c6.5,7.7,10.7,17.1,12,27.1h53.7C218.7,299.9,215.9,293.2,212,287"/>
		<path class="st0" d="M297.2,356.1h-24.7l17.6,36.6h47.4l-18.5-41.3C312.2,354.5,304.8,356.1,297.2,356.1"/>
		<path class="st0" d="M218.6,357.5c-1.2,11.3-9.7,23.5-21,28.1c-1.6,0.7-3.3,1.2-4.9,1.5c-4.5,1.3-9.1,2-13.8,2    c-9.6,0-19.1-2.8-26.3-8.7c6.8-8.2,11-18.2,12-28.8l0.1-0.9l-24.1,0.1l0.1-17.3h78.8l-0.1,1.9    C219.4,340.5,219.2,351.4,218.6,357.5"/>
		<path class="st0" d="M374.9,380.5c-4.5-4.7-8.1-10.2-10.5-16.2c-1.6-5.7-2.5-11.6-2.7-17.5c0-3-0.1-6-0.1-9c0-3.2,0.1-6.5,0.3-9.6    c0-2.4,0-4.8,0-7.2c0-3.5,0-7,0.3-10.4c0.3-4.5,1-8.9,2-13.2c2.3-8.9,8.2-16.5,15.5-22.3c5.1-4,10.8-7.1,16.9-9.1h-41    c-2.5,0-5.1,0.1-7.6,0.5c-3.7,0.3-7.3,0.9-10.9,2l-0.5,0.2c-2.8,1-5.5,2.3-8,3.8c11.1,8.9,17.5,22.4,17.4,36.6    c0,16.3-7.3,30.3-19.5,38.7l20.2,45.2c5.9,0.2,11.4,0.1,17.2,0.1c10.4,0,20.7-0.2,31-0.3c-1.6-0.5-3.1-1-4.7-1.6    C384.4,388.7,379.2,385,374.9,380.5"/>
		<path class="st0" d="M195.3,265.5l0.9,0.5c15.8,5.5,27.1,19,29.1,35.3c0.5,4.1,0.8,8.2,0.7,12.4h-27.2v12.9h27.7v0.9v5.4    c0,0,0,1,0,2.7c0,5.1-0.1,15.9-0.8,22.8c-1.6,14.4-11.6,28.8-26.3,34.3h50.5V265.9L195.3,265.5L195.3,265.5z"/>
		<path class="st0" d="M297.2,270.1h-38.6v0.7c16.5,3.4,28.9,19.2,28.9,38.2s-12.4,34.7-28.9,38.2v0.7h38.6    c23.9,0,40.4-17.4,40.4-38.9S321.2,270.1,297.2,270.1"/>
		<path class="st0" d="M614.3,392.6c0-2.8,0-5.5-0.1-8.1V265.9h-9.5l0,0l-25.6,0.1c0,3,0,12.8,0,18.7c0,18.2,0.1,24.8,0.1,27.3v1.5    c0,0.1,0,0.2,0,0.3v40.8l-0.1,0.4c-1.8,11-7,22.8-16,30.8v6.8L614.3,392.6L614.3,392.6z"/>
		<path class="st0" d="M661.2,270.1h-38.6v0.7c16.4,3.4,28.9,19.2,28.9,38.2s-12.5,34.7-28.9,38.2v0.7h38.6    c23.9,0,40.4-17.4,40.4-38.9S685.1,270.1,661.2,270.1"/>
		<rect x="3.1" y="422.4" class="st0" width="4" height="27.9"/>
		<path class="st0" d="M35.4,450.2v-27.9h4.4l9.8,14.1c2,2.9,3.9,5.9,5.5,9.1h0.1c-0.3-3.8-0.5-7.6-0.5-11.4v-11.7h3.7v27.9h-4    l-9.7-14.1c-2.1-3-4-6.1-5.7-9.3h-0.1c0.2,3.5,0.3,6.9,0.3,11.5v11.9L35.4,450.2L35.4,450.2z"/>
		<path class="st0" d="M86.7,422.7c2.8-0.4,5.6-0.6,8.5-0.6c5.7,0,9.7,1.1,12.4,3.4s4.4,5.5,4.4,10.1c0.1,4.1-1.5,8-4.4,10.8    c-2.9,2.6-7.7,4-13.6,4c-2.4,0-4.8-0.1-7.2-0.3L86.7,422.7L86.7,422.7z M90.7,447.4c1.3,0.2,2.7,0.2,4,0.2    c8.5,0,13.1-4.3,13.1-11.8c0-6.7-4-10.8-12.4-10.8c-1.6,0-3.1,0.1-4.6,0.4V447.4z"/>
		<path class="st0" d="M142.4,422.4v16.5c0,6.2,3.1,8.9,7.1,8.9c4.5,0,7.5-2.7,7.5-8.9v-16.5h4v16.3c0,8.6-5,12-11.6,12    c-6.3,0-11-3.2-11-11.9v-16.4H142.4z"/>
		<path class="st0" d="M188.8,445.9c2.2,1.2,4.6,1.8,7.1,1.8c4,0,6.4-1.9,6.4-4.8c0-2.6-1.6-4.1-5.8-5.5c-5-1.6-8.1-4-8.1-7.9    c0-4.3,4-7.6,9.9-7.6c2.3-0.1,4.6,0.4,6.7,1.4l-1.1,2.9c-1.8-0.9-3.8-1.4-5.8-1.3c-4.2,0-5.8,2.3-5.8,4.2c0,2.6,1.9,3.9,6.1,5.4    c5.2,1.9,7.8,4.1,7.8,8.2c0,4.3-3.5,8.1-10.7,8.1c-2.7,0-5.4-0.6-7.8-1.8L188.8,445.9L188.8,445.9z"/>
		<polygon class="st0" points="239,425.4 229.7,425.4 229.7,422.4 252.4,422.4 252.4,425.4 243,425.4 243,450.2 239,450.2   "/>
		<path class="st0" d="M277.2,422.8c2.5-0.4,5.1-0.6,7.6-0.6c4.2,0,7,0.8,8.9,2.3c1.6,1.3,2.5,3.3,2.4,5.3c0,3.6-2.6,6.1-5.8,7.1    v0.2c2.3,0.8,3.7,2.7,4.5,5.6c1,3.9,1.7,6.6,2.3,7.6h-4.1c-0.9-2.1-1.6-4.4-2-6.7c-0.9-3.9-2.6-5.3-6.2-5.4h-3.7v12.1h-4    L277.2,422.8L277.2,422.8z M281.2,435.4h4c4.2,0,6.9-2.1,6.9-5.3c0-3.6-2.9-5.2-7.1-5.2c-1.3,0-2.6,0.1-3.9,0.3L281.2,435.4    L281.2,435.4z"/>
		<rect x="323.1" y="422.4" class="st0" width="4" height="27.9"/>
		<polygon class="st0" points="371.3,437.2 359.4,437.2 359.4,447.2 372.7,447.2 372.7,450.2 355.4,450.2 355.4,422.4 372,422.4     372,425.4 359.4,425.4 359.4,434.2 371.3,434.2   "/>
		<path class="st0" d="M462.2,449c-3.1,1-6.3,1.5-9.5,1.5c-4.6,0-8.5-1.1-11.5-3.7c-2.8-2.7-4.4-6.5-4.3-10.4    c0-8.3,6.3-14.4,16.6-14.4c2.6-0.1,5.2,0.4,7.7,1.3l-1,2.9c-2.2-0.9-4.5-1.3-6.8-1.2c-7.5,0-12.3,4.2-12.3,11.2    s4.6,11.2,11.8,11.2c1.8,0.1,3.6-0.2,5.3-0.8v-8.3h-6.2v-2.9h10.1L462.2,449L462.2,449z"/>
		<path class="st0" d="M489.6,422.8c2.5-0.4,5.1-0.6,7.6-0.6c4.2,0,7,0.8,8.9,2.3c1.6,1.3,2.5,3.3,2.4,5.3c0,3.6-2.6,6.1-5.8,7.1    v0.2c2.3,0.8,3.7,2.7,4.5,5.6c0.6,2.6,1.3,5.2,2.3,7.6h-4.1c-0.9-2.1-1.6-4.4-2-6.7c-0.9-3.9-2.6-5.3-6.2-5.4h-3.7v12.1h-4    L489.6,422.8L489.6,422.8z M493.6,435.4h4c4.2,0,6.9-2.1,6.9-5.3c0-3.6-2.9-5.2-7.1-5.2c-1.3,0-2.6,0.1-3.9,0.3L493.6,435.4    L493.6,435.4z"/>
		<path class="st0" d="M540.4,441.5l-3.2,8.8h-4.1l10.4-27.9h4.8l10.5,27.9h-4.2l-3.3-8.8H540.4z M550.5,438.7l-3-8    c-0.6-1.8-1.1-3.5-1.5-5.1h-0.1c-0.4,1.6-0.9,3.4-1.5,5l-3,8.1L550.5,438.7L550.5,438.7z"/>
		<polygon class="st0" points="584.7,422.4 601.2,422.4 601.2,425.4 588.7,425.4 588.7,434.6 600.3,434.6 600.3,437.6 588.7,437.6     588.7,450.2 584.7,450.2   "/>
		<rect x="628.3" y="422.4" class="st0" width="4" height="27.9"/>
		<path class="st0" d="M682,449.4c-2.6,1-5.3,1.4-8.1,1.3c-8.6,0-15.1-5-15.1-14.1s6.5-14.6,16-14.6c2.5-0.1,5,0.3,7.3,1.2l-1,2.9    c-1.9-0.8-4-1.2-6.2-1.2c-7.2,0-12,4.2-12,11.5c0,6.9,4.3,11.2,11.7,11.2c2.2,0,4.4-0.4,6.5-1.2L682,449.4L682,449.4z"/>
		<polygon class="st0" points="712.4,422.4 712.4,434 727.2,434 727.2,422.4 731.2,422.4 731.2,450.2 727.2,450.2 727.2,437.2     712.4,437.2 712.4,450.2 708.4,450.2 708.4,422.4   "/>
		<polygon class="st0" points="775.3,437.2 763.5,437.2 763.5,447.2 776.8,447.2 776.8,450.2 759.5,450.2 759.5,422.4 776.1,422.4     776.1,425.4 763.5,425.4 763.5,434.2 775.3,434.2   "/>
		<path class="st0" d="M619.7,180.6c0,4.7-1,8.3-1.3,12.5c-3,16.4-15.5,34.3-33.1,37.9c-17.6,5.1-37.9,2.4-51.6-9.3    c9.9-11.4,15.5-25.9,15.8-41L619.7,180.6"/>
		<path class="st0" d="M768.2,100.6c7.4,9.9,11.6,21.9,11.8,34.3V188c-1.2,17.6-12.1,36.1-29.4,42.1c-18.2,6.9-42.3,4.2-57-8.4    c8.6-9.8,14-22,15.5-34.9c-0.6-23.9,4.2-52.2-4.8-74c-3-5.7-5.9-11.7-11.3-16.1l0.3-0.9c15.2-12.8,39.4-15.2,57.9-7.8    C757.4,90.7,763.7,94.6,768.2,100.6"/>
		<path class="st0" d="M453.2,103c7.2,10.2,10.2,22.7,9.9,35.5v50.1c-2.7,17.4-13.4,36.1-31.3,41.8c-18.2,6.3-40,2.1-54.6-9.9    c10.1-11.3,15.2-24.8,15.2-40.6c-1.8-28.7,6.5-61.7-14.3-83.5c1.8-3.6,6-5.1,9.3-7.1C408.5,80,439.2,80,453.2,103"/>
		<path class="st0" d="M610,103.9c5.1,8,8.7,17,8.7,26.6h-68.9c-1.8-7.8-3.6-15.5-7.2-22.3l-8.3-12.6c15.5-11.9,39.7-16.7,58.5-8.1    C599.3,91.7,605.9,97.4,610,103.9"/>
		<polygon class="st0" points="322.2,237.8 261.1,237.8 248,188.6 281.7,85.1   "/>
		<path class="st0" d="M213.8,237.8h-59.7c-5.4-16.7-10.1-34.3-14-51.6l32.5-105L213.8,237.8"/>
		<path class="st0" d="M709.5,77.8c-20,3-40.9,19.6-45.9,39.6c-3.6,11.9-3,25.9-3,39c-0.8,23.9-1.5,48.3,14.9,65.3    c8.9,9.6,20.9,12.9,32.2,16.1c-22.9,0-45.6,0.9-69.2,0c-9.5-1.5-18.8-3.6-26.2-9.8c2.7-4.1,6.3-7.8,9-11.6    c7.5-11.9,11-31.1,9.6-46.3H585v-29.3h45.5c1.2-4.5-0.6-14.2-1.2-19c-2.9-11.9-8.8-22.8-17.2-31.6c4.5-4.2,10.1-6.8,15.8-9    l0.6-0.3c7.5-2.4,15.5-2.9,23.9-3.2L709.5,77.8"/>
		<path class="st0" d="M552.7,77.8c-21.8,3.6-44.1,22.8-48.9,44.6c-2.4,20.3-1.8,41.5-1.2,63c1.5,19.7,13.7,37.6,31.6,47.1l14.3,5.4    h-67.1c-9.2-2.1-18.5-4.2-25.6-10.7c11.9-12.8,18-28.6,18.6-46.6v-51.7c-2.1-14.9-7.9-28.3-18.6-39.3c9.5-7.7,20.9-11.5,33.7-11.8    L552.7,77.8"/>
		<path class="st0" d="M394.3,77.8c-19.7,3.9-41.8,19.6-47.1,40.5c-5.1,21.8-2.7,45.6-3,69.2c1.8,20.3,17.9,40.3,37,47.4l9.8,3    h-57.3L295,94.1c11.4-12.2,26.9-16.9,43.2-16.3H394.3"/>
		<polygon class="st0" points="225,223.5 196.3,117.4 208.2,77.8 269.7,77.8   "/>
		<rect y="77.8" class="st0" width="66.8" height="160.1"/>
		<rect y="0" class="st1" width="66.8" height="67.3"/>
		<polygon class="st0" points="97.5,77.8 77.7,144.9 77.7,237.7 109.8,237.7 159,77.8   "/>
	</g>
</g>
</svg>