<svg version="1.1" id="layer" xmlns="http://www.w3.org/2000/svg" xmlns:xlink="http://www.w3.org/1999/xlink" x="0px" y="0px" style="enable-background:new -153 -46 652 652;" xml:space="preserve" viewBox="-131.43 195.18 600.07 160.95">
<style type="text/css">
	.st0{fill:#0090D4;}
</style>
<g>
	<g>
		<path class="st0" d="M-41.2,205.7c0,5.8-4.7,10.5-10.4,10.5c-5.7,0-10.5-4.8-10.5-10.5c0-5.7,4.8-10.5,10.5-10.5    C-45.9,195.2-41.2,200-41.2,205.7 M-14.4,207c1.6,0,2.9,0.4,5.6,2.1c21.2,13.8,37,38.2,37,66.9c0,22.2-8.2,42.5-23.1,57.4    c-14.6,14.7-34.9,22.7-56.7,22.7c-21.8,0-41.9-8.2-56.7-22.7c-15.2-14.7-23.1-35.2-23.1-57.4c0-28.6,15.8-53.1,37-66.9    c2.7-1.7,4-2.1,5.6-2.1c3.9,0,7.4,2.9,7.4,7.3c0,3.4-1.8,5.5-5.1,7.8c-18.1,12.3-29.2,31.7-29.2,54.3c0,18.3,6.7,35.2,19,47.5    c11.9,11.9,27.7,18.6,45.1,18.6c17.4,0,33.1-6.7,45.1-18.6c12.3-12.3,19-29.2,19-47.5c0-22.6-11.1-42-29.2-54.3    c-3.3-2.2-5.1-4.4-5.1-7.8C-21.8,209.9-18.3,207-14.4,207 M-51.6,325.6c-4.6,0-8.1-3.7-8.1-8.5v-76c0-4.9,3.4-8.5,8.1-8.5    c4.6,0,8.1,3.6,8.1,8.5v76C-43.5,322-47,325.6-51.6,325.6"/>
		<path class="st0" d="M75.5,317h-12c-0.9,0-1.3-0.4-1.3-1.4V244c0-0.9,0.4-1.3,1.3-1.3h12c0.7,0,1.1,0.4,1.1,1.3v71.6    C76.6,316.6,76.2,317,75.5,317"/>
		<path class="st0" d="M155.8,317h-11.7c-0.8,0-1.3-0.4-1.3-1.3v-41.8c0-13.2-5.2-17.9-18-17.9h-16c-0.6,0-1,0.5-1,1v58.7    c0,0.9-0.4,1.3-1.2,1.3h-12c-0.8,0-1.3-0.4-1.3-1.3V244c0-0.9,0.5-1.3,1.3-1.3h31.2c19.4,0,31.3,9.3,31.3,27.9v45.1    C157,316.6,156.7,317,155.8,317"/>
		<path class="st0" d="M188.6,303.2h9.9c15.5,0,22.2-10.3,22.2-23.3c0-13-6.8-23.3-22-23.3h-10.2c-0.7,0-1,0.5-1,1v44.7    C187.5,302.7,187.9,303.2,188.6,303.2 M173.1,244c0-0.9,0.5-1.2,1.2-1.2h21c28.9,0,40.6,16.8,40.6,37c0,20.6-11.4,37.2-42.1,37.2    h-19.5c-0.7,0-1.2-0.4-1.2-1.3V244z"/>
		<path class="st0" d="M296.1,273.3c0.3-11.3-6.2-19.6-17.3-19.6c-10.1,0-17,7.9-17.4,19.6 M309.5,285.3c-0.4,0.5-1.4,0.6-2.3,0.6    h-45.4c0.5,12.4,9.9,19.6,25.2,19.6c7.2,0,13.5-2,18.1-3.9c1.3-0.5,1.6,0.1,1.6,1.6l0.2,10.6c0,0.9-0.2,1.4-1.3,1.8    c-4.6,1.8-13.1,3.2-19.8,3.2c-12,0-21.7-3.2-28.4-9.3c-7.2-6.5-11-16.4-11-29.1c0-23.4,13.2-39.6,32.8-39.6    c20.1,0,31.3,15.5,31.3,36.5C310.6,283.1,310.2,284.4,309.5,285.3"/>
		<path class="st0" d="M343.2,318.7c-6.6,0-15.5-1.5-20.2-3c-1.4-0.5-1.7-0.9-1.7-2l0.3-11.2c0-0.9,0.4-1.2,1.3-0.9    c5.4,2.3,13.2,4.1,22.3,4.1c11.9,0,15.5-4.6,15.5-9.1c0-4.5-2.6-6.7-10.4-8.6l-8.7-2.1c-13.7-3.4-20.4-9.4-20.4-22    c0-12.9,9.6-23.3,28.1-23.3c7.5,0,16.1,1.3,20.8,2.4c1,0.3,1.6,0.5,1.6,1.8l-0.1,10.5c0,1-0.6,1.1-1.7,0.9    c-5.3-1.3-14-2.6-20.6-2.6c-9.4,0-13.2,4.5-13.2,9.2c0,4.7,2.3,7.9,12.1,10.3l7.1,1.7c13.5,3.4,20.2,9.4,20.2,20.8    C375.6,308.7,366.6,318.7,343.2,318.7"/>
		<path class="st0" d="M402.4,317h-12c-0.9,0-1.2-0.4-1.2-1.4V244c0-0.9,0.4-1.3,1.2-1.3h12c0.8,0,1.1,0.4,1.1,1.3v71.6    C403.5,316.6,403.2,317,402.4,317"/>
		<path class="st0" d="M467.6,256h-17c-0.6,0-1,0.5-1,1V316c0,0.6-0.4,1-1,1h-12.5c-0.5,0-1-0.4-1-1V257c0-0.5-0.4-1-0.9-1h-17    c-0.6,0-1-0.4-1-0.9v-11.4c0-0.6,0.4-1,1-1h50.4c0.5,0,1,0.4,1,1v11.4C468.6,255.6,468.1,256,467.6,256"/>
	</g>
</g>
</svg>