<svg xmlns="http://www.w3.org/2000/svg" viewBox="0 0 184.25 56.71"><path d="M69.54 44.29h11l3.44-12.43 3.39 12.43h11L106 13.01H94.78l-2.69 13.95-4-13.95h-7.54l-4 14.1-3.3-14.1h-11zm62.92-21.75h2v11.69c-.18 7.07 1 11.14 11.19 10.82 2.54-.08 2.36-.24 3.63-.24v-11c-1.16.17-3.63.27-3.63-1.36v-9.93h3.72v-9.4h-3.7V2.8l-11.09 6.6v3.64h-2.14zm-1 22.35c-.15-2.38.31-20.13.31-20.13 0-9-3-11-10.29-11.82a68 68 0 0 0-13.44.38l-1.87 8.14c9-1.95 14.54-.95 15 2.93a11.39 11.39 0 0 0-5.15-1.37c-5.42 0-12.6 3.1-12.14 12.06.31 6.12 4.62 9.66 10.5 9.93 4.17.2 7.1-3.26 7.1-3.26v3.14zm-14.07-14.77a3.27 3.27 0 1 0 3.28 3.29 3.26 3.26 0 0 0-3.25-3.29zM47.09 11.8a16.61 16.61 0 1 0 16.6 16.73 16.72 16.72 0 0 0-16.6-16.73zm-.11 10.59a5.89 5.89 0 1 0 5.89 5.92 5.91 5.91 0 0 0-5.89-5.92zM16.54.02v29.05c-.37 6.29-6.39 5.5-7.39 2.47L0 37.72c2 4.41 8.19 7.49 14.65 7.29 4-.12 8.69-3 10.72-6.08a17.21 17.21 0 0 0 3.07-10.4V0z" fill="#dd0029" fill-rule="evenodd"/><path d="M96.66 48.06l1.8 4.79h-3.67zm-4.23 8.45h1l1.12-2.9h4.25l1.14 2.9h1l-3.67-9.34h-1zm15.06-9.34h-.83v3.88a2.41 2.41 0 0 0-2.34-1.48c-2.06 0-3 1.65-3 3.57s1 3.57 3 3.57a2.64 2.64 0 0 0 2.4-1.48v1.28h.76zm-5.4 6c0-1.4.64-2.88 2.21-2.88 1.74 0 2.36 1.48 2.36 2.88s-.62 2.88-2.36 2.88c-1.57-.03-2.21-1.51-2.21-2.91zm6.95 3.37h.83v-3.93a2.14 2.14 0 0 1 2.12-2.38c1.33 0 1.71.89 1.71 2v4.21h.82V52.1c0-1.61-.57-2.6-2.47-2.6a2.32 2.32 0 0 0-2.16 1.36V47.1h-.8zm7.52-3.84c.15-1.23.87-2.41 2.23-2.41a2.28 2.28 0 0 1 2.14 2.41zm5.2.69c.06-1.89-.81-3.79-3-3.79s-3 1.79-3 3.57.9 3.57 3 3.57a2.75 2.75 0 0 0 2.94-2.42h-.82a2.05 2.05 0 0 1-2.12 1.73 2.4 2.4 0 0 1-2.23-2.66zm6-1.62a2.22 2.22 0 0 0-2.48-2.17c-1.19 0-2.53.52-2.53 1.9 0 1.13.81 1.53 1.88 1.8l1.06.24c.74.18 1.48.44 1.48 1.22 0 .95-1.06 1.29-1.85 1.29a1.79 1.79 0 0 1-2-1.69h-.82a2.44 2.44 0 0 0 2.77 2.38c1.26 0 2.71-.56 2.71-2a2 2 0 0 0-1.92-1.87l-1.1-.25c-.58-.14-1.4-.41-1.4-1.13 0-.88.86-1.17 1.6-1.17a1.55 1.55 0 0 1 1.76 1.48zm1.43-3.24h.83V47.2h-.83zm0 8h.83v-6.75h-.83zm4.25 0h.88l2.53-6.75H136l-2.1 5.93-2.12-5.93h-.92zm4.7-3.84c.15-1.23.86-2.41 2.22-2.41a2.28 2.28 0 0 1 2.15 2.41zm5.19.69c.07-1.89-.81-3.79-3-3.79s-3 1.79-3 3.57.9 3.57 3 3.57a2.76 2.76 0 0 0 2.95-2.42h-.83a2 2 0 0 1-2.12 1.73 2.4 2.4 0 0 1-2.22-2.66zm6-1.62a2.2 2.2 0 0 0-2.47-2.17c-1.19 0-2.54.52-2.54 1.9 0 1.13.81 1.53 1.89 1.8l1 .24c.75.18 1.48.44 1.48 1.22 0 .95-1.06 1.29-1.84 1.29a1.79 1.79 0 0 1-2-1.69h-.76a2.44 2.44 0 0 0 2.77 2.38c1.26 0 2.71-.56 2.71-2 0-1.17-1-1.72-1.93-1.87l-1.09-.25c-.58-.14-1.4-.41-1.4-1.13 0-.88.86-1.17 1.59-1.17a1.56 1.56 0 0 1 1.77 1.48z" fill="#1a1a18" fill-rule="evenodd" data-name="Claim International"/><path d="M156.31 16.16a.82.82 0 0 1-.18-.49c0-1.46 5-2.68 11.45-2.68s11.44 1.22 11.44 2.68a.82.82 0 0 1-.18.49c-1.86-1.24-6.21-2-11.26-2s-9.4.76-11.26 2zm.34.34a.93.93 0 0 1-.18-.16c1.73-1.13 5.9-1.9 11.11-1.9s9.37.77 11.1 1.9a1.37 1.37 0 0 1-.18.16c-1.63-1-5.59-1.82-10.92-1.82s-9.29.81-10.92 1.82zm22.37-.18v.27a2 2 0 0 1-.29.29 4.22 4.22 0 0 1-.93.57c-2.08 1-5.76 1.74-10.22 1.74s-8.15-.71-10.23-1.74a4.22 4.22 0 0 1-.93-.57 2 2 0 0 1-.29-.29v-.27c1.13 1.47 5.91 2.63 11.45 2.63s10.32-1.16 11.45-2.63zm-.84 1.21a4.67 4.67 0 0 0 .53-.34c.13-.09.21-.17.31-.25v1a.61.61 0 0 1-.21.47 2.15 2.15 0 0 1-.46.3 29.21 29.21 0 0 1-21.55 0 2.54 2.54 0 0 1-.47-.3.64.64 0 0 1-.2-.47v-1c.1.08.18.16.31.25a3.93 3.93 0 0 0 .53.34c2.13 1.16 6.07 1.91 10.61 1.91s8.51-.75 10.61-1.91zm.51 9.95l.19-.13.14-.1v1.5a.41.41 0 0 1-.08.25 1.48 1.48 0 0 1-.29.24 22.8 22.8 0 0 1-22.15 0 1.48 1.48 0 0 1-.29-.24.41.41 0 0 1-.08-.25v-1.52l.14.1.19.13a23.46 23.46 0 0 0 22.23 0zm-.81 14.09a3.51 3.51 0 0 0 .79-.84 1.42 1.42 0 0 0 .21-.52.67.67 0 0 1 .08.37 1.31 1.31 0 0 1-.39.74c-1.73 1.94-5.81 3.36-11 3.36s-9.27-1.42-11-3.36a1.31 1.31 0 0 1-.39-.74.67.67 0 0 1 .08-.37 1.42 1.42 0 0 0 .21.52 3.51 3.51 0 0 0 .79.84c1.88 1.62 5.81 2.77 10.31 2.77s8.44-1.11 10.32-2.77zm.94-.16a1.28 1.28 0 0 0 .2-.31l-.11 1.32a3 3 0 0 1-.11.63 1.19 1.19 0 0 1-.26.47 3 3 0 0 1-.3.32c-1.79 1.75-5.66 3-10.66 3s-8.88-1.26-10.67-3a3 3 0 0 1-.3-.32 1.08 1.08 0 0 1-.26-.47 3 3 0 0 1-.11-.63l-.11-1.32a1.28 1.28 0 0 0 .2.31c1.77 2.08 6.06 3.51 11.25 3.51s9.51-1.43 11.25-3.51zm.44-25.74v2.28a2.49 2.49 0 0 1 0 .26.85.85 0 0 1-.15.3 1 1 0 0 1-.15.15v7.79a.45.45 0 0 1 .27.21.61.61 0 0 1 .06.3v1.77a.84.84 0 0 1-.05.29.59.59 0 0 1-.14.21 1.11 1.11 0 0 1-.14.13v10.52a1.07 1.07 0 0 1 .33.92l-.11 1.67a2.89 2.89 0 0 1-.12.66 1.6 1.6 0 0 1-.27.51 2.27 2.27 0 0 1-.26.28c-1.85 1.89-5.9 3.18-10.92 3.18s-9.08-1.29-10.93-3.18a2.27 2.27 0 0 1-.26-.28 1.6 1.6 0 0 1-.27-.51 2.89 2.89 0 0 1-.12-.66l-.11-1.67a1.07 1.07 0 0 1 .33-.92V29.36a1.11 1.11 0 0 1-.16-.13.59.59 0 0 1-.14-.21.84.84 0 0 1-.05-.29v-1.77a.61.61 0 0 1 .06-.3.45.45 0 0 1 .27-.21v-7.79a1 1 0 0 1-.15-.15.85.85 0 0 1-.15-.3 1.14 1.14 0 0 1 0-.26v-2.28c0-1.76 5.37-2.92 11.69-2.92s11.65 1.16 11.65 2.92zm-.24 11.18a.18.18 0 0 0-.09-.14v.31a.27.27 0 0 0 .1-.17zm-22.89 0a.18.18 0 0 1 .09-.14v.31a.27.27 0 0 1-.08-.17zm18.32-4.93v.9c.35-.1.79-.22 1.14-.34v4.5q.48-.15 1-.33v-4.5l.93-.37v-.89a26.38 26.38 0 0 1-3.06 1.03zm-1.68 1.31l.5 2.32c-.34.08-.67.15-1 .21zm-2 4.79c.36 0 .72-.1 1.09-.16l.24-1.18c.46-.08.91-.17 1.37-.28l.23 1.09c.36-.08.72-.18 1.08-.28l-1.36-5c-.42.09-.85.18-1.28.25-.48 1.87-.93 3.77-1.39 5.59zm-4.79.14h1.24l.63-3.92.62 3.91 1.24-.07 1-5.5-1.06.1-.62 4-.65-4h-1.09l-.66 4-.61-4c-.36 0-.71-.05-1.07-.09zm-4-3.26c0-1.44.1-2 .72-1.85s.71.68.71 2.13-.1 2-.71 1.87-.69-.67-.69-2.12zm-1-.24c0 1.63.19 2.88 1.75 3.2s1.76-.91 1.76-2.54-.2-2.8-1.76-3.08-1.75.79-1.75 2.45zm-1.65-3.2v3.86c0 .58-.08.82-.42.7s-.43-.42-.43-1v-.16l-.86-.35v.24a2 2 0 0 0 1.24 2.06c1 .34 1.44 0 1.44-1.16v-3.88zm15.39 17.77l.24-.09c.43-.15.48.22.48 1 0 .92-.07 1.25-.47 1.39l-.25.09zm-.56 3.06c.3-.09.59-.2.89-.3.75-.28.95-.92.95-2.11 0-1-.14-1.57-.92-1.28-.3.11-.61.22-.92.31zm-.37.11v-.56c-.36.11-.72.2-1.08.29v-2.9l-.61.14v3.38c.56-.09 1.13-.23 1.69-.4zm-3.71-.93c0-.91.07-1.26.45-1.31s.45.28.45 1.18-.06 1.27-.45 1.32-.44-.34-.44-1.24zm-.66.06c0 1 .13 1.76 1.11 1.63s1.1-.91 1.1-1.93-.12-1.72-1.1-1.57-1.11.79-1.11 1.82zm-3.56 1.7h.63v-2.7l.6 2.7h.54l.62-2.71v2.71h.63v-3.4h-1l-.51 2.39-.49-2.4h-1zm-2.47-3.7v.55l.7.13v2.82l.66.09v-2.89l.71.08v-.56a20.21 20.21 0 0 1-2.07-.27zm-2-.48v3.38c.57.17 1.15.31 1.73.43v-.63c-.38-.08-.75-.16-1.13-.26v-.91c.34.09.68.17 1 .24v-.56c-.35-.07-.69-.15-1-.24v-.79c.36.09.73.18 1.09.25v-.56a16.68 16.68 0 0 1-1.66-.4zm-1.76-.08l.24.09c.43.15.48.56.48 1.33s-.08 1.19-.47 1l-.25-.09zm-.56 2.65l.89.34c.74.27 1-.22 1-1.41 0-1-.15-1.67-.93-2-.31-.11-.61-.23-.92-.36zm14.21-9v5.4a21.34 21.34 0 0 0 2.66-.9v-.89c-.57.24-1.14.45-1.72.63v-1.45c.53-.17 1.05-.35 1.56-.56v-.9q-.76.31-1.56.57v-1.29q.84-.27 1.65-.6v-.9a20.8 20.8 0 0 1-2.56.89zm-5.47 6.17h1v-4.31l.93 4.24.81-.1c.31-1.48.62-3 .94-4.46v4.31c.32 0 .64-.12 1-.19v-5.4c-.51.11-1 .21-1.54.29-.25 1.31-.5 2.62-.76 3.92l-.75-3.74c-.52 0-1 .07-1.56.08zm-1 0v-5.4l-1.1-.07v5.4c.38.03.77.05 1.14.06zm-4.64-6.05v5.4a22.71 22.71 0 0 0 2.81.51v-.89c-.61-.07-1.22-.17-1.82-.29v-1.45c.54.11 1.09.2 1.64.27v-.9c-.55-.07-1.1-.15-1.64-.27v-1.27a17.22 17.22 0 0 0 1.75.28v-.9a23.53 23.53 0 0 1-2.7-.5zm-.55 5.25v-.89c-.54-.15-1.08-.32-1.61-.52v-4.51l-.9-.34v5.4a20.64 20.64 0 0 0 2.55.85z" fill="#1a1a18" fill-rule="evenodd"/><path d="M184.25 11.3a2.15 2.15 0 0 0-.43-1.34 2.18 2.18 0 0 0-1.78-.89 2.22 2.22 0 0 0-1.72.79 2.17 2.17 0 0 0-.5 1.42 2.22 2.22 0 0 0 4.43 0zm-3.95.69a1.87 1.87 0 0 1 1.74-2.58 1.85 1.85 0 0 1 1.5.75 1.87 1.87 0 0 1 .36 1.13 1.83 1.83 0 0 1-1.23 1.75 1.89 1.89 0 0 1-.63.11 1.86 1.86 0 0 1-1.74-1.16zm1.25-.94v-.82h.38c.35 0 .52 0 .64.16a.38.38 0 0 1 .08.25.4.4 0 0 1-.16.34.94.94 0 0 1-.47.1zm1.54 1.61a2.24 2.24 0 0 1-.17-.62c-.05-.25-.06-.53-.28-.69a.58.58 0 0 0-.19-.1l.26-.08a.67.67 0 0 0 .35-.59.74.74 0 0 0-.15-.44 1.12 1.12 0 0 0-.91-.25h-.86v2.77h.41v-1.29h.2a.91.91 0 0 1 .43.07c.17.08.24.19.29.52a2 2 0 0 0 .16.69z" fill="#1a1a18" fill-rule="evenodd" data-name="®"/></svg>
