<svg xmlns="http://www.w3.org/2000/svg" xmlns:xlink="http://www.w3.org/1999/xlink" viewBox="0 0 400 353.945"><defs><style>.a{fill:#00305b;}.b{fill:#fff;}.c{clip-path:url(#a);}.d{fill:#a5b0ca;}</style><clipPath id="a"><rect width="400" height="353.945"/></clipPath></defs><g transform="translate(0)"><rect class="a" width="400" height="353.945"/><path class="b" d="M27.029,106.128v16.489H18.5V83.1h8.529V98.452L47.5,83.1H59.722L35.842,101.295l26.439,21.322H49.2L28.166,105.559Z" transform="translate(34.094 153.147)"/><path class="b" d="M36.2,122.8,56.953,83h7.96l21.038,39.8h-9.1l-4.833-8.529H48.709L44.444,122.8Zm16.489-15.636h15.92l-8.529-16.2Z" transform="translate(66.714 152.963)"/><path class="b" d="M69.2,122.8V83.284h6.254l29,25.586V83h9.666v39.8h-7.392L77.444,96.646V122.8Z" transform="translate(127.531 152.963)"/><g class="c"><path class="b" d="M92,83h24.165c11.372,0,20.469,6.254,20.469,19.9,0,13.362-8.813,19.9-20.469,19.9H92Zm8.813,32.409h12.225c9.95,0,14.5-2.274,14.5-12.509,0-10.519-4.264-12.509-13.93-12.509H100.813Z" transform="translate(169.549 152.963)"/></g><g class="c"><path class="b" d="M113.8,122.8V83h8.244v32.978h27.861V122.8Z" transform="translate(209.725 152.963)"/></g><g class="c"><rect class="b" width="8.244" height="39.517" transform="translate(167.164 236.247)"/></g><g class="c"><path class="d" d="M154.061,52.3l20.469,7.96-55.153,48.614L52,83.288,67.92,69.073l46.908,17.91Z" transform="translate(95.832 96.385)"/></g><g class="c"><path class="d" d="M152.161,43.4l20.753,7.96-55.153,48.9L50.1,74.388l16.2-13.93,46.624,17.626Z" transform="translate(92.331 79.983)"/></g><g class="c"><path class="d" d="M150.361,34.6l20.469,7.676-55.153,48.9L48.3,65.588,63.936,51.373l46.908,17.91Z" transform="translate(89.013 63.765)"/></g></g></svg>