<?xml version="1.0" encoding="UTF-8"?>
<!-- Generator: Adobe Illustrator 14.0.0, SVG Export Plug-In . SVG Version: 6.00 Build 43363)  -->
<!DOCTYPE svg PUBLIC "-//W3C//DTD SVG 1.1//EN" "http://www.w3.org/Graphics/SVG/1.1/DTD/svg11.dtd">
<svg version="1.1" id="Ebene_1" xmlns="http://www.w3.org/2000/svg" xmlns:xlink="http://www.w3.org/1999/xlink" x="0px" y="0px" width="1024px" height="144px" viewBox="0 0 1024 144" enable-background="new 0 0 1024 144" xml:space="preserve">
<path fill-rule="evenodd" clip-rule="evenodd" fill="#089A65" d="M17.063,128.606C6.081,117.714,0.483,97.009,0,76.012v-4.822  c0.394-20.985,6.081-41.713,17.063-52.695c20.503-20.503,110.966-20.503,131.48,0c22.638,22.739,22.638,87.474,0,110.112  C128.029,149.132,37.566,149.132,17.063,128.606"/>
<path fill-rule="evenodd" clip-rule="evenodd" fill="#089A65" d="M335.811,48.169h-38.622l0.28,0.775v14.354l-0.28,0.967h36.127  v16.76h-36.127l0.483,0.765v15.602l-0.573,0.967h38.712v18.119H292.76c-7.228,0-13.68-5.598-13.68-14.073V44.123  c0-9.15,6.744-14.063,13.68-14.063h43.051V48.169 M542.355,48.169H503.71l0.394,0.775v14.354l-0.281,0.967h36.116v16.76h-36.116  l0.281,0.765v15.602l-0.483,0.967h38.735v18.119h-43.063c-7.228,0-13.68-5.598-13.68-14.073V44.123  c0-9.15,6.936-14.063,13.68-14.063h43.063V48.169z M574.334,98.358l0.574-1.057V81.599l-0.383-0.675h16.76  c4.429,0,8.576,2.507,8.576,8.959c0,6.16-4.429,8.476-8.768,8.476H574.334z M588.498,48.169c4.417,0,8.183,2.889,8.183,7.61  c0,5.688-3.766,8.486-8.183,8.486h-13.973l0.383-0.877V48.854l-0.473-0.686H588.498z M606.898,71.01c0,0,10.971,5.104,10.971,20.424  c0,16.266-11.264,25.044-25.325,25.044h-36.228V30.061h32.182c14.062,0,25.336,9.634,25.336,24.752  C613.834,60.5,611.035,65.997,606.898,71.01z M368.947,80.25c-15.41-2.023-23.594-10.69-23.594-25.235  c-0.483-16.568,11.466-25.055,27.742-25.055h26.303v17.354h-26.978c-6.643,0-9.442,2.687-9.442,7.599  c0,6.745,5.115,7.992,14.636,8.959c21.301,2.125,29.776,10.116,29.776,27.078c0,17.041-13.298,25.527-27.067,25.527h-33.53V98.358  h30.934c5.092,0,10.881-2.698,10.881-8.284c0-4.047-2.023-6.262-5.396-7.509C379.93,81.407,376.074,81.217,368.947,80.25z   M436.964,80.25c-15.41-2.023-23.604-10.69-23.604-25.235c-0.483-16.568,11.465-25.055,27.752-25.055h26.394v17.354h-27.079  c-6.632,0-9.341,2.687-9.341,7.599c0,6.745,5.002,7.992,14.546,8.959c21.301,2.125,29.865,10.116,29.865,27.078  c0,17.041-13.488,25.527-27.168,25.527h-33.52V98.358h30.923c5.104,0,10.881-2.698,10.881-8.284c0-4.047-2.023-6.262-5.396-7.509  C447.755,81.407,444.181,81.217,436.964,80.25z M646.577,83.914V62.613c0-9.341,7.329-17.816,15.703-17.816  c8.869,0,16.187,8.476,16.187,17.816v21.301c0,9.239-7.317,16.468-16.187,16.468C653.906,100.382,646.577,93.153,646.577,83.914z   M675.375,21.102c-5.192,0-9.531-4.429-9.531-10.116c0-5.586,4.339-10.397,9.531-10.397c5.599,0,10.117,4.812,10.117,10.397  C685.492,16.673,680.974,21.102,675.375,21.102z M649.275,21.102c-5.587,0-10.105-4.429-10.105-10.116  c0-5.586,4.519-10.397,10.105-10.397c5.688,0,9.734,4.812,9.734,10.397C659.01,16.673,654.963,21.102,649.275,21.102z   M696.767,83.914c0,19.648-15.13,35.733-34.486,35.733c-18.985,0-34.104-16.085-34.104-35.733V62.613  c0-19.738,15.118-35.823,34.104-35.823c19.356,0,34.486,16.085,34.486,35.823V83.914z M252.777,116.478l-24.954-40.173v40.173  h-18.491V30.061h18.491v35.453l24.189-35.453h21.099L246.032,71.01l0.866,0.18l28.416,45.288H252.777z M1007.926,79.193l2.406,1.73  L1024,116.478h-20.896l-13.87-35.554h-13.871l0.382,0.675v34.879h-18.4V30.061h35.745c14.444,0,26.19,10.689,26.19,26.011  C1019.279,64.445,1014.277,74.371,1007.926,79.193z M975.554,64.266l0.19-0.686V48.754l-0.19-0.585h17.535  c4.327,0,7.98,3.372,7.98,8.094c0,4.529-3.653,8.003-7.98,8.003H975.554z M755.431,30.061h18.502v86.417h-18.502V81.891l0.686-0.967  h-27.944l0.473,0.967v34.587h-18.479V30.061h18.479v33.138l-0.473,1.067h27.843l-0.584-0.967V30.061z M943.282,48.169H904.75  l0.382,0.775v14.354l-0.281,0.967h36.026v16.76h-36.026l0.281,0.765v15.602l-0.573,0.967h38.724v18.119H900.22  c-7.228,0-13.579-5.598-13.579-14.073V44.123c0-9.15,6.835-14.063,13.579-14.063h43.063V48.169z M808.418,52.699l14.546,63.778  h14.354l14.838-63.778v63.778h18.49V30.061h-27.933l-12.229,57.518l-0.394,2.305l-0.292-2.305l-12.229-57.518h-27.742v86.417h18.592  V52.699z"/>
<path fill-rule="evenodd" clip-rule="evenodd" fill="#FFFFFF" d="M93.734,35.265c26.292-1.056,49.908-5.788,49.908-5.788  l-22.166,40.949H76.391L93.734,35.265"/>
<path fill-rule="evenodd" clip-rule="evenodd" fill="#FFFFFF" d="M72.445,112.139c-15.602,0.765-32.17,0.765-46.536,4.722  c8.284-26.112,7.431-60.789-0.865-88.148c15.231,2.99,31.316,5.204,47.401,5.204V112.139"/>
<path fill-rule="evenodd" clip-rule="evenodd" fill="#FFFFFF" d="M94.601,112.532L75.907,75.157h45.951  c0,0,14.838,27.832,20.907,41.703C127.063,114.735,115.699,111.937,94.601,112.532"/>
</svg>