<svg xmlns="http://www.w3.org/2000/svg" id="Layer_1" data-name="Layer 1" viewBox="0 0 370 73.57"><defs><style>.cls-1{fill: #05377b;}</style></defs><title>kronospan logo RGB blue</title><path class="cls-1" d="M337.81,21.22h13.53V55.89H337.81V21.22Zm20,34.67h0V21.11h4.94q8.43,0,8.42,8.89V55.89H357.81Zm-4.24-37h-18V58h18V18.88Zm20.17,11.4h0q0-11.4-11.5-11.4h-6.71V58h18.21V30.29ZM303.55,55.83h0q-7.7,0-7.7-8.36v-4.1a7.93,7.93,0,0,1,1.78-5.5,6.41,6.41,0,0,1,5-2h6.88V55.83h-6Zm-7.41-27.12h0a10.56,10.56,0,0,1,.51-3.23q1.47-4.48,8-4.49h4.86v7.71h-13.4Zm20.51-7.44h13.53V55.83H316.66V21.28Zm-4.88,12.38h-9.14a8.33,8.33,0,0,0-6.75,2.76,10.91,10.91,0,0,0-2.32,7.26v3.76q0,10.61,10.24,10.61h8V33.66Zm0-14.72h-6.63q-6.34,0-9,3t-2.62,8.87h18.2V18.94Zm20.7,0h-18.1V58.06h18.1V18.94Zm-78.79,2.5h13.47V73.6H253.69V21.43Zm26.2,34.45h-5.6V21.43h6q7.37,0,7.37,8.17V47.35q0,8.53-7.82,8.54M269.5,18.94H251.36V76.1H269.5V18.94ZM290,29.9h0q0-11-10-11h-8.25V58h7.66Q290,58,290,46.67V29.9Zm-69.54,26h0q-4.58,0-6.54-2A8.06,8.06,0,0,1,212,48h13.37v7.88H220.5Zm21.83-.74h0q-1.77.73-7.9,0.74h-2.21V47c0-1.67-.93-2.78-2.77-3.32l-12.15-3.37a8.93,8.93,0,0,1-4.17-2.17c-0.76-.86-1.13-2.29-1.13-4.3V30.35q0-6.31,3.58-8.22,2.19-1.17,7.89-1.18h1.46v9a3.38,3.38,0,0,0,1,2.72,7.2,7.2,0,0,0,2.86,1.18l11.54,2.91q5.71,1.4,5.71,6.83v4q0,6-3.7,7.56m-9.88-26.27h0V20.95h4.92q4.7,0,6.68,2.06a8.12,8.12,0,0,1,2,5.88H232.45Zm-5.22,17.06H209.89q0,6.18,2.48,9Q215.07,58,221,58h6.26V45.94Zm20.92-3.24h0q0-6.18-6.49-7.87L231.06,32.1q-3.84-1-3.84-2.79V18.94h-4.39q-6.44,0-8.77,1.25-4.17,2.28-4.17,9.13v4.93a8.69,8.69,0,0,0,1.4,5.22,7.76,7.76,0,0,0,4.55,2.72l11.33,2.95,1.76,0.51,0.5,0.21a2.51,2.51,0,0,1,.79,2.16V58h5.32q6.34,0,8.56-1.25,4.06-2.28,4.06-9.13V42.7ZM245.82,22h0q-2.67-3-9-3h-6.62v12H248.5q0-6-2.68-9m-59.14-3h-8.16q-9.93,0-9.93,11V46.67Q168.59,58,179.11,58h7.58V18.94Zm19.94,11h0q0-11-9.93-11h-8.16V58h7.57q10.53,0,10.52-11.33V29.9Zm-61.25-11h-18V58h18V18.88Zm20.16,11.4h0q0-11.4-11.47-11.4h-6.68V58h18.15V30.29ZM104.28,18.94H96.12q-9.93,0-9.92,11V46.67Q86.19,58,96.7,58h7.58V18.94Zm19.94,11h0q0-11-9.93-11h-8.16V58h7.57q10.52,0,10.52-11.33V29.9Zm-41.31-4.2h0A9.91,9.91,0,0,0,81,22q-2.73-3.09-9-3.09H65.46V38.5h18q0-10.88-.59-12.79M63.4,18.94H45.3V58.06H63.4V18.94ZM21.88,2.53H3.73V58.06H21.88V2.53Zm20.49,41h0a4.59,4.59,0,0,0-1.11-3.16l-3.54-2.8a22.58,22.58,0,0,0,3.69-2.86,5.07,5.07,0,0,0,1-3.16V18.94H24.28V58.06H42.37V43.57Z" transform="translate(-3.73 -2.53)"/></svg>