<svg xml:space="preserve" style="max-height: 500px" viewBox="0 0 162.87 40.53333333333334" y="0px" x="0px" xmlns:xlink="http://www.w3.org/1999/xlink" xmlns="http://www.w3.org/2000/svg" id="Layer_1" version="1.1" width="162.87" height="40.53333333333334">
<style type="text/css">
	.st0{fill:#231F20;}
	.st1{fill:#00A5D5;}
	.st2{fill:none;}
	.st3{clip-path:url(#SVGID_2_);}
</style>
<g transform="translate(-0.6)" id="logo">
	<path d="M27.7,40c-3,0-5.9-0.8-8.4-2.3l2.3-4.1c1.9,1,4,1.5,6.2,1.5c0.9,0.1,1.8-0.2,2.4-0.8   c0.6-0.5,0.9-1.3,0.9-2.1v-0.9c-1.3,1.2-3,1.9-4.8,1.9c-2.4,0.1-4.7-1-6.2-2.9c-1.7-2.1-2.6-5.2-2.6-9.1c-0.1-2.9,0.7-5.8,2.3-8.3   c1.5-2.1,3.9-3.3,6.4-3.2c1.8,0,3.5,0.6,4.8,1.8v-1.3h5.9v21.9c0.1,2.2-0.8,4.4-2.5,5.8C32.5,39.4,30.1,40.1,27.7,40z M27,15.3   c-1.1,0-2.1,0.5-2.6,1.4c-0.7,1.3-1,2.8-0.9,4.3c-0.1,1.7,0.2,3.4,1,4.9c0.6,1.1,1.7,1.7,2.9,1.6c1.4,0,2.8-0.7,3.6-1.9v-8.5   C30,15.9,28.6,15.2,27,15.3z" class="st0" id="Fill_1"/>
	<path d="M90.3,33.2c-2.4,0.1-4.7-1-6.2-2.9c-1.7-2.1-2.6-5.2-2.6-9.1c-0.1-2.9,0.7-5.8,2.3-8.3   c1.5-2.1,3.9-3.3,6.4-3.2c1.8,0,3.5,0.6,4.8,1.8V4.4l5.9-3v31.3H95v-1.4C93.8,32.5,92.1,33.2,90.3,33.2z M91.1,15.3   c-1.1,0-2.1,0.5-2.6,1.4c-0.7,1.3-1,2.8-0.9,4.3c-0.1,1.7,0.2,3.4,1,4.9c0.6,1.1,1.7,1.7,2.9,1.6c1.4,0,2.8-0.7,3.6-1.9v-8.5   C94.2,15.9,92.7,15.2,91.1,15.3z" class="st1" id="Fill_3"/>
	<path d="M112.7,33.2c-2.9,0.1-5.7-1-7.7-3.2c-2-2.4-3-5.4-2.9-8.5c-0.1-3.1,0.9-6.1,2.8-8.5   c1.8-2.1,4.4-3.4,7.2-3.3c2.8-0.1,5.4,1.2,7,3.5c1.7,2.4,2.6,5.3,2.5,8.3c0,0.6,0,1.3-0.1,1.9H108c0,1.3,0.6,2.5,1.6,3.3   c0.9,0.7,1.9,1,3,1c1.5,0.1,2.9-0.5,3.9-1.6l4.2,3.5c-0.9,1.2-2.2,2.1-3.6,2.7C115.7,32.8,114.3,33.2,112.7,33.2z M111.8,14.8   c-1,0-1.9,0.4-2.5,1.2c-0.7,0.8-1.1,1.8-1.2,2.9h7.7c-0.1-1-0.4-2-1.1-2.8C114,15.2,113,14.7,111.8,14.8z" class="st1" id="Fill_5"/>
	<path d="M142.2,28.1c-2,3.1-5.5,5-9.2,5c-2.9,0.1-5.6-1.1-7.5-3.3c-2.1-2.3-3.2-5.3-3-8.4   c-0.1-3.1,1-6.1,3-8.5c4-4.2,10.8-4.4,15-0.4c0.7,0.6,1.2,1.3,1.7,2.1l-3.9,4c-1-1.9-3-3.1-5.1-3.2c-1.3,0-2.6,0.6-3.4,1.7   c-0.9,1.3-1.3,2.8-1.2,4.4c-0.1,1.6,0.4,3.1,1.3,4.4c0.8,1.1,2.1,1.7,3.4,1.6c2.1-0.1,4.1-1.2,5.3-2.9L142.2,28.1" class="st1" id="Fill_7"/>
	<path d="M152.4,33.2c-2.8,0.1-5.5-1.1-7.3-3.3c-2-2.4-3-5.4-2.9-8.5c-0.1-3.1,0.9-6.1,2.9-8.5   c3.6-4,9.7-4.4,13.7-0.9c0.3,0.3,0.6,0.6,0.9,0.9c2,2.4,3,5.4,2.9,8.5c0.1,3.1-0.9,6.1-2.9,8.5C157.8,32,155.2,33.2,152.4,33.2z    M152.4,15.4c-1.3-0.1-2.5,0.6-3.1,1.7c-0.7,1.3-1.1,2.9-1,4.4c-0.1,1.5,0.3,3,1,4.3c0.6,1.1,1.8,1.8,3.1,1.7   c1.3,0,2.5-0.7,3.2-1.8c0.7-1.3,1.1-2.7,1-4.2c0.1-1.5-0.3-3.1-1.1-4.4C154.9,16,153.6,15.3,152.4,15.4z" class="st1" id="Fill_9"/>
	<g transform="translate(163.78 9.66)" id="Group_13">
		<path d="M0.1,0h14.7v23H0.1V0z" class="st2" id="Clip_12-2"/>
		<g id="Group_517">
			<g>
				<defs>
					<rect height="23" width="14.7" y="0" x="0.1" id="SVGID_1_"/>
				</defs>
				<clipPath id="SVGID_2_">
					
				</clipPath>
				<g class="st3" id="Group_13-2">
					<path d="M14.8,1.6l-1.5,5.8C12.4,6.5,11.2,6,9.9,5.9c-1-0.1-2,0.3-2.8,1c-0.8,1.1-1.2,2.5-1,3.9V23       h-6V0.5h6V2C7.3,0.7,9,0,10.7,0C12.3-0.1,13.8,0.5,14.8,1.6" class="st1" id="Fill_11"/>
				</g>
			</g>
		</g>
	</g>
	<path d="M6.5,32.7H0.6V3.6l5.9-3V32.7z" class="st0" id="Fill_14"/>
	<path d="M9.4,32.7h5.9V10.2H9.4V32.7z" class="st0" id="Fill_16"/>
	<path d="M59,32.7h-5.9V20.5c0.1-1.4-0.2-2.9-0.9-4.1c-0.8-0.8-1.8-1.2-2.9-1.2c-2.6,0-3.9,1.7-3.9,5.1   v12.3h-5.9V10.2h5.9v1.5c1.4-1.4,3.3-2.1,5.3-2c5.5,0,8.3,3.4,8.3,10.3V32.7" class="st0" id="Fill_18"/>
	<path d="M69,33.2c-2.1,0.1-4.2-0.6-5.8-2c-1.8-1.5-2.8-3.8-2.6-6.1c-0.1-2.2,0.9-4.3,2.7-5.6   c1.9-1.3,4.2-2,6.5-1.8c1.5,0,2.9,0.3,4.3,0.9v-1.1c0-0.8-0.3-1.6-0.9-2.1c-0.6-0.6-1.5-0.9-2.4-0.8c-2.2,0-4.3,0.5-6.2,1.5   L62.4,12c2.6-1.5,5.5-2.3,8.4-2.3c2.4-0.1,4.7,0.6,6.6,2.1c1.7,1.4,2.6,3.6,2.5,5.8v15.1H74v-1.5C72.7,32.5,70.9,33.2,69,33.2z    M69.9,22.3c-2.3,0-3.4,1-3.4,2.8c0,2,1.2,3,3.4,3c1.6,0.1,3.2-0.7,4.1-2.1v-2.8C72.8,22.5,71.4,22.2,69.9,22.3z" class="st0" id="Fill_19"/>
	<path d="M23.9,4.6c0,1.2-0.5,2.4-1.4,3.3c-0.8,0.9-2,1.4-3.2,1.3c-2.5,0-4.6-2-4.6-4.5V4.6   c0-1.2,0.5-2.3,1.3-3.2C16.9,0.5,18.1,0,19.3,0c1.2,0,2.4,0.5,3.2,1.4C23.5,2.2,24,3.4,23.9,4.6" class="st1" id="Fill_20"/>
</g>
</svg>