<?xml version="1.0" encoding="UTF-8"?>
<!-- Generator: Adobe Illustrator 27.4.0, SVG Export Plug-In . SVG Version: 6.00 Build 0)  -->
<svg version="1.1" xmlns="http://www.w3.org/2000/svg" xmlns:xlink="http://www.w3.org/1999/xlink" x="0px" y="0px" viewBox="0 0 395.97 107.66" style="enable-background:new 0 0 395.97 107.66;" xml:space="preserve">
<style type="text/css">
	.st0{fill:#1E4C82;}
	.st1{fill:#515356;}
</style>
<g id="Livello_3">
</g>
<g id="Livello_1">
	<g>
		<g>
			<path class="st0" d="M213.67,0h35.58c8.62,0,16.8,0.96,24.56,2.89c7.76,1.93,14.52,5.04,20.3,9.35     c5.78,4.31,10.36,9.91,13.76,16.8c3.4,6.9,5.1,15.26,5.1,25.09c0,8.72-1.65,16.4-4.94,23.04c-3.3,6.64-7.73,12.22-13.31,16.73     c-5.58,4.51-12.01,7.93-19.31,10.26c-7.3,2.33-14.96,3.5-22.96,3.5h-38.78V0z M237.39,85.76h12.32c5.47,0,10.57-0.56,15.28-1.67     c4.71-1.11,8.79-2.97,12.24-5.55c3.45-2.58,6.16-5.98,8.13-10.19c1.98-4.21,2.97-9.35,2.97-15.43c0-5.27-0.99-9.86-2.97-13.76     c-1.98-3.9-4.64-7.12-7.98-9.66c-3.35-2.53-7.27-4.43-11.78-5.7c-4.51-1.27-9.25-1.9-14.22-1.9h-13.99V85.76z"/>
			<path class="st0" d="M320.09,0h73.14v21.9h-49.42v20.07h46.68v21.9h-46.68v21.9h52.16v21.9h-75.88V0z"/>
			<polygon class="st0" points="206.55,107.66 172.69,107.66 152.72,73.06 144.4,58.66 124.32,93.44 115.59,78.32 107.38,64.1      144.4,0 152.72,14.4 189.62,78.32    "/>
		</g>
		<g>
			<polygon class="st1" points="124.32,107.66 90.44,107.66 70.47,73.06 70.37,72.88 62.16,58.66 33.86,107.66 0,107.66 62.16,0      70.37,14.22 70.47,14.4 107.39,78.31 107.39,78.32    "/>
			<polygon class="st1" points="144.39,85.22 131.43,107.66 157.34,107.66    "/>
		</g>
	</g>
</g>
<script xmlns=""/><script xmlns=""/><script xmlns=""/></svg>