<svg version="1.1" id="Livello_1" xmlns="http://www.w3.org/2000/svg" x="0" y="0" viewBox="0 0 87 37" xml:space="preserve"><path d="M80.3 18.1c-3 0-5 2-5.5 4.6-.2-1.2-.7-2.1-1.3-2.7-1.5-1.5-3.8-1.7-5.4-1.7h-.4c2.1-.9 3.4-3 3.4-5.6 0-3.1-2.2-5.4-5.4-5.4-3.5 0-5.6 2.7-5.6 5.8 0 2.2 1.2 4.5 3.6 5.3h-4.1c-.2-.9-.5-5.1-.8-8.5-.1-.8-.1-1.6-.2-2.2 0-.4-.1-.4-.1-.4s-.1.1-.2.3l-1.6 3.2-3.1 6.2-3.3-6.8c-.3-.7-1.2-2.4-1.3-2.6-.1-.1-.1-.2-.2-.2 0 0-.1 0-.1.2-.1.7-.1 1.5-.2 2.3-.3 3.3-.7 7.6-.9 8.6-.3-.2-.6-.5-1.1-1-1-1.1-2.1-2.6-3-3.9 1.2-.8 1.7-1.9 1.7-3.2 0-1-.5-1.9-1.2-2.3-.6-.4-1.5-.5-2.4-.5-.4 0-1.4.1-1.7.1h-.5c.1.4.2 2.1.2 4.2v2.6c0 1.7 0 3.4-.1 4.1-.4-.7-1.1-2.5-1.7-3.9-1.2-3-2.6-6.3-2.7-6.6-.2-.4-.2-.5-.3-.5-.1 0-.1.2-.3.5l-2.8 7.4c-.4 1.1-.9 2.3-1.2 3.1-.2-1.2-.5-5.1-.8-8.3-.1-.8-.1-1.6-.2-2.2 0-.4-.1-.4-.1-.4s-.1.1-.2.3l-1.6 3.2-3.1 5.8-3.3-6.8c-.3-.7-1.2-2.3-1.3-2.6-.1-.1-.1-.2-.2-.2 0 0-.1 0-.1.2-.1.7-.1 1.5-.2 2.3-.3 3.5-.7 7.8-.9 8.6h-2.7V3.9H1.3v14.6H5v14.6h14.6V18.5s.4-6.4.6-9.1c1.3 2.9 2.5 5.4 4.2 8.9 0 0 0 .1.1.1h.2s0-.1.1-.1c1.4-2.9 3-6.1 4.3-8.9.2 2.9.5 8.1.5 9h1.9c.2-.7.9-2.8 1.4-4.2H37c.5 1.3 1.4 3.5 1.6 4.2 0 .1 0 .1-.1.2L35.7 26c-.5 1.3-1 2.5-1.3 3.3h1c.2-.7.9-2.9 1.4-4.2h4.1c.5 1.4 1.4 3.6 1.6 4.3h2.1c-.1-.6-.1-2.2-.1-4.1v-.6h2.2c.1 0 .1 0 .2.1.7 1 2.1 3 2.9 3.8.6.7.9.9 1.4.9.2 0 .5 0 .6-.1h.9c-.1-.6-.1-2.2-.1-4.1v-.6h2.2c.1 0 .1 0 .2.1.7 1 2.1 3 2.9 3.8.6.7.9.9 1.4.9.3 0 .5 0 .7-.1h.3c.4 0 1.5.1 3.6.1h.7c0-.2.2-.6.2-.9-.4.2-.9.3-2.4.3-.6 0-1.1 0-1.4-.1-.1 0-.3 0-.3-.1-.1-.1-.1-.5-.1-3.6v-1.3c.2 0 2.1 0 2.6.1.5 0 .8.1.9.2 0-.2 0-.6.1-.9-.1 0-.5.1-1.2.1h-2.4V19h.1c1.5 0 2.3 0 2.7.1.6.1.9.1 1.1.2 0-.2 0-.5.1-.7H66c0 .4.1 1.5.1 4v2.7c0 2.1-.1 3.5-.1 4.1.5 0 1.1.1 1.7.1.5 0 1 .1 1.6.1 2.4 0 3.8-1 4.4-1.7.6-.7 1.2-1.6 1.4-2.8.4 2.3 2.1 4.6 5.4 4.6 3.4 0 5.6-2.6 5.6-6-.4-3.2-2.6-5.6-5.8-5.6zm-43.8-4.5H33v-.1l1.7-4.7 1.8 4.8c.1 0 .1 0 0 0zm3.9-5.4c0-.1 0-.1.1-.1.2 0 .6-.1 1.2-.1 1.9 0 2.8 1.1 2.8 2.6 0 1.1-.6 1.9-1.2 2.4-.2.1-.4.2-.9.2-.8 0-1.6 0-1.9-.1V13l-.1-4.8zm0 16.3h-3.5v-.1l1.7-4.7 1.8 4.8c0-.1 0 0 0 0zm3 .7c0 1.7 0 3.4-.1 4-.4-.7-1.1-2.4-1.7-3.9-1.2-3-2.6-6.3-2.7-6.6 0-.1-.1-.1-.1-.2h1.7c-.1-.6-.1-2.2-.1-4.1v-.6h2.2c.1 0 .1 0 .2.1.7 1 2.1 3 2.9 3.8.3.3.5.5.7.6-.3 0-.6-.1-.9-.1-.4 0-1.4.1-1.7.1h-.5v.2c.1.6.1 2.2.1 4v2.7zm2.7-1.1c-.8 0-1.6 0-1.9-.1v-4.9c0-.1 0-.1.1-.1.2 0 .6-.1 1.2-.1 1.9 0 2.8 1.1 2.8 2.6 0 1.1-.6 1.9-1.2 2.4-.3.2-.5.2-1 .2zm5.4 1.1c0 1.7 0 3.4-.1 4-.3-.2-.6-.5-1-.9-1-1.1-2.1-2.6-3-3.9 1.2-.8 1.7-1.9 1.7-3.2 0-1-.5-1.9-1.2-2.3-.2-.2-.5-.3-.8-.4h1.6c0-.9.4-6.4.6-9.1 1.3 2.9 2.5 5.4 4.2 8.9-.5 0-1.3.1-1.5.1h-.5v.1c.1.6.1 2.2.1 4l-.1 2.7zm2.7-1.1c-.8 0-1.6 0-1.9-.1v-4.9c0-.1 0-.1.1-.1.2 0 .6-.1 1.2-.1 1.9 0 2.8 1.1 2.8 2.6 0 1.1-.6 1.9-1.2 2.4-.3.2-.5.2-1 .2zm5.3 1.1c0 1.7 0 3.3-.1 4l-.9-.9c-1-1.1-2.1-2.6-3-3.9 1.2-.8 1.7-1.9 1.7-3.2 0-1-.5-1.9-1.2-2.3-.3-.2-.6-.3-.9-.4-.4-.1-.9-.1-1.4-.1 1.4-2.9 3-6.1 4.3-8.9.2 2.9.5 8.1.5 9h.8c.1.5.1 1.9.1 4.1l.1 2.6zm6.2-7.1c-2.6 0-4.7-1.9-4.7-5.2 0-2.7 1.6-5 4.5-5 2.4 0 4.7 1.8 4.7 5.1 0 3.7-2.5 5.1-4.5 5.1zm6.7 9.8c-.8.7-2 1-3.3 1-1.3 0-2.2-.2-2.4-.3 0 0-.1-.1-.1-.3v-9.2s0-.1.1-.1c.2-.1.9-.1 1.4-.1 2 0 3.8.5 4.9 1.7.8.9 1.1 2.1 1.1 3.5-.2 1.8-.9 3.1-1.7 3.8zm8 1.1c-2.6 0-4.7-1.9-4.7-5.2 0-2.7 1.6-5 4.5-5 2.4 0 4.7 1.8 4.7 5.1-.1 3.7-2.6 5.1-4.5 5.1z" fill="#020203"/></svg>