<svg xml:space="preserve" viewBox="22.869955156950674 41.910000000000004 388.02690582959644 179.832" y="0px" x="0px" xmlns:xlink="http://www.w3.org/1999/xlink" xmlns="http://www.w3.org/2000/svg" id="Livello_1" version="1.1" style="max-height: 500px" width="388.02690582959644" height="179.832">
<g>
	<g>
		<path d="M270.389,181.611c-0.882-1.106-1.621-2.343-2.198-3.726C268.89,179.161,269.622,180.399,270.389,181.611z" fill="#A6A6A6"/>
		<g>
			<path d="M405.755,209.95c-11.767,3.285-29.127,6.579-45.099,6.579c-54.489,0-98.156-28.658-98.156-87.143&#xA;&#9;&#9;&#9;&#9;c0-54.953,45.556-82.43,98.156-82.43c17.385,0,27.704,2.12,44.617,5.166v43.21c-10.339-3.286-20.901-6.102-31.477-6.102&#xA;&#9;&#9;&#9;&#9;c-26.771,0-46.966,14.32-46.966,41.095c0,28.183,18.783,42.507,44.845,42.507c11.501,0,22.527-2.351,34.052-6.341v43.458&#xA;&#9;&#9;&#9;&#9;L405.755,209.95L405.755,209.95z" fill="#EA690B"/>
			<path d="M26.255,49.777h92.998l21.367,89.708h0.462l21.14-89.708h92.761v163.926h-56.365l-0.935-128.7h-0.462&#xA;&#9;&#9;&#9;&#9;l-32.173,128.7h-52.381l-31.223-128.7H80.5l-0.703,128.7H26.255V49.777z" fill="#404E97"/>
			<path d="M271.497,166.722c0.94,15.27,15.261,18.793,32.642,18.793c16.211,0,30.766-2.818,40.173-7.748v31.713&#xA;&#9;&#9;&#9;&#9;c-15.751,4.933-34.537,7.046-55.177,7.046c-49.562,0-75.849-23.957-75.849-66.241c0-41.096,26.294-61.764,75.849-61.764&#xA;&#9;&#9;&#9;&#9;c47.436,0,64.104,29.59,64.104,70.917v7.282L271.497,166.722L271.497,166.722z M302.031,140.888&#xA;&#9;&#9;&#9;&#9;c0-9.393-1.419-24.187-14.8-24.187c-13.614,0-16.67,14.57-15.99,24.187H302.031z" fill="#FFFFFF"/>
		</g>
		
			<linearGradient gradientTransform="matrix(1 0 0 1 -2088 -1456)" y2="1701.0697" x2="2292.1443" y1="1568.2451" x1="2315.5645" gradientUnits="userSpaceOnUse" id="SVGID_1_">
			<stop style="stop-color:#FFFFFF" offset="0"/>
			<stop style="stop-color:#212121" offset="0.8466"/>
		</linearGradient>
		<path d="M26.255,213.703h53.542l0.445-82.635&#xA;&#9;&#9;&#9;c-20.812,4.616-39.023,9.796-53.987,14.617V213.703z M141.082,139.479h-0.462l-4.321-18.134&#xA;&#9;&#9;&#9;c-15.662,1.961-30.479,4.443-44.29,7.221l20.656,85.135h52.376l24.131-96.534c-15.071,0.493-29.627,1.57-43.563,3.085&#xA;&#9;&#9;&#9;L141.082,139.479z M371.706,172.833c-9.85,0-18.652-2.049-25.795-6.11h7.31v-7.281c0-7.919-0.633-15.398-1.96-22.332&#xA;&#9;&#9;&#9;c-53.775-15.788-105.941-20.961-153.35-20.151l0.707,96.748h56.365v-2.038c9.744,3.192,21.127,4.863,34.129,4.863&#xA;&#9;&#9;&#9;c14.598,0,28.227-1.083,40.545-3.438c9.733,2.282,20.142,3.438,30.999,3.438c15.97,0,33.34-3.299,45.093-6.579v-43.458&#xA;&#9;&#9;&#9;C394.238,170.481,383.203,172.833,371.706,172.833z" fill="url(#SVGID_1_)" opacity="0.2"/>
	</g>
</g>
</svg>