<svg id="logoMessersi" xmlns="http://www.w3.org/2000/svg" xmlns:xlink="http://www.w3.org/1999/xlink" viewBox="0 0 219.25 47.99"><defs><style>.cls-1{fill:none;}.cls-2{fill:#35aa57;}.cls-3{clip-path:url(#clip-path);}.cls-4{fill:#3c484f;}</style><clipPath id="clip-path" transform="translate(0 0)"><rect id="SVGID" class="cls-1" width="219.25" height="47.99"/></clipPath></defs><title>logo_messersi</title><path class="cls-2" d="M43.71,24.2L31.46,36,23.22,24.2H1.86L0,34.85H21.79l7.84,11.91L40.13,38l-1.52,8.73H49.74L53.33,24.2H43.71ZM45.7,12L33.76,23,26.15,12H4L2.17,22.47h22.2l7.48,10.92,11.3-10.92H53.6L55.27,12H45.7ZM47.24,0.12L35.66,10.3,29.25,0.12H6.07L4.28,10.38H27.22l6.9,10.18,11-10.18H55.53L57.16,0.12H47.24Z" transform="translate(0 0)"/><g class="cls-3"><path class="cls-4" d="M214.73,2.08h0.88c0.76,0,.95.22,0.95,0.63s-0.26.69-1.06,0.69h-0.77V2.08m0,1.85h0.73l1.14,1.83h0.72l-1.23-1.85a1.11,1.11,0,0,0,1.13-1.16c0-.83-0.49-1.2-1.52-1.2h-1.64V5.76h0.67V3.93Zm3.8-.29a3,3,0,1,1-6.07,0,3,3,0,1,1,6.07,0m-6.77,0A3.75,3.75,0,1,0,215.51,0a3.67,3.67,0,0,0-3.75,3.65m-20,41.08h1.87a2,2,0,0,1-.74,1.34,2.29,2.29,0,0,1-1.51.56,2.71,2.71,0,0,1-1.83-.74,2.63,2.63,0,0,1-.9-2A2.77,2.77,0,0,1,191.48,41a2.76,2.76,0,0,1,2.25,1.22l0.81-.76a4.65,4.65,0,0,0-1.43-1.15,3.85,3.85,0,0,0-1.65-.35,3.81,3.81,0,0,0-2.79,1.13,3.84,3.84,0,0,0,2.68,6.58A3.44,3.44,0,0,0,194,46.51a3.12,3.12,0,0,0,.65-1.12,5,5,0,0,0,.2-1.48V43.67h-3.1v1.05Zm-20.6,2.81v-5.2L176.67,48V40.11h-1.14v5.16L170,39.6v7.93h1.13ZM158.8,40.11h-1.13v7.43h1.13V40.11Zm-15.1,4.61h1.88a2,2,0,0,1-.75,1.34,2.28,2.28,0,0,1-1.5.56,2.71,2.71,0,0,1-1.83-.74,2.62,2.62,0,0,1-.9-2A2.77,2.77,0,0,1,143.4,41a2.75,2.75,0,0,1,2.25,1.22l0.81-.76A4.71,4.71,0,0,0,145,40.32a4,4,0,0,0-4.43.78,3.85,3.85,0,0,0,2.68,6.58,3.43,3.43,0,0,0,2.67-1.16,3.18,3.18,0,0,0,.66-1.12,5.05,5.05,0,0,0,.2-1.48V43.67H143.7v1.05Zm-19,0,1.17-2.53L127,44.68h-2.29Zm3.54,2.86h1.24l-3.59-7.89-3.72,7.89h1.22l0.84-1.8h3.22Zm-20.12-7.43H107v7.43h1.13V44.46l0.24-.23L111,47.54h1.52l-3.42-4.07,3.4-3.36H111l-2.93,3v-3Zm-14-.14a3.92,3.92,0,0,0-4,3.89,3.66,3.66,0,0,0,1.13,2.71A3.8,3.8,0,0,0,94,47.67a4.11,4.11,0,0,0,2-.55V45.77a5.27,5.27,0,0,1-.53.39,3,3,0,0,1-.48.26,2.41,2.41,0,0,1-1,.19,2.65,2.65,0,0,1-2-.8,2.69,2.69,0,0,1-.8-2,2.77,2.77,0,0,1,.8-2A2.62,2.62,0,0,1,94,41a3.17,3.17,0,0,1,2,.81V40.51a3.88,3.88,0,0,0-2-.54M75.37,44.68l1.17-2.53,1.12,2.53H75.37Zm3.54,2.86h1.24l-3.59-7.89-3.72,7.89h1.22l0.84-1.8h3.22ZM60,41.15h0.37c1.08,0,1.61.39,1.61,1.15s-0.52,1.18-1.56,1.18H60V41.15Zm0.53,3.38a2.76,2.76,0,0,0,1.86-.59,2,2,0,0,0,.69-1.62,2.11,2.11,0,0,0-.65-1.58,1.94,1.94,0,0,0-.86-0.49,5.9,5.9,0,0,0-1.43-.13H58.88v7.43H60v-3h0.53ZM78.48,0.12L74,13.46,73.38,0.12h-9.2L58.76,35h6.82L68.4,18.66,69,35h3.64l5.59-16.5L75.8,35h6.85L88.06,0.12H78.48ZM162,5.31a1.28,1.28,0,0,0-1.08.83s-1,5.92-1.12,6.9a1,1,0,0,0,.9,1.19A1.39,1.39,0,0,0,161.84,13c0.25-1,.94-6,1-6.71a0.9,0.9,0,0,0-.9-1m9.21-1.39c-0.54,3.68-.76,5.2-1.35,8.77a6.55,6.55,0,0,1-3.2,4.82s1.68,0.33,1.62,2.66c0,2-.84,12.3-1,14.82h-8c0.28-2.93,1.11-11.79,1.16-12.87a0.88,0.88,0,0,0-1.73-.27c-0.15.73-1.76,11-2.11,13.14h-7.79l5.42-34.88h13.77c1.28,0.14,3.71.79,3.26,3.81m16.45,16.71a4.79,4.79,0,0,0-2.25-5.31c-1.44-.9-3.39-2.07-4.29-2.64s-1.35-1-1.26-2,0.39-3.09.57-3.93a1.07,1.07,0,0,1,1.11-1,0.87,0.87,0,0,1,.87,1.11l-0.54,5h7l1.05-7.48s0.81-4.35-3.18-4.35H178.4A4.56,4.56,0,0,0,173.65,4l-1.1,7.09c0,0.17,0,.34-0.06.52-0.31,2-.64,4.09,1.84,5.74l4.28,2.85A1.65,1.65,0,0,1,179.68,22c-0.1,1.16-.54,5.56-0.61,6.14a1.3,1.3,0,0,1-1,1.3,0.9,0.9,0,0,1-.72-1.23c0.11-.61.94-7.4,0.94-7.4H171.2s-1.27,7.66-1.39,8.39S168.55,35,173.36,35h8.11A4.64,4.64,0,0,0,186,31l1.61-10.35v0Zm-52.31,0a4.79,4.79,0,0,0-2.25-5.31c-1.44-.9-3.39-2.07-4.29-2.64s-1.35-1-1.26-2,0.39-3.09.57-3.93a1.08,1.08,0,0,1,1.11-1,0.87,0.87,0,0,1,.87,1.11l-0.54,5h7l1-7.48s0.81-4.35-3.18-4.35h-8.28A4.56,4.56,0,0,0,121.34,4l-1.1,7.09c0,0.17,0,.34-0.06.52-0.3,2-.63,4.09,1.84,5.74l4.28,2.85A1.65,1.65,0,0,1,127.36,22c-0.1,1.16-.54,5.56-0.62,6.14a1.3,1.3,0,0,1-1,1.3,0.9,0.9,0,0,1-.72-1.23c0.11-.61.94-7.4,0.94-7.4h-7.07s-1.27,7.66-1.39,8.39S116.24,35,121,35h8.1a4.65,4.65,0,0,0,4.57-4l1.6-10.35v0Zm-18.3,0a4.79,4.79,0,0,0-2.25-5.31c-1.44-.9-3.39-2.07-4.29-2.64s-1.35-1-1.26-2,0.39-3.09.57-3.93a1.07,1.07,0,0,1,1.11-1,0.87,0.87,0,0,1,.87,1.11l-0.54,5h7l1.05-7.48s0.81-4.35-3.18-4.35h-8.29A4.56,4.56,0,0,0,103,4l-1.1,7.09c0,0.17,0,.34-0.06.52-0.3,2-.63,4.09,1.84,5.74L108,20.22A1.65,1.65,0,0,1,109.06,22c-0.1,1.16-.54,5.56-0.61,6.14a1.3,1.3,0,0,1-1,1.3,0.9,0.9,0,0,1-.72-1.23c0.11-.61.94-7.4,0.94-7.4h-7.07s-1.27,7.66-1.39,8.39S97.93,35,102.74,35h8.1a4.64,4.64,0,0,0,4.57-4L117,20.68v0ZM206.54,7.15l2.12-7h-6.11l-1.12,7h5.1ZM143.42,29L145,18.76h4l0.93-6h-4L147,5.66h4l0.86-5.54H140.7L135.29,35h11.16l0.93-6h-4ZM92.73,29l1.59-10.23h4l0.93-6h-4l1.11-7.15h4l0.86-5.54H90L84.6,35H95.75l0.93-6h-4ZM201,0.12L195.57,35h-7.75l5.41-34.88H201Z" transform="translate(0 0)"/></g></svg>