<svg xmlns="http://www.w3.org/2000/svg" viewBox="0 0 170 35" class="text-skin-base"><path class="fill-current" d="M39.041,22.436,33.506.871H27.537L27.53.884Q23.752,6.9,19.974,12.922,16.025,6.9,12.057.871L6.2.888.011,22.437,0,22.47H8.526v-.018q1.349-5.376,2.7-10.754,3.333,5.508,6.687,11.033h3.307V22.72q3.45-5.5,6.9-11.006c.8,3.58,1.607,7.16,2.436,10.758h8.488ZM50.716.959,42.669.935l-.023.024v21.52l8.047.022Zm50.3-.01L92.222.932,80.488,22.161q-4.674-4.241-9.341-8.484c4.089-.523,6.728-2.913,6.728-6.1,0-4.227-3.921-6.648-10.762-6.648H55.106L55.084,22.48l8.056.024c.024-2.774.024-5.526.024-8.275h.048Q67,18.366,70.784,22.5l.007.006h18.07q1.083-1.884,2.146-3.738H102.04q1,1.856,2,3.725l.009.013h8.623l-.025-.036ZM63.918,10.631H63.14l-.027-5.393.027-.024h.778c2.4,0,5.6.282,5.6,2.707S66.322,10.631,63.918,10.631Zm29.247,3.852.021-.037L96.5,7.6l.1-.013,3.3,6.86.015.037ZM170,17.714H155.594V14.055h13.919V9.291c-4.657-.023-9.285-.023-13.919-.023V5.719H170V.931H147.537V22.48L170,22.5Zm-41.081-7.25v4.395c2.2.025,4.378.025,6.551.025-.321,2.308-2.732,3.688-6.445,3.688a8.725,8.725,0,0,1-6.045-2.11,6.321,6.321,0,0,1-2.085-4.6,6.446,6.446,0,0,1,2.028-4.609,8.348,8.348,0,0,1,5.977-2.16c3.063,0,5.493,1.238,6.659,3.413l.009.019,7.639-2.233.036-.009C140.609,2.3,135.786.221,129.273.221c-10.041,0-16.787,4.666-16.787,11.614a9.763,9.763,0,0,0,4.607,8.235c3,2.062,7.109,3.149,11.89,3.149,5.494,0,9.9-1.465,12.762-4.228,2.785-2.724,3.081-5.472,3.161-8.522v-.024H128.945Z"></path><path class="fill-current" fill-rule="evenodd" d="M9.889,32.438l-4.25-4.449v5.928h.705V29.7l4.251,4.45v-5.89H9.889Zm44.859,0L50.5,27.989v5.928H51.2V29.7l4.25,4.45v-5.89h-.705ZM24.328,28.26h-.81v5.657h.7V31.546h.407c1.074,0,1.982-.458,1.982-1.65C26.611,28.859,26.069,28.26,24.328,28.26Zm.12,2.656h-.226V28.889h.189a3.911,3.911,0,0,1,.591.038c.508.079.949.311.949.953C25.951,30.768,25.17,30.916,24.448,30.916Zm6.707,3h.7V28.259h-.7Zm13.7,0h.7V28.259h-.7ZM0,33.917H.705V28.259H0Zm17.4-3.346H17.4l-.406-.158c-.353-.135-.788-.368-.788-.811a.891.891,0,0,1,.946-.8.976.976,0,0,1,.91.533l.562-.338a1.617,1.617,0,0,0-1.457-.855,1.552,1.552,0,0,0-1.142.38A1.552,1.552,0,0,0,15.5,29.6c0,.788.585,1.156,1.232,1.434l.39.165c.489.206.977.466.977,1.074a1.072,1.072,0,0,1-.292.78,1.07,1.07,0,0,1-.763.335,1.071,1.071,0,0,1-.418-.079,1.054,1.054,0,0,1-.354-.235,1.072,1.072,0,0,1-.314-.771l-.713.149a1.762,1.762,0,0,0,1.749,1.583A1.743,1.743,0,0,0,18.8,32.274C18.8,31.328,18.2,30.891,17.4,30.571Zm22.18.358a1.541,1.541,0,0,0,.371-1.056h0a1.569,1.569,0,0,0-.743-1.351,3,3,0,0,0-1.5-.262h-.855v5.658h.7v-2.4h.293l1.667,2.4h.856L38.6,31.455A1.537,1.537,0,0,0,39.584,30.929Zm-1.8-.014h-.226V28.888h.189c.7,0,1.54.1,1.54.991S38.511,30.915,37.789,30.915Zm25.524.8h1.464a1.9,1.9,0,0,1-1.857,1.682,2.313,2.313,0,0,1-2.2-2.312,2.233,2.233,0,0,1,4.041-1.373l.495-.474a2.953,2.953,0,1,0-2.381,4.8,2.629,2.629,0,0,0,2.683-2.746v-.225H63.313Zm79.125.736-1.688-4.187h-.774l2.462,5.958,2.456-5.958h-.774Zm-7.576,1.471h.705V28.259h-.705Zm14.433,0h.7V28.259h-.7Zm18.457-2.852v.645h1.465a1.9,1.9,0,0,1-1.857,1.682,2.313,2.313,0,0,1-2.2-2.312,2.233,2.233,0,0,1,4.041-1.373l.5-.474a2.953,2.953,0,1,0-2.38,4.8A2.626,2.626,0,0,0,170,31.29v-.225ZM78.01,30.9h0v-.01a1.218,1.218,0,0,0,.608-1.073c0-1.276-1.006-1.553-2.072-1.553h-.691v5.658h1.322c1,0,1.967-.45,1.967-1.583A1.453,1.453,0,0,0,78.01,30.9Zm-1.448-2.014h.2a3,3,0,0,1,.4.023,1.166,1.166,0,0,1,.444.141.806.806,0,0,1,.359.764c0,.793-.549.946-1.217.946h-.18Zm.541,4.4h-.541V31.327H77c.631,0,1.444.165,1.444.961S77.754,33.287,77.1,33.286Zm51.654-5.027h-.706v5.658h2.425v-.645h-1.719Zm30.427,4.179-4.25-4.449v5.928h.705V29.7l4.25,4.45v-5.89h-.705ZM83.875,33.917h3.04v-.645H84.58V31.131h2.269v-.644H84.58V28.9h2.335v-.644h-3.04ZM91.2,28.9h1.341v5.014h.7V28.9h1.342v-.644H91.194Zm15.259,5.014h3.04v-.645h-2.336V31.131h2.27v-.644h-2.27V28.9H109.5v-.644h-3.04ZM98.567,28.9h1.341v5.014h.7V28.9h1.341v-.644H98.56Zm18.47,2.027a1.533,1.533,0,0,0,.372-1.057h0a1.565,1.565,0,0,0-.742-1.351,3,3,0,0,0-1.495-.262h-.856v5.658h.706v-2.4h.293l1.667,2.4h.855l-1.787-2.462A1.538,1.538,0,0,0,117.037,30.93Zm-1.8.008h-.225v-2.05h.188c.7,0,1.539.128,1.539,1.013S115.968,30.939,115.239,30.938Z"></path></svg>