<?xml version="1.0" encoding="UTF-8"?>
<!DOCTYPE svg PUBLIC "-//W3C//DTD SVG 1.1//EN" "http://www.w3.org/Graphics/SVG/1.1/DTD/svg11.dtd">
<!-- Creator: CorelDRAW -->
<svg xmlns="http://www.w3.org/2000/svg" xml:space="preserve" width="96.4346mm" height="30.211mm" version="1.1" style="shape-rendering:geometricPrecision; text-rendering:geometricPrecision; image-rendering:optimizeQuality; fill-rule:evenodd; clip-rule:evenodd" viewBox="0 0 5007.12 1568.63" xmlns:xlink="http://www.w3.org/1999/xlink" xmlns:xodm="http://www.corel.com/coreldraw/odm/2003">
 <defs>
  <style type="text/css">
   <![CDATA[
    .fil0 {fill:#333333}
    .fil6 {fill:#9B40D3}
    .fil4 {fill:#08CAD1;fill-rule:nonzero}
    .fil7 {fill:#11B469;fill-rule:nonzero}
    .fil8 {fill:#1F75EE;fill-rule:nonzero}
    .fil5 {fill:#9D94FF;fill-rule:nonzero}
    .fil1 {fill:#FF2B25;fill-rule:nonzero}
    .fil2 {fill:#FF7F40;fill-rule:nonzero}
    .fil3 {fill:#FFEF0D;fill-rule:nonzero}
   ]]>
  </style>
 </defs>
 <g id="Livello_x0020_1">
  <metadata id="CorelCorpID_0Corel-Layer"/>
  <path class="fil0" d="M-0 0l1568.63 0 0 1568.63 -1568.63 0 0 -1568.63zm1888.09 1220.06c6.52,-0.24 10.08,-3.87 10.6,-10.81 -0.1,-6.41 -3.94,-9.79 -11.43,-10.21 -6.52,0.42 -9.93,3.66 -10.21,9.79 -0.14,7.63 3.55,11.36 11.04,11.22zm2532.94 154.32c-4.8,1.87 -10.21,-0.5 -12.1,-5.3 -1.87,-4.8 0.5,-10.21 5.3,-12.1 19.21,-7.57 42.98,-20.8 63.72,-36.17 17.49,-12.95 32.69,-27.31 40.8,-40.8 9.97,-16.55 15.07,-30.82 18.3,-45.49l-3.76 3.12c-12.24,9.6 -26.45,16.05 -37.7,17.24 -9.82,1.04 -17.98,1.4 -25.3,0.17 -8.23,-1.39 -15.1,-4.65 -21.39,-10.81 -5.92,-5.79 -10.48,-13.8 -13.18,-22.62 -2.62,-8.55 -3.57,-18.04 -2.38,-27.12 1.15,-8.92 3.6,-16.99 7.59,-24.33 4.04,-7.4 9.6,-13.95 16.91,-19.76 7.66,-6.04 17.06,-11.08 27.47,-14.01 9.31,-2.64 19.54,-3.62 30.1,-2.22 13.12,1.76 27.16,9.77 36.29,22.94 7.48,10.79 11.75,25.03 9.6,42.05l-0.55 4.3c-3.89,30.94 -6.87,54.45 -25.99,86.19 -9.43,15.66 -26.4,31.83 -45.7,46.13 -22.08,16.36 -47.46,30.47 -68.02,38.59zm121.84 -178.24c1.31,-11.63 -1.55,-21.22 -6.54,-28.41 -6.02,-8.69 -15.04,-13.93 -23.35,-15.04 -7.88,-1.05 -15.58,-0.3 -22.64,1.7 -7.98,2.25 -15.15,6.07 -20.9,10.63 -5.34,4.26 -9.33,8.92 -12.14,14.08 -2.86,5.24 -4.62,11.14 -5.47,17.75 -0.83,6.42 -0.16,13.17 1.73,19.29 1.82,5.95 4.74,11.19 8.42,14.81 3.3,3.22 6.96,4.94 11.38,5.69 5.33,0.9 11.98,0.56 20.25,-0.31 7.92,-0.84 18.52,-5.84 28.12,-13.38 8.54,-6.7 16.01,-15.25 19.76,-24.46 0.35,-0.87 0.82,-1.66 1.38,-2.35zm-2676.04 54.18c7.91,-4.22 12.75,-2.4 14.5,5.51 -9.93,43.7 -15.12,67.36 -15.61,71.06 -0.49,3.66 0.1,5.78 1.74,6.34 2.3,1.23 8.82,-2.58 19.52,-11.36 10.66,-8.78 23.98,-21.26 39.91,-37.46l0.6 -0.19c18.79,-21.62 34.15,-34.35 46.17,-38.19 1.78,0 3.59,0.21 5.51,0.59 4.49,1.08 7.35,4.5 8.57,10.21 11.99,-7.36 21.92,-11.01 29.83,-11.01 3.38,0 5.96,0.8 7.73,2.44 2.58,2.58 3.97,5.99 4.08,10.21 10.49,-8.16 21.6,-12.44 33.32,-12.86 3.52,0 6.03,1.29 7.52,3.87 3.42,6.55 3.98,16.14 1.64,28.79l-8.78 44.54c-1.22,6.8 -1.15,10.49 0.21,11.01 2.2,0.7 6.41,-1.64 12.65,-6.93 15.13,-11.91 30.63,-25.98 46.54,-42.19 18.97,-21.91 34.48,-34.8 46.59,-38.67 1.78,0 3.59,0.21 5.51,0.59 4.5,1.08 7.36,4.5 8.57,10.21 11.99,-7.36 21.92,-11.01 29.83,-11.01 3.38,0 5.96,0.8 7.74,2.44 2.58,2.58 3.97,5.99 4.08,10.21 10.49,-8.16 21.61,-12.44 33.32,-12.86 3.52,0 6.03,1.29 7.52,3.87 3.42,6.55 3.97,16.14 1.64,28.79l-8.78 44.54c-1.21,6.8 -1.15,10.49 0.21,11.01 2.2,0.7 6.41,-1.64 12.65,-6.93 13.56,-10.68 27.42,-23.07 41.59,-37.2 4.53,-10.35 9.1,-18.13 13.75,-23.33 5.02,-5.65 10.67,-10.15 16.94,-13.49 6.27,-3.34 14.78,-5.08 25.55,-5.19 8.29,0.38 15.99,2.89 23.06,7.52 0.94,-5.02 3.67,-7.6 8.16,-7.74 5.58,1.08 8.05,4.43 7.35,10.01l-13.86 67.16c-0.29,8.47 3.45,10.11 11.22,4.92 17.27,-12.65 33.69,-26.96 49.29,-42.91 7.36,-15.1 17.01,-26.12 28.92,-33.07 7.63,-4.22 14.84,-6.58 21.65,-7.14 11.46,0 22.47,2.34 33.11,6.97 1.08,-3.97 3.73,-5.86 7.95,-5.72 6.69,0.52 9.55,2.72 8.57,6.52l-19.21 73.92c11.72,-10.88 24.3,-23.34 37.73,-37.34l0.09 -0.64c13.73,-13.46 26.45,-26.74 38.16,-39.81 7.91,-4.22 12.76,-2.4 14.5,5.51 -9.93,43.7 -15.12,67.36 -15.61,71.06 -0.49,3.66 0.1,5.78 1.74,6.34 2.3,1.23 8.82,-2.58 19.52,-11.36 10.66,-8.78 23.98,-21.26 39.91,-37.46l0.67 -0.21c17.66,-20.11 31.46,-32.37 41.4,-36.74 2.86,-1.22 6.14,-1.04 9.79,0.59 2.61,1.5 4.11,4.99 4.49,10.42 10.22,-8.16 20.43,-12.51 30.64,-13.07 4.5,0 7.49,1.36 8.99,4.08 1.78,3.28 2.79,6.94 3.07,11.05 0.28,4.08 -0.28,10.46 -1.64,19.17l-7.77 43.11c-1.22,5.86 -1.22,9.17 0,10.01 1.92,1.36 5.86,-0.63 11.85,-5.92 12.59,-10 25.29,-21.52 38.14,-34.55 0.07,-0.7 0.16,-1.43 0.28,-2.22 13.73,-13.46 26.45,-26.74 38.16,-39.81 7.91,-4.22 12.76,-2.4 14.5,5.51 -9.93,43.7 -15.12,67.36 -15.61,71.06 -0.49,3.66 0.1,5.78 1.74,6.34 2.3,1.23 8.82,-2.58 19.52,-11.36 10.66,-8.78 23.98,-21.26 39.91,-37.46 8.29,-2.73 12.44,-0.35 12.44,7.14 0,1.78 -0.1,3.49 -0.38,5.12 -18.65,18.51 -37.33,34.99 -55.97,49.42 -7.21,5.3 -15.37,7.94 -24.5,7.94 -6.66,-0.8 -10.42,-4.43 -11.22,-10.81 -0.84,-6.41 -0.49,-13.56 1.01,-21.47 1.5,-7.88 4.49,-19.52 8.99,-34.89l-7.66 7.19 -0.12 1.39c-19.44,19.17 -35.09,33.59 -46.94,43.28 -10.35,9 -19.9,13.6 -28.61,13.87 -5.44,-0.66 -9.48,-2.72 -12.13,-6.13 -2.64,-3.38 -3.87,-7.39 -3.59,-12.02l10 -52.29c1.64,-9.54 0.63,-14.08 -3.06,-13.59 -3.66,0.49 -7.32,1.85 -10.91,4.08 -3.62,2.26 -6.69,8.02 -9.3,17.25l-14.71 58.62c-1.08,4.5 -5.02,6.72 -11.82,6.72 -4.49,-0.1 -6.34,-2.65 -5.54,-7.52l15.13 -66.4c0.84,-3.14 1.01,-5.58 0.63,-7.35 -0.42,-1.74 -2.96,-0.38 -7.67,4.12 -4.7,4.49 -14.11,13.45 -28.3,26.94l-0.45 0.06c-15.77,15.13 -31.57,28.8 -47.34,41 -7.21,5.3 -15.37,7.94 -24.5,7.94 -6.66,-0.8 -10.42,-4.43 -11.22,-10.81 -0.84,-6.41 -0.49,-13.56 1.01,-21.47 1.5,-7.88 4.49,-19.52 8.99,-34.89l-17.14 16.1 -0.96 0.15c-16.73,17.54 -34.99,35.12 -54.8,52.76l-22.06 89.25c-3.52,14.15 -8.92,25.55 -16.14,34.19 -7.21,8.64 -14.84,13.1 -22.86,13.38 -12.93,0 -20.77,-11.71 -23.49,-35.13 -0.42,-3.94 -0.59,-7.71 -0.59,-11.23 0,-17.04 4.74,-31.26 14.29,-42.69l58.58 -61.65 1.43 -8.4c-16.07,12.4 -29.73,18.64 -41.02,18.78 -10.77,-0.24 -19.07,-6.72 -24.92,-19.38 -1.92,-5 -3.1,-10.13 -3.54,-15.38 -11.04,10.18 -22.8,20.01 -35.28,29.47 -4.64,3.94 -9.73,6.2 -15.31,6.72 -0.97,0.14 -1.84,0.21 -2.64,0.21 -4.64,0 -8.85,-1.29 -12.69,-3.87 -4.74,-3.13 -7.21,-7.42 -7.35,-12.86 -7.35,10.74 -19.38,16.14 -36.14,16.14 -14.43,-1.36 -23.87,-7.57 -28.37,-18.61 -1.79,-5.31 -2.83,-10.67 -3.16,-16.1 -9.17,7.93 -17.17,14.6 -23.99,20 -11.15,9.94 -20.91,14.57 -29.21,13.87 -5.44,-0.66 -9.66,-3 -12.65,-6.93 -3,-3.94 -3.62,-10.7 -1.85,-20.21l8.57 -43.29c2.2,-10.77 1.43,-15.96 -2.23,-15.61 -3.69,0.31 -8.02,2.29 -12.97,5.89 -4.98,3.62 -8.22,7.67 -9.72,12.16l-13.87 63.71c-1.09,4.36 -5.26,6.69 -12.48,6.93 -4.6,-0.1 -6.52,-2.37 -5.72,-6.72l13.48 -66.56c2.31,-10.21 1.26,-15.06 -3.17,-14.5 -4.43,0.52 -9.07,2.4 -13.87,5.61 -4.84,3.21 -7.74,6.91 -8.68,11.12l-14.11 64.97c-0.8,4.08 -4.53,6.1 -11.22,6.1 -4.88,-0.1 -7.01,-2.37 -6.31,-6.72l13.86 -67.4c0.56,-2.96 0.66,-5.41 0.32,-7.25 -0.35,-1.81 -2.89,-0.45 -7.67,4.12l-17.52 16.79c-0.09,0.87 -0.23,1.77 -0.43,2.69 -19.76,17.84 -35.76,31.57 -47.99,41.26 -11.16,9.94 -20.91,14.57 -29.21,13.87 -5.43,-0.66 -9.65,-3 -12.65,-6.93 -3,-3.94 -3.62,-10.7 -1.85,-20.21l8.57 -43.29c2.2,-10.77 1.43,-15.96 -2.23,-15.61 -3.69,0.31 -8.02,2.29 -12.96,5.89 -4.98,3.62 -8.22,7.67 -9.73,12.16l-13.87 63.71c-1.09,4.36 -5.26,6.69 -12.48,6.93 -4.61,-0.1 -6.52,-2.37 -5.72,-6.72l13.48 -66.56c2.3,-10.21 1.26,-15.06 -3.17,-14.5 -4.42,0.52 -9.06,2.4 -13.87,5.61 -4.84,3.21 -7.74,6.91 -8.68,11.12l-14.12 64.97c-0.8,4.08 -4.53,6.1 -11.22,6.1 -4.88,-0.1 -7,-2.37 -6.31,-6.72l13.87 -67.4c0.56,-2.96 0.66,-5.41 0.31,-7.25 -0.35,-1.81 -2.89,-0.45 -7.66,4.12 -4.78,4.56 -13.87,13.27 -27.36,26.24l-0.21 0.02c-16.06,15.46 -32.15,29.41 -48.2,41.84 -7.21,5.3 -15.37,7.94 -24.5,7.94 -6.66,-0.8 -10.42,-4.43 -11.22,-10.81 -0.84,-6.41 -0.49,-13.56 1.01,-21.47 1.5,-7.88 4.49,-19.52 8.99,-34.89l-17.14 16.1c-7.91,1.36 -11.85,-1.29 -11.85,-7.94 0,-1.36 0.14,-3 0.42,-4.91 13.73,-13.46 26.45,-26.74 38.16,-39.81zm465.24 44.3c-0.1,0.92 -0.24,1.88 -0.45,2.86l-1.31 1.18 -0.74 1.88c-5.19,15.93 -3,26.28 6.52,31.05 8.33,3.8 17.21,2.68 26.66,-3.38 9.48,-6.06 15.61,-15.55 18.47,-28.47l6.13 -27.57c-7.35,-7.78 -17.7,-9.07 -31.05,-3.91 -10.11,4.54 -18.17,13.3 -24.23,26.35zm199.89 -21.85c-13.07,-9.93 -26.42,-11.37 -40.04,-4.29 -10.08,5.33 -17.95,16 -23.67,32.06 -5.2,15.93 -3,26.63 6.52,32.07 5.86,3.14 13.21,2.06 22.06,-3.28 16.35,-9.79 26.28,-21.37 29.83,-34.72l5.3 -21.85zm-49.21 125.39c-18.12,18.79 -26.28,37.78 -24.5,56.99 2.02,18.36 7.88,23.66 17.53,15.92 5.47,-4.22 10.28,-13.63 14.54,-28.2l21.22 -76.56 -28.79 31.85zm149.89 -178.09c6.52,-0.24 10.08,-3.87 10.6,-10.81 -0.1,-6.41 -3.94,-9.79 -11.43,-10.21 -6.52,0.42 -9.93,3.66 -10.21,9.79 -0.14,7.63 3.56,11.36 11.04,11.22zm238.12 0c6.52,-0.24 10.07,-3.87 10.59,-10.81 -0.1,-6.41 -3.94,-9.79 -11.43,-10.21 -6.52,0.42 -9.93,3.66 -10.21,9.79 -0.15,7.63 3.55,11.36 11.04,11.22zm165.82 -70.01c1.23,-4.78 4.78,-7.15 10.63,-7.15 7.21,0.24 10.49,2.79 9.79,7.53l-7.56 38.41 34.33 0.21c7.46,-0.28 10.87,2.72 10.21,8.99 0,7.22 -3.56,10.81 -10.63,10.81l-39.21 0 -19.62 88.83c-5.02,22.34 -2.23,34.05 8.4,35.14 4.88,0.42 12.79,-3.77 23.67,-12.55 9.32,-7.5 20.65,-17.79 34.04,-30.82 1.06,-2.98 2.32,-5.87 3.77,-8.71 4.74,-8.43 10.42,-15.3 16.94,-20.52 6.55,-5.26 13.35,-9.2 20.42,-11.85 7.08,-2.65 14.64,-4.04 22.65,-4.18 7.64,0 14.43,2.09 20.43,6.34 4.22,3.24 6.27,7.35 6.13,12.23 -0.13,4.91 -1.71,9.72 -4.7,14.5 -7.74,10.21 -16.35,17.14 -25.83,20.84 -9.44,3.66 -17.74,5.79 -24.81,6.31 -7.07,0.56 -13.8,-0.1 -20.21,-2.02 -1.22,6.38 -1.12,12.3 0.32,17.77 1.43,5.44 5.12,9.44 11.12,12.03 7.49,2.72 14.98,3.8 22.48,3.17 7.49,-0.59 16.52,-3.48 27.15,-8.68 12.54,-8.56 24.46,-18.26 35.74,-29.09 0.05,-0.5 0.13,-1.01 0.22,-1.54l58.41 -57.57c10.6,0.8 15.2,2.86 13.77,6.13 -1.43,3.24 -0.46,7.21 2.96,11.82 6.41,7.25 12.13,18.68 17.14,34.33 2.58,10.49 3.49,19.27 2.65,26.35l21.36 -20.4 0.1 -0.65 58.41 -57.57c10.6,0.8 15.2,2.86 13.77,6.13 -1.43,3.24 -0.46,7.21 2.96,11.82 6.41,7.25 12.13,18.68 17.14,34.33 2.58,10.49 3.49,19.27 2.65,26.35l27.27 -26.04 0.12 -0.93c13.73,-13.46 26.45,-26.74 38.16,-39.81 7.91,-4.22 12.75,-2.4 14.5,5.51 -9.93,43.7 -15.13,67.36 -15.62,71.06 -0.48,3.66 0.11,5.78 1.74,6.34 2.3,1.23 8.82,-2.58 19.52,-11.36 9.34,-7.69 20.71,-18.21 34.09,-31.6l9.89 -12.59 35.76 -163.77c8.57,-37.05 15.61,-57.93 21.12,-62.6 5.51,-4.7 12.24,-7.18 20.11,-7.46 25.2,0.94 39.07,18.36 41.69,52.28 -1.5,34.72 -18.13,75.77 -49.85,123.13l-47.39 63.92 -5.09 18.79c-2.05,9.55 -2.82,17.11 -2.33,22.76 0.45,5.69 3.97,8.82 10.49,9.52 5.47,0.56 13.77,-3.7 24.92,-12.65 9.75,-7.84 21.37,-18.31 34.91,-31.41l0.01 -0.06c13.73,-13.46 26.45,-26.74 38.16,-39.81 7.91,-4.22 12.75,-2.4 14.5,5.51 -9.93,43.7 -15.12,67.36 -15.61,71.06 -0.49,3.66 0.1,5.78 1.74,6.34 2.31,1.23 8.82,-2.58 19.52,-11.36 10.66,-8.78 23.98,-21.26 39.91,-37.46 8.29,-2.73 12.44,-0.35 12.44,7.14 0,1.78 -0.1,3.49 -0.38,5.12 -18.65,18.51 -37.33,34.99 -55.97,49.42 -7.21,5.3 -15.37,7.94 -24.5,7.94 -6.66,-0.8 -10.42,-4.43 -11.22,-10.81 -0.84,-6.41 -0.49,-13.56 1.01,-21.47 1.5,-7.88 4.49,-19.52 8.99,-34.89l-10.87 10.21 -0.14 0.8c-18.36,17.71 -32.24,30.08 -41.54,37.16 -9.34,7.07 -16.56,12.06 -21.65,14.92 -5.12,2.85 -12.3,4.42 -21.57,4.7 -8.57,-0.42 -14.95,-5.5 -19.17,-15.33 -3.27,-9.93 -4.56,-19.52 -3.9,-28.79l-0.28 -0.19c-13.93,13.05 -27.87,24.96 -41.79,35.74 -7.21,5.3 -15.36,7.94 -24.5,7.94 -6.66,-0.8 -10.42,-4.43 -11.22,-10.81 -0.84,-6.41 -0.49,-13.56 1.01,-21.47 1.5,-7.88 4.5,-19.52 8.99,-34.89l-12.09 11.35 -0.18 1.3c-16.06,15.79 -26.69,25.83 -31.96,30.12 -5.23,4.28 -10.46,8.33 -15.61,12.17 -5.16,3.8 -10.42,6.66 -15.72,8.57 -4.64,1.78 -9.2,2.65 -13.69,2.65 -17.43,-0.42 -32.2,-7.84 -44.3,-22.27 -5.58,-8.16 -7.53,-13.84 -5.82,-17.05 1.71,-3.21 4.11,-4.98 7.25,-5.4 3.14,-0.42 5.23,0.73 6.34,3.45 4.22,8.72 11.43,15.93 21.64,21.65 11.29,4.78 19.73,4.36 25.3,-1.22 7.08,-8.57 8.79,-19.66 5.12,-33.28 -3.83,-13.87 -9.82,-25.86 -17.98,-35.94l-36.75 34.87 -0.23 1.69c-16.06,15.79 -26.7,25.83 -31.96,30.12 -5.23,4.28 -10.46,8.33 -15.61,12.17 -5.16,3.8 -10.42,6.66 -15.72,8.57 -4.64,1.78 -9.2,2.65 -13.69,2.65 -17.43,-0.42 -32.2,-7.84 -44.3,-22.27 -5.58,-8.16 -7.53,-13.84 -5.82,-17.05 1.71,-3.21 4.11,-4.98 7.25,-5.4 3.14,-0.42 5.23,0.73 6.34,3.45 4.22,8.72 11.44,15.93 21.65,21.65 11.29,4.78 19.73,4.36 25.3,-1.22 7.08,-8.57 8.79,-19.66 5.12,-33.28 -3.83,-13.87 -9.83,-25.86 -17.98,-35.94l-35.21 33.41 -0.13 0.71c-16.2,16.59 -32.9,31.37 -50.04,44.3 -11.58,7.91 -26.15,12.13 -43.71,12.65 -13.87,-0.15 -23.77,-2.3 -29.69,-6.52 -5.93,-4.22 -10.01,-8.47 -12.27,-12.76 -2.04,-3.96 -3.39,-9.91 -4.02,-17.9 -11.1,9.85 -22.18,18.91 -33.24,27.18 -8.47,5.99 -17.63,9.2 -27.6,9.62 -15.65,-0.42 -24.01,-10.42 -25.09,-30.04 0,-9.52 2.44,-24.29 7.35,-44.3l28.58 -129.26zm124.98 113.54c-3.94,-5.19 -13.17,-4.64 -27.74,1.6 -9.83,3.97 -17.71,11.5 -23.7,22.68 17.57,2.44 31.12,0.07 40.74,-7.14 9.58,-7.21 13.17,-12.93 10.7,-17.14zm339.04 -43.53c6.52,-0.24 10.07,-3.87 10.6,-10.81 -0.11,-6.41 -3.94,-9.79 -11.43,-10.21 -6.52,0.42 -9.93,3.66 -10.21,9.79 -0.15,7.63 3.55,11.36 11.04,11.22zm123.13 -155.79c-6.8,-1.22 -12.06,4.88 -15.72,18.37l-38.79 161.96c8.96,-11.85 19.59,-26.8 31.85,-44.82 12.23,-18.06 21.75,-34.68 28.47,-49.84 6.73,-15.2 10.95,-28.41 12.65,-39.63 1.7,-11.22 1.22,-21.23 -1.43,-30.01 -2.65,-8.79 -8.33,-14.11 -17.05,-16.03zm63.5 155.79c6.52,-0.24 10.08,-3.87 10.6,-10.81 -0.1,-6.41 -3.94,-9.79 -11.43,-10.21 -6.52,0.42 -9.93,3.66 -10.21,9.79 -0.14,7.63 3.55,11.36 11.04,11.22zm166.25 32.59c6.38,-3.48 12.26,-5.4 17.66,-5.82 5.37,-0.42 9.97,-0.14 13.78,0.84 3.83,0.94 9.54,2.72 17.14,5.3l28.4 -104.98c0.8,-2.86 3,-4.29 6.52,-4.29 1.07,0 2.33,0.14 3.69,0.42 5.58,1.5 7.88,4.36 6.94,8.57l-40.85 152.55 -3.28 19.38c-0.28,8.47 3.49,10.11 11.26,4.92 15.6,-11.45 30.56,-24.26 44.83,-38.42 4.75,-11.07 9.51,-19.33 14.38,-24.77 5.02,-5.65 10.67,-10.15 16.94,-13.49 6.27,-3.34 14.78,-5.08 25.55,-5.19 8.3,0.38 16,2.89 23.07,7.52 0.94,-5.02 3.67,-7.6 8.16,-7.74 5.58,1.08 8.05,4.43 7.35,10.01l-13.86 67.16c-0.29,8.47 3.45,10.11 11.22,4.92 15.29,-11.2 29.92,-23.71 43.91,-37.51l0.62 -0.86 10.6 -13.49 35.76 -163.77c8.57,-37.05 15.62,-57.93 21.12,-62.6 5.5,-4.7 12.23,-7.18 20.1,-7.46 25.2,0.94 39.07,18.36 41.69,52.28 -1.5,34.72 -18.13,75.77 -49.84,123.13l-47.4 63.92 -5.09 18.79c-2.05,9.55 -2.82,17.11 -2.34,22.76 0.46,5.69 3.97,8.82 10.49,9.52 5.47,0.56 13.76,-3.7 24.92,-12.65 11.19,-8.99 24.85,-21.47 41.06,-37.39 9.93,-3.24 13.73,1.29 11.43,13.7 -18.36,17.71 -32.23,30.08 -41.54,37.16 -9.34,7.07 -16.55,12.06 -21.65,14.92 -5.12,2.85 -12.3,4.42 -21.57,4.7 -8.57,-0.42 -14.95,-5.5 -19.16,-15.33 -3.07,-9.3 -4.39,-18.31 -4,-27.03 -12.65,12.1 -26.31,23.7 -40.96,34.8 -4.63,3.94 -9.73,6.2 -15.3,6.72 -0.98,0.14 -1.84,0.21 -2.64,0.21 -4.64,0 -8.85,-1.29 -12.69,-3.87 -4.74,-3.13 -7.22,-7.42 -7.35,-12.86 -7.35,10.74 -19.38,16.14 -36.14,16.14 -14.43,-1.36 -23.87,-7.57 -28.37,-18.61 -1.58,-4.69 -2.58,-9.42 -3.02,-14.19 -7.59,7.06 -14.75,13.09 -21.49,18.09 -13.21,9.8 -23.42,14.71 -30.63,14.71 -3.83,0 -7.35,-1.12 -10.63,-3.28 -4.78,-3.13 -7.35,-8.05 -7.77,-14.7 -6.8,6.66 -12.93,11.43 -18.37,14.29 -4.91,2.47 -11.98,3.7 -21.23,3.7 -11.71,-0.98 -19.9,-7.15 -24.5,-18.61 -2.05,-6.38 -3.06,-12.79 -3.06,-19.16 0,-7.78 1.5,-15.55 4.5,-23.29 4.6,-11.71 9.44,-20.38 14.5,-26.03 5.02,-5.65 10.74,-10.22 17.15,-13.7zm25.82 11.23c-5.5,-0.18 -12.02,1.78 -19.51,5.92 -7.46,4.15 -14.36,14.4 -20.6,30.74 -5.19,15.93 -2.99,26.63 6.52,32.07 9.41,1.78 18.13,-0.53 26.14,-6.83 8.05,-6.34 14.22,-16.59 18.58,-30.74l7.14 -25.55c-6.66,-3.52 -12.75,-5.41 -18.27,-5.61zm124.25 4.39c-11.57,5.2 -20.45,15.93 -26.73,32.27 -5.19,15.93 -3,26.28 6.52,31.05 8.32,3.8 17.21,2.68 26.66,-3.38 9.48,-6.06 15.61,-15.55 18.47,-28.47l6.13 -27.57c-7.35,-7.78 -17.7,-9.07 -31.05,-3.91zm184.23 -203.99c-6.79,-1.22 -12.06,4.88 -15.71,18.37l-38.79 161.96c8.96,-11.85 19.59,-26.8 31.85,-44.82 12.23,-18.06 21.75,-34.68 28.47,-49.84 6.73,-15.2 10.95,-28.41 12.65,-39.63 1.71,-11.22 1.22,-21.23 -1.42,-30.01 -2.65,-8.79 -8.33,-14.11 -17.05,-16.03zm204.21 80.44c4.08,1.5 6.13,4.29 6.13,8.4 0,0.66 -0.07,1.5 -0.21,2.44l-40.64 188.27c-1.08,6.97 -4.7,10.49 -10.81,10.63 -6.27,-0.56 -9.06,-4.08 -8.4,-10.63l31.48 -150.7c-2.58,5.85 -15.48,16.41 -38.61,31.64 -5.96,3.28 -10.74,2.41 -14.29,-2.64 -0.8,-1.92 -1.22,-3.67 -1.22,-5.3 0,-3 1.36,-5.58 4.08,-7.77 26.56,-16.87 47.26,-36.91 62.11,-60.05 1.08,-3 3.52,-4.47 7.32,-4.47 0.98,0 1.98,0.04 3.07,0.18zm269.33 -5.09c19.07,0.42 32.76,7.42 41.06,21.01 3.42,5.86 5.12,11.99 5.12,18.41 0,8.15 -2.86,16.8 -8.57,25.93 -8.47,12.23 -22.06,21.92 -40.85,28.99 10.21,8.58 18.79,16.42 25.72,23.49 8.99,10.35 14.01,22.06 15.13,35.13 0.1,19.3 -6.69,34.71 -20.42,46.14 -14.19,10.74 -31.4,16.21 -51.68,16.35 -21.79,-0.28 -39.35,-9.06 -52.7,-26.35 -5.02,-8.72 -7.53,-17.92 -7.53,-27.57 0,-4.78 0.59,-9.76 1.81,-14.92 4.92,-13.9 14.92,-27.01 30.04,-39.42 8.85,-7.07 17.43,-12.3 25.72,-15.72 -6.14,-5.05 -12.2,-12.12 -18.16,-21.22 -5.75,-9.27 -7.63,-20.18 -5.75,-32.7 2.62,-12.79 9.97,-22.48 22.06,-28.99 9.93,-5.72 22.93,-8.58 39,-8.58zm1.26 18.58c-16.77,-0.52 -28.68,2.51 -35.75,9.2 -6,5.3 -9.24,12.06 -9.8,20.21 -0.14,6.94 3,13.94 9.38,21.02 5.33,5.05 10.14,8.99 14.5,11.85 11.6,-3.94 22.83,-9.87 33.7,-17.78 11.18,-9.1 15.55,-18.22 13.07,-27.35 -3.94,-10.6 -12.3,-16.31 -25.09,-17.15zm-23.91 86.19c-14.98,6.13 -27.91,14.5 -38.79,25.09 -15.79,15.54 -20.49,30.46 -14.12,44.75 7.91,13.21 23.49,20.08 46.77,20.6 13.77,-0.1 25.27,-4.39 34.5,-12.86 10.91,-13.21 12.76,-27.5 5.55,-42.87 -6.97,-13.9 -18.27,-25.47 -33.92,-34.71zm204.83 -101.91c4.11,0.28 6.77,2.99 7.98,8.16 0.14,0.7 0.21,1.36 0.21,2.05 -0.14,4.08 -2.73,8.36 -7.78,12.87 -21.22,22.2 -38.65,46.77 -52.28,73.71 4.22,-0.28 8.3,0.84 12.27,3.28 3.8,2.86 4.29,7.35 1.43,13.48 -2.2,3.14 -4.84,3.84 -7.98,2.13 -3.14,-1.71 -8.08,-2.33 -14.92,-1.92 -17.43,33.88 -28.58,65.2 -33.49,93.92 -0.38,4.64 -4.22,7.08 -11.43,7.36 -6.38,-1.36 -8.85,-5.44 -7.35,-12.27 7.07,-28.3 17.77,-57.86 32.06,-88.63 -8.29,0 -17.29,1.85 -26.94,5.55 -5.19,-0.7 -7.77,-3.84 -7.77,-9.41 0,-2.86 1.78,-5.58 5.34,-8.15 13.72,-3.84 26.94,-6.13 39.59,-6.97 15.65,-30.36 32.2,-55.07 49.63,-74.13 -29.55,3.42 -54.34,3.28 -74.34,-0.38 -7.87,-1.64 -10.73,-6.91 -8.57,-15.72 2.06,-2.76 5.12,-4.11 9.21,-4.11 1.21,0 2.44,0.07 3.66,0.21 29.27,5.47 59.77,5.12 91.49,-1.01zm146.16 -362.6l15.69 0 0 66.66 -92.59 0 0 -17.71 76.9 0 0 -48.95zm15.69 140.02l0 17.71 -92.59 0 0 -42.05c0,-4.75 0.78,-9.07 2.34,-13.01 1.56,-3.92 3.75,-7.27 6.58,-10.05 2.82,-2.8 6.2,-4.97 10.12,-6.54 3.92,-1.56 8.2,-2.34 12.84,-2.34 7,0 13.12,1.75 18.34,5.25 5.23,3.52 8.98,8.18 11.26,14.01 10.29,-7.78 20.66,-15.47 31.12,-23.06l0 21.12c-4.81,3.69 -9.65,7.32 -14.54,10.84 -4.89,3.54 -9.87,7.06 -14.93,10.6l0 17.52 29.47 0zm-45.16 0l0 -24.33c0,-1.6 -0.31,-3.27 -0.94,-4.98 -0.63,-1.73 -1.6,-3.27 -2.91,-4.62 -1.31,-1.33 -2.93,-2.45 -4.87,-3.33 -1.94,-0.89 -4.22,-1.33 -6.83,-1.33 -1.35,0 -2.95,0.17 -4.8,0.5 -1.86,0.34 -3.63,1.01 -5.32,2.02 -1.68,0.99 -3.12,2.42 -4.3,4.28 -1.18,1.86 -1.77,4.33 -1.77,7.45l0 24.33 31.75 0zm33.01 107.39l-14.16 -9.62c3.2,-4.64 5.97,-9.42 8.29,-14.36 2.32,-4.93 3.48,-10.09 3.48,-15.49 0,-2.87 -0.36,-5.39 -1.07,-7.59 -0.72,-2.2 -1.65,-4.05 -2.78,-5.57 -1.14,-1.52 -2.45,-2.66 -3.93,-3.42 -1.47,-0.76 -2.93,-1.14 -4.36,-1.14 -1.85,0 -3.44,0.57 -4.74,1.71 -1.31,1.14 -2.38,2.65 -3.23,4.55 -0.84,1.9 -1.56,4.13 -2.15,6.7 -0.59,2.57 -1.14,5.25 -1.64,8.03 -0.34,1.85 -0.74,4 -1.2,6.45 -0.46,2.45 -1.1,4.97 -1.9,7.59 -0.8,2.61 -1.86,5.18 -3.16,7.72 -1.31,2.53 -2.95,4.8 -4.93,6.83 -1.98,2.02 -4.35,3.64 -7.08,4.87 -2.74,1.22 -5.97,1.83 -9.68,1.83 -5.39,0 -9.89,-1.1 -13.47,-3.29 -3.59,-2.19 -6.41,-4.99 -8.47,-8.41 -2.07,-3.42 -3.52,-7.21 -4.37,-11.39 -0.84,-4.17 -1.26,-8.2 -1.26,-12.08 0,-3.88 0.25,-7.34 0.76,-10.37 0.5,-3.04 1.24,-5.86 2.21,-8.48 0.97,-2.61 2.19,-5.16 3.67,-7.65 1.48,-2.49 3.23,-5.17 5.25,-8.03l13.92 9.87c-3.04,4.38 -5.35,8.6 -6.96,12.65 -1.6,4.04 -2.4,8.3 -2.4,12.77 0,1.52 0.19,3.25 0.57,5.19 0.38,1.94 0.99,3.77 1.83,5.5 0.85,1.73 1.92,3.16 3.22,4.3 1.31,1.14 2.89,1.71 4.75,1.71 1.85,0 3.42,-0.67 4.68,-2.02 1.27,-1.35 2.32,-3.08 3.16,-5.19 0.85,-2.11 1.56,-4.42 2.15,-6.96 0.59,-2.53 1.18,-4.97 1.77,-7.33 0.43,-1.78 0.85,-3.86 1.27,-6.26 0.42,-2.4 1.01,-4.89 1.77,-7.47 0.76,-2.57 1.77,-5.12 3.04,-7.65 1.26,-2.53 2.89,-4.79 4.87,-6.77 1.98,-1.98 4.43,-3.58 7.34,-4.8 2.91,-1.23 6.43,-1.83 10.56,-1.83 4.81,0 8.98,0.84 12.52,2.53 3.54,1.69 6.47,4.09 8.79,7.21 2.32,3.12 4.07,6.83 5.25,11.13 1.18,4.3 1.77,9.07 1.77,14.29 0,4.8 -0.36,9.04 -1.07,12.71 -0.72,3.67 -1.69,7.02 -2.91,10.05 -1.23,3.04 -2.68,5.9 -4.37,8.6 -1.69,2.7 -3.54,5.48 -5.57,8.35zm-2813.18 -459.36l54.18 0 0 459.36 -59.68 0 0 -369.85 -101.24 101.24 0.01 0 -42.06 42.05 -42.05 -42.05 -101.25 -101.25 0 369.85 -59.68 0 0 -459.36 54.18 0 0.02 0.09 0.08 -0.09 148.7 148.7 148.7 -148.7 0.08 0.09 0.02 -0.09zm877.97 273.62l-184.01 -184.01 0 369.76 -59.67 0 0 -459.36 54.18 0 189.5 189.51 0 -189.51 59.67 0 0 459.36 -59.67 0 0 -185.74zm959.88 -143.78l-44.67 122.87 89.46 0c-14.91,-40.95 -29.82,-81.91 -44.79,-122.87zm-66.37 182.54c-17.8,48.97 -35.59,97.95 -53.37,146.98l-63.4 0 167.07 -459.36 32.13 0 167.07 459.36 -63.21 0 -53.43 -146.98 -132.87 0zm900.32 -312.38l0 59.48 -188.04 0 0 193.53 127.33 0 0 59.37 -127.33 0 0 87.31 188.04 0 0 59.67 -247.42 0 0 -459.36 247.42 0zm-534.42 60.66l0 338.44c47.23,0 86.04,-15.29 116.21,-45.66 34.1,-34.1 51.15,-75.36 51.15,-123.76 0,-48.2 -17.05,-89.46 -51.15,-123.65 -30.18,-30.28 -68.98,-45.36 -116.21,-45.36zm-15.77 -60.66c74.67,0.39 132.77,21.55 174.51,63.5 45.76,46.15 68.59,101.51 68.59,166.18 0,64.87 -22.84,120.33 -68.59,166.29 -41.74,41.84 -99.84,63.01 -174.51,63.4l-43.6 0 0 -459.36 43.6 0zm-731.45 59.77l0 192.93 54.28 0c53.65,0 96.12,-43.36 96.12,-96.81 0,-53.32 -42.8,-96.12 -96.12,-96.12l-54.28 0zm54.28 252.6l-54.28 0 0 146.98 -59.38 0 0 -459.36 113.66 0c87.35,0 155.8,68.77 155.8,155.9 0,63.66 -37.43,118.69 -93.88,146.39l101.91 157.07 -72.02 0 -91.81 -146.98zm-280.34 -252.9l0 399.88 -59.77 0 0 -399.88 -107.01 0 0 -59.48 273.78 0 0 59.48 -107 0zm-815.08 -65.45c64.87,0 120.23,22.93 166.18,68.88 45.96,45.96 68.89,101.32 68.89,166.19 0,64.86 -22.93,120.33 -68.89,166.28 -45.95,45.86 -101.32,68.89 -166.18,68.89 -64.87,0 -120.33,-23.03 -166.28,-68.89 -45.85,-45.95 -68.88,-101.41 -68.88,-166.28 0,-64.87 23.03,-120.23 68.88,-166.19 45.96,-45.95 101.41,-68.88 166.28,-68.88zm0 59.97c-48.4,0 -89.75,17.15 -123.85,51.25 -34.2,34.2 -51.25,75.45 -51.25,123.86 0,48.5 17.05,89.76 51.34,124.05 34.29,34.29 75.45,51.35 123.76,51.35 48.4,0 89.65,-17.05 123.86,-51.35 34.1,-34.29 51.24,-75.55 51.24,-124.05 0,-48.41 -17.14,-89.66 -51.24,-123.86 -34.2,-34.1 -75.45,-51.25 -123.86,-51.25z"/>
  <path class="fil1" d="M86.77 522.73l0 -454.01 217.98 217.98 217.98 -217.98 0 454.01c-177.89,0 -258.08,0 -435.96,0z"/>
  <path class="fil2" d="M784.31 74.27c63.64,0 121.26,25.8 162.97,67.51 41.71,41.69 67.51,99.33 67.51,162.97 0,63.64 -25.8,121.26 -67.51,162.97 -41.71,41.71 -99.33,67.51 -162.97,67.51 -63.64,0 -121.28,-25.8 -162.98,-67.51 -41.71,-41.71 -67.51,-99.33 -67.51,-162.97 0,-63.64 25.8,-121.28 67.51,-162.97 41.7,-41.71 99.34,-67.51 162.98,-67.51z"/>
  <polygon class="fil3" points="1045.89,522.73 1045.89,86.99 1394.66,348.56 1394.66,86.77 1481.86,86.77 1481.86,522.73 "/>
  <path class="fil4" d="M566.33 1002.3l0 -435.96 283.37 0c42.13,0 80.28,17.08 107.89,44.69 27.61,27.61 44.69,65.76 44.69,107.89 0,42.13 -17.08,80.28 -44.69,107.89 -20.24,20.24 -46.14,34.82 -75.13,41.16l83.95 134.32 -400.09 0z"/>
  <path class="fil5" d="M304.75 1481.86l-217.98 0 0 -435.96 217.98 0c60,0 114.44,24.4 153.96,63.85l0.17 0.17c39.45,39.52 63.85,93.96 63.85,153.97 0,60.18 -24.4,114.69 -63.85,154.13l-0.08 -0.08c-39.53,39.49 -94.01,63.93 -154.05,63.93z"/>
  <rect class="fil6" x="566.33" y="1351.07" width="435.96" height="130.79"/>
  <polygon class="fil7" points="261.16,1002.3 261.16,653.53 86.77,653.53 86.77,566.33 261.16,566.33 522.73,566.33 522.73,653.53 522.73,1002.3 348.35,1002.3 "/>
  <polygon class="fil8" points="1040.66,1002.3 1263.87,555.87 1487.08,1002.3 "/>
  <rect class="fil6" x="566.33" y="1045.89" width="435.96" height="261.58"/>
 </g>
<script xmlns=""/><script xmlns=""/><script xmlns=""/><script xmlns=""/></svg>