<?xml version="1.0" encoding="UTF-8" standalone="no"?>
<!-- Created with Inkscape (http://www.inkscape.org/) -->

<svg
   version="1.1"
   id="svg2"
   width="6666.6665"
   height="4000"
   viewBox="0 0 6666.6665 4000"
   sodipodi:docname="vecteezy_not-available-rubber-stamp-seal-vector_23103651.eps"
   xmlns:inkscape="http://www.inkscape.org/namespaces/inkscape"
   xmlns:sodipodi="http://sodipodi.sourceforge.net/DTD/sodipodi-0.dtd"
   xmlns="http://www.w3.org/2000/svg"
   xmlns:svg="http://www.w3.org/2000/svg">
  <defs
     id="defs6" />
  <sodipodi:namedview
     id="namedview4"
     pagecolor="#ffffff"
     bordercolor="#000000"
     borderopacity="0.25"
     inkscape:showpageshadow="2"
     inkscape:pageopacity="0.0"
     inkscape:pagecheckerboard="0"
     inkscape:deskcolor="#d1d1d1" />
  <g
     id="g8"
     inkscape:groupmode="layer"
     inkscape:label="ink_ext_XXXXXX"
     transform="matrix(1.3333333,0,0,-1.3333333,0,4000)">
    <g
       id="g10"
       transform="scale(0.1)">
      <path
         d="M 50000,0 H 0 V 30000 H 50000 V 0"
         style="fill:#ffffff;fill-opacity:1;fill-rule:nonzero;stroke:none"
         id="path12" />
      <path
         d="m 45841.5,11350.6 c 0,-556.1 -452.4,-1008.5 -1008.5,-1008.5 H 5167 c -556.1,0 -1008.51,452.4 -1008.51,1008.5 v 7298.8 c 0,556.1 452.41,1008.5 1008.51,1008.5 h 39666 c 556.1,0 1008.5,-452.4 1008.5,-1008.5 z M 44833,20257.9 H 5167 c -886.94,0 -1608.51,-721.6 -1608.51,-1608.5 v -7298.8 c 0,-886.9 721.57,-1608.5 1608.51,-1608.5 h 39666 c 886.9,0 1608.5,721.6 1608.5,1608.5 v 7298.8 c 0,886.9 -721.6,1608.5 -1608.5,1608.5"
         style="fill:#c21e24;fill-opacity:1;fill-rule:nonzero;stroke:none"
         id="path14" />
      <path
         d="m 24965.5,16968.4 -414.3,-2987.1 h 854.6 l -423,2987.1 h -17.3"
         style="fill:#c21e24;fill-opacity:1;fill-rule:nonzero;stroke:none"
         id="path16" />
      <path
         d="m 10796.6,17244.6 c -328.1,0 -492.1,-198.5 -492.1,-595.6 v -3297.8 c 0,-397.1 164,-595.7 492.1,-595.7 328,0 492.1,198.6 492.1,595.7 V 16649 c 0,397.1 -164.1,595.6 -492.1,595.6"
         style="fill:#c21e24;fill-opacity:1;fill-rule:nonzero;stroke:none"
         id="path18" />
      <path
         d="M 33085.3,16968.4 32671,13981.3 h 854.7 l -423,2987.1 h -17.4"
         style="fill:#c21e24;fill-opacity:1;fill-rule:nonzero;stroke:none"
         id="path20" />
      <path
         d="m 18692.2,16968.4 -414.3,-2987.1 h 854.6 l -423,2987.1 h -17.3"
         style="fill:#c21e24;fill-opacity:1;fill-rule:nonzero;stroke:none"
         id="path22" />
      <path
         d="m 36964.4,15707.9 c 94.9,97.8 142.4,261.9 142.4,492.1 v 336.7 c 0,218.7 -38.9,376.9 -116.5,474.7 -77.8,97.8 -200.1,146.8 -367,146.8 h -457.5 v -1597 h 371.2 c 189.9,0 332.4,48.9 427.4,146.7"
         style="fill:#c21e24;fill-opacity:1;fill-rule:nonzero;stroke:none"
         id="path24" />
      <path
         d="m 36588.8,14697.9 h -423 v -1856.1 h 543.8 c 166.8,0 290.7,44.5 371.3,133.8 80.6,89.2 120.9,243.2 120.9,461.9 v 526.6 c 0,276.2 -47.5,467.5 -142.5,574 -94.9,106.5 -251.8,159.8 -470.5,159.8"
         style="fill:#c21e24;fill-opacity:1;fill-rule:nonzero;stroke:none"
         id="path26" />
      <path
         d="m 44260.6,17158.2 h -1640.2 v -1597 H 43924 v -863.3 h -1303.6 v -1856.1 h 1640.2 v -863.3 h -2589.8 v 6043.1 h 2589.8 z m -3046,-5179.7 h -2512.2 v 6043.1 h 949.6 v -5179.8 h 1562.6 z m -3063.2,1433.1 c 0,-466.3 -122.3,-821.6 -366.9,-1066.3 -244.6,-244.6 -603,-366.8 -1074.9,-366.8 h -1493.4 v 6043.1 h 1433.1 c 489.1,0 845.9,-113.7 1070.4,-341 224.4,-227.4 336.7,-577 336.7,-1049 V 16390 c 0,-310.9 -50.4,-564.1 -151.1,-759.7 -100.8,-195.7 -254.7,-336.8 -461.8,-423 v -17.3 c 471.9,-161.3 707.9,-581.3 707.9,-1260.4 z m -4340.8,-1433.1 -172.7,1200 v -17.3 h -1079.2 l -172.6,-1182.7 h -880.5 l 984.1,6043.1 h 1286.4 l 984.1,-6043.1 z m -2545.4,0 H 28753 v 6043.1 h 949.6 v -5179.8 h 1562.6 z m -3219.3,0 h -949.6 v 6043.1 h 949.6 z m -2355.2,0 -172.7,1200 v -17.3 h -1079.1 l -172.7,-1182.7 h -880.5 l 984.1,6043.1 h 1286.4 l 984.2,-6043.1 z m -4444.6,0 -915.1,6043.1 h 958.2 l 621.6,-4687.8 h 17.3 l 621.6,4687.8 h 872 l -915.1,-6043.1 z m -1828.7,0 -172.7,1200 v -17.3 h -1079.1 l -172.7,-1182.7 h -880.5 l 984.1,6043.1 h 1286.4 l 984.2,-6043.1 z M 15526,17158.2 h -992.8 v -5179.7 h -949.6 v 5179.7 h -992.9 v 863.4 H 15526 Z m -3287.7,-3746.6 c 0,-483.5 -123.9,-857.6 -371.3,-1122.4 -247.5,-264.7 -604.3,-397.1 -1070.4,-397.1 -466.3,0 -823.08,132.4 -1070.53,397.1 -247.44,264.8 -371.17,638.9 -371.17,1122.4 v 3176.9 c 0,483.4 123.73,857.5 371.17,1122.3 247.45,264.6 604.23,397.1 1070.53,397.1 466.1,0 822.9,-132.5 1070.4,-397.1 247.4,-264.8 371.3,-638.9 371.3,-1122.3 z M 8717.71,11978.5 H 7742.16 L 6602.59,16390 h -17.19 v -4411.5 h -846.05 v 6043.1 h 1191.29 l 923.82,-3617.2 h 17.2 v 3617.2 h 846.05 z M 44511.9,19335.4 H 5488.08 c -538.28,0 -978.68,-440.4 -978.68,-978.7 v -6713.4 c 0,-538.3 440.4,-978.7 978.68,-978.7 H 44511.9 c 538.3,0 978.7,440.4 978.7,978.7 v 6713.4 c 0,538.3 -440.4,978.7 -978.7,978.7"
         style="fill:#c21e24;fill-opacity:1;fill-rule:nonzero;stroke:none"
         id="path28" />
      <path
         d="m 7871.66,14404.4 h -17.2 l -923.82,3617.2 H 5739.35 V 11978.5 H 6585.4 V 16390 h 17.19 l 1139.57,-4411.5 h 975.55 v 6043.1 h -846.05 v -3617.2"
         style="fill:#ffffff;fill-opacity:1;fill-rule:nonzero;stroke:none"
         id="path30" />
      <path
         d="m 11288.7,13351.2 c 0,-397.1 -164.1,-595.7 -492.1,-595.7 -328.1,0 -492.1,198.6 -492.1,595.7 V 16649 c 0,397.1 164,595.6 492.1,595.6 328,0 492.1,-198.5 492.1,-595.6 z m -492.1,4756.7 c -466.3,0 -823.08,-132.5 -1070.53,-397.1 -247.44,-264.8 -371.17,-638.9 -371.17,-1122.3 v -3176.9 c 0,-483.5 123.73,-857.6 371.17,-1122.4 247.45,-264.7 604.23,-397.1 1070.53,-397.1 466.1,0 822.9,132.4 1070.4,397.1 247.4,264.8 371.3,638.9 371.3,1122.4 v 3176.9 c 0,483.4 -123.9,857.5 -371.3,1122.3 -247.5,264.6 -604.3,397.1 -1070.4,397.1"
         style="fill:#ffffff;fill-opacity:1;fill-rule:nonzero;stroke:none"
         id="path32" />
      <path
         d="m 12590.7,17158.2 h 992.9 v -5179.7 h 949.6 v 5179.7 h 992.8 v 863.4 h -2935.3 v -863.4"
         style="fill:#ffffff;fill-opacity:1;fill-rule:nonzero;stroke:none"
         id="path34" />
      <path
         d="m 18277.9,13981.3 414.3,2987.1 h 17.3 l 423,-2987.1 z m -181.4,4040.3 -984.1,-6043.1 h 880.5 l 172.7,1182.7 h 1079.1 v 17.3 l 172.7,-1200 h 949.7 l -984.2,6043.1 h -1286.4"
         style="fill:#ffffff;fill-opacity:1;fill-rule:nonzero;stroke:none"
         id="path36" />
      <path
         d="m 22549.7,18021.6 -621.6,-4687.8 h -17.3 l -621.6,4687.8 H 20331 l 915.1,-6043.1 h 1260.5 l 915.1,6043.1 h -872"
         style="fill:#ffffff;fill-opacity:1;fill-rule:nonzero;stroke:none"
         id="path38" />
      <path
         d="m 24551.2,13981.3 414.3,2987.1 h 17.3 l 423,-2987.1 z m -181.4,4040.3 -984.1,-6043.1 h 880.5 l 172.7,1182.7 H 25518 v 17.3 l 172.7,-1200 h 949.7 l -984.2,6043.1 h -1286.4"
         style="fill:#ffffff;fill-opacity:1;fill-rule:nonzero;stroke:none"
         id="path40" />
      <path
         d="m 27096.3,11978.5 h 949.6 v 6043.1 h -949.6 v -6043.1"
         style="fill:#ffffff;fill-opacity:1;fill-rule:nonzero;stroke:none"
         id="path42" />
      <path
         d="M 29702.6,18021.6 H 28753 v -6043.1 h 2512.2 v 863.3 h -1562.6 v 5179.8"
         style="fill:#ffffff;fill-opacity:1;fill-rule:nonzero;stroke:none"
         id="path44" />
      <path
         d="m 32671,13981.3 414.3,2987.1 h 17.4 l 423,-2987.1 z m -181.3,4040.3 -984.1,-6043.1 h 880.5 l 172.6,1182.7 h 1079.2 v 17.3 l 172.7,-1200 h 949.6 l -984.1,6043.1 h -1286.4"
         style="fill:#ffffff;fill-opacity:1;fill-rule:nonzero;stroke:none"
         id="path46" />
      <path
         d="m 37201.8,13437.5 c 0,-218.7 -40.3,-372.7 -120.9,-461.9 -80.6,-89.3 -204.5,-133.8 -371.3,-133.8 h -543.8 v 1856.1 h 423 c 218.7,0 375.6,-53.3 470.5,-159.8 95,-106.5 142.5,-297.8 142.5,-574 z m -1036,3720.7 h 457.5 c 166.9,0 289.2,-49 367,-146.8 77.6,-97.8 116.5,-256 116.5,-474.7 V 16200 c 0,-230.2 -47.5,-394.3 -142.4,-492.1 -95,-97.8 -237.5,-146.7 -427.4,-146.7 h -371.2 z M 37443.5,15190 v 17.3 c 207.1,86.2 361,227.3 461.8,423 100.7,195.6 151.1,448.8 151.1,759.7 v 241.6 c 0,472 -112.3,821.6 -336.7,1049 -224.5,227.3 -581.3,341 -1070.4,341 h -1433.1 v -6043.1 h 1493.4 c 471.9,0 830.3,122.2 1074.9,366.8 244.6,244.7 366.9,600 366.9,1066.3 v 518 c 0,679.1 -236,1099.1 -707.9,1260.4"
         style="fill:#ffffff;fill-opacity:1;fill-rule:nonzero;stroke:none"
         id="path48" />
      <path
         d="m 39652,18021.6 h -949.6 v -6043.1 h 2512.2 v 863.3 H 39652 v 5179.8"
         style="fill:#ffffff;fill-opacity:1;fill-rule:nonzero;stroke:none"
         id="path50" />
      <path
         d="m 41670.8,11978.5 h 2589.8 v 863.3 h -1640.2 v 1856.1 H 43924 v 863.3 h -1303.6 v 1597 h 1640.2 v 863.4 h -2589.8 v -6043.1"
         style="fill:#ffffff;fill-opacity:1;fill-rule:nonzero;stroke:none"
         id="path52" />
    </g>
  </g>
</svg>
