<?xml version="1.0" encoding="UTF-8"?>
<svg xmlns="http://www.w3.org/2000/svg" version="1.1" viewBox="0 0 260 78" width="260" height="78">
  <defs>
    <style>
      .cls-1 {
        fill: #159aa0;
      }

      .cls-2 {
        fill: #706f6f;
      }

      .cls-3 {
        fill: #004987;
      }
    </style>
  </defs>
  <!-- Generator: Adobe Illustrator 28.6.0, SVG Export Plug-In . SVG Version: 1.2.0 Build 709)  -->
  <g>
    <g id="logo-noxorsokem">
      <g>
        <g>
          <path class="cls-3" d="M4,20.5l4.2,18.3c.2,1.1.4,1.9.6,2.8h.2c-.2-1.3-.3-2.7-.4-4l-.2-2.7-.2-14.4h3.5v28.5h-4.2L3.1,27.6h-.2l.2,2.5.2,2.5.3,16.5H0v-28.5h4Z"/>
          <path class="cls-3" d="M24.6,27.9c0-2.5,0-4.4-2.2-4.4s-1.6,0-2.1,1.4c-.2.6-.2,1.2-.2,3v15.3c0,1.4.1,3,2.2,3s2.3-1.9,2.3-3.9v-14.4ZM16.3,28.2c0-2.6.1-4.4,1.4-5.9,1.2-1.3,2.9-2,4.7-2s3.1.4,4.3,1.6c1.6,1.7,1.6,3.6,1.6,7.2v13.5c0,2.1,0,6.7-6.2,6.7s-3.7,0-5.1-2.8c-.7-1.3-.7-2.7-.7-4v-14.3Z"/>
          <path class="cls-3" d="M34.8,20.5l2.1,6.6c.2.8.3,1.8.3,2.7h.4c0-1.3.1-2.1.5-3.3l1.8-5.9h3.8l-4.2,13.8,4.6,14.8h-3.8l-2.4-7.9c-.1-.4-.2-1.4-.3-2.5h-.3c-.2,2.2-.2,2.4-.3,2.7l-2.3,7.8h-3.7l4.4-14.7-4.3-13.8h3.8Z"/>
          <path class="cls-3" d="M54.9,27.9c0-2.5,0-4.4-2.2-4.4s-1.6,0-2.1,1.4c-.2.6-.2,1.2-.2,3v15.3c0,1.4.1,3,2.2,3s2.3-1.9,2.3-3.9v-14.4ZM46.6,28.2c0-2.6.1-4.4,1.4-5.9,1.2-1.3,2.9-2,4.7-2s3.1.4,4.3,1.6c1.6,1.7,1.6,3.6,1.6,7.2v13.5c0,2.1,0,6.7-6.2,6.7s-3.7,0-5.1-2.8c-.7-1.3-.7-2.7-.7-4v-14.3Z"/>
          <path class="cls-3" d="M66.9,23.9v8.8h1.8c1.9,0,2-.8,2-5.6s-.2-3.2-1.8-3.2h-1.9ZM63.1,20.5h6.1c4.6,0,5.1,1.3,5.1,6.9s-.1,7.1-3.2,7v.2c2.7.3,3.1,1.9,3.1,5.7v3.1c0,3.4,0,4,.7,5.7h-3.9c-.3-1.7-.6-3.1-.6-6v-2c0-1.1,0-3.4-.5-4.3-.4-.8-.9-.8-3.1-.8v13.1h-3.8v-28.5Z"/>
          <path class="cls-1" d="M81.8,43.8c0,1,0,2.7,1.9,2.7s1.8-1.8,1.8-3.3c0-2.7-.5-3.9-3.1-7.7-2.3-3.3-3.9-5.7-3.9-9.4s.3-2.8,1-3.9c1.1-1.8,2.9-2.3,4.8-2.3,3.6,0,4.8,1.9,4.8,4.9v5.1h-3.4v-5.1c0-.9-.1-1.9-1.5-1.9s-1.9,1.5-1.9,2.9c0,2.9.9,4.2,3.7,8.3,1.8,2.7,3.4,5,3.4,8.7s-.5,3.7-1.3,4.9c-1.3,1.8-3.2,1.9-4.3,1.9-5.5,0-5.5-4.7-5.5-6.2v-4.8h3.5v5.2Z"/>
          <path class="cls-1" d="M101.6,27.9c0-2.5,0-4.4-2.2-4.4s-1.6,0-2.1,1.4c-.2.6-.2,1.2-.2,3v15.3c0,1.4.1,3,2.2,3s2.3-1.9,2.3-3.9v-14.4ZM93.3,28.2c0-2.6.1-4.4,1.4-5.9,1.2-1.3,2.9-2,4.7-2s3.1.4,4.3,1.6c1.6,1.7,1.6,3.6,1.6,7.2v13.5c0,2.1,0,6.7-6.2,6.7s-3.7,0-5.1-2.8c-.7-1.3-.7-2.7-.7-4v-14.3Z"/>
          <path class="cls-1" d="M117.6,20.5h3.8l-4.7,14.2,5.6,14.4h-3.8l-4.2-11.2c-.1-.3-.6-1.8-.7-2.2v13.3h-3.8v-28.5h3.8v11.3c0,.9,0,1.4,0,2.1.2-1.1.6-2.2.7-2.5l3.4-10.9Z"/>
        </g>
        <polygon class="cls-1" points="125 20.5 134.4 20.5 134.4 24 128.9 24 128.9 32.4 133.9 32.4 133.9 35.9 128.9 35.9 128.9 45.4 134.5 45.4 134.5 49 125 49 125 20.5"/>
        <path class="cls-1" d="M143.9,20.5l2.3,14.4c.4,2.7.5,3.7.5,6.2h.3c0-1.7,0-3.8.4-6.1l2.1-14.5h5.5v28.5h-3.5v-19.2c0-1.3,0-2.7,0-4.1h-.3c0,.7-.4,4.3-.6,5.1l-2.5,18.2h-3.2l-2.5-17.6c-.4-2.3-.5-4.2-.6-5.7h-.4c.1,2,.2,4.5.2,6.5v16.8h-3.5v-28.5h5.3Z"/>
        <path class="cls-2" d="M0,54.5c0-.6,0-2,1.6-2s1.5,1.2,1.5,1.7v.9h-.9v-1.1c0-.2,0-.7-.6-.7s-.6.5-.6.9v3.9c0,.4,0,.8.6.8s.6-.5.6-.9v-1.3h1v1.2c0,.8-.2,1.8-1.6,1.8s-1-.2-1.3-.6c-.2-.4-.2-.8-.2-1.2v-3.4Z"/>
        <polygon class="cls-2" points="7.7 52.5 7.7 55.4 8.6 55.4 8.6 52.5 9.5 52.5 9.5 59.6 8.6 59.6 8.6 56.3 7.7 56.3 7.7 59.6 6.8 59.6 6.8 52.5 7.7 52.5"/>
        <polygon class="cls-2" points="13.4 52.5 15.7 52.5 15.7 53.4 14.3 53.4 14.3 55.5 15.6 55.5 15.6 56.4 14.3 56.4 14.3 58.7 15.7 58.7 15.7 59.6 13.4 59.6 13.4 52.5"/>
        <path class="cls-2" d="M20.7,52.5l.6,3.6c.1.7.1.9.1,1.6h0c0-.4,0-.9.1-1.5l.5-3.6h1.4v7.1h-.9v-4.8c0-.3,0-.7,0-1h0c0,.2-.1,1.1-.1,1.3l-.6,4.5h-.8l-.6-4.4c0-.6-.1-1.1-.2-1.4h0c0,.5,0,1.1,0,1.6v4.2h-.9v-7.1h1.3Z"/>
        <rect class="cls-2" x="27.4" y="52.5" width=".9" height="7.1"/>
        <g>
          <path class="cls-2" d="M32,54.5c0-.6,0-2,1.6-2s1.5,1.2,1.5,1.7v.9h-.9v-1.1c0-.2,0-.7-.6-.7s-.6.5-.6.9v3.9c0,.4,0,.8.6.8s.6-.5.6-.9v-1.3h1v1.2c0,.8-.2,1.8-1.6,1.8s-1-.2-1.3-.6c-.2-.4-.2-.8-.2-1.2v-3.4Z"/>
          <path class="cls-2" d="M39.8,53.8c0,.9,0,1,0,1.2l-.3,2.5h.8l-.4-2.5c0-.3,0-.5,0-1.1h0ZM40.4,52.5l1.1,7.1h-.9l-.2-1.3h-1.1l-.2,1.3h-.9l1-7.1h1.1Z"/>
        </g>
        <polygon class="cls-2" points="45.7 52.5 45.7 58.8 47.3 58.8 47.3 59.6 44.8 59.6 44.8 52.5 45.7 52.5"/>
        <g>
          <path class="cls-2" d="M51.3,58.3c0,.2,0,.7.5.7s.5-.5.5-.8c0-.7-.1-1-.8-1.9-.6-.8-1-1.4-1-2.3s0-.7.2-1c.3-.5.7-.6,1.2-.6.9,0,1.2.5,1.2,1.2v1.3h-.9v-1.3c0-.2,0-.5-.4-.5s-.5.4-.5.7c0,.7.2,1.1.9,2.1.5.7.8,1.3.8,2.2s-.1.9-.3,1.2c-.3.4-.8.5-1.1.5-1.4,0-1.4-1.2-1.4-1.5v-1.2h.9v1.3Z"/>
          <path class="cls-2" d="M62.5,52.5l.6,3.6c.1.7.1.9.1,1.6h0c0-.4,0-.9.1-1.5l.5-3.6h1.4v7.1h-.9v-4.8c0-.3,0-.7,0-1h0c0,.2-.1,1.1-.1,1.3l-.6,4.5h-.8l-.6-4.4c0-.6-.1-1.1-.2-1.4h0c0,.5,0,1.1,0,1.6v4.2h-.9v-7.1h1.3Z"/>
          <path class="cls-2" d="M70.2,53.8c0,.9,0,1,0,1.2l-.3,2.5h.8l-.4-2.5c0-.3,0-.5,0-1.1h0ZM70.8,52.5l1.1,7.1h-.9l-.2-1.3h-1.1l-.2,1.3h-.9l1-7.1h1.1Z"/>
          <path class="cls-2" d="M77.1,52.5h1l-1.2,3.5,1.4,3.6h-1l-1-2.8c0,0-.2-.5-.2-.5v3.3h-.9v-7.1h.9v2.8c0,.2,0,.4,0,.5,0-.3.1-.5.2-.6l.8-2.7Z"/>
        </g>
        <rect class="cls-2" x="81.5" y="52.5" width=".9" height="7.1"/>
        <g>
          <path class="cls-2" d="M87.3,52.5l1.1,4.6c0,.3.1.5.2.7h0c0-.3,0-.7-.1-1v-.7s0-3.6,0-3.6h.9v7.1h-1l-1.2-5.3h0v.6c0,0,0,.6,0,.6v4.1c0,0-.8,0-.8,0v-7.1h1Z"/>
          <path class="cls-2" d="M92.9,54.4c0-.6,0-1,.3-1.4.3-.5.9-.6,1.2-.6,1.3,0,1.3,1,1.3,1.6v.7h-.9v-.8c0-.4,0-.7-.4-.7s-.5.4-.5.8v4.1c0,.5,0,.9.5.9s.5-.4.5-.6v-1.6h-.6v-.9h1.5v3.8h-.6v-.3c-.2.2-.4.4-.9.4-1.3,0-1.3-1.3-1.3-1.8v-3.5Z"/>
          <path class="cls-2" d="M104.6,58.3c0,.2,0,.7.5.7s.5-.5.5-.8c0-.7-.1-1-.8-1.9-.6-.8-1-1.4-1-2.3s0-.7.2-1c.3-.5.7-.6,1.2-.6.9,0,1.2.5,1.2,1.2v1.3h-.9v-1.3c0-.2,0-.5-.4-.5s-.5.4-.5.7c0,.7.2,1.1.9,2.1.5.7.8,1.3.8,2.2s-.1.9-.3,1.2c-.3.4-.8.5-1.1.5-1.4,0-1.4-1.2-1.4-1.5v-1.2h.9v1.3Z"/>
          <path class="cls-2" d="M112.1,54.4c0-.6,0-1.1-.5-1.1s-.4,0-.5.3c0,.1,0,.3,0,.7v3.8c0,.4,0,.7.5.7s.6-.5.6-1v-3.6ZM110,54.4c0-.6,0-1.1.4-1.5.3-.3.7-.5,1.2-.5s.8,0,1.1.4c.4.4.4.9.4,1.8v3.4c0,.5,0,1.7-1.6,1.7s-.9,0-1.3-.7c-.2-.3-.2-.7-.2-1v-3.6Z"/>
        </g>
        <polygon class="cls-2" points="117.7 52.5 117.7 58.8 119.3 58.8 119.3 59.6 116.7 59.6 116.7 52.5 117.7 52.5"/>
        <path class="cls-2" d="M122.5,52.5h.9v5.5c0,.5,0,1,.6,1s.6-.5.6-1v-5.5h.9v5.4c0,.5,0,1.8-1.5,1.8s-1.5-1.3-1.5-1.7v-5.6Z"/>
        <polygon class="cls-2" points="128.6 52.5 131.7 52.5 131.7 53.3 130.6 53.3 130.6 59.6 129.6 59.6 129.6 53.3 128.6 53.3 128.6 52.5"/>
        <rect class="cls-2" x="134.8" y="52.5" width=".9" height="7.1"/>
        <path class="cls-2" d="M141.5,54.4c0-.6,0-1.1-.5-1.1s-.4,0-.5.3c0,.1,0,.3,0,.7v3.8c0,.4,0,.7.5.7s.6-.5.6-1v-3.6ZM139.4,54.4c0-.6,0-1.1.4-1.5.3-.3.7-.5,1.2-.5s.8,0,1.1.4c.4.4.4.9.4,1.8v3.4c0,.5,0,1.7-1.6,1.7s-.9,0-1.3-.7c-.2-.3-.2-.7-.2-1v-3.6Z"/>
        <path class="cls-2" d="M147.1,52.5l1.1,4.6c0,.3.1.5.2.7h0c0-.3,0-.7-.1-1v-.7s0-3.6,0-3.6h.9v7.1h-1l-1.2-5.3h0v.6c0,0,0,.6,0,.6v4.1c0,0-.8,0-.8,0v-7.1h1Z"/>
        <path class="cls-2" d="M153.6,58.3c0,.2,0,.7.5.7s.5-.5.5-.8c0-.7-.1-1-.8-1.9-.6-.8-1-1.4-1-2.3s0-.7.2-1c.3-.5.7-.6,1.2-.6.9,0,1.2.5,1.2,1.2v1.3h-.9v-1.3c0-.2,0-.5-.4-.5s-.5.4-.5.7c0,.7.2,1.1.9,2.1.5.7.8,1.3.8,2.2s-.1.9-.3,1.2c-.3.4-.8.5-1.1.5-1.4,0-1.4-1.2-1.4-1.5v-1.2h.9v1.3Z"/>
      </g>
      <g>
        <path class="cls-2" d="M183.9,28.2c0-2.5,0-4.1,1.1-5.7,1.3-2.1,3.5-2.3,4.7-2.3,5.1,0,5.1,4.2,5.1,6.3v3h-3.5v-3.2c0-1.6,0-2.9-1.7-2.9s-1.9,1.7-1.9,3.2v16.4c0,1.9,0,3.4,1.9,3.4s1.9-1.7,1.9-2.5v-6.5h-2.3v-3.5h6v15.2h-2.3l-.3-1.3c-.5.6-1.3,1.8-3.4,1.8-5.2,0-5.2-5.1-5.2-7.1v-14.1Z"/>
        <path class="cls-2" d="M203.7,23.9v8.8h1.8c1.9,0,2-.8,2-5.6s-.2-3.2-1.8-3.2h-1.9ZM199.9,20.5h6.1c4.6,0,5.1,1.3,5.1,6.9s-.1,7.1-3.2,7v.2c2.7.3,3.1,1.9,3.1,5.7v3.1c0,3.4,0,4,.7,5.7h-3.9c-.3-1.7-.6-3.1-.6-6v-2c0-1.1,0-3.4-.5-4.3-.4-.8-.9-.8-3.1-.8v13.1h-3.8v-28.5Z"/>
        <path class="cls-2" d="M223.7,27.9c0-2.5,0-4.4-2.2-4.4s-1.6,0-2.1,1.4c-.2.6-.2,1.2-.2,3v15.3c0,1.4.1,3,2.2,3s2.3-1.9,2.3-3.9v-14.4ZM215.4,28.2c0-2.6.1-4.4,1.4-5.9,1.2-1.3,2.9-2,4.7-2s3.1.4,4.3,1.6c1.6,1.7,1.6,3.6,1.6,7.2v13.5c0,2.1,0,6.7-6.2,6.7s-3.7,0-5.1-2.8c-.7-1.3-.7-2.7-.7-4v-14.3Z"/>
        <path class="cls-2" d="M231.9,20.5h3.7v22.1c0,1.9,0,3.8,2.3,3.8s2.3-1.9,2.3-4v-21.8h3.7v21.6c0,2,0,7.4-6.1,7.4s-5.9-5.1-5.9-6.7v-22.3Z"/>
        <path class="cls-2" d="M252.5,23.9v8.7h2.4c.9,0,1.3-.2,1.3-1.3v-6c0-1-.2-1.5-1.4-1.5h-2.3ZM248.8,20.5h7.3c3.6,0,3.9,1.8,3.9,4.9v5.4c0,4-.3,5.3-3.8,5.3h-3.8v12.9h-3.7v-28.5Z"/>
      </g>
      <path class="cls-2" d="M137,0c-1.4,0-2.7,0-4,.2,19.6,2,37.1,18.6,37.1,38.7s-17.5,36.7-37.1,38.7c1.3.1,2.7.2,4,.2,21.5,0,38.9-17.4,38.9-38.9S158.5,0,137,0"/>
    </g>
  </g>
</svg>