<svg id="Livello_1" data-name="Livello 1" xmlns="http://www.w3.org/2000/svg" viewBox="0 0 313 127"><path d="M22.21,63.56A43.83,43.83,0,1,1,66,107.4,43.84,43.84,0,0,1,22.21,63.56m25.09.29A18.74,18.74,0,1,0,66,45.11,18.74,18.74,0,0,0,47.3,63.85"/><polyline points="144.68 105.31 144.68 54.59 167.87 54.59 167.87 105.31 144.68 105.31"/><path d="M176.23,105.36V59.73l.29-5a8,8,0,0,0-8-8H138.88l-2.09,0V105.3H113.61V22.44l55,.06A31.5,31.5,0,0,1,200.07,54l.27,5.73v45.63H176.23"/><path d="M205.69,105.37v-51l31.54.22a4,4,0,1,0,0-8.08l-31.54-.26V22.43h31.54a28.09,28.09,0,1,1,0,56.17h-8.58v26.77h-23"/><path d="M273.87,98c0-4.49,2.53-7.35,5.5-7.78V92c-2.73.65-4,3.09-4,6,0,4.41,2.68,6.82,6.92,6.82s6.93-2.21,6.93-6.5c0-4.83-2.75-6.36-5.64-6.86v5.91h-1.53V89.87h8.3v1.29l-3.05.23v0a7.29,7.29,0,0,1,3.45,6.7c0,5.46-3.43,8.44-8.46,8.44-4.86,0-8.45-3.26-8.45-8.61m.41-11.31V77.86c0-2.73,1-5.23,4.35-5.23a3.93,3.93,0,0,1,3.9,3.16h0c.36-2.28,1.83-2.75,4.47-2.87,1,0,3-.18,3.34-.56v1.8c-.34.29-1.54.41-3.29.43-2.84,0-3.79,1.13-3.79,3.9V85h7.09v1.67H274.28m1.53-8.89V85h6V77.9c0-1.83-.68-3.47-3.14-3.47s-2.82,1.78-2.82,3.31m-1.94-15.68c0-4.58,2.78-8.75,8.46-8.75s8.46,4.17,8.46,8.75-2.78,8.75-8.46,8.75-8.46-4.17-8.46-8.75m1.53,0c0,3.54,2.08,7,6.92,7s6.93-3.41,6.93-7-2.08-7-6.93-7-6.92,3.42-6.92,7m-1.12-11.19V49.2h9.88c4.22,0,5.1-2.73,5.1-5.53s-.88-5.53-5.1-5.53h-9.88V36.47h9.88c2.93,0,6.63.81,6.63,7.2s-3.7,7.2-6.63,7.2h-9.88m0-17.73V24.45c0-2.48,1.24-4.85,4.65-4.85,3,0,4.69,2,4.69,5.59v6.27h6.77v1.67H274.28m1.53-8.45v6.79h6.27V25c0-2.8-1.29-3.61-3.16-3.61-2.41,0-3.11,1.35-3.11,3.27"/></svg>