<svg version="1.1" id="svg84" xmlns="http://www.w3.org/2000/svg" x="0" y="0" viewBox="0 0 456.3 136.1" xml:space="preserve"><style>.st0{fill:#e60000}.st1{fill:#fff}</style><path id="rect4" class="st0" d="M0 12.4h84v84H0z"/><path id="rect6" d="M96.5 12.4h347.4v84H96.5z"/><path id="path8" class="st0" d="M449.8 0h-51.7c-1.1 0-2 .9-2 2v10.4h47.8V60h10.4c1.1 0 2-.9 2-2V6.6c.1-3.7-2.8-6.6-6.5-6.6z"/><g id="g28"><path id="path10" class="st1" d="M116 77.6c-2.8-2.7-4.2-6.4-4.2-11V42.3c0-4.6 1.4-8.2 4.2-11 2.8-2.7 6.5-4.1 11.2-4.1s8.4 1.4 11.2 4.1 4.2 6.4 4.2 11v24.4c0 4.6-1.4 8.2-4.2 11-2.8 2.7-6.6 4.1-11.2 4.1-4.6-.1-8.4-1.5-11.2-4.2m14.7-6.6c.9-1 1.3-2.3 1.3-3.9V41.8c0-1.6-.4-2.9-1.3-3.9s-2-1.5-3.4-1.5-2.6.5-3.4 1.5-1.3 2.3-1.3 3.9v25.3c0 1.6.4 2.9 1.3 3.9.8 1 2 1.5 3.4 1.5s2.5-.5 3.4-1.5"/><path id="path12" class="st1" d="M240.8 36.7c-.2.2-.4.3-.6.3h-15.9c-.3 0-.4.1-.4.4v12c0 .3.1.4.4.4h9.1c.3 0 .5.1.6.3.2.2.3.4.3.6v7.4c0 .3-.1.5-.3.6-.2.2-.4.3-.6.3h-9.1c-.3 0-.4.1-.4.4v12.1c0 .3.1.4.4.4h15.9c.3 0 .5.1.6.3.2.2.3.4.3.6v7.4c0 .3-.1.5-.3.6-.2.2-.4.3-.6.3h-26.1c-.3 0-.5-.1-.6-.3-.2-.2-.3-.4-.3-.6V28.7c0-.3.1-.5.3-.6.2-.2.4-.3.6-.3h26.1c.3 0 .5.1.6.3.2.2.3.4.3.6v7.4c0 .2-.1.5-.3.6"/><path id="path14" class="st1" d="M265.4 80.3l-5.9-21c-.1-.2-.2-.3-.4-.3h-2.6c-.3 0-.4.1-.4.4v20.8c0 .3-.1.5-.3.6-.2.2-.4.3-.6.3h-8.9c-.3 0-.5-.1-.6-.3-.2-.2-.3-.4-.3-.6V28.7c0-.3.1-.5.3-.6.2-.2.4-.3.6-.3h15.4c2.8 0 5.3.7 7.5 2s3.9 3.2 5.1 5.7c1.2 2.4 1.8 5.2 1.8 8.4 0 3-.6 5.6-1.7 7.9s-2.7 4.1-4.8 5.3c-.1.1-.2.1-.2.2-.1.1-.1.2 0 .3l7 22.5.1.3c0 .5-.3.8-.8.8h-9.1c-.7-.1-1-.4-1.2-.9m-9.2-42.9v13c0 .3.1.4.4.4h3.4c1.6 0 2.9-.6 3.8-1.9 1-1.2 1.5-2.9 1.5-5s-.5-3.8-1.5-5.1c-1-1.2-2.3-1.9-3.8-1.9h-3.4c-.3.1-.4.2-.4.5"/><path id="path16" class="st1" d="M316.6 63V28.7c0-.3-.1-.5-.3-.6-.2-.2-.4-.3-.6-.3h-8.9c-.6 0-.9.2-1.1.6l-6.5 12.1c-.2.2-.3.2-.5 0l-6.8-12.1c-.3-.4-.6-.6-1.1-.6H282c-.3 0-.5.1-.6.3-.2.2-.3.4-.3.6v51.5c0 .3.1.5.3.6.2.2.4.3.6.3h8.9c.3 0 .5-.1.6-.3.2-.2.3-.4.3-.6V46c0-.2.1-.3.2-.3s.2.1.3.2l5.9 10.5c.3.4.5.6.6.6.2 0 .4-.2.6-.6l5.9-10.5c.1-.2.2-.2.3-.2.1 0 .2.1.2.3v34.2c0 .3.1.5.3.6.2.2.4.3.6.3h5.9l4-18.1z"/><path id="path18" class="st1" d="M418.2 27.8c.2-.2.4-.3.6-.3h8.8c.3 0 .5.1.6.3.2.2.3.4.3.6v51.5c0 .3-.1.5-.3.6-.2.2-.4.3-.6.3h-10.1c-.5 0-.8-.3-1-.8l-9.4-29.5c-.1-.2-.1-.2-.3-.2-.1 0-.2.1-.2.3l.1 29.2c0 .3-.1.5-.3.6-.2.2-.4.3-.6.3H397c-.3 0-.5-.1-.6-.3-.2-.2-.3-.4-.3-.6V28.5c0-.3.1-.5.3-.6.2-.2.4-.3.6-.3h10c.5 0 .8.3 1 .8l9.5 29.5c.1.2.1.2.3.2.1 0 .2-.1.2-.3l-.1-29.2c0-.4.1-.6.3-.8"/><path id="path20" class="st1" d="M208.5 28.1c-.2-.2-.4-.3-.6-.3h-30.2c-.3 0-.5.1-.6.3-.2.2-.3.4-.3.6v.1l.6.6c2.1 2.1 3.3 4.6 3.8 7.6h5.6c.3 0 .4.1.4.4v42.8c0 .3.1.5.3.6.2.2.4.3.6.3h8.9c.3 0 .5-.1.6-.3.2-.2.3-.4.3-.6V37.4c0-.3.1-.4.4-.4h9.5c.3 0 .5-.1.6-.3.2-.2.3-.4.3-.6v-7.4c.1-.2 0-.5-.2-.6"/><path id="path22" class="st1" d="M154.6 80c-2.2-1.2-4-2.8-5.2-4.9s-1.8-4.5-1.8-7.3v-2.2c0-.3.1-.5.3-.6.2-.2.4-.3.6-.3h8.8c.3 0 .5.1.6.3.2.2.3.4.3.6v1.6c0 1.6.4 2.8 1.2 3.8s1.8 1.4 3 1.4 2.2-.5 3-1.4 1.2-2.1 1.2-3.6-.5-2.8-1.5-3.9-3-2.7-5.9-4.8c-2.5-1.8-4.6-3.5-6.2-4.9-1.6-1.4-2.9-3.2-4-5.3s-1.7-4.5-1.7-7.2c0-4.3 1.3-7.8 4-10.4S157.5 27 162 27s8.1 1.3 10.8 4 4.1 6.2 4.1 10.6v1.8c0 .3-.1.5-.3.6-.2.2-.4.3-.6.3h-8.8c-.3 0-.5-.1-.6-.3-.2-.2-.3-.4-.3-.6v-2.1c0-1.6-.4-2.8-1.2-3.8-.8-.9-1.8-1.4-3.1-1.4-1.2 0-2.2.4-3 1.3s-1.1 2.1-1.1 3.7c0 1.5.5 2.9 1.4 4 1 1.2 2.9 2.8 5.7 4.9 3.1 2.3 5.5 4.2 7.1 5.7 1.6 1.4 2.8 3 3.7 4.8s1.3 3.8 1.3 6.3c0 4.5-1.4 8-4.1 10.7-2.7 2.6-6.3 4-10.8 4-2.8.2-5.4-.4-7.6-1.5"/><path id="path24" class="st1" d="M388.1 27.8c-.2-.2-.4-.3-.6-.3h-8.8c-.3 0-.5.1-.6.3-.2.2-.3.4-.3.6l.1 29.2c0 .2-.1.2-.2.3-.1 0-.2 0-.3-.2l-9.5-29.5c-.2-.5-.5-.8-1-.8h-10c-.3 0-.5.1-.6.3-.2.2-.3.4-.3.6v36.1l3.5 16.3h6.2c.3 0 .5-.1.6-.3.2-.2.3-.4.3-.6l-.1-29.2c0-.2.1-.2.2-.3.1 0 .2 0 .3.2l9.4 29.5c.2.5.5.8 1 .8h10.1c.3 0 .5-.1.6-.3.2-.2.3-.4.3-.6V28.5c0-.3-.1-.5-.3-.7"/><path id="path26" class="st1" d="M342.6 80.3l-1.2-7.3c0-.3-.2-.4-.5-.4h-9.7c-.3 0-.5.1-.5.4l-1.2 7.3c-.1.6-.4.8-1 .8h-8.9c-.7 0-.9-.3-.8-1L330 28.6c.1-.6.4-.8 1-.8h10.3c.6 0 .9.3 1 .8l11.1 51.5.1.3c0 .5-.3.7-.8.7h-9.1c-.6 0-1-.3-1-.8m-10-16h6.9c.3 0 .4-.1.3-.4l-3.6-20.8c-.1-.2-.1-.2-.2-.2s-.2.1-.2.2l-3.4 20.8c-.1.2 0 .4.2.4"/></g><g id="g70"><path id="path32_00000130620614757383326820000002038765182607732115_" class="st0" d="M190.6 127.5c-.9-.8-1.4-1.8-1.4-3.1v-.2c0-.1 0-.2.1-.3s.2-.1.3-.1h2.6c.1 0 .2 0 .3.1s.1.2.1.3v.2c0 .5.2.9.6 1.2.4.3.8.5 1.4.5.5 0 .9-.2 1.2-.5s.5-.7.5-1.1-.1-.7-.4-1c-.3-.3-.5-.5-.8-.6s-.8-.4-1.6-.7c-1.1-.4-2.1-1-2.8-1.7s-1.1-1.7-1.1-3c0-1.4.4-2.5 1.3-3.3.9-.8 2.1-1.2 3.6-1.2 1.6 0 2.8.4 3.7 1.2s1.4 1.9 1.4 3.3c0 .1 0 .2-.1.3s-.2.1-.3.1h-2.5c-.1 0-.2 0-.3-.1s-.1-.2-.1-.3v-.2c0-.5-.2-.9-.5-1.2s-.7-.5-1.2-.5-.9.2-1.2.5-.5.7-.5 1.2c0 .4.1.7.4 1 .2.3.5.5.8.6s.8.4 1.5.7c.8.3 1.5.7 2.1 1s1.1.8 1.5 1.4.6 1.4.6 2.3c0 1.3-.5 2.4-1.4 3.2-.9.8-2.2 1.2-3.8 1.2-1.8 0-3.1-.4-4-1.2z"/><path id="path34_00000127758516211484898190000009066760947257326266_" class="st0" d="M208.8 113.3c.1-.1.2-.1.3-.1h2.8c.1 0 .2 0 .3.1s.1.2.1.3v14.6c0 .1 0 .2-.1.3s-.2.1-.3.1h-2.8c-.1 0-.2 0-.3-.1s-.1-.2-.1-.3v-.7c0-.1 0-.1-.1-.1 0 0-.1 0-.1.1-.6.9-1.5 1.3-2.8 1.3-1.2 0-2.2-.4-3-1.1-.8-.7-1.1-1.9-1.1-3.4v-10.7c0-.1 0-.2.1-.3s.2-.1.3-.1h2.8c.1 0 .2 0 .3.1s.1.2.1.3v10c0 1.5.6 2.3 1.7 2.3.6 0 1-.2 1.4-.6.3-.4.5-1 .5-1.8v-9.8c-.1-.3-.1-.4 0-.4z"/><path id="path36_00000105424984512861490310000001417882295997507716_" class="st0" d="M222.4 127.4c-1-.9-1.4-2.1-1.4-3.6v-6c0-1.5.5-2.7 1.4-3.6 1-.9 2.3-1.3 3.9-1.3 1.7 0 3 .4 3.9 1.3 1 .9 1.4 2.1 1.4 3.6v6c0 1.5-.5 2.7-1.4 3.6-1 .9-2.3 1.3-3.9 1.3-1.7 0-3-.4-3.9-1.3zm5.3-2.3c.4-.4.5-.9.5-1.5v-5.5c0-.6-.2-1.1-.5-1.5-.4-.4-.8-.6-1.4-.6s-1 .2-1.4.6c-.3.4-.5.9-.5 1.5v5.5c0 .6.2 1.2.5 1.5.3.4.8.6 1.4.6s1-.2 1.4-.6z"/><path id="path38_00000124133560198724196950000005401573101885741202_" class="st0" d="M241.3 113.3c.1-.1.2-.1.3-.1h2.8c.1 0 .2 0 .3.1s.1.2.1.3V128c0 2.2-.5 3.8-1.5 5s-2.7 1.8-5.3 1.8h-1c-.2 0-.4-.1-.4-.4v-2.3c0-.3.1-.4.4-.3 1.1 0 2-.1 2.6-.4.6-.3 1-.7 1.2-1.3s.3-1.3.3-2.3v-.3c0-.1 0-.1-.1-.1 0 0-.1 0-.1.1-.7.9-1.6 1.3-2.8 1.3-1.3 0-2.4-.4-3.1-1.3-.7-.9-1.1-2.1-1.1-3.6V118c0-1.5.4-2.7 1.1-3.6.7-.9 1.7-1.3 3-1.3 1.2 0 2.2.4 2.8 1.3 0 .1.1.1.1.1s.1 0 .1-.1v-.7c.2-.3.2-.4.3-.4zm-.6 11.6c.3-.4.5-.9.5-1.5V118c0-.6-.2-1.2-.5-1.5s-.8-.6-1.3-.6-1 .2-1.3.6-.5.9-.5 1.5v5.4c0 .6.2 1.1.5 1.5s.8.6 1.3.6 1-.2 1.3-.6z"/><path id="path40_00000080173597576791679870000005711768283734433455_" class="st0" d="M256.9 114.2c.7.9 1 2.1 1 3.7v10.2c0 .1 0 .2-.1.3s-.2.1-.3.1h-2.7c-.1 0-.2 0-.3-.1s-.1-.2-.1-.3v-9.9c0-.7-.1-1.3-.5-1.7-.3-.4-.7-.6-1.3-.6s-1 .2-1.4.6c-.3.4-.5 1-.5 1.7v9.8c0 .1 0 .2-.1.3s-.2.1-.3.1h-2.5c-.1 0-.2 0-.3-.1s-.1-.2-.1-.3v-14.6c0-.1 0-.2.1-.3s.2-.1.3-.1h2.8c.1 0 .2 0 .3.1s.1.2.1.3v.6c0 .1 0 .1.1.1 0 0 .1 0 .2-.1.7-.8 1.6-1.2 2.9-1.2 1.1.1 2.1.6 2.7 1.4z"/><path id="path42_00000076572653873285672870000016271549870844902023_" class="st0" d="M261 110.5c-.4-.4-.6-.9-.6-1.5s.2-1.1.6-1.5.9-.6 1.5-.6 1.1.2 1.5.6.6.9.6 1.5-.2 1.1-.6 1.5-.9.6-1.5.6-1.1-.2-1.5-.6zm0 17.9c-.1-.1-.1-.2-.1-.3v-14.6c0-.1 0-.2.1-.3s.2-.1.3-.1h2.8c.1 0 .2 0 .3.1.1.1.1.2.1.3v14.6c0 .1 0 .2-.1.3s-.2.1-.3.1h-2.8c-.2 0-.3 0-.3-.1z"/><path id="path44_00000174582239536424232100000009747119626854358167_" class="st0" d="M273.5 128.4c-.1-.1-.1-.2-.1-.3v-20.3c0-.1 0-.2.1-.3s.2-.1.3-.1h2.8c.1 0 .2 0 .3.1.1.1.1.2.1.3v20.3c0 .1 0 .2-.1.3s-.2.1-.3.1h-2.8c-.2 0-.3 0-.3-.1z"/><path id="path46_00000111889973982138045390000014676690044731503799_" class="st0" d="M288.7 114.3c1 .9 1.5 2.1 1.5 3.6v10.2c0 .1 0 .2-.1.3s-.2.1-.3.1H287c-.1 0-.2 0-.3-.1-.1-.1-.1-.2-.1-.3v-.6c0-.1 0-.1-.1-.1 0 0-.1 0-.1.1-.7.8-1.7 1.2-3.1 1.2-1.1 0-2.1-.3-3-1-.9-.7-1.3-1.8-1.3-3.6s.5-3.1 1.6-3.8c1.1-.8 2.5-1.1 4.3-1.1h1.6c.1 0 .2 0 .2-.1v-.8c0-.7-.2-1.3-.5-1.7-.4-.4-.8-.6-1.4-.6-.4 0-.8.1-1.1.4-.3.3-.5.6-.5 1.1 0 .2-.1.4-.4.4h-2.9c-.2 0-.4-.1-.3-.4.1-1.4.6-2.5 1.6-3.3s2.2-1.2 3.6-1.2c1.6-.1 2.9.4 3.9 1.3zm-2.7 11c.5-.4.7-.9.7-1.6V122c0-.1-.1-.1-.2-.1h-1.6c-.7 0-1.2.2-1.7.6-.4.4-.6.9-.6 1.6 0 .6.2 1.1.5 1.4s.7.5 1.2.5c.7-.1 1.2-.3 1.7-.7z"/><path id="path48_00000065057042145466927650000004886101130731809429_" class="st0" d="M299.1 115.5c-.1.1-.2.1-.3.1h-1.9c-.1 0-.2.1-.2.2v7.9c0 .7.1 1.2.4 1.5s.6.4 1.2.4h.2c.1 0 .2 0 .3.1.1.1.1.2.1.3v2.3c0 .1 0 .2-.1.3s-.2.1-.3.1h-1c-1.4 0-2.4-.3-3.1-.8-.7-.5-1-1.4-1-2.8v-9.2c0-.1 0-.2-.2-.2h-1.1c-.1 0-.2 0-.3-.1-.1-.1-.1-.2-.1-.3v-1.7c0-.1 0-.2.1-.3s.2-.1.3-.1h1.1c.1 0 .2 0 .2-.2v-3.3c0-.1 0-.2.1-.3s.2-.1.3-.1h2.6c.1 0 .2 0 .3.1.1.1.1.2.1.3v3.3c0 .1 0 .2.2.2h1.9c.1 0 .2 0 .3.1.1.1.1.2.1.3v1.7l-.2.2z"/><path id="path50_00000169553642828990628590000013204774811006197403_" class="st0" d="M302.6 127.4c-1-.9-1.4-2.1-1.4-3.6v-6c0-1.5.5-2.7 1.4-3.6 1-.9 2.3-1.3 3.9-1.3 1.7 0 3 .4 3.9 1.3 1 .9 1.4 2.1 1.4 3.6v6c0 1.5-.5 2.7-1.4 3.6-1 .9-2.3 1.3-3.9 1.3s-3-.4-3.9-1.3zm5.3-2.3c.3-.4.5-.9.5-1.5v-5.5c0-.6-.2-1.1-.5-1.5-.4-.4-.8-.6-1.4-.6s-1 .2-1.4.6c-.3.4-.5.9-.5 1.5v5.5c0 .6.2 1.2.5 1.5.3.4.8.6 1.4.6s1-.2 1.4-.6z"/><path id="path52_00000070799025849122709460000015860689909858662074_" class="st0" d="M327.7 107.6c.1-.1.2-.1.3-.1h2.8c.1 0 .2 0 .3.1.1.1.1.2.1.3v20.3c0 .1 0 .2-.1.3s-.2.1-.3.1H328c-.1 0-.2 0-.3-.1-.1-.1-.1-.2-.1-.3v-.4c0-.1 0-.1-.1-.1h-.1c-.7.7-1.6 1.1-2.7 1.1-1.3 0-2.4-.4-3.1-1.3-.7-.9-1.1-2.1-1.1-3.5v-6.1c0-1.5.4-2.7 1.1-3.6.8-.9 1.8-1.3 3.1-1.3.5 0 .9.1 1.4.3s.9.4 1.3.8c0 0 .1.1.1 0s.1-.1.1-.1v-6.1c0-.2 0-.2.1-.3zm-.7 17.7c.3-.3.5-.7.6-1.2v-6.4c-.1-.5-.3-.9-.6-1.2-.3-.3-.7-.5-1.2-.5-.6 0-1 .2-1.4.6-.3.4-.5.9-.5 1.5v5.6c0 .6.2 1.2.5 1.5.3.4.8.6 1.4.6.4-.1.8-.2 1.2-.5z"/><path id="path54_00000109735615241228304740000011488946918074829750_" class="st0" d="M344.2 122c-.1.1-.2.1-.3.1h-6.6c-.1 0-.1.1-.1.1v1.4c0 .6.2 1.1.5 1.5s.8.6 1.3.6.9-.1 1.2-.4c.3-.3.5-.7.6-1.1.1-.2.2-.3.4-.3l2.7.1c.1 0 .2 0 .3.1.1.1.1.2.1.3-.1 1.4-.7 2.5-1.5 3.2-.8.7-2.1 1.1-3.7 1.1s-2.9-.4-3.9-1.3-1.4-2.1-1.4-3.6v-6.1c0-1.5.5-2.6 1.4-3.5 1-.9 2.2-1.3 3.9-1.3 1.6 0 2.9.4 3.9 1.3s1.4 2.1 1.4 3.5v4c-.1.1-.1.2-.2.3zm-6.5-5.5c-.3.4-.5.9-.5 1.5v1.4c0 .1 0 .2.1.2h3.4c.1 0 .2 0 .2-.2V118c0-.6-.2-1.2-.5-1.5-.3-.4-.8-.6-1.4-.6-.5 0-1 .2-1.3.6z"/><path id="path56_00000003813435105488463920000007034251412856678571_" class="st0" d="M346.9 128.4c-.1-.1-.1-.2-.1-.3v-20.3c0-.1 0-.2.1-.3s.2-.1.3-.1h2.8c.1 0 .2 0 .3.1.1.1.1.2.1.3v20.3c0 .1 0 .2-.1.3s-.2.1-.3.1h-2.8c-.2 0-.3 0-.3-.1z"/><path id="path58_00000042733024666474289660000001308385700078661036_" class="st0" d="M375.5 114.3c.7.9 1 2.2 1 3.8v10.1c0 .1 0 .2-.1.3s-.2.1-.3.1h-2.7c-.1 0-.2 0-.3-.1-.1-.1-.1-.2-.1-.3v-9.8c0-.8-.2-1.4-.5-1.8s-.7-.6-1.2-.6c-.6 0-1 .2-1.3.6s-.5 1-.5 1.7v9.8c0 .1 0 .2-.1.3s-.2.1-.3.1h-2.7c-.1 0-.2 0-.3-.1-.1-.1-.1-.2-.1-.3v-9.8c0-.8-.2-1.4-.5-1.8s-.7-.6-1.2-.6c-.6 0-1 .2-1.3.6s-.5 1-.5 1.7v9.8c0 .1 0 .2-.1.3s-.2.1-.3.1h-2.7c-.1 0-.2 0-.3-.1-.1-.1-.1-.2-.1-.3v-14.6c0-.1 0-.2.1-.3s.2-.1.3-.1h2.7c.1 0 .2 0 .3.1.1.1.1.2.1.3v.5c0 .1 0 .1.1.1 0 0 .1 0 .1-.1.4-.4.9-.7 1.4-.9s1-.3 1.5-.3c1.5 0 2.6.6 3.3 1.9.1.1.1.1.3-.1.4-.6.9-1.1 1.5-1.4s1.2-.4 1.8-.4c1.3.2 2.3.7 3 1.6z"/><path id="path60_00000060752688913819720850000001783556580906025623_" class="st0" d="M380.5 127.4c-1-.9-1.4-2.1-1.4-3.6v-6c0-1.5.5-2.7 1.4-3.6 1-.9 2.3-1.3 3.9-1.3 1.7 0 3 .4 3.9 1.3 1 .9 1.4 2.1 1.4 3.6v6c0 1.5-.5 2.7-1.4 3.6-1 .9-2.3 1.3-3.9 1.3-1.7 0-3-.4-3.9-1.3zm5.3-2.3c.3-.4.5-.9.5-1.5v-5.5c0-.6-.2-1.1-.5-1.5-.4-.4-.8-.6-1.4-.6s-1 .2-1.4.6c-.3.4-.5.9-.5 1.5v5.5c0 .6.2 1.2.5 1.5.3.4.8.6 1.4.6s1-.2 1.4-.6z"/><path id="path62_00000050662447804544522640000016186123818025219491_" class="st0" d="M401.9 114.2c.8.9 1.1 2.1 1.1 3.6v6.1c0 1.5-.4 2.7-1.1 3.5-.7.8-1.8 1.3-3.1 1.3-1.1 0-2-.4-2.7-1.1h-.1l-.1.1v.4c0 .1 0 .2-.1.3s-.2.1-.3.1h-2.7c-.1 0-.2 0-.3-.1-.1-.1-.1-.2-.1-.3v-20.3c0-.1 0-.2.1-.3s.2-.1.3-.1h2.8c.1 0 .2 0 .3.1.1.1.1.2.1.3v6.1c0 .1 0 .1.1.1 0 0 .1 0 .2-.1.4-.3.8-.6 1.3-.8s.9-.2 1.4-.2c1.1 0 2.1.4 2.9 1.3zm-2.9 2.3c-.3-.4-.8-.6-1.4-.6-.5 0-.9.2-1.2.5-.3.3-.5.7-.6 1.2v6.4c.1.5.3.9.6 1.2.3.3.7.5 1.2.5.6 0 1-.2 1.4-.6.3-.4.5-.9.5-1.5V118c0-.6-.1-1.1-.5-1.5z"/><path id="path64_00000070834444454913432200000016891543149448546963_" class="st0" d="M406 110.5c-.4-.4-.6-.9-.6-1.5s.2-1.1.6-1.5.9-.6 1.5-.6 1.1.2 1.5.6.6.9.6 1.5-.2 1.1-.6 1.5-.9.6-1.5.6-1.1-.2-1.5-.6zm-.1 17.9c-.1-.1-.1-.2-.1-.3v-14.6c0-.1 0-.2.1-.3s.2-.1.3-.1h2.8c.1 0 .2 0 .3.1.1.1.1.2.1.3v14.6c0 .1 0 .2-.1.3s-.2.1-.3.1h-2.8c-.1 0-.2 0-.3-.1z"/><path id="path66_00000177465021555278443690000004143938951651219636_" class="st0" d="M412.3 128.4c-.1-.1-.1-.2-.1-.3v-20.3c0-.1 0-.2.1-.3s.2-.1.3-.1h2.8c.1 0 .2 0 .3.1.1.1.1.2.1.3v20.3c0 .1 0 .2-.1.3s-.2.1-.3.1h-2.8c-.2 0-.3 0-.3-.1z"/><path id="path68_00000103260265033657770890000014460549418672732095_" class="st0" d="M428.7 122c-.1.1-.2.1-.3.1h-6.6c-.1 0-.2.1-.2.1v1.4c0 .6.2 1.1.5 1.5s.8.6 1.3.6.9-.1 1.2-.4c.3-.3.5-.7.6-1.1.1-.2.2-.3.4-.3l2.7.1c.1 0 .2 0 .3.1.1.1.1.2.1.3-.1 1.4-.7 2.5-1.5 3.2-.9.8-2.1 1.1-3.7 1.1s-2.9-.4-3.9-1.3-1.4-2.1-1.4-3.6v-6.1c0-1.5.5-2.6 1.4-3.5 1-.9 2.2-1.3 3.9-1.3 1.6 0 2.9.4 3.9 1.3s1.4 2.1 1.4 3.5v4c0 .1 0 .2-.1.3zm-6.5-5.5c-.3.4-.5.9-.5 1.5v1.4c0 .1 0 .2.2.2h3.4c.1 0 .1 0 .1-.2V118c0-.6-.2-1.2-.5-1.5-.3-.4-.8-.6-1.4-.6s-1 .2-1.3.6z"/></g></svg>