<?xml version="1.0" encoding="utf-8"?>
<!-- Generator: Adobe Illustrator 22.0.1, SVG Export Plug-In . SVG Version: 6.00 Build 0)  -->
<svg version="1.1" id="Livello_1" xmlns="http://www.w3.org/2000/svg" xmlns:xlink="http://www.w3.org/1999/xlink" x="0px" y="0px"
	 viewBox="0 0 366.9 88.3" style="enable-background:new 0 0 366.9 88.3;" xml:space="preserve">
<style type="text/css">
	.st0{fill:#157178;}
</style>
<g>
	<path class="st0" d="M72.6,43c-0.1-3.3-2.5-5.8-2.5-5.8h2.5V22.3H24.3c-5.8,0.8-6.3,5.8-6.3,7.6c-0.1,1.8,0.9,3.7,0.9,3.7H18v15.3
		h9.7L18,57v6.5h20.1v-3.2h9.8v3.2h24.7C72.6,63.5,72.7,46.3,72.6,43L72.6,43z M24.7,25.7h44.4v8.2H24.6c0,0-3.2-0.1-3.4-3.9
		C21.1,26.2,24.7,25.7,24.7,25.7L24.7,25.7z M69.2,60.1h-18v-3.3H34.5l0,3.3H21.7l0-1.8l11-9.3h27.3l0.1,5.5c0,0,0.8,0,2.4,0
		c4.1,0.1,6.6-2.6,6.6-2.6V60.1z M63.8,50.8v-5.6H21.7v-7.9h41.9c0,0,5.6,0.9,5.8,6.9C69.5,49.9,63.8,50.8,63.8,50.8L63.8,50.8z"/>
	<path class="st0" d="M6,36.9l0.1-0.6c0.1-0.4,0-0.8-0.5-1c-0.5-0.1-0.8,0.4-0.9,0.7l-0.1,0.5L6,36.9z M3.9,37L4.1,36
		c0.2-0.8,0.6-1.4,1.6-1.2c0.9,0.2,1.1,1,0.9,1.7L6.5,37l1.6,0.4L8,38L3.9,37z"/>
	<path class="st0" d="M7.3,32.4c-0.8-0.3-1.4-1-1-1.9c0.3-0.9,1.2-1,2-0.7c0.8,0.3,1.4,1,1,1.9C9,32.6,8.1,32.7,7.3,32.4L7.3,32.4z
		 M7.1,33c1.2,0.4,2.3,0.1,2.7-1.1c0.5-1.2-0.1-2.2-1.3-2.6c-1.2-0.4-2.3-0.1-2.7,1.1C5.3,31.5,5.9,32.5,7.1,33L7.1,33z"/>
	<path class="st0" d="M8.8,24.4c-0.2,0.2-0.4,0.5-0.6,0.7c-0.4,0.7-0.3,1.4,0.4,1.7c1.1,0.6,1.8-1.1,2.6-0.6c0.4,0.2,0.4,0.7,0.2,1
		c-0.2,0.3-0.4,0.5-0.6,0.7l0.5,0.3c0.2-0.2,0.4-0.4,0.6-0.7c0.4-0.7,0.4-1.5-0.4-1.9c-1.2-0.6-1.9,1-2.6,0.6
		c-0.4-0.2-0.3-0.6-0.1-0.9c0.1-0.3,0.3-0.4,0.5-0.6L8.8,24.4z"/>
	<polygon class="st0" points="11.1,21.6 10.3,22.7 9.9,22.4 11.7,19.8 12.2,20.1 11.4,21.2 14.4,23.2 14.1,23.7 	"/>
	<polygon class="st0" points="13.2,18 14.7,16.4 15.1,16.7 14,17.9 14.9,18.7 16,17.6 16.4,17.9 15.3,19.1 16.8,20.3 16.3,20.8 	"/>
	<path class="st0" d="M18.3,15.8c-0.6-0.6-0.7-1.5,0-2.1c0.7-0.6,1.6-0.3,2.1,0.4c0.5,0.6,0.7,1.5,0,2.1
		C19.7,16.7,18.8,16.4,18.3,15.8L18.3,15.8z M17.8,16.2c0.8,1,2,1.2,2.9,0.3c1-0.8,1-2,0.1-2.9c-0.8-0.9-2-1.2-2.9-0.3
		C17,14.1,17,15.3,17.8,16.2L17.8,16.2z"/>
	<path class="st0" d="M22.6,10.6l0.5-0.3c0.5-0.3,0.8-0.2,1,0.1c0.2,0.3,0.1,0.7-0.4,1l-0.4,0.3L22.6,10.6z M24,14l0.5-0.3l-1-1.6
		l0.3-0.2c0.3-0.2,0.4-0.3,0.8,0l1.3,0.9l0.6-0.4l-1.6-1c-0.3-0.1-0.4-0.2-0.6-0.1l0,0c0.4-0.3,0.5-0.8,0.2-1.3
		c-0.5-0.8-1.3-0.5-2-0.1l-0.9,0.5L24,14z"/>
	<polygon class="st0" points="26.7,7.6 27.6,7.2 30.2,9.9 30,6.2 30.9,5.8 32.5,9.6 32,9.9 30.6,6.6 30.6,6.6 30.7,10.4 30.2,10.6 
		27.5,7.9 27.5,7.9 28.9,11.2 28.3,11.4 	"/>
	<polygon class="st0" points="33.8,5 34.3,4.8 35.4,8.8 34.9,9 	"/>
	<polygon class="st0" points="37.1,4.1 37.9,4 40.3,7 40.3,7 39.8,3.7 40.4,3.6 41,7.7 40.3,7.8 37.9,4.8 37.8,4.8 38.4,8.1 
		37.8,8.2 	"/>
	<path class="st0" d="M46.4,3.5c-0.3-0.1-0.6-0.2-1.2-0.2c-1.3,0-2.2,0.9-2.2,2.1c0,1.3,0.9,2.1,2.2,2.1c0.7,0,1-0.1,1.3-0.2l0-2.2
		l-1.5,0l0,0.5l0.9,0l0,1.3c-0.2,0-0.3,0.1-0.7,0.1c-0.9,0-1.6-0.6-1.6-1.6c0-0.9,0.6-1.6,1.6-1.6c0.5,0,0.9,0.1,1.2,0.3L46.4,3.5z"
		/>
	<path class="st0" d="M52.8,4.5l0.5,0.1C53.6,4.7,54.1,5,54,5.5c-0.1,0.5-0.6,0.6-1,0.6L52.5,6L52.8,4.5z M51.5,8l0.6,0.1l0.3-1.6
		L53,6.6c0.7,0.1,1.5,0,1.7-0.9c0.2-0.9-0.5-1.3-1.3-1.5l-1.1-0.2L51.5,8z"/>
	<path class="st0" d="M57.7,5.7l0.5,0.2c0.5,0.2,0.7,0.5,0.6,0.8c-0.1,0.4-0.5,0.5-1.1,0.3l-0.5-0.2L57.7,5.7z M56,9l0.6,0.2
		l0.6-1.7l0.3,0.1C57.8,7.6,58,7.7,58,8.1l0.1,1.6l0.7,0.2l-0.2-1.8c0-0.3-0.1-0.4-0.3-0.5l0,0c0.5,0.1,1-0.1,1.1-0.6
		C59.8,6,59,5.6,58.3,5.4l-1-0.3L56,9z"/>
	<polygon class="st0" points="62.5,7 64.6,8 64.4,8.4 62.8,7.7 62.3,8.8 63.7,9.4 63.5,9.9 62.1,9.2 61.5,10.5 63,11.2 62.8,11.7 
		60.7,10.7 	"/>
	<polygon class="st0" points="67,9.3 68.9,10.4 68.6,10.9 67.2,10 66.6,11 67.9,11.9 67.6,12.3 66.3,11.5 65.3,13.1 64.7,12.8 	"/>
	<path class="st0" d="M70,13.8c0.5-0.6,1.4-1,2.1-0.4c0.7,0.6,0.6,1.5,0,2.1c-0.5,0.6-1.4,1-2.1,0.4C69.3,15.3,69.5,14.5,70,13.8
		L70,13.8z M69.5,13.4c-0.8,1-0.8,2.1,0.2,2.9c1,0.8,2.1,0.6,2.9-0.4c0.8-0.9,0.8-2.1-0.2-2.9C71.5,12.2,70.3,12.5,69.5,13.4
		L69.5,13.4z"/>
	<path class="st0" d="M75.9,17.1l0.4,0.4c0.4,0.4,0.4,0.8,0.1,1c-0.3,0.3-0.7,0.2-1.1-0.2L75,17.9L75.9,17.1z M72.8,19.1l0.4,0.4
		l1.4-1.2l0.2,0.3c0.2,0.2,0.3,0.4,0.2,0.8l-0.7,1.4l0.5,0.5l0.7-1.7c0.1-0.3,0.1-0.4,0-0.6l0,0c0.4,0.3,0.9,0.3,1.3,0
		c0.7-0.7,0.3-1.3-0.2-1.9l-0.7-0.8L72.8,19.1z"/>
	<polygon class="st0" points="79.6,20.6 80.1,21.4 77.9,24.4 81.5,23.6 82.1,24.4 78.5,26.6 78.2,26.1 81.3,24.2 81.2,24.2 77.5,25 
		77.1,24.5 79.4,21.4 79.4,21.4 76.4,23.3 76.1,22.8 	"/>
	<polygon class="st0" points="83.4,27 83.6,27.6 79.9,29.3 79.6,28.8 	"/>
	<polygon class="st0" points="84.8,30.2 85.1,30.9 82.5,33.7 82.5,33.7 85.6,32.7 85.8,33.2 81.9,34.6 81.6,33.8 84.3,31 84.3,31 
		81,32.1 80.8,31.5 	"/>
	<path class="st0" d="M86.4,39.2c0.1-0.3,0.2-0.6,0.1-1.2c-0.2-0.9-1-1.4-1.9-1.3c-1,0.2-1.5,1-1.3,1.8c0.1,0.4,0.1,0.5,0.2,0.6
		l1.3-0.2l-0.2-0.9L85,38l0.3,1.4l-2.1,0.4c-0.1-0.2-0.3-0.6-0.4-1.2c-0.2-1.3,0.4-2.3,1.7-2.5c1.3-0.2,2.3,0.5,2.5,1.8
		c0.1,0.6,0.1,0.9,0,1.2L86.4,39.2z"/>
	<path class="st0" d="M6.7,43.5c0,0.6-0.4,1-1,1c-0.6,0-1-0.4-1-1c0-0.6,0.4-1,1-1C6.2,42.5,6.7,42.9,6.7,43.5L6.7,43.5z"/>
	<polygon class="st0" points="8,47.8 8.3,50 7.8,50.1 7.5,48.4 6.3,48.6 6.6,50.1 6,50.2 5.8,48.6 4.5,48.8 4.7,50.5 4.2,50.6 
		3.9,48.3 	"/>
	<polygon class="st0" points="8.9,52.7 9,53.2 5.6,54.2 6,55.8 5.5,56 4.9,53.8 	"/>
	<polygon class="st0" points="10.3,57.2 11.2,59.3 10.7,59.5 10.1,57.9 9,58.4 9.6,59.8 9.1,60 8.5,58.6 7.2,59.1 7.9,60.6 
		7.4,60.8 6.5,58.8 	"/>
	<polygon class="st0" points="12.4,61.7 12.9,62.5 10.7,65.4 14.3,64.6 14.8,65.4 11.3,67.6 11,67.1 14,65.2 14,65.2 10.3,66 
		10,65.5 12.3,62.5 12.3,62.4 9.3,64.3 8.9,63.8 	"/>
	<polygon class="st0" points="16.6,67.6 18.1,69.3 17.7,69.6 16.6,68.4 15.7,69.2 16.7,70.3 16.4,70.6 15.3,69.5 14.3,70.4 
		15.4,71.6 15.1,72 13.5,70.3 	"/>
	<polygon class="st0" points="20.1,71.2 20.7,71.7 19.9,75.3 19.9,75.4 22.1,72.8 22.5,73.2 19.9,76.3 19.3,75.9 20.1,72.1 20,72.1 
		17.9,74.7 17.4,74.3 	"/>
	<polygon class="st0" points="25.3,75.7 24.2,75 24.4,74.6 27.1,76.2 26.8,76.6 25.8,76 23.9,79 23.4,78.7 	"/>
	<path class="st0" d="M30.7,78.6c-0.2-0.2-0.4-0.3-0.6-0.5c-0.3-0.1-0.7-0.2-0.9,0.2c-0.3,0.7,1.4,1.3,0.8,2.5
		c-0.4,0.8-1.1,0.8-1.9,0.5c-0.3-0.1-0.5-0.3-0.7-0.5l0.3-0.5c0.1,0.2,0.4,0.4,0.7,0.5c0.3,0.1,0.8,0.2,1-0.3
		c0.4-0.8-1.3-1.3-0.8-2.5c0.3-0.7,1-0.8,1.7-0.5c0.2,0.1,0.5,0.3,0.7,0.5L30.7,78.6z"/>
	<polygon class="st0" points="37,80 39.1,80.4 39,80.9 37.5,80.6 37.2,81.8 38.7,82.1 38.6,82.6 37.1,82.3 36.7,84.1 36.2,84 	"/>
	<path class="st0" d="M42,82.8c0-0.8,0.5-1.6,1.4-1.5c0.9,0,1.3,0.8,1.3,1.7c0,0.8-0.5,1.6-1.4,1.5C42.3,84.4,41.9,83.6,42,82.8
		L42,82.8z M41.4,82.8C41.3,84,42,84.9,43.2,85c1.2,0.1,2-0.8,2.1-2c0.1-1.2-0.6-2.1-1.9-2.2C42.2,80.7,41.4,81.6,41.4,82.8
		L41.4,82.8z"/>
	<path class="st0" d="M48.6,81.3l0.6-0.1c0.5-0.1,0.8,0.2,0.9,0.5c0,0.4-0.3,0.7-0.8,0.7l-0.5,0L48.6,81.3z M48.4,84.9l0.6-0.1
		l-0.2-1.8l0.3,0c0.3,0,0.5-0.1,0.7,0.3l0.8,1.3l0.7-0.1l-0.9-1.5c-0.2-0.2-0.3-0.3-0.4-0.4v0c0.5-0.1,0.8-0.5,0.7-1
		c-0.1-1-0.9-1-1.7-0.9l-1,0.1L48.4,84.9z"/>
	<polygon class="st0" points="56.7,79.3 58.8,78.6 59,79.1 57.4,79.6 57.8,80.7 59.3,80.2 59.4,80.7 58,81.2 58.6,83 58,83.1 	"/>
	<path class="st0" d="M65.1,78.3c0.5,1,0.3,1.8-0.6,2.3c-0.9,0.4-1.7,0.2-2.2-0.9l-1.1-2.1l0.5-0.3l1.1,2.1c0.4,0.7,0.8,1.1,1.5,0.7
		c0.7-0.3,0.7-0.9,0.3-1.6l-1-2.1l0.5-0.3L65.1,78.3z"/>
	<path class="st0" d="M67.2,74.9l0.5-0.3c0.4-0.3,0.8-0.3,1,0c0.2,0.3,0.1,0.7-0.4,1l-0.4,0.3L67.2,74.9z M68.8,78.1l0.5-0.3
		l-1.1-1.5l0.3-0.2c0.3-0.2,0.4-0.3,0.8-0.1l1.3,0.8l0.5-0.4l-1.6-0.9c-0.2-0.1-0.4-0.2-0.6-0.1l0,0c0.3-0.3,0.4-0.8,0.2-1.2
		c-0.6-0.8-1.3-0.4-1.9,0l-0.8,0.6L68.8,78.1z"/>
	<polygon class="st0" points="70.7,71.5 71.3,71 74.9,72.1 74.9,72.1 72.6,69.7 73,69.3 75.9,72.2 75.3,72.8 71.6,71.6 71.6,71.6 
		74,74 73.5,74.5 	"/>
	<polygon class="st0" points="78.1,69.7 78.4,69.3 75.2,66.7 74.9,67.2 	"/>
	<polygon class="st0" points="77.8,64 77.1,65.1 76.7,64.8 78.4,62.2 78.8,62.5 78.1,63.5 81.2,65.4 80.9,65.9 	"/>
	<path class="st0" d="M83,58.2c1,0.5,1.4,1.2,1,2.2c-0.4,0.9-1.2,1.2-2.3,0.7l-2.2-1l0.2-0.5l2.1,0.9c0.7,0.3,1.3,0.3,1.6-0.4
		c0.3-0.7-0.1-1.1-0.8-1.4l-2.1-0.9l0.2-0.5L83,58.2z"/>
	<path class="st0" d="M82.4,54.2l0.1-0.5c0.1-0.5,0.4-0.7,0.8-0.6c0.4,0.1,0.5,0.5,0.4,1l-0.1,0.5L82.4,54.2z M85.7,55.7l0.2-0.6
		l-1.8-0.5l0.1-0.3c0.1-0.3,0.1-0.5,0.6-0.6l1.5-0.2l0.2-0.6l-1.8,0.3c-0.3,0.1-0.4,0.1-0.5,0.3h0c0.1-0.5-0.2-0.9-0.7-1.1
		c-0.9-0.3-1.3,0.5-1.5,1.2l-0.3,1L85.7,55.7z"/>
	<polygon class="st0" points="83,49.4 83.3,47.1 83.8,47.2 83.6,48.9 84.7,49 85,47.5 85.5,47.6 85.3,49.1 86.6,49.3 86.8,47.6 
		87.3,47.6 87,49.9 	"/>
	<path class="st0" d="M84.5,43.5c0-0.6,0.5-1,1-1c0.6,0,1,0.4,1,1c0,0.6-0.5,1-1,1C84.9,44.5,84.5,44,84.5,43.5L84.5,43.5z"/>
	<path class="st0" d="M109.4,44.6c0,3.8-2.5,4.3-4.4,4.3c0-2.7,0-5.5,0.1-8.2c0.3,0,0.8,0,1.2,0C108,40.7,109.4,41.6,109.4,44.6
		L109.4,44.6z M100.6,51.1c0,3.3-0.1,5.5-0.2,8.1c0.7-0.1,1.4-0.1,2.4-0.1c1,0,1.8,0.1,2.4,0.1c-0.2-2.9-0.2-5.9-0.2-8.8h1.5
		c4.4,0,7.6-1.8,7.6-6.3c0-1.7-0.6-2.9-1.8-4c-0.9-0.8-2.4-1.2-5.2-1.2c-1.4,0-3,0.1-4.3,0.1c-1,0-1.8-0.1-2.4-0.1
		c0.2,2.6,0.2,4.8,0.2,8.1V51.1z"/>
	<path class="st0" d="M118.4,47.1c0-3.3-0.1-5.5-0.2-8.1c1.7,0,3.5,0.1,5.3,0.1c2.9,0,5.4-0.1,6.2-0.1c-0.1,0.4-0.1,0.7-0.1,1.2
		c0,0.6,0.1,0.9,0.1,1.3c-2.3-0.1-5.8-0.4-6.7-0.4c-0.1,2.1-0.1,4.2-0.1,6.4c2.6-0.1,4.5-0.1,6.7-0.2c-0.1,0.7-0.1,0.9-0.1,1.3
		c0,0.3,0.1,0.6,0.1,1.2c-2.3-0.2-4.5-0.3-6.7-0.3c0,1.2,0,2.5,0,3.8c0,1.2,0,2.5,0.1,3.7c2.2,0,4.5-0.1,6.8-0.4
		c-0.1,0.4-0.1,0.7-0.1,1.3c0,0.6,0.1,0.9,0.1,1.3c-1.1,0-2.5-0.1-5.2-0.1c-4.8,0-5.6,0.1-6.3,0.1c0.2-2.6,0.2-4.8,0.2-8.1V47.1z"/>
	<path class="st0" d="M135,39c0.4,0.1,0.9,0.1,1.3,0.1c0.4,0,0.9-0.1,1.3-0.1c4.3,4.7,8.5,9.3,12.9,14c0-4.7,0-12.6-0.2-14
		c0.4,0.1,0.9,0.1,1.3,0.1c0.4,0,0.9-0.1,1.3-0.1c-0.5,8.5-0.5,12.4-0.5,20.2c-0.4-0.1-0.8-0.1-1.2-0.1c-0.4,0-0.8,0.1-1.2,0.1
		c-4.1-4.7-8.4-9.5-12.9-14.2c-0.1,2.2-0.1,4.6-0.1,6.8c0,4.7,0.1,6.3,0.2,7.4c-0.5-0.1-1-0.1-1.4-0.1c-0.4,0-0.9,0.1-1.4,0.1
		c0.1-0.8,0.6-8.4,0.6-14.4C135.1,42.2,135,40.4,135,39L135,39z"/>
	<path class="st0" d="M159.3,39c0.4,0.1,0.9,0.1,1.3,0.1c0.4,0,0.9-0.1,1.3-0.1c4.3,4.7,8.5,9.3,12.9,14c0-4.7,0-12.6-0.2-14
		c0.4,0.1,0.9,0.1,1.3,0.1c0.4,0,0.9-0.1,1.3-0.1c-0.5,8.5-0.5,12.4-0.5,20.2c-0.4-0.1-0.8-0.1-1.2-0.1c-0.4,0-0.8,0.1-1.1,0.1
		c-4.1-4.7-8.4-9.5-12.9-14.2c-0.1,2.2-0.1,4.6-0.1,6.8c0,4.7,0.1,6.3,0.2,7.4c-0.5-0.1-1-0.1-1.4-0.1c-0.4,0-0.9,0.1-1.4,0.1
		c0.1-0.8,0.6-8.4,0.6-14.4C159.5,42.2,159.4,40.4,159.3,39L159.3,39z"/>
	<path class="st0" d="M186.5,51.5c0.9-2.4,1.8-4.7,2.8-7c1,2.3,1.8,4.6,2.6,7H186.5z M191.5,38.8c-0.4,0.1-0.7,0.1-1.1,0.1
		c-0.4,0-0.7-0.1-1.1-0.1c-2.5,6.7-7,17.1-8.4,20.4c0.6-0.1,1-0.1,1.5-0.1c0.5,0,0.9,0.1,1.4,0.1c0.6-2,1.2-4,2-6c1,0,2-0.1,3.1-0.1
		c1.3,0,2.5,0,3.8,0.1c0.7,2,1.4,4,2,6c0.8-0.1,1.7-0.1,2.5-0.1c0.8,0,1.7,0.1,2.6,0.1C197.5,54.4,194.1,45.5,191.5,38.8L191.5,38.8
		z"/>
	<path class="st0" d="M219.1,55.8c-0.3,0.8-0.6,1.7-0.7,2.5c-1.6,0.8-3.6,1.3-6,1.3c-6.9,0-10.9-4.3-10.9-9.8
		c0-8.1,5.5-11.2,11.8-11.2c2.1,0,4.7,0.6,6,1.4c-0.4,1-0.6,2-0.7,3h-0.4c-1.5-1.8-3-2.6-5.1-2.6c-3.2,0-6.8,2.7-6.8,8.9
		c0,6,3.6,8.4,7,8.4c1.9,0,4.1-0.9,5.4-2.2L219.1,55.8z"/>
	<path class="st0" d="M240.2,55.8c-0.3,0.8-0.6,1.7-0.7,2.5c-1.6,0.8-3.6,1.3-6,1.3c-6.9,0-10.9-4.3-10.9-9.8
		c0-8.1,5.5-11.2,11.8-11.2c2.1,0,4.7,0.6,6,1.4c-0.4,1-0.6,2-0.7,3h-0.4c-1.5-1.8-3-2.6-5.1-2.6c-3.2,0-6.8,2.7-6.8,8.9
		c0,6,3.6,8.4,7,8.4c1.9,0,4.1-0.9,5.4-2.2L240.2,55.8z"/>
	<path class="st0" d="M258.6,49.4c-1.5,0-3-0.1-4.5-0.1c-1.5,0-3,0.1-4.5,0.1v1.7c0,3.3,0.1,5.5,0.2,8.1c-0.6-0.1-1.5-0.1-2.4-0.1
		c-1,0-1.8,0.1-2.4,0.1c0.2-2.6,0.2-4.8,0.2-8.1v-4c0-3.3-0.1-5.5-0.2-8.1c0.7,0.1,1.5,0.1,2.4,0.1c1,0,1.8-0.1,2.4-0.1
		c-0.2,2.6-0.2,4.8-0.2,8.1c1,0,2.4,0.1,4.5,0.1c2.1,0,3.3,0,4.5-0.1c0-3.3-0.1-5.5-0.2-8.1c0.7,0.1,1.5,0.1,2.4,0.1
		c1,0,1.8-0.1,2.4-0.1c-0.2,2.6-0.2,4.8-0.2,8.1v4c0,3.3,0.1,5.5,0.2,8.1c-0.7-0.1-1.5-0.1-2.4-0.1c-1,0-1.8,0.1-2.4,0.1
		c0.2-2.6,0.2-4.8,0.2-8.1V49.4z"/>
	<path class="st0" d="M269.7,47.1c0-3.3-0.1-5.5-0.2-8.1c0.7,0.1,1.4,0.1,2.4,0.1c1,0,1.8-0.1,2.4-0.1c-0.2,2.6-0.2,4.8-0.2,8.1v4
		c0,3.3,0.1,5.5,0.2,8.1c-0.7-0.1-1.5-0.1-2.4-0.1c-1,0-1.8,0.1-2.4,0.1c0.2-2.6,0.2-4.8,0.2-8.1V47.1z"/>
	<path class="st0" d="M297,48.5c0,6.4-3.1,9.3-6.7,9.3c-3.3,0-6.2-2.2-6.2-8.4c0-5,2.4-9.1,6.4-9.1C294.3,40.3,297,43.4,297,48.5
		L297,48.5z M279.2,49.1c0,7.3,5,10.5,11.3,10.5c6.6,0,11.3-4.7,11.3-10.5c0-7.1-4.9-10.5-11.2-10.5
		C283.7,38.6,279.2,43.3,279.2,49.1L279.2,49.1z"/>
	<path class="st0" d="M306.9,39c0.4,0.1,0.9,0.1,1.3,0.1c0.4,0,0.9-0.1,1.3-0.1c4.3,4.7,8.5,9.3,12.9,14c0-4.7,0-12.6-0.2-14
		c0.4,0.1,0.9,0.1,1.3,0.1c0.4,0,0.9-0.1,1.3-0.1c-0.5,8.5-0.5,12.4-0.5,20.2c-0.4-0.1-0.8-0.1-1.2-0.1c-0.4,0-0.8,0.1-1.2,0.1
		c-4.1-4.7-8.4-9.5-12.9-14.2c-0.1,2.2-0.1,4.6-0.1,6.8c0,4.7,0.1,6.3,0.2,7.4c-0.5-0.1-0.9-0.1-1.4-0.1c-0.4,0-0.9,0.1-1.4,0.1
		c0.1-0.8,0.6-8.4,0.6-14.4C307.1,42.2,307,40.4,306.9,39L306.9,39z"/>
	<path class="st0" d="M331.3,47.1c0-3.3-0.1-5.5-0.2-8.1c0.6,0.1,1.4,0.1,2.4,0.1c1,0,1.8-0.1,2.4-0.1c-0.2,2.6-0.2,4.8-0.2,8.1v4
		c0,3.3,0.1,5.5,0.2,8.1c-0.7-0.1-1.5-0.1-2.4-0.1c-1,0-1.8,0.1-2.4,0.1c0.2-2.6,0.2-4.8,0.2-8.1V47.1z"/>
	<path class="st0" d="M347.9,52.6c-0.3-0.7-0.7-1-1.4-1c-0.7,0-1.2,0.5-1.2,1.1c0,1.7,3.6,1.3,3.6,4c0,1.6-1.3,2.7-3.1,2.7
		c-0.9,0-1.6-0.2-1.9-0.5c0.2-0.5,0.3-1,0.3-1.5h0.2c0.1,0.7,0.7,1.3,1.6,1.3c0.9,0,1.4-0.5,1.4-1.2c0-1.8-3.5-1.3-3.5-4
		c0-1.6,1.3-2.5,2.7-2.5c0.9,0,1.5,0.2,1.9,0.6c-0.1,0.4-0.2,0.6-0.4,1.2H347.9z"/>
	<path class="st0" d="M354.2,53.3c0,1.5-1,1.7-1.8,1.7c0-1.1,0-2.2,0-3.3c0.1,0,0.3,0,0.5,0C353.7,51.7,354.2,52.1,354.2,53.3
		L354.2,53.3z M350.7,55.9c0,1.3,0,2.2-0.1,3.3c0.3,0,0.6-0.1,1-0.1c0.4,0,0.7,0,1,0.1c-0.1-1.2-0.1-2.3-0.1-3.5h0.6
		c1.8,0,3-0.7,3-2.5c0-0.7-0.2-1.2-0.7-1.6c-0.4-0.3-0.9-0.5-2.1-0.5c-0.6,0-1.2,0.1-1.7,0.1c-0.4,0-0.7,0-1-0.1
		c0.1,1,0.1,1.9,0.1,3.3V55.9z"/>
	<path class="st0" d="M363.9,59.1c-0.4,0-0.7-0.1-1-0.1c-0.3,0-0.7,0-1,0.1c-0.2-0.8-0.5-1.6-0.8-2.4c-0.5,0-1,0-1.5,0
		c-0.4,0-0.8,0-1.2,0c-0.3,0.8-0.6,1.6-0.8,2.4c-0.2,0-0.4-0.1-0.6-0.1c-0.2,0-0.4,0-0.6,0.1c0.6-1.3,2.4-5.5,3.4-8.2l0.5,0.1
		l0.5-0.1C361.6,53.7,363,57.2,363.9,59.1L363.9,59.1z M360.7,56c-0.3-1-0.7-1.9-1.1-2.8c-0.4,0.9-0.8,1.8-1.1,2.8H360.7z"/>
	<path class="st0" d="M101.8,73.2c0.1,0.4,0.2,0.7,0.3,0.9c0.3,0.3,0.8,0.5,1.5,0.5c0.4,0,0.7,0,1-0.1c0.5-0.2,0.7-0.5,0.7-1
		c0-0.3-0.1-0.5-0.4-0.6c-0.2-0.1-0.6-0.3-1.1-0.4l-0.9-0.2c-0.9-0.2-1.5-0.4-1.8-0.6c-0.6-0.4-0.8-1-0.8-1.8c0-0.7,0.3-1.4,0.8-1.9
		c0.5-0.5,1.3-0.7,2.4-0.7c0.9,0,1.6,0.2,2.2,0.7c0.6,0.5,0.9,1.1,1,2H105c0-0.5-0.3-0.9-0.7-1.1c-0.3-0.1-0.6-0.2-1-0.2
		c-0.5,0-0.8,0.1-1.1,0.3c-0.3,0.2-0.4,0.4-0.4,0.8c0,0.3,0.1,0.5,0.4,0.7c0.2,0.1,0.5,0.2,1.1,0.3l1.4,0.3c0.6,0.1,1.1,0.4,1.4,0.6
		c0.5,0.4,0.7,1,0.7,1.7c0,0.8-0.3,1.4-0.9,1.9c-0.6,0.5-1.4,0.8-2.5,0.8c-1.1,0-1.9-0.2-2.6-0.7c-0.6-0.5-0.9-1.2-0.9-2H101.8z"/>
	<polygon class="st0" points="118,68.9 113.6,68.9 113.6,70.7 117.6,70.7 117.6,72.1 113.6,72.1 113.6,74.3 118.2,74.3 118.2,75.8 
		111.9,75.8 111.9,67.5 118,67.5 	"/>
	<path class="st0" d="M128.7,67.5h2.5v8.3h-1.6v-5.6c0-0.2,0-0.4,0-0.7c0-0.3,0-0.5,0-0.7l-1.6,7h-1.7l-1.5-7c0,0.2,0,0.4,0,0.7
		c0,0.3,0,0.5,0,0.7v5.6h-1.6v-8.3h2.5l1.5,6.5L128.7,67.5z"/>
	<rect x="136.3" y="67.5" class="st0" width="1.7" height="8.3"/>
	<polygon class="st0" points="143.3,67.5 145,67.5 145,74.3 149.1,74.3 149.1,75.8 143.3,75.8 	"/>
	<path class="st0" d="M156.2,72.6h2.1l-1-3.3L156.2,72.6z M156.3,67.5h1.9l2.9,8.3h-1.9l-0.5-1.7h-3l-0.6,1.7h-1.8L156.3,67.5z"/>
	<polygon class="st0" points="169.9,67.5 171.7,67.5 168.9,75.8 167.3,75.8 164.5,67.5 166.3,67.5 168.1,73.8 	"/>
	<path class="st0" d="M181.7,73.8c0.4-0.5,0.6-1.2,0.6-2.2c0-0.9-0.2-1.6-0.6-2.2c-0.4-0.5-0.9-0.8-1.6-0.8c-0.7,0-1.2,0.3-1.6,0.8
		c-0.4,0.5-0.6,1.2-0.6,2.2c0,0.9,0.2,1.7,0.6,2.2c0.4,0.5,0.9,0.8,1.6,0.8C180.7,74.5,181.3,74.3,181.7,73.8L181.7,73.8z M182.7,75
		c-0.6,0.6-1.5,1-2.7,1c-1.2,0-2.1-0.3-2.7-1c-0.8-0.8-1.2-1.9-1.2-3.4c0-1.5,0.4-2.7,1.2-3.4c0.6-0.6,1.5-1,2.7-1
		c1.2,0,2.1,0.3,2.7,1c0.8,0.8,1.2,1.9,1.2,3.4C184,73.1,183.6,74.2,182.7,75L182.7,75z"/>
	<path class="st0" d="M190.7,68.9v2.2h1.8c0.4,0,0.6,0,0.8-0.1c0.3-0.2,0.5-0.5,0.5-0.9c0-0.5-0.2-0.8-0.5-1
		c-0.2-0.1-0.4-0.1-0.8-0.1H190.7z M194.3,67.7c0.3,0.1,0.6,0.3,0.8,0.6c0.2,0.2,0.3,0.4,0.4,0.7c0.1,0.3,0.2,0.5,0.2,0.9
		c0,0.4-0.1,0.8-0.3,1.2c-0.2,0.4-0.5,0.6-1,0.8c0.4,0.2,0.7,0.4,0.8,0.7c0.2,0.3,0.2,0.7,0.2,1.3v0.6c0,0.4,0,0.6,0,0.8
		c0,0.2,0.2,0.4,0.3,0.5v0.2h-1.9c-0.1-0.2-0.1-0.3-0.1-0.4c0-0.2-0.1-0.5-0.1-0.7l0-0.8c0-0.5-0.1-0.9-0.3-1.1
		c-0.2-0.2-0.5-0.3-1-0.3h-1.7v3.3H189v-8.3h3.9C193.5,67.5,194,67.6,194.3,67.7L194.3,67.7z"/>
	<path class="st0" d="M203.2,72.6h2.1l-1-3.3L203.2,72.6z M203.3,67.5h1.9l2.9,8.3h-1.9l-0.5-1.7h-3l-0.6,1.7h-1.8L203.3,67.5z"/>
	<polygon class="st0" points="218,67.5 218,68.9 215.6,68.9 215.6,75.8 213.8,75.8 213.8,68.9 211.4,68.9 211.4,67.5 	"/>
	<rect x="222.6" y="67.5" class="st0" width="1.7" height="8.3"/>
	<path class="st0" d="M240.7,69.2c-0.2-0.2-0.5-0.3-0.9-0.3h-1.5v2.4h1.5c0.4,0,0.7-0.1,0.9-0.3c0.2-0.2,0.3-0.5,0.3-0.9
		C241,69.7,240.9,69.4,240.7,69.2L240.7,69.2z M242,72.2c-0.5,0.4-1.2,0.6-2.1,0.6h-1.7v3h-1.7v-8.3h3.5c0.8,0,1.5,0.2,1.9,0.6
		c0.5,0.4,0.7,1.1,0.7,2C242.7,71.1,242.5,71.8,242,72.2L242,72.2z"/>
	<polygon class="st0" points="253.9,68.9 249.6,68.9 249.6,70.7 253.6,70.7 253.6,72.1 249.6,72.1 249.6,74.3 254.1,74.3 
		254.1,75.8 247.9,75.8 247.9,67.5 253.9,67.5 	"/>
	<path class="st0" d="M260.9,68.9v2.2h1.9c0.4,0,0.6,0,0.8-0.1c0.3-0.2,0.5-0.5,0.5-0.9c0-0.5-0.2-0.8-0.5-1
		c-0.2-0.1-0.4-0.1-0.8-0.1H260.9z M264.4,67.7c0.3,0.1,0.6,0.3,0.8,0.6c0.2,0.2,0.3,0.4,0.4,0.7c0.1,0.3,0.2,0.5,0.2,0.9
		c0,0.4-0.1,0.8-0.3,1.2c-0.2,0.4-0.5,0.6-1,0.8c0.4,0.2,0.6,0.4,0.8,0.7c0.2,0.3,0.2,0.7,0.2,1.3v0.6c0,0.4,0,0.6,0,0.8
		c0,0.2,0.2,0.4,0.3,0.5v0.2H264c-0.1-0.2-0.1-0.3-0.1-0.4c0-0.2-0.1-0.5-0.1-0.7l0-0.8c0-0.5-0.1-0.9-0.3-1.1
		c-0.2-0.2-0.5-0.3-1-0.3h-1.7v3.3h-1.7v-8.3h3.9C263.7,67.5,264.1,67.6,264.4,67.7L264.4,67.7z"/>
	<path class="st0" d="M283.4,67.5h2.5v8.3h-1.6v-5.6c0-0.2,0-0.4,0-0.7c0-0.3,0-0.5,0-0.7l-1.6,7h-1.7l-1.5-7c0,0.2,0,0.4,0,0.7
		c0,0.3,0,0.5,0,0.7v5.6H278v-8.3h2.5L282,74L283.4,67.5z"/>
	<path class="st0" d="M296.5,73.8c0.4-0.5,0.6-1.2,0.6-2.2c0-0.9-0.2-1.6-0.6-2.2c-0.4-0.5-0.9-0.8-1.6-0.8c-0.7,0-1.2,0.3-1.6,0.8
		c-0.4,0.5-0.6,1.2-0.6,2.2c0,0.9,0.2,1.7,0.6,2.2c0.4,0.5,1,0.8,1.6,0.8C295.5,74.5,296.1,74.3,296.5,73.8L296.5,73.8z M297.5,75
		c-0.6,0.6-1.5,1-2.7,1s-2.1-0.3-2.7-1c-0.8-0.8-1.3-1.9-1.3-3.4c0-1.5,0.4-2.7,1.3-3.4c0.6-0.6,1.5-1,2.7-1s2.1,0.3,2.7,1
		c0.8,0.8,1.2,1.9,1.2,3.4C298.8,73.1,298.4,74.2,297.5,75L297.5,75z"/>
	<path class="st0" d="M305.5,72.1v2.2h2c0.4,0,0.6,0,0.8-0.1c0.4-0.2,0.5-0.5,0.5-1c0-0.4-0.2-0.7-0.5-0.9c-0.2-0.1-0.5-0.1-0.8-0.1
		H305.5z M305.5,68.9v1.8h2c0.4,0,0.7-0.1,0.9-0.2c0.2-0.1,0.3-0.4,0.3-0.7c0-0.4-0.2-0.6-0.4-0.8c-0.3-0.1-0.6-0.1-1-0.1H305.5z
		 M309.9,68.4c0.3,0.4,0.4,0.8,0.4,1.3c0,0.5-0.1,0.9-0.4,1.2c-0.1,0.2-0.3,0.3-0.6,0.5c0.4,0.2,0.7,0.4,1,0.7
		c0.2,0.3,0.3,0.7,0.3,1.2c0,0.5-0.1,0.9-0.4,1.3c-0.2,0.3-0.4,0.5-0.6,0.7c-0.3,0.2-0.6,0.3-0.9,0.4c-0.4,0.1-0.7,0.1-1.2,0.1h-3.7
		v-8.3h4C308.8,67.5,309.5,67.8,309.9,68.4L309.9,68.4z"/>
	<rect x="315.6" y="67.5" class="st0" width="1.7" height="8.3"/>
	<polygon class="st0" points="322.6,67.5 324.3,67.5 324.3,74.3 328.5,74.3 328.5,75.8 322.6,75.8 	"/>
	<rect x="333.2" y="67.5" class="st0" width="1.7" height="8.3"/>
</g>
</svg>
