<svg id="Livello_1" data-name="Livello 1" xmlns="http://www.w3.org/2000/svg" viewBox="0 0 283.46 72.18"><defs><style>.cls-1{fill:#0096d7;}.cls-1,.cls-2{fill-rule:evenodd;}.cls-2{fill:#fff;}</style></defs><title>Tavola disegno 2</title><path class="cls-1" d="M261,55.05l.4,10.38-.76.3a37.24,37.24,0,0,1-13.55,2.16c-6.55,0-13.21-1.35-17.93-5.86l.58,5H215.52l-.1-1c-1.14-11-2-22.14-2.5-33.24-5.5,11.27-11,22.51-16.86,33.63l-.33.63H173.64l.24-1.32q2.07-11.3,4.24-22.58c.38-2,.76-3.93,1.16-5.89-1,1.76-1.93,3.52-2.87,5.25-4.26,7.77-8.64,15.5-13,23.21l-.33.59H152.72l-.08-1q-.58-7.94-1.12-15.88c-.18-2.76-.38-5.54-.48-8.3,0-.95-.06-1.9-.08-2.86q-1.44,5.52-3,11L143,67H121.71l-.1-1c-1.14-11-2-22.14-2.49-33.24C113.61,44,108.07,55.27,102.25,66.39l-.33.63H60.58L71.26,19.57H84.59L76.38,56H94l20.3-36.47h16.13l3.94,34,9.91-33.95h16.77l.09,1c.42,4.67.84,9.34,1.22,14,.21,2.47.43,5,.54,7.44.07,1.68.1,3.36.1,5,1.87-3.88,3.82-7.77,5.95-11.48l9.24-16h16.59L189,54l19.14-34.38h16.13l2,17.2a27.84,27.84,0,0,1,8.78-11A33.9,33.9,0,0,1,256.09,19c4,0,8.93.37,12.52,2.21l.95.49L265,31.87l-1.11-.49a21.48,21.48,0,0,0-8.76-1.7,17.59,17.59,0,0,0-11.33,3.69,16,16,0,0,0-5.75,10.24c-.59,3.44-.35,7.1,2.1,9.86s6.27,3.58,10,3.58a28.51,28.51,0,0,0,9.36-1.47l1.53-.53ZM32.58,7A32.47,32.47,0,0,0,9.34,16.77,32.49,32.49,0,0,1,26.44,7.6a12.25,12.25,0,0,1-20.31,13,32.13,32.13,0,0,1,3.2-3.78A32.57,32.57,0,1,0,32.58,7ZM274.64,29.69V23.17a13.09,13.09,0,0,1,2.05-.14,3.63,3.63,0,0,1,2.15.49,1.66,1.66,0,0,1,.66,1.42,1.64,1.64,0,0,1-.33,1,1.79,1.79,0,0,1-.86.62v0a1.65,1.65,0,0,1,.89,1.22c.34,1.18.52,1.8.55,1.88h-1.54a7,7,0,0,1-.47-1.54,1.74,1.74,0,0,0-.38-.82,1,1,0,0,0-.75-.24h-.47v2.6Zm1.5-5.5V26h.63a1.42,1.42,0,0,0,.89-.25.86.86,0,0,0,.33-.7.81.81,0,0,0-.3-.67,1.28,1.28,0,0,0-.84-.24,3.46,3.46,0,0,0-.71.05Zm.73-4.4A6.58,6.58,0,0,0,272.21,31h0a6.59,6.59,0,0,0,9.32,0h0a6.59,6.59,0,0,0,0-9.32h0a6.53,6.53,0,0,0-4.66-1.93Zm3.49,3.1a4.94,4.94,0,0,0-7,7h0a4.94,4.94,0,0,0,7-7Z"/><path class="cls-2" d="M34.22,51.05,30.63,67H17.43L28,20.23l.82-.11a115.54,115.54,0,0,1,15.44-.95c5,0,11.55.64,15.1,4.39,3,3.18,3.63,7.08,2.7,11.19A18.85,18.85,0,0,1,53.53,47c-4.88,3.1-10.64,4.2-16.43,4.2a27.78,27.78,0,0,1-2.88-.15Zm4.86-21.61L36.51,40.89c.79.07,1.66.07,2.31.07a12.3,12.3,0,0,0,6.78-1.75,7.25,7.25,0,0,0,3.28-4.67A3.78,3.78,0,0,0,48,30.7c-1.3-1.19-3.51-1.43-5.22-1.43A28.14,28.14,0,0,0,39.08,29.44Z"/><path class="cls-1" d="M15.11,24.49A12.25,12.25,0,1,0,2.86,12.25,12.27,12.27,0,0,0,15.11,24.49Z"/><path class="cls-2" d="M6.13,20.57a32.63,32.63,0,0,1,20.31-13,12.25,12.25,0,0,1-20.31,13Z"/></svg>