<svg xmlns="http://www.w3.org/2000/svg" xmlns:xlink="http://www.w3.org/1999/xlink" width="265.8" height="265.9" viewBox="0 0 265.8 265.9">
  <defs>
    <clipPath id="clip-path">
      <path id="Path_199" data-name="Path 199" d="M219.6,155.8,127,220l-.1,34.1H-5.9V-11.8H259.9V155.8Z" transform="translate(-28.1 -22.2)"/>
    </clipPath>
    <linearGradient id="linear-gradient" x1="0.503" y1="0.507" x2="0.391" y2="0.274" gradientUnits="objectBoundingBox">
      <stop offset="0" stop-color="#6f6f6e"/>
      <stop offset="0.227" stop-color="#9c9b9b"/>
      <stop offset="0.957" stop-color="#fff"/>
      <stop offset="1" stop-color="#fbfbfb"/>
    </linearGradient>
    <linearGradient id="linear-gradient-2" x1="-0.041" y1="1.365" x2="0.858" y2="-0.095" gradientUnits="objectBoundingBox">
      <stop offset="0" stop-color="#292827"/>
      <stop offset="0.19" stop-color="#2c2c2b"/>
      <stop offset="0.375" stop-color="#383837"/>
      <stop offset="0.559" stop-color="#4c4c4b"/>
      <stop offset="0.742" stop-color="#676766"/>
      <stop offset="0.923" stop-color="#8a8a8a"/>
      <stop offset="1" stop-color="#9c9b9b"/>
    </linearGradient>
  </defs>
  <g id="polifilm_logo" transform="translate(5.9 11.8)">
    <g id="Group_945" data-name="Group 945" transform="translate(28.1 22.2)" clip-path="url(#clip-path)">
      <circle id="Ellipse_8" data-name="Ellipse 8" cx="98.9" cy="98.9" r="98.9" fill="#222221"/>
    </g>
    <path id="Path_200" data-name="Path 200" d="M126.9,220h.1l92.6-64.2h-.1A98.847,98.847,0,0,0,126.9,220Z" fill="url(#linear-gradient)"/>
    <path id="Path_201" data-name="Path 201" d="M137,127.1c49.7-16.1,74.7-50.5,76.8-53.5A98.934,98.934,0,0,0,28.1,121.1a95.8,95.8,0,0,0,.8,12.1C30.2,133.5,85.7,143.7,137,127.1Z" fill="url(#linear-gradient-2)"/>
    <g id="Group_946" data-name="Group 946">
      <path id="Path_202" data-name="Path 202" d="M199,128.9h-.1l-9.2-13.5v20.5h-2.8V110.6h2.9l9.2,13.8,9.2-13.8h2.9v25.3h-2.9V115.4Z" fill="#fff"/>
      <path id="Path_203" data-name="Path 203" d="M165.2,110.6h2.9v22.7h14.2v2.6H165.2Z" fill="#fff"/>
      <path id="Path_204" data-name="Path 204" d="M159.2,110.6v25.3h-2.9V110.6Z" fill="#fff"/>
      <path id="Path_205" data-name="Path 205" d="M151.3,113.2H136v9h13.7v2.6H136v11h-2.9V110.5h18.2Z" fill="#fff"/>
      <path id="Path_206" data-name="Path 206" d="M121.3,135.9V110.6h5.6v25.3Z" fill="#fff"/>
      <path id="Path_207" data-name="Path 207" d="M98.1,135.9V110.6h5.6v20.2h12.6v5.1Z" fill="#fff"/>
      <path id="Path_208" data-name="Path 208" d="M80.1,136.3c-7.8,0-13.4-5.8-13.4-13v-.1a13.112,13.112,0,0,1,13.5-13.1c7.8,0,13.4,5.8,13.4,13v.1A13.173,13.173,0,0,1,80.1,136.3Zm7.6-13.1a7.77,7.77,0,0,0-7.7-8c-4.5,0-7.6,3.5-7.6,7.9v.1a7.685,7.685,0,0,0,7.7,7.9C84.6,131.2,87.7,127.6,87.7,123.2Z" fill="#fff"/>
      <path id="Path_209" data-name="Path 209" d="M53,128.3H48.8v7.6H43.2V110.6H53.5c6,0,9.7,3.6,9.7,8.7v.1C63.2,125.2,58.7,128.3,53,128.3Zm4.6-8.9c0-2.5-1.7-3.8-4.5-3.8H48.8v7.7h4.4c2.7,0,4.4-1.6,4.4-3.9Z" fill="#fff"/>
    </g>
  </g>
</svg>
