<svg id="Livello_1" data-name="Livello 1" xmlns="http://www.w3.org/2000/svg" width="80.33mm" height="29.55mm" viewBox="0 0 227.72 83.75"><defs><style>.cls-1{fill:#8ec549;}.cls-2{fill:#231f20;}</style></defs><title>logo</title><path class="cls-1" d="M37.44,16H.95V44.34c0,6.19-.09,28.36,36.5,28.36h36.5V44.34C73.94,38.31,73.89,16,37.44,16Z"/><path class="cls-2" d="M74.08,66V83.4h22.4c22.45,0,22.39-13.61,22.39-17.4V48.6H96.47C74.11,48.6,74.08,62.3,74.08,66Z"/><path class="cls-2" d="M94.1,17.32a9.84,9.84,0,0,1,5.3,1.2q1.77,1.17,1.77,5a6.53,6.53,0,0,1-.83,3.83q-.83,1.08-3.61,1.49a7.14,7.14,0,0,1,2.94.92,3,3,0,0,1,1.13,2.77v5.63h-2.5V33.56q0-2.38-1-3.08a6.19,6.19,0,0,0-3.36-.7H79.65v8.41H77.12V17.32Zm-.47,10.32a6.52,6.52,0,0,0,3.78-.78q1.13-.81,1.13-3.47t-1.28-3.27a8.47,8.47,0,0,0-3.69-.64H79.65v8.16Z"/><path class="cls-2" d="M109.65,33.49,107,38.19h-3l12.32-20.86h3.38l12.42,20.86h-2.91l-2.72-4.69ZM118,19.17,110.83,31.4h14.48Z"/><path class="cls-2" d="M151.71,17.32q3.35,0,4.77,1.28t1.42,4.69c0,.33,0,.7,0,1.09s-.05.79-.09,1.19a10.28,10.28,0,0,1-.39,1.74,3.32,3.32,0,0,1-.8,1.36,3.83,3.83,0,0,1-1.6,1,9.35,9.35,0,0,1-1.88.38l-.8,0-.77,0H137v8.13h-2.53V17.32ZM150,27.93a8.31,8.31,0,0,0,4.08-.67q1.17-.7,1.17-3.83a4.58,4.58,0,0,0-.8-3,3.94,3.94,0,0,0-3-.91H137v8.45Z"/><path class="cls-2" d="M164.82,17.32V38.19h-2.53V17.32Z"/><path class="cls-2" d="M188.09,17.32q5.41,0,6.85,2.63t1.44,7.51q0,.84,0,1.85a17.12,17.12,0,0,1-.19,2,14.9,14.9,0,0,1-.64,2.83,5.9,5.9,0,0,1-1.33,2.27,5,5,0,0,1-2.2,1.3,11.4,11.4,0,0,1-2.58.42q-.56,0-1.09,0H170.67V17.32Zm-.81,18.77q4.79,0,5.63-2.3a19,19,0,0,0,.84-6.3,15.46,15.46,0,0,0-.91-5.93q-.91-2.11-5.32-2.11H173.2V36.09Z"/><path class="cls-2" d="M203.67,33.49,201,38.19h-3l12.32-20.86h3.38l12.42,20.86h-2.91l-2.72-4.69Zm8.38-14.33L204.86,31.4h14.48Z"/><path class="cls-1" d="M133.11,48.69a4,4,0,0,1,2.58.69,3.3,3.3,0,0,1,.77,2.54q0,.27,0,.59t-.05.64a5.56,5.56,0,0,1-.21.94,1.8,1.8,0,0,1-.43.74,2.07,2.07,0,0,1-.86.52,5.09,5.09,0,0,1-1,.2h-8.75V60h-1.37V48.69Zm-.91,5.73a4.49,4.49,0,0,0,2.21-.36q.63-.38.63-2.07a2.48,2.48,0,0,0-.43-1.64,2.13,2.13,0,0,0-1.63-.49h-7.85v4.57Z"/><path class="cls-1" d="M139.2,57.44,137.76,60h-1.61l6.67-11.28h1.83L151.36,60h-1.57l-1.47-2.54Zm4.53-7.75-3.89,6.61h7.83Z"/><path class="cls-1" d="M154,60h-1.37V48.69h2.28l10.4,10.2V48.69h1.37V60H164.4L154,49.73Z"/><path class="cls-1" d="M171.17,60H169.8V48.69h2.28l10.4,10.2V48.69h1.37V60H181.6L171.17,49.73Z"/><path class="cls-1" d="M188.37,53.56h9.46V54.7h-9.46v4.14h9.93V60H187V48.69h11.18v1.15h-9.81Z"/><path class="cls-1" d="M211.29,58.84V60H201V48.69h1.37V58.84Z"/><path class="cls-1" d="M223.49,58.84V60H213.2V48.69h1.37V58.84Z"/><path class="cls-1" d="M226.77,48.69V60H225.4V48.69Z"/><path class="cls-2" d="M67.61,8.37c-3.84-5.32-11-8-21.24-8H22V19.47c0,2,0,6.84,3.09,11.11,3.82,5.28,11,8,21.25,8H70.72V19.44A18.33,18.33,0,0,0,67.61,8.37Zm-44-6.44H46.37c15.1,0,22.76,5.89,22.76,17.51v16c0,.66,0,1.15,0,1.52H46.37c-9.74,0-16.46-2.46-20-7.3-2.79-3.86-2.79-8.31-2.79-10.22Z"/><path class="cls-2" d="M216.23,64.51h-1.34a.8.8,0,0,1-.34-.08c-.09,0-.13-.15-.13-.31v0a.6.6,0,0,1,0-.17.21.21,0,0,1,.12-.12l.2-.06.25,0h.87l.26,0a.63.63,0,0,1,.2.05.2.2,0,0,1,.1.1.45.45,0,0,1,0,.14s0,0,0,.06,0,0,0,.05h.29a.58.58,0,0,0-.6-.66l-.18,0h-1l-.29,0-.24.06a.48.48,0,0,0-.3.26,1,1,0,0,0-.07.4.46.46,0,0,0,.2.44,1.16,1.16,0,0,0,.51.13H216a1.07,1.07,0,0,1,.39.06q.14.06.14.34a.39.39,0,0,1-.1.3.53.53,0,0,1-.3.11l-.23,0h-.87l-.24,0-.2,0c-.1,0-.17-.08-.18-.15a1.08,1.08,0,0,1,0-.24h0V65.1h-.29a.93.93,0,0,0,.11.53.71.71,0,0,0,.5.21l.18,0H216l.31,0a.89.89,0,0,0,.26-.07.46.46,0,0,0,.26-.24,1,1,0,0,0,.06-.36.63.63,0,0,0-.15-.48A.84.84,0,0,0,216.23,64.51Z"/><polygon class="cls-2" points="216.8 64.1 216.8 64.1 216.8 64.1 216.8 64.1"/><rect class="cls-2" x="217.61" y="65.46" width="0.36" height="0.4"/><path class="cls-2" d="M221.6,64.15q0-.45-.2-.58a1.14,1.14,0,0,0-.62-.14h-2v2.42h.29v-1h1.65a.72.72,0,0,1,.39.08c.08.05.12.17.12.36v.54h.29V65.2a.35.35,0,0,0-.13-.32.83.83,0,0,0-.34-.11.64.64,0,0,0,.42-.17A.76.76,0,0,0,221.6,64.15Zm-.44.38a.76.76,0,0,1-.44.09H219.1v-.95h1.62a1,1,0,0,1,.43.07q.15.08.15.38A.48.48,0,0,1,221.16,64.54Z"/><rect class="cls-2" x="222.35" y="65.46" width="0.36" height="0.4"/><polygon class="cls-2" points="223.84 63.43 223.55 63.43 223.55 65.85 225.76 65.85 225.76 65.61 223.84 65.61 223.84 63.43"/><rect class="cls-2" x="226.34" y="65.46" width="0.36" height="0.4"/></svg>