<?xml version="1.0" encoding="UTF-8"?>
<svg xmlns="http://www.w3.org/2000/svg" xmlns:xlink="http://www.w3.org/1999/xlink" id="Raggruppa_30575" data-name="Raggruppa 30575" width="400" height="86.344" viewBox="0 0 400 86.344">
  <defs>
    <clipPath id="clip-path">
      <rect id="Rettangolo_12" data-name="Rettangolo 12" width="400" height="86.344" fill="none"></rect>
    </clipPath>
  </defs>
  <g id="Raggruppa_1" data-name="Raggruppa 1" clip-path="url(#clip-path)">
    <path id="Tracciato_1" data-name="Tracciato 1" d="M40.943,0A40.944,40.944,0,1,0,81.887,40.945,40.943,40.943,0,0,0,40.943,0m-.08,54.347A13.484,13.484,0,1,1,54.348,40.865,13.483,13.483,0,0,1,40.864,54.348" transform="translate(0 0)" fill="#0b2e5e"></path>
    <path id="Tracciato_2" data-name="Tracciato 2" d="M37,95.826V49.919l.009-.521a14.255,14.255,0,0,1,14-12.486,14.053,14.053,0,1,1-9.807,24.1V61.3A14.257,14.257,0,1,0,36.79,49.958l-.016,45.868h-4.2l.018-45.938A18.466,18.466,0,1,1,51.013,69.442a18.2,18.2,0,0,1-9.807-2.855v.458a18.854,18.854,0,1,0-9.013-17.1l-.017,45.877h-4.2l.018-45.932A23.133,23.133,0,1,1,41.206,71.816v.491a23.2,23.2,0,0,0,9.807,2.156A23.5,23.5,0,1,0,27.54,49.943V95.826h-4.2V51.616c-.005-.2,0-1.708,0-1.726A27.734,27.734,0,1,1,41.206,76.861V95.826Zm14.01-54.712A9.873,9.873,0,0,0,41.2,50.143v1.649a9.847,9.847,0,1,0,9.809-10.678" transform="translate(-10.08 -10.05)" fill="#e04c1c"></path>
    <path id="Tracciato_3" data-name="Tracciato 3" d="M50.581,23.4a27.134,27.134,0,0,1,0,54.267A26.822,26.822,0,0,1,40.206,75.59V94.826H37.139V49.487l.009-.511A13.5,13.5,0,1,1,50.581,64.018a13.411,13.411,0,0,1-10.375-4.9V61.1a14.711,14.711,0,0,0,10.375,4.271A14.843,14.843,0,1,0,35.791,49.488l-.017,44.827v.511H32.707v-.511l.018-44.858A17.9,17.9,0,1,1,50.581,68.442a17.605,17.605,0,0,1-10.375-3.358v1.843a19.421,19.421,0,1,0-9.012-17.439l-.018,44.827v.511H28.109v-.511l.018-44.852a22.567,22.567,0,1,1,12.078,21v1.768A23.761,23.761,0,0,0,50.581,74.6,24.067,24.067,0,1,0,26.54,49.487l0,44.827v.511H23.471V51.184c-.005-.216,0-1.7,0-1.716A27.045,27.045,0,0,1,50.581,23.4m0,37.552A10.418,10.418,0,1,0,40.206,49.666l0,1.694a10.463,10.463,0,0,0,10.377,9.591m0-38.688a28.178,28.178,0,0,0-28.243,27.16c0,.082-.007,1.563,0,1.787V95.962H41.342V77.241A27.952,27.952,0,0,0,50.581,78.8a28.27,28.27,0,0,0,0-56.539m-9.239,27.45a9.292,9.292,0,1,1,0,1.6Z" transform="translate(-9.648 -9.618)" fill="#fff"></path>
    <path id="Tracciato_4" data-name="Tracciato 4" d="M173.313,19.575a21.859,21.859,0,0,1,16.432,39.959Q196.8,66.626,203.872,73.7a4.532,4.532,0,0,0,3.061,1.309q56.219.016,112.442.009c.036-11.18.005-22.36.016-33.541a21.823,21.823,0,1,1,43.314,3.013,21.846,21.846,0,0,1-14.033,16.763,22.46,22.46,0,0,1-9.883,1.193,6.557,6.557,0,0,1-4.655-3.407,20.246,20.246,0,0,0,15.564-.7,19.585,19.585,0,1,0-27.853-20.77,29.925,29.925,0,0,0-.233,5.173q-.005,16.644,0,33.288a.951.951,0,0,1-1.089.984q-57.783,0-115.566,0a2.446,2.446,0,0,1-1.689-.73q-8.724-8.742-17.434-17.5a21.21,21.21,0,0,0,8.733-6.953,18.487,18.487,0,0,0,3.574-10.878,19.59,19.59,0,0,0-15.529-19.255,19.757,19.757,0,0,0-22.675,12.652,20.457,20.457,0,0,0-1.148,6.957q0,13.239,0,26.474c0,.83.023,1.66-.025,2.49a5.225,5.225,0,0,1-2.143-3.916q-.005-12.978,0-25.956a21.66,21.66,0,0,1,3.966-12.153,21.9,21.9,0,0,1,12.733-8.667" transform="translate(-67.658 -8.196)" fill="#e04c1c"></path>
    <path id="Tracciato_5" data-name="Tracciato 5" d="M335.928,27.006a18.2,18.2,0,1,1,13.1,33.823,18.671,18.671,0,0,1-12.8-.893,11.082,11.082,0,0,1-.007-2.175,16.68,16.68,0,0,0,8.835,1.745,16.169,16.169,0,1,0-6.037-31.578,15.877,15.877,0,0,0-7.663,5.218,16.26,16.26,0,0,0-3.571,9.935q0,18.515,0,37.027a3.111,3.111,0,0,1-.32,1.914,1.839,1.839,0,0,1-1.743.725q-59.656,0-119.31,0A2.534,2.534,0,0,1,204.523,82q-10.636-10.384-21.24-20.8a13.643,13.643,0,0,1-1.589-1.658,16.155,16.155,0,0,0,15.341-13.965,16.322,16.322,0,0,0-2.592-11.268,15.983,15.983,0,0,0-7.832-6.139,16.16,16.16,0,0,0-21.3,12.036,28.761,28.761,0,0,0-.313,5.923c-.013,9.357.025,18.714-.02,28.07a7.8,7.8,0,0,1-2.093-.48c.022-10.1,0-20.192.012-30.288a18.1,18.1,0,0,1,4.515-11.815,18.459,18.459,0,0,1,10.923-6.061,18.268,18.268,0,0,1,20.3,12.5,17.571,17.571,0,0,1,.066,10.57,18.6,18.6,0,0,1-7.955,10.1,23.954,23.954,0,0,1-4.706,2.2c6.409,6.361,12.729,12.813,19.13,19.185a3.89,3.89,0,0,0,2.683.966q57.772-.008,115.545,0a2.269,2.269,0,0,0,2.286-2.392q.009-17.71,0-35.422a18.158,18.158,0,0,1,2.6-9.252,18.366,18.366,0,0,1,7.642-7" transform="translate(-70.365 -10.875)" fill="#e04c1c"></path>
    <path id="Tracciato_6" data-name="Tracciato 6" d="M173.28,35.658a14.626,14.626,0,0,1,10.561-4.417,14.336,14.336,0,0,1,8.427,2.671,14.74,14.74,0,0,1,5.492,7.554,14.836,14.836,0,0,1-13.384,19.328c-.7-.012-1.558.4-1.567,1.188-.07.861.713,1.395,1.245,1.941,7.247,7.062,14.45,14.171,21.695,21.237a4.277,4.277,0,0,0,3.331,1.6H328.569a3.108,3.108,0,0,0,2.841-1.536,4.849,4.849,0,0,0,.433-2.669q-.005-17.71,0-35.42a19.783,19.783,0,0,1,.152-3.367,14.887,14.887,0,0,1,3.76-7.891,14.47,14.47,0,0,1,8.007-4.408,14.784,14.784,0,1,1-4.442,27.54,5.59,5.59,0,0,1,1.109-1.83,12.757,12.757,0,0,0,8.347,1.265,12.649,12.649,0,0,0,.4-24.771,12.74,12.74,0,0,0-7.994.828,12.593,12.593,0,0,0-7.021,8.8,23.02,23.02,0,0,0-.292,5.084q0,18.345,0,36.687a3.58,3.58,0,0,1-1.561,3,3.8,3.8,0,0,1-2.125.584q-61,.025-121.989.041a5.074,5.074,0,0,1-3.54-1.7Q193.233,75.863,181.8,64.749c-.707-.736-1.631-1.383-1.858-2.444a2.976,2.976,0,0,1,2.263-3.57c.964-.143,1.95-.012,2.917-.154a12.657,12.657,0,1,0-14.089-12.706c.007,10.109-.018,20.216.012,30.324a6.714,6.714,0,0,1-1.98.583c-.056-9.461-.007-18.923-.023-28.387a40.017,40.017,0,0,1,.107-4.218,14.727,14.727,0,0,1,4.134-8.52" transform="translate(-73.023 -13.492)" fill="#e04c1c"></path>
    <path id="Tracciato_7" data-name="Tracciato 7" d="M178.326,40.652a11.261,11.261,0,0,1,16.985,14.674,11.332,11.332,0,0,1-7.281,4.481,28.879,28.879,0,0,1-3.071.172,4.326,4.326,0,0,0-2.6,7.448Q194.416,79.158,206.47,90.89a6.219,6.219,0,0,0,4.25,1.853c4.295.062,8.588-.075,12.883-.037q54.743.005,109.486-.027a4.783,4.783,0,0,0,4.257-2.828,6.14,6.14,0,0,0,.457-2.841q-.009-18.605,0-37.211a16.711,16.711,0,0,1,.136-2.871,11.262,11.262,0,0,1,4.536-7.432,11.225,11.225,0,0,1,14.406,1.184,11.26,11.26,0,0,1-4.655,18.781,11.354,11.354,0,0,1-8.087-.583c1.338-1.148,3.192-1.2,4.864-1.242a9.1,9.1,0,0,0,7.322-3.733,9.095,9.095,0,0,0-2.152-12.833,9.22,9.22,0,0,0-14.445,7.29q-.011,20.494-.005,40.985a5.4,5.4,0,0,1-3.476,4.725,6.846,6.846,0,0,1-2.8.553q-61.8,0-123.607,0a5.677,5.677,0,0,1-4.3-1.893q-11.691-11.291-23.385-22.577a14.183,14.183,0,0,1-2.721-3,6.367,6.367,0,0,1,4.839-9.411c.855-.066,1.711-.1,2.568-.129a9.1,9.1,0,1,0-3.019-17.861,9.226,9.226,0,0,0-6.846,8.44c-.014,8.647,0,17.294-.009,25.941a4.535,4.535,0,0,1-2.02,3.8c.032-8.127-.039-16.257.025-24.382-.075-1.905-.028-3.814.023-5.719a11.058,11.058,0,0,1,3.342-7.184" transform="translate(-75.567 -16.162)" fill="#e04c1c"></path>
    <path id="Tracciato_8" data-name="Tracciato 8" d="M692.074,39.433a4.343,4.343,0,1,1-1.66,7.4,4.352,4.352,0,0,1,1.66-7.4m.168.726a3.59,3.59,0,1,0,4.084,1.452,3.615,3.615,0,0,0-4.084-1.452" transform="translate(-297.64 -16.954)" fill="#e04c1c"></path>
    <path id="Tracciato_9" data-name="Tracciato 9" d="M693.232,42.895a17.894,17.894,0,0,1,2.742.089,1.24,1.24,0,0,1,.553,2.033,1.93,1.93,0,0,1-.864.465,8.08,8.08,0,0,1,1.527,2.057l-.923.034a16.657,16.657,0,0,0-1.113-1.726c-.288-.329-.766-.232-1.145-.274-.029.658-.026,1.317-.026,1.974-.257,0-.509,0-.758,0,0-1.551-.011-3.1.006-4.655m.8.632a7.356,7.356,0,0,0-.012,1.388,3.633,3.633,0,0,0,1.8-.213.621.621,0,0,0-.2-1.084,6.943,6.943,0,0,0-1.589-.091" transform="translate(-299.475 -18.527)" fill="#e04c1c"></path>
    <path id="Tracciato_10" data-name="Tracciato 10" d="M250.439,44.056a17.76,17.76,0,1,1-11.2,4.647,17.76,17.76,0,0,1,11.2-4.647m-.086,10.6a7.188,7.188,0,1,0,5.282,1.463,7.175,7.175,0,0,0-5.282-1.463" transform="translate(-100.862 -19.025)" fill="#0b2e5e"></path>
    <path id="Tracciato_11" data-name="Tracciato 11" d="M354.077,44.059a17.761,17.761,0,1,1-9.089,3.013,17.777,17.777,0,0,1,9.089-3.013m-.554,10.679a7.189,7.189,0,1,0,4.663.658,7.222,7.222,0,0,0-4.663-.658" transform="translate(-145.657 -19.025)" fill="#0b2e5e"></path>
    <path id="Tracciato_12" data-name="Tracciato 12" d="M611.149,46.722a5.142,5.142,0,0,1,4.215-2.49,5.131,5.131,0,0,1,5.32,5.678A10.146,10.146,0,0,1,619.7,52.8q-4.961,11.575-9.921,23.151a5.614,5.614,0,0,1-1.276,2.143,4.958,4.958,0,0,1-6.93-.109,7.214,7.214,0,0,1-1.337-2.423q-4.854-11.314-9.708-22.63a8.552,8.552,0,0,1-1.068-3.578,5.152,5.152,0,0,1,8.964-3.438,9.764,9.764,0,0,1,1.579,3.055q2.557,6.277,5.114,12.554,2.506-6.2,5-12.416a22.562,22.562,0,0,1,1.03-2.383" transform="translate(-254.649 -19.105)" fill="#0b2e5e"></path>
    <path id="Tracciato_13" data-name="Tracciato 13" d="M293.335,48.714a4.634,4.634,0,0,1,4.492-4.309q8.68-.021,17.36,0a4.609,4.609,0,0,1,.345,9.189c-1.3.072-2.6.012-3.9.032q-.009,10.419,0,20.838a5.145,5.145,0,0,1-10.288-.175q0-10.333,0-20.663c-1.406-.037-2.819.082-4.218-.078a4.631,4.631,0,0,1-3.787-4.834" transform="translate(-126.715 -19.178)" fill="#0b2e5e"></path>
    <path id="Tracciato_14" data-name="Tracciato 14" d="M405.459,44.777a5.151,5.151,0,0,1,7.15,3.53,8.352,8.352,0,0,1,.131,1.971V70.132c2.572.039,5.148-.009,7.722.025a4.6,4.6,0,0,1-.07,9.2c-4.334.018-8.669,0-13,.007a4.66,4.66,0,0,1-4.742-3.236,7.533,7.533,0,0,1-.2-2.413V50.462a9.327,9.327,0,0,1,.12-2.147,5.161,5.161,0,0,1,2.891-3.538" transform="translate(-173.857 -19.146)" fill="#0b2e5e"></path>
    <path id="Tracciato_15" data-name="Tracciato 15" d="M527.7,44.475a5.21,5.21,0,0,1,3.919.569,5.133,5.133,0,0,1,2.413,3.442,11.938,11.938,0,0,1,.1,2.157q0,11,0,21.99a10.463,10.463,0,0,1-.256,3.238,5.15,5.15,0,0,1-10.041-1.435q-.008-12.343-.005-24.683a5.186,5.186,0,0,1,3.872-5.277" transform="translate(-226.292 -19.146)" fill="#0b2e5e"></path>
    <path id="Tracciato_16" data-name="Tracciato 16" d="M646.288,48.847a4.6,4.6,0,0,1,4.382-4.512c4.467-.007,8.935,0,13.4,0a4.572,4.572,0,0,1,3.784,2,4.638,4.638,0,0,1,.057,5.109,4.568,4.568,0,0,1-3.846,2.087q-3.747-.005-7.494,0c0,1.223-.006,2.449,0,3.673,2.257.007,4.516-.018,6.774.013a4.6,4.6,0,0,1-.154,9.177c-2.207.016-4.417,0-6.624.007,0,1.251,0,2.5,0,3.752,2.563.012,5.127-.016,7.692.012a4.606,4.606,0,0,1,1.58,8.84,6.559,6.559,0,0,1-2.839.365q-5.275,0-10.548,0a8.93,8.93,0,0,1-3.2-.293,4.614,4.614,0,0,1-2.976-4.286q-.008-12.971,0-25.942" transform="translate(-279.197 -19.151)" fill="#0b2e5e"></path>
    <path id="Tracciato_17" data-name="Tracciato 17" d="M575.857,72.606q-4.87-12.448-9.781-24.881a6.433,6.433,0,0,0-5-3.857,6.515,6.515,0,0,0-6.927,3.76q-4.88,12.372-9.742,24.75a5,5,0,1,0,9.27,3.733c.431-1.133.841-2.274,1.261-3.411,3.433-.006,6.868,0,10.3-.006.512,1.292.909,2.63,1.485,3.894a5,5,0,0,0,9.132-3.983m-13.744-9.282H558.1a.169.169,0,0,1-.158-.227l1.041-2.818.967-2.617a.168.168,0,0,1,.316,0l.967,2.617L562.27,63.1a.168.168,0,0,1-.158.227" transform="translate(-235.028 -18.917)" fill="#0b2e5e"></path>
  </g>
</svg>
