<svg width="278" height="55" viewBox="0 0 278 55" fill="none" xmlns="http://www.w3.org/2000/svg">
<path d="M9.91 20.1101C7.09 20.1101 4.8 19.2901 3.06 17.6401C1.3 16.0001 0.429993 13.7601 0.429993 10.9501C0.429993 7.23006 1.89 4.54007 4.81 2.88007C6.22 2.08007 7.92 1.69006 9.91 1.69006H48.26V8.78006H11.7C9.71 8.78006 8.72 9.54006 8.72 11.0601C8.72 12.5801 9.71 13.3401 11.7 13.3401L40.4 13.3901C43.23 13.3901 45.51 14.2301 47.27 15.8901C49.02 17.5501 49.89 19.7901 49.89 22.6001C49.89 26.3901 48.43 29.0901 45.51 30.6701C44.13 31.4301 42.44 31.8101 40.41 31.8101H0.440002V24.7201L38.64 24.7701C40.63 24.7701 41.62 24.0001 41.62 22.4501C41.62 20.9301 40.63 20.1701 38.64 20.1701L9.91 20.1101Z" fill="#19518E"/>
<path d="M58.82 8.78006V1.69006H94.97C98.53 1.69006 101.38 2.62006 103.47 4.51006C104.76 5.66006 105.65 7.01007 106.12 8.57007C106.45 9.73007 106.61 11.3501 106.61 13.4401V31.8001H66.24C63.28 31.8001 60.95 30.9901 59.26 29.3701C57.56 27.7401 56.7 25.4701 56.7 22.5401C56.7 19.6201 57.56 17.3501 59.28 15.7401C60.99 14.1401 63.32 13.3301 66.23 13.3301H97.55V13.0601C97.55 10.8201 96.72 9.46006 95.06 9.00006C94.54 8.85006 93.77 8.78006 92.73 8.78006H58.82ZM97.56 24.7101V20.1101H68.63C66.72 20.1101 65.76 20.8801 65.76 22.4401C65.76 23.9601 66.72 24.7101 68.63 24.7101H97.56Z" fill="#19518E"/>
<path d="M130.66 31.81C123.73 31.81 119.25 28.99 117.28 23.36C116.52 21.2 116.14 18.91 116.14 16.53V1.58002H126.01V15.61C126.01 17.96 126.72 19.8 128.17 21.13C129.32 22.22 130.98 22.75 133.15 22.75H161.48V31.8H130.66V31.81Z" fill="#19518E"/>
<path d="M216.75 1.69006V9.22006H185.72C183.62 9.22006 182.04 9.98006 180.94 11.5001C180 12.8001 179.53 14.5501 179.53 16.7601C179.53 18.9601 180 20.7001 180.94 22.0101C182.03 23.5201 183.62 24.2901 185.72 24.2901H216.75V31.8201H184.5C179.82 31.8201 176.24 30.4901 173.76 27.8401C171.28 25.1901 170.05 21.4901 170.05 16.7701C170.05 12.0301 171.28 8.34005 173.76 5.68005C176.24 3.03005 179.82 1.70006 184.5 1.70006H216.75V1.69006Z" fill="#19518E"/>
<path d="M237.02 0.660034H266.05C269.15 0.660034 271.8 1.75003 273.99 3.94003C276.18 6.13003 277.27 8.77004 277.27 11.88V20.66C277.27 23.73 276.18 26.36 273.99 28.56C271.8 30.77 269.15 31.87 266.05 31.87H237.02C233.94 31.87 231.31 30.77 229.1 28.56C226.89 26.36 225.79 23.73 225.79 20.66V11.88C225.79 8.78004 226.89 6.13003 229.1 3.94003C231.3 1.75003 233.93 0.660034 237.02 0.660034ZM236.47 9.05003C235.56 9.95003 235.11 11.04 235.11 12.3V19.78C235.11 21.03 235.56 22.13 236.47 23.03C237.37 23.93 238.46 24.39 239.71 24.39H262.9C264.16 24.39 265.25 23.94 266.16 23.03C267.06 22.13 267.51 21.04 267.51 19.78V12.3C267.51 11.04 267.06 9.96003 266.16 9.05003C265.25 8.15003 264.16 7.70003 262.9 7.70003H239.71C238.46 7.70003 237.37 8.15003 236.47 9.05003Z" fill="#19518E"/>
<path d="M0.210022 44.84H4.72002C5.61002 44.84 6.33002 45.08 6.88002 45.56C7.43002 46.04 7.70001 46.72 7.70001 47.59C7.70001 48.34 7.46002 48.99 6.97002 49.54C6.48002 50.09 5.73002 50.37 4.72002 50.37H1.57002V54.42H0.200012V44.84H0.210022ZM5.51001 46.15C5.21001 46.02 4.80001 45.95 4.28001 45.95H1.58002V49.27H4.28001C4.89001 49.27 5.38001 49.15 5.76001 48.9C6.14001 48.65 6.33002 48.21 6.33002 47.59C6.33002 46.88 6.06001 46.41 5.51001 46.15Z" fill="#19518E"/>
<path d="M20.1 44.84H21.65L25.31 54.42H23.81L22.79 51.55H18.8L17.71 54.42H16.31L20.1 44.84ZM22.34 50.49L20.81 46.26L19.18 50.49H22.34Z" fill="#19518E"/>
<path d="M42.42 45.5301C43.12 46.1701 43.5 46.9001 43.58 47.7101H42.25C42.1 47.0901 41.81 46.6001 41.36 46.2401C40.92 45.8801 40.3 45.7001 39.5 45.7001C38.52 45.7001 37.74 46.0301 37.14 46.7001C36.54 47.3601 36.24 48.3801 36.24 49.7501C36.24 50.8701 36.51 51.7801 37.05 52.4801C37.59 53.1801 38.4 53.5301 39.47 53.5301C40.46 53.5301 41.21 53.1601 41.73 52.4301C42 52.0401 42.21 51.5301 42.34 50.9001H43.67C43.55 51.9101 43.16 52.7601 42.5 53.4401C41.71 54.2601 40.64 54.6701 39.29 54.6701C38.13 54.6701 37.16 54.3301 36.37 53.6601C35.33 52.7701 34.81 51.3901 34.81 49.5301C34.81 48.1201 35.2 46.9601 35.98 46.0501C36.82 45.0701 37.98 44.5701 39.46 44.5701C40.75 44.5801 41.73 44.8901 42.42 45.5301Z" fill="#19518E"/>
<path d="M54.19 44.84H55.52V49.53L60.57 44.84H62.48L58.17 48.7L62.57 54.42H60.78L57.16 49.61L55.52 51.08V54.42H54.19V44.84Z" fill="#19518E"/>
<path d="M75.24 44.84H76.79L80.45 54.42H78.95L77.93 51.55H73.94L72.85 54.42H71.45L75.24 44.84ZM77.49 50.49L75.96 46.26L74.33 50.49H77.49Z" fill="#19518E"/>
<path d="M97.15 45.11C98.14 45.61 98.74 46.49 98.96 47.74H97.61C97.45 47.04 97.11 46.53 96.61 46.21C96.1 45.89 95.46 45.73 94.69 45.73C93.78 45.73 93 46.06 92.38 46.73C91.75 47.4 91.44 48.39 91.44 49.71C91.44 50.85 91.7 51.78 92.21 52.49C92.73 53.21 93.57 53.56 94.73 53.56C95.62 53.56 96.36 53.31 96.95 52.81C97.54 52.31 97.84 51.5 97.85 50.37H94.69V49.29H99.12V54.42H98.24L97.91 53.19C97.46 53.67 97.05 54.01 96.7 54.19C96.11 54.51 95.36 54.67 94.45 54.67C93.27 54.67 92.26 54.3 91.42 53.57C90.5 52.65 90.03 51.38 90.03 49.77C90.03 48.17 90.48 46.89 91.38 45.94C92.24 45.04 93.35 44.58 94.71 44.58C95.66 44.59 96.47 44.76 97.15 45.11Z" fill="#19518E"/>
<path d="M111.8 44.84H110.42V54.42H111.8V44.84Z" fill="#19518E"/>
<path d="M122.76 44.84H124.37L129.4 52.58V44.84H130.71V54.42H129.17L124.07 46.69V54.42H122.76V44.84Z" fill="#19518E"/>
<path d="M148.37 45.11C149.36 45.61 149.96 46.49 150.18 47.74H148.83C148.67 47.04 148.33 46.53 147.83 46.21C147.32 45.89 146.68 45.73 145.91 45.73C145 45.73 144.22 46.06 143.6 46.73C142.97 47.4 142.66 48.39 142.66 49.71C142.66 50.85 142.92 51.78 143.43 52.49C143.95 53.21 144.79 53.56 145.95 53.56C146.84 53.56 147.58 53.31 148.17 52.81C148.76 52.31 149.06 51.5 149.07 50.37H145.91V49.29H150.34V54.42H149.46L149.13 53.19C148.68 53.67 148.27 54.01 147.92 54.19C147.33 54.51 146.58 54.67 145.67 54.67C144.49 54.67 143.48 54.3 142.64 53.57C141.72 52.65 141.25 51.38 141.25 49.77C141.25 48.17 141.7 46.89 142.6 45.94C143.46 45.04 144.57 44.58 145.93 44.58C146.89 44.59 147.69 44.76 148.37 45.11Z" fill="#19518E"/>
<path d="M164.33 49.63C164.33 50.05 164.19 50.39 163.9 50.67C163.61 50.94 163.25 51.08 162.81 51.08C162.37 51.08 162.01 50.94 161.72 50.67C161.43 50.4 161.29 50.05 161.29 49.63C161.29 49.21 161.43 48.87 161.72 48.6C162.01 48.33 162.37 48.2 162.81 48.2C163.25 48.2 163.61 48.33 163.9 48.6C164.18 48.87 164.33 49.21 164.33 49.63Z" fill="#19518E"/>
<path d="M174.97 44.84H176.93L179.83 52.94L182.71 44.84H184.65V54.42H183.35V48.76C183.35 48.56 183.36 48.24 183.36 47.79C183.37 47.34 183.37 46.85 183.37 46.34L180.49 54.42H179.14L176.23 46.34V46.63C176.23 46.86 176.24 47.22 176.25 47.7C176.26 48.18 176.27 48.53 176.27 48.76V54.42H174.97V44.84Z" fill="#19518E"/>
<path d="M198.39 44.84H199.94L203.6 54.42H202.1L201.08 51.55H197.09L196 54.42H194.6L198.39 44.84ZM200.64 50.49L199.11 46.26L197.48 50.49H200.64Z" fill="#19518E"/>
<path d="M213.58 44.84H214.92V49.53L219.96 44.84H221.87L217.56 48.7L221.96 54.42H220.18L216.56 49.61L214.92 51.08V54.42H213.58V44.84Z" fill="#19518E"/>
<path d="M231.84 44.84H239.16V46.01H233.17V48.92H238.7V50.03H233.17V53.28H239.26V54.42H231.84V44.84Z" fill="#19518E"/>
<path d="M249.99 44.84H254.58C255.34 44.84 255.96 44.95 256.45 45.16C257.38 45.57 257.85 46.32 257.85 47.42C257.85 47.99 257.72 48.46 257.48 48.83C257.23 49.2 256.88 49.49 256.43 49.71C256.82 49.86 257.12 50.06 257.32 50.31C257.52 50.56 257.63 50.96 257.65 51.52L257.7 52.81C257.71 53.18 257.75 53.45 257.8 53.63C257.88 53.93 258.03 54.13 258.24 54.22V54.44H256.56C256.51 54.36 256.48 54.25 256.45 54.12C256.42 53.99 256.4 53.74 256.38 53.36L256.3 51.76C256.27 51.13 256.03 50.71 255.59 50.5C255.34 50.38 254.94 50.32 254.4 50.32H251.38V54.43H250.01V44.84H249.99ZM254.43 49.23C255.05 49.23 255.55 49.11 255.91 48.86C256.27 48.62 256.45 48.18 256.45 47.54C256.45 46.86 256.2 46.39 255.69 46.14C255.42 46.01 255.05 45.94 254.6 45.94H251.35V49.21H254.43V49.23Z" fill="#19518E"/>
<path d="M269.62 51.33C269.65 51.87 269.78 52.31 270.01 52.65C270.45 53.28 271.22 53.6 272.32 53.6C272.81 53.6 273.26 53.53 273.67 53.39C274.46 53.12 274.85 52.64 274.85 51.94C274.85 51.42 274.68 51.05 274.35 50.82C274.01 50.6 273.49 50.41 272.77 50.25L271.45 49.96C270.58 49.77 269.97 49.56 269.61 49.33C268.99 48.93 268.68 48.33 268.68 47.54C268.68 46.68 268.99 45.97 269.6 45.42C270.21 44.87 271.07 44.59 272.19 44.59C273.22 44.59 274.09 44.83 274.81 45.32C275.53 45.8 275.89 46.58 275.89 47.65H274.61C274.54 47.14 274.4 46.74 274.19 46.47C273.79 45.97 273.11 45.72 272.16 45.72C271.39 45.72 270.83 45.88 270.49 46.2C270.15 46.52 269.98 46.9 269.98 47.32C269.98 47.79 270.18 48.13 270.58 48.35C270.84 48.49 271.43 48.66 272.36 48.87L273.73 49.18C274.39 49.33 274.9 49.53 275.26 49.79C275.88 50.24 276.19 50.89 276.19 51.74C276.19 52.8 275.79 53.56 275 54.02C274.21 54.48 273.29 54.71 272.24 54.71C271.02 54.71 270.06 54.41 269.37 53.8C268.68 53.2 268.34 52.38 268.35 51.34H269.62V51.33Z" fill="#19518E"/>
</svg>
