<svg version="1.1" xmlns="http://www.w3.org/2000/svg" xmlns:xlink="http://www.w3.org/1999/xlink" x="0px" y="0px" width="378.649px" height="96.378px" viewBox="0 0 378.649 96.378" enable-background="new 0 0 378.649 96.378" xml:space="preserve">
<g>
<path d="M250.062,24.558c5.475,0,9.48-3.915,9.48-8.09c0-4.089-4.09-7.911-9.48-7.911
c-5.393,0-9.393,3.737-9.393,7.911C240.669,20.731,244.669,24.558,250.062,24.558"></path>
<path d="M284.701,72.913V26.645c-12.433,1.217-19.48,9.566-19.48,23.221
C265.221,63.433,272.353,71.87,284.701,72.913"></path>
<polygon points="236.987,27.241 218.173,27.241 227.744,55.292 "></polygon>
<rect x="241.449" y="27.425" width="17.308" height="44.703"></rect>
<path d="M358.071,27.063h-5.564c-11.787,0-11.534,12.299-11.534,12.299v5.829h17.099V27.063z"></path>
<path d="M352.372,71.656h5.699V47.377h-5.699c-14.997,0.129-14.57,12.109-14.57,12.109
S337.137,71.656,352.372,71.656"></path>
<path d="M309.14,49.866c0-13.655-7.131-22.004-19.568-23.221v46.268
C301.919,71.78,309.14,63.433,309.14,49.866"></path>
<rect x="314.819" y="9.064" width="17.299" height="62.443"></rect>
<path d="M172.353,27.063h-5.571c-11.782,0-11.534,12.299-11.534,12.299v5.829h17.105V27.063z"></path>
<path d="M80.531,76.75c0,0,5.267-1.546,8.467-13.611c3.409-12.865,0.92-28.449,0.92-28.449
s-9.879,12.234-13.288,25.1c-3.2,12.064,0.596,16.065,0.596,16.065L72.292,94.47H58.671l11.315-42.655
c0,0,5.268-1.541,8.468-13.606c3.409-12.87,0.919-28.448,0.919-28.448s-9.879,12.229-13.288,25.094
c-3.2,12.065,0.596,16.066,0.596,16.066L55.133,94.47H42.104l4.099-15.444c0,0,5.268-1.545,8.468-13.61
c3.409-12.865,0.92-28.449,0.92-28.449s-9.879,12.229-13.289,25.1c-3.2,12.065,0.597,16.065,0.597,16.065L38.566,94.47h-14.53
L37.94,42.055c0,0,5.267-1.546,8.467-13.606C49.821,15.579,47.326,0,47.326,0s-9.878,12.229-13.292,25.095
C30.839,37.16,34.635,41.16,34.635,41.16L20.499,94.47H8.021l9.62-36.271c0,0,5.268-1.545,8.468-13.61
c3.408-12.865,0.919-28.449,0.919-28.449s-9.878,12.234-13.292,25.1c-3.196,12.064,0.596,16.065,0.596,16.065L4.482,94.47H0v1.908
h378.649V94.47H75.83L80.531,76.75z"></path>
<polygon points="221.091,71.632 225.771,58.323 214.76,27.241 196.712,27.241 196.603,27.227 
212.618,71.632 "></polygon>
<polygon points="111.673,71.513 132.102,71.513 111.673,51.009 "></polygon>
<path d="M369.655,27.063h-9.139v44.444h18.133V34.562C378.649,34.562,378.028,27.063,369.655,27.063"></path>
<path d="M131.103,65.46c1.028,0.979,1.883,2.057,1.883,2.057c0.378,0.587,0.601,1.242,0.601,1.943
c0,0.726-0.228,1.406-0.626,2.002c0.453,0.03,0.905,0.051,1.362,0.051c7.777,0,14.078-5.079,14.078-11.336
c0-3.185-1.819-5.729-4.26-8.119l-18.196-18.327c-0.984-0.954-1.7-2.321-1.7-2.321c-0.338-0.655-0.537-1.401-0.537-2.186
c0-0.815,0.205-1.58,0.557-2.246c-0.402-0.039-0.815-0.06-1.222-0.06c-7.022,0-12.711,5.71-12.711,12.752
c0,3.587,1.48,6.827,3.85,9.138L131.103,65.46z"></path>
<polygon points="145.717,26.918 125.294,26.918 145.717,47.421 "></polygon>
<path d="M192.93,34.561c0,0-0.621-7.499-8.999-7.499h-9.139v44.445h18.138V34.561z"></path>
<path d="M166.647,71.656h5.705V47.377h-5.705c-14.997,0.129-14.564,12.109-14.564,12.109
S151.413,71.656,166.647,71.656"></path>
</g>
</svg>