<?xml version="1.0" encoding="utf-8"?>
<!-- Generator: Adobe Illustrator 24.0.1, SVG Export Plug-In . SVG Version: 6.00 Build 0)  -->
<svg version="1.1" id="Livello_1" xmlns="http://www.w3.org/2000/svg" xmlns:xlink="http://www.w3.org/1999/xlink" x="0px" y="0px"
	 width="122px" height="35px" viewBox="0 0 122 35" style="enable-background:new 0 0 122 35;" xml:space="preserve">
<style type="text/css">
	.st0{fill:#99052F;}
</style>
<g>
	<g>
		<path class="st0" d="M67.3,33.9H77V1h-9.7V33.9z M55.7,7.6h9.7V1h-9.7V7.6z M55.7,33.9h9.7V9.5h-9.7V33.9z M40.7,28
			c-2.8,0-4.2-2.4-4.2-6c0-2.9,0.6-6.7,4.2-6.7c1.1,0,1.9,0.4,2.5,0.9c0.6,0.6,0.9,1.5,1.1,2.6H54c-0.7-7.3-6.8-10-13.3-10
			c-8.1,0-14,4.7-14,13.1c0,8.3,6.1,12.7,14,12.7c6.7,0,12.8-2.8,13.6-10.2h-9.8C44.1,26.4,43.1,28,40.7,28z M10.3,15.8
			c0-1.2,1.1-1.7,2.7-1.7c0.7,0,1.4,0.1,1.9,0.6c0.6,0.4,0.9,0.9,0.9,1.8h8.8c-0.6-6.5-6.8-7.7-12.2-7.7C7.5,8.8,1,10.6,1,16.8
			c0,9.4,15,6.4,15,10.3c0,1.8-1.5,2.2-3.1,2.2c-0.9,0-1.8-0.4-2.4-0.8c-0.7-0.5-1.1-1.2-1.1-2.3H0.2c0.5,6.7,6.8,8.5,12.4,8.5
			c9,0,13.1-3.4,13.1-8.5C25.6,17,10.3,19.2,10.3,15.8z M112.3,8.8c-3.7,0-6.4,1.5-8.6,4.5c-1.2-2.6-3.7-4.5-8-4.5
			c-3.4,0-6.6,2.5-7.8,4.2V9.5h-9v24.4h9.7V21.8c0-3,0.6-5.4,3.4-5.4c2.6,0,3.4,1.5,3.4,5.1v12.5h9.7V21.8c0-3,0.6-5.4,3.4-5.4
			c2.6,0,3.4,1.5,3.4,5.1v12.5h9.7V19.4C121.6,12.8,119.4,8.8,112.3,8.8z"/>
	</g>
</g>
</svg>
