<?xml version="1.0" encoding="UTF-8"?>
<!-- Generator: Adobe Illustrator 17.0.0, SVG Export Plug-In . SVG Version: 6.00 Build 0)  -->
<!DOCTYPE svg PUBLIC "-//W3C//DTD SVG 1.1//EN" "http://www.w3.org/Graphics/SVG/1.1/DTD/svg11.dtd">
<svg version="1.1" id="Layer_1" xmlns="http://www.w3.org/2000/svg" xmlns:xlink="http://www.w3.org/1999/xlink" x="0px" y="0px" width="300px" height="46px" viewBox="0 0 300 46" enable-background="new 0 0 300 46" xml:space="preserve">
<g>
	<g>
		<polygon fill="#FFFFFF" points="271.176,28.97 271.176,1.012 300,15.041   "/>
	</g>
	<g>
		<path fill="#FDB927" d="M9.295,20.3c1.324,2.597,5.629,3.492,8.641,3.295c2.865-0.189,5.958-0.744,6.397-2.866    c0.591-2.881-3.775-3.304-8.678-4.437c-4.856-1.123-9.781-3.036-8.529-7.606c1.683-6.156,10.842-8.437,17.706-8.437    c7.27,0,13.71,2.682,11.679,8.939h-9.525c0.99-2.523-1.862-3.342-4.782-3.342c-2.048,0-4.792,0.546-5.396,2.372    c-0.71,2.136,4.436,2.527,9.389,3.655c4.903,1.124,9.138,3.694,7.947,8.005c-1.97,7.138-10.421,9.28-18.463,9.28    c-7,0-13.56-1.287-15.68-8.858H9.295z"/>
	</g>
	<g>
		<path fill="#FDB927" d="M43.474,0.713h8.292L42.793,28.8H34.5L43.474,0.713z"/>
	</g>
	<g>
		<path fill="#FDB927" d="M56.977,0.713h8.289l-7.148,22.373h15.363L71.654,28.8H47.999L56.977,0.713z"/>
	</g>
	<g>
		<path fill="#FDB927" d="M84.646,14.756c1.67-5.238,7.515-9.045,14.582-9.045c7.072,0,10.48,3.807,8.806,9.045    c-1.673,5.238-7.515,9.046-14.586,9.046C86.38,23.801,82.973,19.993,84.646,14.756z M76.037,14.756    c-2.879,9.003,3.841,14.758,15.586,14.758c11.751,0,22.141-5.754,25.022-14.758C119.521,5.75,112.802,0,101.056,0    C89.308,0,78.913,5.75,76.037,14.756z"/>
	</g>
	<g>
		<path fill="#FDB927" d="M124.108,0.713h11.266l9.765,19.517h0.104l6.24-19.517h8.291L150.798,28.8h-10.844L129.918,8.806h-0.106    L123.426,28.8h-8.293L124.108,0.713z"/>
	</g>
	<g>
		<path fill="#FDB927" d="M171.386,5.949h4.254c3.186,0,6.998,0.394,6.07,3.29c-0.837,2.62-3.998,3.37-6.927,3.37h-5.524    L171.386,5.949z M155.794,28.8h8.287l3.505-10.952h6.06c7.915,0,14.569-2.021,16.678-8.609c2.127-6.664-3.765-8.526-11.577-8.526    h-13.98L155.794,28.8z"/>
	</g>
	<g>
		<path fill="#FDB927" d="M205.513,17.611h-9.19l7.359-8.728L205.513,17.611z M177.858,28.8h9.148l5.037-5.953h14.619l1.337,5.953    h9.356L209.96,0.713h-6.856L177.858,28.8z"/>
	</g>
	<g>
		<path fill="#FDB927" d="M227.768,0.713h8.29l-3.732,11.662l18.346-11.662h10.845l-20.914,13.05L253.98,28.8h-11.59l-11.046-13.33    l-4.262,13.33h-8.29L227.768,0.713z"/>
	</g>
	<g>
		<g>
			<path fill="#FFFFFF" d="M64.275,39.015h-2.392v-0.846h5.822v0.846h-2.404v6.859h-1.027V39.015z"/>
			<path fill="#FFFFFF" d="M73.822,42.262h-3.057v2.777h3.407v0.835H69.75v-7.705h4.247v0.834h-3.232v2.434h3.057V42.262z"/>
			<path fill="#FFFFFF" d="M82.154,45.622c-0.373,0.184-1.12,0.366-2.077,0.366c-2.217,0-3.885-1.372-3.885-3.898     c0-2.412,1.668-4.047,4.107-4.047c0.98,0,1.598,0.206,1.867,0.343l-0.245,0.811c-0.385-0.183-0.933-0.32-1.587-0.32     c-1.843,0-3.069,1.155-3.069,3.178c0,1.885,1.108,3.098,3.022,3.098c0.618,0,1.248-0.126,1.657-0.32L82.154,45.622z"/>
			<path fill="#FFFFFF" d="M84.595,45.874v-7.705h1.108l2.52,3.898c0.583,0.904,1.038,1.715,1.412,2.504l0.023-0.011     c-0.093-1.03-0.117-1.967-0.117-3.167v-3.224h0.957v7.705h-1.027l-2.497-3.91c-0.548-0.857-1.073-1.737-1.47-2.572l-0.035,0.012     c0.058,0.972,0.082,1.898,0.082,3.178v3.292H84.595z"/>
			<path fill="#FFFFFF" d="M100.162,41.942c0,2.652-1.645,4.058-3.652,4.058c-2.077,0-3.535-1.578-3.535-3.91     c0-2.446,1.552-4.047,3.652-4.047C98.774,38.043,100.162,39.656,100.162,41.942z M94.06,42.067c0,1.647,0.91,3.122,2.509,3.122     c1.61,0,2.52-1.453,2.52-3.201c0-1.532-0.817-3.132-2.509-3.132C94.9,38.855,94.06,40.376,94.06,42.067z"/>
			<path fill="#FFFFFF" d="M102.65,38.169h1.015v6.87h3.36v0.835h-4.375V38.169z"/>
			<path fill="#FFFFFF" d="M115.592,41.942c0,2.652-1.645,4.058-3.652,4.058c-2.077,0-3.535-1.578-3.535-3.91     c0-2.446,1.552-4.047,3.652-4.047C114.203,38.043,115.592,39.656,115.592,41.942z M109.49,42.067c0,1.647,0.91,3.122,2.509,3.122     c1.61,0,2.52-1.453,2.52-3.201c0-1.532-0.817-3.132-2.509-3.132C110.33,38.855,109.49,40.376,109.49,42.067z"/>
			<path fill="#FFFFFF" d="M124.066,45.531c-0.455,0.161-1.353,0.423-2.415,0.423c-1.19,0-2.17-0.297-2.94-1.017     c-0.677-0.64-1.097-1.669-1.097-2.87c0.012-2.298,1.622-3.978,4.259-3.978c0.91,0,1.622,0.195,1.96,0.355l-0.245,0.811     c-0.42-0.183-0.945-0.332-1.738-0.332c-1.913,0-3.162,1.166-3.162,3.099c0,1.955,1.202,3.109,3.034,3.109     c0.665,0,1.12-0.091,1.353-0.206v-2.298h-1.598v-0.8h2.59V45.531z"/>
			<path fill="#FFFFFF" d="M127.803,38.169v7.705h-1.015v-7.705H127.803z"/>
			<path fill="#FFFFFF" d="M132.016,43.45l-0.817,2.424h-1.05l2.672-7.705h1.225l2.684,7.705h-1.085l-0.84-2.424H132.016z      M134.594,42.674l-0.77-2.218c-0.175-0.503-0.292-0.96-0.408-1.407h-0.023c-0.117,0.458-0.245,0.926-0.397,1.395l-0.77,2.229     H134.594z"/>
			<path fill="#FFFFFF" d="M142.695,45.874v-7.705h1.108l2.52,3.898c0.583,0.904,1.038,1.715,1.412,2.504l0.023-0.011     c-0.093-1.03-0.117-1.967-0.117-3.167v-3.224h0.957v7.705h-1.027l-2.497-3.91c-0.548-0.857-1.073-1.737-1.47-2.572l-0.035,0.012     c0.058,0.972,0.082,1.898,0.082,3.178v3.292H142.695z"/>
			<path fill="#FFFFFF" d="M155.615,42.262h-3.057v2.777h3.407v0.835h-4.422v-7.705h4.247v0.834h-3.232v2.434h3.057V42.262z"/>
			<path fill="#FFFFFF" d="M158.452,38.169h1.015v6.87h3.36v0.835h-4.375V38.169z"/>
			<path fill="#FFFFFF" d="M165.128,38.169h1.015v6.87h3.36v0.835h-4.375V38.169z"/>
			<path fill="#FFFFFF" d="M171.862,38.043c-0.268,0.96-0.77,2.183-1.097,2.709l-0.653,0.08c0.257-0.674,0.56-1.863,0.688-2.686     L171.862,38.043z"/>
			<path fill="#FFFFFF" d="M175.199,38.169v7.705h-1.015v-7.705H175.199z"/>
			<path fill="#FFFFFF" d="M184.769,42.49c-0.058-1.074-0.128-2.366-0.117-3.326h-0.035c-0.268,0.904-0.595,1.863-0.992,2.927     l-1.388,3.738h-0.77l-1.272-3.669c-0.373-1.086-0.688-2.081-0.91-2.996h-0.023c-0.023,0.96-0.082,2.253-0.152,3.407l-0.21,3.303     h-0.968l0.548-7.705h1.295l1.342,3.726c0.327,0.949,0.595,1.795,0.793,2.595h0.035c0.198-0.777,0.478-1.623,0.828-2.595     l1.4-3.726h1.295l0.49,7.705h-0.992L184.769,42.49z"/>
			<path fill="#FFFFFF" d="M188.693,38.272c0.443-0.091,1.143-0.161,1.855-0.161c1.015,0,1.668,0.172,2.158,0.561     c0.408,0.297,0.653,0.755,0.653,1.36c0,0.743-0.502,1.395-1.33,1.692v0.022c0.747,0.184,1.622,0.789,1.622,1.932     c0,0.663-0.268,1.166-0.665,1.543c-0.548,0.492-1.435,0.72-2.719,0.72c-0.7,0-1.237-0.045-1.575-0.091V38.272z M189.708,41.428     h0.922c1.073,0,1.703-0.549,1.703-1.292c0-0.903-0.7-1.258-1.727-1.258c-0.467,0-0.735,0.035-0.898,0.068V41.428z      M189.708,45.119c0.198,0.035,0.49,0.046,0.852,0.046c1.05,0,2.018-0.378,2.018-1.498c0-1.052-0.922-1.486-2.03-1.486h-0.84     V45.119z"/>
			<path fill="#FFFFFF" d="M197.457,43.45l-0.817,2.424h-1.05l2.672-7.705h1.225l2.684,7.705h-1.085l-0.84-2.424H197.457z      M200.036,42.674l-0.77-2.218c-0.175-0.503-0.292-0.96-0.408-1.407h-0.023c-0.117,0.458-0.245,0.926-0.397,1.395l-0.77,2.229     H200.036z"/>
			<path fill="#FFFFFF" d="M204.496,38.169h1.015v6.87h3.36v0.835h-4.375V38.169z"/>
			<path fill="#FFFFFF" d="M211.171,38.169h1.015v6.87h3.36v0.835h-4.375V38.169z"/>
			<path fill="#FFFFFF" d="M219.12,43.45l-0.817,2.424h-1.05l2.672-7.705h1.225l2.684,7.705h-1.085l-0.84-2.424H219.12z      M221.698,42.674l-0.77-2.218c-0.175-0.503-0.292-0.96-0.408-1.407h-0.023c-0.117,0.458-0.245,0.926-0.397,1.395l-0.77,2.229     H221.698z"/>
			<path fill="#FFFFFF" d="M231.968,45.531c-0.455,0.161-1.353,0.423-2.415,0.423c-1.19,0-2.17-0.297-2.94-1.017     c-0.677-0.64-1.097-1.669-1.097-2.87c0.012-2.298,1.622-3.978,4.259-3.978c0.91,0,1.622,0.195,1.96,0.355l-0.245,0.811     c-0.42-0.183-0.945-0.332-1.738-0.332c-1.913,0-3.162,1.166-3.162,3.099c0,1.955,1.202,3.109,3.034,3.109     c0.665,0,1.12-0.091,1.353-0.206v-2.298h-1.598v-0.8h2.59V45.531z"/>
			<path fill="#FFFFFF" d="M240.676,45.531c-0.455,0.161-1.353,0.423-2.415,0.423c-1.19,0-2.17-0.297-2.94-1.017     c-0.677-0.64-1.097-1.669-1.097-2.87c0.012-2.298,1.622-3.978,4.259-3.978c0.91,0,1.622,0.195,1.96,0.355l-0.245,0.811     c-0.42-0.183-0.945-0.332-1.738-0.332c-1.913,0-3.162,1.166-3.162,3.099c0,1.955,1.202,3.109,3.034,3.109     c0.665,0,1.12-0.091,1.353-0.206v-2.298h-1.598v-0.8h2.59V45.531z"/>
			<path fill="#FFFFFF" d="M244.411,38.169v7.705h-1.015v-7.705H244.411z"/>
			<path fill="#FFFFFF" d="M254.074,41.942c0,2.652-1.645,4.058-3.652,4.058c-2.077,0-3.535-1.578-3.535-3.91     c0-2.446,1.552-4.047,3.652-4.047C252.685,38.043,254.074,39.656,254.074,41.942z M247.972,42.067     c0,1.647,0.91,3.122,2.509,3.122c1.61,0,2.52-1.453,2.52-3.201c0-1.532-0.817-3.132-2.509-3.132     C248.812,38.855,247.972,40.376,247.972,42.067z"/>
		</g>
	</g>
</g>
</svg>