<?xml version="1.0" encoding="UTF-8"?> <svg xmlns="http://www.w3.org/2000/svg" viewBox="0 0 230 78.99"><defs><style>.cls-1{fill:#ee7026;}</style></defs><g id="Livello_2" data-name="Livello 2"><g id="Livello_1-2" data-name="Livello 1"><polygon class="cls-1" points="191.02 20.72 190.76 20.36 190.46 20.04 190.11 19.77 189.74 19.64 189.42 19.66 188.97 19.72 188.39 19.84 187.73 20.05 186.51 20.31 185.38 20.64 184.31 21.05 183.31 21.53 182.37 22.11 181.5 22.76 180.69 23.5 179.93 24.33 179.21 25.25 178.54 26.26 177.92 27.39 177.92 27.01 177.89 25.25 177.85 23.13 177.92 21.47 178.12 20.17 178.36 19.16 178.62 18.35 178.77 17.91 178.89 17.49 178.97 17.06 179 16.63 179 16.22 178.98 16.05 178.71 15.43 178.54 15.1 178.25 14.77 177.82 14.54 177.38 14.39 176.91 14.3 176.44 14.27 175.72 14.33 174.98 14.54 174.23 14.89 173.44 15.4 173.35 15.48 172.76 16.25 172.64 16.53 172.55 16.84 172.51 17.15 172.49 17.5 172.6 18.42 172.66 18.91 172.75 19.5 172.84 20.2 172.93 21.05 173.04 21.99 173.13 23.06 173.22 24.25 173.31 25.57 173.4 27.01 173.46 28.6 173.52 30.31 173.55 32.16 173.56 34.02 173.56 34.26 173.35 41.89 173.32 42.46 173.2 43.05 173.04 43.65 172.85 44.27 172.64 44.95 172.46 45.63 172.33 46.34 172.28 47.05 172.28 47.19 172.73 47.82 173.26 47.99 173.84 48.11 174.44 48.18 175.1 48.2 176.91 48.14 177.32 47.93 177.82 47.45 178.35 47.31 178.86 46.96 179.25 46.33 179.4 45.31 179.4 45.04 179.27 44.65 178.87 43.96 178.54 43.08 178.28 41.99 178.09 40.66 177.94 39.08 177.98 38.91 178.04 38.76 178.12 38.67 178.3 38.35 178.39 37.52 178.3 36.41 178.25 36.1 178.28 35.77 178.38 35.38 178.53 34.88 178.75 34.26 178.8 34.02 178.8 33.16 179.13 32.66 179.43 32.07 179.69 31.42 179.84 30.8 179.84 30.79 179.88 30.7 180.07 30.26 180.55 29.39 181.38 28.18 182.03 27.39 182.66 26.61 183.49 26.11 184.21 25.72 184.82 25.46 185.3 25.35 185.51 25.38 185.94 25.49 186.58 25.78 187.52 26.27 187.87 26.36 188.66 26.36 189.13 26.17 189.53 25.73 189.78 25.35 189.81 25.29 190.04 24.81 190.19 24.3 190.28 24.02 190.41 23.77 190.55 23.5 190.72 23.24 190.91 22.91 191.11 22.56 191.23 22.18 191.28 21.8 191.28 21.4 191.23 21.13 191.02 20.72"></polygon><path class="cls-1" d="M150.66,37l-.36,1.12-.62,1.2-.83,1.23-.13.41v.3l-1.06.91-.18.17-1.37.6-1.19.48-1.08.32-1,.11-1.07-.06-1-.19-1-.34-1.07-.53-.67-.45-.56-.59-.48-.73-.16-.36-.23-.5-.05-.75.12-.91.37-.89.63-.86.87-.86,1.15-.86,1.42-.86h.62l.42-.15.89-.61,1.07-.5,1.24-.38,1.33-.22,1.35-.09.52,0,.46.12.43.2.39.29.38.83.27.81.18.79.06.75Zm4.91,13.1.06-1.62,0-.16L155.3,47l-.23-1.23-.11-.84,0-.26,0-.81v-.25l0-.81,0-.12.1-.17.09-.19.06-.22,0-.25,0-.44-.12-4V35.85l0-1.38,0-1.23.09-1.09v0l.17-1,0-.12.08-.14.1-.14.36-.37.2-.26.17-.3.12-.35v-.2l-.12-.57-.29-.35-.36-.21-.31-.1-.23-.06-.12-.07-.11-.1v-.29l0-1.36-.09-1.36-.17-1.29-.22-1.21-.31-1.15-.34-1.06-.43-1-.46-.9-.06-.1-.49-.73-.59-.76-.64-.65-.71-.59-.77-.5-.82-.39-.87-.33-.92-.23-1-.13-1,0-1.45,0-1.35.08L141,14l-1.12.16-1,.22-.83.25-.67.29-1.22.2-.81.45-.5.6-.26.67v0l-.27.58-.11.3-.08.28,0,.31.11.51.33.45.54.32.76.12.53,0,.52-.14.59-.24.65-.35.14-.1.5-.49,1.08-.12,1.18-.07,1.31-.05,1.42,0h.07l.06,0,.17.11.66.32,1.23.47,1.07.55.92.62.77.71.62.8.48.88.33,1,.2,1.09.07,1.18v.39l0,.42-.06.43-.08.43-.41.41-.57.27-.74.21-1.46.26-.58.12-.58.14-.59.18-1.22.44-1.18.49-1.13.53-1.09.58-1,.62-1,.64-1,.71-1,.76-.9.8-.88.85-.83.89-.72.86-.51,1-.32,1.07-.09,1.16v.28h0l-.08.81.08,1.43.26.8.37.73.52.6.54.44.66.62.92.59,1.07.46,1.21.35,1.34.23,1.42.06,1.07,0,1-.13,1-.23.9-.3L148,46l.47-.17.33-.06.11-.1.15-.14.32-.3v0l.06,0,0-.05h.23l.21,0,.18,0,.17-.06,0,.27,0,.27v1l0,.38,0,.4,0,.41-.14.17-.36.48-.08.12-.34.82-.26.84-.15.86-.05.86,0,.44,0,.42.09.46.14.5.65.48h.36l.15,0,.15.06.17.08.84.27.79-.17.92-.47,1.05-.8L155.43,52l.2-.46Z"></path><polygon class="cls-1" points="127.3 1.4 126.93 1.16 126.33 1.06 125.15 1.18 124.16 1.5 123.34 2.01 122.65 2.67 122.06 3.47 121.55 4.39 121.06 5.41 120.61 6.46 120.14 7.57 119.8 8.26 119.18 9.45 118.33 11.19 117.82 12.28 117.26 13.52 116.67 14.89 116.03 16.4 115.36 18.07 115.23 18.38 115.12 18.66 115.06 18.93 115.05 19.19 115.08 19.46 115.77 20.57 116.52 20.75 117.05 20.67 117.67 20.39 118.35 19.81 119.04 18.86 119.16 18.59 119.5 17.92 120.08 16.76 121.5 14.06 122.8 11.61 124.38 8.64 126.25 5.13 127.31 3.19 127.39 3 127.43 2.76 127.52 2.13 127.48 1.75 127.3 1.4"></polygon><polygon class="cls-1" points="81.28 0 80.48 0.6 79.75 1.21 79.05 1.81 78.45 3.02 77.98 3.93 77.59 5.13 77.24 6.04 77.03 6.64 76.82 7.25 76.58 7.85 76.32 8.46 76.06 9.06 75.64 9.66 75.1 10.57 74.48 11.78 73.8 13.59 73.32 14.8 72.81 16.31 72.28 17.52 71.75 18.73 71.22 19.63 70.69 20.84 70.17 21.74 69.59 22.95 69.03 24.16 68.53 25.37 68.11 26.27 67.39 28.09 66.72 29.6 66.09 30.8 65.49 31.71 64.94 32.31 64.43 32.92 63.97 32.92 63.63 32.62 63.16 32.31 62.67 31.41 62.2 30.8 61.51 29.3 60.83 27.78 60.21 26.57 59.62 25.37 59.08 24.16 58.58 23.25 58.13 22.05 57.73 21.14 57.39 20.23 57.09 19.63 56.86 19.03 56.86 17.82 56.77 17.52 56.08 16.31 55.43 15.1 54.84 13.89 54.58 13.29 54.31 12.68 53.84 11.78 53.44 10.57 53.07 9.66 52.79 8.76 52.55 7.55 52.38 6.64 52.29 5.74 52.24 5.44 52.09 5.13 51.81 4.83 51.34 4.53 50.75 2.72 49.98 1.51 49.21 1.21 47.93 1.21 47.28 1.51 46.67 2.11 46.15 2.72 45.74 3.63 45.47 5.13 45.38 6.64 45.44 9.66 45.39 10.57 45.29 11.78 45.11 12.68 44.88 13.89 44.63 15.1 44.31 16.61 43.73 19.03 43.48 19.93 43.21 21.14 42.97 22.35 42.72 23.25 42.5 24.46 42.3 25.97 42 27.78 41.7 29.3 41.41 31.11 41.14 32.62 40.85 34.13 40.58 35.64 40.31 36.84 40.04 38.35 39.77 39.56 39.51 40.47 39.24 41.68 38.97 42.58 38.7 43.49 38.42 44.39 38.15 45 37.87 45.91 37.58 46.21 37.29 46.81 36.99 47.41 37.13 48.32 37.88 48.92 38.27 49.23 38.71 49.53 39.18 49.83 40.2 49.83 40.49 49.53 40.75 49.53 40.99 49.23 41.23 49.23 41.47 48.92 42.06 48.92 42.53 48.62 42.94 48.02 43.07 47.72 43.27 46.81 43.39 46.21 43.46 45.6 43.49 45 43.34 43.49 43.3 43.19 43.31 42.88 43.37 42.58 43.46 41.98 43.57 41.68 43.67 41.38 43.77 41.07 43.85 40.77 43.9 40.47 44.01 38.96 44.14 37.45 44.31 36.24 44.5 35.03 44.7 33.52 44.91 32.31 45.14 31.41 45.35 30.2 45.56 29.3 45.94 27.48 46.12 26.57 46.31 25.67 46.51 24.76 46.74 23.86 46.95 22.65 47.19 21.44 47.43 20.23 47.69 19.03 47.94 17.82 48.2 16.31 48.47 14.8 48.74 13.29 49.27 14.49 49.8 15.4 50.31 16.61 50.81 17.52 51.31 18.73 51.79 19.93 52.27 20.84 52.74 22.05 53.21 23.25 54.11 25.37 54.57 26.27 55.03 27.48 55.49 28.39 55.97 29.6 56.44 30.5 56.92 31.71 57.42 32.62 57.91 33.83 58.41 34.73 58.62 36.24 58.94 37.45 59.35 38.05 59.88 38.66 60.21 39.87 60.69 40.77 61.35 41.38 62.18 41.98 62.47 42.28 62.76 42.58 64.19 42.58 64.51 42.28 64.72 41.98 64.89 41.68 65.16 41.07 65.61 40.17 66.24 39.26 67.06 38.35 67.25 38.05 67.24 37.75 67.21 37.75 67.15 37.45 67.07 37.15 67.4 36.54 67.51 36.24 67.47 35.94 67.39 35.34 67.45 35.34 67.51 35.03 67.6 34.73 67.74 34.43 67.9 34.13 68.1 33.83 68.35 33.22 68.5 32.92 68.66 32.62 69.02 31.71 69.44 30.8 69.92 29.9 70.47 28.69 71.1 27.48 71.8 25.97 72.58 24.46 73.45 22.65 74.42 20.84 75.47 18.73 76.62 16.61 77.89 13.89 79.25 11.48 79.46 12.08 79.67 12.68 79.85 13.89 80.03 14.8 80.2 16.31 80.38 17.52 80.54 19.03 80.85 21.74 80.95 22.65 81.07 23.56 81.19 24.76 81.33 25.97 81.48 26.88 81.63 28.09 81.78 29.3 81.96 30.8 82.14 32.01 82.34 33.22 82.53 34.73 82.76 36.24 82.79 39.26 82.85 41.68 82.91 43.79 83 45.3 83.11 46.81 83.21 47.72 83.33 48.62 83.49 49.23 83.62 49.53 83.79 49.83 85.33 49.83 85.61 49.53 87.03 49.53 87.6 49.23 87.92 48.92 88.24 48.62 88.46 48.32 89.25 48.32 89.79 48.02 90.11 47.41 90.21 47.11 90.18 46.81 90.08 46.51 89.9 45.91 89.61 45.3 89.55 45.3 89.31 45 89.14 44.39 89.04 43.79 89.01 43.19 88.99 43.19 88.64 41.07 88.33 39.26 88.01 37.45 87.71 35.64 87.42 33.83 87.17 32.01 86.91 30.5 86.65 28.69 86.43 27.18 86.22 25.67 86 24.16 85.83 22.65 85.64 21.44 85.48 19.93 85.31 18.73 85.18 17.52 85.04 16.01 84.92 15.1 84.8 13.89 84.69 12.68 84.6 11.78 84.57 11.48 84.51 10.87 84.44 9.97 84.38 9.06 84.32 8.15 84.27 7.25 84.22 6.64 84.18 6.04 84.15 5.13 84.14 4.83 84.12 4.23 84.11 3.63 84.11 1.81 84.06 1.51 83.92 1.21 83.73 0.91 83.47 0.3 83.06 0 81.28 0"></polygon><polygon class="cls-1" points="15.19 1.98 14.69 2.19 14.17 2.37 13.62 2.54 13.06 2.63 12.66 2.82 12.43 3.05 12.11 3.37 11.38 3.37 11.18 3.4 10 3.82 8.9 4.32 7.86 4.89 6.91 5.53 6.02 6.24 5.22 6.99 4.51 7.81 3.88 8.68 3.33 9.6 2.88 10.55 2.52 11.57 2.26 12.61 2.11 13.68 2.05 14.78 2.11 15.9 2.28 16.96 2.55 17.95 2.93 18.91 3.41 19.78 3.98 20.63 4.65 21.41 5.42 22.17 6.25 22.88 7.17 23.57 8.16 24.24 9.23 24.87 10.38 25.49 11.59 26.09 12.85 26.68 13.17 26.86 13.52 27.09 13.82 27.32 13.94 27.48 14.51 28.22 15.24 28.43 15.99 28.89 16.78 29.55 17.53 30.4 18.22 31.39 18.81 32.53 19.3 33.75 19.6 35.06 19.7 36.42 19.61 37.64 19.33 38.79 18.84 39.88 18.16 40.92 18.09 41.03 17.62 41.81 17 42.54 16.2 43.22 15.25 43.85 14.13 44.42 12.85 44.97 11.39 45.45 10.48 45.72 9.54 45.9 8.55 46.03 6.14 46.24 5.78 46.21 5.39 46.15 4.95 46.04 4.25 45.87 4.07 45.83 3.67 45.44 3.18 45.09 2.63 44.85 1.99 44.76 1.72 44.76 1.19 45 0.89 45.45 0.69 45.87 0.6 46.25 0.57 46.57 0.66 47.75 0.83 48.87 1.13 49.85 1.63 50.63 2.41 51.15 3.53 51.34 5.01 51.3 6.34 51.16 7.51 50.95 8.48 50.66 9.23 50.3 9.26 50.3 9.78 50.19 10.3 50.3 10.76 50.28 10.98 50.19 12.07 49.77 13.32 49.26 14.51 48.73 15.64 48.19 16.7 47.63 17.7 47.05 18.63 46.43 18.89 46.24 19.49 45.78 20.28 45.09 21.02 44.37 21.66 43.58 22.27 42.73 22.78 41.84 23.2 41.07 23.56 40.15 23.88 39.08 24.12 37.89 24.32 36.6 24.42 35.26 24.47 33.87 24.42 32.92 24.27 31.97 24.02 31.02 23.67 30.08 23.22 29.13 22.68 28.21 22.03 27.27 21.27 26.35 20.43 25.43 19.48 24.52 18.43 23.62 17.29 22.71 17.02 22.59 16.56 22.51 16.13 22.45 15.72 22.41 15.34 22.39 13.86 21.58 12.52 20.79 11.33 20.01 10.29 19.24 9.38 18.48 8.62 17.74 8 17.02 7.51 16.29 7.17 15.58 6.96 14.87 6.88 14.18 6.94 13.17 7.13 12.2 7.42 11.31 7.84 10.46 8.37 9.71 9.01 9.01 9.73 8.38 10.58 7.84 11.49 7.37 12.52 6.98 13.64 6.66 14.85 6.43 16.13 6.3 17.5 6.25 18.18 6.33 18.72 6.55 19.19 6.89 19.66 7.31 20.73 8.21 21.2 8.34 21.96 7.96 22.63 7.11 22.98 6.25 23.1 5.95 23.26 4.64 23.11 3.43 23.02 3.19 22.33 2.51 21.44 2.11 21.12 2.05 20.46 1.93 19.43 1.89 18.77 1.89 18.39 1.9 18 1.93 17.62 1.99 17.24 2.05 17.14 1.92 17 1.81 16.87 1.71 16.72 1.62 16.2 1.59 15.19 1.98"></polygon><polygon class="cls-1" points="217.68 49.33 217.92 49.08 218.08 48.89 218.4 48.52 218.64 48.15 218.81 47.81 218.81 47.79 218.81 47.78 218.84 47.72 218.9 47.61 219.4 46.86 219.74 46.24 219.94 45.74 220.01 45.29 219.98 45.03 219.92 44.8 219.82 44.59 219.68 44.41 219.59 44.33 219.17 43.97 218.73 43.8 218.07 43.8 217.31 43.79 216.6 43.72 215.97 43.61 215.4 43.44 215.32 43.41 215.2 43.29 215.06 43.14 214.87 42.93 214.61 42.7 214.31 42.49 213.93 42.31 214.01 42.34 213.95 42.31 212.56 41.47 211.5 40.57 210.86 39.82 210.62 39.32 210.53 39.03 209.86 37.73 209.5 36.59 209.3 35.56 209.2 34.58 209.06 33.36 209.05 32.98 209.03 32.28 209 31.32 209.01 30.41 209.06 29.46 209.11 28.43 209.2 27.33 209.3 26.14 209.44 24.86 209.6 23.48 209.77 22.17 209.8 22.02 211.14 22.11 213.29 22.02 214.24 21.97 214.93 22.02 215.59 22.12 216.24 22.32 216.91 22.59 217.22 22.61 217.33 22.61 217.93 22.91 218.29 22.82 218.7 22.66 219.11 22.45 219.5 22.14 220.12 22.2 220.21 22.14 220.42 21.97 220.54 21.9 220.93 21.49 221.24 20.97 221.36 20.37 221.33 20.1 221.25 19.84 221.15 19.57 221.02 19.31 220.84 19.1 220.18 18.65 220.12 18.62 219.52 18.33 218.79 18.14 217.99 18.07 217.78 18.07 217.69 18.05 217.31 17.91 216.74 17.62 216.14 17.76 215.61 17.92 215.11 18.11 214.4 18.41 214.13 18.51 213.89 18.59 213.71 18.62 213.65 18.62 213.62 18.6 213.36 18.12 213.32 18.07 212.97 17.77 212.29 17.67 211.81 17.7 211.38 17.77 210.99 17.86 210.65 17.97 210.22 18.07 210.21 18.07 210.21 18.06 210.19 17.61 210.15 15.86 210.16 14.78 210.22 13.7 210.3 12.59 210.42 11.48 210.59 10.36 210.77 9.21 210.99 8.06 211.25 6.89 211.55 5.69 211.88 4.48 212.26 4.32 212.49 4.11 212.61 3.87 212.64 3.64 212.64 3.5 212.46 3.05 212.35 2.93 212.31 2.78 212.25 2.6 212.15 2.33 211.99 2.02 211.73 1.75 211.31 1.57 210.77 1.36 210.22 1.21 209.71 1.12 209.2 1.09 209.03 1.1 208.47 1.34 208 1.68 207.61 2.1 206.93 2.94 206.84 3.1 206.45 4.09 206.18 4.88 206.03 5.48 205.98 5.98 205.98 7.34 205.97 8.71 205.89 10.04 205.79 11.33 205.64 12.56 205.44 13.76 205.2 14.92 204.91 16.05 204.32 16.63 203.69 17.09 203 17.43 202.24 17.62 202.12 17.65 201.84 17.76 201.59 17.82 201.38 17.86 201.22 17.88 199.39 17.88 198.77 17.91 198.06 17.97 197.26 18.09 196.99 18.21 196.66 18.48 196.34 18.82 196.13 19.21 196.04 19.69 196.15 20.16 196.43 20.57 196.95 20.9 197.72 21.17 198.77 21.4 200.13 21.56 201.81 21.71 203.86 21.82 204.44 22.24 204.91 22.24 204.99 22.2 205.03 22.17 204.9 23.5 204.79 24.78 204.69 26.03 204.61 27.27 204.55 28.48 204.52 29.64 204.5 30.77 204.52 32.09 204.57 33.37 204.64 34.61 204.75 35.82 204.88 37 205.05 38.13 205.25 39.22 205.47 40.27 205.52 40.41 206.18 41.66 206.86 42.81 207.6 43.84 208.35 44.77 209.15 45.59 210 46.3 210.87 46.9 211.78 47.4 212.68 47.78 212.89 47.9 213.09 48.03 213.21 48.15 213.3 48.27 213.65 48.59 214.07 48.86 214.7 49.12 214.75 49.12 214.78 49.08 214.82 49.08 215.22 49.17 215.64 49.24 216.06 49.29 216.51 49.3 216.71 49.44 216.89 49.53 217.19 49.53 217.68 49.33"></polygon><polygon class="cls-1" points="4.47 63.07 3.86 63.26 3.67 63.36 3.59 63.42 3.58 63.45 3.54 63.48 3.38 63.48 3.27 63.5 2.11 64.05 1.21 64.87 0.65 65.88 0.44 67.04 0.6 68.03 1.04 68.86 1.74 69.55 2.66 70.17 3.76 70.73 3.74 70.72 4.03 70.91 4.3 71.2 4.74 71.42 5.2 71.94 5.58 72.66 5.75 73.54 5.72 73.87 5.63 74.2 5.49 74.5 5.31 74.79 5.02 75.2 4.6 75.56 4.04 75.85 3.33 76.11 3.08 76.19 2.81 76.24 2.5 76.27 2.2 76.3 1.79 76.35 1.79 76.33 1.34 76.25 1.3 76.24 1.24 76.22 1.1 76.11 0.95 76 0.77 75.92 0.56 75.89 0.48 75.89 0.21 76.01 0 76.57 0.05 77.12 0.18 77.63 0.48 77.99 1.03 78.14 1.63 78.11 2.14 78.04 2.56 77.93 2.87 77.77 2.78 77.83 2.9 77.8 3.02 77.83 3.23 77.81 3.27 77.8 3.33 77.77 4.47 77.3 5.51 76.72 5.97 76.35 6.32 76.06 6.92 75.21 7.14 74.78 7.3 74.19 7.41 73.51 7.44 72.77 7.3 71.88 6.88 71 6.67 70.73 6.2 70.14 5.24 69.31 5.1 69.25 4.62 69.19 3.54 68.57 2.78 67.97 2.32 67.39 2.16 66.86 2.37 65.93 2.99 65.22 3.94 64.77 5.2 64.61 5.39 64.63 5.52 64.69 5.64 64.78 5.76 64.9 6.11 65.17 6.34 65.23 6.62 65.1 6.86 64.81 6.94 64.61 7.01 64.42 7.08 63.99 7.03 63.6 6.99 63.48 6.74 63.24 6.46 63.1 6.29 63.07 6.13 63.04 5.79 63.03 5.6 63.03 5.33 63.06 5.13 63.07 5.1 63.03 5.04 62.97 4.78 62.95 4.47 63.07"></polygon><polygon class="cls-1" points="23.1 67.59 22.95 67.38 22.64 67.29 22.49 67.3 22.12 67.39 21.95 67.42 21.79 67.47 21.63 67.53 21.47 67.59 21.36 67.56 21.26 67.53 21 67.59 20.97 67.6 20.79 67.69 20.58 68.01 20.59 68.22 20.61 68.43 20.68 68.63 20.82 68.78 20.94 69.19 21 69.88 21.02 70.72 21.03 71.45 20.98 72.38 20.86 73.16 20.67 73.78 20.4 74.23 19.37 75 18.6 75.5 18.12 75.76 17.89 75.83 17.59 75.82 17.48 75.83 17.44 75.83 17.12 75.76 16.72 75.41 16.41 74.94 16.23 74.31 16.17 73.51 16.2 73.16 16.23 72.75 16.31 72.31 16.38 71.82 16.59 70.41 16.7 69.82 16.82 69.33 17 68.9 17.29 68.56 17.33 68.53 17.53 68.28 17.59 67.94 17.24 67.51 16.97 67.44 16.69 67.36 16.32 67.29 16.14 67.3 15.98 67.36 15.78 67.44 15.55 67.56 15.52 67.57 15.28 67.66 15.15 67.8 15.1 67.92 15.09 68.03 15.13 68.22 15.22 68.48 15.16 68.84 14.79 71.39 14.65 72.44 14.54 73.24 14.48 73.79 14.47 74.16 14.56 75.15 14.85 76.01 15.31 76.71 15.95 77.19 16.11 77.31 16.29 77.4 16.48 77.45 16.67 77.48 18.16 77.25 18.36 77.15 18.63 77.03 19.19 76.71 19.66 76.38 20.06 76.06 20.32 75.83 20.58 75.62 20.74 75.45 20.91 75.35 21.02 75.29 21.03 75.29 21.07 75.55 21.11 75.88 21.11 75.94 21 76.38 21.03 76.51 21 76.62 20.97 76.81 20.98 77.01 21.09 77.24 21.3 77.42 21.71 77.49 21.92 77.48 22.19 77.42 22.49 77.31 22.84 77.19 22.96 76.68 22.95 76.47 22.96 76.18 22.96 76.11 23.01 76.09 23.04 76.06 23.14 75.76 23.14 75.53 22.99 75.41 22.92 75.35 22.87 75.32 22.86 75.29 22.82 75.15 22.77 74.76 22.69 74.07 22.7 73.79 22.72 73.76 22.82 73.55 23.01 73.08 22.95 72.81 22.89 72.69 22.78 72.5 22.64 72.21 22.63 72.01 22.6 71.64 22.57 71.14 22.6 70.49 22.72 69.79 22.9 69.05 23.17 68.24 23.19 68.12 23.17 67.86 23.1 67.59"></polygon><polygon class="cls-1" points="209.91 75.98 209.75 75.73 209.69 75.32 209.68 75.17 209.65 75.02 209.59 74.85 209.51 74.7 209.54 74.66 209.59 74.63 209.59 74.56 209.57 74.41 209.57 73.86 209.6 70.23 209.6 69.02 209.59 66.15 209.62 63.62 209.63 63.33 209.6 62.55 209.59 62.2 209.65 61.71 207.69 61.71 207.66 61.71 207.63 62.08 207.72 62.55 207.73 62.65 207.75 62.76 207.75 63.13 207.84 65.17 207.75 66.74 207.81 67.84 207.87 69.02 207.85 69.66 207.87 70.23 207.87 70.43 207.87 72.44 207.87 73.28 207.84 74.02 207.79 74.66 207.73 75.21 207.73 75.23 207.61 75.73 207.61 75.74 207.63 76.07 207.63 76.32 207.46 76.53 207.51 76.75 207.66 77 207.97 77.22 208.47 77.42 208.7 77.4 208.81 77.34 208.91 77.27 208.96 77.3 209 77.33 209.08 77.33 209.18 77.27 209.21 77.27 209.35 77.21 209.66 77.13 209.88 76.98 209.98 76.78 210.06 76.59 210.09 76.5 210.06 76.23 209.91 75.98"></polygon><polygon class="cls-1" points="207.66 61.7 207.69 61.71 207.68 61.7 207.66 61.7"></polygon><polygon class="cls-1" points="209.68 61.58 210.03 61.02 210.07 60.69 209.91 60.33 209.69 59.99 209.39 59.74 209.02 59.65 208.68 59.72 208.64 59.74 208.38 59.86 208.17 60.01 207.99 60.2 207.85 60.43 207.75 60.61 207.66 60.84 207.61 61.13 207.6 61.47 207.64 61.65 207.68 61.7 209.66 61.7 209.68 61.58"></polygon><polygon class="cls-1" points="222.81 72.53 222.53 72.06 222.17 71.67 221.72 71.36 221.07 71.11 220.35 70.88 219.67 70.7 218.99 70.46 218.64 70.2 218.52 69.97 218.49 69.79 218.5 69.64 218.66 69.14 218.96 68.78 219.49 68.57 220.33 68.51 220.6 68.53 220.83 68.6 221.02 68.72 221.22 68.92 221.57 69.02 221.58 69.01 221.58 69.02 221.97 69.19 222.22 69.02 222.23 69.01 222.41 68.72 222.47 68.51 222.52 68.34 222.56 67.92 222.55 67.77 222.52 67.6 222.44 67.42 222.31 67.24 222 67.18 221.93 67.17 221.87 67.18 221.85 67.18 221.33 67.17 220.21 67.21 219.2 67.36 218.31 67.71 217.6 68.28 217.15 69.14 216.98 70.37 217 70.46 217.19 70.97 217.3 71.15 217.45 71.33 217.63 71.5 218.1 71.91 218.2 71.95 218.4 72.03 218.58 72.1 220.03 72.6 220.89 73.04 221.33 73.51 221.45 74.1 221.42 74.38 221.33 74.7 221.19 75.05 220.98 75.42 220.65 75.7 220.24 75.89 219.74 76.01 219.18 76.06 218.81 76.03 218.53 75.97 218.38 75.89 218.29 75.83 218.03 75.75 218.04 75.76 217.99 75.74 218.03 75.75 218.01 75.74 217.92 75.71 217.69 75.65 217.39 75.56 217.31 75.56 216.98 75.82 216.95 76.17 217.06 76.81 217.18 77.06 217.42 77.3 217.83 77.49 218.44 77.57 218.67 77.57 218.9 77.54 219.11 77.48 219.24 77.43 219.26 77.43 219.62 77.4 219.95 77.39 221.05 77.03 221.91 76.38 222.14 76.06 222.53 75.52 222.91 74.56 223.05 73.57 222.99 73.04 222.81 72.53"></polygon><path class="cls-1" d="M226.73,4.57H226V3.49h1l.26.08.19.15.08.27-.08.32-.18.16-.27.08Zm.49.49.4-.09.3-.18.13-.22.08-.1.08-.42-.1-.5,0-.06-.21-.27L227.44,3,226.83,3h-1.4V6.69h.6V5.1h.59l.95,1.59h.7l-1-1.59Z"></path><path class="cls-1" d="M225.63,7.34l-.82-.6-.51-.88-.18-1.09.19-1.13.55-.88.83-.57,1-.2,1,.2.83.57.54.88.2,1.13-.2,1.13-.54.88-.83.57-1,.2Zm0-5.78-.9.45L224,2.7l-.48.94-.17,1.13.15,1.09.46.92.71.73.9.46,1.09.17,1-.15.88-.44h0l.72-.72.47-.92L230,4.77l-.18-1.13-.47-.94L228.63,2l0,0-.86-.43-1-.16Z"></path><polygon class="cls-1" points="36.52 68.28 36.34 68.22 35.66 68.37 34.8 68.6 34.08 68.98 33.46 69.51 32.92 70.22 32.92 69.42 32.93 68.92 32.99 68.54 33.05 68.25 33.13 68.01 33.25 67.45 33.25 67.33 33.25 67.24 33.16 67.03 33.11 66.94 32.96 66.77 32.36 66.61 32.12 66.64 31.88 66.7 31.64 66.8 31.38 66.97 31.33 67.02 31.14 67.27 31.12 67.29 31.03 67.71 31.06 68.01 31.14 68.6 31.24 69.57 31.32 70.93 31.35 72.44 31.35 72.78 31.29 75.03 31.15 75.71 30.97 76.57 31.2 76.94 31.95 77.06 32.51 77.04 32.72 76.94 32.78 76.88 32.84 76.8 33.04 76.74 33.22 76.59 33.34 76.36 33.39 76.06 33.39 75.97 33.31 75.77 33.17 75.53 33.07 75.18 32.99 74.75 32.95 74.2 32.96 74.16 33.04 74.01 33.07 73.72 33.04 73.36 33.04 73.27 33.17 72.78 33.2 72.68 33.2 72.44 33.3 72.28 33.39 72.12 33.46 71.92 33.51 71.69 33.57 71.58 33.7 71.33 33.94 71 34.31 70.55 34.5 70.44 34.7 70.32 34.88 70.23 34.95 70.22 35.02 70.2 35.09 70.22 35.21 70.26 35.38 70.34 35.6 70.46 35.78 70.5 36.02 70.5 36.25 70.4 36.39 70.26 36.42 70.2 36.48 70.11 36.55 69.96 36.61 69.79 36.61 69.78 36.75 69.51 36.95 69.01 36.95 68.89 36.91 68.75 36.52 68.28"></polygon><polygon class="cls-1" points="51.28 58.77 51.05 58.56 50.78 58.45 50.49 58.54 50.31 58.59 50.01 58.65 49.65 58.7 49.33 58.73 49.18 58.78 49.03 58.91 48.97 58.94 48.77 58.98 48.59 59.04 48.41 59.13 48.26 59.24 48.24 59.24 47.61 59.43 47.54 59.46 46.83 59.96 46.27 60.43 45.83 60.9 45.51 61.35 45.36 61.62 45.02 62.2 44.62 62.95 44.25 63.96 43.93 65.29 43.7 67 43.7 67.02 43.66 67.18 43.46 67.35 43.34 67.44 43.27 67.44 43.04 67.51 42.81 67.69 42.68 67.78 42.54 67.91 42.45 68.06 42.41 68.27 42.53 68.54 42.84 68.71 43.06 68.69 43.39 68.71 43.55 68.69 43.57 68.69 43.57 68.77 43.55 68.84 43.61 69.85 43.72 72.41 43.64 75.31 43.64 75.39 43.66 75.55 43.66 75.92 43.57 76.01 43.49 76.11 43.31 76.48 43.46 77 43.96 77.16 43.86 77.18 43.81 77.16 43.95 77.31 44.19 77.58 44.46 77.67 44.67 77.64 44.87 77.57 45.05 77.43 45.12 77.34 45.15 77.31 45.24 77.25 45.35 77.18 45.76 76.91 45.91 76.56 45.79 76.05 45.7 75.71 45.7 75.64 45.62 75.31 45.54 75.22 45.51 75.15 45.51 75.12 45.39 74.08 45.3 73.15 45.26 72.3 45.24 71.56 45.24 69.99 45.24 69.43 45.26 68.93 45.29 68.69 45.29 68.59 45.32 68.59 45.35 68.59 45.41 68.59 45.6 68.56 45.79 68.59 46.39 68.56 47.55 68.63 47.58 68.63 47.9 68.65 48 68.65 48.16 68.59 48.2 68.56 48.29 68.49 48.44 68.49 48.59 68.51 48.59 68.49 48.64 68.45 48.77 68.28 49.05 67.91 49.02 67.78 48.97 67.59 48.89 67.39 48.86 67.36 48.74 67.24 48.5 67.18 48.56 67.18 48.17 67.11 47.14 67.26 46.47 67.36 46.45 67.35 46.03 67.32 45.8 67.35 45.48 67.26 45.42 67.26 45.35 67.26 45.26 67.05 45.26 66.71 45.38 66.09 45.68 64.63 45.73 64.45 46.01 63.48 46.39 62.65 46.78 61.99 47.19 61.49 47.6 61.2 47.93 61.01 48.19 60.85 48.26 60.76 48.27 60.75 48.35 60.67 48.97 60.67 49.12 60.55 49.21 60.48 49.3 60.48 49.45 60.45 49.74 60.49 49.8 60.45 49.97 60.36 50.1 60.36 50.15 60.4 50.18 60.43 50.49 60.55 50.72 60.48 50.9 60.36 50.92 60.36 51.04 60.2 51.13 60.01 51.28 59.92 51.4 59.8 51.47 59.65 51.52 59.46 51.43 59.07 51.28 58.77"></polygon><path class="cls-1" d="M56.54,75.5l-.27-.06L56,75.35l-.3-.15-.18-.12-.15-.17-.14-.19,0-.08-.07-.17v-.16l0-.27.17-.34.39-.39.67-.45h.13l.23-.08.31-.21.43-.15.45-.11.48,0h.18l.12.06.14.1.09.22.08.23.06.21v.2l0,.28-.11.31-.17.34-.24.35-.07.21v0l-.09.08-.23.21-.38.15-.34.14-.31.09-.27,0Zm.18-9-.65.06-.52.12-.41.15-.42.09-.27.18-.16.21-.07.21,0,0-.12.43.06.21.13.18.22.12.25,0,.17,0,.18-.05.2-.07.21-.12.06,0,.06-.06.06,0,1.43-.08,0,0,.95.44.5.45.29.56.1.71,0,.31v.12l-.11.1-.15.06-.2.06-.24,0-.71.17-1,.4-.89.5-.82.61-.72.72-.23.27-.16.31-.11.34,0,.38v.08l0-.08,0,.33v.44l.08.26.12.22.16.2.56.47.48.24.58.15.65,0,.33,0,.33,0,.29-.05.28-.11.09,0,.53-.18.59-.21.13-.14.1-.06v0h.06v.53l0,.09-.12.15-.12.3-.09.29-.06.27,0,.29.09.57.38.24.14.05.31.09.19,0,.27-.1.36-.24.47-.44.1-.24,0-.43,0-.48V77l-.09-.39-.08-.36v-.09l0-.23,0-.3v-.07l0-.23.09-.24,0-1.33V72.66l0-.38v0l.06-.36v0l.09-.09.22-.41,0-.09,0-.22-.12-.15-.15-.08-.1,0h0l0,0-.14-1.48-.39-1.19v0l-.62-.86-.88-.54-1.07-.18Z"></path><polygon class="cls-1" points="75.76 75.41 75.72 75.31 75.52 75.05 75.25 74.84 74.77 74.97 74.71 75.09 74.65 75.11 74.39 75.17 73.95 75.28 73.17 75.38 72.96 75.38 72.59 75.41 72.65 75.39 72.14 75.32 71.31 75.2 70.98 74.93 70.83 74.93 70.69 74.79 70.36 74.46 69.95 74.08 69.64 73.63 69.44 72.95 69.37 71.94 69.43 71.12 69.43 70.99 69.44 70.89 69.58 70.7 69.97 70.13 70.07 69.91 70.19 69.75 70.33 69.63 70.54 69.52 70.92 69.36 71.19 69.22 71.39 69.08 71.51 68.98 71.52 68.98 71.54 68.98 71.75 68.98 71.85 68.96 72.06 68.83 72.22 68.77 72.32 68.77 73.15 68.87 73.64 68.93 73.71 68.93 73.88 68.98 74.03 69.05 74.18 69.19 74.27 69.25 74.99 69.43 75.29 69.39 75.55 69.07 75.54 68.77 75.52 68.31 75.55 68.18 75.58 67.89 75.57 67.68 75.46 67.44 75.22 67.24 75.05 67.21 75.02 67.19 74.78 67.15 74.31 67.21 74.37 67.19 74.03 67.19 73.36 67.21 72.7 67.29 72.05 67.38 71.4 67.53 71.16 67.59 70.95 67.68 70.74 67.8 70.54 67.94 70.12 68.19 69.09 69.08 68.39 70.06 67.98 71.23 67.84 72.59 67.99 73.79 68.43 74.87 69.12 75.79 70.07 76.53 70.22 76.57 70.84 76.78 71.49 77.01 71.64 77.03 71.93 77.07 72.32 77.12 72.91 77.09 73.06 77.07 73.27 77.07 73.75 77.06 74.16 77.01 74.51 76.97 75.11 76.86 75.19 76.86 75.37 76.83 75.6 76.71 75.78 76.42 75.87 75.89 75.84 75.58 75.76 75.41"></polygon><polygon class="cls-1" points="89.69 75.21 89.35 75.02 89.1 75.06 88.9 75.15 88.73 75.23 88.6 75.32 88.46 75.39 87.83 75.39 87.63 75.41 86.67 75.5 86.1 75.47 85.57 75.36 85.06 75.18 84.69 74.99 84.59 74.94 84.29 74.72 83.91 74.44 83.68 74.26 83.67 74.26 81.78 74.26 81.77 74.26 81.81 74.44 81.93 74.76 82.13 75.11 82.4 75.47 83 76.09 83.88 76.54 85.07 76.89 86.62 77.22 86.55 77.19 87.23 77.3 87.75 77.3 88.37 77.28 88.57 77.31 88.73 77.28 89.07 77.21 89.08 77.19 89.47 76.88 89.75 76.41 89.84 75.83 89.76 75.5 89.69 75.21"></polygon><path class="cls-1" d="M88.1,69.82v0l-.06.21-.07,0h-.2l-3.42.13h-.47v0h0l.31-.44.32-.38.32-.32.33-.28h0l.12,0,.33-.23h0l.44-.12h.64l.1,0,.4.12.3.14.22.15.13.18.06.1,0,.15,0,.22,0,.3,0,.13Zm1.83.52v-.08l0,0v0h0l0-.13,0-.09v-.09l-.08-.3-.1-.69-.18-.53,0-.06-.32-.49-.49-.37-.22-.14-.12-.06L88,67.11,87.7,67l-.38,0L87,67l-.36,0-.36.07-.4.1h0l-.12.06-.09,0h-.27l-.19,0-.19.06-.13.09-.14.09-1.07.74-.66.6-.5.65-.33.71-.27.64-.18.66-.12.68,0,.69v.35l0,.33.07.34.09.25h1.89l0-.06L83.5,74l-.14-.39-.09-.51V73l-.08-.51,0-.39v-.15l.08,0v-.09l0-.09h.08l.18,0,.07,0,.24-.06.29,0,.36,0H85l1,0,.42,0,.32,0,.33,0,.35,0,.5,0,.15,0,.15,0v0l.21.09.12,0,.26.11h.15l.07-.09.06-.06h0l.41,0,.09-.06.06,0,.07,0,.11-.17,0-.13.07-.14.06-.17v-.19l0-.09Z"></path><polygon class="cls-1" points="122.81 75.62 122.77 75.46 122.77 75.23 122.44 73.33 122.17 71.56 121.94 69.97 121.74 68.52 121.59 67.24 121.49 66.11 121.47 66 121.4 65.13 121.34 64.33 121.31 63.69 121.31 63.21 121.31 62.83 121.08 62.3 120.85 62.15 120.58 62.12 120.28 62.15 120.01 62.27 119.77 62.47 119.54 62.74 119.34 63.06 119.21 63.38 119.09 63.71 118.98 64.03 118.71 64.76 118.64 64.87 118.52 65.07 118.35 65.37 118.15 65.76 117.94 66.29 117.69 66.97 117.41 67.6 117.14 68.19 116.87 68.75 116.24 70.08 115.78 71.14 115.45 71.73 115.24 71.97 115.12 72.01 115.05 71.92 114.94 71.77 114.7 71.41 114.16 70.28 113.7 69.31 113.36 68.51 113.13 67.91 113.11 67.6 113.08 67.45 112.68 66.68 112.56 66.44 112.15 65.55 111.88 64.75 111.76 63.99 111.76 63.87 111.67 63.71 111.45 63.54 111.24 62.95 110.99 62.62 110.72 62.47 110.5 62.42 110.11 62.53 109.77 62.83 109.51 63.41 109.4 64.25 109.43 65.07 109.43 65.13 109.39 65.67 109.3 66.26 109.16 66.89 109 67.57 108.48 69.97 108.21 71.62 107.95 73.02 107.7 74.22 107.44 75.17 107.19 75.88 106.93 76.35 106.99 76.83 107.2 77.01 107.34 77.13 107.49 77.24 107.65 77.31 107.85 77.34 107.91 77.34 108.32 77.15 108.56 77.04 108.8 76.92 108.91 76.78 108.98 76.63 109.12 75.76 109.07 75.26 109.06 75.17 109.24 74.37 109.31 73.42 109.45 72.54 109.58 71.74 109.73 71.03 109.84 70.5 110.41 67.6 110.59 66.68 110.97 67.51 111.91 69.57 113.28 72.63 113.33 72.74 113.37 73.08 113.46 73.42 113.6 73.7 113.79 73.95 113.9 74.23 114.03 74.5 114.22 74.73 114.46 74.93 114.61 75.11 114.77 75.2 114.94 75.2 115.44 74.96 115.53 74.81 115.6 74.61 115.72 74.38 115.91 74.16 116.15 73.9 116.25 73.66 116.21 73.57 116.18 73.48 116.22 73.4 116.27 73.33 116.31 73.01 116.28 72.89 116.34 72.74 116.52 72.33 116.67 72.01 116.89 71.56 117.5 70.32 118.41 68.49 119.68 66 119.77 66.49 119.86 67.06 119.93 67.74 120.02 68.45 120.63 73.15 120.69 75.59 120.79 76.84 120.97 77.31 121.23 77.37 121.43 77.31 121.64 77.28 122.26 77.16 122.42 77.06 122.5 76.95 122.56 76.86 122.81 76.8 122.98 76.68 123.09 76.54 123.13 76.38 122.94 75.8 122.81 75.62"></polygon><path class="cls-1" d="M132.42,75.5l-.27-.06-.28-.09-.31-.15-.18-.12-.15-.17-.13-.19,0-.08-.08-.17v-.16l0-.27.18-.34.38-.39.68-.45h.15l.21-.08.32-.21.4-.15.47-.11.49,0h.18l.12.06.13.1.09.22.08.23,0,.21,0,.2,0,.28-.11.31-.16.34-.24.35-.08.21v0l-.09.08-.24.21-.38.15-.33.14-.3.09-.27,0Zm.19-9-.65.06-.55.12-.39.15-.42.09-.27.18-.15.21-.08.21,0,0L130,68l0,.21.14.18.21.12.27,0,.17,0,.18-.05.2-.07.21-.12.06,0,.06-.06,0,0,1.45-.08,0,0,1,.44.5.45.29.56.09.71,0,.31,0,.12-.09.1-.15.06-.19.06-.25,0-.7.17-1,.4-.89.5-.82.61-.72.72-.23.27-.16.31-.11.34,0,.38,0,.33,0,.44.08.26.12.22.16.2.55.47.5.24.57.15.65,0,.33,0,.32,0,.3-.05.89-.32.6-.21.14-.14.09-.06v0h.06v.53l0,.09,0,.06-.08.09-.12.3-.09.29-.06.27V78l.09.57.37.24.14.05.32.09.18,0,.27-.1.35-.24.48-.44.09-.24,0-.43,0-.48V77l-.09-.39-.08-.36v-.09l0-.23v-.6l.08-.24,0-1.33V72.66l0-.38v0l.06-.36v0l.07-.09.26-.41v-.09l0-.22-.14-.15-.14-.08-.1,0h0l0,0-.13-1.48L136,68.09l0,0-.62-.86-.87-.54-1.09-.18Z"></path><polygon class="cls-1" points="149.92 68.1 149.71 67.95 149.61 67.91 149.49 67.84 149.25 67.78 148.99 67.75 148.94 67.75 148.91 67.75 148.58 67.62 147.93 67.83 147.81 67.88 147.74 67.91 147.74 67.88 147.72 67.84 147.57 67.72 147.51 67.68 147.28 67.63 146.83 67.71 146.77 67.72 146.77 67.51 146.76 67.23 146.8 66.43 146.89 65.61 147.06 64.75 147.28 63.87 147.45 63.77 147.51 63.63 147.51 63.56 147.42 63.3 147.39 63.21 147.36 63.1 147.28 62.88 147.01 62.8 146.91 62.79 146.35 62.65 146.26 62.67 146.06 62.76 145.91 62.86 145.78 63.01 145.66 63.16 145.56 63.27 145.52 63.34 145.38 63.66 145.31 63.9 145.26 64.1 145.25 64.27 145.25 64.75 145.22 65.35 145.17 66 145.07 66.62 144.93 67.21 144.78 67.36 144.61 67.48 144.43 67.57 144.24 67.62 143.95 67.69 143.57 67.69 142.74 67.77 142.61 67.81 142.52 67.89 142.4 68.01 142.31 68.16 142.26 68.37 142.41 68.72 142.86 68.95 143.63 69.07 144.74 69.14 144.82 69.22 144.92 69.28 144.95 69.28 144.89 69.91 144.84 70.53 144.81 71.14 144.81 71.71 144.82 72.48 144.87 73.24 144.96 73.93 145.1 74.58 145.11 74.66 145.59 75.47 146.12 76.12 146.71 76.62 147.33 76.92 147.45 77.01 147.63 77.18 147.72 77.24 147.92 77.31 148.31 77.36 148.48 77.39 148.57 77.43 148.64 77.46 148.7 77.46 148.99 77.36 149.13 77.22 149.23 77.07 149.32 76.94 149.32 76.92 149.34 76.89 149.35 76.84 149.41 76.75 149.5 76.62 149.62 76.41 149.7 76.23 149.73 76.06 149.58 75.7 149.56 75.68 149.43 75.56 149.2 75.49 149 75.49 148.25 75.36 148.2 75.32 147.81 75.03 147.44 74.81 147.16 74.58 146.98 74.37 146.89 74.25 146.86 74.11 146.67 73.73 146.56 73.42 146.51 73.11 146.49 72.83 146.44 72.45 146.44 72.39 146.43 71.86 146.44 71.33 146.49 70.72 146.54 70.02 146.64 69.22 146.79 69.22 146.92 69.23 147.42 69.22 147.5 69.22 147.86 69.2 148.05 69.2 148.23 69.23 148.42 69.3 148.6 69.37 148.73 69.37 148.79 69.37 148.9 69.43 148.99 69.48 149.2 69.43 149.35 69.34 149.49 69.22 149.7 69.23 149.71 69.22 149.74 69.2 149.8 69.16 149.95 69.02 150.07 68.83 150.12 68.57 150.01 68.21 149.92 68.1"></polygon><polygon class="cls-1" points="163.71 75.21 163.37 75.02 163.12 75.06 162.91 75.15 162.75 75.23 162.48 75.39 161.86 75.39 160.68 75.5 160.11 75.47 159.58 75.36 159.08 75.18 158.7 74.99 158.63 74.96 158.67 74.99 158.6 74.94 158.63 74.96 158.31 74.72 157.94 74.44 157.69 74.26 155.79 74.26 155.78 74.26 155.82 74.44 155.96 74.76 156.16 75.11 156.41 75.47 157.03 76.09 157.9 76.54 159.1 76.89 160.65 77.22 160.57 77.19 161.25 77.3 161.77 77.3 162.4 77.28 162.6 77.31 162.75 77.28 163.08 77.21 163.09 77.19 163.49 76.88 163.76 76.41 163.86 75.83 163.77 75.5 163.71 75.21"></polygon><path class="cls-1" d="M162.11,69.82v0l-.06.21-.07,0h-.18l-3.44.13h-.47v0h0l.32-.44.31-.38.34-.32.33-.28.12,0,.18-.13.15-.1h0l.44-.12h.65l.09,0,.4.12.31.14.21.15.13.18.06.1,0,.15,0,.22,0,.3,0,.13Zm1.83.52v-.08l0,0v0h0l0-.13V70l0-.09-.08-.3-.1-.69-.18-.53,0-.06-.32-.49-.49-.37-.21-.14-.11-.06-.35-.13-.34-.1-.38,0L161,67l-.34,0-.38.07-.39.1h0l-.11.06-.11,0h-.25l-.21,0-.17.06-.15.09-.12.09-1.09.74-.66.6-.48.65-.34.71-.27.64-.19.66-.12.68,0,.69,0,.35,0,.33.07.34.09.24h1.89l0,0-.11-.15-.12-.39-.1-.51,0-.13-.07-.51.06-.39v-.15l.06,0,0-.09,0-.09h.09l.17,0,.09,0,.22-.06.31,0,.34,0H159l.95,0,.44,0,.32,0,.31,0,.35,0,.5,0,.16,0,.14,0v0l.22.09.1,0,.26.11h.15l.09-.09.06-.06h0l.41,0,.08-.06.07,0,.08,0,.09-.17,0-.13.09-.14,0-.17v-.19l0-.09Z"></path><polygon class="cls-1" points="176.44 68.28 176.26 68.22 175.59 68.37 174.74 68.6 174.02 68.98 173.38 69.52 172.85 70.22 172.85 70.08 172.85 69.78 172.84 69.42 172.87 68.92 172.91 68.54 172.99 68.25 173.07 68.01 173.19 67.45 173.19 67.29 173.17 67.24 173.08 67.03 173.04 66.94 172.9 66.77 172.28 66.61 172.04 66.64 171.8 66.7 171.56 66.8 171.3 66.97 171.26 67.02 171.06 67.29 170.97 67.71 171 68.01 171.07 68.6 171.17 69.57 171.26 70.93 171.29 72.44 171.29 72.78 171.23 75.03 171.07 75.71 170.91 76.57 171.12 76.94 171.87 77.06 172.43 77.04 172.64 76.94 172.72 76.88 172.76 76.8 172.98 76.74 173.14 76.59 173.26 76.36 173.31 76.06 173.31 75.97 173.25 75.77 173.11 75.53 173.01 75.18 172.93 74.75 172.87 74.2 172.88 74.16 172.98 73.99 173.01 73.72 172.98 73.36 172.98 73.27 173.1 72.78 173.13 72.68 173.13 72.44 173.22 72.28 173.31 72.1 173.38 71.91 173.44 71.69 173.5 71.58 173.62 71.33 173.87 71 174.24 70.55 174.42 70.44 174.62 70.32 174.8 70.23 174.86 70.22 174.94 70.2 174.98 70.2 175.09 70.23 175.27 70.32 175.54 70.46 175.71 70.5 175.95 70.5 176.19 70.4 176.31 70.26 176.35 70.2 176.41 70.11 176.49 69.96 176.54 69.79 176.67 69.51 176.87 69.01 176.87 68.89 176.84 68.75 176.44 68.28"></polygon><polygon class="cls-1" points="185.54 75.89 185.44 75.64 185.33 75.44 185.21 75.2 185.15 74.75 185.12 74.22 185.09 73.63 185.09 73 185.26 69.84 185.39 67.8 185.39 67.75 185.36 67.51 185.33 67.23 185.26 66.95 185.09 66.76 185.04 66.74 184.82 66.68 184.53 66.74 184.56 66.74 183.99 66.98 183.67 67.11 183.38 67.27 183.19 67.51 183.1 67.89 183.13 68.21 183.2 68.47 183.28 68.66 183.37 68.81 183.43 68.92 183.41 69.04 183.4 69.52 183.49 73.1 183.47 73.83 183.46 74.43 183.43 74.93 183.4 75.32 183.26 75.62 183.17 75.97 183.11 76.33 183.08 76.68 183.1 76.81 183.23 77.04 183.41 77.22 183.64 77.34 183.9 77.37 184.17 77.34 184.37 77.3 184.53 77.28 185.06 77.1 185.44 76.95 185.65 76.78 185.71 76.56 185.65 76.19 185.54 75.89"></polygon><polygon class="cls-1" points="185.93 64.22 185.74 64.09 185.54 63.98 185.12 63.75 184.91 63.69 184.5 63.78 184.14 64.04 183.87 64.37 183.76 64.7 183.76 64.81 183.79 64.98 183.96 65.05 184.18 65.32 184.47 65.56 184.74 65.7 185.03 65.75 185.42 65.66 185.78 65.41 186.04 65.08 186.06 64.99 186.13 64.7 186.07 64.43 185.93 64.22"></polygon><path class="cls-1" d="M195.36,75.5l-.27-.06-.28-.09-.31-.15-.18-.12-.15-.17-.13-.19,0-.08-.08-.17v-.16l0-.27.18-.34.38-.39.68-.45h.13l.23-.08.32-.21.4-.15.47-.11.48,0h.19l.11.06.14.1.09.22.08.23,0,.21,0,.2,0,.28-.11.31-.16.34-.25.35-.07.21v0l-.09.08-.24.21-.38.15-.33.14-.3.09-.28,0Zm.18-9-.64.06-.53.12-.41.15-.42.09-.27.18-.15.21-.08.21,0,0-.12.43,0,.21.14.18.21.12.27,0,.17,0,.18-.05.2-.07.21-.12.06,0,.06-.06.06,0,1.43-.08,0,0,1,.44.5.45.29.56.1.71,0,.31,0,.12-.09.1-.15.06-.2.06-.24,0-.71.17-1,.4-.89.5-.82.61-.72.72-.23.27-.16.31-.11.34,0,.38v.08l0-.08,0,.33v.44l.08.26.12.22.16.2.55.47.49.24.58.15.65,0,.33,0,.31,0,.31-.07.89-.3.6-.21.14-.14.09-.06v0h.06v.53l0,.09,0,.06-.08.09-.12.3-.1.29,0,.27,0,.29.1.57.37.24.14.05.31.09.19,0,.27-.1.36-.24.47-.44.09-.24,0-.43,0-.48V77l-.09-.39-.08-.36v-.09l0-.23v-.6l.08-.24,0-1.33V72.66l0-.38v0l.06-.36v0l.07-.09.26-.41v-.09l-.06-.22-.12-.15-.14-.08-.1,0h0l0,0-.13-1.48-.4-1.19v0l-.62-.86-.87-.54-1.08-.18Z"></path></g></g></svg> 