<?xml version="1.0" encoding="utf-8"?>
<!-- Generator: Adobe Illustrator 26.2.1, SVG Export Plug-In . SVG Version: 6.00 Build 0)  -->
<svg version="1.1" id="Livello_1" xmlns:serif="http://www.serif.com/"
	 xmlns="http://www.w3.org/2000/svg" xmlns:xlink="http://www.w3.org/1999/xlink" x="0px" y="0px" viewBox="0 0 300 92"
	 style="enable-background:new 0 0 300 92;" xml:space="preserve">
<style type="text/css">
	.st0{fill-rule:evenodd;clip-rule:evenodd;fill:#FF6600;}
</style>
<path class="st0" d="M130.9,56.4c0,4.1-3.3,7.4-7.4,7.4h-17.8c-4.1,0-7.4-3.3-7.4-7.4V10.1c0-4.1,3.3-7.4,7.4-7.4h16
	c3.3,0,5.5,2.7,7.7,6.2l20.8,36.7L171,8.9c2.2-3.5,4.5-6.2,7.7-6.2h16c4.1,0,7.4,3.4,7.4,7.4v46.2c0,4.1-3.3,7.4-7.4,7.4h-17.8
	c-4.1,0-7.4-3.3-7.4-7.4V37.5L158,57.5c-1.7,2.9-4.4,6.4-7.8,6.4s-6.1-3.5-7.8-6.4l-11.5-19.9V56.4 M3,31V10.1C3,6,6.4,2.7,10.5,2.7
	h73.4c4.1,0,7.4,3.4,7.4,7.4v3.7c0,4.1-3.4,7.4-7.4,7.4H37.6c-1.8,0-3.4,1.5-3.4,3.4c0,1.8,1.5,3.4,3.4,3.4h46.3
	c4.1,0,7.4,3.4,7.4,7.4v20.8c0,4.1-3.4,7.5-7.4,7.5H10.5c-4.1,0-7.4-3.4-7.4-7.4v-3.7c0-4.1,3.4-7.4,7.4-7.4h46.3
	c1.8,0,3.4-1.5,3.4-3.4c0-1.8-1.5-3.4-3.4-3.4H10.5C6.4,38.5,3,35.1,3,31z M238.7,41.8c0,1.8,1.5,3.4,3.4,3.4h47.9
	c4.1,0,7.4,3.4,7.4,7.4v3.7c0,4.1-3.4,7.4-7.4,7.4h-75c-4.1,0-7.4-3.4-7.4-7.4V10.1c0-4.1,3.4-7.4,7.4-7.4h75c4.1,0,7.4,3.4,7.4,7.4
	v3.7c0,4.1-3.4,7.4-7.4,7.4H242c-1.8,0-3.4,1.5-3.4,3.4c0,1.8,1.5,3.4,3.4,3.4h50.1c2.9,0,5.2,2.3,5.2,5.2s-2.3,5.2-5.2,5.2H242
	C240.2,38.5,238.7,40,238.7,41.8z"/>
<g transform="matrix(1.771,0,0,1.771,-1.6979,-0.295379)">
	<path d="M8.6,49c0.2,0,0.4,0.1,0.5,0.2c0.1,0.1,0.2,0.3,0.2,0.5c0,0.2-0.1,0.4-0.2,0.5c-0.1,0.1-0.3,0.2-0.5,0.2H3.4
		c-0.2,0-0.4-0.1-0.5-0.2c-0.1-0.1-0.2-0.3-0.2-0.5v-9.3c0-0.2,0.1-0.4,0.2-0.5c0.1-0.1,0.3-0.2,0.6-0.2c0.2,0,0.4,0.1,0.5,0.2
		c0.2,0.1,0.2,0.3,0.2,0.5V49H8.6z"/>
	<path d="M17.6,42.2c0.2,0,0.4,0.1,0.5,0.2c0.1,0.1,0.2,0.3,0.2,0.6v6.7c0,0.2-0.1,0.4-0.2,0.5c-0.1,0.1-0.3,0.2-0.5,0.2
		c-0.2,0-0.4-0.1-0.5-0.2c-0.1-0.1-0.2-0.3-0.2-0.5v-0.4c-0.3,0.4-0.6,0.7-1.1,0.9c-0.5,0.3-1,0.4-1.5,0.4c-0.7,0-1.3-0.2-1.9-0.5
		c-0.6-0.4-1-0.9-1.3-1.5c-0.3-0.6-0.5-1.4-0.5-2.2s0.2-1.5,0.5-2.2c0.3-0.6,0.8-1.1,1.3-1.5c0.6-0.4,1.2-0.5,1.9-0.5
		c0.5,0,1.1,0.1,1.5,0.3c0.5,0.2,0.8,0.5,1.1,0.9V43c0-0.2,0.1-0.4,0.2-0.5C17.2,42.3,17.3,42.2,17.6,42.2z M14.4,49.2
		c0.5,0,0.9-0.1,1.3-0.4c0.4-0.2,0.7-0.6,0.9-1c0.2-0.4,0.3-0.9,0.3-1.5c0-0.5-0.1-1-0.3-1.5c-0.2-0.4-0.5-0.8-0.9-1
		c-0.4-0.3-0.8-0.4-1.3-0.4c-0.5,0-0.9,0.1-1.3,0.4c-0.4,0.2-0.7,0.6-0.9,1c-0.2,0.4-0.3,0.9-0.3,1.5c0,0.6,0.1,1,0.3,1.5
		c0.2,0.4,0.5,0.8,0.9,1C13.5,49.1,13.9,49.2,14.4,49.2z"/>
	<path d="M24.3,49.2c-0.1-0.1-0.1-0.3-0.1-0.4c0-0.2,0.1-0.4,0.3-0.5c0.1-0.1,0.2-0.1,0.4-0.1c0.2,0,0.4,0.1,0.5,0.2
		c0.3,0.4,0.6,0.6,1,0.8c0.4,0.2,0.8,0.3,1.3,0.3c0.4,0,0.7-0.1,1-0.3c0.3-0.2,0.4-0.4,0.4-0.8c0-0.4-0.2-0.6-0.5-0.8
		c-0.3-0.2-0.7-0.4-1.3-0.5c-0.6-0.2-1.1-0.3-1.4-0.5c-0.4-0.2-0.7-0.4-1-0.7c-0.3-0.3-0.4-0.7-0.4-1.3c0-0.5,0.1-0.9,0.4-1.2
		c0.3-0.4,0.6-0.6,1.1-0.8c0.4-0.2,0.9-0.3,1.4-0.3c0.5,0,1,0.1,1.5,0.3c0.5,0.2,0.9,0.5,1.2,0.9c0.1,0.1,0.2,0.3,0.2,0.4
		c0,0.2-0.1,0.3-0.2,0.5c-0.1,0.1-0.2,0.1-0.4,0.1c-0.2,0-0.3-0.1-0.4-0.2c-0.2-0.2-0.5-0.4-0.8-0.6c-0.3-0.1-0.7-0.2-1-0.2
		c-0.4,0-0.7,0.1-1,0.2c-0.3,0.2-0.4,0.4-0.4,0.8c0,0.4,0.2,0.6,0.5,0.8c0.3,0.2,0.8,0.3,1.4,0.5c0.5,0.1,1,0.3,1.4,0.5
		c0.4,0.2,0.7,0.4,0.9,0.7c0.2,0.3,0.4,0.7,0.4,1.3c0,0.5-0.1,0.9-0.4,1.3c-0.3,0.4-0.6,0.6-1.1,0.8c-0.4,0.2-0.9,0.3-1.4,0.3
		c-0.6,0-1.3-0.1-1.8-0.3C25.1,50,24.7,49.7,24.3,49.2z"/>
	<path d="M35.6,42.2c0.8,0,1.5,0.1,2,0.4c0.5,0.3,0.8,0.6,0.8,1c0,0.2-0.1,0.3-0.2,0.5c-0.1,0.1-0.3,0.2-0.4,0.2
		c-0.1,0-0.2,0-0.3-0.1c-0.1,0-0.2-0.1-0.3-0.2c-0.1-0.1-0.2-0.1-0.3-0.2c-0.1-0.1-0.3-0.1-0.5-0.2c-0.2,0-0.4-0.1-0.6-0.1
		c-0.5,0-1,0.1-1.4,0.4c-0.4,0.2-0.7,0.6-1,1c-0.2,0.4-0.3,0.9-0.3,1.5c0,0.6,0.1,1,0.3,1.5c0.2,0.4,0.5,0.8,0.9,1
		c0.4,0.2,0.9,0.4,1.4,0.4c0.5,0,1-0.1,1.3-0.2c0.1,0,0.2-0.1,0.3-0.2c0.1-0.1,0.2-0.1,0.3-0.2c0.1,0,0.2-0.1,0.3-0.1
		c0.2,0,0.4,0.1,0.5,0.2c0.1,0.1,0.2,0.3,0.2,0.5c0,0.2-0.1,0.4-0.4,0.6c-0.3,0.2-0.6,0.4-1.1,0.5c-0.5,0.1-1,0.2-1.5,0.2
		c-0.8,0-1.5-0.2-2.1-0.6c-0.6-0.4-1.1-0.9-1.4-1.5c-0.3-0.6-0.5-1.4-0.5-2.2c0-0.8,0.2-1.5,0.5-2.2c0.3-0.6,0.8-1.1,1.4-1.5
		C34.2,42.3,34.9,42.2,35.6,42.2z"/>
	<path d="M47.2,46.1c0,0.2-0.1,0.3-0.2,0.5c-0.1,0.1-0.3,0.2-0.5,0.2H41c0.1,0.7,0.4,1.4,0.9,1.8c0.5,0.5,1.1,0.7,1.8,0.7
		c0.5,0,0.9-0.1,1.2-0.2c0.3-0.1,0.6-0.3,0.8-0.6c0.2-0.1,0.3-0.1,0.4-0.1c0.2,0,0.3,0.1,0.4,0.2c0.1,0.1,0.2,0.3,0.2,0.4
		c0,0.2-0.1,0.4-0.3,0.6c-0.3,0.3-0.7,0.6-1.2,0.8c-0.5,0.2-1,0.3-1.5,0.3c-0.8,0-1.6-0.2-2.2-0.5c-0.6-0.4-1.1-0.8-1.5-1.5
		c-0.3-0.6-0.5-1.3-0.5-2.1c0-0.9,0.2-1.6,0.5-2.3c0.4-0.7,0.8-1.2,1.4-1.5c0.6-0.4,1.2-0.5,1.9-0.5c0.7,0,1.3,0.2,1.9,0.5
		c0.6,0.3,1,0.8,1.4,1.4C47,44.7,47.2,45.3,47.2,46.1z M43.4,43.5c-0.6,0-1.1,0.2-1.5,0.5c-0.4,0.3-0.7,0.8-0.8,1.5h4.6v-0.1
		c-0.1-0.5-0.3-1-0.7-1.3C44.4,43.7,43.9,43.5,43.4,43.5z"/>
	<path d="M50.5,49.7c0,0.2-0.1,0.4-0.2,0.5c-0.1,0.1-0.3,0.2-0.5,0.2s-0.4-0.1-0.5-0.2c-0.1-0.1-0.2-0.3-0.2-0.5v-10
		c0-0.2,0.1-0.4,0.2-0.5c0.1-0.1,0.3-0.2,0.5-0.2c0.2,0,0.4,0.1,0.5,0.2c0.1,0.1,0.2,0.3,0.2,0.5V49.7z"/>
	<path d="M54.9,43.8v4.6c0,0.5,0.2,0.8,0.7,0.8c0.1,0,0.2,0,0.3-0.1c0.1,0,0.2-0.1,0.3-0.1c0.1,0,0.2,0.1,0.3,0.2
		c0.1,0.1,0.1,0.3,0.1,0.4c0,0.2-0.1,0.4-0.4,0.6c-0.2,0.2-0.5,0.2-0.8,0.2c-0.3,0-0.7,0-0.9-0.1c-0.3-0.1-0.5-0.3-0.8-0.6
		c-0.2-0.3-0.3-0.7-0.3-1.3v-4.7h-0.9c-0.2,0-0.4-0.1-0.5-0.2c-0.1-0.1-0.2-0.3-0.2-0.5s0.1-0.4,0.2-0.5c0.1-0.1,0.3-0.2,0.5-0.2
		h0.9v-1.3c0-0.2,0.1-0.4,0.2-0.5c0.1-0.1,0.3-0.2,0.5-0.2c0.2,0,0.4,0.1,0.5,0.2c0.1,0.1,0.2,0.3,0.2,0.5v1.3h1.3
		c0.2,0,0.4,0.1,0.5,0.2c0.1,0.1,0.2,0.3,0.2,0.5s-0.1,0.4-0.2,0.5c-0.1,0.1-0.3,0.2-0.5,0.2H54.9z"/>
	<path d="M65.2,42.2c0.2,0,0.4,0.1,0.5,0.2c0.1,0.1,0.2,0.3,0.2,0.6v6.7c0,0.2-0.1,0.4-0.2,0.5c-0.1,0.1-0.3,0.2-0.5,0.2
		c-0.2,0-0.4-0.1-0.5-0.2c-0.1-0.1-0.2-0.3-0.2-0.5v-0.4c-0.3,0.4-0.6,0.7-1.1,0.9c-0.5,0.3-1,0.4-1.5,0.4c-0.7,0-1.3-0.2-1.9-0.5
		c-0.6-0.4-1-0.9-1.3-1.5c-0.3-0.6-0.5-1.4-0.5-2.2s0.2-1.5,0.5-2.2c0.3-0.6,0.8-1.1,1.3-1.5c0.6-0.4,1.2-0.5,1.9-0.5
		c0.5,0,1.1,0.1,1.5,0.3c0.5,0.2,0.8,0.5,1.1,0.9V43c0-0.2,0.1-0.4,0.2-0.5C64.8,42.3,64.9,42.2,65.2,42.2z M62,49.2
		c0.5,0,0.9-0.1,1.3-0.4c0.4-0.2,0.7-0.6,0.9-1c0.2-0.4,0.3-0.9,0.3-1.5c0-0.5-0.1-1-0.3-1.5c-0.2-0.4-0.5-0.8-0.9-1
		c-0.4-0.3-0.8-0.4-1.3-0.4c-0.5,0-0.9,0.1-1.3,0.4c-0.4,0.2-0.7,0.6-0.9,1c-0.2,0.4-0.3,0.9-0.3,1.5c0,0.6,0.1,1,0.3,1.5
		c0.2,0.4,0.5,0.8,0.9,1C61.1,49.1,61.5,49.2,62,49.2z"/>
	<path d="M75.9,42.2c0.8,0,1.5,0.1,2,0.4c0.5,0.3,0.8,0.6,0.8,1c0,0.2-0.1,0.3-0.2,0.5c-0.1,0.1-0.3,0.2-0.4,0.2
		c-0.1,0-0.2,0-0.3-0.1c-0.1,0-0.2-0.1-0.3-0.2c-0.1-0.1-0.2-0.1-0.3-0.2c-0.1-0.1-0.3-0.1-0.5-0.2c-0.2,0-0.4-0.1-0.6-0.1
		c-0.5,0-1,0.1-1.4,0.4c-0.4,0.2-0.7,0.6-1,1c-0.2,0.4-0.3,0.9-0.3,1.5c0,0.6,0.1,1,0.3,1.5c0.2,0.4,0.5,0.8,0.9,1
		c0.4,0.2,0.9,0.4,1.4,0.4c0.5,0,1-0.1,1.3-0.2c0.1,0,0.2-0.1,0.3-0.2c0.1-0.1,0.2-0.1,0.3-0.2c0.1,0,0.2-0.1,0.3-0.1
		c0.2,0,0.4,0.1,0.5,0.2c0.1,0.1,0.2,0.3,0.2,0.5c0,0.2-0.1,0.4-0.4,0.6c-0.3,0.2-0.6,0.4-1.1,0.5c-0.5,0.1-0.9,0.2-1.5,0.2
		c-0.8,0-1.5-0.2-2.1-0.6c-0.6-0.4-1.1-0.9-1.4-1.5c-0.3-0.6-0.5-1.4-0.5-2.2c0-0.8,0.2-1.5,0.5-2.2c0.3-0.6,0.8-1.1,1.4-1.5
		C74.4,42.3,75.1,42.2,75.9,42.2z"/>
	<path d="M84.3,42.2c1.8,0,2.7,1.1,2.7,3.4v4.1c0,0.2-0.1,0.4-0.2,0.5c-0.1,0.1-0.3,0.2-0.5,0.2c-0.2,0-0.4-0.1-0.5-0.2
		c-0.1-0.1-0.2-0.3-0.2-0.5v-4.1c0-1.3-0.6-2-1.7-2c-0.6,0-1.1,0.2-1.5,0.6c-0.4,0.4-0.6,0.9-0.6,1.4v4.1c0,0.2-0.1,0.4-0.2,0.5
		c-0.1,0.1-0.3,0.2-0.5,0.2c-0.2,0-0.4-0.1-0.5-0.2c-0.1-0.1-0.2-0.3-0.2-0.5v-10c0-0.2,0.1-0.4,0.2-0.5c0.1-0.1,0.3-0.2,0.5-0.2
		c0.2,0,0.4,0.1,0.5,0.2c0.1,0.1,0.2,0.3,0.2,0.5v3.9c0.3-0.4,0.6-0.7,1.1-1C83.3,42.4,83.8,42.2,84.3,42.2z"/>
	<path d="M96.3,46.1c0,0.2-0.1,0.3-0.2,0.5c-0.1,0.1-0.3,0.2-0.5,0.2h-5.4c0.1,0.7,0.4,1.4,0.9,1.8c0.5,0.5,1.1,0.7,1.8,0.7
		c0.5,0,0.9-0.1,1.2-0.2c0.3-0.1,0.6-0.3,0.8-0.6c0.2-0.1,0.3-0.1,0.4-0.1c0.2,0,0.3,0.1,0.4,0.2c0.1,0.1,0.2,0.3,0.2,0.4
		c0,0.2-0.1,0.4-0.3,0.6c-0.3,0.3-0.7,0.6-1.2,0.8c-0.5,0.2-1,0.3-1.5,0.3c-0.8,0-1.6-0.2-2.2-0.5c-0.6-0.4-1.1-0.8-1.5-1.5
		c-0.3-0.6-0.5-1.3-0.5-2.1c0-0.9,0.2-1.6,0.5-2.3c0.4-0.7,0.8-1.2,1.4-1.5c0.6-0.4,1.2-0.5,1.9-0.5c0.7,0,1.3,0.2,1.9,0.5
		c0.6,0.3,1,0.8,1.4,1.4C96.2,44.7,96.3,45.3,96.3,46.1z M92.6,43.5c-0.6,0-1.1,0.2-1.5,0.5c-0.4,0.3-0.7,0.8-0.8,1.5h4.6v-0.1
		c-0.1-0.5-0.3-1-0.7-1.3C93.6,43.7,93.1,43.5,92.6,43.5z"/>
	<path d="M105.9,42.2c0.8,0,1.5,0.1,2,0.4c0.5,0.3,0.8,0.6,0.8,1c0,0.2-0.1,0.3-0.2,0.5c-0.1,0.1-0.3,0.2-0.4,0.2
		c-0.1,0-0.2,0-0.3-0.1c-0.1,0-0.2-0.1-0.3-0.2c-0.1-0.1-0.2-0.1-0.3-0.2c-0.1-0.1-0.3-0.1-0.5-0.2c-0.2,0-0.4-0.1-0.6-0.1
		c-0.5,0-1,0.1-1.4,0.4c-0.4,0.2-0.7,0.6-1,1c-0.2,0.4-0.3,0.9-0.3,1.5c0,0.6,0.1,1,0.3,1.5c0.2,0.4,0.5,0.8,0.9,1
		c0.4,0.2,0.9,0.4,1.4,0.4c0.5,0,1-0.1,1.3-0.2c0.1,0,0.2-0.1,0.3-0.2c0.1-0.1,0.2-0.1,0.3-0.2c0.1,0,0.2-0.1,0.3-0.1
		c0.2,0,0.4,0.1,0.5,0.2c0.1,0.1,0.2,0.3,0.2,0.5c0,0.2-0.1,0.4-0.4,0.6c-0.3,0.2-0.6,0.4-1.1,0.5c-0.5,0.1-0.9,0.2-1.5,0.2
		c-0.8,0-1.5-0.2-2.1-0.6c-0.6-0.4-1.1-0.9-1.4-1.5c-0.3-0.6-0.5-1.4-0.5-2.2c0-0.8,0.2-1.5,0.5-2.2c0.3-0.6,0.8-1.1,1.4-1.5
		C104.4,42.3,105.1,42.2,105.9,42.2z"/>
	<path d="M117.9,46.4c0,0.8-0.2,1.5-0.5,2.2c-0.4,0.6-0.9,1.1-1.5,1.5c-0.6,0.4-1.3,0.5-2.1,0.5c-0.8,0-1.4-0.2-2.1-0.5
		c-0.6-0.4-1.1-0.9-1.5-1.5c-0.4-0.6-0.5-1.4-0.5-2.2s0.2-1.5,0.5-2.2c0.4-0.6,0.9-1.2,1.5-1.5c0.6-0.4,1.3-0.5,2.1-0.5
		c0.7,0,1.4,0.2,2.1,0.5c0.6,0.4,1.1,0.9,1.5,1.5C117.7,44.9,117.9,45.6,117.9,46.4z M116.5,46.4c0-0.6-0.1-1.1-0.4-1.5
		c-0.2-0.4-0.5-0.8-0.9-1c-0.4-0.2-0.8-0.4-1.3-0.4c-0.5,0-0.9,0.1-1.3,0.4c-0.4,0.2-0.7,0.6-0.9,1c-0.2,0.4-0.4,0.9-0.4,1.5
		c0,0.5,0.1,1,0.4,1.5c0.2,0.4,0.5,0.8,0.9,1c0.4,0.2,0.8,0.4,1.3,0.4c0.5,0,0.9-0.1,1.3-0.4c0.4-0.2,0.7-0.6,0.9-1
		C116.3,47.4,116.5,46.9,116.5,46.4z"/>
	<path d="M123.8,42.2c1.9,0,2.8,1.1,2.8,3.3v4.2c0,0.2-0.1,0.4-0.2,0.5c-0.1,0.1-0.3,0.2-0.5,0.2c-0.2,0-0.4-0.1-0.5-0.2
		c-0.1-0.1-0.2-0.3-0.2-0.5v-4.2c0-0.6-0.1-1.1-0.4-1.5c-0.3-0.4-0.7-0.5-1.4-0.5c-0.4,0-0.8,0.1-1.1,0.3c-0.3,0.2-0.6,0.4-0.8,0.7
		c-0.2,0.3-0.3,0.6-0.3,1v4.2c0,0.2-0.1,0.4-0.2,0.5c-0.1,0.1-0.3,0.2-0.5,0.2c-0.2,0-0.4-0.1-0.5-0.2c-0.1-0.1-0.2-0.3-0.2-0.5
		v-6.6c0-0.2,0.1-0.4,0.2-0.5c0.1-0.1,0.3-0.2,0.5-0.2c0.2,0,0.4,0.1,0.5,0.2c0.1,0.1,0.2,0.3,0.2,0.5v0.5c0.3-0.4,0.6-0.8,1.1-1
		C122.7,42.3,123.2,42.2,123.8,42.2z"/>
	<path d="M134.8,42.3c0.2,0,0.4,0.1,0.5,0.2c0.1,0.1,0.2,0.3,0.2,0.5c0,0.1,0,0.2-0.1,0.4l-2.9,6.7c-0.1,0.1-0.1,0.2-0.3,0.3
		c-0.1,0.1-0.2,0.1-0.4,0.1c-0.2,0-0.3,0-0.5-0.1c-0.1-0.1-0.2-0.2-0.3-0.4l-2.9-6.7c-0.1-0.2-0.1-0.3-0.1-0.4
		c0-0.2,0.1-0.3,0.2-0.4c0.1-0.1,0.3-0.2,0.5-0.2c0.2,0,0.3,0,0.4,0.1c0.1,0.1,0.2,0.2,0.3,0.4l2.3,5.4l2.3-5.4
		C134.3,42.4,134.5,42.3,134.8,42.3z"/>
	<path d="M138.5,49.7c0,0.2-0.1,0.4-0.2,0.5c-0.1,0.1-0.3,0.2-0.5,0.2c-0.2,0-0.4-0.1-0.5-0.2c-0.1-0.1-0.2-0.3-0.2-0.5V43
		c0-0.2,0.1-0.4,0.2-0.5c0.1-0.1,0.3-0.2,0.5-0.2c0.2,0,0.4,0.1,0.5,0.2c0.1,0.1,0.2,0.3,0.2,0.5V49.7z M137.8,41.3
		c-0.3,0-0.5-0.1-0.6-0.2c-0.1-0.1-0.2-0.3-0.2-0.5v-0.2c0-0.2,0.1-0.4,0.2-0.5c0.1-0.1,0.4-0.2,0.6-0.2c0.3,0,0.5,0.1,0.6,0.2
		c0.1,0.1,0.2,0.3,0.2,0.5v0.2c0,0.2-0.1,0.4-0.2,0.5C138.3,41.2,138.1,41.3,137.8,41.3z"/>
	<path d="M147.7,46.1c0,0.2-0.1,0.3-0.2,0.5c-0.1,0.1-0.3,0.2-0.5,0.2h-5.4c0.1,0.7,0.4,1.4,0.9,1.8c0.5,0.5,1.1,0.7,1.8,0.7
		c0.5,0,0.9-0.1,1.2-0.2c0.3-0.1,0.6-0.3,0.8-0.6c0.2-0.1,0.3-0.1,0.4-0.1c0.2,0,0.3,0.1,0.4,0.2c0.1,0.1,0.2,0.3,0.2,0.4
		c0,0.2-0.1,0.4-0.3,0.6c-0.3,0.3-0.7,0.6-1.2,0.8c-0.5,0.2-1,0.3-1.5,0.3c-0.8,0-1.6-0.2-2.2-0.5c-0.6-0.4-1.1-0.8-1.5-1.5
		c-0.3-0.6-0.5-1.3-0.5-2.1c0-0.9,0.2-1.6,0.5-2.3c0.4-0.7,0.8-1.2,1.4-1.5c0.6-0.4,1.2-0.5,1.9-0.5c0.7,0,1.3,0.2,1.8,0.5
		c0.6,0.3,1,0.8,1.4,1.4C147.5,44.7,147.7,45.3,147.7,46.1z M143.9,43.5c-0.6,0-1.1,0.2-1.5,0.5c-0.4,0.3-0.7,0.8-0.8,1.5h4.6v-0.1
		c-0.1-0.5-0.3-1-0.7-1.3C145,43.7,144.5,43.5,143.9,43.5z"/>
	<path d="M153.6,42.2c1.9,0,2.8,1.1,2.8,3.3v4.2c0,0.2-0.1,0.4-0.2,0.5c-0.1,0.1-0.3,0.2-0.5,0.2c-0.2,0-0.4-0.1-0.5-0.2
		c-0.1-0.1-0.2-0.3-0.2-0.5v-4.2c0-0.6-0.1-1.1-0.4-1.5c-0.3-0.4-0.7-0.5-1.4-0.5c-0.4,0-0.8,0.1-1.1,0.3c-0.3,0.2-0.6,0.4-0.8,0.7
		c-0.2,0.3-0.3,0.6-0.3,1v4.2c0,0.2-0.1,0.4-0.2,0.5c-0.1,0.1-0.3,0.2-0.5,0.2c-0.2,0-0.4-0.1-0.5-0.2c-0.1-0.1-0.2-0.3-0.2-0.5
		v-6.6c0-0.2,0.1-0.4,0.2-0.5c0.1-0.1,0.3-0.2,0.5-0.2c0.2,0,0.4,0.1,0.5,0.2c0.1,0.1,0.2,0.3,0.2,0.5v0.5c0.3-0.4,0.6-0.8,1.1-1
		C152.5,42.3,153,42.2,153.6,42.2z"/>
	<path d="M165.6,46.1c0,0.2-0.1,0.3-0.2,0.5c-0.1,0.1-0.3,0.2-0.5,0.2h-5.4c0.1,0.7,0.4,1.4,0.9,1.8c0.5,0.5,1.1,0.7,1.8,0.7
		c0.5,0,0.9-0.1,1.2-0.2c0.3-0.1,0.6-0.3,0.8-0.6c0.2-0.1,0.3-0.1,0.4-0.1c0.2,0,0.3,0.1,0.4,0.2c0.1,0.1,0.2,0.3,0.2,0.4
		c0,0.2-0.1,0.4-0.3,0.6c-0.3,0.3-0.7,0.6-1.2,0.8c-0.5,0.2-1,0.3-1.5,0.3c-0.8,0-1.6-0.2-2.2-0.5c-0.6-0.4-1.1-0.8-1.5-1.5
		c-0.3-0.6-0.5-1.3-0.5-2.1c0-0.9,0.2-1.6,0.5-2.3c0.4-0.7,0.8-1.2,1.4-1.5c0.6-0.4,1.2-0.5,1.9-0.5c0.7,0,1.3,0.2,1.9,0.5
		c0.6,0.3,1,0.8,1.4,1.4C165.4,44.7,165.6,45.3,165.6,46.1z M161.8,43.5c-0.6,0-1.1,0.2-1.5,0.5c-0.4,0.3-0.7,0.8-0.8,1.5h4.6v-0.1
		c0-0.5-0.3-1-0.7-1.3C162.9,43.7,162.4,43.5,161.8,43.5z"/>
	<path d="M168,47.2c-0.3,0-0.4-0.2-0.5-0.5l-0.3-6.1c0-0.3,0-0.5,0.2-0.7c0.2-0.2,0.4-0.3,0.6-0.3c0.3,0,0.5,0.1,0.6,0.3
		c0.1,0.2,0.2,0.4,0.2,0.7l-0.3,6.1c0,0.2-0.1,0.3-0.1,0.4C168.3,47.2,168.2,47.2,168,47.2z M168,50.4c-0.2,0-0.4-0.1-0.6-0.2
		c-0.1-0.1-0.2-0.3-0.2-0.6v-0.3c0-0.2,0.1-0.4,0.2-0.6c0.1-0.1,0.3-0.2,0.6-0.2h0.2c0.2,0,0.4,0.1,0.6,0.2c0.1,0.1,0.2,0.3,0.2,0.6
		v0.3c0,0.2-0.1,0.4-0.2,0.6c-0.1,0.1-0.3,0.2-0.6,0.2H168z"/>
</g>
</svg>
