<svg version="1.0" id="katman_1" xmlns="http://www.w3.org/2000/svg" xmlns:xlink="http://www.w3.org/1999/xlink" x="0px" y="0px" style="enable-background:new 0 0 600 450;" xml:space="preserve" viewBox="82.4 182.88 434.6 84.85">
<style type="text/css">
	.st0{fill:#051720;}
</style>
<path class="st0" d="M240.2,227.8c0,14.3,14.3,21.8,28.3,21.8c11.3,0,27.5-5.1,27.5-21c0-11.3-7.6-15.4-18.3-18.1  c-9.4-2.2-20.8-1.9-20.8-8.1c0-4.9,5.4-6.7,10.5-6.7c5.9,0,11.9,2.4,11.9,8.9h14.8c-1.3-14.8-13.2-20.5-26.4-20.5  c-12.9,0-25.9,5.7-25.9,20.5c0,10.5,9.2,15.1,18.9,16.7c14.6,2.4,18.9,3,18.9,8.6c0,5.9-8.4,7.3-11.1,7.3c-6.5,0-13.2-3-13.5-10.2  h-14.8V227.8z"/>
<path class="st0" d="M485.4,229.1c-8.6,0-14-8.4-13.5-16.7c0.5-7.8,4.6-15.6,14.3-15.6c9.4,0,14.8,7.8,14.3,17.3  C499.7,221.3,495.7,229.1,485.4,229.1 M516.7,184.6h-15.9v6.7c0,0-4-8.4-18.9-8.4c-16.2,0-26.2,14-26.2,29.7  c0,16.5,8.9,29.4,26.7,29.4c13.5,0,17.8-7,17.8-7l0.3,6.5c-0.5,8.4-4.9,12.9-13.5,12.9c-6.2,0-10.2-2.2-11.1-7l-17.5,1.1  c0.5,12.1,14.3,19.2,27,19.2c28.3,0,31.6-14.8,31.6-27v-56.1H516.7z"/>
<path class="st0" d="M298.5,246.7h16.5v-34.5c0-10.5,7.3-12.9,10.2-12.9c8.9,0,9.7,7.3,9.7,14v33.4h16.5v-34.5  c0-10.5,5.9-12.9,10.2-12.9c9.4,0,10,7.6,10,14.3v33.4H388v-40.2c0-15.6-8.9-21.6-21.3-21.6c-8.1,0-14.3,4.9-17.5,10  c-3.2-7.3-9.7-10-17-10c-7.6,0-13.8,3.5-17.8,9.7h-0.3v-8.1h-15.6C298.5,186.8,298.5,246.7,298.5,246.7z"/>
<path class="st0" d="M408.3,208.6c0-2.2,3-12.1,13.2-12.1c10,0,13.2,9.2,13.2,12.1H408.3z M452.2,220.2c1.3-18.1-8.9-36.7-30.7-36.7  c-19.2,0-30.5,15.4-30.5,32.4c0,17.3,11.6,31.8,31,31.8c14,0,24.5-5.7,29.4-20l-17-0.8c-0.5,2.2-4.9,7.6-11.9,7.6  c-9.4,0-14.6-7.3-14.6-14.3H452.2z"/>
<path class="st0" d="M159.8,246.7c0-10.8,8.9-19.7,19.7-19.7s19.7,8.9,19.7,19.7s-8.9,19.7-19.7,19.7  C168.5,266.4,159.8,257.5,159.8,246.7"/>
<path class="st0" d="M121.3,246.7c0-10.8,8.9-19.7,19.7-19.7c10.8,0,19.7,8.9,19.7,19.7s-8.9,19.7-19.7,19.7  C129.9,266.4,121.3,257.5,121.3,246.7"/>
<path class="st0" d="M82.4,246.7c0-10.8,8.9-19.7,19.7-19.7s19.7,8.9,19.7,19.7s-8.9,19.7-19.7,19.7S82.4,257.5,82.4,246.7"/>
<path class="st0" d="M159.8,208.1c0-10.8,8.9-19.7,19.7-19.7s19.7,8.9,19.7,19.7c0,10.8-8.9,19.7-19.7,19.7  C168.5,227.8,159.8,218.9,159.8,208.1"/>
<path class="st0" d="M121.3,208.1c0-10.8,8.9-19.7,19.7-19.7c10.8,0,19.7,8.9,19.7,19.7c0,10.8-8.9,19.7-19.7,19.7  C129.9,227.8,121.3,218.9,121.3,208.1"/>
<path class="st0" d="M198.1,208.1c0-10.8,8.9-19.7,19.7-19.7c10.8,0,19.7,8.9,19.7,19.7c0,10.8-8.9,19.7-19.7,19.7  C207,227.8,198.1,218.9,198.1,208.1"/>
</svg>