<?xml version="1.0" encoding="UTF-8"?>
<!-- Generator: Adobe Illustrator 26.2.1, SVG Export Plug-In . SVG Version: 6.00 Build 0)  -->
<svg version="1.1" id="Livello_1" xmlns="http://www.w3.org/2000/svg" xmlns:xlink="http://www.w3.org/1999/xlink" x="0px" y="0px" viewBox="0 0 492 168.2" style="enable-background:new 0 0 492 168.2;" xml:space="preserve">
<style type="text/css">
	.st0{clip-path:url(#SVGID_00000106864726048889903360000003467949201255201174_);}
	.st1{clip-path:url(#SVGID_00000103956233548083359510000014511406676063155121_);}
	.st2{clip-path:url(#SVGID_00000077306948010974091290000017269933541877974438_);}
	.st3{clip-path:url(#SVGID_00000144301827716881524750000015825963090667400112_);fill:#B60B29;}
	.st4{clip-path:url(#SVGID_00000077306948010974091290000017269933541877974438_);fill:#1D1D1B;}
	.st5{clip-path:url(#SVGID_00000077306948010974091290000017269933541877974438_);fill:#CD1719;}
	.st6{clip-path:url(#SVGID_00000127761856712234031720000006678123753823302021_);fill:#1D1D1B;}
</style>
<g>
	<defs>
		<rect id="SVGID_1_" width="492" height="168.2"/>
	</defs>
	<clipPath id="SVGID_00000156578213777494795350000005757030405679328426_">
		<use xlink:href="#SVGID_1_" style="overflow:visible;"/>
	</clipPath>
	<g style="clip-path:url(#SVGID_00000156578213777494795350000005757030405679328426_);">
		<g>
			<defs>
				<rect id="SVGID_00000121271657896421612030000014901336177794463669_" x="-40.1" y="-159.1" width="1621.4" height="424"/>
			</defs>
			<clipPath id="SVGID_00000105428701803663346970000015734052060589070508_">
				<use xlink:href="#SVGID_00000121271657896421612030000014901336177794463669_" style="overflow:visible;"/>
			</clipPath>
			<g style="clip-path:url(#SVGID_00000105428701803663346970000015734052060589070508_);">
				<defs>
					<rect id="SVGID_00000049903707334538372730000003689023794849833099_" x="-40.1" y="-159.1" width="1621.4" height="424"/>
				</defs>
				<clipPath id="SVGID_00000013892759170127691740000011241432581055614088_">
					<use xlink:href="#SVGID_00000049903707334538372730000003689023794849833099_" style="overflow:visible;"/>
				</clipPath>
				<g style="clip-path:url(#SVGID_00000013892759170127691740000011241432581055614088_);">
					<text transform="matrix(1 0 0 1 15.7568 191.0463)"><tspan x="0" y="0" style="fill:#1D1D1B; font-family:'Helvetica-Bold'; font-size:21.4713px; letter-spacing:1;">Sol</tspan><tspan x="36.6" y="0" style="fill:#1D1D1B; font-family:'Helvetica-Bold'; font-size:21.4713px; letter-spacing:1;">ve</tspan><tspan x="62.6" y="0" style="fill:#1D1D1B; font-family:'Helvetica-Bold'; font-size:21.4713px; letter-spacing:1;">pi</tspan><tspan x="83.8" y="0" style="fill:#1D1D1B; font-family:'Helvetica-Bold'; font-size:21.4713px;"> </tspan><tspan x="89.6" y="0" style="fill:#1D1D1B; font-family:'Helvetica-Bold'; font-size:21.4713px; letter-spacing:1;">S.p.</tspan><tspan x="133.3" y="0" style="fill:#1D1D1B; font-family:'Helvetica-Bold'; font-size:21.4713px; letter-spacing:1;">A</tspan><tspan x="149.8" y="0" style="fill:#1D1D1B; font-family:'Helvetica-Bold'; font-size:21.4713px; letter-spacing:1;">.</tspan><tspan x="156.9" y="0" style="fill:#1D1D1B; font-family:'Helvetica-Bold'; font-size:21.4713px;"> </tspan><tspan x="162.6" y="0" style="fill:#1D1D1B; font-family:'Helvetica-Bold'; font-size:21.4713px; letter-spacing:1;">-</tspan><tspan x="170.8" y="0" style="fill:#1D1D1B; font-family:'Helvetica-Bold'; font-size:21.4713px;"> </tspan><tspan x="176.6" y="0" style="fill:#1D1D1B; font-family:'Helvetica-Bold'; font-size:21.4713px;">V</tspan><tspan x="191.6" y="0" style="fill:#1D1D1B; font-family:'Helvetica-Bold'; font-size:21.4713px; letter-spacing:1;">i</tspan><tspan x="198.7" y="0" style="fill:#1D1D1B; font-family:'Helvetica-Bold'; font-size:21.4713px; letter-spacing:1;">a</tspan><tspan x="211.7" y="0" style="fill:#1D1D1B; font-family:'Helvetica-Bold'; font-size:21.4713px;"> </tspan><tspan x="217.4" y="0" style="fill:#1D1D1B; font-family:'Helvetica-Bold'; font-size:21.4713px; letter-spacing:1;">Puj</tspan><tspan x="254.1" y="0" style="fill:#1D1D1B; font-family:'Helvetica-Bold'; font-size:21.4713px; letter-spacing:1;">a</tspan><tspan x="267" y="0" style="fill:#1D1D1B; font-family:'Helvetica-Bold'; font-size:21.4713px; letter-spacing:1;">,</tspan><tspan x="274.1" y="0" style="fill:#1D1D1B; font-family:'Helvetica-Bold'; font-size:21.4713px;"> </tspan><tspan x="279.9" y="0" style="fill:#1D1D1B; font-family:'Helvetica-Bold'; font-size:21.4713px; letter-spacing:1;">66</tspan><tspan x="305.8" y="0" style="fill:#1D1D1B; font-family:'Helvetica-Bold'; font-size:21.4713px;"> </tspan><tspan x="311.6" y="0" style="fill:#1D1D1B; font-family:'Helvetica-Bold'; font-size:21.4713px; letter-spacing:1;">-</tspan><tspan x="319.8" y="0" style="fill:#1D1D1B; font-family:'Helvetica-Bold'; font-size:21.4713px;"> </tspan><tspan x="325.6" y="0" style="fill:#1D1D1B; font-family:'Helvetica-Bold'; font-size:21.4713px; letter-spacing:1;">P</tspan><tspan x="341" y="0" style="fill:#1D1D1B; font-family:'Helvetica-Bold'; font-size:21.4713px; letter-spacing:1;">rata</tspan><tspan x="384.6" y="0" style="fill:#1D1D1B; font-family:'Helvetica-Bold'; font-size:21.4713px;"> </tspan><tspan x="390.4" y="0" style="fill:#1D1D1B; font-family:'Helvetica-Bold'; font-size:21.4713px; letter-spacing:1;">di</tspan><tspan x="411.6" y="0" style="fill:#1D1D1B; font-family:'Helvetica-Bold'; font-size:21.4713px;"> </tspan><tspan x="417.4" y="0" style="fill:#1D1D1B; font-family:'Helvetica-Bold'; font-size:21.4713px; letter-spacing:1;">Po</tspan><tspan x="446.9" y="0" style="fill:#1D1D1B; font-family:'Helvetica-Bold'; font-size:21.4713px; letter-spacing:1;">r</tspan><tspan x="456.3" y="0" style="fill:#1D1D1B; font-family:'Helvetica-Bold'; font-size:21.4713px; letter-spacing:1;">d</tspan><tspan x="470.5" y="0" style="fill:#1D1D1B; font-family:'Helvetica-Bold'; font-size:21.4713px; letter-spacing:1;">e</tspan><tspan x="483.5" y="0" style="fill:#1D1D1B; font-family:'Helvetica-Bold'; font-size:21.4713px; letter-spacing:1;">non</tspan><tspan x="526.1" y="0" style="fill:#1D1D1B; font-family:'Helvetica-Bold'; font-size:21.4713px; letter-spacing:1;">e</tspan><tspan x="539.1" y="0" style="fill:#1D1D1B; font-family:'Helvetica-Bold'; font-size:21.4713px;"> </tspan><tspan x="544.9" y="0" style="fill:#1D1D1B; font-family:'Helvetica-Bold'; font-size:21.4713px; letter-spacing:1;">(</tspan><tspan x="553.1" y="0" style="fill:#1D1D1B; font-family:'Helvetica-Bold'; font-size:21.4713px; letter-spacing:1;">P</tspan><tspan x="568.5" y="0" style="fill:#1D1D1B; font-family:'Helvetica-Bold'; font-size:21.4713px; letter-spacing:1;">N)</tspan><tspan x="593.2" y="0" style="fill:#1D1D1B; font-family:'Helvetica-Bold'; font-size:21.4713px;"> </tspan><tspan x="599" y="0" style="fill:#1D1D1B; font-family:'Helvetica-Bold'; font-size:21.4713px; letter-spacing:1;">-</tspan><tspan x="607.2" y="0" style="fill:#1D1D1B; font-family:'Helvetica-Bold'; font-size:21.4713px;"> </tspan><tspan x="613" y="0" style="fill:#1D1D1B; font-family:'Helvetica-Bold'; font-size:21.4713px;">T</tspan><tspan x="625.6" y="0" style="fill:#1D1D1B; font-family:'Helvetica-Bold'; font-size:21.4713px; letter-spacing:1;">e</tspan><tspan x="638.6" y="0" style="fill:#1D1D1B; font-family:'Helvetica-Bold'; font-size:21.4713px; letter-spacing:1;">l.</tspan><tspan x="652.7" y="0" style="fill:#1D1D1B; font-family:'Helvetica-Bold'; font-size:21.4713px;"> </tspan><tspan x="658.4" y="0" style="fill:#1D1D1B; font-family:'Helvetica-Bold'; font-size:21.4713px; letter-spacing:1;">0434</tspan><tspan x="710.4" y="0" style="fill:#1D1D1B; font-family:'Helvetica-Bold'; font-size:21.4713px; letter-spacing:1;">.</tspan><tspan x="717.4" y="0" style="fill:#1D1D1B; font-family:'Helvetica-Bold'; font-size:21.4713px; letter-spacing:1;">620620</tspan><tspan x="795.4" y="0" style="fill:#1D1D1B; font-family:'Helvetica-Bold'; font-size:21.4713px;"> </tspan><tspan x="801.2" y="0" style="fill:#1D1D1B; font-family:'Helvetica-Bold'; font-size:21.4713px; letter-spacing:1;">-</tspan><tspan x="809.4" y="0" style="fill:#1D1D1B; font-family:'Helvetica-Bold'; font-size:21.4713px;"> </tspan><tspan x="815.1" y="0" style="fill:#1D1D1B; font-family:'Helvetica-Bold'; font-size:21.4713px; letter-spacing:1;">F</tspan><tspan x="829.3" y="0" style="fill:#1D1D1B; font-family:'Helvetica-Bold'; font-size:21.4713px; letter-spacing:1;">ax</tspan><tspan x="855.3" y="0" style="fill:#1D1D1B; font-family:'Helvetica-Bold'; font-size:21.4713px;"> </tspan><tspan x="861.1" y="0" style="fill:#1D1D1B; font-family:'Helvetica-Bold'; font-size:21.4713px; letter-spacing:1;">0434</tspan><tspan x="913.1" y="0" style="fill:#1D1D1B; font-family:'Helvetica-Bold'; font-size:21.4713px; letter-spacing:1;">.</tspan><tspan x="920.1" y="0" style="fill:#1D1D1B; font-family:'Helvetica-Bold'; font-size:21.4713px; letter-spacing:1;">610003</tspan><tspan x="998.1" y="0" style="fill:#1D1D1B; font-family:'Helvetica-Bold'; font-size:21.4713px;"> </tspan><tspan x="1003.8" y="0" style="fill:#1D1D1B; font-family:'Helvetica-Bold'; font-size:21.4713px; letter-spacing:1;">-</tspan><tspan x="1012" y="0" style="fill:#1D1D1B; font-family:'Helvetica-Bold'; font-size:21.4713px;"> </tspan><tspan x="1017.8" y="0" style="fill:#1D1D1B; font-family:'Helvetica-Bold'; font-size:21.4713px; letter-spacing:1;">ww</tspan><tspan x="1053.4" y="0" style="fill:#1D1D1B; font-family:'Helvetica-Bold'; font-size:21.4713px;">w</tspan><tspan x="1070.3" y="0" style="fill:#1D1D1B; font-family:'Helvetica-Bold'; font-size:21.4713px; letter-spacing:1;">.</tspan><tspan x="1077.4" y="0" style="fill:#1D1D1B; font-family:'Helvetica-Bold'; font-size:21.4713px; letter-spacing:1;">s</tspan><tspan x="1090.4" y="0" style="fill:#1D1D1B; font-family:'Helvetica-Bold'; font-size:21.4713px; letter-spacing:1;">ol</tspan><tspan x="1111.6" y="0" style="fill:#1D1D1B; font-family:'Helvetica-Bold'; font-size:21.4713px; letter-spacing:1;">ve</tspan><tspan x="1137.6" y="0" style="fill:#1D1D1B; font-family:'Helvetica-Bold'; font-size:21.4713px; letter-spacing:1;">pi.</tspan><tspan x="1165.9" y="0" style="fill:#1D1D1B; font-family:'Helvetica-Bold'; font-size:21.4713px; letter-spacing:1;">c</tspan><tspan x="1178.9" y="0" style="fill:#1D1D1B; font-family:'Helvetica-Bold'; font-size:21.4713px; letter-spacing:1;">o</tspan><tspan x="1193" y="0" style="fill:#1D1D1B; font-family:'Helvetica-Bold'; font-size:21.4713px; letter-spacing:1;">m</tspan><tspan x="1213.2" y="0" style="fill:#1D1D1B; font-family:'Helvetica-Bold'; font-size:21.4713px;"> </tspan><tspan x="1219" y="0" style="fill:#1D1D1B; font-family:'Helvetica-Bold'; font-size:21.4713px; letter-spacing:1;">-</tspan><tspan x="1227.2" y="0" style="fill:#1D1D1B; font-family:'Helvetica-Bold'; font-size:21.4713px;"> </tspan><tspan x="1232.9" y="0" style="fill:#1D1D1B; font-family:'Helvetica-Bold'; font-size:21.4713px; letter-spacing:1;">e-ma</tspan><tspan x="1287.3" y="0" style="fill:#1D1D1B; font-family:'Helvetica-Bold'; font-size:21.4713px; letter-spacing:1;">il</tspan><tspan x="1301.3" y="0" style="fill:#1D1D1B; font-family:'Helvetica-Bold'; font-size:21.4713px; letter-spacing:1;">:</tspan><tspan x="1309.5" y="0" style="fill:#1D1D1B; font-family:'Helvetica-Bold'; font-size:21.4713px; letter-spacing:1;">in</tspan><tspan x="1330.8" y="0" style="fill:#1D1D1B; font-family:'Helvetica-Bold'; font-size:21.4713px; letter-spacing:1;">f</tspan><tspan x="1339" y="0" style="fill:#1D1D1B; font-family:'Helvetica-Bold'; font-size:21.4713px; letter-spacing:1;">o</tspan><tspan x="1353.2" y="0" style="fill:#1D1D1B; font-family:'Helvetica-Bold'; font-size:21.4713px; letter-spacing:1;">@s</tspan><tspan x="1388.1" y="0" style="fill:#1D1D1B; font-family:'Helvetica-Bold'; font-size:21.4713px; letter-spacing:1;">ol</tspan><tspan x="1409.4" y="0" style="fill:#1D1D1B; font-family:'Helvetica-Bold'; font-size:21.4713px; letter-spacing:1;">ve</tspan><tspan x="1435.4" y="0" style="fill:#1D1D1B; font-family:'Helvetica-Bold'; font-size:21.4713px; letter-spacing:1;">pi.</tspan><tspan x="1463.6" y="0" style="fill:#1D1D1B; font-family:'Helvetica-Bold'; font-size:21.4713px; letter-spacing:1;">c</tspan><tspan x="1476.6" y="0" style="fill:#1D1D1B; font-family:'Helvetica-Bold'; font-size:21.4713px; letter-spacing:1;">o</tspan><tspan x="1490.8" y="0" style="fill:#1D1D1B; font-family:'Helvetica-Bold'; font-size:21.4713px;">m</tspan></text>
				</g>
				<g style="clip-path:url(#SVGID_00000013892759170127691740000011241432581055614088_);">
					<defs>
						<rect id="SVGID_00000066505830410958014670000005487842680900250246_" x="1059.8" y="28.3" width="64.3" height="108.5"/>
					</defs>
					<clipPath id="SVGID_00000041262268046043002400000011334650261963141788_">
						<use xlink:href="#SVGID_00000066505830410958014670000005487842680900250246_" style="overflow:visible;"/>
					</clipPath>
					
						<g transform="matrix(1 0 0 1 0 1.907349e-06)" style="clip-path:url(#SVGID_00000041262268046043002400000011334650261963141788_);">
						
							<image style="overflow:visible;" width="153" height="257" xlink:href="Solvepi_files/3C1717C01E8FEEDF.png" transform="matrix(0.4205 0 0 0.4222 1059.7975 28.2723)">
						</image>
					</g>
				</g>
				<g style="clip-path:url(#SVGID_00000013892759170127691740000011241432581055614088_);">
					<defs>
						<rect id="SVGID_00000120555018947714916930000003168326220930630289_" x="-40.1" y="-159.1" width="1621.4" height="424"/>
					</defs>
					<clipPath id="SVGID_00000071536056493112279760000001201180826731453339_">
						<use xlink:href="#SVGID_00000120555018947714916930000003168326220930630289_" style="overflow:visible;"/>
					</clipPath>
					<path style="clip-path:url(#SVGID_00000071536056493112279760000001201180826731453339_);fill:#B60B29;" d="M477.6,136.3V57.8       h-25.7v34.9c-1.8-19.7-12.4-37.2-34.8-37.2c-9.1,0-16.6,3.9-21.6,11.3h-0.3v-9.1h-24.5v39.8c-0.9-23.9-14.9-42.1-41-42.1       c-15.9,0-29.9,8.1-37.1,20.9l6.3-18.7h-26.2l-14.5,51.9h-0.3l-14.4-51.9h-26V28.3h-25.7v60.4c-3.5-19.3-19.3-33.2-40.7-33.2       c-23.1,0-39.4,16.1-41.1,37.9c-4.1-12.9-17.1-18.5-30-22.1C64.2,66.9,48.6,65.4,48.6,57c0-7.1,7.6-9.2,13.6-9.2       c8.6,0,17.8,3.2,17.4,13h28.1C107.6,36.5,86,26,64.5,26c-20.3,0-44,9.2-44,32.8c0,19.8,16.2,26.8,31.6,31.2       c15.6,4.4,31,6.2,31,15.7c0,8-8.8,11-17.2,11c-12,0-19.8-4.1-20.4-16.8H17.3c0.2,27.7,22.1,38.6,46.9,38.6       c22.2,0,44-7.7,46.7-31c4.2,18.2,19.5,31,40.1,31c21.4,0,37.1-13.8,40.7-33.1v30.8h25.7V60.1l25.4,76.2h29.6l15.3-45.7       c-0.3,2-0.5,4.1-0.5,6.2c0,26.3,17.4,41.7,43,41.7c17.5,0,34.3-7.9,39-26h-24.1c-2.4,5.7-8.5,8.6-14.7,8.6       c-10.9,0-17.1-7.1-17.5-17.8h57.6v59.3h25.7v-34.8h0.3c5.3,7.1,12.7,10.7,22.4,10.7c20.2,0,31-16,32.8-34.2v32H477.6z        M166.7,97.1c0,10-3.8,21.8-15.7,21.8c-11.9,0-15.6-11.8-15.6-21.8s3.6-21.9,15.6-21.9C163,75.2,166.7,87.1,166.7,97.1        M344.9,89H313c1.5-9.5,7.6-16,16.6-16C338.3,72.9,344.5,80.2,344.9,89 M426.5,96.2c0,10.7-3.9,22.7-15.4,22.7       c-11.6,0-15.6-8.9-15.6-22.7c0-16.2,8.8-21,15.7-21C422.5,75.2,426.5,86.2,426.5,96.2 M451.9,48h25.7V28.3h-25.7V48z"/>
				</g>
				
					<rect x="1472.4" y="29.2" style="clip-path:url(#SVGID_00000013892759170127691740000011241432581055614088_);fill:#1D1D1B;" width="53.7" height="53.3"/>
				<path style="clip-path:url(#SVGID_00000013892759170127691740000011241432581055614088_);fill:#1D1D1B;" d="M1473.3,30.2h51.8      v51.4h-51.8V30.2z M1471.4,28.3v55.2h55.3v-1h-0.6v-1v1h0.6V28.3H1471.4z"/>
				
					<rect x="1472.4" y="29.2" style="clip-path:url(#SVGID_00000013892759170127691740000011241432581055614088_);fill:#CD1719;" width="53.7" height="53.3"/>
				<polygon style="clip-path:url(#SVGID_00000013892759170127691740000011241432581055614088_);fill:#1D1D1B;" points="      1516.7,30.3 1515.6,30.3 1508.7,37.1 1500.2,30.3 1498.5,30.3 1490,37.1 1483.1,30.3 1482,30.3 1482.1,44.6 1516.7,44.6     "/>
				<g style="clip-path:url(#SVGID_00000013892759170127691740000011241432581055614088_);">
					<defs>
						<rect id="SVGID_00000033350685416363036650000006670107047289731980_" x="-40.1" y="-159.1" width="1621.4" height="424"/>
					</defs>
					<clipPath id="SVGID_00000013160521179977973700000001420242493601053312_">
						<use xlink:href="#SVGID_00000033350685416363036650000006670107047289731980_" style="overflow:visible;"/>
					</clipPath>
					<path style="clip-path:url(#SVGID_00000013160521179977973700000001420242493601053312_);fill:#1D1D1B;" d="M1516.8,47.4h-17.4       h-17.4c0.1,8.4,6,15.2,14,16.8v0.3c-8,1.6-13.9,8.8-14,17.2h34.8c-0.1-8.3-6-15.6-14-17.2v-0.3       C1510.8,62.6,1516.7,55.7,1516.8,47.4"/>
				</g>
			</g>
		</g>
	</g>
</g>
</svg>