<svg xml:space="preserve" style="max-height: 500px" viewBox="321.05039999999997 184.64897959183673 578.8635999999999 108.11683673469388" y="0px" x="0px" xmlns:xlink="http://www.w3.org/1999/xlink" xmlns="http://www.w3.org/2000/svg" version="1.1" width="578.8635999999999" height="108.11683673469388">
<style type="text/css">
	.st0{display:none;}
	.st1{display:inline;fill:#FFFFFF;}
	.st2{display:inline;}
	.st3{fill:#14387F;}
</style>
<g class="st0" id="Ebene_1">
	<rect height="476.2" width="1216.1" class="st1"/>
	<g class="st2">
		<g>
			<path d="M372,212.8c-2.4-9.2-7.5-14.3-17.4-14.3c-10.6,0-16.9,5.5-16.9,13.3c0,5.3,3.6,10.2,10.8,13l15.5,5.9&#xA;&#9;&#9;&#9;&#9;c12.4,4.7,25.4,11.1,25.4,29.6c0,18.3-13.8,30.7-34.5,30.7c-18.6,0-31.3-9.1-34.5-24.1c-0.9-4.7,1.6-9.7,7.4-9.7&#xA;&#9;&#9;&#9;&#9;c3.6,0,6.3,2,7.4,6.1c2,8.3,7.7,14.3,19.3,14.3c12.2,0,19.1-6.6,19.1-15.5c0-8.5-5.6-12.7-14.1-16l-15.2-5.9&#xA;&#9;&#9;&#9;&#9;c-13-5-22.1-13-22.1-27.3c0-15.7,12.5-27.9,32.4-27.9c17.1,0,29.6,9.1,32.3,23.7c0.9,5-2,9.7-7.4,9.7&#xA;&#9;&#9;&#9;&#9;C375.7,218.4,372.9,216.4,372,212.8z" class="st3"/>
			<path d="M476.3,193.7v63.8c0,20.7-14,33.7-34.3,33.7c-20.4,0-34.3-13-34.3-33.7v-63.8c0-4.7,3.3-7.8,8-7.8&#xA;&#9;&#9;&#9;&#9;c4.9,0,8.1,3.1,8.1,7.8v63.8c0,11.3,6.6,19.1,18.2,19.1c11.4,0,18.2-7.8,18.2-19.1v-63.8c0-4.7,3.3-7.8,8-7.8&#xA;&#9;&#9;&#9;&#9;C473,185.9,476.3,189,476.3,193.7z" class="st3"/>
			<path d="M565.6,279.4c0.3,0.8,0.6,1.9,0.6,2.8c0,4.4-3.9,8.1-8.3,8.1c-3.3,0-6.3-2.2-7.5-5.2l-15.5-34.8&#xA;&#9;&#9;&#9;&#9;c-0.9,0.2-1.7,0.2-2.5,0.2h-16.8v32c0,4.7-3.5,7.8-8.1,7.8c-4.9,0-8-3.1-8-7.8v-88.1c0-4.7,3-7.8,7.8-7.8h26.2&#xA;&#9;&#9;&#9;&#9;c20.4,0,35.1,12.4,35.1,31.5c0,13.3-6.9,23.5-17.7,28.5L565.6,279.4z M515.6,200.9v35.6h16.5c12.2,0,20.1-7.1,20.1-18.2&#xA;&#9;&#9;&#9;&#9;c0-10.6-7.8-17.4-20.1-17.4L515.6,200.9L515.6,200.9z" class="st3"/>
			<path d="M584.7,186.6h55c4.2,0,7,3.1,7,7.4s-2.8,7.2-7,7.2h-19.4v81.3c0,4.7-3.3,7.8-8.2,7.8c-4.7,0-8-3.1-8-7.8&#xA;&#9;&#9;&#9;&#9;v-81.3h-19.4c-4.2,0-7-3.1-7-7.4S580.5,186.6,584.7,186.6z" class="st3"/>
			<path d="M677.3,244.3V275h39.8c4.2,0,7,3.1,7,7.4c0,4.2-2.8,7.2-7,7.2H669c-4.9,0-7.8-3.1-7.8-7.8v-87.3&#xA;&#9;&#9;&#9;&#9;c0-4.7,3-7.8,7.8-7.8h46.5c4.4,0,7.2,3,7.2,7.2c0,4.2-2.8,7.4-7.2,7.4h-38.2v28.8h34.3c4.2,0,7,3,7,7.2c0,4.2-2.8,7.1-7,7.1&#xA;&#9;&#9;&#9;&#9;L677.3,244.3L677.3,244.3z" class="st3"/>
			<path d="M808,263.6c-2,17.2-15.2,27.6-33.7,27.6c-20.7,0-34.9-13-34.9-33.7v-38.7c0-20.7,13-33.7,34.9-33.7&#xA;&#9;&#9;&#9;&#9;c18.5,0,31.3,10.2,33.7,27.1c0.6,4.9-2.3,9.2-7.7,9.2c-4.4,0-6.9-2.4-7.5-5.9c-1.9-10-7.4-15.8-18.8-15.8&#xA;&#9;&#9;&#9;&#9;c-11.6,0-18.5,7.8-18.5,19.1v38.7c0,11.3,6.9,19.1,18.5,19.1c11.3,0,17.2-6.1,18.8-16c0.6-3.8,3.1-6.4,7.5-6.4&#xA;&#9;&#9;&#9;&#9;C805.3,254.2,808.6,258.2,808,263.6z" class="st3"/>
			<path d="M895.9,257.5c0,20.7-14.3,33.7-35.2,33.7c-20.8,0-35.1-13-35.1-33.7v-38.7c0-20.7,13-33.7,35.1-33.7&#xA;&#9;&#9;&#9;&#9;c21,0,35.2,13,35.2,33.7V257.5z M841.6,257.5c0,11.3,6.9,19.1,19,19.1c12.1,0,19-7.8,19-19.1v-38.7c0-11.3-6.9-19.1-19-19.1&#xA;&#9;&#9;&#9;&#9;c-12.1,0-19,7.8-19,19.1V257.5z" class="st3"/>
		</g>
	</g>
</g>
<g id="Ebene_2">
</g>
<g id="Ebene_3">
</g>
<g id="Ebene_4">
	<g>
		<path d="M361.8,213.1c-1.6-6.1-5-9.4-11.5-9.4c-7,0-11.2,3.6-11.2,8.8c0,3.5,2.4,6.7,7.1,8.6l10.3,3.9&#xA;&#9;&#9;&#9;c8.2,3.1,16.8,7.4,16.8,19.6c0,12.1-9.1,20.3-22.8,20.3c-12.3,0-20.7-6-22.8-15.9c-0.6-3.1,1-6.4,4.9-6.4c2.4,0,4.1,1.3,4.9,4&#xA;&#9;&#9;&#9;c1.3,5.5,5.1,9.4,12.7,9.4c8.1,0,12.6-4.3,12.6-10.3c0-5.6-3.7-8.4-9.3-10.6l-10-3.9c-8.6-3.3-14.6-8.6-14.6-18&#xA;&#9;&#9;&#9;c0-10.4,8.3-18.4,21.4-18.4c11.3,0,19.6,6,21.3,15.6c0.6,3.3-1.3,6.4-4.9,6.4C364.2,216.9,362.4,215.5,361.8,213.1z" class="st3"/>
		<path d="M430.8,200.5v42.1c0,13.7-9.2,22.3-22.7,22.3s-22.7-8.6-22.7-22.3v-42.1c0-3.1,2.2-5.2,5.3-5.2&#xA;&#9;&#9;&#9;c3.2,0,5.4,2.1,5.4,5.2v42.1c0,7.5,4.3,12.6,12,12.6c7.6,0,12-5.2,12-12.6v-42.1c0-3.1,2.2-5.2,5.3-5.2&#xA;&#9;&#9;&#9;C428.5,195.3,430.8,197.4,430.8,200.5z" class="st3"/>
		<path d="M490,257.1c0.2,0.5,0.4,1.2,0.4,1.9c0,2.9-2.6,5.4-5.5,5.4c-2.2,0-4.1-1.4-5-3.4l-10.3-23&#xA;&#9;&#9;&#9;c-0.6,0.1-1.1,0.1-1.7,0.1h-11.1v21.1c0,3.1-2.3,5.2-5.4,5.2c-3.2,0-5.3-2.1-5.3-5.2V201c0-3.1,2-5.2,5.2-5.2h17.3&#xA;&#9;&#9;&#9;c13.5,0,23.2,8.2,23.2,20.8c0,8.8-4.6,15.5-11.7,18.8L490,257.1z M457,205.3v23.5h10.9c8.1,0,13.3-4.7,13.3-12&#xA;&#9;&#9;&#9;c0-7-5.2-11.5-13.3-11.5H457z" class="st3"/>
		<path d="M503,195.8h36.3c2.8,0,4.7,2.1,4.7,4.9s-1.9,4.8-4.7,4.8h-12.8v53.7c0,3.1-2.2,5.2-5.4,5.2&#xA;&#9;&#9;&#9;c-3.1,0-5.3-2.1-5.3-5.2v-53.7h-12.8c-2.8,0-4.7-2.1-4.7-4.9C498.4,197.8,500.2,195.8,503,195.8z" class="st3"/>
		<path d="M564.2,234v20.3h26.3c2.8,0,4.7,2.1,4.7,4.9s-1.9,4.8-4.7,4.8h-31.8c-3.2,0-5.2-2.1-5.2-5.2v-57.7&#xA;&#9;&#9;&#9;c0-3.1,2-5.2,5.2-5.2h30.8c2.9,0,4.8,2,4.8,4.8s-1.9,4.9-4.8,4.9h-25.3v19.1H587c2.8,0,4.7,2,4.7,4.8s-1.9,4.7-4.7,4.7h-22.7V234z" class="st3"/>
		<path d="M650.8,246.7c-1.3,11.4-10,18.2-22.3,18.2c-13.7,0-23.1-8.6-23.1-22.3V217c0-13.7,8.6-22.3,23.1-22.3&#xA;&#9;&#9;&#9;c12.2,0,20.7,6.7,22.3,17.9c0.4,3.2-1.6,6.1-5.1,6.1c-2.9,0-4.6-1.6-5-3.9c-1.2-6.6-4.9-10.5-12.4-10.5c-7.7,0-12.2,5.2-12.2,12.6&#xA;&#9;&#9;&#9;v25.6c0,7.5,4.6,12.6,12.2,12.6c7.5,0,11.4-4,12.4-10.6c0.4-2.5,2.1-4.2,5-4.2C649.1,240.5,651.2,243.2,650.8,246.7z" class="st3"/>
		<path d="M709,242.7c0,13.7-9.4,22.3-23.3,22.3c-13.8,0-23.2-8.6-23.2-22.3v-25.6c0-13.7,8.6-22.3,23.2-22.3&#xA;&#9;&#9;&#9;c13.9,0,23.3,8.6,23.3,22.3V242.7z M673.2,242.7c0,7.5,4.6,12.6,12.5,12.6c8,0,12.5-5.2,12.5-12.6v-25.6c0-7.5-4.6-12.6-12.5-12.6&#xA;&#9;&#9;&#9;c-8,0-12.5,5.2-12.5,12.6V242.7z" class="st3"/>
		<path d="M740.3,261.8c0,1.6-1.1,2.6-2.7,2.6c-1.6,0-2.7-1-2.7-2.6v-63.9c0-1.6,1.1-2.6,2.7-2.6c1.6,0,2.7,1,2.7,2.6&#xA;&#9;&#9;&#9;V261.8z" class="st3"/>
		<path d="M751.5,213.6h9.1v-11.7c0-1.6,1-2.6,2.6-2.6s2.6,1,2.6,2.6v11.7h9.1c1.2,0,2.1,0.8,2.1,2.1&#xA;&#9;&#9;&#9;c0,1.2-0.8,2.3-2.1,2.3h-9.1v43.8c0,1.6-1,2.6-2.6,2.6s-2.6-1-2.6-2.6v-43.9h-9.1c-1.2,0-2.1-0.8-2.1-2.1&#xA;&#9;&#9;&#9;C749.5,214.6,750.2,213.6,751.5,213.6z" class="st3"/>
		<path d="M815.5,257.6c-3.1,4.7-8.3,7.4-14.4,7.4c-10.9,0-17.7-6.9-17.7-18.2v-16.2c0-11.3,6.8-18.2,17.7-18.2&#xA;&#9;&#9;&#9;c6.2,0,11.3,2.6,14.4,7.2l0.7-4.7c0.2-1.7,1-2.1,2-2.1c1.3,0,2,0.7,2,2.1v47.4c0,1.3-0.6,2.1-2,2.1c-0.9,0-1.8-0.4-2-2.1&#xA;&#9;&#9;&#9;L815.5,257.6z M815,246.1v-14.9c0-8-5.1-14.2-13.6-14.2s-12.8,5.8-12.8,13.2v17c0,7.4,4.3,13.2,12.8,13.2&#xA;&#9;&#9;&#9;C810,260.3,815,254,815,246.1z" class="st3"/>
		<path d="M839.8,195.8v66c0,1.6-1,2.6-2.6,2.6s-2.6-1-2.6-2.6v-66c0-1.6,1-2.6,2.6-2.6&#xA;&#9;&#9;&#9;C838.8,193.3,839.8,194.3,839.8,195.8z" class="st3"/>
		<path d="M865.5,282.2c-0.3,0.8-1.2,1.6-2.2,1.6c-1.8,0-2.7-1.7-2.1-3.2l6.3-17l-17.2-47.1c-0.4-1,0-3.6,2.4-3.6&#xA;&#9;&#9;&#9;c1.1,0,2.2,0.6,2.6,1.7l14.7,41.9l14.7-42c0.3-1,1.1-1.6,2.2-1.6c1.9,0,3,1.8,2.4,3.5L865.5,282.2z" class="st3"/>
	</g>
</g>
</svg>