<svg xml:space="preserve" viewBox="0 0 189.9 28.869798657718125" y="0px" x="0px" xmlns:xlink="http://www.w3.org/1999/xlink" xmlns="http://www.w3.org/2000/svg" id="SWISS_KRONO_Logo" version="1.1" style="max-height: 500px" width="189.9" height="28.869798657718125">
<rect height="51.4" width="225.2" fill="none" y="-11.5" x="-17.7" id="Sicherheitszone_2_"/>
<g id="Logo">
	<g>
		<g>
			<path d="M0,14.2C0,22,6.3,28.3,14.1,28.3S28.2,22,28.2,14.2c0-7.8-6.3-14.1-14.1-14.1S0,6.4,0,14.2" fill="#D13239"/>
			<g>
				<g>
					<polygon points="8.5,17 14.1,9.7 14.1,5.7 8.5,5.7 8.5,11.4 2.8,11.4 2.8,17 8.5,17" fill="#FFFFFF"/>
				</g>
				<g>
					<polygon points="18.7,14.2 25.4,5.7 18.9,5.7 8.5,19.3 8.5,22.6 14.1,22.6 14.1,16.4 18.9,22.6 25.4,22.6" fill="#FFFFFF"/>
				</g>
			</g>
		</g>
		<g>
			<path d="M36.1,20.6c-0.1-0.1-0.1-0.3,0-0.4L38,18c0.1-0.1,0.2-0.1,0.4,0c1.1,0.9,2.6,1.7,4.4,1.7     c1.8,0,2.8-0.8,2.8-2c0-1-0.6-1.6-2.6-1.9L42,15.7c-3.4-0.5-5.3-2.1-5.3-5.1c0-3.1,2.3-5.2,6-5.2c2.2,0,4.3,0.7,5.7,1.8     c0.1,0.1,0.2,0.2,0,0.4l-1.5,2.3c-0.1,0.1-0.2,0.1-0.3,0.1c-1.3-0.8-2.5-1.3-3.9-1.3c-1.5,0-2.3,0.8-2.3,1.8c0,1,0.7,1.6,2.6,1.9     l0.9,0.1c3.5,0.5,5.3,2.1,5.3,5.1s-2.3,5.3-6.6,5.3C40,22.9,37.4,21.8,36.1,20.6z" fill="#55565A"/>
			<path d="M63.6,22.6c-0.2,0-0.3-0.1-0.3-0.2l-2.9-10.5h0l-3,10.5c0,0.1-0.1,0.2-0.3,0.2h-2.5     c-0.1,0-0.2-0.1-0.3-0.2L49.9,6c0-0.1,0-0.2,0.2-0.2h3.2c0.2,0,0.3,0.1,0.3,0.2L56,16.6h0L59,6c0-0.1,0.1-0.2,0.3-0.2h2.2     c0.1,0,0.2,0.1,0.3,0.2l3,10.6h0L67.1,6c0-0.2,0.1-0.2,0.3-0.2h3.2c0.2,0,0.2,0.1,0.2,0.2l-4.3,16.4c0,0.1-0.1,0.2-0.3,0.2H63.6z" fill="#55565A"/>
			<path d="M72.3,6c0-0.1,0.1-0.2,0.2-0.2h3.2C75.9,5.7,76,5.8,76,6v16.4c0,0.1-0.1,0.2-0.2,0.2h-3.2     c-0.1,0-0.2-0.1-0.2-0.2V6z" fill="#55565A"/>
			<path d="M78.3,20.6c-0.1-0.1-0.1-0.3,0-0.4l1.9-2.2c0.1-0.1,0.2-0.1,0.4,0c1.1,0.9,2.6,1.7,4.4,1.7     c1.8,0,2.8-0.8,2.8-2c0-1-0.6-1.6-2.6-1.9l-0.9-0.1c-3.4-0.5-5.3-2.1-5.3-5.1c0-3.1,2.3-5.2,6-5.2c2.2,0,4.3,0.7,5.7,1.8     c0.1,0.1,0.2,0.2,0,0.4l-1.5,2.3C89,10,88.9,10,88.7,9.9c-1.3-0.8-2.5-1.3-3.9-1.3c-1.5,0-2.3,0.8-2.3,1.8c0,1,0.7,1.6,2.6,1.9     l0.9,0.1c3.5,0.5,5.3,2.1,5.3,5.1s-2.3,5.3-6.6,5.3C82.1,22.9,79.6,21.8,78.3,20.6z" fill="#55565A"/>
			<path d="M93.1,20.6c-0.1-0.1-0.1-0.3,0-0.4L95,18c0.1-0.1,0.2-0.1,0.4,0c1.1,0.9,2.6,1.7,4.4,1.7     c1.8,0,2.8-0.8,2.8-2c0-1-0.6-1.6-2.6-1.9L99,15.7c-3.4-0.5-5.3-2.1-5.3-5.1c0-3.1,2.3-5.2,6-5.2c2.2,0,4.3,0.7,5.7,1.8     c0.1,0.1,0.2,0.2,0,0.4l-1.5,2.3c-0.1,0.1-0.2,0.1-0.3,0.1c-1.3-0.8-2.5-1.3-3.9-1.3c-1.5,0-2.3,0.8-2.3,1.8c0,1,0.7,1.6,2.6,1.9     l0.9,0.1c3.5,0.5,5.3,2.1,5.3,5.1s-2.3,5.3-6.6,5.3C97,22.9,94.4,21.8,93.1,20.6z" fill="#55565A"/>
			<path d="M114.6,6c0-0.1,0.1-0.2,0.2-0.2h3.2c0.1,0,0.2,0.1,0.2,0.2v7.3l5.6-7.3c0.1-0.2,0.2-0.2,0.4-0.2h3.6     c0.1,0,0.2,0.2,0.1,0.3l-5.1,6.4l5.6,9.9c0.1,0.2,0,0.3-0.1,0.3h-3.7c-0.2,0-0.3,0-0.4-0.2l-3.8-7.1l-2.2,2.8v4.3     c0,0.1-0.1,0.2-0.2,0.2h-3.2c-0.1,0-0.2-0.1-0.2-0.2V6z" fill="#55565A"/>
			<path d="M139.4,22.6c-0.2,0-0.3-0.1-0.4-0.2l-2.9-6.2h-2.3c-0.1,0-0.1,0-0.1,0.1v6c0,0.1-0.1,0.2-0.2,0.2h-3.2     c-0.1,0-0.2-0.1-0.2-0.2V6c0-0.1,0.1-0.2,0.2-0.2h6.7c3.5,0,5.7,2.2,5.7,5.2c0,2.2-1.1,3.9-3,4.7l3.3,6.7c0.1,0.1,0,0.3-0.2,0.3     H139.4z M139.2,11c0-1.3-0.9-2.1-2.3-2.1h-3c-0.1,0-0.1,0-0.1,0.1v3.9c0,0.1,0,0.1,0.1,0.1h3C138.3,13.1,139.2,12.3,139.2,11z" fill="#55565A"/>
			<path d="M145.5,18.8c-0.4-1.2-0.5-2.1-0.5-4.6c0-2.5,0.1-3.5,0.5-4.6c0.9-2.7,3.2-4.1,6.2-4.1     c3,0,5.3,1.4,6.2,4.1c0.4,1.2,0.5,2.1,0.5,4.6c0,2.5-0.1,3.5-0.5,4.6c-0.9,2.7-3.2,4.1-6.2,4.1C148.7,22.9,146.3,21.5,145.5,18.8     z M154.3,17.8c0.2-0.6,0.3-1.4,0.3-3.6c0-2.2-0.1-3-0.3-3.6c-0.4-1.2-1.3-1.9-2.7-1.9c-1.4,0-2.3,0.7-2.7,1.9     c-0.2,0.6-0.3,1.4-0.3,3.6c0,2.2,0.1,3,0.3,3.6c0.4,1.2,1.3,1.9,2.7,1.9C153,19.7,153.9,19,154.3,17.8z" fill="#55565A"/>
			<path d="M160.9,6c0-0.1,0.1-0.2,0.2-0.2h3c0.2,0,0.3,0.1,0.4,0.2l6,10.6h0.1V6c0-0.1,0.1-0.2,0.2-0.2h2.8     c0.1,0,0.2,0.1,0.2,0.2v16.4c0,0.1-0.1,0.2-0.2,0.2h-3c-0.2,0-0.3-0.1-0.4-0.2l-6-10.6h-0.1v10.6c0,0.1-0.1,0.2-0.2,0.2h-2.8     c-0.1,0-0.2-0.1-0.2-0.2V6z" fill="#55565A"/>
			<path d="M177.1,18.8c-0.4-1.2-0.5-2.1-0.5-4.6c0-2.5,0.1-3.5,0.5-4.6c0.9-2.7,3.2-4.1,6.2-4.1     c3,0,5.3,1.4,6.2,4.1c0.4,1.2,0.5,2.1,0.5,4.6c0,2.5-0.1,3.5-0.5,4.6c-0.9,2.7-3.2,4.1-6.2,4.1C180.3,22.9,178,21.5,177.1,18.8z      M185.9,17.8c0.2-0.6,0.3-1.4,0.3-3.6c0-2.2-0.1-3-0.3-3.6c-0.4-1.2-1.3-1.9-2.7-1.9c-1.4,0-2.3,0.7-2.7,1.9     c-0.2,0.6-0.3,1.4-0.3,3.6c0,2.2,0.1,3,0.3,3.6c0.4,1.2,1.3,1.9,2.7,1.9C184.7,19.7,185.6,19,185.9,17.8z" fill="#55565A"/>
		</g>
	</g>
</g>
<g>
</g>
<g>
</g>
<g>
</g>
<g>
</g>
<g>
</g>
<g>
</g>
</svg>