<svg xmlns="http://www.w3.org/2000/svg" viewBox="0 0 232.21 125.22"><defs><style>.cls-1{fill:#0c2577;}.cls-2{fill:#fff;}.cls-3{fill:#12186a;}</style></defs><g id="Livello_2" data-name="Livello 2"><g id="Livello_1-2" data-name="Livello 1"><path class="cls-1" d="M181.79,102.71H50.39A50.46,50.46,0,0,1,0,52.31V50.4A50.46,50.46,0,0,1,50.39,0h131.4a50.46,50.46,0,0,1,50.4,50.4v1.91a50.46,50.46,0,0,1-50.4,50.4"/><path class="cls-1" d="M222.82,52.31a41.54,41.54,0,0,1-41.55,41.54H49.87A41.54,41.54,0,0,1,8.33,52.31V50.4A41.54,41.54,0,0,1,49.87,8.85h131.4A41.55,41.55,0,0,1,222.82,50.4Z"/><path class="cls-2" d="M50.39,96.36a44.05,44.05,0,0,1-44-44V50.4A44.06,44.06,0,0,1,50.39,6.34h131.4A44.06,44.06,0,0,1,225.85,50.4v1.91a44.06,44.06,0,0,1-44.06,44.05ZM22.79,22.79A38.94,38.94,0,0,0,11.36,50.4v1.91a39,39,0,0,0,39,39h131.4a39.06,39.06,0,0,0,39-39V50.4a39,39,0,0,0-39-39H50.39a39,39,0,0,0-27.6,11.43"/><path class="cls-2" d="M194.33,25.33H183.07V78h11.26Zm-27.42,19a2,2,0,0,0-2-2.21c-1.5,0-2,1.18-2,2.21v25c0,1,.45,2.22,2,2.22a2,2,0,0,0,2-2.22Zm11.26,24.61c0,6.36-6.21,9.53-13.31,9.53s-13.21-3.17-13.21-9.53V44.69c0-6.35,6-9.53,13.21-9.53s13.31,3.18,13.31,9.53ZM147,61.17H135.75V69.3a2,2,0,0,1-2,2.22c-1.51,0-2-1.19-2-2.22v-25a1.94,1.94,0,0,1,2-2.21,2,2,0,0,1,2,2.21v6.06H147V44.69c0-6.35-6.21-9.53-13.3-9.53s-13.22,3.18-13.22,9.53V68.93c0,6.36,6,9.53,13.22,9.53S147,75.29,147,68.93ZM104.31,25.33h11.26v8H104.31Zm0,10.35h11.26V78H104.31Zm-20.16,0H72.89V78H84.15V45.06c0-1,.44-2.22,1.95-2.22a2,2,0,0,1,2,2.22V78H99.4V44.4c0-4.88-.26-9.24-7.45-9.24-3,0-6.91,1.62-7.63,4.21h-.17ZM68.06,69.37c0,7-7,9.61-14.71,9.61s-14.73-2.59-14.73-9.61v-44H51.13V67.67c0,1.48.27,3.48,2.22,3.48s2.21-2,2.21-3.48V25.33h12.5Z"/><path class="cls-3" d="M22.89,124.9l3-13.33h3.33l3,13.33H29.58l-.66-3.35H26.06l-.64,3.35Zm3.56-5.35h2.11L27.5,114Z"/><path class="cls-3" d="M33.55,124.9V111.57h4a7.27,7.27,0,0,1,2,.21,2.61,2.61,0,0,1,1.18.68,3.79,3.79,0,0,1,1,1.72,13.38,13.38,0,0,1,.29,3.24,27.83,27.83,0,0,1-.2,4,6.11,6.11,0,0,1-.68,2,2.47,2.47,0,0,1-1.27,1.14,8.47,8.47,0,0,1-2.84.33Zm2.44-2h1.09a4,4,0,0,0,1.18-.12,1.06,1.06,0,0,0,.54-.41,3.68,3.68,0,0,0,.49-1.43,19.59,19.59,0,0,0,.15-2.89,15.68,15.68,0,0,0-.18-2.82,2.69,2.69,0,0,0-.58-1.33,1.2,1.2,0,0,0-.56-.32,4.58,4.58,0,0,0-1.07-.09H36Z"/><path class="cls-3" d="M44,124.9V111.57h2.47v5.23h3.4v-5.23H52.3V124.9H49.84v-6h-3.4v6Z"/><path class="cls-3" d="M54.57,124.9V111.57h6.84v2.22H57v3.08h4.08V119H57v3.67h4.49v2.25Z"/><path class="cls-3" d="M63.09,120.22h2.48v.85a3.26,3.26,0,0,0,.31,1.68,1.22,1.22,0,0,0,1.06.44,1.63,1.63,0,0,0,1.2-.4,1.55,1.55,0,0,0,.41-1.17,1.76,1.76,0,0,0-.29-1,5.06,5.06,0,0,0-1.23-1.1l-1.27-.9a7.3,7.3,0,0,1-2.09-1.89,3.55,3.55,0,0,1-.45-1.87,3.47,3.47,0,0,1,1-2.63,4.45,4.45,0,0,1,5.58.07,4,4,0,0,1,1,2.9v.3c0,.07,0,.13,0,.18H68.41v-.36a2.69,2.69,0,0,0-.35-1.55,1.39,1.39,0,0,0-1.17-.46,1.23,1.23,0,0,0-.94.35,1.32,1.32,0,0,0-.34,1q0,.84,1.53,1.86l0,0,1.36.92a6.39,6.39,0,0,1,2,1.83,4.19,4.19,0,0,1,.52,2.2,3.68,3.68,0,0,1-1,2.8,4.16,4.16,0,0,1-3,1,3.93,3.93,0,0,1-3-1,4.44,4.44,0,0,1-1-3.17c0-.15,0-.4,0-.74Z"/><path class="cls-3" d="M73.05,124.9V111.57h2.48V124.9Z"/><path class="cls-3" d="M79.89,124.9l-3-13.33h2.65l2,10.64,1.79-10.64H86l-2.8,13.33Z"/><path class="cls-3" d="M87.49,124.9V111.57h6.84v2.22H90v3.08H94V119H90v3.67h4.49v2.25Z"/><path class="cls-3" d="M102.59,124.9V113.77H99.73v-2.2h8.19v2.2h-2.85V124.9Z"/><path class="cls-3" d="M109.23,124.9V111.57h6.84v2.22H111.7v3.08h4.07V119H111.7v3.67h4.48v2.25Z"/><path class="cls-3" d="M123.3,120.15h2.41s0,.14,0,.25,0,.2,0,.27a5.12,5.12,0,0,1-1,3.43,3.75,3.75,0,0,1-3,1.12,4.9,4.9,0,0,1-1.63-.25,2.92,2.92,0,0,1-1.18-.77,3.92,3.92,0,0,1-.95-1.9,22.05,22.05,0,0,1-.28-4.22,25.51,25.51,0,0,1,.17-3.28,5.14,5.14,0,0,1,.51-1.81,3.4,3.4,0,0,1,1.33-1.33,4.47,4.47,0,0,1,2-.41,3.7,3.7,0,0,1,3,1.06,5.16,5.16,0,0,1,.93,3.39h-2.4v-.32a2.89,2.89,0,0,0-.36-1.61,1.18,1.18,0,0,0-1.06-.54,1.22,1.22,0,0,0-1.22.74,14.19,14.19,0,0,0-.32,4.07,16.86,16.86,0,0,0,.31,4.37,1.19,1.19,0,0,0,1.21.78,1.2,1.2,0,0,0,1.16-.61,5.24,5.24,0,0,0,.33-2.25Z"/><path class="cls-3" d="M127.71,124.9V111.57h2.46v5.23h3.41v-5.23H136V124.9h-2.46v-6h-3.41v6Z"/><path class="cls-3" d="M138.31,124.9V111.57h2.55l3.47,9.32-.07-9.32h2.35V124.9h-2.54l-3.49-9.34.06,9.34Z"/><path class="cls-3" d="M148.6,118.23a23.05,23.05,0,0,1,.2-3.38,4.9,4.9,0,0,1,.62-1.91,3.43,3.43,0,0,1,1.39-1.3,5.93,5.93,0,0,1,4.23,0,3.43,3.43,0,0,1,1.39,1.3,4.91,4.91,0,0,1,.62,1.92,28.49,28.49,0,0,1,0,6.74,5.08,5.08,0,0,1-.62,1.93,3.43,3.43,0,0,1-1.39,1.3,5.93,5.93,0,0,1-4.23,0,3.43,3.43,0,0,1-1.39-1.3,4.9,4.9,0,0,1-.62-1.91A23.11,23.11,0,0,1,148.6,118.23Zm2.54,0a13.31,13.31,0,0,0,.38,4.14,1.43,1.43,0,0,0,1.42.86,1.4,1.4,0,0,0,1.4-.84,13.46,13.46,0,0,0,.37-4.16,13.56,13.56,0,0,0-.38-4.17,1.6,1.6,0,0,0-2.81,0A13.23,13.23,0,0,0,151.14,118.23Z"/><path class="cls-3" d="M159.27,124.9V111.57h2.48v11.06h4.48v2.27Z"/><path class="cls-3" d="M167,118.23a21.73,21.73,0,0,1,.2-3.38,4.9,4.9,0,0,1,.62-1.91,3.41,3.41,0,0,1,1.38-1.3,6,6,0,0,1,4.24,0,3.49,3.49,0,0,1,1.39,1.3,5.08,5.08,0,0,1,.62,1.92,23.22,23.22,0,0,1,.19,3.37,22.9,22.9,0,0,1-.2,3.37,5.09,5.09,0,0,1-.61,1.93,3.49,3.49,0,0,1-1.39,1.3,6,6,0,0,1-4.24,0,3.41,3.41,0,0,1-1.38-1.3,4.9,4.9,0,0,1-.62-1.91A21.79,21.79,0,0,1,167,118.23Zm2.53,0a12.88,12.88,0,0,0,.39,4.14,1.42,1.42,0,0,0,1.42.86,1.38,1.38,0,0,0,1.39-.84,13.34,13.34,0,0,0,.38-4.16,13.56,13.56,0,0,0-.38-4.17,1.6,1.6,0,0,0-2.82,0A13.56,13.56,0,0,0,169.54,118.23Z"/><path class="cls-3" d="M184.25,124.9l-.18-1.47a2.78,2.78,0,0,1-1,1.37,3.42,3.42,0,0,1-1.83.42,3.06,3.06,0,0,1-2.94-1.59c-.57-1-.85-3-.85-5.8a19,19,0,0,1,.2-3.16,4.79,4.79,0,0,1,.64-1.84,3.08,3.08,0,0,1,1.37-1.18,5.31,5.31,0,0,1,2.13-.38,4.34,4.34,0,0,1,3.16,1,4.29,4.29,0,0,1,1,3.15v.34h-2.32v-.14a3,3,0,0,0-.45-1.8,1.52,1.52,0,0,0-1.32-.61,1.47,1.47,0,0,0-1.48.83,13.68,13.68,0,0,0-.4,4.4,11.82,11.82,0,0,0,.38,3.77,1.36,1.36,0,0,0,1.37,1,1.53,1.53,0,0,0,1.41-.67,4.55,4.55,0,0,0,.42-2.28v-.46h-1.72v-2.13h4.11v7.27Z"/><path class="cls-3" d="M188.11,124.9V111.57h2.48V124.9Z"/><path class="cls-3" d="M192.86,124.9V111.57h6.84v2.22h-4.38v3.08h4.08V119h-4.08v3.67h4.49v2.25Z"/><path class="cls-3" d="M201.38,120.22h2.48v.85a3.26,3.26,0,0,0,.31,1.68,1.21,1.21,0,0,0,1.06.44,1.66,1.66,0,0,0,1.2-.4,1.55,1.55,0,0,0,.41-1.17,1.83,1.83,0,0,0-.29-1,5.26,5.26,0,0,0-1.23-1.1l-1.28-.9A7.37,7.37,0,0,1,202,116.7a3.55,3.55,0,0,1-.45-1.87,3.5,3.5,0,0,1,1-2.63,3.84,3.84,0,0,1,2.75-1,3.78,3.78,0,0,1,2.84,1,4,4,0,0,1,1,2.9v.3c0,.07,0,.13,0,.18H206.7v-.36a2.69,2.69,0,0,0-.35-1.55,1.39,1.39,0,0,0-1.17-.46,1.23,1.23,0,0,0-.94.35,1.32,1.32,0,0,0-.34,1q0,.84,1.53,1.86l0,0,1.36.92a6.39,6.39,0,0,1,2,1.83,4.19,4.19,0,0,1,.52,2.2,3.65,3.65,0,0,1-1,2.8,4.12,4.12,0,0,1-3,1,3.93,3.93,0,0,1-3-1,4.44,4.44,0,0,1-1-3.17c0-.15,0-.4,0-.74Z"/><path class="cls-1" d="M224.52,0a7.8,7.8,0,0,1,3.79,1,7.14,7.14,0,0,1,2.86,2.83,7.8,7.8,0,0,1,1,3.86,7.71,7.71,0,0,1-1,3.83,7.25,7.25,0,0,1-2.84,2.84,7.7,7.7,0,0,1-7.66,0,7.25,7.25,0,0,1-2.84-2.84,7.71,7.71,0,0,1-1-3.83,7.8,7.8,0,0,1,1-3.86A7.14,7.14,0,0,1,220.73,1,7.8,7.8,0,0,1,224.52,0Zm0,1.5a6.25,6.25,0,0,0-3,.8A5.68,5.68,0,0,0,219.2,4.6a6.24,6.24,0,0,0-.84,3.11,6.15,6.15,0,0,0,.82,3.08,5.77,5.77,0,0,0,2.28,2.29,6.11,6.11,0,0,0,6.15,0,5.9,5.9,0,0,0,2.28-2.29,6.15,6.15,0,0,0,.82-3.08,6.24,6.24,0,0,0-.84-3.11,5.68,5.68,0,0,0-2.29-2.27A6.32,6.32,0,0,0,224.53,1.53Zm-3.48,10.3V3.67h1.65c1.56,0,2.43,0,2.61,0a3.25,3.25,0,0,1,1.28.33,2,2,0,0,1,.76.78A2.23,2.23,0,0,1,227.66,6a2.13,2.13,0,0,1-.58,1.51,2.59,2.59,0,0,1-1.62.78,2.07,2.07,0,0,1,.58.3,4.61,4.61,0,0,1,.55.63q.09.12.6,1l1,1.65h-2l-.69-1.33a5.5,5.5,0,0,0-1.14-1.68,1.82,1.82,0,0,0-1.14-.34h-.44v3.35Zm1.65-4.64h.68a7.79,7.79,0,0,0,1.78-.11,1,1,0,0,0,.54-.38,1,1,0,0,0,.2-.63,1,1,0,0,0-.19-.61,1.08,1.08,0,0,0-.56-.38A7.57,7.57,0,0,0,223.38,5h-.68Z"/></g></g></svg>