<svg xmlns="http://www.w3.org/2000/svg" xmlns:xlink="http://www.w3.org/1999/xlink" id="Livello_1" x="0px" y="0px" viewBox="0 0 260.7 68.54" style="enable-background:new 0 0 260.7 68.54;" xml:space="preserve"><style type="text/css">	.st0{fill:#575756;}	.st1{fill:#BBBBBB;}</style><g>	<path class="st0" d="M8.8,15.8L8.74,47.25l2.25,1.22l-2.07,0.29l0,0L8.91,54.7l0,0c0,0.01,0,0.02,0,0.03c0,0.03,0,0.05,0,0.08l0,0  l0,0l0,0c0,0.09,0,0.17,0.01,0.25s0.01,0.17,0.02,0.25l0,0c0,0.04,0.01,0.09,0.01,0.13s0.01,0.07,0.01,0.1v0.01  C8.97,55.63,8.98,55.72,9,55.8c0.02,0.08,0.03,0.16,0.05,0.25c0.01,0.05,0.02,0.1,0.04,0.16c0.01,0.03,0.01,0.06,0.02,0.09  c0.02,0.08,0.05,0.17,0.07,0.25l0.01,0.01l-0.02-0.01c0.03,0.08,0.06,0.17,0.09,0.25c0.02,0.05,0.04,0.1,0.06,0.15  c0.01,0.02,0.01,0.03,0.02,0.05s0.02,0.04,0.03,0.07c0.04,0.1,0.08,0.19,0.13,0.28c0.04,0.08,0.09,0.17,0.13,0.25  c0.01,0.01,0.02,0.03,0.03,0.05l0,0l0,0c0.06,0.11,0.13,0.22,0.2,0.33c0.03,0.05,0.07,0.09,0.1,0.14c0.04,0.06,0.08,0.11,0.12,0.17  c0.02,0.03,0.04,0.06,0.07,0.09l0,0c0.03,0.04,0.07,0.06,0.1,0.1c0.15,0.17,0.31,0.33,0.48,0.48c0.05,0.04,0.1,0.09,0.15,0.13  c0.22,0.18,0.46,0.35,0.71,0.49l3.97,2.16c1,1.67,2.84,2.62,4.93,2.32l32.79-4.61c3.19-0.45,5.77-3.6,5.78-7.03l0.01-5.93l0,0V45.7  l-1.09-0.59l0.92-0.13l0.06-31.45c0-0.03,0-0.06,0-0.09v-0.7c0.01-2.54-1.41-4.52-3.44-5.2c0.02,0.01,0.04,0.01,0.06,0.02  c0.01,0,0.02,0.01,0.04,0.01c0.23,0.08,0.46,0.18,0.67,0.3L50.44,4.7c-0.1-0.05-0.21-0.11-0.32-0.16l0.12,0.06  c0,0-0.01,0-0.01-0.01l-0.1-0.06c-0.04-0.02-0.08-0.03-0.12-0.05c-0.06-0.03-0.13-0.05-0.19-0.07c-0.05-0.02-0.09-0.04-0.14-0.06  c-0.12-0.04-0.23-0.07-0.36-0.1l0,0C49.21,4.24,49.11,4.21,49,4.2l0.03,0.02l0,0L49,4.2c-0.1-0.02-0.19-0.03-0.3-0.04l0.01,0.01  H48.7l0,0c-0.09-0.01-0.18-0.02-0.27-0.03l0.03,0.02l0,0l-0.03-0.02c-0.09-0.01-0.18-0.01-0.26-0.01l0.02,0.01l0,0l-0.02-0.01  c-0.09,0-0.17,0-0.25,0.01l0,0c-0.08,0-0.16,0.01-0.24,0.01c-0.08,0.01-0.17,0.02-0.25,0.03l0.02,0.01l0,0l-0.01-0.01  c-0.02,0.01-0.04,0.01-0.06,0.01l0,0l-32.8,4.59l0,0h-0.01c-0.06,0.01-0.11,0.02-0.17,0.03l0.02,0.01l0,0L14.4,8.81  c-0.08,0.01-0.16,0.03-0.23,0.05l0.03,0.02l-0.03-0.02C14.08,8.87,14,8.89,13.93,8.91l0,0c-0.08,0.02-0.15,0.04-0.23,0.07l0,0  C13.61,9,13.53,9.03,13.46,9.06l0,0l0,0l0,0h-0.01c-0.02,0.01-0.04,0.02-0.06,0.02c-0.05,0.02-0.11,0.04-0.16,0.06l0.01,0.01l0,0  l-0.02-0.01c-0.08,0.03-0.16,0.06-0.24,0.1l0,0c-0.08,0.03-0.16,0.07-0.24,0.12l0.02,0.01l0,0l-0.02-0.01  c-0.09,0.04-0.18,0.09-0.26,0.13L12.5,9.5l0,0l-0.02-0.01c-0.05,0.03-0.09,0.05-0.13,0.08c-0.01,0.01-0.03,0.02-0.04,0.03  c-0.03,0.02-0.06,0.04-0.09,0.06c-0.09,0.06-0.19,0.12-0.27,0.18l0.02,0.01l0,0l-0.02-0.01c-0.11,0.07-0.21,0.15-0.32,0.23  c-0.08,0.07-0.16,0.14-0.25,0.2c-0.02,0.01-0.03,0.03-0.05,0.04c-0.02,0.02-0.04,0.03-0.06,0.05l0,0c-0.15,0.14-0.3,0.29-0.44,0.44  c-0.06,0.06-0.11,0.14-0.17,0.21c-0.11,0.12-0.21,0.25-0.31,0.38c-0.13,0.17-0.26,0.35-0.37,0.54c-0.09,0.15-0.19,0.29-0.27,0.45  c-0.03,0.05-0.06,0.09-0.09,0.15l0,0c-0.1,0.19-0.19,0.38-0.27,0.58l0,0c-0.02,0.06-0.04,0.12-0.06,0.18  c-0.02,0.04-0.03,0.08-0.05,0.13c-0.02,0.04-0.03,0.09-0.05,0.13l0,0c-0.04,0.12-0.08,0.25-0.12,0.38l0.02,0.01l0,0L9.07,13.9  c-0.03,0.11-0.06,0.22-0.08,0.34H9l0,0l-0.02-0.01c-0.02,0.09-0.04,0.18-0.05,0.27c0,0.02-0.01,0.04-0.01,0.07  c-0.02,0.09-0.03,0.18-0.04,0.27l0,0c-0.01,0.09-0.03,0.19-0.03,0.28l0.03,0.01l0,0l-0.03-0.02c-0.01,0.09-0.02,0.18-0.02,0.28  l0.03,0.01l0,0l-0.03-0.01c0,0.09-0.01,0.17-0.01,0.26C8.8,15.7,8.8,15.75,8.8,15.8L8.8,15.8L8.8,15.8L8.8,15.8 M48.34,11.87  c0.03,0.22,0.04,0.45,0.04,0.69l0,0l-0.05,25.85l-1.8,0.25l0.05-25.13l0,0v-0.79c-0.01,0-0.08,0.02-0.13,0.04  c0.01,0,0.02-0.01,0.03-0.01s0.01,0,0.02,0c0.04-0.01,0.08-0.02,0.09-0.02l0,0l0,0l-0.91-0.49L48.34,11.87z M36.57,13.52  c-0.35,0.96-1.25,3.4-2.54,6.49c-0.02,0.06-0.05,0.11-0.07,0.16c-0.21,0.51-0.44,1.05-0.68,1.59c-0.22,0.49-0.43,0.99-0.66,1.51  c-0.09,0.21-0.19,0.42-0.29,0.63c-0.3,0.66-0.61,1.33-0.93,2.01c-0.07,0.14-0.14,0.29-0.21,0.43c-0.33,0.69-0.67,1.38-1.02,2.07  c-0.18,0.37-0.37,0.73-0.56,1.09c-0.1,0.19-0.19,0.37-0.29,0.56c-0.12,0.22-0.24,0.44-0.35,0.65c-0.14,0.26-0.28,0.52-0.42,0.77  c-0.11,0.2-0.22,0.39-0.33,0.59c-0.16,0.28-0.32,0.55-0.47,0.82c-0.1,0.18-0.21,0.35-0.31,0.52c-0.18,0.3-0.36,0.58-0.54,0.87  c-0.09,0.14-0.18,0.29-0.27,0.44c-0.23,0.36-0.46,0.71-0.69,1.05c-0.05,0.07-0.09,0.14-0.14,0.2c-0.28,0.41-0.57,0.82-0.86,1.2  c-0.05,0.07-0.11,0.14-0.16,0.21c-0.23,0.31-0.46,0.6-0.69,0.89c-0.09,0.11-0.18,0.22-0.28,0.33c-0.2,0.23-0.39,0.46-0.59,0.68  c-0.09,0.1-0.18,0.2-0.27,0.29c-0.28,0.3-0.56,0.58-0.85,0.84c-0.05,0.05-0.11,0.11-0.16,0.15c-0.12,0.11-0.24,0.21-0.36,0.31  c-0.15,0.13-0.3,0.26-0.46,0.38c-0.04,0.03-0.08,0.06-0.12,0.09c-0.22,0.16-0.43,0.31-0.65,0.45c-0.05,0.03-0.09,0.05-0.13,0.08  C20,42,19.78,42.12,19.55,42.22c-0.02,0.01-0.03,0.02-0.05,0.03l0,0c-0.02,0.01-0.04,0.02-0.07,0.03  c-0.03,0.01-0.06,0.02-0.08,0.03l0.04-20.92c0.01-3.02,2.28-5.79,5.08-6.18L36.57,13.52z M48.5,46.83L48.5,46.83  c0,0.37-0.04,0.75-0.1,1.11c0,0.01,0,0.01,0,0.01c-0.07,0.35-0.16,0.69-0.28,1.03c-0.01,0.02-0.02,0.04-0.02,0.06  c-0.11,0.29-0.25,0.57-0.4,0.84c-0.06,0.11-0.13,0.22-0.19,0.32c-0.12,0.19-0.24,0.37-0.37,0.54c-0.08,0.1-0.15,0.19-0.24,0.29  c-0.19,0.22-0.39,0.44-0.61,0.63c-0.01,0.01-0.03,0.02-0.04,0.03c-0.25,0.22-0.52,0.42-0.81,0.59c-0.02,0.01-0.04,0.02-0.06,0.04  c-0.29,0.17-0.59,0.32-0.9,0.43c-0.01,0-0.02,0.01-0.03,0.01c-0.33,0.12-0.66,0.2-1.01,0.25l-23.73,3.33  c-0.12-0.44-0.2-0.89-0.21-1.38v-2.9l0,0v-0.79l-1.14-0.62l0.96-0.14l9.86-1.39c2.05-0.49,4.29-2.86,6.29-5.62l5.83,3.17l0,0v0.79  l7.21-1.01L48.5,46.83z"/>	<path class="st1" d="M102.3,9.39c-0.76,0-1.32,0.27-1.66,0.8c-0.35,0.53-0.59,0.97-0.74,1.29L89.77,32.9  c-0.34,0.74-0.63,1.32-0.86,1.76s-0.34,0.76-0.34,0.94c0,0.19,0.05,0.33,0.14,0.44c0.09,0.11,0.22,0.22,0.37,0.33v0.99h-8.75v-0.99  c0.34-0.14,0.52-0.4,0.52-0.77c0-0.18-0.14-0.56-0.43-1.13c-0.28-0.57-0.64-1.27-1.06-2.12l-10.3-21.54  c-0.19-0.4-0.46-0.69-0.8-0.88c-0.34-0.18-0.84-0.37-1.49-0.55V8.4h10.24v0.99c-0.27,0-0.53,0.07-0.77,0.19  c-0.25,0.13-0.37,0.38-0.37,0.75c0,0.4,0.16,0.92,0.49,1.54c0.33,0.62,0.72,1.4,1.17,2.31l7.32,15.15L92,14.4  c0.46-0.96,0.89-1.81,1.29-2.56s0.6-1.28,0.6-1.57c0-0.59-0.54-0.88-1.61-0.88V8.4h10.02V9.39z"/>	<path class="st1" d="M101.78,31.03c0.8-0.77,1.76-1.15,2.87-1.15c1.1,0,2.06,0.38,2.86,1.15s1.2,1.69,1.2,2.75  c0,1.07-0.4,1.96-1.2,2.67c-0.8,0.71-1.76,1.07-2.86,1.07c-1.11,0-2.06-0.36-2.87-1.07c-0.8-0.72-1.2-1.61-1.2-2.67  S100.98,31.8,101.78,31.03"/>	<path class="st1" d="M143.15,14.34c0-0.4-0.16-0.71-0.49-0.91c-0.32-0.2-0.89-0.3-1.69-0.3h-18.54v6.83h11.21  c0.77,0,1.36-0.1,1.78-0.3c0.42-0.2,0.63-0.73,0.63-1.57h1.03v8.59h-1.03c0-0.84-0.21-1.38-0.63-1.63  c-0.42-0.23-1.01-0.36-1.78-0.36h-11.21v7.6h19.11c0.58,0,1.04-0.12,1.41-0.38c0.36-0.26,0.54-0.61,0.54-1.05h1.03v7.54h-1.03  c0-0.55-0.18-0.86-0.54-0.94c-0.36-0.07-0.83-0.11-1.41-0.11h-26.66v-0.99c0.27,0,0.5-0.08,0.71-0.25s0.32-0.41,0.32-0.74v-25  c0-0.33-0.11-0.58-0.32-0.74s-0.45-0.25-0.71-0.25V8.4h26.09c0.8,0,1.37-0.12,1.69-0.36s0.49-0.56,0.49-0.96h1.03v7.27h-1.03  L143.15,14.34L143.15,14.34z"/>	<path class="st1" d="M150.53,31.03c0.8-0.77,1.76-1.15,2.86-1.15s2.06,0.38,2.86,1.15s1.2,1.69,1.2,2.75c0,1.07-0.41,1.96-1.2,2.67  c-0.8,0.71-1.76,1.07-2.86,1.07s-2.06-0.36-2.86-1.07c-0.8-0.72-1.2-1.61-1.2-2.67S149.73,31.8,150.53,31.03"/>	<path class="st1" d="M191.01,37.48c-0.36-0.07-0.83-0.11-1.4-0.11h-27.23v-0.99c1.14,0,1.72-0.33,1.72-0.99v-25  c0-0.66-0.58-0.99-1.72-0.99v-1h9.84v0.99c-1.07,0-1.6,0.33-1.6,0.99V32.3h18.99c0.57,0,1.04-0.13,1.4-0.38  c0.36-0.26,0.54-0.61,0.54-1.05h1.03v7.55h-1.03C191.56,37.86,191.38,37.55,191.01,37.48"/>	<path class="st1" d="M196.08,31.03c0.8-0.77,1.76-1.15,2.86-1.15s2.06,0.38,2.86,1.15s1.2,1.69,1.2,2.75c0,1.07-0.4,1.96-1.2,2.67  s-1.75,1.07-2.86,1.07s-2.06-0.36-2.86-1.07c-0.8-0.72-1.2-1.61-1.2-2.67C194.87,32.72,195.28,31.8,196.08,31.03"/>	<path class="st1" d="M205.46,36.38c0.5-0.07,0.89-0.31,1.17-0.72c0.29-0.41,0.56-0.87,0.83-1.38l10.59-21.42  c0.27-0.48,0.51-0.92,0.72-1.32s0.32-0.75,0.32-1.05c0-0.37-0.14-0.62-0.4-0.77s-0.55-0.26-0.86-0.33V8.4h9.67v0.99  c-0.27,0.07-0.53,0.17-0.8,0.3s-0.4,0.39-0.4,0.8c0,0.29,0.07,0.59,0.2,0.88c0.13,0.29,0.33,0.68,0.6,1.16l11.91,22.41  c0.19,0.41,0.45,0.7,0.77,0.88c0.33,0.19,0.69,0.37,1.12,0.55v0.99h-10.07v-0.99c0.15,0,0.34-0.06,0.57-0.17  c0.23-0.11,0.34-0.27,0.34-0.49c0-0.36-0.16-0.85-0.46-1.43l-2.17-4.08h-13.96l-2.06,3.91c-0.38,0.77-0.57,1.32-0.57,1.65  c0,0.41,0.36,0.61,1.09,0.61v0.99h-8.13v-0.98C205.48,36.38,205.46,36.38,205.46,36.38z M227.03,26.13l-4.81-10.24l-5.38,10.24  H227.03z"/>	<path class="st1" d="M244.83,31.03c0.8-0.77,1.75-1.15,2.86-1.15c1.1,0,2.06,0.38,2.86,1.15s1.2,1.69,1.2,2.75  c0,1.07-0.4,1.96-1.2,2.67s-1.76,1.07-2.86,1.07c-1.11,0-2.06-0.36-2.86-1.07c-0.8-0.72-1.2-1.61-1.2-2.67  C243.62,32.72,244.02,31.8,244.83,31.03"/>	<path class="st1" d="M19.73,63.86c-1.23,0-2.39-0.48-3.24-1.33C15.52,61.56,15,60.19,15,58.67l0.01-5.71l4.21-0.59l-0.01,3.32  c0,1.48,0.52,2.81,1.46,3.75c0.84,0.85,1.98,1.31,3.2,1.31c0.23,0,0.46-0.01,0.69-0.05l24.72-3.48c2.91-0.41,5.29-3.3,5.3-6.44  l0.01-3.4l4.22-0.59l-0.01,5.63c-0.01,3.3-2.5,6.34-5.56,6.77L20.45,63.8C20.21,63.84,19.97,63.86,19.73,63.86L19.73,63.86z   M14.83,50.91l0.06-31.15c0.01-3.3,2.5-6.34,5.56-6.77l32.79-4.61c0.24-0.03,0.48-0.05,0.71-0.05c1.24,0,2.39,0.48,3.25,1.34  c0.97,0.97,1.5,2.34,1.49,3.86l-0.05,31.23l-17.09,2.4l0.03-13.71l-0.49-0.11c-0.28,0.58-6.83,14.29-11.96,15.53l-9.85,1.39  L14.83,50.91L14.83,50.91z M49.82,11.45c-0.23,0-0.47,0.02-0.7,0.05L24.4,14.97c-2.92,0.41-5.3,3.3-5.3,6.44l-0.05,25.85v0.3  l0.3-0.04l5.18-0.73h0.02l0.02-0.01c8.33-2.44,17.23-26.82,18.22-29.59v-0.01v-0.01c0.64-2.21,2.7-3.05,3.53-3.31l-0.06,29.57v0.3  l0.3-0.04l7.64-1.07l0.22-0.03v-0.23l0.05-25.85c0-1.47-0.51-2.81-1.45-3.75C52.17,11.92,51.03,11.45,49.82,11.45L49.82,11.45z"/>	<path class="st1" d="M74.65,57.48c-0.33,0.43-0.71,0.75-1.13,0.96c-0.42,0.2-0.88,0.31-1.37,0.31c-0.52,0-1-0.1-1.44-0.29  c-0.44-0.19-0.82-0.46-1.13-0.8s-0.56-0.75-0.73-1.22c-0.17-0.47-0.26-0.98-0.26-1.54s0.09-1.07,0.26-1.54  c0.17-0.47,0.42-0.87,0.73-1.22c0.32-0.34,0.69-0.61,1.13-0.8c0.44-0.19,0.92-0.28,1.44-0.28c0.5,0,0.96,0.11,1.39,0.33  c0.42,0.22,0.8,0.53,1.14,0.93l-0.71,0.57c-0.26-0.31-0.53-0.54-0.83-0.72c-0.3-0.17-0.63-0.26-0.99-0.26  c-0.41,0-0.78,0.08-1.11,0.24s-0.61,0.37-0.85,0.64c-0.23,0.27-0.41,0.58-0.53,0.95c-0.12,0.37-0.18,0.75-0.18,1.16  s0.06,0.8,0.18,1.16s0.3,0.68,0.53,0.95c0.24,0.27,0.52,0.49,0.85,0.64c0.34,0.15,0.71,0.23,1.11,0.23c0.38,0,0.72-0.09,1.03-0.28  c0.31-0.18,0.57-0.43,0.8-0.73L74.65,57.48z"/>	<path class="st1" d="M75.65,54.9c0-0.56,0.09-1.07,0.27-1.54s0.42-0.87,0.74-1.22c0.32-0.34,0.69-0.61,1.13-0.8  c0.44-0.19,0.92-0.28,1.44-0.28c0.52,0,1,0.1,1.43,0.28c0.43,0.19,0.82,0.46,1.13,0.8c0.32,0.35,0.57,0.75,0.74,1.22  c0.18,0.47,0.27,0.98,0.27,1.54s-0.09,1.08-0.27,1.54c-0.17,0.47-0.42,0.87-0.74,1.22c-0.31,0.34-0.7,0.61-1.13,0.8  c-0.43,0.18-0.91,0.28-1.43,0.28s-1-0.1-1.44-0.28c-0.44-0.19-0.82-0.46-1.13-0.8c-0.32-0.35-0.56-0.75-0.74-1.22  C75.74,55.98,75.65,55.47,75.65,54.9 M76.53,54.9c0,0.41,0.06,0.8,0.18,1.16c0.13,0.36,0.3,0.68,0.54,0.95s0.52,0.48,0.86,0.64  c0.33,0.16,0.7,0.23,1.11,0.23s0.78-0.08,1.12-0.23c0.33-0.16,0.61-0.37,0.85-0.64c0.23-0.27,0.41-0.59,0.54-0.95  c0.12-0.37,0.18-0.75,0.18-1.16s-0.06-0.8-0.18-1.16s-0.3-0.68-0.54-0.95s-0.52-0.48-0.85-0.64C80,52,79.63,51.92,79.22,51.92  s-0.78,0.08-1.11,0.23c-0.34,0.16-0.62,0.37-0.86,0.64c-0.23,0.27-0.41,0.59-0.54,0.95C76.59,54.1,76.53,54.49,76.53,54.9"/>	<path class="st1" d="M84.76,53.31c0-0.14,0-0.31-0.01-0.5s-0.02-0.39-0.02-0.59s-0.01-0.39-0.03-0.56  c-0.01-0.18-0.01-0.31-0.01-0.41h0.88c0.01,0.28,0.02,0.54,0.03,0.79c0,0.25,0.01,0.41,0.04,0.49h0.04  c0.18-0.4,0.47-0.75,0.88-1.04c0.41-0.29,0.89-0.43,1.44-0.43c0.45,0,0.86,0.12,1.23,0.37s0.64,0.65,0.81,1.21  c0.22-0.55,0.54-0.95,0.96-1.2c0.43-0.25,0.87-0.38,1.34-0.38c0.53,0,0.96,0.09,1.29,0.27s0.6,0.42,0.79,0.71s0.32,0.62,0.4,1  c0.07,0.38,0.11,0.77,0.11,1.17v4.35h-0.88v-4.3c0-0.29-0.03-0.58-0.07-0.86c-0.05-0.28-0.14-0.53-0.25-0.75  c-0.12-0.22-0.3-0.4-0.52-0.53c-0.22-0.13-0.5-0.19-0.86-0.19c-0.41,0-0.75,0.08-1.01,0.24c-0.26,0.17-0.47,0.38-0.62,0.63  s-0.26,0.53-0.33,0.82c-0.06,0.3-0.09,0.58-0.09,0.85v4.11h-0.9v-4.4c0-0.68-0.12-1.22-0.34-1.63c-0.23-0.41-0.58-0.62-1.06-0.62  c-0.32,0-0.63,0.06-0.92,0.18s-0.54,0.3-0.75,0.55s-0.38,0.56-0.5,0.93c-0.12,0.38-0.18,0.82-0.18,1.32v3.65h-0.88v-5.25  C84.77,53.31,84.76,53.31,84.76,53.31z"/>	<path class="st1" d="M97.28,53.31c0-0.14-0.01-0.31-0.02-0.5c-0.01-0.19-0.02-0.39-0.02-0.59c-0.01-0.2-0.01-0.39-0.02-0.56  c-0.01-0.18-0.01-0.31-0.01-0.41h0.88c0.01,0.28,0.02,0.54,0.02,0.79c0.01,0.25,0.02,0.41,0.03,0.49h0.05  c0.17-0.4,0.47-0.75,0.88-1.04c0.41-0.29,0.89-0.43,1.44-0.43c0.45,0,0.86,0.12,1.23,0.37s0.64,0.65,0.81,1.21  c0.22-0.55,0.54-0.95,0.97-1.2c0.42-0.25,0.87-0.38,1.34-0.38c0.53,0,0.96,0.09,1.3,0.27c0.33,0.18,0.59,0.42,0.79,0.71  c0.19,0.29,0.32,0.62,0.39,1c0.08,0.38,0.11,0.77,0.11,1.17v4.35h-0.88v-4.3c0-0.29-0.02-0.58-0.07-0.86s-0.13-0.53-0.25-0.75  s-0.3-0.4-0.52-0.53c-0.22-0.13-0.51-0.19-0.86-0.19c-0.41,0-0.75,0.08-1.01,0.24c-0.26,0.17-0.47,0.38-0.62,0.63  s-0.26,0.53-0.32,0.82c-0.07,0.3-0.09,0.58-0.09,0.85v4.11h-0.89v-4.4c0-0.68-0.11-1.22-0.35-1.63c-0.23-0.41-0.58-0.62-1.06-0.62  c-0.33,0-0.63,0.06-0.92,0.18c-0.28,0.12-0.54,0.3-0.75,0.55s-0.38,0.56-0.5,0.93c-0.12,0.38-0.18,0.82-0.18,1.32v3.65H97.3v-5.25  C97.3,53.31,97.28,53.31,97.28,53.31z"/>	<path class="st1" d="M115.79,57.18c-0.34,0.56-0.77,0.96-1.27,1.21c-0.51,0.24-1.06,0.36-1.67,0.36c-0.52,0-0.99-0.09-1.41-0.28  c-0.42-0.19-0.78-0.46-1.09-0.8s-0.54-0.75-0.7-1.22c-0.17-0.47-0.24-0.99-0.24-1.56c0-0.55,0.08-1.05,0.25-1.52  s0.4-0.87,0.71-1.21c0.3-0.35,0.66-0.61,1.07-0.8c0.41-0.2,0.87-0.29,1.36-0.29c0.52,0,0.98,0.1,1.38,0.29  c0.39,0.19,0.73,0.45,1,0.78c0.27,0.32,0.47,0.69,0.61,1.09c0.14,0.42,0.21,0.83,0.21,1.25v0.66h-5.7c0,0.2,0.04,0.46,0.11,0.77  s0.21,0.62,0.4,0.91c0.2,0.29,0.46,0.55,0.78,0.76c0.33,0.21,0.75,0.31,1.27,0.31c0.45,0,0.89-0.11,1.31-0.35  c0.42-0.23,0.74-0.55,0.97-0.95L115.79,57.18z M115.11,54.29c0-0.33-0.06-0.63-0.18-0.92c-0.12-0.29-0.29-0.54-0.5-0.75  c-0.21-0.22-0.46-0.39-0.75-0.51c-0.29-0.13-0.6-0.19-0.92-0.19c-0.48,0-0.88,0.11-1.2,0.31c-0.32,0.21-0.57,0.46-0.76,0.73  s-0.32,0.54-0.4,0.8s-0.12,0.43-0.12,0.53C110.28,54.29,115.11,54.29,115.11,54.29z"/>	<path class="st1" d="M117.96,53.31c0-0.14-0.01-0.31-0.02-0.5c-0.01-0.19-0.02-0.39-0.02-0.59c-0.01-0.2-0.02-0.39-0.03-0.56  c-0.01-0.18-0.01-0.31-0.01-0.41h0.88c0.01,0.28,0.02,0.54,0.02,0.79s0.02,0.41,0.04,0.49c0.23-0.43,0.52-0.79,0.87-1.07  c0.35-0.27,0.78-0.41,1.29-0.41c0.09,0,0.17,0.01,0.26,0.03c0.08,0.01,0.17,0.03,0.26,0.06l-0.11,0.93  c-0.12-0.04-0.23-0.06-0.34-0.06c-0.38,0-0.71,0.06-0.99,0.2c-0.28,0.13-0.51,0.31-0.69,0.55c-0.18,0.23-0.32,0.5-0.4,0.82  c-0.09,0.31-0.13,0.64-0.13,1v3.99h-0.88L117.96,53.31L117.96,53.31z"/>	<path class="st1" d="M128.27,57.48c-0.33,0.43-0.71,0.75-1.13,0.96c-0.42,0.2-0.88,0.31-1.37,0.31c-0.51,0-1-0.1-1.44-0.29  c-0.44-0.19-0.82-0.46-1.13-0.8c-0.32-0.34-0.56-0.75-0.74-1.22c-0.17-0.47-0.27-0.98-0.27-1.54s0.09-1.07,0.27-1.54  s0.42-0.87,0.74-1.22c0.31-0.34,0.69-0.61,1.13-0.8c0.44-0.19,0.92-0.28,1.44-0.28c0.5,0,0.96,0.11,1.39,0.33  c0.42,0.22,0.8,0.53,1.14,0.93l-0.71,0.57c-0.25-0.31-0.53-0.54-0.83-0.72c-0.3-0.17-0.63-0.26-0.99-0.26  c-0.41,0-0.78,0.08-1.11,0.24s-0.61,0.37-0.85,0.64s-0.41,0.58-0.54,0.95s-0.19,0.75-0.19,1.16s0.06,0.8,0.19,1.16  c0.12,0.36,0.3,0.68,0.54,0.95s0.52,0.49,0.85,0.64c0.33,0.15,0.7,0.23,1.11,0.23c0.37,0,0.72-0.09,1.02-0.28  c0.31-0.18,0.58-0.43,0.8-0.73L128.27,57.48z"/>	<path class="st1" d="M129.58,48.36c0-0.2,0.06-0.37,0.19-0.51c0.12-0.14,0.28-0.2,0.47-0.2s0.35,0.07,0.47,0.2  c0.13,0.14,0.2,0.31,0.2,0.51c0,0.2-0.07,0.37-0.2,0.5c-0.12,0.13-0.28,0.2-0.47,0.2c-0.18,0-0.34-0.06-0.47-0.2  S129.58,48.56,129.58,48.36 M129.8,51.25h0.88v7.31h-0.88V51.25z"/>	<path class="st1" d="M132.8,54.9c0-0.56,0.09-1.07,0.26-1.54c0.18-0.47,0.42-0.87,0.73-1.22c0.32-0.34,0.69-0.61,1.13-0.8  s0.92-0.28,1.43-0.28c0.53,0,1,0.1,1.44,0.28c0.43,0.19,0.81,0.46,1.13,0.8c0.32,0.35,0.56,0.75,0.74,1.22  c0.18,0.47,0.26,0.98,0.26,1.54s-0.09,1.08-0.26,1.54c-0.18,0.47-0.42,0.87-0.74,1.22c-0.32,0.34-0.69,0.61-1.13,0.8  c-0.44,0.18-0.91,0.28-1.44,0.28c-0.52,0-0.99-0.1-1.43-0.28c-0.44-0.19-0.82-0.46-1.13-0.8c-0.31-0.35-0.56-0.75-0.73-1.22  C132.89,55.98,132.8,55.47,132.8,54.9 M133.68,54.9c0,0.41,0.06,0.8,0.18,1.16s0.3,0.68,0.54,0.95c0.24,0.27,0.52,0.48,0.85,0.64  c0.34,0.16,0.7,0.23,1.11,0.23s0.79-0.08,1.12-0.23c0.33-0.16,0.62-0.37,0.85-0.64c0.23-0.27,0.41-0.59,0.53-0.95  c0.13-0.37,0.19-0.75,0.19-1.16s-0.06-0.8-0.19-1.16c-0.12-0.36-0.3-0.68-0.53-0.95c-0.24-0.27-0.52-0.48-0.85-0.64  c-0.33-0.15-0.71-0.23-1.12-0.23c-0.41,0-0.78,0.08-1.11,0.23c-0.33,0.16-0.61,0.37-0.85,0.64c-0.23,0.27-0.41,0.59-0.54,0.95  C133.74,54.1,133.68,54.49,133.68,54.9"/>	<path class="st1" d="M151.72,57.18c-0.34,0.56-0.77,0.96-1.27,1.21c-0.5,0.24-1.06,0.36-1.67,0.36c-0.52,0-0.99-0.09-1.41-0.28  s-0.78-0.46-1.08-0.8c-0.31-0.34-0.54-0.75-0.7-1.22s-0.25-0.99-0.25-1.56c0-0.55,0.08-1.05,0.25-1.52s0.4-0.87,0.71-1.21  c0.3-0.35,0.66-0.61,1.07-0.8c0.41-0.2,0.86-0.29,1.36-0.29c0.52,0,0.98,0.1,1.38,0.29c0.4,0.19,0.73,0.45,1,0.78  c0.27,0.32,0.47,0.69,0.61,1.09c0.14,0.42,0.2,0.83,0.2,1.25v0.66h-5.7c0,0.2,0.04,0.46,0.11,0.77c0.08,0.31,0.21,0.62,0.4,0.91  c0.2,0.29,0.46,0.55,0.79,0.76c0.33,0.21,0.75,0.31,1.27,0.31c0.45,0,0.89-0.11,1.31-0.35c0.42-0.23,0.74-0.55,0.97-0.95  L151.72,57.18z M151.04,54.29c0-0.33-0.06-0.63-0.18-0.92c-0.12-0.29-0.29-0.54-0.49-0.75c-0.21-0.22-0.47-0.39-0.75-0.51  c-0.29-0.13-0.6-0.19-0.92-0.19c-0.48,0-0.87,0.11-1.2,0.31c-0.32,0.21-0.57,0.46-0.76,0.73c-0.18,0.27-0.31,0.54-0.39,0.8  s-0.12,0.43-0.12,0.53C146.23,54.29,151.04,54.29,151.04,54.29z"/>	<rect x="154.04" y="46.6" class="st1" width="0.88" height="11.96"/>	<path class="st1" d="M163.41,57.18c-0.35,0.56-0.77,0.96-1.27,1.21c-0.5,0.24-1.06,0.36-1.67,0.36c-0.52,0-0.99-0.09-1.41-0.28  s-0.78-0.46-1.08-0.8c-0.31-0.34-0.54-0.75-0.7-1.22s-0.24-0.99-0.24-1.56c0-0.55,0.08-1.05,0.25-1.52s0.4-0.87,0.71-1.21  c0.3-0.35,0.66-0.61,1.07-0.8c0.41-0.2,0.87-0.29,1.37-0.29c0.52,0,0.98,0.1,1.37,0.29c0.4,0.19,0.73,0.45,1,0.78  c0.27,0.32,0.47,0.69,0.61,1.09c0.14,0.42,0.2,0.83,0.2,1.25v0.66h-5.7c0,0.2,0.03,0.46,0.11,0.77c0.07,0.31,0.21,0.62,0.41,0.91  c0.19,0.29,0.46,0.55,0.79,0.76c0.33,0.21,0.75,0.31,1.27,0.31c0.45,0,0.88-0.11,1.31-0.35c0.42-0.23,0.74-0.55,0.97-0.95  L163.41,57.18z M162.74,54.29c0-0.33-0.06-0.63-0.19-0.92c-0.12-0.29-0.29-0.54-0.5-0.75c-0.21-0.22-0.46-0.39-0.75-0.51  c-0.29-0.13-0.6-0.19-0.92-0.19c-0.48,0-0.88,0.11-1.2,0.31c-0.32,0.21-0.57,0.46-0.75,0.73c-0.19,0.27-0.32,0.54-0.4,0.8  c-0.07,0.26-0.11,0.43-0.11,0.53C157.92,54.29,162.74,54.29,162.74,54.29z"/>	<path class="st1" d="M168.91,52.1h-1.94v4.76c0,0.33,0.08,0.58,0.25,0.76c0.16,0.18,0.39,0.27,0.69,0.27  c0.16,0,0.34-0.02,0.51-0.07s0.34-0.11,0.49-0.18l0.07,0.85c-0.17,0.06-0.36,0.12-0.57,0.18c-0.21,0.05-0.41,0.08-0.57,0.08  c-0.31,0-0.59-0.05-0.81-0.15c-0.22-0.1-0.41-0.23-0.54-0.4c-0.14-0.17-0.23-0.37-0.3-0.59c-0.06-0.23-0.09-0.47-0.09-0.74V52.1  h-1.47v-0.85h1.47v-2.1h0.88v2.1h1.94v0.85H168.91z"/>	<path class="st1" d="M173.81,52.1h-1.94v4.76c0,0.33,0.08,0.58,0.25,0.76c0.17,0.18,0.4,0.27,0.69,0.27c0.17,0,0.34-0.02,0.51-0.07  s0.34-0.11,0.5-0.18l0.07,0.85c-0.16,0.06-0.36,0.12-0.57,0.18c-0.21,0.05-0.41,0.08-0.57,0.08c-0.31,0-0.58-0.05-0.81-0.15  c-0.22-0.1-0.4-0.23-0.54-0.4c-0.14-0.17-0.24-0.37-0.3-0.59c-0.07-0.23-0.1-0.47-0.1-0.74V52.1h-1.47v-0.85H171v-2.1h0.88v2.1  h1.94L173.81,52.1L173.81,52.1z"/>	<path class="st1" d="M175.39,53.31c0-0.14-0.01-0.31-0.02-0.5c-0.01-0.19-0.01-0.39-0.01-0.59c-0.01-0.2-0.02-0.39-0.02-0.56  c-0.01-0.18-0.02-0.31-0.02-0.41h0.88c0.01,0.28,0.01,0.54,0.02,0.79c0,0.25,0.02,0.41,0.03,0.49c0.23-0.43,0.52-0.79,0.87-1.07  c0.36-0.27,0.78-0.41,1.29-0.41c0.08,0,0.17,0.01,0.25,0.03c0.09,0.01,0.17,0.03,0.26,0.06l-0.1,0.93  c-0.12-0.04-0.23-0.06-0.34-0.06c-0.38,0-0.71,0.06-0.99,0.2c-0.28,0.13-0.51,0.31-0.69,0.55c-0.18,0.23-0.32,0.5-0.4,0.82  c-0.09,0.31-0.14,0.64-0.14,1v3.99h-0.88v-5.26C175.38,53.31,175.39,53.31,175.39,53.31z"/>	<path class="st1" d="M179.63,54.9c0-0.56,0.09-1.07,0.27-1.54c0.17-0.47,0.42-0.87,0.73-1.22c0.32-0.34,0.69-0.61,1.13-0.8  s0.92-0.28,1.44-0.28s1,0.1,1.44,0.28c0.43,0.19,0.81,0.46,1.13,0.8c0.32,0.35,0.57,0.75,0.74,1.22c0.18,0.47,0.26,0.98,0.26,1.54  s-0.09,1.08-0.26,1.54c-0.17,0.47-0.42,0.87-0.74,1.22c-0.32,0.34-0.7,0.61-1.13,0.8c-0.44,0.18-0.92,0.28-1.44,0.28  s-1-0.1-1.44-0.28c-0.44-0.19-0.81-0.46-1.13-0.8c-0.31-0.35-0.56-0.75-0.73-1.22C179.72,55.98,179.63,55.47,179.63,54.9   M180.51,54.9c0,0.41,0.06,0.8,0.19,1.16s0.3,0.68,0.54,0.95c0.23,0.27,0.52,0.48,0.85,0.64s0.7,0.23,1.12,0.23  c0.41,0,0.78-0.08,1.11-0.23c0.34-0.16,0.62-0.37,0.86-0.64s0.41-0.59,0.54-0.95c0.12-0.37,0.19-0.75,0.19-1.16  s-0.07-0.8-0.19-1.16c-0.13-0.36-0.3-0.68-0.54-0.95c-0.24-0.27-0.52-0.48-0.86-0.64c-0.33-0.15-0.7-0.23-1.11-0.23  s-0.78,0.08-1.12,0.23c-0.33,0.16-0.62,0.37-0.85,0.64c-0.23,0.27-0.41,0.59-0.54,0.95C180.57,54.1,180.51,54.49,180.51,54.9"/>	<path class="st1" d="M194.67,57.27h-0.03c-0.14,0.25-0.31,0.47-0.51,0.66s-0.42,0.33-0.67,0.46c-0.24,0.12-0.49,0.21-0.76,0.27  c-0.27,0.06-0.52,0.09-0.78,0.09c-0.52,0-1-0.1-1.44-0.28c-0.44-0.19-0.82-0.46-1.13-0.8c-0.31-0.35-0.57-0.75-0.74-1.22  c-0.18-0.47-0.26-0.98-0.26-1.54s0.08-1.07,0.26-1.54c0.17-0.47,0.42-0.87,0.74-1.22c0.31-0.34,0.69-0.61,1.13-0.8  s0.92-0.28,1.44-0.28c0.26,0,0.52,0.03,0.78,0.09s0.52,0.15,0.76,0.27c0.24,0.12,0.46,0.28,0.67,0.46c0.21,0.18,0.38,0.4,0.51,0.66  h0.03V46.6h0.89v11.96h-0.89V57.27z M194.76,54.9c0-0.41-0.07-0.8-0.22-1.16s-0.35-0.68-0.61-0.95s-0.56-0.48-0.9-0.64  c-0.34-0.15-0.72-0.23-1.12-0.23c-0.41,0-0.78,0.08-1.11,0.23c-0.33,0.16-0.62,0.37-0.85,0.64c-0.24,0.27-0.42,0.59-0.53,0.95  c-0.12,0.37-0.18,0.75-0.18,1.16s0.06,0.8,0.18,1.16s0.3,0.68,0.53,0.95s0.52,0.48,0.85,0.64s0.7,0.23,1.11,0.23  c0.4,0,0.78-0.08,1.12-0.23c0.34-0.16,0.64-0.37,0.9-0.64s0.46-0.59,0.61-0.95C194.69,55.7,194.76,55.31,194.76,54.9"/>	<path class="st1" d="M197.33,54.9c0-0.56,0.08-1.07,0.27-1.54c0.17-0.47,0.42-0.87,0.73-1.22c0.32-0.34,0.69-0.61,1.13-0.8  s0.92-0.28,1.44-0.28s1,0.1,1.43,0.28c0.44,0.19,0.82,0.46,1.13,0.8c0.32,0.35,0.57,0.75,0.74,1.22c0.18,0.47,0.27,0.98,0.27,1.54  s-0.09,1.08-0.27,1.54c-0.18,0.47-0.42,0.87-0.74,1.22c-0.31,0.34-0.69,0.61-1.13,0.8c-0.43,0.18-0.91,0.28-1.43,0.28  c-0.52,0-1-0.1-1.44-0.28c-0.44-0.19-0.81-0.46-1.13-0.8c-0.31-0.35-0.56-0.75-0.73-1.22C197.42,55.98,197.33,55.47,197.33,54.9   M198.22,54.9c0,0.41,0.06,0.8,0.18,1.16s0.31,0.68,0.54,0.95c0.24,0.27,0.52,0.48,0.85,0.64s0.71,0.23,1.12,0.23  c0.42,0,0.79-0.08,1.12-0.23c0.33-0.16,0.62-0.37,0.85-0.64c0.24-0.27,0.41-0.59,0.54-0.95c0.12-0.37,0.18-0.75,0.18-1.16  s-0.06-0.8-0.18-1.16c-0.13-0.36-0.3-0.68-0.54-0.95c-0.23-0.27-0.52-0.48-0.85-0.64c-0.33-0.15-0.7-0.23-1.12-0.23  c-0.41,0-0.78,0.08-1.12,0.23c-0.33,0.16-0.61,0.37-0.85,0.64c-0.23,0.27-0.42,0.59-0.54,0.95  C198.27,54.1,198.22,54.49,198.22,54.9"/>	<path class="st1" d="M206.44,53.31c0-0.14,0-0.31-0.01-0.5s-0.02-0.39-0.02-0.59c-0.01-0.2-0.02-0.39-0.02-0.56  c-0.01-0.18-0.02-0.31-0.02-0.41h0.88c0.01,0.28,0.02,0.54,0.02,0.79c0.01,0.25,0.02,0.41,0.04,0.49h0.04  c0.18-0.4,0.47-0.75,0.88-1.04s0.89-0.43,1.44-0.43c0.45,0,0.86,0.12,1.23,0.37s0.64,0.65,0.81,1.21c0.21-0.55,0.53-0.95,0.97-1.2  c0.42-0.25,0.87-0.38,1.34-0.38c0.53,0,0.96,0.09,1.3,0.27c0.33,0.18,0.59,0.42,0.79,0.71c0.19,0.29,0.33,0.62,0.39,1  c0.08,0.38,0.11,0.77,0.11,1.17v4.35h-0.89v-4.3c0-0.29-0.02-0.58-0.07-0.86s-0.14-0.53-0.26-0.75s-0.29-0.4-0.52-0.53  c-0.22-0.13-0.5-0.19-0.86-0.19c-0.41,0-0.75,0.08-1.01,0.24c-0.27,0.17-0.47,0.38-0.63,0.63c-0.15,0.25-0.26,0.53-0.32,0.82  c-0.07,0.3-0.1,0.58-0.1,0.85v4.11h-0.88v-4.4c0-0.68-0.11-1.22-0.35-1.63c-0.23-0.41-0.58-0.62-1.06-0.62  c-0.33,0-0.63,0.06-0.92,0.18s-0.54,0.3-0.75,0.55s-0.38,0.56-0.5,0.93c-0.12,0.38-0.18,0.82-0.18,1.32v3.65h-0.88v-5.25  C206.43,53.31,206.44,53.31,206.44,53.31z"/>	<path class="st1" d="M224.95,57.18c-0.35,0.56-0.77,0.96-1.27,1.21c-0.5,0.24-1.06,0.36-1.67,0.36c-0.52,0-0.99-0.09-1.41-0.28  c-0.43-0.19-0.78-0.46-1.08-0.8c-0.31-0.34-0.54-0.75-0.7-1.22s-0.24-0.99-0.24-1.56c0-0.55,0.08-1.05,0.25-1.52  s0.4-0.87,0.71-1.21c0.3-0.35,0.66-0.61,1.07-0.8c0.41-0.2,0.87-0.29,1.37-0.29c0.52,0,0.98,0.1,1.37,0.29  c0.39,0.19,0.73,0.45,1,0.78c0.27,0.32,0.48,0.69,0.61,1.09c0.14,0.42,0.21,0.83,0.21,1.25v0.66h-5.7c0,0.2,0.04,0.46,0.11,0.77  c0.08,0.31,0.21,0.62,0.41,0.91s0.46,0.55,0.78,0.76c0.33,0.21,0.76,0.31,1.27,0.31c0.45,0,0.88-0.11,1.31-0.35  c0.42-0.23,0.73-0.55,0.96-0.95L224.95,57.18z M224.27,54.29c0-0.33-0.06-0.63-0.18-0.92c-0.12-0.29-0.29-0.54-0.5-0.75  c-0.21-0.22-0.46-0.39-0.75-0.51c-0.29-0.13-0.59-0.19-0.92-0.19c-0.48,0-0.88,0.11-1.19,0.31c-0.32,0.21-0.57,0.46-0.76,0.73  c-0.18,0.27-0.32,0.54-0.4,0.8c-0.08,0.26-0.12,0.43-0.12,0.53C219.45,54.29,224.27,54.29,224.27,54.29z"/>	<path class="st1" d="M227.14,56.69c0.18,0.39,0.46,0.69,0.82,0.89c0.36,0.21,0.74,0.31,1.15,0.31c0.18,0,0.37-0.03,0.55-0.09  c0.19-0.06,0.35-0.15,0.5-0.27s0.27-0.26,0.36-0.42s0.14-0.35,0.14-0.56c0-0.34-0.11-0.59-0.3-0.76c-0.2-0.16-0.45-0.3-0.74-0.39  c-0.3-0.09-0.62-0.18-0.97-0.25s-0.67-0.17-0.97-0.32c-0.29-0.14-0.54-0.34-0.74-0.59c-0.2-0.26-0.3-0.61-0.3-1.08  c0-0.36,0.07-0.67,0.21-0.93c0.14-0.26,0.32-0.48,0.53-0.65c0.22-0.18,0.47-0.3,0.74-0.39s0.55-0.13,0.84-0.13  c0.56,0,1.04,0.11,1.45,0.33s0.72,0.57,0.95,1.05l-0.79,0.51c-0.16-0.34-0.38-0.59-0.62-0.77c-0.25-0.17-0.58-0.26-0.97-0.26  c-0.15,0-0.32,0.03-0.5,0.08c-0.17,0.05-0.32,0.12-0.46,0.21c-0.13,0.1-0.25,0.22-0.35,0.37c-0.09,0.15-0.14,0.31-0.14,0.5  c0,0.33,0.1,0.57,0.3,0.73s0.45,0.29,0.75,0.38c0.29,0.09,0.62,0.17,0.97,0.23s0.67,0.16,0.97,0.31c0.29,0.14,0.54,0.34,0.74,0.62  c0.2,0.27,0.3,0.65,0.3,1.14c0,0.38-0.07,0.71-0.2,0.99c-0.13,0.28-0.31,0.52-0.54,0.71s-0.49,0.33-0.79,0.43  c-0.29,0.09-0.61,0.14-0.92,0.14c-0.59,0-1.13-0.12-1.61-0.37c-0.49-0.24-0.86-0.61-1.12-1.12L227.14,56.69z"/>	<path class="st1" d="M236.7,52.1h-1.94v4.76c0,0.33,0.08,0.58,0.25,0.76c0.16,0.18,0.39,0.27,0.69,0.27c0.16,0,0.33-0.02,0.5-0.07  s0.34-0.11,0.5-0.18l0.07,0.85c-0.16,0.06-0.36,0.12-0.58,0.18c-0.21,0.05-0.41,0.08-0.57,0.08c-0.31,0-0.58-0.05-0.81-0.15  c-0.22-0.1-0.4-0.23-0.54-0.4c-0.14-0.17-0.23-0.37-0.3-0.59c-0.07-0.23-0.1-0.47-0.1-0.74V52.1h-1.47v-0.85h1.47v-2.1h0.88v2.1  h1.94L236.7,52.1L236.7,52.1z"/>	<path class="st1" d="M238.22,48.36c0-0.2,0.07-0.37,0.19-0.51c0.13-0.14,0.28-0.2,0.47-0.2s0.34,0.07,0.47,0.2  c0.13,0.14,0.19,0.31,0.19,0.51c0,0.2-0.07,0.37-0.19,0.5c-0.13,0.13-0.28,0.2-0.47,0.2s-0.34-0.06-0.47-0.2  S238.22,48.56,238.22,48.36 M238.43,51.25h0.88v7.31h-0.88V51.25z"/>	<path class="st1" d="M247.5,57.48c-0.33,0.43-0.71,0.75-1.13,0.96c-0.43,0.2-0.88,0.31-1.37,0.31c-0.52,0-1-0.1-1.44-0.29  c-0.44-0.19-0.82-0.46-1.13-0.8c-0.32-0.34-0.56-0.75-0.74-1.22c-0.18-0.47-0.26-0.98-0.26-1.54s0.09-1.07,0.26-1.54  c0.18-0.47,0.42-0.87,0.74-1.22c0.31-0.34,0.69-0.61,1.13-0.8s0.92-0.28,1.44-0.28c0.5,0,0.97,0.11,1.39,0.33  c0.43,0.22,0.8,0.53,1.14,0.93l-0.71,0.57c-0.25-0.31-0.53-0.54-0.83-0.72c-0.31-0.17-0.64-0.26-0.99-0.26  c-0.41,0-0.78,0.08-1.12,0.24c-0.33,0.16-0.62,0.37-0.85,0.64c-0.23,0.27-0.42,0.58-0.53,0.95c-0.12,0.37-0.19,0.75-0.19,1.16  s0.06,0.8,0.19,1.16c0.12,0.36,0.3,0.68,0.53,0.95s0.52,0.49,0.85,0.64c0.34,0.15,0.71,0.23,1.12,0.23c0.38,0,0.72-0.09,1.02-0.28  c0.31-0.18,0.57-0.43,0.8-0.73L247.5,57.48z"/>	<path class="st1" d="M248.81,48.36c0-0.2,0.07-0.37,0.19-0.51c0.13-0.14,0.29-0.2,0.47-0.2c0.19,0,0.35,0.07,0.47,0.2  c0.12,0.14,0.19,0.31,0.19,0.51c0,0.2-0.06,0.37-0.19,0.5s-0.29,0.2-0.47,0.2c-0.18,0-0.34-0.06-0.47-0.2  S248.81,48.56,248.81,48.36 M249.03,51.25h0.88v7.31h-0.88V51.25z"/></g></svg>