<svg version="1.2" xmlns="http://www.w3.org/2000/svg" viewBox="0 0 1523 477" width="1523" height="477">
	<title>logo (78)-svg</title>
	<style>
		.s0 { fill: #000000 } 
		.s1 { fill: #eeb111 } 
	</style>
	<path id="Layer" fill-rule="evenodd" class="s0" d="m338.8 51.5l-73.8 269.2h-43.1l-52.3-195.7-52.7 195.7h-43.1l-73.8-269.2h42.7l52.7 195.2 53.2-195.2h42.1l53.2 195.2 52.7-195.2zm19.6 1l42.7-3.4v65.9l-1 24.8h1.5c20.1-7.6 35.9-11 55.1-11 34.4 0 57.4 15.3 57.4 74.5v117.4h-42.6v-114c0-35.4-17.2-40.1-37.4-40.1-12.4 0-23 2.8-33.5 5.7v148.4h-42.6v-268.2zm214.6 2.4c22 0 25.4 12.8 25.4 27.2 0 14.3-4.8 27.2-25.4 27.2-21.1 0-24.9-12.9-24.9-27.2-0.5-14.4 3.3-27.2 24.9-27.2zm-21.6 76.3h42.7v189.1h-42.7zm107.8 0l5.8 15.2h2.8c11.1-9.5 29.3-18.1 52.3-18.1 2.8 0 5.7 0 9.1 0.5v41.5c-7.7-1-15.8-2.4-24-2.4-11.5 0-21.1 2.9-32.1 7.7v144.6h-42.6v-189zm87.7 189.5v-268.3l42.6-3.3v271.6zm344.9-191.9c60.4 0 83.4 35.3 83.4 98.3 0 59.2-21.6 97.4-84.3 97.4-62.8 0-84.8-38.7-84.8-97.4 0.5-63 25.4-98.3 85.7-98.3zm40.3 98.3c0-35.8-5.8-64.9-39.8-64.9-34.5 0-43.1 28.2-43.1 64.9 0 34.4 7.2 64 41.2 64 34 0 41.7-28.2 41.7-64zm150.4-98.3c60.4 0 83.4 35.3 83.4 98.3 0 59.2-21.6 97.4-84.4 97.4-62.7 0-84.8-38.7-84.8-97.4 0.5-63 25.4-98.3 85.8-98.3zm40.2 98.3c0-35.8-5.7-64.9-39.7-64.9-34.5 0-43.1 28.2-43.1 64.9 0 34.4 7.2 64 41.2 64 34 0 41.6-28.2 41.6-64zm71 93.6v-268.3l42.6-3.3v271.6zm-537.5-189.5l3.3 13.8c12.9-7.2 36.4-16.7 57.5-16.7 38.8 0 67.1 28.2 67.1 95.5 0 66.3-29.7 99.3-79.6 99.3-18.2 0-38.3-3.9-38.3-3.9v86.9l-42.6 4.8v-279.7zm10.5 154.1c12 0.5 18.7 1 31.2 1 26.3 0 43.6-13.8 43.6-69.2 0-37.7-15.4-47.8-43.2-47.8-11 0-21 2-31.1 5.3v110.7z"/>
	<path id="Layer" class="s1" d="m847.1 321.2c-143.8 123.6-292.3 186.2-332 140.4-22.1-25.3-6.3-78.3 36.4-141.3h20.1c-34 50.1-47.4 91.1-31.1 109.8 31.1 36.2 159.5-23.4 286.9-132.8 127.5-109.3 205.1-227.2 173.9-263.4-24.9-28.7-112.6 3.8-211.7 73.9v-19.5c112.6-77.4 213.6-109.8 245.3-73.1 39.7 45.9-44.6 182.9-187.8 306z"/>
	<path id="Layer" fill-rule="evenodd" class="s0" d="m1496.7 81.1c-14.3 0-25.8-11.7-25.8-26.2 0-14.6 11.5-26.3 25.8-26.3 14.3 0 25.9 11.7 25.9 26.3 0 14.5-11.6 26.2-25.9 26.2zm20.1-25.8c0-12.1-8.9-21.9-20.1-21.9-11.1 0-20.1 9.8-20.1 21.9 0 12.2 9 22 20.1 22 11.2 0 20.1-9.8 20.1-22zm-25.3 14.8h-4.8v-29.1h11c7.2 0 10.5 2.4 10.5 8.6 0 5.3-3.3 7.6-7.6 8.1l8.1 12.9h-5.3l-7.6-12.4h-4.3zm5.2-16.7c3.9 0 6.7-0.5 6.7-4.8 0-3.3-3.3-3.8-6.2-3.8h-5.7v8.6z"/>
</svg>