<?xml version="1.0" encoding="UTF-8" standalone="no"?>
<!-- Created with Inkscape (http://www.inkscape.org/) -->
<svg xmlns:svg="http://www.w3.org/2000/svg" xmlns="http://www.w3.org/2000/svg" version="1.1" width="255.63184" height="53.396751" id="svg9219">
  <defs id="defs9221"/>
  <path d="m 255.63184,10.64176 0,33.67974 -7.4252,0 0,-14.7251 -15.14282,0 0,14.7251 -7.4461,0 0,-33.67974 7.4461,0 0,12.7722 15.14282,0 0,-12.7722 7.4252,0 z m -62.30489,6.0989 9.61829,0 0,27.58084 7.42523,0 0,-27.58084 9.63916,0 0,-6.0989 -26.68268,0 0,6.0989 z m -49.17768,14.15071 c 0,5.85872 -2.96588,8.09359 -7.29985,8.09359 -4.33401,0 -7.27902,-2.23487 -7.27902,-8.05182 l 0,-10.700919 -7.54009,0 0,10.753149 c 0,7.90561 4.4802,14.10894 14.81911,14.10894 10.39108,0 14.81906,-6.20333 14.81906,-14.05673 l 0,-10.805359 -7.51921,0 0,10.659149 z m -22.11896,-14.833001 7.54009,0 0,-5.416609 -7.54009,0 0,5.416609 z m 22.11896,0 7.51921,0 0,-5.416609 -7.51921,0 0,5.416609 z M 89.44713,10.64176 82.49186,34.88074 76.39294,10.64176 l -7.27898,0 9.23189,33.67974 7.58188,0 7.279,-25.14753 7.28944,25.14753 7.67583,0 9.24235,-33.67974 -7.19544,0 -6.08848,24.23898 -6.96567,-24.23898 -7.71763,0 z m 70.32537,0 16.43781,0 c 9.3781,0 13.20036,5.33655 13.20036,11.05949 0,3.85358 -2.29751,7.57142 -6.57929,9.51387 l 7.57144,13.10638 -8.43821,0 -6.47488,-11.57121 -8.47998,0 0,11.57121 -7.23725,0 0,-33.67974 z m 7.23725,5.81695 0,10.42243 8.42775,0 c 4.72038,0 6.7255,-2.08867 6.7255,-5.17989 0,-3.09124 -2.00512,-5.24254 -6.7255,-5.24254 l -8.42775,0 z" id="path6290" style="fill:#000000;fill-opacity:1;fill-rule:nonzero;stroke:#000000;stroke-width:2;stroke-miterlimit:4;stroke-opacity:1;stroke-dasharray:none"/>
  <path d="M 48.25864,20.76134 0,20.76134 0,0 l 20.08253,0 0,8.13535 8.08315,0 0,-8.13535 20.09296,0 0,20.76134 z m -20.09296,24.54183 0,8.09358 C 39.70554,51.23499 48.25864,41.16762 48.25864,29.86794 l 0,-0.0214 0,-1.00256 -48.25864,0 0,1.00256 0,0.0214 c 0,11.29968 8.50088,21.36705 20.06166,23.52881 l 0,-8.09358 8.10402,0 z m 0,0" id="path6294" style="fill:#cc0000;fill-opacity:1;fill-rule:nonzero;stroke:none"/>
</svg>